POSITION_217
NOTE_ON_74
DURATION_107
POSITION_291
NOTE_ON_72
DURATION_78
POSITION_366
NOTE_ON_71
DURATION_46
POSITION_427
NOTE_ON_69
DURATION_54
POSITION_499
NOTE_ON_67
DURATION_26
POSITION_839
NOTE_ON_59
DURATION_31
POSITION_838
NOTE_ON_62
DURATION_32
POSITION_840
NOTE_ON_55
DURATION_31
POSITION_1178
NOTE_ON_60
DURATION_30
POSITION_1178
NOTE_ON_55
DURATION_31
POSITION_1178
NOTE_ON_64
DURATION_34
POSITION_1544
NOTE_ON_62
DURATION_57
POSITION_1545
NOTE_ON_59
DURATION_62
POSITION_1546
NOTE_ON_55
DURATION_63
POSITION_2355
NOTE_ON_74
DURATION_123
POSITION_2439
NOTE_ON_72
DURATION_107
POSITION_2520
NOTE_ON_71
DURATION_86
POSITION_2585
NOTE_ON_69
DURATION_40
POSITION_2660
NOTE_ON_67
DURATION_46
POSITION_2728
NOTE_ON_66
DURATION_132
POSITION_2815
NOTE_ON_64
DURATION_88
POSITION_2869
NOTE_ON_62
DURATION_50
POSITION_2948
NOTE_ON_60
DURATION_44
POSITION_3009
NOTE_ON_59
DURATION_88
POSITION_3074
NOTE_ON_57
DURATION_60
POSITION_3221
NOTE_ON_43
DURATION_72
POSITION_3224
NOTE_ON_57
DURATION_73
POSITION_3218
NOTE_ON_54
DURATION_80
POSITION_3221
NOTE_ON_60
DURATION_77
POSITION_3137
NOTE_ON_55
DURATION_165
POSITION_3227
NOTE_ON_50
DURATION_83
POSITION_3583
NOTE_ON_31
DURATION_106
POSITION_3588
NOTE_ON_43
DURATION_101
POSITION_3582
NOTE_ON_50
DURATION_107
POSITION_3583
NOTE_ON_55
DURATION_107
POSITION_3580
NOTE_ON_59
DURATION_113
POSITION_4400
NOTE_ON_55
DURATION_57
POSITION_4491
NOTE_ON_59
DURATION_59
POSITION_4576
NOTE_ON_60
DURATION_63
POSITION_4639
NOTE_ON_62
DURATION_40
POSITION_4726
NOTE_ON_64
DURATION_83
POSITION_4802
NOTE_ON_66
DURATION_71
POSITION_4872
NOTE_ON_67
DURATION_39
POSITION_4943
NOTE_ON_69
DURATION_44
POSITION_5020
NOTE_ON_71
DURATION_37
POSITION_5089
NOTE_ON_72
DURATION_56
POSITION_5169
NOTE_ON_74
DURATION_60
POSITION_5239
NOTE_ON_76
DURATION_25
POSITION_5327
NOTE_ON_54
DURATION_47
POSITION_5423
NOTE_ON_57
DURATION_62
POSITION_5494
NOTE_ON_59
DURATION_70
POSITION_5568
NOTE_ON_60
DURATION_41
POSITION_5653
NOTE_ON_62
DURATION_80
POSITION_5737
NOTE_ON_64
DURATION_67
POSITION_5802
NOTE_ON_66
DURATION_53
POSITION_5879
NOTE_ON_67
DURATION_32
POSITION_5953
NOTE_ON_69
DURATION_64
POSITION_6032
NOTE_ON_71
DURATION_71
POSITION_6110
NOTE_ON_72
DURATION_58
POSITION_6172
NOTE_ON_74
DURATION_30
POSITION_6256
NOTE_ON_52
DURATION_110
POSITION_6336
NOTE_ON_55
DURATION_80
POSITION_6417
NOTE_ON_57
DURATION_82
POSITION_6488
NOTE_ON_59
DURATION_37
POSITION_6567
NOTE_ON_60
DURATION_66
POSITION_6632
NOTE_ON_62
DURATION_77
POSITION_6716
NOTE_ON_64
DURATION_54
POSITION_6778
NOTE_ON_66
DURATION_48
POSITION_6855
NOTE_ON_67
DURATION_71
POSITION_6931
NOTE_ON_69
DURATION_77
POSITION_6992
NOTE_ON_71
DURATION_77
POSITION_7067
NOTE_ON_72
DURATION_43
POSITION_7387
NOTE_ON_69
DURATION_146
POSITION_7448
NOTE_ON_66
DURATION_89
POSITION_7303
NOTE_ON_72
DURATION_234
POSITION_7189
NOTE_ON_50
DURATION_356
POSITION_7527
NOTE_ON_62
DURATION_48
POSITION_7593
NOTE_ON_57
DURATION_68
POSITION_7654
NOTE_ON_54
DURATION_93
POSITION_7731
NOTE_ON_50
DURATION_60
POSITION_7805
NOTE_ON_38
DURATION_53
POSITION_7892
NOTE_ON_60
DURATION_62
POSITION_7971
NOTE_ON_59
DURATION_73
POSITION_8052
NOTE_ON_57
DURATION_66
POSITION_8375
NOTE_ON_66
DURATION_152
POSITION_8300
NOTE_ON_67
DURATION_235
POSITION_8220
NOTE_ON_71
DURATION_315
POSITION_8451
NOTE_ON_62
DURATION_94
POSITION_8142
NOTE_ON_55
DURATION_421
POSITION_8512
NOTE_ON_59
DURATION_94
POSITION_8571
NOTE_ON_55
DURATION_69
POSITION_8649
NOTE_ON_50
DURATION_85
POSITION_8734
NOTE_ON_43
DURATION_109
POSITION_8813
NOTE_ON_54
DURATION_70
POSITION_8889
NOTE_ON_52
DURATION_61
POSITION_8958
NOTE_ON_50
DURATION_68
POSITION_9127
NOTE_ON_71
DURATION_243
POSITION_9277
NOTE_ON_64
DURATION_95
POSITION_9042
NOTE_ON_49
DURATION_391
POSITION_9209
NOTE_ON_67
DURATION_232
POSITION_9417
NOTE_ON_55
DURATION_53
POSITION_9357
NOTE_ON_61
DURATION_127
POSITION_9480
NOTE_ON_52
DURATION_88
POSITION_9633
NOTE_ON_37
DURATION_46
POSITION_9564
NOTE_ON_49
DURATION_115
POSITION_9716
NOTE_ON_59
DURATION_75
POSITION_9796
NOTE_ON_57
DURATION_77
POSITION_9863
NOTE_ON_55
DURATION_81
POSITION_10123
NOTE_ON_66
DURATION_210
POSITION_10195
NOTE_ON_64
DURATION_138
POSITION_9960
NOTE_ON_54
DURATION_374
POSITION_10267
NOTE_ON_61
DURATION_71
POSITION_10034
NOTE_ON_69
DURATION_305
POSITION_10340
NOTE_ON_57
DURATION_47
POSITION_10404
NOTE_ON_54
DURATION_82
POSITION_10485
NOTE_ON_49
DURATION_140
POSITION_10554
NOTE_ON_42
DURATION_113
POSITION_10646
NOTE_ON_52
DURATION_68
POSITION_10718
NOTE_ON_50
DURATION_62
POSITION_10779
NOTE_ON_49
DURATION_80
POSITION_10879
NOTE_ON_47
DURATION_372
POSITION_11127
NOTE_ON_62
DURATION_125
POSITION_11047
NOTE_ON_66
DURATION_206
POSITION_10970
NOTE_ON_69
DURATION_283
POSITION_11207
NOTE_ON_59
DURATION_47
POSITION_11239
NOTE_ON_54
DURATION_86
POSITION_11328
NOTE_ON_50
DURATION_94
POSITION_11407
NOTE_ON_47
DURATION_79
POSITION_11485
NOTE_ON_35
DURATION_142
POSITION_11563
NOTE_ON_57
DURATION_72
POSITION_11647
NOTE_ON_55
DURATION_51
POSITION_11707
NOTE_ON_54
DURATION_77
POSITION_11991
NOTE_ON_64
DURATION_173
POSITION_11807
NOTE_ON_52
DURATION_360
POSITION_11904
NOTE_ON_67
DURATION_264
POSITION_12069
NOTE_ON_62
DURATION_100
POSITION_12137
NOTE_ON_59
DURATION_68
POSITION_12211
NOTE_ON_55
DURATION_33
POSITION_12262
NOTE_ON_52
DURATION_72
POSITION_12338
NOTE_ON_47
DURATION_113
POSITION_12430
NOTE_ON_40
DURATION_82
POSITION_12515
NOTE_ON_50
DURATION_75
POSITION_12580
NOTE_ON_49
DURATION_79
POSITION_12654
NOTE_ON_47
DURATION_67
POSITION_12819
NOTE_ON_67
DURATION_286
POSITION_12964
NOTE_ON_61
DURATION_142
POSITION_12897
NOTE_ON_64
DURATION_209
POSITION_13038
NOTE_ON_57
DURATION_69
POSITION_12738
NOTE_ON_45
DURATION_379
POSITION_13105
NOTE_ON_52
DURATION_63
POSITION_13168
NOTE_ON_49
DURATION_106
POSITION_13252
NOTE_ON_45
DURATION_69
POSITION_13420
NOTE_ON_55
DURATION_66
POSITION_13348
NOTE_ON_33
DURATION_191
POSITION_13492
NOTE_ON_54
DURATION_89
POSITION_13571
NOTE_ON_52
DURATION_87
POSITION_13672
NOTE_ON_50
DURATION_187
POSITION_13844
NOTE_ON_57
DURATION_84
POSITION_13933
NOTE_ON_59
DURATION_86
POSITION_14019
NOTE_ON_61
DURATION_66
POSITION_14100
NOTE_ON_62
DURATION_60
POSITION_14187
NOTE_ON_64
DURATION_78
POSITION_14272
NOTE_ON_65
DURATION_62
POSITION_14336
NOTE_ON_62
DURATION_38
POSITION_14419
NOTE_ON_56
DURATION_103
POSITION_14504
NOTE_ON_65
DURATION_84
POSITION_14587
NOTE_ON_64
DURATION_56
POSITION_14659
NOTE_ON_62
DURATION_70
POSITION_14737
NOTE_ON_61
DURATION_55
POSITION_14809
NOTE_ON_62
DURATION_62
POSITION_14887
NOTE_ON_64
DURATION_77
POSITION_14968
NOTE_ON_65
DURATION_56
POSITION_15038
NOTE_ON_67
DURATION_74
POSITION_15108
NOTE_ON_69
DURATION_75
POSITION_15182
NOTE_ON_70
DURATION_55
POSITION_15254
NOTE_ON_67
DURATION_53
POSITION_15339
NOTE_ON_77
DURATION_102
POSITION_15417
NOTE_ON_76
DURATION_53
POSITION_15480
NOTE_ON_74
DURATION_69
POSITION_15559
NOTE_ON_73
DURATION_27
POSITION_15656
NOTE_ON_81
DURATION_113
POSITION_15741
NOTE_ON_79
DURATION_95
POSITION_15818
NOTE_ON_78
DURATION_83
POSITION_15890
NOTE_ON_76
DURATION_57
POSITION_15972
NOTE_ON_74
DURATION_36
POSITION_16301
NOTE_ON_69
DURATION_37
POSITION_16307
NOTE_ON_66
DURATION_33
POSITION_16308
NOTE_ON_62
DURATION_34
POSITION_16639
NOTE_ON_71
DURATION_30
POSITION_16646
NOTE_ON_67
DURATION_28
POSITION_16647
NOTE_ON_62
DURATION_49
POSITION_17002
NOTE_ON_69
DURATION_44
POSITION_17007
NOTE_ON_62
DURATION_43
POSITION_17005
NOTE_ON_66
DURATION_47
POSITION_17730
NOTE_ON_81
DURATION_128
POSITION_17836
NOTE_ON_79
DURATION_92
POSITION_17976
NOTE_ON_76
DURATION_118
POSITION_18042
NOTE_ON_74
DURATION_54
POSITION_17913
NOTE_ON_78
DURATION_219
POSITION_18114
NOTE_ON_73
DURATION_99
POSITION_18199
NOTE_ON_71
DURATION_53
POSITION_18258
NOTE_ON_69
DURATION_46
POSITION_18336
NOTE_ON_67
DURATION_31
POSITION_18399
NOTE_ON_66
DURATION_103
POSITION_18474
NOTE_ON_64
DURATION_34
POSITION_18542
NOTE_ON_62
DURATION_143
POSITION_18627
NOTE_ON_67
DURATION_69
POSITION_18627
NOTE_ON_64
DURATION_71
POSITION_18621
NOTE_ON_61
DURATION_81
POSITION_18630
NOTE_ON_57
DURATION_73
POSITION_18634
NOTE_ON_50
DURATION_70
POSITION_18985
NOTE_ON_66
DURATION_181
POSITION_18993
NOTE_ON_57
DURATION_173
POSITION_18995
NOTE_ON_38
DURATION_173
POSITION_18994
NOTE_ON_62
DURATION_177
POSITION_18995
NOTE_ON_50
DURATION_177
POSITION_19762
NOTE_ON_43
DURATION_204
POSITION_19844
NOTE_ON_66
DURATION_126
POSITION_19942
NOTE_ON_55
DURATION_37
POSITION_19942
NOTE_ON_64
DURATION_72
POSITION_20020
NOTE_ON_66
DURATION_63
POSITION_20090
NOTE_ON_59
DURATION_33
POSITION_20093
NOTE_ON_67
DURATION_71
POSITION_20178
NOTE_ON_66
DURATION_38
POSITION_20248
NOTE_ON_55
DURATION_44
POSITION_20249
NOTE_ON_64
DURATION_60
POSITION_20324
NOTE_ON_66
DURATION_71
POSITION_20402
NOTE_ON_67
DURATION_38
POSITION_20411
NOTE_ON_52
DURATION_31
POSITION_20481
NOTE_ON_64
DURATION_62
POSITION_20559
NOTE_ON_49
DURATION_39
POSITION_20559
NOTE_ON_69
DURATION_75
POSITION_20640
NOTE_ON_71
DURATION_68
POSITION_20725
NOTE_ON_73
DURATION_228
POSITION_20895
NOTE_ON_66
DURATION_59
POSITION_20725
NOTE_ON_45
DURATION_231
POSITION_20900
NOTE_ON_57
DURATION_59
POSITION_20802
NOTE_ON_67
DURATION_172
POSITION_20978
NOTE_ON_67
DURATION_63
POSITION_21046
NOTE_ON_61
DURATION_44
POSITION_21051
NOTE_ON_69
DURATION_63
POSITION_21122
NOTE_ON_67
DURATION_68
POSITION_21210
NOTE_ON_66
DURATION_43
POSITION_21208
NOTE_ON_57
DURATION_46
POSITION_21282
NOTE_ON_67
DURATION_78
POSITION_21361
NOTE_ON_54
DURATION_38
POSITION_21361
NOTE_ON_69
DURATION_44
POSITION_21434
NOTE_ON_66
DURATION_37
POSITION_21507
NOTE_ON_50
DURATION_50
POSITION_21527
NOTE_ON_71
DURATION_57
POSITION_21591
NOTE_ON_73
DURATION_99
POSITION_21676
NOTE_ON_59
DURATION_66
POSITION_21768
NOTE_ON_69
DURATION_150
POSITION_21851
NOTE_ON_67
DURATION_75
POSITION_21685
NOTE_ON_74
DURATION_242
POSITION_21849
NOTE_ON_59
DURATION_80
POSITION_21676
NOTE_ON_47
DURATION_254
POSITION_21927
NOTE_ON_69
DURATION_66
POSITION_22005
NOTE_ON_62
DURATION_47
POSITION_22006
NOTE_ON_71
DURATION_94
POSITION_22086
NOTE_ON_69
DURATION_52
POSITION_22153
NOTE_ON_59
DURATION_34
POSITION_22154
NOTE_ON_67
DURATION_46
POSITION_22232
NOTE_ON_69
DURATION_60
POSITION_22299
NOTE_ON_71
DURATION_47
POSITION_22308
NOTE_ON_55
DURATION_47
POSITION_22380
NOTE_ON_67
DURATION_57
POSITION_22454
NOTE_ON_52
DURATION_39
POSITION_22455
NOTE_ON_73
DURATION_67
POSITION_22525
NOTE_ON_74
DURATION_91
POSITION_22681
NOTE_ON_71
DURATION_94
POSITION_22613
NOTE_ON_76
DURATION_173
POSITION_22610
NOTE_ON_49
DURATION_222
POSITION_22781
NOTE_ON_61
DURATION_62
POSITION_22764
NOTE_ON_69
DURATION_80
POSITION_22841
NOTE_ON_71
DURATION_74
POSITION_22929
NOTE_ON_64
DURATION_57
POSITION_22926
NOTE_ON_73
DURATION_103
POSITION_22999
NOTE_ON_71
DURATION_59
POSITION_23071
NOTE_ON_61
DURATION_35
POSITION_23071
NOTE_ON_69
DURATION_49
POSITION_23143
NOTE_ON_71
DURATION_70
POSITION_23214
NOTE_ON_57
DURATION_37
POSITION_23213
NOTE_ON_73
DURATION_59
POSITION_23280
NOTE_ON_69
DURATION_70
POSITION_23366
NOTE_ON_54
DURATION_31
POSITION_23364
NOTE_ON_74
DURATION_69
POSITION_23424
NOTE_ON_76
DURATION_50
POSITION_23518
NOTE_ON_50
DURATION_57
POSITION_23545
NOTE_ON_78
DURATION_64
POSITION_23619
NOTE_ON_62
DURATION_53
POSITION_23614
NOTE_ON_79
DURATION_84
POSITION_23699
NOTE_ON_61
DURATION_116
POSITION_23789
NOTE_ON_62
DURATION_60
POSITION_23873
NOTE_ON_64
DURATION_38
POSITION_23948
NOTE_ON_62
DURATION_49
POSITION_23697
NOTE_ON_81
DURATION_362
POSITION_24050
NOTE_ON_61
DURATION_77
POSITION_24050
NOTE_ON_78
DURATION_84
POSITION_24119
NOTE_ON_62
DURATION_65
POSITION_24225
NOTE_ON_59
DURATION_51
POSITION_24219
NOTE_ON_79
DURATION_107
POSITION_24295
NOTE_ON_62
DURATION_56
POSITION_24378
NOTE_ON_59
DURATION_90
POSITION_24457
NOTE_ON_57
DURATION_84
POSITION_24380
NOTE_ON_81
DURATION_162
POSITION_24557
NOTE_ON_55
DURATION_60
POSITION_24558
NOTE_ON_83
DURATION_65
POSITION_24633
NOTE_ON_62
DURATION_47
POSITION_24624
NOTE_ON_81
DURATION_82
POSITION_24709
NOTE_ON_61
DURATION_60
POSITION_24792
NOTE_ON_62
DURATION_53
POSITION_24709
NOTE_ON_83
DURATION_151
POSITION_24881
NOTE_ON_73
DURATION_82
POSITION_24883
NOTE_ON_64
DURATION_82
POSITION_24968
NOTE_ON_62
DURATION_47
POSITION_25048
NOTE_ON_61
DURATION_54
POSITION_25053
NOTE_ON_76
DURATION_73
POSITION_25122
NOTE_ON_62
DURATION_71
POSITION_25219
NOTE_ON_57
DURATION_46
POSITION_25218
NOTE_ON_78
DURATION_64
POSITION_25287
NOTE_ON_62
DURATION_220
POSITION_25388
NOTE_ON_79
DURATION_120
POSITION_25389
NOTE_ON_57
DURATION_121
POSITION_25446
NOTE_ON_55
DURATION_70
POSITION_25538
NOTE_ON_54
DURATION_55
POSITION_25540
NOTE_ON_81
DURATION_70
POSITION_25610
NOTE_ON_62
DURATION_46
POSITION_25608
NOTE_ON_79
DURATION_78
POSITION_25685
NOTE_ON_61
DURATION_50
POSITION_25687
NOTE_ON_81
DURATION_59
POSITION_25768
NOTE_ON_62
DURATION_49
POSITION_25868
NOTE_ON_64
DURATION_33
POSITION_25872
NOTE_ON_71
DURATION_88
POSITION_25945
NOTE_ON_62
DURATION_54
POSITION_26037
NOTE_ON_78
DURATION_58
POSITION_26031
NOTE_ON_61
DURATION_129
POSITION_26107
NOTE_ON_62
DURATION_61
POSITION_26219
NOTE_ON_55
DURATION_131
POSITION_26289
NOTE_ON_62
DURATION_64
POSITION_26215
NOTE_ON_83
DURATION_204
POSITION_26357
NOTE_ON_55
DURATION_167
POSITION_26450
NOTE_ON_54
DURATION_74
POSITION_26384
NOTE_ON_81
DURATION_141
POSITION_26544
NOTE_ON_52
DURATION_41
POSITION_26545
NOTE_ON_79
DURATION_70
POSITION_26616
NOTE_ON_62
DURATION_45
POSITION_26617
NOTE_ON_78
DURATION_59
POSITION_26690
NOTE_ON_61
DURATION_64
POSITION_26691
NOTE_ON_79
DURATION_96
POSITION_26776
NOTE_ON_62
DURATION_59
POSITION_26851
NOTE_ON_64
DURATION_48
POSITION_26852
NOTE_ON_69
DURATION_83
POSITION_26923
NOTE_ON_62
DURATION_57
POSITION_27018
NOTE_ON_61
DURATION_49
POSITION_27084
NOTE_ON_62
DURATION_68
POSITION_27018
NOTE_ON_76
DURATION_138
POSITION_27176
NOTE_ON_54
DURATION_49
POSITION_27174
NOTE_ON_81
DURATION_53
POSITION_27262
NOTE_ON_62
DURATION_84
POSITION_27346
NOTE_ON_79
DURATION_63
POSITION_27420
NOTE_ON_52
DURATION_89
POSITION_27547
NOTE_ON_50
DURATION_35
POSITION_27543
NOTE_ON_78
DURATION_83
POSITION_27622
NOTE_ON_76
DURATION_35
POSITION_27702
NOTE_ON_57
DURATION_41
POSITION_27705
NOTE_ON_74
DURATION_55
POSITION_27785
NOTE_ON_73
DURATION_68
POSITION_27859
NOTE_ON_54
DURATION_39
POSITION_27859
NOTE_ON_74
DURATION_70
POSITION_27940
NOTE_ON_78
DURATION_41
POSITION_28020
NOTE_ON_50
DURATION_33
POSITION_28020
NOTE_ON_69
DURATION_62
POSITION_28107
NOTE_ON_73
DURATION_70
POSITION_28181
NOTE_ON_49
DURATION_34
POSITION_28183
NOTE_ON_74
DURATION_59
POSITION_28244
NOTE_ON_78
DURATION_52
POSITION_28340
NOTE_ON_57
DURATION_40
POSITION_28336
NOTE_ON_69
DURATION_53
POSITION_28421
NOTE_ON_73
DURATION_50
POSITION_28502
NOTE_ON_47
DURATION_34
POSITION_28583
NOTE_ON_76
DURATION_120
POSITION_28504
NOTE_ON_77
DURATION_200
POSITION_28666
NOTE_ON_56
DURATION_47
POSITION_28654
NOTE_ON_74
DURATION_65
POSITION_28747
NOTE_ON_73
DURATION_88
POSITION_28835
NOTE_ON_53
DURATION_47
POSITION_28828
NOTE_ON_74
DURATION_67
POSITION_28904
NOTE_ON_77
DURATION_79
POSITION_28988
NOTE_ON_68
DURATION_42
POSITION_28993
NOTE_ON_50
DURATION_38
POSITION_29058
NOTE_ON_73
DURATION_83
POSITION_29142
NOTE_ON_45
DURATION_52
POSITION_29141
NOTE_ON_74
DURATION_78
POSITION_29219
NOTE_ON_77
DURATION_63
POSITION_29303
NOTE_ON_57
DURATION_45
POSITION_29302
NOTE_ON_69
DURATION_55
POSITION_29380
NOTE_ON_74
DURATION_74
POSITION_29467
NOTE_ON_77
DURATION_70
POSITION_29550
NOTE_ON_76
DURATION_127
POSITION_29466
NOTE_ON_44
DURATION_212
POSITION_29633
NOTE_ON_59
DURATION_51
POSITION_29624
NOTE_ON_74
DURATION_66
POSITION_29716
NOTE_ON_73
DURATION_86
POSITION_29794
NOTE_ON_53
DURATION_24
POSITION_29794
NOTE_ON_74
DURATION_56
POSITION_29946
NOTE_ON_68
DURATION_32
POSITION_29947
NOTE_ON_50
DURATION_33
POSITION_29856
NOTE_ON_77
DURATION_188
POSITION_30029
NOTE_ON_73
DURATION_88
POSITION_30106
NOTE_ON_44
DURATION_32
POSITION_30108
NOTE_ON_74
DURATION_69
POSITION_30180
NOTE_ON_77
DURATION_91
POSITION_30263
NOTE_ON_59
DURATION_27
POSITION_30264
NOTE_ON_76
DURATION_72
POSITION_30338
NOTE_ON_74
DURATION_86
POSITION_30471
NOTE_ON_57
DURATION_283
POSITION_30744
NOTE_ON_49
DURATION_101
POSITION_30652
NOTE_ON_45
DURATION_198
POSITION_30816
NOTE_ON_52
DURATION_43
POSITION_30889
NOTE_ON_57
DURATION_50
POSITION_30950
NOTE_ON_61
DURATION_78
POSITION_30470
NOTE_ON_73
DURATION_572
POSITION_31029
NOTE_ON_64
DURATION_95
POSITION_31100
NOTE_ON_67
DURATION_69
POSITION_31182
NOTE_ON_73
DURATION_86
POSITION_31239
NOTE_ON_67
DURATION_91
POSITION_31326
NOTE_ON_66
DURATION_60
POSITION_31399
NOTE_ON_64
DURATION_69
POSITION_31495
NOTE_ON_74
DURATION_335
POSITION_31493
NOTE_ON_66
DURATION_343
POSITION_31723
NOTE_ON_54
DURATION_114
POSITION_31660
NOTE_ON_50
DURATION_182
POSITION_31492
NOTE_ON_69
DURATION_361
POSITION_31568
NOTE_ON_45
DURATION_311
POSITION_31815
NOTE_ON_57
DURATION_149
POSITION_31887
NOTE_ON_62
DURATION_88
POSITION_31961
NOTE_ON_66
DURATION_106
POSITION_32042
NOTE_ON_69
DURATION_62
POSITION_32112
NOTE_ON_74
DURATION_105
POSITION_32186
NOTE_ON_69
DURATION_52
POSITION_32270
NOTE_ON_67
DURATION_45
POSITION_32330
NOTE_ON_66
DURATION_72
POSITION_32423
NOTE_ON_67
DURATION_462
POSITION_32434
NOTE_ON_73
DURATION_536
POSITION_32889
NOTE_ON_67
DURATION_110
POSITION_32420
NOTE_ON_76
DURATION_579
POSITION_32823
NOTE_ON_64
DURATION_179
POSITION_32666
NOTE_ON_57
DURATION_336
POSITION_32739
NOTE_ON_61
DURATION_264
POSITION_32491
NOTE_ON_45
DURATION_512
POSITION_32576
NOTE_ON_52
DURATION_428
POSITION_32979
NOTE_ON_73
DURATION_64
POSITION_33137
NOTE_ON_73
DURATION_74
POSITION_33056
NOTE_ON_76
DURATION_167
POSITION_33200
NOTE_ON_71
DURATION_40
POSITION_33260
NOTE_ON_69
DURATION_524
POSITION_33735
NOTE_ON_65
DURATION_98
POSITION_33480
NOTE_ON_50
DURATION_354
POSITION_33398
NOTE_ON_45
DURATION_437
POSITION_33565
NOTE_ON_57
DURATION_273
POSITION_33650
NOTE_ON_62
DURATION_189
POSITION_33335
NOTE_ON_77
DURATION_518
POSITION_33337
NOTE_ON_74
DURATION_524
POSITION_33788
NOTE_ON_69
DURATION_81
POSITION_33870
NOTE_ON_74
DURATION_72
POSITION_33935
NOTE_ON_77
DURATION_154
POSITION_34018
NOTE_ON_74
DURATION_93
POSITION_34090
NOTE_ON_72
DURATION_54
POSITION_34168
NOTE_ON_71
DURATION_95
POSITION_34275
NOTE_ON_74
DURATION_707
POSITION_34272
NOTE_ON_80
DURATION_856
POSITION_34442
NOTE_ON_47
DURATION_857
POSITION_34653
NOTE_ON_59
DURATION_647
POSITION_35134
NOTE_ON_80
DURATION_166
POSITION_34833
NOTE_ON_68
DURATION_467
POSITION_34914
NOTE_ON_71
DURATION_386
POSITION_34508
NOTE_ON_50
DURATION_792
POSITION_34750
NOTE_ON_62
DURATION_550
POSITION_35067
NOTE_ON_77
DURATION_233
POSITION_34988
NOTE_ON_74
DURATION_312
POSITION_34585
NOTE_ON_56
DURATION_715
POSITION_34352
NOTE_ON_45
DURATION_949
POSITION_35265
NOTE_ON_33
DURATION_339
POSITION_35262
NOTE_ON_76
DURATION_343
POSITION_35264
NOTE_ON_73
DURATION_341
POSITION_35260
NOTE_ON_81
DURATION_346
POSITION_35723
NOTE_ON_69
DURATION_68
POSITION_35799
NOTE_ON_71
DURATION_87
POSITION_35887
NOTE_ON_73
DURATION_74
POSITION_35959
NOTE_ON_74
DURATION_82
POSITION_36273
NOTE_ON_61
DURATION_32
POSITION_36274
NOTE_ON_57
DURATION_33
POSITION_36045
NOTE_ON_76
DURATION_527
POSITION_36699
NOTE_ON_58
DURATION_181
POSITION_36699
NOTE_ON_61
DURATION_208
POSITION_36477
NOTE_ON_67
DURATION_438
POSITION_36919
NOTE_ON_66
DURATION_116
POSITION_37004
NOTE_ON_68
DURATION_116
POSITION_37085
NOTE_ON_70
DURATION_51
POSITION_37167
NOTE_ON_71
DURATION_77
POSITION_37251
NOTE_ON_73
DURATION_95
POSITION_37327
NOTE_ON_74
DURATION_73
POSITION_37411
NOTE_ON_58
DURATION_44
POSITION_37420
NOTE_ON_54
DURATION_37
POSITION_37407
NOTE_ON_76
DURATION_82
POSITION_37498
NOTE_ON_74
DURATION_89
POSITION_37579
NOTE_ON_73
DURATION_56
POSITION_37642
NOTE_ON_76
DURATION_93
POSITION_37735
NOTE_ON_59
DURATION_110
POSITION_37824
NOTE_ON_61
DURATION_99
POSITION_37911
NOTE_ON_62
DURATION_84
POSITION_37736
NOTE_ON_74
DURATION_264
POSITION_37984
NOTE_ON_64
DURATION_75
POSITION_38063
NOTE_ON_66
DURATION_59
POSITION_38132
NOTE_ON_67
DURATION_48
POSITION_38446
NOTE_ON_52
DURATION_313
POSITION_38234
NOTE_ON_69
DURATION_972
POSITION_38690
NOTE_ON_60
DURATION_524
POSITION_38457
NOTE_ON_78
DURATION_757
POSITION_38913
NOTE_ON_51
DURATION_305
POSITION_38908
NOTE_ON_81
DURATION_310
POSITION_39122
NOTE_ON_59
DURATION_98
POSITION_39290
NOTE_ON_75
DURATION_8
POSITION_39204
NOTE_ON_61
DURATION_97
POSITION_39292
NOTE_ON_63
DURATION_48
POSITION_39367
NOTE_ON_64
DURATION_80
POSITION_39457
NOTE_ON_66
DURATION_67
POSITION_39523
NOTE_ON_67
DURATION_64
POSITION_39608
NOTE_ON_75
DURATION_34
POSITION_39606
NOTE_ON_69
DURATION_78
POSITION_39605
NOTE_ON_59
DURATION_120
POSITION_39680
NOTE_ON_67
DURATION_94
POSITION_39764
NOTE_ON_66
DURATION_116
POSITION_39856
NOTE_ON_69
DURATION_74
POSITION_39954
NOTE_ON_83
DURATION_181
POSITION_40026
NOTE_ON_81
DURATION_127
POSITION_40104
NOTE_ON_79
DURATION_89
POSITION_39963
NOTE_ON_76
DURATION_249
POSITION_40000
NOTE_ON_64
DURATION_255
POSITION_40182
NOTE_ON_78
DURATION_76
POSITION_39958
NOTE_ON_67
DURATION_304
POSITION_40261
NOTE_ON_76
DURATION_26
POSITION_40586
NOTE_ON_71
DURATION_32
POSITION_40587
NOTE_ON_67
DURATION_34
POSITION_40592
NOTE_ON_64
DURATION_31
POSITION_40915
NOTE_ON_72
DURATION_34
POSITION_40916
NOTE_ON_69
DURATION_35
POSITION_40916
NOTE_ON_63
DURATION_38
POSITION_41260
NOTE_ON_71
DURATION_34
POSITION_41261
NOTE_ON_67
DURATION_37
POSITION_41265
NOTE_ON_64
DURATION_34
POSITION_42051
NOTE_ON_81
DURATION_139
POSITION_42119
NOTE_ON_79
DURATION_86
POSITION_41960
NOTE_ON_83
DURATION_249
POSITION_42203
NOTE_ON_78
DURATION_42
POSITION_42274
NOTE_ON_76
DURATION_61
POSITION_42353
NOTE_ON_74
DURATION_114
POSITION_42421
NOTE_ON_72
DURATION_107
POSITION_42499
NOTE_ON_71
DURATION_42
POSITION_42577
NOTE_ON_69
DURATION_51
POSITION_42636
NOTE_ON_67
DURATION_78
POSITION_42704
NOTE_ON_66
DURATION_40
POSITION_42773
NOTE_ON_64
DURATION_74
POSITION_42860
NOTE_ON_52
DURATION_36
POSITION_42856
NOTE_ON_59
DURATION_49
POSITION_42857
NOTE_ON_66
DURATION_52
POSITION_42850
NOTE_ON_69
DURATION_60
POSITION_42857
NOTE_ON_63
DURATION_54
POSITION_43219
NOTE_ON_40
DURATION_106
POSITION_43217
NOTE_ON_64
DURATION_112
POSITION_43211
NOTE_ON_67
DURATION_119
POSITION_43212
NOTE_ON_59
DURATION_141
POSITION_43219
NOTE_ON_52
DURATION_149
POSITION_43950
NOTE_ON_52
DURATION_94
POSITION_44048
NOTE_ON_55
DURATION_90
POSITION_44139
NOTE_ON_57
DURATION_88
POSITION_44210
NOTE_ON_59
DURATION_43
POSITION_44288
NOTE_ON_60
DURATION_56
POSITION_44362
NOTE_ON_62
DURATION_73
POSITION_44449
NOTE_ON_64
DURATION_51
POSITION_44514
NOTE_ON_66
DURATION_34
POSITION_44603
NOTE_ON_67
DURATION_50
POSITION_44685
NOTE_ON_69
DURATION_61
POSITION_44777
NOTE_ON_71
DURATION_35
POSITION_44831
NOTE_ON_72
DURATION_31
POSITION_44907
NOTE_ON_54
DURATION_154
POSITION_44998
NOTE_ON_57
DURATION_79
POSITION_45086
NOTE_ON_59
DURATION_53
POSITION_45146
NOTE_ON_60
DURATION_42
POSITION_45223
NOTE_ON_62
DURATION_70
POSITION_45294
NOTE_ON_64
DURATION_85
POSITION_45380
NOTE_ON_66
DURATION_52
POSITION_45452
NOTE_ON_67
DURATION_33
POSITION_45525
NOTE_ON_69
DURATION_58
POSITION_45600
NOTE_ON_71
DURATION_76
POSITION_45684
NOTE_ON_72
DURATION_60
POSITION_45750
NOTE_ON_74
DURATION_33
POSITION_45918
NOTE_ON_59
DURATION_136
POSITION_46004
NOTE_ON_60
DURATION_61
POSITION_45835
NOTE_ON_55
DURATION_275
POSITION_46066
NOTE_ON_62
DURATION_52
POSITION_46158
NOTE_ON_64
DURATION_85
POSITION_46232
NOTE_ON_66
DURATION_81
POSITION_46305
NOTE_ON_67
DURATION_47
POSITION_46378
NOTE_ON_69
DURATION_51
POSITION_46465
NOTE_ON_71
DURATION_52
POSITION_46534
NOTE_ON_72
DURATION_75
POSITION_46613
NOTE_ON_74
DURATION_73
POSITION_46682
NOTE_ON_76
DURATION_39
POSITION_46920
NOTE_ON_62
DURATION_71
POSITION_46757
NOTE_ON_57
DURATION_250
POSITION_46837
NOTE_ON_60
DURATION_172
POSITION_46992
NOTE_ON_64
DURATION_44
POSITION_47085
NOTE_ON_65
DURATION_66
POSITION_47158
NOTE_ON_67
DURATION_74
POSITION_47224
NOTE_ON_69
DURATION_55
POSITION_47298
NOTE_ON_71
DURATION_57
POSITION_47390
NOTE_ON_72
DURATION_94
POSITION_47466
NOTE_ON_74
DURATION_125
POSITION_47545
NOTE_ON_76
DURATION_52
POSITION_47613
NOTE_ON_77
DURATION_97
POSITION_47727
NOTE_ON_75
DURATION_77
POSITION_47819
NOTE_ON_81
DURATION_133
POSITION_47784
NOTE_ON_76
DURATION_177
POSITION_47896
NOTE_ON_47
DURATION_94
POSITION_47912
NOTE_ON_78
DURATION_92
POSITION_47990
NOTE_ON_75
DURATION_75
POSITION_47994
NOTE_ON_49
DURATION_103
POSITION_48071
NOTE_ON_51
DURATION_83
POSITION_48164
NOTE_ON_52
DURATION_84
POSITION_48240
NOTE_ON_54
DURATION_84
POSITION_48317
NOTE_ON_55
DURATION_67
POSITION_48389
NOTE_ON_57
DURATION_76
POSITION_48467
NOTE_ON_55
DURATION_89
POSITION_48550
NOTE_ON_54
DURATION_63
POSITION_48621
NOTE_ON_57
DURATION_84
POSITION_48856
NOTE_ON_57
DURATION_78
POSITION_48939
NOTE_ON_59
DURATION_93
POSITION_48072
NOTE_ON_71
DURATION_1010
POSITION_49033
NOTE_ON_61
DURATION_125
POSITION_49106
NOTE_ON_63
DURATION_57
POSITION_48733
NOTE_ON_55
DURATION_434
POSITION_49178
NOTE_ON_54
DURATION_70
POSITION_49200
NOTE_ON_64
DURATION_54
POSITION_49255
NOTE_ON_52
DURATION_84
POSITION_49283
NOTE_ON_66
DURATION_67
POSITION_49348
NOTE_ON_67
DURATION_64
POSITION_49338
NOTE_ON_50
DURATION_85
POSITION_49421
NOTE_ON_69
DURATION_70
POSITION_49411
NOTE_ON_49
DURATION_81
POSITION_49507
NOTE_ON_52
DURATION_63
POSITION_49500
NOTE_ON_67
DURATION_73
POSITION_49568
NOTE_ON_66
DURATION_63
POSITION_49569
NOTE_ON_51
DURATION_63
POSITION_49638
NOTE_ON_54
DURATION_85
POSITION_49638
NOTE_ON_69
DURATION_86
POSITION_49732
NOTE_ON_67
DURATION_60
POSITION_49801
NOTE_ON_66
DURATION_67
POSITION_49893
NOTE_ON_67
DURATION_63
POSITION_49972
NOTE_ON_69
DURATION_92
POSITION_49737
NOTE_ON_52
DURATION_361
POSITION_50049
NOTE_ON_71
DURATION_54
POSITION_50119
NOTE_ON_72
DURATION_70
POSITION_50127
NOTE_ON_50
DURATION_65
POSITION_50202
NOTE_ON_74
DURATION_86
POSITION_50199
NOTE_ON_48
DURATION_89
POSITION_50283
NOTE_ON_76
DURATION_70
POSITION_50285
NOTE_ON_47
DURATION_89
POSITION_50347
NOTE_ON_77
DURATION_90
POSITION_50376
NOTE_ON_45
DURATION_77
POSITION_50423
NOTE_ON_48
DURATION_67
POSITION_50424
NOTE_ON_76
DURATION_91
POSITION_50495
NOTE_ON_47
DURATION_52
POSITION_50501
NOTE_ON_74
DURATION_52
POSITION_50568
NOTE_ON_50
DURATION_54
POSITION_50568
NOTE_ON_77
DURATION_107
POSITION_50736
NOTE_ON_74
DURATION_57
POSITION_50660
NOTE_ON_76
DURATION_150
POSITION_50820
NOTE_ON_76
DURATION_62
POSITION_50897
NOTE_ON_78
DURATION_68
POSITION_50660
NOTE_ON_48
DURATION_369
POSITION_50979
NOTE_ON_80
DURATION_78
POSITION_51051
NOTE_ON_47
DURATION_71
POSITION_51051
NOTE_ON_81
DURATION_80
POSITION_51131
NOTE_ON_83
DURATION_91
POSITION_51121
NOTE_ON_45
DURATION_103
POSITION_51208
NOTE_ON_84
DURATION_95
POSITION_51223
NOTE_ON_43
DURATION_90
POSITION_51283
NOTE_ON_86
DURATION_115
POSITION_51310
NOTE_ON_42
DURATION_96
POSITION_51362
NOTE_ON_45
DURATION_70
POSITION_51360
NOTE_ON_84
DURATION_93
POSITION_51431
NOTE_ON_44
DURATION_47
POSITION_51437
NOTE_ON_83
DURATION_65
POSITION_51488
NOTE_ON_59
DURATION_60
POSITION_51485
NOTE_ON_47
DURATION_81
POSITION_51515
NOTE_ON_86
DURATION_83
POSITION_51582
NOTE_ON_45
DURATION_110
POSITION_51588
NOTE_ON_84
DURATION_105
POSITION_51662
NOTE_ON_83
DURATION_46
POSITION_51743
NOTE_ON_81
DURATION_57
POSITION_51821
NOTE_ON_80
DURATION_88
POSITION_51896
NOTE_ON_57
DURATION_26
POSITION_51896
NOTE_ON_81
DURATION_109
POSITION_51978
NOTE_ON_79
DURATION_86
POSITION_52048
NOTE_ON_77
DURATION_75
POSITION_52048
NOTE_ON_57
DURATION_91
POSITION_52120
NOTE_ON_76
DURATION_46
POSITION_52205
NOTE_ON_74
DURATION_66
POSITION_52275
NOTE_ON_72
DURATION_67
POSITION_52337
NOTE_ON_71
DURATION_47
POSITION_52410
NOTE_ON_69
DURATION_47
POSITION_52497
NOTE_ON_68
DURATION_30
POSITION_52590
NOTE_ON_74
DURATION_81
POSITION_52676
NOTE_ON_72
DURATION_59
POSITION_52735
NOTE_ON_71
DURATION_58
POSITION_52819
NOTE_ON_69
DURATION_36
POSITION_52821
NOTE_ON_72
DURATION_87
POSITION_52904
NOTE_ON_71
DURATION_68
POSITION_52972
NOTE_ON_69
DURATION_107
POSITION_53057
NOTE_ON_67
DURATION_48
POSITION_53135
NOTE_ON_65
DURATION_65
POSITION_53200
NOTE_ON_64
DURATION_79
POSITION_53273
NOTE_ON_62
DURATION_62
POSITION_53347
NOTE_ON_60
DURATION_51
POSITION_53426
NOTE_ON_59
DURATION_24
POSITION_53517
NOTE_ON_65
DURATION_72
POSITION_53592
NOTE_ON_64
DURATION_75
POSITION_53666
NOTE_ON_62
DURATION_56
POSITION_53741
NOTE_ON_56
DURATION_45
POSITION_53745
NOTE_ON_64
DURATION_87
POSITION_53829
NOTE_ON_62
DURATION_68
POSITION_53888
NOTE_ON_60
DURATION_104
POSITION_53965
NOTE_ON_59
DURATION_63
POSITION_54055
NOTE_ON_57
DURATION_61
POSITION_54121
NOTE_ON_56
DURATION_125
POSITION_54189
NOTE_ON_54
DURATION_73
POSITION_54268
NOTE_ON_52
DURATION_61
POSITION_54349
NOTE_ON_50
DURATION_32
POSITION_54426
NOTE_ON_59
DURATION_90
POSITION_54485
NOTE_ON_57
DURATION_87
POSITION_54568
NOTE_ON_56
DURATION_71
POSITION_54656
NOTE_ON_48
DURATION_43
POSITION_54655
NOTE_ON_57
DURATION_73
POSITION_54737
NOTE_ON_53
DURATION_74
POSITION_54808
NOTE_ON_52
DURATION_75
POSITION_54878
NOTE_ON_50
DURATION_77
POSITION_54967
NOTE_ON_48
DURATION_71
POSITION_55033
NOTE_ON_47
DURATION_99
POSITION_55123
NOTE_ON_45
DURATION_63
POSITION_55186
NOTE_ON_44
DURATION_72
POSITION_55433
NOTE_ON_77
DURATION_89
POSITION_55302
NOTE_ON_45
DURATION_221
POSITION_55526
NOTE_ON_57
DURATION_44
POSITION_55529
NOTE_ON_76
DURATION_64
POSITION_55592
NOTE_ON_74
DURATION_40
POSITION_55691
NOTE_ON_60
DURATION_31
POSITION_55690
NOTE_ON_76
DURATION_64
POSITION_55759
NOTE_ON_74
DURATION_54
POSITION_55836
NOTE_ON_57
DURATION_53
POSITION_55837
NOTE_ON_72
DURATION_74
POSITION_55922
NOTE_ON_71
DURATION_50
POSITION_55991
NOTE_ON_53
DURATION_50
POSITION_56012
NOTE_ON_69
DURATION_79
POSITION_56091
NOTE_ON_74
DURATION_77
POSITION_56162
NOTE_ON_50
DURATION_31
POSITION_56171
NOTE_ON_76
DURATION_84
POSITION_56243
NOTE_ON_77
DURATION_327
POSITION_56500
NOTE_ON_76
DURATION_128
POSITION_56498
NOTE_ON_55
DURATION_132
POSITION_56413
NOTE_ON_74
DURATION_217
POSITION_56582
NOTE_ON_77
DURATION_53
POSITION_56318
NOTE_ON_43
DURATION_322
POSITION_56329
NOTE_ON_71
DURATION_311
POSITION_56660
NOTE_ON_59
DURATION_43
POSITION_56660
NOTE_ON_67
DURATION_79
POSITION_56729
NOTE_ON_77
DURATION_103
POSITION_56811
NOTE_ON_55
DURATION_30
POSITION_56808
NOTE_ON_76
DURATION_96
POSITION_56883
NOTE_ON_74
DURATION_82
POSITION_56976
NOTE_ON_52
DURATION_58
POSITION_56963
NOTE_ON_72
DURATION_103
POSITION_57055
NOTE_ON_74
DURATION_57
POSITION_57118
NOTE_ON_48
DURATION_33
POSITION_57122
NOTE_ON_76
DURATION_68
POSITION_57201
NOTE_ON_72
DURATION_54
POSITION_57289
NOTE_ON_69
DURATION_305
POSITION_57531
NOTE_ON_71
DURATION_64
POSITION_57458
NOTE_ON_53
DURATION_138
POSITION_57375
NOTE_ON_74
DURATION_222
POSITION_57289
NOTE_ON_41
DURATION_311
POSITION_57449
NOTE_ON_72
DURATION_151
POSITION_57618
NOTE_ON_57
DURATION_42
POSITION_57611
NOTE_ON_72
DURATION_73
POSITION_57681
NOTE_ON_71
DURATION_46
POSITION_57774
NOTE_ON_53
DURATION_46
POSITION_57757
NOTE_ON_69
DURATION_69
POSITION_57839
NOTE_ON_67
DURATION_54
POSITION_57926
NOTE_ON_50
DURATION_74
POSITION_57926
NOTE_ON_65
DURATION_77
POSITION_58002
NOTE_ON_71
DURATION_81
POSITION_58074
NOTE_ON_47
DURATION_29
POSITION_58078
NOTE_ON_72
DURATION_86
POSITION_58157
NOTE_ON_74
DURATION_74
POSITION_58243
NOTE_ON_67
DURATION_250
POSITION_58320
NOTE_ON_71
DURATION_173
POSITION_58399
NOTE_ON_72
DURATION_94
POSITION_58392
NOTE_ON_52
DURATION_103
POSITION_58241
NOTE_ON_40
DURATION_257
POSITION_58480
NOTE_ON_74
DURATION_55
POSITION_58552
NOTE_ON_55
DURATION_49
POSITION_58556
NOTE_ON_64
DURATION_76
POSITION_58636
NOTE_ON_74
DURATION_87
POSITION_58710
NOTE_ON_52
DURATION_38
POSITION_58709
NOTE_ON_72
DURATION_54
POSITION_58785
NOTE_ON_71
DURATION_54
POSITION_58856
NOTE_ON_48
DURATION_51
POSITION_58857
NOTE_ON_69
DURATION_90
POSITION_58995
NOTE_ON_45
DURATION_44
POSITION_58939
NOTE_ON_71
DURATION_104
POSITION_59017
NOTE_ON_72
DURATION_71
POSITION_59094
NOTE_ON_69
DURATION_92
POSITION_59224
NOTE_ON_38
DURATION_165
POSITION_59314
NOTE_ON_36
DURATION_86
POSITION_59208
NOTE_ON_65
DURATION_192
POSITION_59394
NOTE_ON_38
DURATION_99
POSITION_59435
NOTE_ON_71
DURATION_65
POSITION_59488
NOTE_ON_40
DURATION_73
POSITION_59495
NOTE_ON_72
DURATION_81
POSITION_59583
NOTE_ON_41
DURATION_79
POSITION_59664
NOTE_ON_43
DURATION_74
POSITION_59741
NOTE_ON_45
DURATION_52
POSITION_59813
NOTE_ON_59
DURATION_6
POSITION_59814
NOTE_ON_47
DURATION_71
POSITION_59891
NOTE_ON_48
DURATION_86
POSITION_59976
NOTE_ON_47
DURATION_69
POSITION_59977
NOTE_ON_59
DURATION_80
POSITION_59976
NOTE_ON_67
DURATION_101
POSITION_60048
NOTE_ON_65
DURATION_64
POSITION_60046
NOTE_ON_45
DURATION_67
POSITION_60124
NOTE_ON_48
DURATION_77
POSITION_60121
NOTE_ON_64
DURATION_82
POSITION_60209
NOTE_ON_47
DURATION_73
POSITION_60280
NOTE_ON_45
DURATION_83
POSITION_60194
NOTE_ON_65
DURATION_186
POSITION_60377
NOTE_ON_43
DURATION_84
POSITION_60378
NOTE_ON_71
DURATION_85
POSITION_59584
NOTE_ON_74
DURATION_896
POSITION_60452
NOTE_ON_45
DURATION_85
POSITION_60452
NOTE_ON_72
DURATION_101
POSITION_60545
NOTE_ON_47
DURATION_84
POSITION_60627
NOTE_ON_48
DURATION_55
POSITION_60708
NOTE_ON_50
DURATION_76
POSITION_60778
NOTE_ON_52
DURATION_69
POSITION_60868
NOTE_ON_53
DURATION_69
POSITION_60544
NOTE_ON_74
DURATION_402
POSITION_60945
NOTE_ON_52
DURATION_50
POSITION_60921
NOTE_ON_72
DURATION_87
POSITION_60868
NOTE_ON_65
DURATION_180
POSITION_61008
NOTE_ON_50
DURATION_68
POSITION_61008
NOTE_ON_71
DURATION_73
POSITION_61086
NOTE_ON_53
DURATION_53
POSITION_61082
NOTE_ON_74
DURATION_62
POSITION_61182
NOTE_ON_67
DURATION_176
POSITION_61183
NOTE_ON_52
DURATION_176
POSITION_61358
NOTE_ON_40
DURATION_70
POSITION_61363
NOTE_ON_72
DURATION_88
POSITION_61442
NOTE_ON_71
DURATION_86
POSITION_61437
NOTE_ON_41
DURATION_93
POSITION_61519
NOTE_ON_43
DURATION_78
POSITION_61519
NOTE_ON_69
DURATION_89
POSITION_61593
NOTE_ON_67
DURATION_41
POSITION_61589
NOTE_ON_45
DURATION_74
POSITION_61673
NOTE_ON_65
DURATION_66
POSITION_61667
NOTE_ON_47
DURATION_82
POSITION_61750
NOTE_ON_48
DURATION_70
POSITION_61740
NOTE_ON_64
DURATION_83
POSITION_61817
NOTE_ON_62
DURATION_44
POSITION_61822
NOTE_ON_50
DURATION_39
POSITION_61891
NOTE_ON_60
DURATION_52
POSITION_61891
NOTE_ON_52
DURATION_53
POSITION_61963
NOTE_ON_62
DURATION_6
POSITION_61960
NOTE_ON_64
DURATION_78
POSITION_61965
NOTE_ON_50
DURATION_77
POSITION_62037
NOTE_ON_52
DURATION_64
POSITION_62035
NOTE_ON_62
DURATION_77
POSITION_62106
NOTE_ON_53
DURATION_55
POSITION_62106
NOTE_ON_60
DURATION_61
POSITION_62180
NOTE_ON_59
DURATION_90
POSITION_62179
NOTE_ON_55
DURATION_169
POSITION_62281
NOTE_ON_60
DURATION_68
POSITION_62349
NOTE_ON_62
DURATION_80
POSITION_62349
NOTE_ON_53
DURATION_81
POSITION_62424
NOTE_ON_52
DURATION_79
POSITION_62423
NOTE_ON_64
DURATION_107
POSITION_62498
NOTE_ON_50
DURATION_76
POSITION_62499
NOTE_ON_65
DURATION_93
POSITION_62579
NOTE_ON_48
DURATION_76
POSITION_62575
NOTE_ON_67
DURATION_81
POSITION_62651
NOTE_ON_69
DURATION_75
POSITION_62655
NOTE_ON_47
DURATION_103
POSITION_62718
NOTE_ON_71
DURATION_56
POSITION_62718
NOTE_ON_45
DURATION_57
POSITION_62801
NOTE_ON_43
DURATION_73
POSITION_62799
NOTE_ON_72
DURATION_77
POSITION_62873
NOTE_ON_74
DURATION_83
POSITION_62873
NOTE_ON_41
DURATION_83
POSITION_62947
NOTE_ON_40
DURATION_55
POSITION_62945
NOTE_ON_76
DURATION_81
POSITION_63001
NOTE_ON_38
DURATION_58
POSITION_63009
NOTE_ON_77
DURATION_120
POSITION_63312
NOTE_ON_74
DURATION_121
POSITION_63173
NOTE_ON_77
DURATION_260
POSITION_63245
NOTE_ON_76
DURATION_188
POSITION_63086
NOTE_ON_79
DURATION_348
POSITION_63084
NOTE_ON_36
DURATION_350
POSITION_63380
NOTE_ON_72
DURATION_58
POSITION_63719
NOTE_ON_60
DURATION_29
POSITION_63718
NOTE_ON_64
DURATION_30
POSITION_63718
NOTE_ON_67
DURATION_31
POSITION_64049
NOTE_ON_60
DURATION_47
POSITION_64051
NOTE_ON_65
DURATION_48
POSITION_64048
NOTE_ON_69
DURATION_52
POSITION_64409
NOTE_ON_67
DURATION_75
POSITION_64409
NOTE_ON_60
DURATION_75
POSITION_64410
NOTE_ON_64
DURATION_76
POSITION_65226
NOTE_ON_77
DURATION_176
POSITION_65300
NOTE_ON_76
DURATION_107
POSITION_65139
NOTE_ON_79
DURATION_279
POSITION_65378
NOTE_ON_74
DURATION_51
POSITION_65447
NOTE_ON_72
DURATION_58
POSITION_65519
NOTE_ON_71
DURATION_111
POSITION_65595
NOTE_ON_69
DURATION_103
POSITION_65662
NOTE_ON_67
DURATION_49
POSITION_65742
NOTE_ON_65
DURATION_49
POSITION_65800
NOTE_ON_64
DURATION_82
POSITION_65877
NOTE_ON_62
DURATION_39
POSITION_65933
NOTE_ON_60
DURATION_80
POSITION_66015
NOTE_ON_59
DURATION_58
POSITION_66015
NOTE_ON_65
DURATION_60
POSITION_66018
NOTE_ON_62
DURATION_58
POSITION_66016
NOTE_ON_48
DURATION_83
POSITION_66015
NOTE_ON_55
DURATION_132
POSITION_66383
NOTE_ON_64
DURATION_335
POSITION_66385
NOTE_ON_48
DURATION_338
POSITION_66382
NOTE_ON_55
DURATION_341
POSITION_66384
NOTE_ON_60
DURATION_339
POSITION_66387
NOTE_ON_36
DURATION_344
POSITION_67050
NOTE_ON_48
DURATION_183
POSITION_67170
NOTE_ON_60
DURATION_67
POSITION_67217
NOTE_ON_72
DURATION_38
POSITION_67230
NOTE_ON_64
DURATION_62
POSITION_67305
NOTE_ON_60
DURATION_37
POSITION_67380
NOTE_ON_76
DURATION_26
POSITION_67381
NOTE_ON_57
DURATION_53
POSITION_67465
NOTE_ON_60
DURATION_45
POSITION_67544
NOTE_ON_72
DURATION_34
POSITION_67547
NOTE_ON_64
DURATION_36
POSITION_67618
NOTE_ON_60
DURATION_57
POSITION_67703
NOTE_ON_69
DURATION_40
POSITION_67703
NOTE_ON_54
DURATION_53
POSITION_67781
NOTE_ON_60
DURATION_38
POSITION_67870
NOTE_ON_64
DURATION_32
POSITION_67926
NOTE_ON_60
DURATION_33
POSITION_68048
NOTE_ON_59
DURATION_142
POSITION_67873
NOTE_ON_66
DURATION_342
POSITION_68123
NOTE_ON_71
DURATION_95
POSITION_68047
NOTE_ON_47
DURATION_184
POSITION_68201
NOTE_ON_59
DURATION_34
POSITION_68209
NOTE_ON_74
DURATION_46
POSITION_68278
NOTE_ON_71
DURATION_49
POSITION_68340
NOTE_ON_62
DURATION_38
POSITION_68361
NOTE_ON_66
DURATION_60
POSITION_68429
NOTE_ON_71
DURATION_57
POSITION_68501
NOTE_ON_59
DURATION_39
POSITION_68497
NOTE_ON_74
DURATION_58
POSITION_68589
NOTE_ON_71
DURATION_47
POSITION_68657
NOTE_ON_55
DURATION_37
POSITION_68678
NOTE_ON_64
DURATION_54
POSITION_68756
NOTE_ON_71
DURATION_38
POSITION_68824
NOTE_ON_52
DURATION_36
POSITION_68824
NOTE_ON_74
DURATION_71
POSITION_68878
NOTE_ON_71
DURATION_42
POSITION_68970
NOTE_ON_45
DURATION_176
POSITION_69081
NOTE_ON_57
DURATION_73
POSITION_68990
NOTE_ON_72
DURATION_183
POSITION_69152
NOTE_ON_81
DURATION_33
POSITION_69166
NOTE_ON_60
DURATION_37
POSITION_69230
NOTE_ON_57
DURATION_71
POSITION_69316
NOTE_ON_84
DURATION_42
POSITION_69323
NOTE_ON_54
DURATION_94
POSITION_69405
NOTE_ON_57
DURATION_73
POSITION_69488
NOTE_ON_81
DURATION_43
POSITION_69489
NOTE_ON_60
DURATION_56
POSITION_69561
NOTE_ON_57
DURATION_70
POSITION_69649
NOTE_ON_78
DURATION_35
POSITION_69646
NOTE_ON_50
DURATION_73
POSITION_69728
NOTE_ON_57
DURATION_63
POSITION_69806
NOTE_ON_60
DURATION_41
POSITION_69885
NOTE_ON_57
DURATION_34
POSITION_69984
NOTE_ON_43
DURATION_192
POSITION_70135
NOTE_ON_55
DURATION_48
POSITION_69823
NOTE_ON_74
DURATION_367
POSITION_70050
NOTE_ON_79
DURATION_152
POSITION_70137
NOTE_ON_83
DURATION_96
POSITION_70212
NOTE_ON_79
DURATION_73
POSITION_70275
NOTE_ON_59
DURATION_34
POSITION_70311
NOTE_ON_74
DURATION_62
POSITION_70371
NOTE_ON_79
DURATION_63
POSITION_70444
NOTE_ON_55
DURATION_48
POSITION_70446
NOTE_ON_83
DURATION_125
POSITION_70521
NOTE_ON_79
DURATION_60
POSITION_70609
NOTE_ON_52
DURATION_29
POSITION_70613
NOTE_ON_72
DURATION_62
POSITION_70680
NOTE_ON_83
DURATION_58
POSITION_70768
NOTE_ON_48
DURATION_49
POSITION_70767
NOTE_ON_81
DURATION_79
POSITION_70840
NOTE_ON_79
DURATION_104
POSITION_70974
NOTE_ON_50
DURATION_158
POSITION_70965
NOTE_ON_78
DURATION_291
POSITION_71136
NOTE_ON_50
DURATION_121
POSITION_71247
NOTE_ON_62
DURATION_73
POSITION_71336
NOTE_ON_64
DURATION_95
POSITION_71419
NOTE_ON_38
DURATION_91
POSITION_71422
NOTE_ON_66
DURATION_90
POSITION_71504
NOTE_ON_67
DURATION_101
POSITION_71615
NOTE_ON_69
DURATION_227
POSITION_71826
NOTE_ON_54
DURATION_150
POSITION_71848
NOTE_ON_50
DURATION_156
POSITION_72052
NOTE_ON_60
DURATION_378
POSITION_72264
NOTE_ON_50
DURATION_242
POSITION_72258
NOTE_ON_55
DURATION_254
POSITION_72439
NOTE_ON_60
DURATION_73
POSITION_72343
NOTE_ON_58
DURATION_170
POSITION_72519
NOTE_ON_62
DURATION_107
POSITION_72603
NOTE_ON_38
DURATION_45
POSITION_72604
NOTE_ON_64
DURATION_100
POSITION_72679
NOTE_ON_66
DURATION_60
POSITION_72772
NOTE_ON_67
DURATION_79
POSITION_72843
NOTE_ON_69
DURATION_98
POSITION_72943
NOTE_ON_61
DURATION_46
POSITION_72962
NOTE_ON_52
DURATION_32
POSITION_72958
NOTE_ON_55
DURATION_37
POSITION_72958
NOTE_ON_50
DURATION_44
POSITION_72941
NOTE_ON_70
DURATION_107
POSITION_73023
NOTE_ON_69
DURATION_71
POSITION_73106
NOTE_ON_67
DURATION_78
POSITION_73179
NOTE_ON_70
DURATION_77
POSITION_73363
NOTE_ON_67
DURATION_109
POSITION_73278
NOTE_ON_62
DURATION_198
POSITION_73278
NOTE_ON_69
DURATION_198
POSITION_73289
NOTE_ON_54
DURATION_188
POSITION_73283
NOTE_ON_57
DURATION_194
POSITION_73286
NOTE_ON_50
DURATION_192
POSITION_73446
NOTE_ON_66
DURATION_69
POSITION_73527
NOTE_ON_67
DURATION_88
POSITION_73624
NOTE_ON_38
DURATION_38
POSITION_73619
NOTE_ON_69
DURATION_98
POSITION_73701
NOTE_ON_70
DURATION_122
POSITION_74031
NOTE_ON_54
DURATION_195
POSITION_74038
NOTE_ON_50
DURATION_192
POSITION_74031
NOTE_ON_57
DURATION_199
POSITION_73807
NOTE_ON_72
DURATION_429
POSITION_74477
NOTE_ON_50
DURATION_276
POSITION_74459
NOTE_ON_58
DURATION_296
POSITION_74568
NOTE_ON_62
DURATION_189
POSITION_74245
NOTE_ON_63
DURATION_512
POSITION_74467
NOTE_ON_55
DURATION_290
POSITION_74659
NOTE_ON_64
DURATION_102
POSITION_74741
NOTE_ON_66
DURATION_74
POSITION_74823
NOTE_ON_38
DURATION_46
POSITION_74826
NOTE_ON_67
DURATION_81
POSITION_74907
NOTE_ON_69
DURATION_101
POSITION_74997
NOTE_ON_70
DURATION_93
POSITION_75071
NOTE_ON_72
DURATION_93
POSITION_75165
NOTE_ON_58
DURATION_112
POSITION_75165
NOTE_ON_55
DURATION_113
POSITION_75164
NOTE_ON_74
DURATION_115
POSITION_75175
NOTE_ON_50
DURATION_104
POSITION_75246
NOTE_ON_72
DURATION_98
POSITION_75334
NOTE_ON_70
DURATION_60
POSITION_75400
NOTE_ON_74
DURATION_108
POSITION_75580
NOTE_ON_70
DURATION_167
POSITION_75505
NOTE_ON_57
DURATION_301
POSITION_75506
NOTE_ON_54
DURATION_301
POSITION_75661
NOTE_ON_69
DURATION_148
POSITION_75516
NOTE_ON_50
DURATION_295
POSITION_75758
NOTE_ON_70
DURATION_55
POSITION_75505
NOTE_ON_72
DURATION_327
POSITION_75814
NOTE_ON_38
DURATION_61
POSITION_75840
NOTE_ON_72
DURATION_96
POSITION_75912
NOTE_ON_74
DURATION_109
POSITION_76211
NOTE_ON_55
DURATION_362
POSITION_76212
NOTE_ON_50
DURATION_361
POSITION_76210
NOTE_ON_58
DURATION_363
POSITION_76404
NOTE_ON_67
DURATION_169
POSITION_76010
NOTE_ON_75
DURATION_565
POSITION_76626
NOTE_ON_57
DURATION_263
POSITION_76632
NOTE_ON_50
DURATION_258
POSITION_76618
NOTE_ON_60
DURATION_273
POSITION_76772
NOTE_ON_66
DURATION_120
POSITION_76872
NOTE_ON_64
DURATION_76
POSITION_76872
NOTE_ON_58
DURATION_178
POSITION_76952
NOTE_ON_62
DURATION_102
POSITION_76873
NOTE_ON_55
DURATION_195
POSITION_77044
NOTE_ON_64
DURATION_67
POSITION_77042
NOTE_ON_54
DURATION_70
POSITION_77042
NOTE_ON_57
DURATION_72
POSITION_77112
NOTE_ON_66
DURATION_67
POSITION_77195
NOTE_ON_52
DURATION_118
POSITION_77197
NOTE_ON_55
DURATION_125
POSITION_77195
NOTE_ON_67
DURATION_127
POSITION_77277
NOTE_ON_69
DURATION_51
POSITION_77354
NOTE_ON_71
DURATION_160
POSITION_77430
NOTE_ON_72
DURATION_90
POSITION_77350
NOTE_ON_53
DURATION_180
POSITION_77350
NOTE_ON_50
DURATION_182
POSITION_77495
NOTE_ON_48
DURATION_43
POSITION_77497
NOTE_ON_51
DURATION_44
POSITION_77510
NOTE_ON_74
DURATION_89
POSITION_77588
NOTE_ON_75
DURATION_105
POSITION_77689
NOTE_ON_77
DURATION_243
POSITION_77689
NOTE_ON_43
DURATION_243
POSITION_77829
NOTE_ON_55
DURATION_105
POSITION_77693
NOTE_ON_50
DURATION_241
POSITION_77687
NOTE_ON_47
DURATION_248
POSITION_77940
NOTE_ON_54
DURATION_71
POSITION_78029
NOTE_ON_55
DURATION_161
POSITION_78101
NOTE_ON_57
DURATION_103
POSITION_78198
NOTE_ON_55
DURATION_72
POSITION_77946
NOTE_ON_67
DURATION_345
POSITION_78285
NOTE_ON_54
DURATION_116
POSITION_78285
NOTE_ON_71
DURATION_122
POSITION_78370
NOTE_ON_55
DURATION_48
POSITION_78456
NOTE_ON_52
DURATION_83
POSITION_78458
NOTE_ON_72
DURATION_139
POSITION_78530
NOTE_ON_55
DURATION_79
POSITION_78616
NOTE_ON_52
DURATION_67
POSITION_78627
NOTE_ON_74
DURATION_150
POSITION_78693
NOTE_ON_50
DURATION_93
POSITION_78808
NOTE_ON_76
DURATION_47
POSITION_78806
NOTE_ON_48
DURATION_55
POSITION_78877
NOTE_ON_74
DURATION_79
POSITION_78954
NOTE_ON_54
DURATION_51
POSITION_78961
NOTE_ON_76
DURATION_89
POSITION_79032
NOTE_ON_55
DURATION_68
POSITION_79123
NOTE_ON_57
DURATION_123
POSITION_79127
NOTE_ON_66
DURATION_121
POSITION_79202
NOTE_ON_55
DURATION_48
POSITION_79308
NOTE_ON_56
DURATION_95
POSITION_79307
NOTE_ON_69
DURATION_104
POSITION_79388
NOTE_ON_55
DURATION_56
POSITION_79481
NOTE_ON_50
DURATION_72
POSITION_79483
NOTE_ON_71
DURATION_76
POSITION_79543
NOTE_ON_55
DURATION_94
POSITION_79647
NOTE_ON_72
DURATION_136
POSITION_79629
NOTE_ON_50
DURATION_155
POSITION_79685
NOTE_ON_48
DURATION_100
POSITION_79815
NOTE_ON_47
DURATION_168
POSITION_79909
NOTE_ON_66
DURATION_75
POSITION_79830
NOTE_ON_74
DURATION_163
POSITION_79993
NOTE_ON_55
DURATION_54
POSITION_79997
NOTE_ON_64
DURATION_89
POSITION_80075
NOTE_ON_66
DURATION_64
POSITION_80149
NOTE_ON_59
DURATION_40
POSITION_80152
NOTE_ON_67
DURATION_91
POSITION_80243
NOTE_ON_66
DURATION_43
POSITION_80311
NOTE_ON_55
DURATION_48
POSITION_80313
NOTE_ON_64
DURATION_69
POSITION_80379
NOTE_ON_66
DURATION_103
POSITION_80472
NOTE_ON_67
DURATION_50
POSITION_80477
NOTE_ON_52
DURATION_50
POSITION_80547
NOTE_ON_64
DURATION_68
POSITION_80629
NOTE_ON_48
DURATION_59
POSITION_80631
NOTE_ON_69
DURATION_64
POSITION_80692
NOTE_ON_71
DURATION_96
POSITION_80792
NOTE_ON_72
DURATION_212
POSITION_80794
NOTE_ON_45
DURATION_214
POSITION_80966
NOTE_ON_54
DURATION_56
POSITION_80882
NOTE_ON_64
DURATION_149
POSITION_80966
NOTE_ON_62
DURATION_70
POSITION_81038
NOTE_ON_64
DURATION_81
POSITION_81130
NOTE_ON_57
DURATION_45
POSITION_81126
NOTE_ON_66
DURATION_124
POSITION_81200
NOTE_ON_64
DURATION_58
POSITION_81288
NOTE_ON_54
DURATION_54
POSITION_81286
NOTE_ON_62
DURATION_67
POSITION_81360
NOTE_ON_64
DURATION_110
POSITION_81456
NOTE_ON_50
DURATION_40
POSITION_81457
NOTE_ON_66
DURATION_66
POSITION_81535
NOTE_ON_62
DURATION_54
POSITION_81613
NOTE_ON_47
DURATION_38
POSITION_81618
NOTE_ON_67
DURATION_71
POSITION_81705
NOTE_ON_69
DURATION_88
POSITION_81809
NOTE_ON_43
DURATION_41
POSITION_81811
NOTE_ON_71
DURATION_84
POSITION_81910
NOTE_ON_69
DURATION_55
POSITION_81972
NOTE_ON_50
DURATION_45
POSITION_81971
NOTE_ON_67
DURATION_52
POSITION_81996
NOTE_ON_43
DURATION_80
POSITION_82064
NOTE_ON_66
DURATION_75
POSITION_82143
NOTE_ON_47
DURATION_35
POSITION_82148
NOTE_ON_50
DURATION_39
POSITION_82145
NOTE_ON_59
DURATION_54
POSITION_82144
NOTE_ON_67
DURATION_68
POSITION_82219
NOTE_ON_71
DURATION_53
POSITION_82290
NOTE_ON_43
DURATION_42
POSITION_82294
NOTE_ON_62
DURATION_62
POSITION_82378
NOTE_ON_66
DURATION_92
POSITION_82444
NOTE_ON_42
DURATION_59
POSITION_82464
NOTE_ON_67
DURATION_60
POSITION_82531
NOTE_ON_71
DURATION_63
POSITION_82624
NOTE_ON_50
DURATION_40
POSITION_82624
NOTE_ON_62
DURATION_62
POSITION_82622
NOTE_ON_69
DURATION_68
POSITION_82700
NOTE_ON_66
DURATION_64
POSITION_82855
NOTE_ON_69
DURATION_168
POSITION_82940
NOTE_ON_67
DURATION_84
POSITION_82778
NOTE_ON_70
DURATION_247
POSITION_82967
NOTE_ON_49
DURATION_65
POSITION_82793
NOTE_ON_40
DURATION_258
POSITION_83016
NOTE_ON_66
DURATION_100
POSITION_83102
NOTE_ON_67
DURATION_73
POSITION_83127
NOTE_ON_46
DURATION_52
POSITION_83182
NOTE_ON_70
DURATION_65
POSITION_83285
NOTE_ON_43
DURATION_44
POSITION_83271
NOTE_ON_61
DURATION_60
POSITION_83355
NOTE_ON_66
DURATION_83
POSITION_83445
NOTE_ON_38
DURATION_41
POSITION_83443
NOTE_ON_67
DURATION_80
POSITION_83521
NOTE_ON_70
DURATION_64
POSITION_83601
NOTE_ON_50
DURATION_39
POSITION_83601
NOTE_ON_62
DURATION_76
POSITION_83684
NOTE_ON_67
DURATION_71
POSITION_83863
NOTE_ON_69
DURATION_178
POSITION_83768
NOTE_ON_70
DURATION_274
POSITION_83931
NOTE_ON_67
DURATION_111
POSITION_83760
NOTE_ON_37
DURATION_283
POSITION_83933
NOTE_ON_52
DURATION_111
POSITION_84016
NOTE_ON_66
DURATION_83
POSITION_84097
NOTE_ON_46
DURATION_34
POSITION_84099
NOTE_ON_67
DURATION_60
POSITION_84167
NOTE_ON_70
DURATION_47
POSITION_84252
NOTE_ON_43
DURATION_39
POSITION_84253
NOTE_ON_61
DURATION_53
POSITION_84337
NOTE_ON_66
DURATION_98
POSITION_84420
NOTE_ON_37
DURATION_37
POSITION_84422
NOTE_ON_67
DURATION_91
POSITION_84519
NOTE_ON_70
DURATION_137
POSITION_84632
NOTE_ON_52
DURATION_43
POSITION_84623
NOTE_ON_69
DURATION_82
POSITION_84735
NOTE_ON_67
DURATION_227
POSITION_84981
NOTE_ON_36
DURATION_1315
POSITION_84979
NOTE_ON_74
DURATION_1317
POSITION_84980
NOTE_ON_69
DURATION_1320
POSITION_84975
NOTE_ON_78
DURATION_1325
POSITION_86446
NOTE_ON_78
DURATION_169
POSITION_86578
NOTE_ON_79
DURATION_98
POSITION_86670
NOTE_ON_81
DURATION_135
POSITION_86759
NOTE_ON_79
DURATION_113
POSITION_86845
NOTE_ON_78
DURATION_119
POSITION_86932
NOTE_ON_76
DURATION_51
POSITION_87012
NOTE_ON_74
DURATION_144
POSITION_87279
NOTE_ON_47
DURATION_123
POSITION_87151
NOTE_ON_86
DURATION_262
POSITION_87372
NOTE_ON_48
DURATION_87
POSITION_87466
NOTE_ON_50
DURATION_91
POSITION_87372
NOTE_ON_78
DURATION_210
POSITION_87549
NOTE_ON_48
DURATION_96
POSITION_87629
NOTE_ON_47
DURATION_86
POSITION_87548
NOTE_ON_79
DURATION_211
POSITION_87715
NOTE_ON_71
DURATION_73
POSITION_87696
NOTE_ON_45
DURATION_94
POSITION_87776
NOTE_ON_43
DURATION_94
POSITION_87886
NOTE_ON_69
DURATION_66
POSITION_87885
NOTE_ON_50
DURATION_77
POSITION_88117
NOTE_ON_78
DURATION_37
POSITION_88118
NOTE_ON_38
DURATION_45
POSITION_88499
NOTE_ON_79
DURATION_166
POSITION_88385
NOTE_ON_43
DURATION_351
POSITION_88670
NOTE_ON_79
DURATION_66
POSITION_88597
NOTE_ON_78
DURATION_139
POSITION_88387
NOTE_ON_67
DURATION_350
POSITION_88602
NOTE_ON_55
DURATION_140
POSITION_88752
NOTE_ON_76
DURATION_69
POSITION_88827
NOTE_ON_79
DURATION_74
POSITION_88752
NOTE_ON_55
DURATION_190
POSITION_88922
NOTE_ON_59
DURATION_35
POSITION_88920
NOTE_ON_74
DURATION_41
POSITION_88991
NOTE_ON_79
DURATION_63
POSITION_89092
NOTE_ON_52
DURATION_39
POSITION_89092
NOTE_ON_72
DURATION_55
POSITION_89147
NOTE_ON_79
DURATION_56
POSITION_89256
NOTE_ON_55
DURATION_45
POSITION_89254
NOTE_ON_71
DURATION_51
POSITION_89307
NOTE_ON_79
DURATION_76
POSITION_89497
NOTE_ON_78
DURATION_167
POSITION_89414
NOTE_ON_43
DURATION_316
POSITION_89591
NOTE_ON_76
DURATION_145
POSITION_89670
NOTE_ON_78
DURATION_67
POSITION_89592
NOTE_ON_60
DURATION_146
POSITION_89415
NOTE_ON_69
DURATION_333
POSITION_89754
NOTE_ON_74
DURATION_69
POSITION_89829
NOTE_ON_78
DURATION_71
POSITION_89920
NOTE_ON_57
DURATION_31
POSITION_89921
NOTE_ON_72
DURATION_62
POSITION_90000
NOTE_ON_78
DURATION_61
POSITION_90090
NOTE_ON_50
DURATION_31
POSITION_90098
NOTE_ON_71
DURATION_61
POSITION_90251
NOTE_ON_54
DURATION_24
POSITION_90168
NOTE_ON_78
DURATION_156
POSITION_90251
NOTE_ON_69
DURATION_85
POSITION_90537
NOTE_ON_59
DURATION_109
POSITION_90420
NOTE_ON_43
DURATION_227
POSITION_90428
NOTE_ON_77
DURATION_219
POSITION_90609
NOTE_ON_66
DURATION_42
POSITION_90618
NOTE_ON_57
DURATION_42
POSITION_90338
NOTE_ON_72
DURATION_324
POSITION_90519
NOTE_ON_67
DURATION_166
POSITION_90695
NOTE_ON_67
DURATION_54
POSITION_90699
NOTE_ON_59
DURATION_55
POSITION_90780
NOTE_ON_69
DURATION_43
POSITION_90781
NOTE_ON_55
DURATION_49
POSITION_90855
NOTE_ON_59
DURATION_47
POSITION_90853
NOTE_ON_67
DURATION_56
POSITION_90931
NOTE_ON_53
DURATION_37
POSITION_90938
NOTE_ON_71
DURATION_57
POSITION_91006
NOTE_ON_59
DURATION_51
POSITION_91010
NOTE_ON_67
DURATION_56
POSITION_91095
NOTE_ON_52
DURATION_44
POSITION_91096
NOTE_ON_64
DURATION_49
POSITION_91096
NOTE_ON_72
DURATION_50
POSITION_91165
NOTE_ON_59
DURATION_45
POSITION_91165
NOTE_ON_67
DURATION_53
POSITION_91249
NOTE_ON_50
DURATION_45
POSITION_91251
NOTE_ON_74
DURATION_50
POSITION_91320
NOTE_ON_59
DURATION_48
POSITION_91325
NOTE_ON_67
DURATION_44
POSITION_91497
NOTE_ON_66
DURATION_114
POSITION_91515
NOTE_ON_57
DURATION_98
POSITION_91412
NOTE_ON_76
DURATION_205
POSITION_91427
NOTE_ON_48
DURATION_193
POSITION_91587
NOTE_ON_55
DURATION_45
POSITION_91580
NOTE_ON_64
DURATION_71
POSITION_91667
NOTE_ON_57
DURATION_49
POSITION_91672
NOTE_ON_66
DURATION_53
POSITION_91741
NOTE_ON_54
DURATION_47
POSITION_91742
NOTE_ON_67
DURATION_58
POSITION_91817
NOTE_ON_57
DURATION_70
POSITION_91837
NOTE_ON_66
DURATION_58
POSITION_91894
NOTE_ON_52
DURATION_55
POSITION_91918
NOTE_ON_69
DURATION_61
POSITION_91971
NOTE_ON_57
DURATION_87
POSITION_91995
NOTE_ON_66
DURATION_69
POSITION_92068
NOTE_ON_50
DURATION_49
POSITION_92071
NOTE_ON_71
DURATION_56
POSITION_92143
NOTE_ON_57
DURATION_57
POSITION_92146
NOTE_ON_66
DURATION_56
POSITION_92212
NOTE_ON_48
DURATION_58
POSITION_92216
NOTE_ON_72
DURATION_69
POSITION_92300
NOTE_ON_66
DURATION_39
POSITION_92294
NOTE_ON_57
DURATION_52
POSITION_92369
NOTE_ON_74
DURATION_218
POSITION_92471
NOTE_ON_64
DURATION_121
POSITION_92393
NOTE_ON_47
DURATION_202
POSITION_92547
NOTE_ON_62
DURATION_51
POSITION_92545
NOTE_ON_54
DURATION_55
POSITION_92476
NOTE_ON_55
DURATION_144
POSITION_92629
NOTE_ON_64
DURATION_81
POSITION_92628
NOTE_ON_55
DURATION_84
POSITION_92709
NOTE_ON_52
DURATION_48
POSITION_92709
NOTE_ON_66
DURATION_84
POSITION_92788
NOTE_ON_55
DURATION_65
POSITION_92787
NOTE_ON_64
DURATION_73
POSITION_92864
NOTE_ON_50
DURATION_50
POSITION_92863
NOTE_ON_67
DURATION_79
POSITION_92947
NOTE_ON_55
DURATION_61
POSITION_92946
NOTE_ON_64
DURATION_68
POSITION_93030
NOTE_ON_48
DURATION_42
POSITION_93026
NOTE_ON_69
DURATION_62
POSITION_93111
NOTE_ON_55
DURATION_54
POSITION_93112
NOTE_ON_64
DURATION_54
POSITION_93172
NOTE_ON_64
DURATION_47
POSITION_93267
NOTE_ON_64
DURATION_191
POSITION_93275
NOTE_ON_55
DURATION_185
POSITION_93178
NOTE_ON_71
DURATION_282
POSITION_93190
NOTE_ON_47
DURATION_283
POSITION_93400
NOTE_ON_45
DURATION_88
POSITION_93495
NOTE_ON_45
DURATION_85
POSITION_93584
NOTE_ON_45
DURATION_80
POSITION_93584
NOTE_ON_48
DURATION_199
POSITION_93719
NOTE_ON_52
DURATION_76
POSITION_93799
NOTE_ON_55
DURATION_122
POSITION_93433
NOTE_ON_72
DURATION_577
POSITION_93918
NOTE_ON_54
DURATION_233
POSITION_94037
NOTE_ON_62
DURATION_121
POSITION_94142
NOTE_ON_69
DURATION_88
POSITION_94142
NOTE_ON_50
DURATION_130
POSITION_94217
NOTE_ON_72
DURATION_100
POSITION_94305
NOTE_ON_55
DURATION_41
POSITION_94307
NOTE_ON_71
DURATION_93
POSITION_94388
NOTE_ON_69
DURATION_57
POSITION_94460
NOTE_ON_67
DURATION_47
POSITION_94492
NOTE_ON_47
DURATION_35
POSITION_94479
NOTE_ON_59
DURATION_69
POSITION_94622
NOTE_ON_48
DURATION_50
POSITION_94531
NOTE_ON_66
DURATION_144
POSITION_94622
NOTE_ON_64
DURATION_69
POSITION_94693
NOTE_ON_62
DURATION_59
POSITION_94779
NOTE_ON_45
DURATION_40
POSITION_94782
NOTE_ON_60
DURATION_62
POSITION_94851
NOTE_ON_59
DURATION_118
POSITION_94950
NOTE_ON_50
DURATION_61
POSITION_94946
NOTE_ON_57
DURATION_67
POSITION_95029
NOTE_ON_55
DURATION_69
POSITION_95112
NOTE_ON_54
DURATION_119
POSITION_95332
NOTE_ON_54
DURATION_7
POSITION_95202
NOTE_ON_52
DURATION_138
POSITION_95328
NOTE_ON_38
DURATION_90
POSITION_95327
NOTE_ON_50
DURATION_94
POSITION_95430
NOTE_ON_60
DURATION_9
POSITION_95428
NOTE_ON_48
DURATION_110
POSITION_95529
NOTE_ON_47
DURATION_101
POSITION_95531
NOTE_ON_59
DURATION_131
POSITION_95622
NOTE_ON_45
DURATION_141
POSITION_95624
NOTE_ON_57
DURATION_160
POSITION_95765
NOTE_ON_43
DURATION_1225
POSITION_95768
NOTE_ON_31
DURATION_1259
POSITION_97000
NOTE_ON_43
DURATION_98
POSITION_100123
NOTE_ON_79
DURATION_154
POSITION_100990
NOTE_ON_78
DURATION_222
POSITION_100823
NOTE_ON_43
DURATION_389
POSITION_100349
NOTE_ON_79
DURATION_864
POSITION_100273
NOTE_ON_55
DURATION_941
POSITION_100236
NOTE_ON_71
DURATION_979
POSITION_101104
NOTE_ON_76
DURATION_113
POSITION_100290
NOTE_ON_74
DURATION_932
POSITION_101231
NOTE_ON_74
DURATION_110
POSITION_101362
NOTE_ON_72
DURATION_109
POSITION_101474
NOTE_ON_71
DURATION_114
POSITION_101218
NOTE_ON_47
DURATION_415
POSITION_101598
NOTE_ON_72
DURATION_116
POSITION_101617
NOTE_ON_50
DURATION_393
POSITION_101624
NOTE_ON_54
DURATION_386
POSITION_101845
NOTE_ON_69
DURATION_172
POSITION_101724
NOTE_ON_71
DURATION_297
POSITION_102025
NOTE_ON_71
DURATION_295
POSITION_102158
NOTE_ON_67
DURATION_198
POSITION_102283
NOTE_ON_69
DURATION_104
POSITION_101977
NOTE_ON_55
DURATION_539
POSITION_102398
NOTE_ON_71
DURATION_317
POSITION_102514
NOTE_ON_69
DURATION_204
POSITION_102611
NOTE_ON_67
DURATION_109
POSITION_102543
NOTE_ON_54
DURATION_178
POSITION_102654
NOTE_ON_52
DURATION_70
POSITION_102708
NOTE_ON_74
DURATION_54
POSITION_102752
NOTE_ON_72
DURATION_57
POSITION_102758
NOTE_ON_50
DURATION_120
POSITION_102891
NOTE_ON_48
DURATION_124
POSITION_102825
NOTE_ON_74
DURATION_200
POSITION_103016
NOTE_ON_47
DURATION_115
POSITION_103136
NOTE_ON_48
DURATION_134
POSITION_103267
NOTE_ON_47
DURATION_106
POSITION_103397
NOTE_ON_74
DURATION_65
POSITION_103394
NOTE_ON_45
DURATION_143
POSITION_103556
NOTE_ON_79
DURATION_231
POSITION_103689
NOTE_ON_81
DURATION_209
POSITION_103557
NOTE_ON_47
DURATION_342
POSITION_103800
NOTE_ON_83
DURATION_108
POSITION_103930
NOTE_ON_74
DURATION_113
POSITION_104036
NOTE_ON_76
DURATION_148
POSITION_103923
NOTE_ON_43
DURATION_286
POSITION_104153
NOTE_ON_77
DURATION_94
POSITION_104248
NOTE_ON_48
DURATION_364
POSITION_104407
NOTE_ON_81
DURATION_205
POSITION_104296
NOTE_ON_76
DURATION_316
POSITION_104528
NOTE_ON_83
DURATION_173
POSITION_104879
NOTE_ON_81
DURATION_106
POSITION_104645
NOTE_ON_84
DURATION_356
POSITION_104636
NOTE_ON_45
DURATION_366
POSITION_104769
NOTE_ON_83
DURATION_235
POSITION_104996
NOTE_ON_81
DURATION_58
POSITION_105065
NOTE_ON_79
DURATION_281
POSITION_104987
NOTE_ON_50
DURATION_402
POSITION_105176
NOTE_ON_57
DURATION_214
POSITION_105351
NOTE_ON_79
DURATION_43
POSITION_105285
NOTE_ON_59
DURATION_109
POSITION_105311
NOTE_ON_78
DURATION_104
POSITION_105670
NOTE_ON_79
DURATION_122
POSITION_105420
NOTE_ON_60
DURATION_389
POSITION_105421
NOTE_ON_78
DURATION_390
POSITION_105661
NOTE_ON_57
DURATION_150
POSITION_105549
NOTE_ON_59
DURATION_262
POSITION_105797
NOTE_ON_55
DURATION_128
POSITION_105934
NOTE_ON_54
DURATION_147
POSITION_106070
NOTE_ON_55
DURATION_96
POSITION_106180
NOTE_ON_57
DURATION_99
POSITION_106416
NOTE_ON_54
DURATION_256
POSITION_106291
NOTE_ON_55
DURATION_381
POSITION_105993
NOTE_ON_81
DURATION_683
POSITION_105797
NOTE_ON_79
DURATION_908
POSITION_106791
NOTE_ON_72
DURATION_101
POSITION_106613
NOTE_ON_64
DURATION_400
POSITION_106918
NOTE_ON_71
DURATION_108
POSITION_107045
NOTE_ON_72
DURATION_123
POSITION_107163
NOTE_ON_71
DURATION_99
POSITION_107285
NOTE_ON_69
DURATION_154
POSITION_107020
NOTE_ON_63
DURATION_538
POSITION_107442
NOTE_ON_71
DURATION_224
POSITION_107606
NOTE_ON_63
DURATION_126
POSITION_107714
NOTE_ON_61
DURATION_116
POSITION_107840
NOTE_ON_63
DURATION_168
POSITION_107979
NOTE_ON_61
DURATION_93
POSITION_108101
NOTE_ON_59
DURATION_121
POSITION_107845
NOTE_ON_81
DURATION_520
POSITION_108258
NOTE_ON_64
DURATION_125
POSITION_108373
NOTE_ON_79
DURATION_106
POSITION_108488
NOTE_ON_81
DURATION_133
POSITION_108620
NOTE_ON_52
DURATION_254
POSITION_108619
NOTE_ON_83
DURATION_263
POSITION_108747
NOTE_ON_81
DURATION_138
POSITION_108851
NOTE_ON_79
DURATION_155
POSITION_108987
NOTE_ON_78
DURATION_116
POSITION_108998
NOTE_ON_55
DURATION_338
POSITION_109113
NOTE_ON_76
DURATION_239
POSITION_109228
NOTE_ON_78
DURATION_135
POSITION_109488
NOTE_ON_78
DURATION_217
POSITION_109383
NOTE_ON_52
DURATION_327
POSITION_109614
NOTE_ON_76
DURATION_97
POSITION_109368
NOTE_ON_79
DURATION_348
POSITION_109766
NOTE_ON_74
DURATION_124
POSITION_109719
NOTE_ON_57
DURATION_446
POSITION_109999
NOTE_ON_74
DURATION_168
POSITION_109892
NOTE_ON_73
DURATION_285
POSITION_110135
NOTE_ON_76
DURATION_132
POSITION_110264
NOTE_ON_74
DURATION_154
POSITION_110383
NOTE_ON_73
DURATION_140
POSITION_110522
NOTE_ON_71
DURATION_160
POSITION_110658
NOTE_ON_49
DURATION_225
POSITION_110767
NOTE_ON_47
DURATION_128
POSITION_110703
NOTE_ON_69
DURATION_194
POSITION_110132
NOTE_ON_45
DURATION_790
POSITION_110889
NOTE_ON_49
DURATION_140
POSITION_111030
NOTE_ON_47
DURATION_107
POSITION_111143
NOTE_ON_45
DURATION_137
POSITION_110940
NOTE_ON_79
DURATION_515
POSITION_111451
NOTE_ON_45
DURATION_54
POSITION_111313
NOTE_ON_50
DURATION_210
POSITION_111448
NOTE_ON_78
DURATION_125
POSITION_111562
NOTE_ON_79
DURATION_116
POSITION_111685
NOTE_ON_81
DURATION_240
POSITION_111819
NOTE_ON_79
DURATION_113
POSITION_111687
NOTE_ON_38
DURATION_245
POSITION_111931
NOTE_ON_78
DURATION_129
POSITION_112063
NOTE_ON_76
DURATION_233
POSITION_112061
NOTE_ON_42
DURATION_257
POSITION_112192
NOTE_ON_74
DURATION_138
POSITION_112303
NOTE_ON_76
DURATION_120
POSITION_112437
NOTE_ON_38
DURATION_361
POSITION_112564
NOTE_ON_76
DURATION_234
POSITION_112433
NOTE_ON_78
DURATION_366
POSITION_112685
NOTE_ON_74
DURATION_115
POSITION_112837
NOTE_ON_72
DURATION_120
POSITION_112815
NOTE_ON_43
DURATION_362
POSITION_112965
NOTE_ON_71
DURATION_216
POSITION_113074
NOTE_ON_72
DURATION_117
POSITION_113198
NOTE_ON_74
DURATION_133
POSITION_113331
NOTE_ON_72
DURATION_122
POSITION_113192
NOTE_ON_55
DURATION_345
POSITION_113462
NOTE_ON_71
DURATION_102
POSITION_113579
NOTE_ON_69
DURATION_113
POSITION_113705
NOTE_ON_55
DURATION_108
POSITION_113706
NOTE_ON_67
DURATION_110
POSITION_113818
NOTE_ON_57
DURATION_80
POSITION_113949
NOTE_ON_59
DURATION_42
POSITION_114051
NOTE_ON_59
DURATION_101
POSITION_114183
NOTE_ON_61
DURATION_107
POSITION_113944
NOTE_ON_77
DURATION_518
POSITION_114478
NOTE_ON_76
DURATION_182
POSITION_114316
NOTE_ON_62
DURATION_398
POSITION_114590
NOTE_ON_74
DURATION_134
POSITION_114730
NOTE_ON_76
DURATION_105
POSITION_114839
NOTE_ON_74
DURATION_177
POSITION_114713
NOTE_ON_56
DURATION_360
POSITION_114955
NOTE_ON_73
DURATION_125
POSITION_115082
NOTE_ON_74
DURATION_306
POSITION_115191
NOTE_ON_73
DURATION_198
POSITION_115083
NOTE_ON_59
DURATION_428
POSITION_115304
NOTE_ON_71
DURATION_218
POSITION_115472
NOTE_ON_52
DURATION_373
POSITION_115467
NOTE_ON_80
DURATION_463
POSITION_115767
NOTE_ON_81
DURATION_163
POSITION_115932
NOTE_ON_74
DURATION_343
POSITION_116248
NOTE_ON_73
DURATION_88
POSITION_115932
NOTE_ON_57
DURATION_408
POSITION_116283
NOTE_ON_74
DURATION_58
POSITION_115855
NOTE_ON_52
DURATION_497
POSITION_115803
NOTE_ON_45
DURATION_840
POSITION_116524
NOTE_ON_55
DURATION_131
POSITION_116628
NOTE_ON_54
DURATION_107
POSITION_116740
NOTE_ON_52
DURATION_112
POSITION_116345
NOTE_ON_73
DURATION_520
POSITION_116863
NOTE_ON_50
DURATION_105
POSITION_116869
NOTE_ON_74
DURATION_100
POSITION_116970
NOTE_ON_49
DURATION_118
POSITION_117084
NOTE_ON_67
DURATION_71
POSITION_117085
NOTE_ON_50
DURATION_128
POSITION_117208
NOTE_ON_49
DURATION_146
POSITION_116963
NOTE_ON_76
DURATION_395
POSITION_117377
NOTE_ON_67
DURATION_91
POSITION_117362
NOTE_ON_47
DURATION_138
POSITION_117507
NOTE_ON_49
DURATION_116
POSITION_117637
NOTE_ON_45
DURATION_93
POSITION_117491
NOTE_ON_76
DURATION_360
POSITION_117772
NOTE_ON_47
DURATION_98
POSITION_117793
NOTE_ON_66
DURATION_81
POSITION_117892
NOTE_ON_49
DURATION_102
POSITION_118014
NOTE_ON_47
DURATION_107
POSITION_117892
NOTE_ON_64
DURATION_272
POSITION_118160
NOTE_ON_69
DURATION_85
POSITION_118153
NOTE_ON_45
DURATION_95
POSITION_118417
NOTE_ON_54
DURATION_107
POSITION_118293
NOTE_ON_50
DURATION_278
POSITION_118563
NOTE_ON_52
DURATION_90
POSITION_118557
NOTE_ON_69
DURATION_102
POSITION_118664
NOTE_ON_74
DURATION_93
POSITION_118666
NOTE_ON_50
DURATION_107
POSITION_118774
NOTE_ON_52
DURATION_191
POSITION_118916
NOTE_ON_72
DURATION_111
POSITION_118912
NOTE_ON_54
DURATION_124
POSITION_118268
NOTE_ON_66
DURATION_779
POSITION_119186
NOTE_ON_57
DURATION_126
POSITION_119053
NOTE_ON_55
DURATION_266
POSITION_119304
NOTE_ON_64
DURATION_87
POSITION_119295
NOTE_ON_59
DURATION_115
POSITION_119411
NOTE_ON_66
DURATION_92
POSITION_119412
NOTE_ON_51
DURATION_109
POSITION_119022
NOTE_ON_71
DURATION_517
POSITION_119539
NOTE_ON_52
DURATION_135
POSITION_119662
NOTE_ON_54
DURATION_103
POSITION_119661
NOTE_ON_69
DURATION_113
POSITION_119796
NOTE_ON_52
DURATION_265
POSITION_119911
NOTE_ON_59
DURATION_182
POSITION_120049
NOTE_ON_79
DURATION_100
POSITION_120049
NOTE_ON_61
DURATION_101
POSITION_120172
NOTE_ON_62
DURATION_99
POSITION_120287
NOTE_ON_61
DURATION_220
POSITION_120419
NOTE_ON_79
DURATION_92
POSITION_120408
NOTE_ON_59
DURATION_111
POSITION_119792
NOTE_ON_67
DURATION_737
POSITION_120141
NOTE_ON_78
DURATION_388
POSITION_120548
NOTE_ON_61
DURATION_304
POSITION_120671
NOTE_ON_57
DURATION_200
POSITION_120811
NOTE_ON_66
DURATION_78
POSITION_120806
NOTE_ON_59
DURATION_91
POSITION_120924
NOTE_ON_64
DURATION_53
POSITION_120922
NOTE_ON_61
DURATION_116
POSITION_121036
NOTE_ON_59
DURATION_91
POSITION_120549
NOTE_ON_69
DURATION_695
POSITION_121192
NOTE_ON_67
DURATION_89
POSITION_121168
NOTE_ON_57
DURATION_137
POSITION_121301
NOTE_ON_62
DURATION_147
POSITION_121436
NOTE_ON_61
DURATION_136
POSITION_121295
NOTE_ON_66
DURATION_278
POSITION_121571
NOTE_ON_59
DURATION_100
POSITION_121568
NOTE_ON_74
DURATION_110
POSITION_121693
NOTE_ON_76
DURATION_110
POSITION_121693
NOTE_ON_57
DURATION_114
POSITION_121826
NOTE_ON_59
DURATION_89
POSITION_121947
NOTE_ON_60
DURATION_229
POSITION_121945
NOTE_ON_78
DURATION_239
POSITION_122313
NOTE_ON_66
DURATION_56
POSITION_122417
NOTE_ON_64
DURATION_100
POSITION_122531
NOTE_ON_66
DURATION_119
POSITION_122655
NOTE_ON_64
DURATION_98
POSITION_122154
NOTE_ON_67
DURATION_779
POSITION_122115
NOTE_ON_59
DURATION_939
POSITION_123076
NOTE_ON_57
DURATION_116
POSITION_123202
NOTE_ON_55
DURATION_72
POSITION_123202
NOTE_ON_71
DURATION_95
POSITION_123313
NOTE_ON_69
DURATION_63
POSITION_123306
NOTE_ON_54
DURATION_106
POSITION_123418
NOTE_ON_55
DURATION_113
POSITION_122784
NOTE_ON_63
DURATION_764
POSITION_123575
NOTE_ON_57
DURATION_113
POSITION_123581
NOTE_ON_72
DURATION_115
POSITION_122930
NOTE_ON_64
DURATION_894
POSITION_123826
NOTE_ON_63
DURATION_113
POSITION_123940
NOTE_ON_64
DURATION_112
POSITION_124076
NOTE_ON_66
DURATION_113
POSITION_124200
NOTE_ON_64
DURATION_78
POSITION_124319
NOTE_ON_63
DURATION_113
POSITION_124449
NOTE_ON_64
DURATION_159
POSITION_123710
NOTE_ON_55
DURATION_901
POSITION_124597
NOTE_ON_54
DURATION_111
POSITION_124595
NOTE_ON_66
DURATION_116
POSITION_124711
NOTE_ON_52
DURATION_83
POSITION_124709
NOTE_ON_67
DURATION_88
POSITION_123705
NOTE_ON_71
DURATION_1202
POSITION_124813
NOTE_ON_51
DURATION_112
POSITION_124815
NOTE_ON_69
DURATION_120
POSITION_124932
NOTE_ON_52
DURATION_78
POSITION_124933
NOTE_ON_67
DURATION_80
POSITION_125031
NOTE_ON_66
DURATION_112
POSITION_125044
NOTE_ON_54
DURATION_135
POSITION_125324
NOTE_ON_73
DURATION_118
POSITION_125434
NOTE_ON_74
DURATION_122
POSITION_125558
NOTE_ON_76
DURATION_123
POSITION_125683
NOTE_ON_74
DURATION_95
POSITION_125798
NOTE_ON_73
DURATION_130
POSITION_125177
NOTE_ON_52
DURATION_888
POSITION_125930
NOTE_ON_74
DURATION_143
POSITION_126041
NOTE_ON_50
DURATION_123
POSITION_126040
NOTE_ON_76
DURATION_142
POSITION_125181
NOTE_ON_67
DURATION_1016
POSITION_126156
NOTE_ON_49
DURATION_117
POSITION_126155
NOTE_ON_78
DURATION_121
POSITION_126273
NOTE_ON_47
DURATION_117
POSITION_126274
NOTE_ON_79
DURATION_119
POSITION_126388
NOTE_ON_49
DURATION_112
POSITION_126389
NOTE_ON_78
DURATION_141
POSITION_126503
NOTE_ON_50
DURATION_128
POSITION_126508
NOTE_ON_76
DURATION_196
POSITION_126710
NOTE_ON_76
DURATION_25
POSITION_126678
NOTE_ON_49
DURATION_111
POSITION_126799
NOTE_ON_49
DURATION_149
POSITION_126847
NOTE_ON_69
DURATION_109
POSITION_126968
NOTE_ON_71
DURATION_96
POSITION_127074
NOTE_ON_73
DURATION_41
POSITION_127068
NOTE_ON_45
DURATION_246
POSITION_127200
NOTE_ON_73
DURATION_122
POSITION_126676
NOTE_ON_81
DURATION_666
POSITION_127307
NOTE_ON_74
DURATION_62
POSITION_127417
NOTE_ON_76
DURATION_117
POSITION_127540
NOTE_ON_76
DURATION_143
POSITION_127415
NOTE_ON_40
DURATION_286
POSITION_127654
NOTE_ON_78
DURATION_91
POSITION_127769
NOTE_ON_79
DURATION_110
POSITION_127885
NOTE_ON_79
DURATION_196
POSITION_127754
NOTE_ON_37
DURATION_328
POSITION_128007
NOTE_ON_81
DURATION_105
POSITION_128168
NOTE_ON_82
DURATION_160
POSITION_128130
NOTE_ON_33
DURATION_314
POSITION_128292
NOTE_ON_45
DURATION_166
POSITION_128454
NOTE_ON_47
DURATION_122
POSITION_128455
NOTE_ON_80
DURATION_129
POSITION_128578
NOTE_ON_49
DURATION_125
POSITION_128697
NOTE_ON_50
DURATION_90
POSITION_128804
NOTE_ON_52
DURATION_95
POSITION_128566
NOTE_ON_81
DURATION_336
POSITION_128919
NOTE_ON_54
DURATION_147
POSITION_129037
NOTE_ON_55
DURATION_106
POSITION_129163
NOTE_ON_57
DURATION_138
POSITION_129163
NOTE_ON_85
DURATION_143
POSITION_129296
NOTE_ON_86
DURATION_54
POSITION_129296
NOTE_ON_59
DURATION_108
POSITION_129503
NOTE_ON_78
DURATION_89
POSITION_129516
NOTE_ON_62
DURATION_110
POSITION_129407
NOTE_ON_61
DURATION_227
POSITION_129550
NOTE_ON_80
DURATION_88
POSITION_129596
NOTE_ON_78
DURATION_57
POSITION_129643
NOTE_ON_80
DURATION_28
POSITION_129649
NOTE_ON_64
DURATION_116
POSITION_129765
NOTE_ON_62
DURATION_108
POSITION_129770
NOTE_ON_59
DURATION_115
POSITION_129881
NOTE_ON_81
DURATION_115
POSITION_129888
NOTE_ON_61
DURATION_122
POSITION_130002
NOTE_ON_73
DURATION_31
POSITION_130005
NOTE_ON_66
DURATION_122
POSITION_130119
NOTE_ON_64
DURATION_111
POSITION_130241
NOTE_ON_62
DURATION_190
POSITION_130249
NOTE_ON_74
DURATION_187
POSITION_130430
NOTE_ON_78
DURATION_391
POSITION_130786
NOTE_ON_76
DURATION_81
POSITION_130825
NOTE_ON_78
DURATION_65
POSITION_130432
NOTE_ON_69
DURATION_933
POSITION_130876
NOTE_ON_76
DURATION_493
POSITION_130889
NOTE_ON_57
DURATION_481
POSITION_131240
NOTE_ON_74
DURATION_149
POSITION_131396
NOTE_ON_74
DURATION_112
POSITION_131336
NOTE_ON_59
DURATION_233
POSITION_131509
NOTE_ON_73
DURATION_90
POSITION_131615
NOTE_ON_62
DURATION_108
POSITION_131615
NOTE_ON_71
DURATION_112
POSITION_131740
NOTE_ON_72
DURATION_120
POSITION_131746
NOTE_ON_54
DURATION_200
POSITION_131744
NOTE_ON_57
DURATION_207
POSITION_131858
NOTE_ON_71
DURATION_94
POSITION_131985
NOTE_ON_62
DURATION_100
POSITION_131983
NOTE_ON_69
DURATION_109
POSITION_132108
NOTE_ON_71
DURATION_126
POSITION_132223
NOTE_ON_69
DURATION_186
POSITION_132110
NOTE_ON_55
DURATION_304
POSITION_132331
NOTE_ON_62
DURATION_88
POSITION_132332
NOTE_ON_67
DURATION_89
POSITION_132461
NOTE_ON_69
DURATION_303
POSITION_132575
NOTE_ON_67
DURATION_190
POSITION_132462
NOTE_ON_54
DURATION_310
POSITION_132694
NOTE_ON_62
DURATION_80
POSITION_132461
NOTE_ON_47
DURATION_314
POSITION_132691
NOTE_ON_66
DURATION_90
POSITION_132820
NOTE_ON_67
DURATION_101
POSITION_132930
NOTE_ON_66
DURATION_92
POSITION_132821
NOTE_ON_52
DURATION_212
POSITION_132826
NOTE_ON_49
DURATION_209
POSITION_133053
NOTE_ON_64
DURATION_98
POSITION_133193
NOTE_ON_66
DURATION_359
POSITION_133052
NOTE_ON_57
DURATION_510
POSITION_133499
NOTE_ON_74
DURATION_74
POSITION_133199
NOTE_ON_50
DURATION_405
POSITION_133611
NOTE_ON_64
DURATION_70
POSITION_133927
NOTE_ON_67
DURATION_84
POSITION_133606
NOTE_ON_45
DURATION_440
POSITION_134055
NOTE_ON_74
DURATION_102
POSITION_134058
NOTE_ON_55
DURATION_490
POSITION_134058
NOTE_ON_45
DURATION_497
POSITION_134385
NOTE_ON_73
DURATION_227
POSITION_134811
NOTE_ON_54
DURATION_45
POSITION_134880
NOTE_ON_52
DURATION_46
POSITION_134610
NOTE_ON_74
DURATION_625
POSITION_134973
NOTE_ON_54
DURATION_263
POSITION_134533
NOTE_ON_50
DURATION_704
POSITION_135179
NOTE_ON_69
DURATION_71
POSITION_134948
NOTE_ON_62
DURATION_327
POSITION_135271
NOTE_ON_67
DURATION_71
POSITION_135386
NOTE_ON_66
DURATION_32
POSITION_135387
NOTE_ON_62
DURATION_38
POSITION_135387
NOTE_ON_69
DURATION_94
POSITION_135516
NOTE_ON_66
DURATION_71
POSITION_135630
NOTE_ON_64
DURATION_93
POSITION_135781
NOTE_ON_62
DURATION_35
POSITION_135786
NOTE_ON_57
DURATION_47
POSITION_135767
NOTE_ON_66
DURATION_88
POSITION_135882
NOTE_ON_62
DURATION_65
POSITION_136013
NOTE_ON_61
DURATION_136
POSITION_136306
NOTE_ON_50
DURATION_93
POSITION_136430
NOTE_ON_49
DURATION_95
POSITION_136559
NOTE_ON_50
DURATION_86
POSITION_136683
NOTE_ON_45
DURATION_71
POSITION_136179
NOTE_ON_57
DURATION_624
POSITION_136800
NOTE_ON_42
DURATION_84
POSITION_136177
NOTE_ON_54
DURATION_1617
POSITION_137000
NOTE_ON_38
DURATION_805
POSITION_136178
NOTE_ON_62
DURATION_1639
POSITION_137913
NOTE_ON_79
DURATION_182
POSITION_138105
NOTE_ON_74
DURATION_557
POSITION_138015
NOTE_ON_55
DURATION_1040
POSITION_138069
NOTE_ON_71
DURATION_989
POSITION_138814
NOTE_ON_78
DURATION_245
POSITION_138657
NOTE_ON_43
DURATION_402
POSITION_138179
NOTE_ON_79
DURATION_884
POSITION_138932
NOTE_ON_76
DURATION_133
POSITION_139063
NOTE_ON_74
DURATION_95
POSITION_139180
NOTE_ON_72
DURATION_114
POSITION_139290
NOTE_ON_71
DURATION_98
POSITION_139038
NOTE_ON_47
DURATION_418
POSITION_139423
NOTE_ON_72
DURATION_124
POSITION_139550
NOTE_ON_71
DURATION_107
POSITION_139666
NOTE_ON_69
DURATION_145
POSITION_139431
NOTE_ON_54
DURATION_381
POSITION_139432
NOTE_ON_50
DURATION_402
POSITION_139833
NOTE_ON_71
DURATION_120
POSITION_139973
NOTE_ON_67
DURATION_148
POSITION_140131
NOTE_ON_67
DURATION_59
POSITION_140095
NOTE_ON_69
DURATION_103
POSITION_140207
NOTE_ON_71
DURATION_118
POSITION_139819
NOTE_ON_55
DURATION_507
POSITION_140320
NOTE_ON_69
DURATION_177
POSITION_140351
NOTE_ON_54
DURATION_150
POSITION_140410
NOTE_ON_67
DURATION_98
POSITION_140471
NOTE_ON_52
DURATION_61
POSITION_140515
NOTE_ON_74
DURATION_49
POSITION_140567
NOTE_ON_38
DURATION_7
POSITION_140505
NOTE_ON_69
DURATION_115
POSITION_140566
NOTE_ON_72
DURATION_59
POSITION_140570
NOTE_ON_50
DURATION_122
POSITION_140703
NOTE_ON_48
DURATION_127
POSITION_140830
NOTE_ON_47
DURATION_116
POSITION_140639
NOTE_ON_74
DURATION_419
POSITION_140952
NOTE_ON_48
DURATION_130
POSITION_141082
NOTE_ON_47
DURATION_108
POSITION_141210
NOTE_ON_74
DURATION_68
POSITION_141208
NOTE_ON_45
DURATION_143
POSITION_141370
NOTE_ON_79
DURATION_121
POSITION_141501
NOTE_ON_81
DURATION_131
POSITION_141369
NOTE_ON_47
DURATION_344
POSITION_141615
NOTE_ON_83
DURATION_107
POSITION_141744
NOTE_ON_74
DURATION_130
POSITION_141849
NOTE_ON_76
DURATION_131
POSITION_141737
NOTE_ON_43
DURATION_304
POSITION_141966
NOTE_ON_77
DURATION_102
POSITION_142111
NOTE_ON_76
DURATION_315
POSITION_142221
NOTE_ON_81
DURATION_206
POSITION_142342
NOTE_ON_83
DURATION_86
POSITION_142063
NOTE_ON_48
DURATION_365
POSITION_142460
NOTE_ON_84
DURATION_353
POSITION_142451
NOTE_ON_45
DURATION_362
POSITION_142584
NOTE_ON_83
DURATION_231
POSITION_142692
NOTE_ON_81
DURATION_160
POSITION_142879
NOTE_ON_79
DURATION_283
POSITION_142799
NOTE_ON_50
DURATION_412
POSITION_142990
NOTE_ON_57
DURATION_221
POSITION_143100
NOTE_ON_59
DURATION_112
POSITION_143166
NOTE_ON_79
DURATION_52
POSITION_143127
NOTE_ON_78
DURATION_105
POSITION_143482
NOTE_ON_79
DURATION_126
POSITION_143236
NOTE_ON_78
DURATION_390
POSITION_143236
NOTE_ON_60
DURATION_390
POSITION_143363
NOTE_ON_59
DURATION_264
POSITION_143476
NOTE_ON_57
DURATION_151
POSITION_143611
NOTE_ON_55
DURATION_131
POSITION_143750
NOTE_ON_54
DURATION_155
POSITION_143884
NOTE_ON_55
DURATION_98
POSITION_143612
NOTE_ON_79
DURATION_395
POSITION_143996
NOTE_ON_57
DURATION_102
POSITION_144229
NOTE_ON_54
DURATION_268
POSITION_144105
NOTE_ON_55
DURATION_395
POSITION_143806
NOTE_ON_81
DURATION_695
POSITION_144609
NOTE_ON_72
DURATION_100
POSITION_144427
NOTE_ON_64
DURATION_404
POSITION_144734
NOTE_ON_71
DURATION_109
POSITION_144860
NOTE_ON_72
DURATION_110
POSITION_144827
NOTE_ON_63
DURATION_217
POSITION_144976
NOTE_ON_71
DURATION_98
POSITION_145100
NOTE_ON_69
DURATION_121
POSITION_145225
NOTE_ON_69
DURATION_26
POSITION_145255
NOTE_ON_71
DURATION_101
POSITION_145378
NOTE_ON_63
DURATION_109
POSITION_145485
NOTE_ON_61
DURATION_131
POSITION_145626
NOTE_ON_63
DURATION_130
POSITION_145742
NOTE_ON_61
DURATION_83
POSITION_145851
NOTE_ON_59
DURATION_149
POSITION_146061
NOTE_ON_52
DURATION_158
POSITION_145624
NOTE_ON_81
DURATION_610
POSITION_146027
NOTE_ON_64
DURATION_297
POSITION_146129
NOTE_ON_79
DURATION_196
POSITION_146240
NOTE_ON_81
DURATION_136
POSITION_146500
NOTE_ON_81
DURATION_139
POSITION_146384
NOTE_ON_52
DURATION_278
POSITION_146387
NOTE_ON_83
DURATION_285
POSITION_146618
NOTE_ON_79
DURATION_127
POSITION_146747
NOTE_ON_78
DURATION_125
POSITION_146867
NOTE_ON_76
DURATION_109
POSITION_146747
NOTE_ON_55
DURATION_323
POSITION_146975
NOTE_ON_78
DURATION_107
POSITION_147245
NOTE_ON_78
DURATION_229
POSITION_147119
NOTE_ON_79
DURATION_360
POSITION_147115
NOTE_ON_52
DURATION_367
POSITION_147360
NOTE_ON_76
DURATION_130
POSITION_147490
NOTE_ON_57
DURATION_109
POSITION_147516
NOTE_ON_74
DURATION_88
POSITION_147632
NOTE_ON_73
DURATION_111
POSITION_147747
NOTE_ON_74
DURATION_140
POSITION_147891
NOTE_ON_76
DURATION_113
POSITION_148012
NOTE_ON_74
DURATION_130
POSITION_148128
NOTE_ON_73
DURATION_146
POSITION_148259
NOTE_ON_71
DURATION_92
POSITION_147857
NOTE_ON_45
DURATION_538
POSITION_148380
NOTE_ON_69
DURATION_91
POSITION_148389
NOTE_ON_49
DURATION_100
POSITION_148491
NOTE_ON_47
DURATION_124
POSITION_148629
NOTE_ON_49
DURATION_98
POSITION_148734
NOTE_ON_47
DURATION_107
POSITION_148649
NOTE_ON_79
DURATION_494
POSITION_148850
NOTE_ON_45
DURATION_310
POSITION_149011
NOTE_ON_50
DURATION_216
POSITION_149142
NOTE_ON_78
DURATION_121
POSITION_149262
NOTE_ON_79
DURATION_110
POSITION_149525
NOTE_ON_79
DURATION_158
POSITION_149391
NOTE_ON_38
DURATION_294
POSITION_149389
NOTE_ON_81
DURATION_340
POSITION_149751
NOTE_ON_54
DURATION_116
POSITION_149633
NOTE_ON_78
DURATION_272
POSITION_149763
NOTE_ON_76
DURATION_227
POSITION_149895
NOTE_ON_74
DURATION_145
POSITION_149755
NOTE_ON_42
DURATION_285
POSITION_150000
NOTE_ON_76
DURATION_105
POSITION_150139
NOTE_ON_38
DURATION_314
POSITION_150137
NOTE_ON_78
DURATION_318
POSITION_150256
NOTE_ON_76
DURATION_201
POSITION_150382
NOTE_ON_74
DURATION_115
POSITION_150529
NOTE_ON_72
DURATION_131
POSITION_150641
NOTE_ON_71
DURATION_101
POSITION_150463
NOTE_ON_43
DURATION_417
POSITION_150745
NOTE_ON_72
DURATION_148
POSITION_150897
NOTE_ON_74
DURATION_164
POSITION_151034
NOTE_ON_72
DURATION_119
POSITION_150899
NOTE_ON_55
DURATION_355
POSITION_151150
NOTE_ON_71
DURATION_104
POSITION_151278
NOTE_ON_69
DURATION_114
POSITION_151404
NOTE_ON_55
DURATION_103
POSITION_151407
NOTE_ON_67
DURATION_108
POSITION_151518
NOTE_ON_57
DURATION_81
POSITION_151650
NOTE_ON_59
DURATION_40
POSITION_151751
NOTE_ON_59
DURATION_102
POSITION_151884
NOTE_ON_61
DURATION_110
POSITION_151645
NOTE_ON_77
DURATION_357
POSITION_152177
NOTE_ON_76
DURATION_107
POSITION_152016
NOTE_ON_62
DURATION_396
POSITION_152290
NOTE_ON_74
DURATION_131
POSITION_152431
NOTE_ON_76
DURATION_232
POSITION_152540
NOTE_ON_74
DURATION_177
POSITION_152414
NOTE_ON_56
DURATION_361
POSITION_152655
NOTE_ON_73
DURATION_128
POSITION_152893
NOTE_ON_73
DURATION_184
POSITION_152782
NOTE_ON_74
DURATION_298
POSITION_153004
NOTE_ON_71
DURATION_181
POSITION_152783
NOTE_ON_59
DURATION_409
POSITION_153173
NOTE_ON_52
DURATION_373
POSITION_153168
NOTE_ON_80
DURATION_447
POSITION_153633
NOTE_ON_74
DURATION_343
POSITION_153468
NOTE_ON_81
DURATION_508
POSITION_153631
NOTE_ON_57
DURATION_399
POSITION_153949
NOTE_ON_73
DURATION_88
POSITION_153984
NOTE_ON_74
DURATION_55
POSITION_153556
NOTE_ON_52
DURATION_489
POSITION_153504
NOTE_ON_45
DURATION_848
POSITION_154225
NOTE_ON_55
DURATION_130
POSITION_154327
NOTE_ON_54
DURATION_105
POSITION_154440
NOTE_ON_52
DURATION_110
POSITION_154044
NOTE_ON_73
DURATION_539
POSITION_154564
NOTE_ON_50
DURATION_105
POSITION_154570
NOTE_ON_74
DURATION_100
POSITION_154671
NOTE_ON_49
DURATION_111
POSITION_154783
NOTE_ON_67
DURATION_77
POSITION_154785
NOTE_ON_50
DURATION_122
POSITION_154663
NOTE_ON_76
DURATION_388
POSITION_154909
NOTE_ON_49
DURATION_145
POSITION_155078
NOTE_ON_67
DURATION_91
POSITION_155063
NOTE_ON_47
DURATION_135
POSITION_155208
NOTE_ON_49
DURATION_117
POSITION_155337
NOTE_ON_45
DURATION_97
POSITION_155470
NOTE_ON_47
DURATION_101
POSITION_155494
NOTE_ON_66
DURATION_79
POSITION_155592
NOTE_ON_49
DURATION_102
POSITION_155715
NOTE_ON_47
DURATION_105
POSITION_155593
NOTE_ON_64
DURATION_276
POSITION_155192
NOTE_ON_76
DURATION_704
POSITION_155860
NOTE_ON_69
DURATION_85
POSITION_155855
NOTE_ON_45
DURATION_95
POSITION_156117
NOTE_ON_54
DURATION_103
POSITION_155995
NOTE_ON_50
DURATION_258
POSITION_156263
NOTE_ON_52
DURATION_90
POSITION_156258
NOTE_ON_69
DURATION_102
POSITION_156365
NOTE_ON_74
DURATION_88
POSITION_156364
NOTE_ON_50
DURATION_104
POSITION_156475
NOTE_ON_52
DURATION_186
POSITION_156615
NOTE_ON_72
DURATION_106
POSITION_156612
NOTE_ON_54
DURATION_119
POSITION_155968
NOTE_ON_66
DURATION_765
POSITION_156722
NOTE_ON_71
DURATION_270
POSITION_156885
NOTE_ON_57
DURATION_130
POSITION_156753
NOTE_ON_55
DURATION_275
POSITION_157005
NOTE_ON_64
DURATION_92
POSITION_156996
NOTE_ON_59
DURATION_117
POSITION_157112
NOTE_ON_66
DURATION_87
POSITION_157114
NOTE_ON_51
DURATION_114
POSITION_157238
NOTE_ON_52
DURATION_144
POSITION_157362
NOTE_ON_54
DURATION_104
POSITION_157363
NOTE_ON_69
DURATION_109
POSITION_157496
NOTE_ON_52
DURATION_274
POSITION_157613
NOTE_ON_59
DURATION_183
POSITION_157749
NOTE_ON_79
DURATION_101
POSITION_157749
NOTE_ON_61
DURATION_102
POSITION_157871
NOTE_ON_62
DURATION_101
POSITION_157987
NOTE_ON_61
DURATION_223
POSITION_158120
NOTE_ON_79
DURATION_96
POSITION_158106
NOTE_ON_59
DURATION_116
POSITION_157842
NOTE_ON_78
DURATION_389
POSITION_157491
NOTE_ON_67
DURATION_747
POSITION_158248
NOTE_ON_61
DURATION_297
POSITION_158372
NOTE_ON_57
DURATION_186
POSITION_158512
NOTE_ON_66
DURATION_78
POSITION_158507
NOTE_ON_59
DURATION_89
POSITION_158624
NOTE_ON_64
DURATION_59
POSITION_158622
NOTE_ON_61
DURATION_116
POSITION_158738
NOTE_ON_59
DURATION_93
POSITION_158250
NOTE_ON_69
DURATION_718
POSITION_158894
NOTE_ON_67
DURATION_87
POSITION_158869
NOTE_ON_57
DURATION_117
POSITION_159003
NOTE_ON_62
DURATION_140
POSITION_159137
NOTE_ON_61
DURATION_140
POSITION_159272
NOTE_ON_59
DURATION_99
POSITION_159268
NOTE_ON_74
DURATION_111
POSITION_159394
NOTE_ON_76
DURATION_104
POSITION_159394
NOTE_ON_57
DURATION_118
POSITION_159527
NOTE_ON_59
DURATION_84
POSITION_159649
NOTE_ON_60
DURATION_229
POSITION_158997
NOTE_ON_66
DURATION_892
POSITION_159646
NOTE_ON_78
DURATION_244
POSITION_160011
NOTE_ON_66
DURATION_58
POSITION_160118
NOTE_ON_64
DURATION_97
POSITION_160231
NOTE_ON_66
DURATION_120
POSITION_160357
NOTE_ON_64
DURATION_87
POSITION_159854
NOTE_ON_67
DURATION_765
POSITION_159817
NOTE_ON_59
DURATION_938
POSITION_160487
NOTE_ON_63
DURATION_324
POSITION_160776
NOTE_ON_57
DURATION_118
POSITION_160901
NOTE_ON_55
DURATION_74
POSITION_160902
NOTE_ON_71
DURATION_95
POSITION_161015
NOTE_ON_69
DURATION_62
POSITION_161005
NOTE_ON_54
DURATION_107
POSITION_161118
NOTE_ON_55
DURATION_111
POSITION_160630
NOTE_ON_67
DURATION_634
POSITION_161276
NOTE_ON_57
DURATION_108
POSITION_161282
NOTE_ON_72
DURATION_112
POSITION_160630
NOTE_ON_64
DURATION_901
POSITION_161525
NOTE_ON_63
DURATION_113
POSITION_161641
NOTE_ON_64
DURATION_107
POSITION_161778
NOTE_ON_66
DURATION_112
POSITION_161901
NOTE_ON_64
DURATION_89
POSITION_162019
NOTE_ON_63
DURATION_112
POSITION_161406
NOTE_ON_71
DURATION_742
POSITION_162151
NOTE_ON_64
DURATION_153
POSITION_161410
NOTE_ON_55
DURATION_897
POSITION_162299
NOTE_ON_54
DURATION_105
POSITION_162297
NOTE_ON_66
DURATION_108
POSITION_162412
NOTE_ON_52
DURATION_82
POSITION_162407
NOTE_ON_67
DURATION_90
POSITION_162513
NOTE_ON_51
DURATION_112
POSITION_162515
NOTE_ON_69
DURATION_127
POSITION_162633
NOTE_ON_52
DURATION_78
POSITION_162633
NOTE_ON_67
DURATION_80
POSITION_162733
NOTE_ON_66
DURATION_111
POSITION_162744
NOTE_ON_54
DURATION_127
POSITION_163025
NOTE_ON_73
DURATION_120
POSITION_163134
NOTE_ON_74
DURATION_125
POSITION_163258
NOTE_ON_76
DURATION_121
POSITION_163383
NOTE_ON_74
DURATION_97
POSITION_163498
NOTE_ON_73
DURATION_270
POSITION_162882
NOTE_ON_67
DURATION_891
POSITION_162877
NOTE_ON_52
DURATION_896
POSITION_163630
NOTE_ON_74
DURATION_144
POSITION_163741
NOTE_ON_76
DURATION_46
POSITION_163741
NOTE_ON_50
DURATION_124
POSITION_163856
NOTE_ON_49
DURATION_111
POSITION_163856
NOTE_ON_78
DURATION_113
POSITION_163974
NOTE_ON_47
DURATION_116
POSITION_163975
NOTE_ON_79
DURATION_119
POSITION_164088
NOTE_ON_49
DURATION_100
POSITION_164205
NOTE_ON_50
DURATION_129
POSITION_164089
NOTE_ON_78
DURATION_270
POSITION_164208
NOTE_ON_76
DURATION_162
POSITION_164379
NOTE_ON_49
DURATION_287
POSITION_164548
NOTE_ON_69
DURATION_120
POSITION_164668
NOTE_ON_71
DURATION_97
POSITION_164774
NOTE_ON_73
DURATION_36
POSITION_164769
NOTE_ON_45
DURATION_236
POSITION_164901
NOTE_ON_73
DURATION_113
POSITION_164377
NOTE_ON_81
DURATION_643
POSITION_165009
NOTE_ON_74
DURATION_60
POSITION_165117
NOTE_ON_76
DURATION_48
POSITION_165241
NOTE_ON_76
DURATION_149
POSITION_165115
NOTE_ON_40
DURATION_281
POSITION_165353
NOTE_ON_78
DURATION_54
POSITION_165468
NOTE_ON_79
DURATION_112
POSITION_165455
NOTE_ON_37
DURATION_313
POSITION_165586
NOTE_ON_79
DURATION_190
POSITION_165708
NOTE_ON_81
DURATION_107
POSITION_165868
NOTE_ON_82
DURATION_164
POSITION_165829
NOTE_ON_33
DURATION_319
POSITION_165992
NOTE_ON_45
DURATION_167
POSITION_166156
NOTE_ON_47
DURATION_124
POSITION_166156
NOTE_ON_80
DURATION_129
POSITION_166277
NOTE_ON_49
DURATION_123
POSITION_166397
NOTE_ON_50
DURATION_87
POSITION_166504
NOTE_ON_52
DURATION_99
POSITION_166268
NOTE_ON_81
DURATION_337
POSITION_166618
NOTE_ON_54
DURATION_150
POSITION_166738
NOTE_ON_55
DURATION_105
POSITION_166864
NOTE_ON_57
DURATION_124
POSITION_166864
NOTE_ON_85
DURATION_133
POSITION_166996
NOTE_ON_86
DURATION_55
POSITION_166996
NOTE_ON_59
DURATION_109
POSITION_167204
NOTE_ON_78
DURATION_89
POSITION_167213
NOTE_ON_62
DURATION_107
POSITION_167107
NOTE_ON_61
DURATION_221
POSITION_167250
NOTE_ON_80
DURATION_89
POSITION_167297
NOTE_ON_78
DURATION_50
POSITION_167344
NOTE_ON_80
DURATION_29
POSITION_167349
NOTE_ON_64
DURATION_112
POSITION_167466
NOTE_ON_62
DURATION_107
POSITION_167468
NOTE_ON_59
DURATION_112
POSITION_167581
NOTE_ON_81
DURATION_117
POSITION_167588
NOTE_ON_61
DURATION_117
POSITION_167703
NOTE_ON_73
DURATION_30
POSITION_167704
NOTE_ON_66
DURATION_127
POSITION_167819
NOTE_ON_64
DURATION_113
POSITION_167943
NOTE_ON_62
DURATION_184
POSITION_167950
NOTE_ON_74
DURATION_184
POSITION_168130
NOTE_ON_78
DURATION_384
POSITION_168487
NOTE_ON_76
DURATION_81
POSITION_168525
NOTE_ON_78
DURATION_58
POSITION_168576
NOTE_ON_76
DURATION_371
POSITION_168590
NOTE_ON_57
DURATION_479
POSITION_168132
NOTE_ON_69
DURATION_943
POSITION_168940
NOTE_ON_74
DURATION_150
POSITION_169097
NOTE_ON_74
DURATION_112
POSITION_169037
NOTE_ON_59
DURATION_235
POSITION_169209
NOTE_ON_73
DURATION_93
POSITION_169316
NOTE_ON_62
DURATION_104
POSITION_169316
NOTE_ON_71
DURATION_105
POSITION_169441
NOTE_ON_72
DURATION_119
POSITION_169557
NOTE_ON_71
DURATION_97
POSITION_169447
NOTE_ON_54
DURATION_217
POSITION_169443
NOTE_ON_57
DURATION_222
POSITION_169685
NOTE_ON_62
DURATION_99
POSITION_169682
NOTE_ON_69
DURATION_110
POSITION_169808
NOTE_ON_71
DURATION_109
POSITION_169810
NOTE_ON_55
DURATION_110
POSITION_169923
NOTE_ON_69
DURATION_107
POSITION_169924
NOTE_ON_55
DURATION_191
POSITION_170031
NOTE_ON_62
DURATION_89
POSITION_170032
NOTE_ON_67
DURATION_93
POSITION_170162
NOTE_ON_69
DURATION_305
POSITION_170276
NOTE_ON_67
DURATION_191
POSITION_170162
NOTE_ON_54
DURATION_307
POSITION_170393
NOTE_ON_62
DURATION_78
POSITION_170161
NOTE_ON_47
DURATION_312
POSITION_170391
NOTE_ON_66
DURATION_86
POSITION_170519
NOTE_ON_67
DURATION_103
POSITION_170632
NOTE_ON_66
DURATION_91
POSITION_170520
NOTE_ON_52
DURATION_211
POSITION_170524
NOTE_ON_49
DURATION_214
POSITION_170754
NOTE_ON_64
DURATION_96
POSITION_171199
NOTE_ON_74
DURATION_77
POSITION_170753
NOTE_ON_57
DURATION_526
POSITION_170894
NOTE_ON_66
DURATION_400
POSITION_170901
NOTE_ON_50
DURATION_400
POSITION_171311
NOTE_ON_64
DURATION_68
POSITION_171627
NOTE_ON_67
DURATION_86
POSITION_171306
NOTE_ON_45
DURATION_441
POSITION_171755
NOTE_ON_74
DURATION_102
POSITION_171759
NOTE_ON_55
DURATION_483
POSITION_172085
NOTE_ON_73
DURATION_227
POSITION_172511
NOTE_ON_54
DURATION_45
POSITION_171759
NOTE_ON_45
DURATION_864
POSITION_172581
NOTE_ON_52
DURATION_46
POSITION_172309
NOTE_ON_74
DURATION_622
POSITION_172234
NOTE_ON_50
DURATION_711
POSITION_172880
NOTE_ON_69
DURATION_70
POSITION_172648
NOTE_ON_62
DURATION_374
POSITION_172972
NOTE_ON_67
DURATION_69
POSITION_173086
NOTE_ON_66
DURATION_32
POSITION_173087
NOTE_ON_62
DURATION_33
POSITION_172674
NOTE_ON_54
DURATION_456
POSITION_173087
NOTE_ON_69
DURATION_90
POSITION_173217
NOTE_ON_66
DURATION_71
POSITION_173329
NOTE_ON_64
DURATION_89
POSITION_173480
NOTE_ON_62
DURATION_35
POSITION_173487
NOTE_ON_57
DURATION_38
POSITION_173467
NOTE_ON_66
DURATION_90
POSITION_173582
NOTE_ON_62
DURATION_63
POSITION_173713
NOTE_ON_61
DURATION_137
POSITION_174002
NOTE_ON_50
DURATION_92
POSITION_174117
NOTE_ON_49
DURATION_125
POSITION_174387
NOTE_ON_45
DURATION_105
POSITION_174516
NOTE_ON_42
DURATION_114
POSITION_173877
NOTE_ON_62
DURATION_1583
POSITION_173886
NOTE_ON_57
DURATION_1575
POSITION_174259
NOTE_ON_50
DURATION_1202
POSITION_173878
NOTE_ON_54
DURATION_1583
POSITION_174709
NOTE_ON_38
DURATION_753
POSITION_175800
NOTE_ON_69
DURATION_131
POSITION_175916
NOTE_ON_62
DURATION_916
POSITION_175909
NOTE_ON_50
DURATION_1035
POSITION_176680
NOTE_ON_71
DURATION_264
POSITION_175976
NOTE_ON_66
DURATION_968
POSITION_176515
NOTE_ON_38
DURATION_429
POSITION_176021
NOTE_ON_69
DURATION_923
POSITION_176789
NOTE_ON_73
DURATION_162
POSITION_176928
NOTE_ON_74
DURATION_114
POSITION_177040
NOTE_ON_76
DURATION_126
POSITION_177159
NOTE_ON_78
DURATION_103
POSITION_176893
NOTE_ON_42
DURATION_392
POSITION_177282
NOTE_ON_45
DURATION_392
POSITION_177283
NOTE_ON_49
DURATION_395
POSITION_177406
NOTE_ON_78
DURATION_286
POSITION_177284
NOTE_ON_76
DURATION_411
POSITION_177519
NOTE_ON_79
DURATION_200
POSITION_177698
NOTE_ON_78
DURATION_141
POSITION_177820
NOTE_ON_76
DURATION_104
POSITION_177928
NOTE_ON_74
DURATION_137
POSITION_177651
NOTE_ON_50
DURATION_521
POSITION_178183
NOTE_ON_52
DURATION_120
POSITION_178312
NOTE_ON_72
DURATION_71
POSITION_178313
NOTE_ON_54
DURATION_120
POSITION_178064
NOTE_ON_81
DURATION_388
POSITION_178433
NOTE_ON_55
DURATION_90
POSITION_178430
NOTE_ON_71
DURATION_100
POSITION_178554
NOTE_ON_57
DURATION_124
POSITION_178704
NOTE_ON_79
DURATION_96
POSITION_178694
NOTE_ON_59
DURATION_107
POSITION_178816
NOTE_ON_72
DURATION_77
POSITION_178815
NOTE_ON_57
DURATION_114
POSITION_178934
NOTE_ON_59
DURATION_113
POSITION_179061
NOTE_ON_78
DURATION_79
POSITION_179071
NOTE_ON_60
DURATION_89
POSITION_179209
NOTE_ON_74
DURATION_152
POSITION_179344
NOTE_ON_79
DURATION_105
POSITION_179208
NOTE_ON_59
DURATION_331
POSITION_179459
NOTE_ON_78
DURATION_152
POSITION_179583
NOTE_ON_79
DURATION_259
POSITION_179699
NOTE_ON_81
DURATION_212
POSITION_179585
NOTE_ON_55
DURATION_327
POSITION_179814
NOTE_ON_83
DURATION_101
POSITION_179902
NOTE_ON_60
DURATION_447
POSITION_180192
NOTE_ON_83
DURATION_226
POSITION_180074
NOTE_ON_84
DURATION_467
POSITION_180442
NOTE_ON_79
DURATION_199
POSITION_180322
NOTE_ON_81
DURATION_338
POSITION_180322
NOTE_ON_54
DURATION_340
POSITION_180566
NOTE_ON_78
DURATION_97
POSITION_179953
NOTE_ON_76
DURATION_711
POSITION_180645
NOTE_ON_79
DURATION_42
POSITION_180722
NOTE_ON_76
DURATION_318
POSITION_181005
NOTE_ON_75
DURATION_51
POSITION_180721
NOTE_ON_59
DURATION_347
POSITION_180880
NOTE_ON_54
DURATION_188
POSITION_180999
NOTE_ON_55
DURATION_82
POSITION_181049
NOTE_ON_76
DURATION_63
POSITION_181121
NOTE_ON_75
DURATION_75
POSITION_181098
NOTE_ON_57
DURATION_393
POSITION_181343
NOTE_ON_54
DURATION_148
POSITION_181237
NOTE_ON_55
DURATION_255
POSITION_181240
NOTE_ON_76
DURATION_269
POSITION_181452
NOTE_ON_83
DURATION_80
POSITION_181490
NOTE_ON_81
DURATION_53
POSITION_181460
NOTE_ON_52
DURATION_108
POSITION_181582
NOTE_ON_51
DURATION_108
POSITION_181696
NOTE_ON_52
DURATION_108
POSITION_181536
NOTE_ON_83
DURATION_295
POSITION_181808
NOTE_ON_54
DURATION_116
POSITION_181921
NOTE_ON_52
DURATION_107
POSITION_182058
NOTE_ON_51
DURATION_230
POSITION_182250
NOTE_ON_57
DURATION_223
POSITION_182434
NOTE_ON_77
DURATION_62
POSITION_182520
NOTE_ON_76
DURATION_143
POSITION_182676
NOTE_ON_77
DURATION_111
POSITION_182785
NOTE_ON_76
DURATION_65
POSITION_182903
NOTE_ON_74
DURATION_101
POSITION_183023
NOTE_ON_76
DURATION_79
POSITION_182489
NOTE_ON_56
DURATION_648
POSITION_183132
NOTE_ON_52
DURATION_139
POSITION_183279
NOTE_ON_54
DURATION_93
POSITION_183386
NOTE_ON_56
DURATION_146
POSITION_183280
NOTE_ON_83
DURATION_279
POSITION_183518
NOTE_ON_54
DURATION_100
POSITION_183646
NOTE_ON_52
DURATION_127
POSITION_183417
NOTE_ON_74
DURATION_588
POSITION_183809
NOTE_ON_57
DURATION_226
POSITION_183935
NOTE_ON_64
DURATION_104
POSITION_184050
NOTE_ON_66
DURATION_135
POSITION_184185
NOTE_ON_52
DURATION_132
POSITION_184185
NOTE_ON_68
DURATION_150
POSITION_184308
NOTE_ON_69
DURATION_105
POSITION_184421
NOTE_ON_71
DURATION_117
POSITION_184554
NOTE_ON_72
DURATION_104
POSITION_184677
NOTE_ON_69
DURATION_154
POSITION_184795
NOTE_ON_71
DURATION_96
POSITION_184923
NOTE_ON_72
DURATION_122
POSITION_185047
NOTE_ON_74
DURATION_161
POSITION_184925
NOTE_ON_57
DURATION_291
POSITION_184554
NOTE_ON_45
DURATION_679
POSITION_185156
NOTE_ON_76
DURATION_152
POSITION_185274
NOTE_ON_52
DURATION_216
POSITION_185304
NOTE_ON_78
DURATION_214
POSITION_185473
NOTE_ON_72
DURATION_108
POSITION_185587
NOTE_ON_71
DURATION_102
POSITION_185704
NOTE_ON_72
DURATION_132
POSITION_185818
NOTE_ON_71
DURATION_86
POSITION_185932
NOTE_ON_69
DURATION_134
POSITION_186049
NOTE_ON_71
DURATION_88
POSITION_185471
NOTE_ON_51
DURATION_670
POSITION_186174
NOTE_ON_59
DURATION_66
POSITION_186173
NOTE_ON_47
DURATION_119
POSITION_186300
NOTE_ON_49
DURATION_120
POSITION_186305
NOTE_ON_78
DURATION_219
POSITION_186421
NOTE_ON_51
DURATION_122
POSITION_186542
NOTE_ON_49
DURATION_100
POSITION_186543
NOTE_ON_61
DURATION_101
POSITION_186665
NOTE_ON_47
DURATION_118
POSITION_186665
NOTE_ON_59
DURATION_143
POSITION_186944
NOTE_ON_59
DURATION_140
POSITION_186822
NOTE_ON_52
DURATION_274
POSITION_186427
NOTE_ON_69
DURATION_711
POSITION_187058
NOTE_ON_61
DURATION_128
POSITION_187179
NOTE_ON_63
DURATION_113
POSITION_187196
NOTE_ON_47
DURATION_184
POSITION_187192
NOTE_ON_59
DURATION_207
POSITION_187305
NOTE_ON_64
DURATION_114
POSITION_187410
NOTE_ON_66
DURATION_141
POSITION_187550
NOTE_ON_67
DURATION_123
POSITION_187551
NOTE_ON_40
DURATION_223
POSITION_187674
NOTE_ON_64
DURATION_127
POSITION_187793
NOTE_ON_66
DURATION_117
POSITION_187924
NOTE_ON_67
DURATION_126
POSITION_188049
NOTE_ON_69
DURATION_111
POSITION_187925
NOTE_ON_52
DURATION_310
POSITION_188175
NOTE_ON_71
DURATION_201
POSITION_188400
NOTE_ON_72
DURATION_361
POSITION_188627
NOTE_ON_69
DURATION_155
POSITION_188352
NOTE_ON_45
DURATION_476
POSITION_188742
NOTE_ON_68
DURATION_162
POSITION_189000
NOTE_ON_65
DURATION_235
POSITION_188872
NOTE_ON_33
DURATION_376
POSITION_188874
NOTE_ON_45
DURATION_378
POSITION_189117
NOTE_ON_64
DURATION_135
POSITION_189244
NOTE_ON_65
DURATION_111
POSITION_189365
NOTE_ON_57
DURATION_128
POSITION_188876
NOTE_ON_69
DURATION_666
POSITION_189504
NOTE_ON_55
DURATION_117
POSITION_189628
NOTE_ON_57
DURATION_109
POSITION_189423
NOTE_ON_77
DURATION_335
POSITION_189749
NOTE_ON_55
DURATION_104
POSITION_189865
NOTE_ON_54
DURATION_120
POSITION_189772
NOTE_ON_76
DURATION_230
POSITION_190004
NOTE_ON_75
DURATION_233
POSITION_190143
NOTE_ON_72
DURATION_100
POSITION_190005
NOTE_ON_59
DURATION_259
POSITION_190253
NOTE_ON_71
DURATION_69
POSITION_190501
NOTE_ON_69
DURATION_199
POSITION_190375
NOTE_ON_72
DURATION_327
POSITION_190613
NOTE_ON_68
DURATION_90
POSITION_190369
NOTE_ON_54
DURATION_335
POSITION_190749
NOTE_ON_69
DURATION_131
POSITION_190883
NOTE_ON_71
DURATION_229
POSITION_190747
NOTE_ON_51
DURATION_365
POSITION_190994
NOTE_ON_73
DURATION_121
POSITION_191128
NOTE_ON_75
DURATION_134
POSITION_191129
NOTE_ON_47
DURATION_346
POSITION_191244
NOTE_ON_76
DURATION_233
POSITION_191357
NOTE_ON_78
DURATION_122
POSITION_191532
NOTE_ON_76
DURATION_306
POSITION_191783
NOTE_ON_71
DURATION_83
POSITION_191671
NOTE_ON_72
DURATION_221
POSITION_191899
NOTE_ON_72
DURATION_79
POSITION_192011
NOTE_ON_69
DURATION_227
POSITION_191897
NOTE_ON_36
DURATION_391
POSITION_192120
NOTE_ON_68
DURATION_170
POSITION_191471
NOTE_ON_48
DURATION_824
POSITION_192248
NOTE_ON_69
DURATION_128
POSITION_192377
NOTE_ON_60
DURATION_116
POSITION_192500
NOTE_ON_59
DURATION_114
POSITION_192419
NOTE_ON_81
DURATION_198
POSITION_192613
NOTE_ON_60
DURATION_121
POSITION_192757
NOTE_ON_59
DURATION_106
POSITION_192864
NOTE_ON_57
DURATION_126
POSITION_192757
NOTE_ON_79
DURATION_244
POSITION_193180
NOTE_ON_72
DURATION_193
POSITION_193011
NOTE_ON_63
DURATION_368
POSITION_193300
NOTE_ON_71
DURATION_95
POSITION_193418
NOTE_ON_72
DURATION_118
POSITION_193649
NOTE_ON_68
DURATION_92
POSITION_193418
NOTE_ON_57
DURATION_324
POSITION_193544
NOTE_ON_69
DURATION_237
POSITION_193009
NOTE_ON_78
DURATION_1049
POSITION_193787
NOTE_ON_69
DURATION_331
POSITION_193784
NOTE_ON_54
DURATION_336
POSITION_193910
NOTE_ON_75
DURATION_213
POSITION_194033
NOTE_ON_76
DURATION_92
POSITION_194281
NOTE_ON_79
DURATION_207
POSITION_194154
NOTE_ON_51
DURATION_345
POSITION_194154
NOTE_ON_78
DURATION_349
POSITION_194400
NOTE_ON_81
DURATION_109
POSITION_194493
NOTE_ON_79
DURATION_72
POSITION_194687
NOTE_ON_76
DURATION_223
POSITION_194496
NOTE_ON_52
DURATION_426
POSITION_194800
NOTE_ON_75
DURATION_127
POSITION_194574
NOTE_ON_79
DURATION_720
POSITION_194920
NOTE_ON_76
DURATION_382
POSITION_195180
NOTE_ON_71
DURATION_127
POSITION_195047
NOTE_ON_72
DURATION_263
POSITION_194920
NOTE_ON_40
DURATION_391
POSITION_195492
NOTE_ON_64
DURATION_91
POSITION_195604
NOTE_ON_62
DURATION_110
POSITION_195321
NOTE_ON_72
DURATION_526
POSITION_195716
NOTE_ON_64
DURATION_136
POSITION_195498
NOTE_ON_84
DURATION_366
POSITION_195857
NOTE_ON_62
DURATION_359
POSITION_195964
NOTE_ON_61
DURATION_257
POSITION_195858
NOTE_ON_83
DURATION_365
POSITION_196407
NOTE_ON_76
DURATION_245
POSITION_196181
NOTE_ON_67
DURATION_473
POSITION_196541
NOTE_ON_78
DURATION_116
POSITION_196182
NOTE_ON_82
DURATION_579
POSITION_196673
NOTE_ON_79
DURATION_330
POSITION_196796
NOTE_ON_78
DURATION_207
POSITION_196672
NOTE_ON_61
DURATION_331
POSITION_196913
NOTE_ON_76
DURATION_92
POSITION_197055
NOTE_ON_75
DURATION_350
POSITION_197175
NOTE_ON_81
DURATION_232
POSITION_197293
NOTE_ON_83
DURATION_119
POSITION_197547
NOTE_ON_83
DURATION_297
POSITION_197418
NOTE_ON_84
DURATION_458
POSITION_197410
NOTE_ON_54
DURATION_467
POSITION_197663
NOTE_ON_81
DURATION_216
POSITION_197019
NOTE_ON_66
DURATION_863
POSITION_198023
NOTE_ON_81
DURATION_239
POSITION_197849
NOTE_ON_55
DURATION_413
POSITION_198130
NOTE_ON_79
DURATION_141
POSITION_197849
NOTE_ON_83
DURATION_425
POSITION_198369
NOTE_ON_79
DURATION_266
POSITION_198486
NOTE_ON_76
DURATION_157
POSITION_198253
NOTE_ON_78
DURATION_417
POSITION_198256
NOTE_ON_57
DURATION_415
POSITION_198650
NOTE_ON_76
DURATION_231
POSITION_198939
NOTE_ON_71
DURATION_175
POSITION_198647
NOTE_ON_79
DURATION_487
POSITION_198630
NOTE_ON_59
DURATION_911
POSITION_199096
NOTE_ON_78
DURATION_468
POSITION_199046
NOTE_ON_47
DURATION_518
POSITION_199106
NOTE_ON_75
DURATION_462
POSITION_199329
NOTE_ON_69
DURATION_244
POSITION_199438
NOTE_ON_52
DURATION_301
POSITION_199692
NOTE_ON_47
DURATION_137
POSITION_199814
NOTE_ON_45
DURATION_131
POSITION_199937
NOTE_ON_43
DURATION_178
POSITION_200066
NOTE_ON_45
DURATION_119
POSITION_200173
NOTE_ON_47
DURATION_212
POSITION_199528
NOTE_ON_71
DURATION_873
POSITION_199469
NOTE_ON_67
DURATION_1086
POSITION_200367
NOTE_ON_40
DURATION_206
POSITION_199575
NOTE_ON_76
DURATION_1034
POSITION_200578
NOTE_ON_43
DURATION_181
POSITION_200508
NOTE_ON_71
DURATION_258
POSITION_200643
NOTE_ON_69
DURATION_127
POSITION_200785
NOTE_ON_67
DURATION_105
POSITION_200776
NOTE_ON_47
DURATION_198
POSITION_200775
NOTE_ON_69
DURATION_202
POSITION_200900
NOTE_ON_66
DURATION_112
POSITION_201015
NOTE_ON_52
DURATION_190
POSITION_201034
NOTE_ON_67
DURATION_178
POSITION_201248
NOTE_ON_45
DURATION_125
POSITION_201260
NOTE_ON_73
DURATION_135
POSITION_201387
NOTE_ON_47
DURATION_100
POSITION_201548
NOTE_ON_67
DURATION_92
POSITION_201526
NOTE_ON_49
DURATION_140
POSITION_201659
NOTE_ON_74
DURATION_112
POSITION_201659
NOTE_ON_47
DURATION_154
POSITION_201780
NOTE_ON_49
DURATION_125
POSITION_201920
NOTE_ON_67
DURATION_101
POSITION_201910
NOTE_ON_50
DURATION_113
POSITION_202041
NOTE_ON_49
DURATION_156
POSITION_202039
NOTE_ON_76
DURATION_215
POSITION_202164
NOTE_ON_50
DURATION_102
POSITION_202292
NOTE_ON_67
DURATION_92
POSITION_202286
NOTE_ON_52
DURATION_99
POSITION_202402
NOTE_ON_45
DURATION_118
POSITION_202402
NOTE_ON_66
DURATION_264
POSITION_202522
NOTE_ON_47
DURATION_146
POSITION_202660
NOTE_ON_49
DURATION_133
POSITION_202663
NOTE_ON_64
DURATION_145
POSITION_202787
NOTE_ON_66
DURATION_60
POSITION_202790
NOTE_ON_50
DURATION_97
POSITION_202917
NOTE_ON_52
DURATION_124
POSITION_203047
NOTE_ON_62
DURATION_113
POSITION_203049
NOTE_ON_54
DURATION_120
POSITION_203163
NOTE_ON_67
DURATION_57
POSITION_203169
NOTE_ON_52
DURATION_125
POSITION_203288
NOTE_ON_54
DURATION_104
POSITION_203423
NOTE_ON_62
DURATION_86
POSITION_203424
NOTE_ON_55
DURATION_98
POSITION_203785
NOTE_ON_57
DURATION_128
POSITION_203662
NOTE_ON_55
DURATION_253
POSITION_203547
NOTE_ON_69
DURATION_368
POSITION_203549
NOTE_ON_54
DURATION_366
POSITION_203807
NOTE_ON_62
DURATION_108
POSITION_203928
NOTE_ON_50
DURATION_123
POSITION_203935
NOTE_ON_72
DURATION_144
POSITION_204061
NOTE_ON_71
DURATION_98
POSITION_204053
NOTE_ON_52
DURATION_114
POSITION_204172
NOTE_ON_69
DURATION_110
POSITION_204164
NOTE_ON_54
DURATION_119
POSITION_204297
NOTE_ON_71
DURATION_45
POSITION_204295
NOTE_ON_55
DURATION_104
POSITION_204410
NOTE_ON_57
DURATION_121
POSITION_204545
NOTE_ON_59
DURATION_107
POSITION_204544
NOTE_ON_65
DURATION_108
POSITION_204646
NOTE_ON_72
DURATION_37
POSITION_204656
NOTE_ON_57
DURATION_131
POSITION_204783
NOTE_ON_59
DURATION_77
POSITION_204900
NOTE_ON_60
DURATION_96
POSITION_204901
NOTE_ON_65
DURATION_128
POSITION_205020
NOTE_ON_74
DURATION_89
POSITION_205260
NOTE_ON_62
DURATION_128
POSITION_205161
NOTE_ON_60
DURATION_227
POSITION_205295
NOTE_ON_65
DURATION_94
POSITION_205035
NOTE_ON_59
DURATION_366
POSITION_205417
NOTE_ON_43
DURATION_7
POSITION_205407
NOTE_ON_55
DURATION_112
POSITION_205413
NOTE_ON_64
DURATION_372
POSITION_205656
NOTE_ON_62
DURATION_160
POSITION_205658
NOTE_ON_59
DURATION_169
POSITION_205524
NOTE_ON_57
DURATION_305
POSITION_205804
NOTE_ON_60
DURATION_73
POSITION_205790
NOTE_ON_64
DURATION_87
POSITION_205826
NOTE_ON_62
DURATION_54
POSITION_205973
NOTE_ON_59
DURATION_112
POSITION_206095
NOTE_ON_57
DURATION_111
POSITION_205884
NOTE_ON_64
DURATION_442
POSITION_206209
NOTE_ON_56
DURATION_132
POSITION_206343
NOTE_ON_57
DURATION_103
POSITION_206437
NOTE_ON_64
DURATION_128
POSITION_206474
NOTE_ON_59
DURATION_105
POSITION_206588
NOTE_ON_57
DURATION_162
POSITION_206739
NOTE_ON_55
DURATION_131
POSITION_206859
NOTE_ON_54
DURATION_135
POSITION_206987
NOTE_ON_52
DURATION_146
POSITION_207103
NOTE_ON_54
DURATION_121
POSITION_207234
NOTE_ON_55
DURATION_223
POSITION_207756
NOTE_ON_64
DURATION_83
POSITION_207867
NOTE_ON_62
DURATION_115
POSITION_207459
NOTE_ON_54
DURATION_695
POSITION_207998
NOTE_ON_64
DURATION_157
POSITION_208108
NOTE_ON_62
DURATION_92
POSITION_208231
NOTE_ON_60
DURATION_100
POSITION_206619
NOTE_ON_72
DURATION_1800
POSITION_208356
NOTE_ON_62
DURATION_160
POSITION_208497
NOTE_ON_54
DURATION_86
POSITION_208601
NOTE_ON_52
DURATION_125
POSITION_208747
NOTE_ON_54
DURATION_137
POSITION_208888
NOTE_ON_52
DURATION_63
POSITION_209005
NOTE_ON_50
DURATION_138
POSITION_208772
NOTE_ON_72
DURATION_550
POSITION_209177
NOTE_ON_55
DURATION_213
POSITION_209332
NOTE_ON_71
DURATION_104
POSITION_209446
NOTE_ON_72
DURATION_122
POSITION_209709
NOTE_ON_72
DURATION_203
POSITION_209581
NOTE_ON_43
DURATION_331
POSITION_209580
NOTE_ON_74
DURATION_333
POSITION_209817
NOTE_ON_71
DURATION_120
POSITION_209945
NOTE_ON_69
DURATION_90
POSITION_210066
NOTE_ON_67
DURATION_207
POSITION_209942
NOTE_ON_47
DURATION_333
POSITION_210187
NOTE_ON_69
DURATION_137
POSITION_210331
NOTE_ON_71
DURATION_312
POSITION_210450
NOTE_ON_69
DURATION_194
POSITION_210327
NOTE_ON_43
DURATION_317
POSITION_210566
NOTE_ON_67
DURATION_130
POSITION_210719
NOTE_ON_65
DURATION_74
POSITION_210837
NOTE_ON_64
DURATION_205
POSITION_210680
NOTE_ON_48
DURATION_371
POSITION_210954
NOTE_ON_65
DURATION_134
POSITION_211109
NOTE_ON_55
DURATION_6
POSITION_211103
NOTE_ON_67
DURATION_132
POSITION_211103
NOTE_ON_36
DURATION_505
POSITION_211232
NOTE_ON_65
DURATION_378
POSITION_211358
NOTE_ON_64
DURATION_253
POSITION_211480
NOTE_ON_62
DURATION_147
POSITION_211654
NOTE_ON_60
DURATION_79
POSITION_211626
NOTE_ON_48
DURATION_109
POSITION_211749
NOTE_ON_50
DURATION_187
POSITION_211894
NOTE_ON_52
DURATION_46
POSITION_212005
NOTE_ON_52
DURATION_112
POSITION_212132
NOTE_ON_54
DURATION_152
POSITION_212312
NOTE_ON_55
DURATION_402
POSITION_211894
NOTE_ON_70
DURATION_823
POSITION_212504
NOTE_ON_69
DURATION_255
POSITION_212624
NOTE_ON_67
DURATION_142
POSITION_212878
NOTE_ON_67
DURATION_234
POSITION_212763
NOTE_ON_69
DURATION_361
POSITION_212742
NOTE_ON_49
DURATION_386
POSITION_212997
NOTE_ON_66
DURATION_131
POSITION_213122
NOTE_ON_67
DURATION_143
POSITION_213238
NOTE_ON_66
DURATION_285
POSITION_213352
NOTE_ON_64
DURATION_172
POSITION_213123
NOTE_ON_52
DURATION_404
POSITION_213537
NOTE_ON_52
DURATION_43
POSITION_213592
NOTE_ON_73
DURATION_408
POSITION_213538
NOTE_ON_45
DURATION_480
POSITION_214080
NOTE_ON_67
DURATION_73
POSITION_213960
NOTE_ON_74
DURATION_258
POSITION_214162
NOTE_ON_66
DURATION_77
POSITION_214253
NOTE_ON_64
DURATION_91
POSITION_214333
NOTE_ON_66
DURATION_129
POSITION_214446
NOTE_ON_67
DURATION_108
POSITION_214533
NOTE_ON_66
DURATION_96
POSITION_214622
NOTE_ON_64
DURATION_260
POSITION_214020
NOTE_ON_38
DURATION_950
POSITION_214450
NOTE_ON_50
DURATION_615
POSITION_215065
NOTE_ON_48
DURATION_148
POSITION_215198
NOTE_ON_47
DURATION_108
POSITION_215306
NOTE_ON_57
DURATION_10
POSITION_215304
NOTE_ON_45
DURATION_125
POSITION_215411
NOTE_ON_47
DURATION_77
POSITION_215199
NOTE_ON_59
DURATION_332
POSITION_215519
NOTE_ON_48
DURATION_124
POSITION_214890
NOTE_ON_62
DURATION_755
POSITION_215897
NOTE_ON_62
DURATION_85
POSITION_215694
NOTE_ON_35
DURATION_321
POSITION_216006
NOTE_ON_64
DURATION_97
POSITION_216124
NOTE_ON_66
DURATION_137
POSITION_216266
NOTE_ON_66
DURATION_119
POSITION_216122
NOTE_ON_59
DURATION_311
POSITION_216381
NOTE_ON_67
DURATION_81
POSITION_216489
NOTE_ON_69
DURATION_133
POSITION_216626
NOTE_ON_69
DURATION_127
POSITION_216495
NOTE_ON_57
DURATION_284
POSITION_216733
NOTE_ON_71
DURATION_108
POSITION_216848
NOTE_ON_72
DURATION_43
POSITION_216972
NOTE_ON_72
DURATION_160
POSITION_216859
NOTE_ON_55
DURATION_278
POSITION_217075
NOTE_ON_74
DURATION_139
POSITION_217195
NOTE_ON_54
DURATION_213
POSITION_217225
NOTE_ON_75
DURATION_199
POSITION_217394
NOTE_ON_38
DURATION_158
POSITION_217549
NOTE_ON_40
DURATION_132
POSITION_217553
NOTE_ON_73
DURATION_132
POSITION_217674
NOTE_ON_42
DURATION_119
POSITION_217799
NOTE_ON_43
DURATION_95
POSITION_217909
NOTE_ON_45
DURATION_116
POSITION_218031
NOTE_ON_47
DURATION_129
POSITION_218153
NOTE_ON_48
DURATION_85
POSITION_217680
NOTE_ON_74
DURATION_585
POSITION_218273
NOTE_ON_50
DURATION_126
POSITION_218273
NOTE_ON_78
DURATION_150
POSITION_218407
NOTE_ON_52
DURATION_109
POSITION_218645
NOTE_ON_71
DURATION_96
POSITION_218524
NOTE_ON_54
DURATION_254
POSITION_218418
NOTE_ON_79
DURATION_364
POSITION_218648
NOTE_ON_55
DURATION_135
POSITION_218745
NOTE_ON_71
DURATION_40
POSITION_218701
NOTE_ON_73
DURATION_86
POSITION_218794
NOTE_ON_57
DURATION_106
POSITION_218904
NOTE_ON_55
DURATION_101
POSITION_218793
NOTE_ON_73
DURATION_220
POSITION_219023
NOTE_ON_74
DURATION_128
POSITION_219023
NOTE_ON_54
DURATION_130
POSITION_219144
NOTE_ON_59
DURATION_138
POSITION_219142
NOTE_ON_71
DURATION_152
POSITION_219268
NOTE_ON_57
DURATION_118
POSITION_219145
NOTE_ON_66
DURATION_252
POSITION_219396
NOTE_ON_55
DURATION_208
POSITION_219405
NOTE_ON_67
DURATION_199
POSITION_219596
NOTE_ON_71
DURATION_382
POSITION_219935
NOTE_ON_69
DURATION_97
POSITION_219983
NOTE_ON_71
DURATION_66
POSITION_219594
NOTE_ON_62
DURATION_456
POSITION_220436
NOTE_ON_67
DURATION_156
POSITION_220051
NOTE_ON_50
DURATION_568
POSITION_220042
NOTE_ON_69
DURATION_596
POSITION_220564
NOTE_ON_52
DURATION_282
POSITION_220828
NOTE_ON_47
DURATION_161
POSITION_220829
NOTE_ON_59
DURATION_186
POSITION_220603
NOTE_ON_67
DURATION_481
POSITION_220995
NOTE_ON_43
DURATION_90
POSITION_220951
NOTE_ON_64
DURATION_139
POSITION_221112
NOTE_ON_40
DURATION_142
POSITION_221225
NOTE_ON_43
DURATION_147
POSITION_221094
NOTE_ON_62
DURATION_280
POSITION_221363
NOTE_ON_47
DURATION_76
POSITION_221364
NOTE_ON_67
DURATION_84
POSITION_221480
NOTE_ON_52
DURATION_114
POSITION_221601
NOTE_ON_50
DURATION_125
POSITION_221476
NOTE_ON_60
DURATION_268
POSITION_221749
NOTE_ON_67
DURATION_78
POSITION_221748
NOTE_ON_48
DURATION_107
POSITION_221750
NOTE_ON_60
DURATION_106
POSITION_221878
NOTE_ON_50
DURATION_110
POSITION_221851
NOTE_ON_59
DURATION_209
POSITION_222004
NOTE_ON_48
DURATION_98
POSITION_222003
NOTE_ON_60
DURATION_133
POSITION_222136
NOTE_ON_67
DURATION_77
POSITION_222127
NOTE_ON_47
DURATION_124
POSITION_222254
NOTE_ON_48
DURATION_123
POSITION_222254
NOTE_ON_57
DURATION_290
POSITION_222541
NOTE_ON_66
DURATION_117
POSITION_222384
NOTE_ON_47
DURATION_282
POSITION_222514
NOTE_ON_45
DURATION_175
POSITION_222668
NOTE_ON_66
DURATION_36
POSITION_222688
NOTE_ON_67
DURATION_109
POSITION_222671
NOTE_ON_47
DURATION_143
POSITION_222812
NOTE_ON_45
DURATION_66
POSITION_222809
NOTE_ON_66
DURATION_116
POSITION_222938
NOTE_ON_64
DURATION_170
POSITION_223185
NOTE_ON_59
DURATION_11
POSITION_223152
NOTE_ON_67
DURATION_63
POSITION_223251
NOTE_ON_66
DURATION_39
POSITION_223309
NOTE_ON_67
DURATION_94
POSITION_223376
NOTE_ON_66
DURATION_81
POSITION_223408
NOTE_ON_67
DURATION_80
POSITION_223462
NOTE_ON_66
DURATION_56
POSITION_223499
NOTE_ON_67
DURATION_32
POSITION_222936
NOTE_ON_43
DURATION_636
POSITION_223575
NOTE_ON_66
DURATION_373
POSITION_223897
NOTE_ON_67
DURATION_56
POSITION_223573
NOTE_ON_38
DURATION_385
POSITION_223088
NOTE_ON_50
DURATION_883
POSITION_224021
NOTE_ON_43
DURATION_492
POSITION_224514
NOTE_ON_59
DURATION_52
POSITION_224514
NOTE_ON_62
DURATION_58
POSITION_224068
NOTE_ON_67
DURATION_610
POSITION_224689
NOTE_ON_67
DURATION_43
POSITION_224688
NOTE_ON_71
DURATION_99
POSITION_224810
NOTE_ON_69
DURATION_116
POSITION_224938
NOTE_ON_67
DURATION_42
POSITION_224944
NOTE_ON_62
DURATION_37
POSITION_224942
NOTE_ON_71
DURATION_124
POSITION_225068
NOTE_ON_74
DURATION_84
POSITION_225194
NOTE_ON_72
DURATION_118
POSITION_225331
NOTE_ON_71
DURATION_36
POSITION_225328
NOTE_ON_74
DURATION_129
POSITION_225455
NOTE_ON_79
DURATION_88
POSITION_225575
NOTE_ON_72
DURATION_109
POSITION_225573
NOTE_ON_78
DURATION_146
POSITION_225862
NOTE_ON_43
DURATION_115
POSITION_225992
NOTE_ON_42
DURATION_103
POSITION_226124
NOTE_ON_43
DURATION_125
POSITION_226270
NOTE_ON_38
DURATION_108
POSITION_226407
NOTE_ON_35
DURATION_165
POSITION_225746
NOTE_ON_71
DURATION_875
POSITION_225718
NOTE_ON_79
DURATION_1272
POSITION_225747
NOTE_ON_74
DURATION_1673
POSITION_226612
NOTE_ON_31
DURATION_821
POSITION_227562
NOTE_ON_69
DURATION_134
POSITION_227676
NOTE_ON_62
DURATION_1019
POSITION_227730
NOTE_ON_66
DURATION_971
POSITION_228282
NOTE_ON_38
DURATION_421
POSITION_227795
NOTE_ON_69
DURATION_908
POSITION_228479
NOTE_ON_71
DURATION_225
POSITION_227669
NOTE_ON_50
DURATION_1036
POSITION_228578
NOTE_ON_73
DURATION_130
POSITION_228721
NOTE_ON_74
DURATION_111
POSITION_228668
NOTE_ON_42
DURATION_384
POSITION_228955
NOTE_ON_78
DURATION_105
POSITION_228832
NOTE_ON_76
DURATION_239
POSITION_229073
NOTE_ON_45
DURATION_420
POSITION_229212
NOTE_ON_78
DURATION_281
POSITION_229073
NOTE_ON_49
DURATION_421
POSITION_229334
NOTE_ON_79
DURATION_165
POSITION_229081
NOTE_ON_76
DURATION_418
POSITION_229500
NOTE_ON_78
DURATION_127
POSITION_229623
NOTE_ON_76
DURATION_114
POSITION_229749
NOTE_ON_74
DURATION_131
POSITION_229439
NOTE_ON_50
DURATION_533
POSITION_229986
NOTE_ON_52
DURATION_127
POSITION_229867
NOTE_ON_81
DURATION_302
POSITION_230119
NOTE_ON_72
DURATION_87
POSITION_230119
NOTE_ON_54
DURATION_110
POSITION_230233
NOTE_ON_55
DURATION_92
POSITION_230234
NOTE_ON_71
DURATION_120
POSITION_230345
NOTE_ON_57
DURATION_127
POSITION_230480
NOTE_ON_59
DURATION_122
POSITION_230495
NOTE_ON_79
DURATION_212
POSITION_230602
NOTE_ON_57
DURATION_113
POSITION_230722
NOTE_ON_59
DURATION_88
POSITION_230851
NOTE_ON_60
DURATION_92
POSITION_230625
NOTE_ON_72
DURATION_343
POSITION_230879
NOTE_ON_78
DURATION_95
POSITION_231031
NOTE_ON_74
DURATION_324
POSITION_231000
NOTE_ON_59
DURATION_356
POSITION_231264
NOTE_ON_78
DURATION_97
POSITION_231150
NOTE_ON_79
DURATION_225
POSITION_231379
NOTE_ON_79
DURATION_125
POSITION_231496
NOTE_ON_81
DURATION_191
POSITION_231380
NOTE_ON_55
DURATION_313
POSITION_231611
NOTE_ON_83
DURATION_84
POSITION_231754
NOTE_ON_76
DURATION_287
POSITION_231862
NOTE_ON_84
DURATION_183
POSITION_231979
NOTE_ON_83
DURATION_83
POSITION_232085
NOTE_ON_81
DURATION_84
POSITION_231705
NOTE_ON_60
DURATION_753
POSITION_232092
NOTE_ON_54
DURATION_396
POSITION_232195
NOTE_ON_79
DURATION_294
POSITION_232317
NOTE_ON_78
DURATION_175
POSITION_232498
NOTE_ON_76
DURATION_305
POSITION_232636
NOTE_ON_54
DURATION_217
POSITION_232754
NOTE_ON_55
DURATION_100
POSITION_232809
NOTE_ON_76
DURATION_45
POSITION_232464
NOTE_ON_59
DURATION_390
POSITION_232759
NOTE_ON_75
DURATION_98
POSITION_232870
NOTE_ON_57
DURATION_325
POSITION_232867
NOTE_ON_75
DURATION_389
POSITION_233112
NOTE_ON_54
DURATION_157
POSITION_233005
NOTE_ON_55
DURATION_267
POSITION_233216
NOTE_ON_83
DURATION_67
POSITION_233262
NOTE_ON_81
DURATION_67
POSITION_233241
NOTE_ON_52
DURATION_113
POSITION_233367
NOTE_ON_51
DURATION_125
POSITION_233498
NOTE_ON_52
DURATION_103
POSITION_233623
NOTE_ON_54
DURATION_108
POSITION_233723
NOTE_ON_52
DURATION_114
POSITION_233867
NOTE_ON_51
DURATION_300
POSITION_234297
NOTE_ON_77
DURATION_116
POSITION_234425
NOTE_ON_76
DURATION_134
POSITION_234095
NOTE_ON_57
DURATION_470
POSITION_234574
NOTE_ON_77
DURATION_131
POSITION_234697
NOTE_ON_76
DURATION_90
POSITION_234802
NOTE_ON_74
DURATION_111
POSITION_234590
NOTE_ON_56
DURATION_488
POSITION_235091
NOTE_ON_52
DURATION_137
POSITION_235237
NOTE_ON_54
DURATION_112
POSITION_235361
NOTE_ON_56
DURATION_129
POSITION_235492
NOTE_ON_54
DURATION_88
POSITION_234920
NOTE_ON_76
DURATION_756
POSITION_235233
NOTE_ON_83
DURATION_519
POSITION_235605
NOTE_ON_52
DURATION_166
POSITION_235365
NOTE_ON_74
DURATION_756
POSITION_235783
NOTE_ON_57
DURATION_373
POSITION_235943
NOTE_ON_64
DURATION_217
POSITION_236066
NOTE_ON_66
DURATION_108
POSITION_236193
NOTE_ON_68
DURATION_103
POSITION_236313
NOTE_ON_69
DURATION_118
POSITION_236194
NOTE_ON_52
DURATION_316
POSITION_236428
NOTE_ON_71
DURATION_126
POSITION_236567
NOTE_ON_72
DURATION_110
POSITION_236694
NOTE_ON_69
DURATION_197
POSITION_236811
NOTE_ON_71
DURATION_97
POSITION_236940
NOTE_ON_72
DURATION_125
POSITION_236564
NOTE_ON_45
DURATION_686
POSITION_236940
NOTE_ON_57
DURATION_328
POSITION_237065
NOTE_ON_74
DURATION_205
POSITION_237185
NOTE_ON_76
DURATION_164
POSITION_237290
NOTE_ON_52
DURATION_235
POSITION_237348
NOTE_ON_78
DURATION_198
POSITION_237522
NOTE_ON_72
DURATION_111
POSITION_237644
NOTE_ON_71
DURATION_115
POSITION_237767
NOTE_ON_72
DURATION_137
POSITION_237881
NOTE_ON_71
DURATION_89
POSITION_237999
NOTE_ON_69
DURATION_105
POSITION_237521
NOTE_ON_51
DURATION_625
POSITION_238108
NOTE_ON_71
DURATION_83
POSITION_238211
NOTE_ON_59
DURATION_7
POSITION_238207
NOTE_ON_47
DURATION_122
POSITION_238346
NOTE_ON_78
DURATION_110
POSITION_238340
NOTE_ON_49
DURATION_121
POSITION_238468
NOTE_ON_51
DURATION_119
POSITION_238590
NOTE_ON_61
DURATION_4
POSITION_238588
NOTE_ON_49
DURATION_107
POSITION_238716
NOTE_ON_47
DURATION_159
POSITION_238474
NOTE_ON_69
DURATION_545
POSITION_239044
NOTE_ON_59
DURATION_79
POSITION_238900
NOTE_ON_52
DURATION_283
POSITION_239190
NOTE_ON_64
DURATION_11
POSITION_239160
NOTE_ON_61
DURATION_116
POSITION_239288
NOTE_ON_63
DURATION_102
POSITION_239283
NOTE_ON_47
DURATION_201
POSITION_239283
NOTE_ON_59
DURATION_225
POSITION_239428
NOTE_ON_64
DURATION_108
POSITION_239526
NOTE_ON_66
DURATION_144
POSITION_239666
NOTE_ON_67
DURATION_110
POSITION_239794
NOTE_ON_64
DURATION_217
POSITION_239921
NOTE_ON_66
DURATION_99
POSITION_240045
NOTE_ON_67
DURATION_125
POSITION_239664
NOTE_ON_40
DURATION_689
POSITION_240043
NOTE_ON_52
DURATION_379
POSITION_240298
NOTE_ON_71
DURATION_136
POSITION_240171
NOTE_ON_69
DURATION_266
POSITION_240501
NOTE_ON_72
DURATION_94
POSITION_240618
NOTE_ON_69
DURATION_89
POSITION_240731
NOTE_ON_68
DURATION_111
POSITION_240856
NOTE_ON_69
DURATION_66
POSITION_240856
NOTE_ON_33
DURATION_186
POSITION_240442
NOTE_ON_45
DURATION_625
POSITION_240979
NOTE_ON_65
DURATION_94
POSITION_241101
NOTE_ON_64
DURATION_87
POSITION_241227
NOTE_ON_65
DURATION_150
POSITION_241365
NOTE_ON_57
DURATION_118
POSITION_241502
NOTE_ON_55
DURATION_96
POSITION_241608
NOTE_ON_57
DURATION_112
POSITION_241407
NOTE_ON_77
DURATION_335
POSITION_241744
NOTE_ON_55
DURATION_95
POSITION_241856
NOTE_ON_54
DURATION_96
POSITION_241776
NOTE_ON_76
DURATION_187
POSITION_242131
NOTE_ON_72
DURATION_60
POSITION_241979
NOTE_ON_59
DURATION_232
POSITION_241983
NOTE_ON_75
DURATION_239
POSITION_242255
NOTE_ON_71
DURATION_85
POSITION_242369
NOTE_ON_72
DURATION_265
POSITION_242493
NOTE_ON_69
DURATION_157
POSITION_242611
NOTE_ON_68
DURATION_42
POSITION_242361
NOTE_ON_54
DURATION_311
POSITION_242739
NOTE_ON_51
DURATION_327
POSITION_242740
NOTE_ON_69
DURATION_332
POSITION_242886
NOTE_ON_71
DURATION_201
POSITION_242996
NOTE_ON_73
DURATION_133
POSITION_243111
NOTE_ON_47
DURATION_303
POSITION_243119
NOTE_ON_75
DURATION_298
POSITION_243250
NOTE_ON_76
DURATION_190
POSITION_243357
NOTE_ON_78
DURATION_123
POSITION_243639
NOTE_ON_72
DURATION_167
POSITION_243454
NOTE_ON_48
DURATION_365
POSITION_243759
NOTE_ON_71
DURATION_69
POSITION_243519
NOTE_ON_76
DURATION_321
POSITION_243876
NOTE_ON_72
DURATION_104
POSITION_243990
NOTE_ON_69
DURATION_129
POSITION_243862
NOTE_ON_36
DURATION_380
POSITION_244109
NOTE_ON_68
DURATION_136
POSITION_244239
NOTE_ON_69
DURATION_152
POSITION_244360
NOTE_ON_60
DURATION_107
POSITION_244492
NOTE_ON_59
DURATION_99
POSITION_244608
NOTE_ON_60
DURATION_110
POSITION_244411
NOTE_ON_81
DURATION_331
POSITION_244728
NOTE_ON_59
DURATION_107
POSITION_244849
NOTE_ON_57
DURATION_98
POSITION_244756
NOTE_ON_79
DURATION_228
POSITION_244980
NOTE_ON_63
DURATION_168
POSITION_245128
NOTE_ON_72
DURATION_93
POSITION_245240
NOTE_ON_71
DURATION_100
POSITION_245476
NOTE_ON_69
DURATION_167
POSITION_245349
NOTE_ON_57
DURATION_296
POSITION_245350
NOTE_ON_72
DURATION_296
POSITION_245587
NOTE_ON_68
DURATION_62
POSITION_244979
NOTE_ON_78
DURATION_934
POSITION_245710
NOTE_ON_69
DURATION_349
POSITION_245704
NOTE_ON_54
DURATION_356
POSITION_245832
NOTE_ON_75
DURATION_228
POSITION_245960
NOTE_ON_76
DURATION_105
POSITION_246087
NOTE_ON_51
DURATION_330
POSITION_246080
NOTE_ON_78
DURATION_339
POSITION_246196
NOTE_ON_79
DURATION_232
POSITION_246317
NOTE_ON_81
DURATION_111
POSITION_246436
NOTE_ON_81
DURATION_61
POSITION_246433
NOTE_ON_79
DURATION_79
POSITION_246635
NOTE_ON_76
DURATION_223
POSITION_246444
NOTE_ON_52
DURATION_431
POSITION_246523
NOTE_ON_79
DURATION_354
POSITION_246749
NOTE_ON_75
DURATION_128
POSITION_246443
NOTE_ON_64
DURATION_438
POSITION_246997
NOTE_ON_72
DURATION_268
POSITION_247129
NOTE_ON_71
DURATION_144
POSITION_246869
NOTE_ON_40
DURATION_405
POSITION_246869
NOTE_ON_76
DURATION_419
POSITION_247443
NOTE_ON_64
DURATION_94
POSITION_247553
NOTE_ON_62
DURATION_109
POSITION_247270
NOTE_ON_72
DURATION_525
POSITION_247666
NOTE_ON_64
DURATION_139
POSITION_247448
NOTE_ON_84
DURATION_369
POSITION_247805
NOTE_ON_62
DURATION_367
POSITION_247914
NOTE_ON_61
DURATION_259
POSITION_247806
NOTE_ON_83
DURATION_368
POSITION_248356
NOTE_ON_76
DURATION_245
POSITION_248490
NOTE_ON_78
DURATION_115
POSITION_248131
NOTE_ON_82
DURATION_555
POSITION_248743
NOTE_ON_78
DURATION_206
POSITION_248621
NOTE_ON_79
DURATION_328
POSITION_248620
NOTE_ON_61
DURATION_329
POSITION_248863
NOTE_ON_76
DURATION_89
POSITION_248130
NOTE_ON_67
DURATION_840
POSITION_249124
NOTE_ON_81
DURATION_235
POSITION_249003
NOTE_ON_75
DURATION_356
POSITION_249242
NOTE_ON_83
DURATION_123
POSITION_249496
NOTE_ON_83
DURATION_296
POSITION_249359
NOTE_ON_54
DURATION_465
POSITION_249365
NOTE_ON_84
DURATION_460
POSITION_249612
NOTE_ON_81
DURATION_215
POSITION_248969
NOTE_ON_66
DURATION_869
POSITION_249972
NOTE_ON_81
DURATION_248
POSITION_249797
NOTE_ON_55
DURATION_424
POSITION_250079
NOTE_ON_79
DURATION_145
POSITION_249797
NOTE_ON_83
DURATION_432
POSITION_250436
NOTE_ON_76
DURATION_154
POSITION_250318
NOTE_ON_79
DURATION_272
POSITION_250206
NOTE_ON_57
DURATION_413
POSITION_250202
NOTE_ON_78
DURATION_427
POSITION_250600
NOTE_ON_76
DURATION_236
POSITION_250889
NOTE_ON_71
DURATION_174
POSITION_250596
NOTE_ON_79
DURATION_493
POSITION_250577
NOTE_ON_59
DURATION_927
POSITION_251046
NOTE_ON_78
DURATION_461
POSITION_251054
NOTE_ON_75
DURATION_458
POSITION_251278
NOTE_ON_69
DURATION_244
POSITION_250994
NOTE_ON_47
DURATION_533
POSITION_251388
NOTE_ON_52
DURATION_306
POSITION_251639
NOTE_ON_47
DURATION_140
POSITION_251763
NOTE_ON_45
DURATION_129
POSITION_251886
NOTE_ON_43
DURATION_174
POSITION_252016
NOTE_ON_45
DURATION_123
POSITION_251478
NOTE_ON_71
DURATION_871
POSITION_252315
NOTE_ON_40
DURATION_209
POSITION_252122
NOTE_ON_47
DURATION_427
POSITION_251421
NOTE_ON_67
DURATION_1143
POSITION_251523
NOTE_ON_76
DURATION_1125
POSITION_252528
NOTE_ON_43
DURATION_167
POSITION_252592
NOTE_ON_69
DURATION_103
POSITION_252457
NOTE_ON_71
DURATION_268
POSITION_252704
NOTE_ON_69
DURATION_60
POSITION_252745
NOTE_ON_67
DURATION_98
POSITION_252699
NOTE_ON_43
DURATION_157
POSITION_252705
NOTE_ON_47
DURATION_194
POSITION_252858
NOTE_ON_66
DURATION_102
POSITION_252934
NOTE_ON_52
DURATION_202
POSITION_252991
NOTE_ON_67
DURATION_203
POSITION_253204
NOTE_ON_69
DURATION_5
POSITION_253138
NOTE_ON_45
DURATION_178
POSITION_253326
NOTE_ON_47
DURATION_120
POSITION_253489
NOTE_ON_67
DURATION_100
POSITION_253201
NOTE_ON_73
DURATION_392
POSITION_253480
NOTE_ON_49
DURATION_140
POSITION_253620
NOTE_ON_47
DURATION_271
POSITION_253620
NOTE_ON_74
DURATION_283
POSITION_253746
NOTE_ON_49
DURATION_167
POSITION_253896
NOTE_ON_67
DURATION_101
POSITION_253896
NOTE_ON_50
DURATION_113
POSITION_254032
NOTE_ON_49
DURATION_317
POSITION_254009
NOTE_ON_76
DURATION_340
POSITION_254152
NOTE_ON_50
DURATION_198
POSITION_254262
NOTE_ON_52
DURATION_93
POSITION_254297
NOTE_ON_67
DURATION_84
POSITION_254363
NOTE_ON_45
DURATION_124
POSITION_254419
NOTE_ON_66
DURATION_254
POSITION_254491
NOTE_ON_47
DURATION_187
POSITION_254641
NOTE_ON_64
DURATION_114
POSITION_254634
NOTE_ON_49
DURATION_131
POSITION_254762
NOTE_ON_50
DURATION_267
POSITION_254893
NOTE_ON_52
DURATION_141
POSITION_254763
NOTE_ON_66
DURATION_271
POSITION_255035
NOTE_ON_62
DURATION_105
POSITION_255034
NOTE_ON_54
DURATION_122
POSITION_255165
NOTE_ON_52
DURATION_248
POSITION_255275
NOTE_ON_54
DURATION_143
POSITION_255139
NOTE_ON_67
DURATION_279
POSITION_255421
NOTE_ON_62
DURATION_103
POSITION_255410
NOTE_ON_55
DURATION_114
POSITION_255542
NOTE_ON_54
DURATION_96
POSITION_255663
NOTE_ON_55
DURATION_223
POSITION_255521
NOTE_ON_69
DURATION_365
POSITION_255788
NOTE_ON_57
DURATION_100
POSITION_255793
NOTE_ON_62
DURATION_166
POSITION_255924
NOTE_ON_72
DURATION_302
POSITION_256049
NOTE_ON_71
DURATION_180
POSITION_256047
NOTE_ON_52
DURATION_184
POSITION_255917
NOTE_ON_50
DURATION_326
POSITION_256168
NOTE_ON_69
DURATION_124
POSITION_256170
NOTE_ON_54
DURATION_123
POSITION_256293
NOTE_ON_71
DURATION_69
POSITION_256306
NOTE_ON_55
DURATION_255
POSITION_256433
NOTE_ON_57
DURATION_128
POSITION_256562
NOTE_ON_59
DURATION_98
POSITION_256560
NOTE_ON_65
DURATION_100
POSITION_256666
NOTE_ON_72
DURATION_295
POSITION_256805
NOTE_ON_59
DURATION_156
POSITION_256697
NOTE_ON_57
DURATION_268
POSITION_256938
NOTE_ON_60
DURATION_45
POSITION_256938
NOTE_ON_65
DURATION_134
POSITION_257088
NOTE_ON_59
DURATION_336
POSITION_257060
NOTE_ON_74
DURATION_367
POSITION_257207
NOTE_ON_60
DURATION_222
POSITION_257338
NOTE_ON_62
DURATION_91
POSITION_257342
NOTE_ON_65
DURATION_88
POSITION_257465
NOTE_ON_55
DURATION_101
POSITION_257465
NOTE_ON_64
DURATION_344
POSITION_257698
NOTE_ON_62
DURATION_150
POSITION_257577
NOTE_ON_57
DURATION_282
POSITION_257699
NOTE_ON_59
DURATION_161
POSITION_257815
NOTE_ON_64
DURATION_94
POSITION_257852
NOTE_ON_62
DURATION_73
POSITION_257874
NOTE_ON_60
DURATION_150
POSITION_258015
NOTE_ON_59
DURATION_123
POSITION_258143
NOTE_ON_57
DURATION_88
POSITION_257916
NOTE_ON_64
DURATION_562
POSITION_258489
NOTE_ON_64
DURATION_68
POSITION_258258
NOTE_ON_56
DURATION_300
POSITION_258377
NOTE_ON_57
DURATION_181
POSITION_258498
NOTE_ON_59
DURATION_130
POSITION_258640
NOTE_ON_57
DURATION_126
POSITION_258752
NOTE_ON_55
DURATION_147
POSITION_258864
NOTE_ON_54
DURATION_124
POSITION_258993
NOTE_ON_52
DURATION_115
POSITION_259101
NOTE_ON_54
DURATION_123
POSITION_259229
NOTE_ON_55
DURATION_191
POSITION_259664
NOTE_ON_64
DURATION_119
POSITION_259792
NOTE_ON_62
DURATION_113
POSITION_259916
NOTE_ON_64
DURATION_160
POSITION_260031
NOTE_ON_62
DURATION_85
POSITION_260141
NOTE_ON_60
DURATION_99
POSITION_259432
NOTE_ON_54
DURATION_820
POSITION_258639
NOTE_ON_72
DURATION_1689
POSITION_260265
NOTE_ON_62
DURATION_138
POSITION_260401
NOTE_ON_54
DURATION_112
POSITION_260532
NOTE_ON_52
DURATION_117
POSITION_260816
NOTE_ON_52
DURATION_70
POSITION_260926
NOTE_ON_50
DURATION_135
POSITION_261093
NOTE_ON_55
DURATION_253
POSITION_261248
NOTE_ON_71
DURATION_101
POSITION_260690
NOTE_ON_72
DURATION_660
POSITION_261357
NOTE_ON_72
DURATION_136
POSITION_261499
NOTE_ON_74
DURATION_319
POSITION_261624
NOTE_ON_72
DURATION_213
POSITION_261486
NOTE_ON_43
DURATION_363
POSITION_261738
NOTE_ON_71
DURATION_119
POSITION_261866
NOTE_ON_71
DURATION_83
POSITION_261868
NOTE_ON_69
DURATION_89
POSITION_261987
NOTE_ON_67
DURATION_150
POSITION_261865
NOTE_ON_47
DURATION_305
POSITION_262111
NOTE_ON_69
DURATION_139
POSITION_262252
NOTE_ON_71
DURATION_113
POSITION_262250
NOTE_ON_43
DURATION_283
POSITION_262372
NOTE_ON_69
DURATION_180
POSITION_262490
NOTE_ON_67
DURATION_138
POSITION_262649
NOTE_ON_65
DURATION_68
POSITION_262762
NOTE_ON_64
DURATION_258
POSITION_262612
NOTE_ON_48
DURATION_408
POSITION_262871
NOTE_ON_65
DURATION_151
POSITION_263026
NOTE_ON_67
DURATION_121
POSITION_263280
NOTE_ON_64
DURATION_171
POSITION_263149
NOTE_ON_65
DURATION_304
POSITION_263026
NOTE_ON_36
DURATION_432
POSITION_263407
NOTE_ON_62
DURATION_169
POSITION_263525
NOTE_ON_48
DURATION_146
POSITION_263583
NOTE_ON_60
DURATION_107
POSITION_263668
NOTE_ON_50
DURATION_121
POSITION_263805
NOTE_ON_52
DURATION_45
POSITION_263912
NOTE_ON_52
DURATION_100
POSITION_264035
NOTE_ON_54
DURATION_118
POSITION_264181
NOTE_ON_55
DURATION_313
POSITION_263810
NOTE_ON_70
DURATION_704
POSITION_264351
NOTE_ON_69
DURATION_164
POSITION_264467
NOTE_ON_67
DURATION_135
POSITION_264609
NOTE_ON_69
DURATION_324
POSITION_264581
NOTE_ON_49
DURATION_361
POSITION_264838
NOTE_ON_66
DURATION_110
POSITION_264719
NOTE_ON_67
DURATION_233
POSITION_264956
NOTE_ON_67
DURATION_133
POSITION_264956
NOTE_ON_52
DURATION_383
POSITION_265076
NOTE_ON_66
DURATION_264
POSITION_265195
NOTE_ON_64
DURATION_632
POSITION_265410
NOTE_ON_73
DURATION_514
POSITION_265796
NOTE_ON_74
DURATION_132
POSITION_265917
NOTE_ON_67
DURATION_73
POSITION_265340
NOTE_ON_45
DURATION_733
POSITION_266001
NOTE_ON_66
DURATION_76
POSITION_266091
NOTE_ON_64
DURATION_87
POSITION_266173
NOTE_ON_66
DURATION_125
POSITION_266284
NOTE_ON_67
DURATION_108
POSITION_266372
NOTE_ON_66
DURATION_96
POSITION_266459
NOTE_ON_64
DURATION_328
POSITION_265862
NOTE_ON_38
DURATION_979
POSITION_266286
NOTE_ON_50
DURATION_625
POSITION_266901
NOTE_ON_48
DURATION_148
POSITION_267143
NOTE_ON_57
DURATION_5
POSITION_267037
NOTE_ON_47
DURATION_112
POSITION_267038
NOTE_ON_59
DURATION_126
POSITION_267142
NOTE_ON_45
DURATION_118
POSITION_267250
NOTE_ON_47
DURATION_218
POSITION_267250
NOTE_ON_59
DURATION_221
POSITION_267358
NOTE_ON_48
DURATION_122
POSITION_266729
NOTE_ON_62
DURATION_819
POSITION_267736
NOTE_ON_62
DURATION_83
POSITION_267845
NOTE_ON_64
DURATION_100
POSITION_267531
NOTE_ON_35
DURATION_501
POSITION_267960
NOTE_ON_66
DURATION_133
POSITION_268103
NOTE_ON_66
DURATION_118
POSITION_267960
NOTE_ON_59
DURATION_292
POSITION_268220
NOTE_ON_67
DURATION_107
POSITION_268333
NOTE_ON_69
DURATION_129
POSITION_268467
NOTE_ON_69
DURATION_118
POSITION_268334
NOTE_ON_57
DURATION_371
POSITION_268577
NOTE_ON_71
DURATION_132
POSITION_268703
NOTE_ON_72
DURATION_120
POSITION_268828
NOTE_ON_72
DURATION_153
POSITION_268704
NOTE_ON_55
DURATION_280
POSITION_268934
NOTE_ON_74
DURATION_144
POSITION_269050
NOTE_ON_54
DURATION_154
POSITION_269081
NOTE_ON_75
DURATION_160
POSITION_269225
NOTE_ON_38
DURATION_150
POSITION_269381
NOTE_ON_73
DURATION_113
POSITION_269380
NOTE_ON_40
DURATION_116
POSITION_269496
NOTE_ON_42
DURATION_128
POSITION_269618
NOTE_ON_43
DURATION_99
POSITION_269731
NOTE_ON_45
DURATION_146
POSITION_269862
NOTE_ON_47
DURATION_125
POSITION_269986
NOTE_ON_48
DURATION_77
POSITION_269497
NOTE_ON_74
DURATION_593
POSITION_270086
NOTE_ON_50
DURATION_130
POSITION_270087
NOTE_ON_78
DURATION_144
POSITION_270223
NOTE_ON_52
DURATION_109
POSITION_270461
NOTE_ON_71
DURATION_97
POSITION_270340
NOTE_ON_54
DURATION_255
POSITION_270237
NOTE_ON_79
DURATION_363
POSITION_270463
NOTE_ON_55
DURATION_137
POSITION_270563
NOTE_ON_71
DURATION_38
POSITION_270517
NOTE_ON_73
DURATION_87
POSITION_270608
NOTE_ON_57
DURATION_108
POSITION_270718
NOTE_ON_55
DURATION_105
POSITION_270608
NOTE_ON_73
DURATION_223
POSITION_270839
NOTE_ON_74
DURATION_124
POSITION_270840
NOTE_ON_54
DURATION_128
POSITION_270959
NOTE_ON_59
DURATION_134
POSITION_271085
NOTE_ON_57
DURATION_119
POSITION_270960
NOTE_ON_66
DURATION_254
POSITION_271212
NOTE_ON_55
DURATION_204
POSITION_271219
NOTE_ON_67
DURATION_197
POSITION_271411
NOTE_ON_71
DURATION_384
POSITION_271751
NOTE_ON_69
DURATION_97
POSITION_271408
NOTE_ON_62
DURATION_459
POSITION_271800
NOTE_ON_71
DURATION_68
POSITION_271867
NOTE_ON_50
DURATION_427
POSITION_272253
NOTE_ON_67
DURATION_156
POSITION_272304
NOTE_ON_50
DURATION_132
POSITION_271859
NOTE_ON_69
DURATION_589
POSITION_272379
NOTE_ON_52
DURATION_279
POSITION_272644
NOTE_ON_47
DURATION_161
POSITION_272417
NOTE_ON_67
DURATION_391
POSITION_272807
NOTE_ON_43
DURATION_92
POSITION_272767
NOTE_ON_64
DURATION_140
POSITION_272928
NOTE_ON_40
DURATION_137
POSITION_273039
NOTE_ON_43
DURATION_151
POSITION_272910
NOTE_ON_62
DURATION_281
POSITION_273176
NOTE_ON_47
DURATION_83
POSITION_273180
NOTE_ON_67
DURATION_83
POSITION_273296
NOTE_ON_52
DURATION_115
POSITION_273418
NOTE_ON_50
DURATION_124
POSITION_273294
NOTE_ON_60
DURATION_249
POSITION_273565
NOTE_ON_67
DURATION_80
POSITION_273564
NOTE_ON_48
DURATION_110
POSITION_273692
NOTE_ON_50
DURATION_113
POSITION_273667
NOTE_ON_59
DURATION_206
POSITION_273820
NOTE_ON_48
DURATION_99
POSITION_273820
NOTE_ON_60
DURATION_156
POSITION_273951
NOTE_ON_67
DURATION_79
POSITION_273939
NOTE_ON_47
DURATION_129
POSITION_274070
NOTE_ON_48
DURATION_118
POSITION_274069
NOTE_ON_57
DURATION_294
POSITION_274357
NOTE_ON_66
DURATION_110
POSITION_274331
NOTE_ON_45
DURATION_140
POSITION_274200
NOTE_ON_47
DURATION_275
POSITION_274473
NOTE_ON_66
DURATION_33
POSITION_274488
NOTE_ON_67
DURATION_107
POSITION_274485
NOTE_ON_47
DURATION_125
POSITION_274610
NOTE_ON_45
DURATION_81
POSITION_274610
NOTE_ON_66
DURATION_114
POSITION_274735
NOTE_ON_64
DURATION_166
POSITION_274949
NOTE_ON_67
DURATION_67
POSITION_275050
NOTE_ON_66
DURATION_44
POSITION_275110
NOTE_ON_67
DURATION_87
POSITION_275175
NOTE_ON_66
DURATION_76
POSITION_275208
NOTE_ON_67
DURATION_81
POSITION_275262
NOTE_ON_66
DURATION_50
POSITION_275297
NOTE_ON_67
DURATION_31
POSITION_274733
NOTE_ON_43
DURATION_610
POSITION_275372
NOTE_ON_66
DURATION_381
POSITION_275697
NOTE_ON_67
DURATION_57
POSITION_275370
NOTE_ON_38
DURATION_387
POSITION_274887
NOTE_ON_50
DURATION_886
POSITION_275820
NOTE_ON_43
DURATION_502
POSITION_276315
NOTE_ON_59
DURATION_47
POSITION_276315
NOTE_ON_62
DURATION_54
POSITION_275869
NOTE_ON_67
DURATION_611
POSITION_276490
NOTE_ON_67
DURATION_43
POSITION_276488
NOTE_ON_71
DURATION_96
POSITION_276608
NOTE_ON_69
DURATION_120
POSITION_276744
NOTE_ON_62
DURATION_31
POSITION_276737
NOTE_ON_67
DURATION_39
POSITION_276740
NOTE_ON_71
DURATION_127
POSITION_276868
NOTE_ON_74
DURATION_84
POSITION_276992
NOTE_ON_72
DURATION_119
POSITION_277129
NOTE_ON_71
DURATION_41
POSITION_277128
NOTE_ON_74
DURATION_136
POSITION_277252
NOTE_ON_79
DURATION_108
POSITION_277132
NOTE_ON_67
DURATION_254
POSITION_277365
NOTE_ON_78
DURATION_154
POSITION_277658
NOTE_ON_43
DURATION_119
POSITION_277798
NOTE_ON_42
DURATION_108
POSITION_277936
NOTE_ON_43
DURATION_160
POSITION_278111
NOTE_ON_38
DURATION_157
POSITION_278278
NOTE_ON_35
DURATION_217
POSITION_277549
NOTE_ON_71
DURATION_958
POSITION_277516
NOTE_ON_79
DURATION_2084
POSITION_277544
NOTE_ON_74
DURATION_2058
POSITION_278537
NOTE_ON_31
DURATION_1065
POSITION_282164
NOTE_ON_74
DURATION_99
POSITION_282259
NOTE_ON_76
DURATION_45
POSITION_282345
NOTE_ON_78
DURATION_49
POSITION_282445
NOTE_ON_55
DURATION_45
POSITION_282444
NOTE_ON_79
DURATION_81
POSITION_282547
NOTE_ON_74
DURATION_52
POSITION_282642
NOTE_ON_59
DURATION_30
POSITION_282638
NOTE_ON_71
DURATION_59
POSITION_282718
NOTE_ON_74
DURATION_66
POSITION_282827
NOTE_ON_67
DURATION_29
POSITION_282825
NOTE_ON_62
DURATION_33
POSITION_282821
NOTE_ON_79
DURATION_56
POSITION_282907
NOTE_ON_71
DURATION_35
POSITION_283006
NOTE_ON_59
DURATION_36
POSITION_283007
NOTE_ON_74
DURATION_42
POSITION_283093
NOTE_ON_71
DURATION_57
POSITION_283203
NOTE_ON_55
DURATION_32
POSITION_283192
NOTE_ON_79
DURATION_88
POSITION_283285
NOTE_ON_74
DURATION_79
POSITION_283379
NOTE_ON_83
DURATION_37
POSITION_283460
NOTE_ON_79
DURATION_37
POSITION_283565
NOTE_ON_54
DURATION_41
POSITION_283565
NOTE_ON_81
DURATION_105
POSITION_283657
NOTE_ON_78
DURATION_77
POSITION_283772
NOTE_ON_57
DURATION_31
POSITION_283750
NOTE_ON_74
DURATION_54
POSITION_283849
NOTE_ON_78
DURATION_49
POSITION_283955
NOTE_ON_69
DURATION_34
POSITION_283956
NOTE_ON_62
DURATION_37
POSITION_284048
NOTE_ON_74
DURATION_36
POSITION_284137
NOTE_ON_57
DURATION_30
POSITION_284140
NOTE_ON_78
DURATION_41
POSITION_284235
NOTE_ON_74
DURATION_52
POSITION_284328
NOTE_ON_54
DURATION_26
POSITION_284332
NOTE_ON_81
DURATION_79
POSITION_284414
NOTE_ON_78
DURATION_42
POSITION_284509
NOTE_ON_84
DURATION_69
POSITION_284586
NOTE_ON_81
DURATION_33
POSITION_284709
NOTE_ON_55
DURATION_48
POSITION_284691
NOTE_ON_83
DURATION_88
POSITION_284793
NOTE_ON_79
DURATION_55
POSITION_284887
NOTE_ON_59
DURATION_30
POSITION_284884
NOTE_ON_74
DURATION_40
POSITION_284970
NOTE_ON_79
DURATION_47
POSITION_285071
NOTE_ON_62
DURATION_31
POSITION_285070
NOTE_ON_84
DURATION_44
POSITION_285150
NOTE_ON_81
DURATION_45
POSITION_285259
NOTE_ON_67
DURATION_38
POSITION_285257
NOTE_ON_83
DURATION_104
POSITION_285349
NOTE_ON_79
DURATION_57
POSITION_285431
NOTE_ON_59
DURATION_44
POSITION_285438
NOTE_ON_74
DURATION_54
POSITION_285525
NOTE_ON_79
DURATION_49
POSITION_285624
NOTE_ON_62
DURATION_31
POSITION_285623
NOTE_ON_84
DURATION_54
POSITION_285707
NOTE_ON_81
DURATION_38
POSITION_285830
NOTE_ON_55
DURATION_25
POSITION_285813
NOTE_ON_83
DURATION_49
POSITION_285898
NOTE_ON_79
DURATION_56
POSITION_286001
NOTE_ON_60
DURATION_29
POSITION_286006
NOTE_ON_81
DURATION_57
POSITION_286075
NOTE_ON_78
DURATION_45
POSITION_286178
NOTE_ON_57
DURATION_50
POSITION_286178
NOTE_ON_79
DURATION_52
POSITION_286270
NOTE_ON_76
DURATION_63
POSITION_286383
NOTE_ON_78
DURATION_32
POSITION_286379
NOTE_ON_62
DURATION_123
POSITION_286484
NOTE_ON_74
DURATION_30
POSITION_286572
NOTE_ON_50
DURATION_20
POSITION_286575
NOTE_ON_69
DURATION_73
POSITION_286670
NOTE_ON_74
DURATION_50
POSITION_286753
NOTE_ON_60
DURATION_29
POSITION_286752
NOTE_ON_78
DURATION_36
POSITION_286843
NOTE_ON_74
DURATION_71
POSITION_286943
NOTE_ON_59
DURATION_35
POSITION_286944
NOTE_ON_79
DURATION_48
POSITION_287028
NOTE_ON_74
DURATION_70
POSITION_287121
NOTE_ON_57
DURATION_28
POSITION_287121
NOTE_ON_81
DURATION_48
POSITION_287212
NOTE_ON_74
DURATION_54
POSITION_287306
NOTE_ON_55
DURATION_30
POSITION_287305
NOTE_ON_83
DURATION_52
POSITION_287392
NOTE_ON_74
DURATION_30
POSITION_287499
NOTE_ON_60
DURATION_55
POSITION_287596
NOTE_ON_72
DURATION_66
POSITION_287504
NOTE_ON_76
DURATION_158
POSITION_287693
NOTE_ON_48
DURATION_33
POSITION_287694
NOTE_ON_67
DURATION_50
POSITION_287781
NOTE_ON_72
DURATION_65
POSITION_287871
NOTE_ON_59
DURATION_55
POSITION_287872
NOTE_ON_76
DURATION_112
POSITION_287959
NOTE_ON_72
DURATION_59
POSITION_288058
NOTE_ON_57
DURATION_31
POSITION_288059
NOTE_ON_78
DURATION_67
POSITION_288146
NOTE_ON_72
DURATION_66
POSITION_288235
NOTE_ON_55
DURATION_41
POSITION_288234
NOTE_ON_79
DURATION_63
POSITION_288334
NOTE_ON_72
DURATION_54
POSITION_288429
NOTE_ON_81
DURATION_29
POSITION_288433
NOTE_ON_54
DURATION_27
POSITION_288507
NOTE_ON_72
DURATION_30
POSITION_288708
NOTE_ON_71
DURATION_101
POSITION_288620
NOTE_ON_59
DURATION_194
POSITION_288826
NOTE_ON_47
DURATION_32
POSITION_288832
NOTE_ON_66
DURATION_30
POSITION_288625
NOTE_ON_75
DURATION_265
POSITION_288924
NOTE_ON_71
DURATION_70
POSITION_289000
NOTE_ON_57
DURATION_48
POSITION_289003
NOTE_ON_75
DURATION_49
POSITION_289100
NOTE_ON_71
DURATION_69
POSITION_289191
NOTE_ON_55
DURATION_45
POSITION_289196
NOTE_ON_76
DURATION_47
POSITION_289287
NOTE_ON_71
DURATION_56
POSITION_289378
NOTE_ON_54
DURATION_30
POSITION_289377
NOTE_ON_78
DURATION_47
POSITION_289461
NOTE_ON_71
DURATION_63
POSITION_289556
NOTE_ON_52
DURATION_35
POSITION_289556
NOTE_ON_79
DURATION_52
POSITION_289628
NOTE_ON_71
DURATION_34
POSITION_289739
NOTE_ON_57
DURATION_30
POSITION_289743
NOTE_ON_73
DURATION_75
POSITION_289825
NOTE_ON_79
DURATION_68
POSITION_289920
NOTE_ON_59
DURATION_50
POSITION_289923
NOTE_ON_74
DURATION_66
POSITION_290005
NOTE_ON_79
DURATION_61
POSITION_290114
NOTE_ON_61
DURATION_40
POSITION_290121
NOTE_ON_76
DURATION_47
POSITION_290177
NOTE_ON_79
DURATION_112
POSITION_290298
NOTE_ON_62
DURATION_33
POSITION_290298
NOTE_ON_78
DURATION_55
POSITION_290385
NOTE_ON_74
DURATION_83
POSITION_290492
NOTE_ON_59
DURATION_46
POSITION_290486
NOTE_ON_80
DURATION_52
POSITION_290575
NOTE_ON_74
DURATION_63
POSITION_290669
NOTE_ON_52
DURATION_38
POSITION_290675
NOTE_ON_83
DURATION_52
POSITION_290763
NOTE_ON_74
DURATION_38
POSITION_290868
NOTE_ON_57
DURATION_63
POSITION_290892
NOTE_ON_73
DURATION_103
POSITION_290990
NOTE_ON_74
DURATION_93
POSITION_291076
NOTE_ON_45
DURATION_34
POSITION_291087
NOTE_ON_76
DURATION_72
POSITION_291177
NOTE_ON_73
DURATION_133
POSITION_291298
NOTE_ON_69
DURATION_46
POSITION_291401
NOTE_ON_67
DURATION_73
POSITION_291295
NOTE_ON_57
DURATION_268
POSITION_291522
NOTE_ON_66
DURATION_52
POSITION_291620
NOTE_ON_69
DURATION_70
POSITION_291721
NOTE_ON_54
DURATION_38
POSITION_291720
NOTE_ON_74
DURATION_46
POSITION_291799
NOTE_ON_69
DURATION_60
POSITION_291905
NOTE_ON_78
DURATION_37
POSITION_291992
NOTE_ON_74
DURATION_44
POSITION_292117
NOTE_ON_80
DURATION_68
POSITION_291909
NOTE_ON_50
DURATION_279
POSITION_292207
NOTE_ON_81
DURATION_57
POSITION_292225
NOTE_ON_49
DURATION_75
POSITION_292319
NOTE_ON_50
DURATION_78
POSITION_292411
NOTE_ON_49
DURATION_88
POSITION_292310
NOTE_ON_69
DURATION_251
POSITION_292504
NOTE_ON_47
DURATION_66
POSITION_292578
NOTE_ON_45
DURATION_95
POSITION_292695
NOTE_ON_55
DURATION_55
POSITION_292786
NOTE_ON_71
DURATION_113
POSITION_292900
NOTE_ON_52
DURATION_42
POSITION_292902
NOTE_ON_73
DURATION_105
POSITION_292995
NOTE_ON_69
DURATION_66
POSITION_293215
NOTE_ON_69
DURATION_126
POSITION_293334
NOTE_ON_78
DURATION_67
POSITION_293111
NOTE_ON_49
DURATION_331
POSITION_293150
NOTE_ON_76
DURATION_295
POSITION_293437
NOTE_ON_79
DURATION_58
POSITION_293449
NOTE_ON_47
DURATION_91
POSITION_293542
NOTE_ON_50
DURATION_72
POSITION_293637
NOTE_ON_49
DURATION_118
POSITION_293725
NOTE_ON_47
DURATION_82
POSITION_293812
NOTE_ON_45
DURATION_112
POSITION_293950
NOTE_ON_54
DURATION_135
POSITION_293543
NOTE_ON_69
DURATION_544
POSITION_294075
NOTE_ON_71
DURATION_104
POSITION_294171
NOTE_ON_73
DURATION_82
POSITION_294175
NOTE_ON_52
DURATION_83
POSITION_294263
NOTE_ON_74
DURATION_96
POSITION_294354
NOTE_ON_50
DURATION_70
POSITION_294361
NOTE_ON_76
DURATION_86
POSITION_294441
NOTE_ON_78
DURATION_78
POSITION_294532
NOTE_ON_49
DURATION_67
POSITION_294534
NOTE_ON_79
DURATION_101
POSITION_294628
NOTE_ON_81
DURATION_125
POSITION_294724
NOTE_ON_50
DURATION_56
POSITION_294724
NOTE_ON_83
DURATION_99
POSITION_294807
NOTE_ON_85
DURATION_114
POSITION_294908
NOTE_ON_86
DURATION_73
POSITION_294921
NOTE_ON_52
DURATION_79
POSITION_295037
NOTE_ON_85
DURATION_56
POSITION_295126
NOTE_ON_54
DURATION_29
POSITION_295090
NOTE_ON_83
DURATION_71
POSITION_295145
NOTE_ON_81
DURATION_60
POSITION_295216
NOTE_ON_79
DURATION_59
POSITION_295321
NOTE_ON_78
DURATION_32
POSITION_295323
NOTE_ON_55
DURATION_30
POSITION_295510
NOTE_ON_78
DURATION_43
POSITION_295537
NOTE_ON_57
DURATION_44
POSITION_295561
NOTE_ON_74
DURATION_41
POSITION_295535
NOTE_ON_76
DURATION_68
POSITION_295610
NOTE_ON_76
DURATION_34
POSITION_295799
NOTE_ON_74
DURATION_69
POSITION_295803
NOTE_ON_59
DURATION_69
POSITION_295895
NOTE_ON_69
DURATION_103
POSITION_295998
NOTE_ON_52
DURATION_38
POSITION_296020
NOTE_ON_68
DURATION_68
POSITION_296101
NOTE_ON_71
DURATION_71
POSITION_296184
NOTE_ON_56
DURATION_44
POSITION_296189
NOTE_ON_64
DURATION_52
POSITION_296192
NOTE_ON_59
DURATION_64
POSITION_296273
NOTE_ON_74
DURATION_68
POSITION_296377
NOTE_ON_57
DURATION_61
POSITION_296378
NOTE_ON_73
DURATION_98
POSITION_296468
NOTE_ON_69
DURATION_37
POSITION_296566
NOTE_ON_64
DURATION_40
POSITION_296566
NOTE_ON_45
DURATION_66
POSITION_296658
NOTE_ON_62
DURATION_79
POSITION_296748
NOTE_ON_55
DURATION_41
POSITION_296752
NOTE_ON_61
DURATION_54
POSITION_296835
NOTE_ON_62
DURATION_66
POSITION_296943
NOTE_ON_54
DURATION_31
POSITION_296939
NOTE_ON_72
DURATION_82
POSITION_297020
NOTE_ON_69
DURATION_100
POSITION_297127
NOTE_ON_50
DURATION_32
POSITION_297130
NOTE_ON_66
DURATION_36
POSITION_297215
NOTE_ON_62
DURATION_53
POSITION_297318
NOTE_ON_54
DURATION_32
POSITION_297312
NOTE_ON_61
DURATION_44
POSITION_297392
NOTE_ON_62
DURATION_60
POSITION_297498
NOTE_ON_55
DURATION_118
POSITION_297495
NOTE_ON_71
DURATION_123
POSITION_297591
NOTE_ON_69
DURATION_100
POSITION_297682
NOTE_ON_47
DURATION_40
POSITION_297684
NOTE_ON_67
DURATION_42
POSITION_297775
NOTE_ON_62
DURATION_69
POSITION_297874
NOTE_ON_52
DURATION_39
POSITION_297868
NOTE_ON_61
DURATION_54
POSITION_297955
NOTE_ON_62
DURATION_63
POSITION_298088
NOTE_ON_54
DURATION_69
POSITION_298058
NOTE_ON_69
DURATION_126
POSITION_298155
NOTE_ON_67
DURATION_65
POSITION_298248
NOTE_ON_66
DURATION_80
POSITION_298333
NOTE_ON_62
DURATION_80
POSITION_298450
NOTE_ON_50
DURATION_32
POSITION_298443
NOTE_ON_61
DURATION_45
POSITION_298537
NOTE_ON_62
DURATION_118
POSITION_298687
NOTE_ON_67
DURATION_50
POSITION_298663
NOTE_ON_52
DURATION_92
POSITION_298783
NOTE_ON_66
DURATION_141
POSITION_298880
NOTE_ON_43
DURATION_45
POSITION_298884
NOTE_ON_64
DURATION_63
POSITION_298963
NOTE_ON_62
DURATION_48
POSITION_299052
NOTE_ON_47
DURATION_26
POSITION_299055
NOTE_ON_61
DURATION_115
POSITION_299148
NOTE_ON_59
DURATION_63
POSITION_299240
NOTE_ON_49
DURATION_43
POSITION_299241
NOTE_ON_57
DURATION_76
POSITION_299336
NOTE_ON_61
DURATION_105
POSITION_299431
NOTE_ON_64
DURATION_43
POSITION_299440
NOTE_ON_57
DURATION_103
POSITION_299512
NOTE_ON_69
DURATION_98
POSITION_299632
NOTE_ON_55
DURATION_30
POSITION_299622
NOTE_ON_73
DURATION_93
POSITION_299704
NOTE_ON_76
DURATION_78
POSITION_299799
NOTE_ON_81
DURATION_24
POSITION_299794
NOTE_ON_54
DURATION_40
POSITION_300016
NOTE_ON_66
DURATION_28
POSITION_300016
NOTE_ON_43
DURATION_31
POSITION_300009
NOTE_ON_74
DURATION_41
POSITION_300229
NOTE_ON_64
DURATION_31
POSITION_300223
NOTE_ON_73
DURATION_39
POSITION_300225
NOTE_ON_45
DURATION_39
POSITION_300467
NOTE_ON_74
DURATION_385
POSITION_300475
NOTE_ON_38
DURATION_377
POSITION_300471
NOTE_ON_66
DURATION_382
POSITION_300982
NOTE_ON_74
DURATION_89
POSITION_301085
NOTE_ON_76
DURATION_41
POSITION_301167
NOTE_ON_78
DURATION_37
POSITION_301290
NOTE_ON_55
DURATION_61
POSITION_301285
NOTE_ON_79
DURATION_66
POSITION_301367
NOTE_ON_74
DURATION_70
POSITION_301466
NOTE_ON_71
DURATION_57
POSITION_301490
NOTE_ON_59
DURATION_38
POSITION_301559
NOTE_ON_74
DURATION_95
POSITION_301665
NOTE_ON_67
DURATION_43
POSITION_301674
NOTE_ON_62
DURATION_37
POSITION_301760
NOTE_ON_71
DURATION_67
POSITION_301858
NOTE_ON_59
DURATION_34
POSITION_301857
NOTE_ON_74
DURATION_35
POSITION_301942
NOTE_ON_71
DURATION_49
POSITION_302044
NOTE_ON_55
DURATION_48
POSITION_302043
NOTE_ON_79
DURATION_61
POSITION_302128
NOTE_ON_74
DURATION_43
POSITION_302226
NOTE_ON_83
DURATION_48
POSITION_302307
NOTE_ON_79
DURATION_37
POSITION_302427
NOTE_ON_54
DURATION_83
POSITION_302424
NOTE_ON_81
DURATION_88
POSITION_302505
NOTE_ON_78
DURATION_75
POSITION_302627
NOTE_ON_57
DURATION_38
POSITION_302612
NOTE_ON_74
DURATION_60
POSITION_302709
NOTE_ON_78
DURATION_64
POSITION_302815
NOTE_ON_69
DURATION_41
POSITION_302817
NOTE_ON_62
DURATION_39
POSITION_302911
NOTE_ON_74
DURATION_61
POSITION_303002
NOTE_ON_78
DURATION_38
POSITION_303008
NOTE_ON_57
DURATION_32
POSITION_303084
NOTE_ON_74
DURATION_41
POSITION_303202
NOTE_ON_54
DURATION_29
POSITION_303190
NOTE_ON_81
DURATION_58
POSITION_303279
NOTE_ON_78
DURATION_45
POSITION_303377
NOTE_ON_84
DURATION_46
POSITION_303463
NOTE_ON_81
DURATION_39
POSITION_303579
NOTE_ON_83
DURATION_73
POSITION_303578
NOTE_ON_55
DURATION_78
POSITION_303664
NOTE_ON_79
DURATION_43
POSITION_303768
NOTE_ON_59
DURATION_44
POSITION_303763
NOTE_ON_74
DURATION_57
POSITION_303853
NOTE_ON_79
DURATION_41
POSITION_303956
NOTE_ON_62
DURATION_35
POSITION_303942
NOTE_ON_84
DURATION_63
POSITION_304024
NOTE_ON_81
DURATION_40
POSITION_304133
NOTE_ON_67
DURATION_45
POSITION_304132
NOTE_ON_83
DURATION_78
POSITION_304221
NOTE_ON_79
DURATION_53
POSITION_304321
NOTE_ON_59
DURATION_47
POSITION_304318
NOTE_ON_74
DURATION_82
POSITION_304407
NOTE_ON_79
DURATION_46
POSITION_304509
NOTE_ON_62
DURATION_38
POSITION_304506
NOTE_ON_84
DURATION_70
POSITION_304580
NOTE_ON_81
DURATION_42
POSITION_304702
NOTE_ON_55
DURATION_46
POSITION_304697
NOTE_ON_83
DURATION_87
POSITION_304793
NOTE_ON_79
DURATION_58
POSITION_304893
NOTE_ON_60
DURATION_37
POSITION_304891
NOTE_ON_81
DURATION_78
POSITION_304973
NOTE_ON_78
DURATION_138
POSITION_305080
NOTE_ON_57
DURATION_43
POSITION_305076
NOTE_ON_79
DURATION_57
POSITION_305169
NOTE_ON_76
DURATION_64
POSITION_305276
NOTE_ON_78
DURATION_46
POSITION_305273
NOTE_ON_62
DURATION_131
POSITION_305370
NOTE_ON_74
DURATION_46
POSITION_305461
NOTE_ON_50
DURATION_33
POSITION_305465
NOTE_ON_69
DURATION_42
POSITION_305567
NOTE_ON_74
DURATION_48
POSITION_305651
NOTE_ON_60
DURATION_34
POSITION_305650
NOTE_ON_78
DURATION_49
POSITION_305744
NOTE_ON_74
DURATION_69
POSITION_305842
NOTE_ON_59
DURATION_41
POSITION_305844
NOTE_ON_79
DURATION_47
POSITION_305941
NOTE_ON_74
DURATION_89
POSITION_306035
NOTE_ON_57
DURATION_39
POSITION_306037
NOTE_ON_81
DURATION_67
POSITION_306138
NOTE_ON_74
DURATION_89
POSITION_306229
NOTE_ON_55
DURATION_37
POSITION_306230
NOTE_ON_83
DURATION_79
POSITION_306315
NOTE_ON_74
DURATION_63
POSITION_306435
NOTE_ON_60
DURATION_29
POSITION_306520
NOTE_ON_72
DURATION_91
POSITION_306434
NOTE_ON_76
DURATION_185
POSITION_306626
NOTE_ON_48
DURATION_39
POSITION_306621
NOTE_ON_67
DURATION_46
POSITION_306719
NOTE_ON_72
DURATION_70
POSITION_306828
NOTE_ON_59
DURATION_34
POSITION_306818
NOTE_ON_76
DURATION_49
POSITION_306911
NOTE_ON_72
DURATION_70
POSITION_307006
NOTE_ON_57
DURATION_35
POSITION_307010
NOTE_ON_78
DURATION_50
POSITION_307105
NOTE_ON_72
DURATION_75
POSITION_307196
NOTE_ON_55
DURATION_29
POSITION_307196
NOTE_ON_79
DURATION_62
POSITION_307286
NOTE_ON_72
DURATION_57
POSITION_307381
NOTE_ON_54
DURATION_30
POSITION_307383
NOTE_ON_81
DURATION_62
POSITION_307471
NOTE_ON_72
DURATION_66
POSITION_307672
NOTE_ON_71
DURATION_64
POSITION_307580
NOTE_ON_59
DURATION_172
POSITION_307582
NOTE_ON_75
DURATION_178
POSITION_307766
NOTE_ON_47
DURATION_36
POSITION_307857
NOTE_ON_71
DURATION_78
POSITION_307770
NOTE_ON_75
DURATION_251
POSITION_307969
NOTE_ON_57
DURATION_56
POSITION_308062
NOTE_ON_71
DURATION_56
POSITION_308164
NOTE_ON_55
DURATION_32
POSITION_308164
NOTE_ON_76
DURATION_53
POSITION_308250
NOTE_ON_71
DURATION_65
POSITION_308346
NOTE_ON_54
DURATION_39
POSITION_308346
NOTE_ON_78
DURATION_54
POSITION_308430
NOTE_ON_71
DURATION_59
POSITION_308535
NOTE_ON_52
DURATION_37
POSITION_308616
NOTE_ON_71
DURATION_51
POSITION_308526
NOTE_ON_79
DURATION_146
POSITION_308715
NOTE_ON_57
DURATION_39
POSITION_308716
NOTE_ON_73
DURATION_86
POSITION_308808
NOTE_ON_79
DURATION_71
POSITION_308898
NOTE_ON_59
DURATION_61
POSITION_308907
NOTE_ON_74
DURATION_71
POSITION_308986
NOTE_ON_79
DURATION_70
POSITION_309093
NOTE_ON_61
DURATION_51
POSITION_309106
NOTE_ON_76
DURATION_64
POSITION_309170
NOTE_ON_79
DURATION_116
POSITION_309280
NOTE_ON_62
DURATION_37
POSITION_309288
NOTE_ON_78
DURATION_58
POSITION_309370
NOTE_ON_74
DURATION_91
POSITION_309481
NOTE_ON_59
DURATION_43
POSITION_309479
NOTE_ON_80
DURATION_101
POSITION_309577
NOTE_ON_74
DURATION_76
POSITION_309665
NOTE_ON_52
DURATION_34
POSITION_309669
NOTE_ON_83
DURATION_62
POSITION_309764
NOTE_ON_74
DURATION_70
POSITION_309854
NOTE_ON_57
DURATION_98
POSITION_309901
NOTE_ON_73
DURATION_67
POSITION_309998
NOTE_ON_74
DURATION_123
POSITION_310120
NOTE_ON_57
DURATION_31
POSITION_310122
NOTE_ON_76
DURATION_64
POSITION_310215
NOTE_ON_73
DURATION_141
POSITION_310337
NOTE_ON_69
DURATION_80
POSITION_310445
NOTE_ON_67
DURATION_82
POSITION_310559
NOTE_ON_66
DURATION_46
POSITION_310668
NOTE_ON_69
DURATION_52
POSITION_310326
NOTE_ON_57
DURATION_445
POSITION_310766
NOTE_ON_74
DURATION_48
POSITION_310759
NOTE_ON_54
DURATION_101
POSITION_310858
NOTE_ON_69
DURATION_58
POSITION_310976
NOTE_ON_78
DURATION_110
POSITION_311069
NOTE_ON_74
DURATION_38
POSITION_310974
NOTE_ON_50
DURATION_315
POSITION_311203
NOTE_ON_80
DURATION_144
POSITION_311325
NOTE_ON_49
DURATION_72
POSITION_311304
NOTE_ON_81
DURATION_150
POSITION_311425
NOTE_ON_50
DURATION_71
POSITION_311512
NOTE_ON_49
DURATION_93
POSITION_311616
NOTE_ON_47
DURATION_51
POSITION_311690
NOTE_ON_45
DURATION_56
POSITION_311821
NOTE_ON_55
DURATION_59
POSITION_311416
NOTE_ON_69
DURATION_486
POSITION_311934
NOTE_ON_71
DURATION_108
POSITION_312029
NOTE_ON_52
DURATION_34
POSITION_312037
NOTE_ON_73
DURATION_92
POSITION_312127
NOTE_ON_69
DURATION_45
POSITION_312227
NOTE_ON_76
DURATION_46
POSITION_312328
NOTE_ON_69
DURATION_51
POSITION_312227
NOTE_ON_49
DURATION_339
POSITION_312451
NOTE_ON_78
DURATION_117
POSITION_312558
NOTE_ON_79
DURATION_97
POSITION_312556
NOTE_ON_47
DURATION_99
POSITION_312676
NOTE_ON_50
DURATION_73
POSITION_312775
NOTE_ON_49
DURATION_86
POSITION_312871
NOTE_ON_47
DURATION_55
POSITION_312681
NOTE_ON_69
DURATION_255
POSITION_312957
NOTE_ON_45
DURATION_90
POSITION_313102
NOTE_ON_54
DURATION_105
POSITION_313210
NOTE_ON_71
DURATION_85
POSITION_313309
NOTE_ON_73
DURATION_76
POSITION_313309
NOTE_ON_52
DURATION_79
POSITION_313399
NOTE_ON_74
DURATION_61
POSITION_313498
NOTE_ON_50
DURATION_33
POSITION_313503
NOTE_ON_76
DURATION_96
POSITION_313586
NOTE_ON_78
DURATION_71
POSITION_313677
NOTE_ON_49
DURATION_60
POSITION_313678
NOTE_ON_79
DURATION_118
POSITION_313782
NOTE_ON_81
DURATION_105
POSITION_313877
NOTE_ON_50
DURATION_41
POSITION_313876
NOTE_ON_83
DURATION_100
POSITION_313964
NOTE_ON_85
DURATION_101
POSITION_314063
NOTE_ON_86
DURATION_74
POSITION_314063
NOTE_ON_52
DURATION_80
POSITION_314179
NOTE_ON_85
DURATION_53
POSITION_314256
NOTE_ON_54
DURATION_40
POSITION_314231
NOTE_ON_83
DURATION_73
POSITION_314284
NOTE_ON_81
DURATION_46
POSITION_314362
NOTE_ON_79
DURATION_39
POSITION_314462
NOTE_ON_78
DURATION_36
POSITION_314464
NOTE_ON_55
DURATION_35
POSITION_314653
NOTE_ON_78
DURATION_38
POSITION_314700
NOTE_ON_57
DURATION_45
POSITION_314682
NOTE_ON_76
DURATION_82
POSITION_314717
NOTE_ON_74
DURATION_56
POSITION_314775
NOTE_ON_76
DURATION_24
POSITION_314958
NOTE_ON_74
DURATION_64
POSITION_314959
NOTE_ON_59
DURATION_68
POSITION_315062
NOTE_ON_69
DURATION_129
POSITION_315175
NOTE_ON_52
DURATION_42
POSITION_315197
NOTE_ON_68
DURATION_78
POSITION_315281
NOTE_ON_71
DURATION_57
POSITION_315369
NOTE_ON_56
DURATION_36
POSITION_315373
NOTE_ON_64
DURATION_53
POSITION_315459
NOTE_ON_74
DURATION_40
POSITION_315556
NOTE_ON_57
DURATION_45
POSITION_315559
NOTE_ON_73
DURATION_92
POSITION_315652
NOTE_ON_69
DURATION_32
POSITION_315744
NOTE_ON_64
DURATION_45
POSITION_315748
NOTE_ON_45
DURATION_55
POSITION_315835
NOTE_ON_62
DURATION_84
POSITION_315936
NOTE_ON_55
DURATION_37
POSITION_315936
NOTE_ON_61
DURATION_39
POSITION_316011
NOTE_ON_62
DURATION_58
POSITION_316136
NOTE_ON_54
DURATION_35
POSITION_316124
NOTE_ON_72
DURATION_87
POSITION_316214
NOTE_ON_69
DURATION_99
POSITION_316320
NOTE_ON_50
DURATION_38
POSITION_316320
NOTE_ON_66
DURATION_40
POSITION_316415
NOTE_ON_62
DURATION_55
POSITION_316511
NOTE_ON_61
DURATION_36
POSITION_316518
NOTE_ON_54
DURATION_32
POSITION_316589
NOTE_ON_62
DURATION_61
POSITION_316705
NOTE_ON_55
DURATION_54
POSITION_316694
NOTE_ON_71
DURATION_126
POSITION_316790
NOTE_ON_69
DURATION_101
POSITION_316887
NOTE_ON_47
DURATION_39
POSITION_316889
NOTE_ON_67
DURATION_38
POSITION_316980
NOTE_ON_62
DURATION_61
POSITION_317082
NOTE_ON_52
DURATION_39
POSITION_317080
NOTE_ON_61
DURATION_54
POSITION_317166
NOTE_ON_62
DURATION_60
POSITION_317280
NOTE_ON_54
DURATION_83
POSITION_317277
NOTE_ON_69
DURATION_118
POSITION_317372
NOTE_ON_67
DURATION_88
POSITION_317467
NOTE_ON_66
DURATION_65
POSITION_317466
NOTE_ON_45
DURATION_86
POSITION_317548
NOTE_ON_62
DURATION_76
POSITION_317656
NOTE_ON_50
DURATION_30
POSITION_317656
NOTE_ON_61
DURATION_61
POSITION_317747
NOTE_ON_62
DURATION_64
POSITION_317863
NOTE_ON_52
DURATION_132
POSITION_318069
NOTE_ON_43
DURATION_39
POSITION_317869
NOTE_ON_67
DURATION_244
POSITION_317979
NOTE_ON_66
DURATION_150
POSITION_318075
NOTE_ON_64
DURATION_73
POSITION_318162
NOTE_ON_62
DURATION_68
POSITION_318252
NOTE_ON_47
DURATION_45
POSITION_318261
NOTE_ON_61
DURATION_91
POSITION_318347
NOTE_ON_59
DURATION_62
POSITION_318446
NOTE_ON_49
DURATION_78
POSITION_318446
NOTE_ON_57
DURATION_92
POSITION_318543
NOTE_ON_61
DURATION_103
POSITION_318638
NOTE_ON_64
DURATION_55
POSITION_318730
NOTE_ON_69
DURATION_109
POSITION_318640
NOTE_ON_57
DURATION_215
POSITION_318848
NOTE_ON_55
DURATION_38
POSITION_318837
NOTE_ON_73
DURATION_84
POSITION_318919
NOTE_ON_76
DURATION_60
POSITION_319021
NOTE_ON_54
DURATION_25
POSITION_319021
NOTE_ON_81
DURATION_28
POSITION_319230
NOTE_ON_43
DURATION_30
POSITION_319227
NOTE_ON_74
DURATION_33
POSITION_319235
NOTE_ON_66
DURATION_45
POSITION_319442
NOTE_ON_73
DURATION_35
POSITION_319445
NOTE_ON_45
DURATION_35
POSITION_319448
NOTE_ON_64
DURATION_35
POSITION_319707
NOTE_ON_38
DURATION_378
POSITION_319698
NOTE_ON_74
DURATION_388
POSITION_319705
NOTE_ON_66
DURATION_384
POSITION_320253
NOTE_ON_57
DURATION_105
POSITION_320382
NOTE_ON_59
DURATION_86
POSITION_320482
NOTE_ON_61
DURATION_66
POSITION_320377
NOTE_ON_81
DURATION_216
POSITION_320583
NOTE_ON_78
DURATION_37
POSITION_320584
NOTE_ON_62
DURATION_140
POSITION_320677
NOTE_ON_57
DURATION_72
POSITION_320769
NOTE_ON_54
DURATION_72
POSITION_320860
NOTE_ON_57
DURATION_93
POSITION_320798
NOTE_ON_74
DURATION_158
POSITION_320973
NOTE_ON_52
DURATION_70
POSITION_320978
NOTE_ON_73
DURATION_196
POSITION_321063
NOTE_ON_55
DURATION_114
POSITION_321169
NOTE_ON_54
DURATION_66
POSITION_321265
NOTE_ON_57
DURATION_79
POSITION_321173
NOTE_ON_74
DURATION_211
POSITION_321378
NOTE_ON_55
DURATION_75
POSITION_321478
NOTE_ON_59
DURATION_72
POSITION_321380
NOTE_ON_76
DURATION_234
POSITION_321582
NOTE_ON_57
DURATION_58
POSITION_321684
NOTE_ON_60
DURATION_52
POSITION_321581
NOTE_ON_78
DURATION_184
POSITION_321783
NOTE_ON_59
DURATION_67
POSITION_321783
NOTE_ON_79
DURATION_69
POSITION_321876
NOTE_ON_62
DURATION_42
POSITION_321885
NOTE_ON_81
DURATION_36
POSITION_321979
NOTE_ON_60
DURATION_34
POSITION_321980
NOTE_ON_83
DURATION_43
POSITION_322033
NOTE_ON_81
DURATION_81
POSITION_322065
NOTE_ON_64
DURATION_68
POSITION_322119
NOTE_ON_81
DURATION_36
POSITION_322140
NOTE_ON_62
DURATION_65
POSITION_322148
NOTE_ON_83
DURATION_66
POSITION_322236
NOTE_ON_66
DURATION_43
POSITION_322241
NOTE_ON_79
DURATION_50
POSITION_322295
NOTE_ON_81
DURATION_78
POSITION_322356
NOTE_ON_67
DURATION_58
POSITION_322480
NOTE_ON_62
DURATION_59
POSITION_322586
NOTE_ON_59
DURATION_78
POSITION_322667
NOTE_ON_62
DURATION_106
POSITION_322765
NOTE_ON_71
DURATION_37
POSITION_322364
NOTE_ON_83
DURATION_449
POSITION_322785
NOTE_ON_55
DURATION_63
POSITION_322872
NOTE_ON_59
DURATION_66
POSITION_322971
NOTE_ON_60
DURATION_43
POSITION_323076
NOTE_ON_59
DURATION_71
POSITION_322969
NOTE_ON_76
DURATION_209
POSITION_323174
NOTE_ON_57
DURATION_37
POSITION_323172
NOTE_ON_75
DURATION_44
POSITION_323259
NOTE_ON_59
DURATION_75
POSITION_323364
NOTE_ON_55
DURATION_52
POSITION_323367
NOTE_ON_76
DURATION_91
POSITION_323456
NOTE_ON_59
DURATION_98
POSITION_323586
NOTE_ON_54
DURATION_72
POSITION_323686
NOTE_ON_57
DURATION_75
POSITION_323585
NOTE_ON_81
DURATION_215
POSITION_323791
NOTE_ON_52
DURATION_61
POSITION_323883
NOTE_ON_57
DURATION_77
POSITION_323792
NOTE_ON_72
DURATION_203
POSITION_324006
NOTE_ON_51
DURATION_71
POSITION_324084
NOTE_ON_57
DURATION_90
POSITION_323999
NOTE_ON_71
DURATION_182
POSITION_324208
NOTE_ON_52
DURATION_86
POSITION_324296
NOTE_ON_55
DURATION_86
POSITION_324205
NOTE_ON_79
DURATION_201
POSITION_324401
NOTE_ON_50
DURATION_59
POSITION_324408
NOTE_ON_81
DURATION_91
POSITION_324489
NOTE_ON_55
DURATION_66
POSITION_324491
NOTE_ON_79
DURATION_116
POSITION_324577
NOTE_ON_48
DURATION_75
POSITION_324584
NOTE_ON_78
DURATION_92
POSITION_324669
NOTE_ON_57
DURATION_53
POSITION_324672
NOTE_ON_76
DURATION_101
POSITION_324779
NOTE_ON_75
DURATION_42
POSITION_324780
NOTE_ON_59
DURATION_67
POSITION_324870
NOTE_ON_54
DURATION_70
POSITION_324988
NOTE_ON_71
DURATION_39
POSITION_324999
NOTE_ON_51
DURATION_33
POSITION_325063
NOTE_ON_54
DURATION_77
POSITION_325208
NOTE_ON_45
DURATION_76
POSITION_325298
NOTE_ON_51
DURATION_57
POSITION_325444
NOTE_ON_43
DURATION_109
POSITION_325558
NOTE_ON_47
DURATION_89
POSITION_325208
NOTE_ON_83
DURATION_463
POSITION_325652
NOTE_ON_52
DURATION_45
POSITION_325651
NOTE_ON_79
DURATION_51
POSITION_325752
NOTE_ON_47
DURATION_60
POSITION_325851
NOTE_ON_55
DURATION_69
POSITION_325959
NOTE_ON_52
DURATION_105
POSITION_326059
NOTE_ON_58
DURATION_83
POSITION_325852
NOTE_ON_76
DURATION_363
POSITION_326166
NOTE_ON_59
DURATION_78
POSITION_326191
NOTE_ON_75
DURATION_53
POSITION_326285
NOTE_ON_76
DURATION_222
POSITION_326386
NOTE_ON_75
DURATION_125
POSITION_326481
NOTE_ON_73
DURATION_67
POSITION_326558
NOTE_ON_71
DURATION_80
POSITION_326664
NOTE_ON_81
DURATION_56
POSITION_326279
NOTE_ON_47
DURATION_522
POSITION_326735
NOTE_ON_49
DURATION_120
POSITION_326873
NOTE_ON_78
DURATION_30
POSITION_326847
NOTE_ON_51
DURATION_94
POSITION_326946
NOTE_ON_47
DURATION_102
POSITION_327074
NOTE_ON_54
DURATION_83
POSITION_327169
NOTE_ON_47
DURATION_102
POSITION_327297
NOTE_ON_55
DURATION_121
POSITION_327082
NOTE_ON_75
DURATION_349
POSITION_327435
NOTE_ON_57
DURATION_105
POSITION_327439
NOTE_ON_73
DURATION_102
POSITION_327546
NOTE_ON_76
DURATION_107
POSITION_327642
NOTE_ON_75
DURATION_123
POSITION_327738
NOTE_ON_73
DURATION_87
POSITION_327830
NOTE_ON_71
DURATION_73
POSITION_327547
NOTE_ON_47
DURATION_361
POSITION_327930
NOTE_ON_79
DURATION_209
POSITION_328041
NOTE_ON_49
DURATION_112
POSITION_328146
NOTE_ON_51
DURATION_68
POSITION_328244
NOTE_ON_52
DURATION_70
POSITION_328148
NOTE_ON_78
DURATION_287
POSITION_328339
NOTE_ON_54
DURATION_135
POSITION_328343
NOTE_ON_76
DURATION_135
POSITION_328439
NOTE_ON_55
DURATION_99
POSITION_328540
NOTE_ON_57
DURATION_70
POSITION_328625
NOTE_ON_59
DURATION_115
POSITION_328746
NOTE_ON_83
DURATION_112
POSITION_328729
NOTE_ON_61
DURATION_131
POSITION_328542
NOTE_ON_84
DURATION_369
POSITION_328829
NOTE_ON_63
DURATION_93
POSITION_328930
NOTE_ON_64
DURATION_72
POSITION_329010
NOTE_ON_63
DURATION_70
POSITION_329123
NOTE_ON_64
DURATION_46
POSITION_328929
NOTE_ON_81
DURATION_327
POSITION_329235
NOTE_ON_79
DURATION_79
POSITION_329329
NOTE_ON_55
DURATION_49
POSITION_329333
NOTE_ON_83
DURATION_111
POSITION_329430
NOTE_ON_81
DURATION_100
POSITION_329534
NOTE_ON_59
DURATION_34
POSITION_329534
NOTE_ON_79
DURATION_90
POSITION_329752
NOTE_ON_76
DURATION_27
POSITION_329745
NOTE_ON_52
DURATION_76
POSITION_329840
NOTE_ON_47
DURATION_65
POSITION_329936
NOTE_ON_43
DURATION_60
POSITION_330020
NOTE_ON_47
DURATION_47
POSITION_330130
NOTE_ON_40
DURATION_39
POSITION_329628
NOTE_ON_78
DURATION_565
POSITION_330147
NOTE_ON_79
DURATION_107
POSITION_330220
NOTE_ON_52
DURATION_89
POSITION_329790
NOTE_ON_76
DURATION_611
POSITION_330340
NOTE_ON_45
DURATION_76
POSITION_330435
NOTE_ON_47
DURATION_60
POSITION_330536
NOTE_ON_49
DURATION_84
POSITION_330342
NOTE_ON_73
DURATION_305
POSITION_330542
NOTE_ON_69
DURATION_155
POSITION_330635
NOTE_ON_45
DURATION_65
POSITION_330735
NOTE_ON_50
DURATION_45
POSITION_330826
NOTE_ON_45
DURATION_47
POSITION_330737
NOTE_ON_71
DURATION_190
POSITION_330928
NOTE_ON_52
DURATION_47
POSITION_331035
NOTE_ON_45
DURATION_56
POSITION_331134
NOTE_ON_54
DURATION_31
POSITION_330926
NOTE_ON_73
DURATION_243
POSITION_331234
NOTE_ON_45
DURATION_53
POSITION_331135
NOTE_ON_74
DURATION_154
POSITION_331336
NOTE_ON_55
DURATION_38
POSITION_331423
NOTE_ON_45
DURATION_49
POSITION_331340
NOTE_ON_76
DURATION_218
POSITION_331527
NOTE_ON_50
DURATION_83
POSITION_331622
NOTE_ON_52
DURATION_64
POSITION_331722
NOTE_ON_54
DURATION_65
POSITION_331811
NOTE_ON_50
DURATION_60
POSITION_331724
NOTE_ON_74
DURATION_182
POSITION_331527
NOTE_ON_78
DURATION_417
POSITION_331922
NOTE_ON_55
DURATION_43
POSITION_332006
NOTE_ON_50
DURATION_56
POSITION_331963
NOTE_ON_76
DURATION_161
POSITION_332114
NOTE_ON_57
DURATION_39
POSITION_332196
NOTE_ON_50
DURATION_48
POSITION_332115
NOTE_ON_78
DURATION_210
POSITION_332301
NOTE_ON_59
DURATION_47
POSITION_332373
NOTE_ON_50
DURATION_68
POSITION_332307
NOTE_ON_79
DURATION_174
POSITION_332494
NOTE_ON_60
DURATION_42
POSITION_332496
NOTE_ON_81
DURATION_67
POSITION_332575
NOTE_ON_50
DURATION_41
POSITION_332680
NOTE_ON_55
DURATION_98
POSITION_332772
NOTE_ON_57
DURATION_70
POSITION_332684
NOTE_ON_83
DURATION_182
POSITION_332873
NOTE_ON_59
DURATION_73
POSITION_332968
NOTE_ON_55
DURATION_69
POSITION_332884
NOTE_ON_79
DURATION_157
POSITION_333075
NOTE_ON_60
DURATION_40
POSITION_333171
NOTE_ON_55
DURATION_71
POSITION_333077
NOTE_ON_81
DURATION_216
POSITION_333275
NOTE_ON_62
DURATION_64
POSITION_333362
NOTE_ON_55
DURATION_69
POSITION_333276
NOTE_ON_83
DURATION_212
POSITION_333472
NOTE_ON_64
DURATION_67
POSITION_333560
NOTE_ON_55
DURATION_76
POSITION_333469
NOTE_ON_84
DURATION_200
POSITION_333661
NOTE_ON_86
DURATION_61
POSITION_333667
NOTE_ON_65
DURATION_56
POSITION_333747
NOTE_ON_55
DURATION_89
POSITION_333867
NOTE_ON_60
DURATION_70
POSITION_333960
NOTE_ON_62
DURATION_107
POSITION_333868
NOTE_ON_76
DURATION_213
POSITION_334069
NOTE_ON_60
DURATION_48
POSITION_334154
NOTE_ON_59
DURATION_87
POSITION_334069
NOTE_ON_78
DURATION_195
POSITION_334249
NOTE_ON_59
DURATION_23
POSITION_334274
NOTE_ON_79
DURATION_93
POSITION_334273
NOTE_ON_57
DURATION_97
POSITION_334367
NOTE_ON_55
DURATION_106
POSITION_334458
NOTE_ON_54
DURATION_79
POSITION_334554
NOTE_ON_52
DURATION_81
POSITION_334459
NOTE_ON_81
DURATION_258
POSITION_334660
NOTE_ON_74
DURATION_60
POSITION_334654
NOTE_ON_50
DURATION_98
POSITION_334758
NOTE_ON_48
DURATION_84
POSITION_334846
NOTE_ON_81
DURATION_58
POSITION_334844
NOTE_ON_47
DURATION_85
POSITION_334949
NOTE_ON_45
DURATION_94
POSITION_335057
NOTE_ON_43
DURATION_110
POSITION_335060
NOTE_ON_83
DURATION_116
POSITION_335157
NOTE_ON_47
DURATION_103
POSITION_335152
NOTE_ON_79
DURATION_115
POSITION_335254
NOTE_ON_50
DURATION_59
POSITION_335256
NOTE_ON_74
DURATION_80
POSITION_335344
NOTE_ON_55
DURATION_84
POSITION_335342
NOTE_ON_71
DURATION_99
POSITION_335428
NOTE_ON_74
DURATION_75
POSITION_335428
NOTE_ON_54
DURATION_77
POSITION_335512
NOTE_ON_52
DURATION_112
POSITION_335514
NOTE_ON_79
DURATION_115
POSITION_335605
NOTE_ON_51
DURATION_61
POSITION_335619
NOTE_ON_81
DURATION_93
POSITION_335790
NOTE_ON_47
DURATION_35
POSITION_335795
NOTE_ON_75
DURATION_40
POSITION_335703
NOTE_ON_78
DURATION_151
POSITION_335886
NOTE_ON_71
DURATION_91
POSITION_335988
NOTE_ON_51
DURATION_32
POSITION_335988
NOTE_ON_70
DURATION_61
POSITION_336073
NOTE_ON_71
DURATION_43
POSITION_336179
NOTE_ON_40
DURATION_108
POSITION_336186
NOTE_ON_79
DURATION_118
POSITION_336281
NOTE_ON_43
DURATION_98
POSITION_336282
NOTE_ON_76
DURATION_112
POSITION_336378
NOTE_ON_47
DURATION_61
POSITION_336379
NOTE_ON_71
DURATION_78
POSITION_336466
NOTE_ON_52
DURATION_84
POSITION_336467
NOTE_ON_67
DURATION_85
POSITION_336564
NOTE_ON_71
DURATION_56
POSITION_336562
NOTE_ON_50
DURATION_86
POSITION_336649
NOTE_ON_48
DURATION_87
POSITION_336650
NOTE_ON_76
DURATION_118
POSITION_336748
NOTE_ON_47
DURATION_25
POSITION_336750
NOTE_ON_77
DURATION_53
POSITION_336841
NOTE_ON_74
DURATION_99
POSITION_336939
NOTE_ON_43
DURATION_34
POSITION_336939
NOTE_ON_71
DURATION_61
POSITION_337026
NOTE_ON_67
DURATION_68
POSITION_337125
NOTE_ON_47
DURATION_39
POSITION_337125
NOTE_ON_66
DURATION_69
POSITION_337215
NOTE_ON_67
DURATION_88
POSITION_337331
NOTE_ON_36
DURATION_40
POSITION_337425
NOTE_ON_74
DURATION_108
POSITION_337332
NOTE_ON_76
DURATION_219
POSITION_337524
NOTE_ON_43
DURATION_41
POSITION_337526
NOTE_ON_72
DURATION_96
POSITION_337616
NOTE_ON_71
DURATION_54
POSITION_337736
NOTE_ON_69
DURATION_57
POSITION_337734
NOTE_ON_48
DURATION_178
POSITION_337920
NOTE_ON_66
DURATION_138
POSITION_337814
NOTE_ON_67
DURATION_259
POSITION_337916
NOTE_ON_48
DURATION_196
POSITION_338021
NOTE_ON_69
DURATION_94
POSITION_338128
NOTE_ON_42
DURATION_48
POSITION_338116
NOTE_ON_72
DURATION_88
POSITION_338202
NOTE_ON_74
DURATION_117
POSITION_338307
NOTE_ON_45
DURATION_37
POSITION_338308
NOTE_ON_78
DURATION_84
POSITION_338391
NOTE_ON_81
DURATION_87
POSITION_338484
NOTE_ON_35
DURATION_68
POSITION_338486
NOTE_ON_86
DURATION_70
POSITION_338694
NOTE_ON_79
DURATION_30
POSITION_338702
NOTE_ON_36
DURATION_36
POSITION_338700
NOTE_ON_71
DURATION_49
POSITION_338917
NOTE_ON_69
DURATION_28
POSITION_338918
NOTE_ON_78
DURATION_29
POSITION_338921
NOTE_ON_38
DURATION_38
POSITION_339171
NOTE_ON_71
DURATION_292
POSITION_339157
NOTE_ON_79
DURATION_317
POSITION_339174
NOTE_ON_31
DURATION_301
POSITION_339602
NOTE_ON_57
DURATION_107
POSITION_339722
NOTE_ON_59
DURATION_122
POSITION_339826
NOTE_ON_61
DURATION_56
POSITION_339721
NOTE_ON_81
DURATION_249
POSITION_339923
NOTE_ON_62
DURATION_53
POSITION_340027
NOTE_ON_57
DURATION_55
POSITION_339922
NOTE_ON_78
DURATION_232
POSITION_340118
NOTE_ON_54
DURATION_64
POSITION_340122
NOTE_ON_74
DURATION_132
POSITION_340198
NOTE_ON_57
DURATION_74
POSITION_340295
NOTE_ON_52
DURATION_40
POSITION_340294
NOTE_ON_73
DURATION_45
POSITION_340321
NOTE_ON_74
DURATION_52
POSITION_340381
NOTE_ON_73
DURATION_23
POSITION_340414
NOTE_ON_71
DURATION_40
POSITION_340378
NOTE_ON_55
DURATION_89
POSITION_340490
NOTE_ON_54
DURATION_66
POSITION_340496
NOTE_ON_74
DURATION_62
POSITION_340594
NOTE_ON_57
DURATION_85
POSITION_340703
NOTE_ON_55
DURATION_71
POSITION_340803
NOTE_ON_59
DURATION_85
POSITION_340711
NOTE_ON_76
DURATION_207
POSITION_340915
NOTE_ON_57
DURATION_72
POSITION_341012
NOTE_ON_60
DURATION_66
POSITION_340913
NOTE_ON_78
DURATION_217
POSITION_341119
NOTE_ON_79
DURATION_47
POSITION_341125
NOTE_ON_59
DURATION_61
POSITION_341217
NOTE_ON_81
DURATION_52
POSITION_341217
NOTE_ON_62
DURATION_56
POSITION_341290
NOTE_ON_83
DURATION_62
POSITION_341311
NOTE_ON_60
DURATION_65
POSITION_341342
NOTE_ON_81
DURATION_87
POSITION_341397
NOTE_ON_64
DURATION_58
POSITION_341438
NOTE_ON_81
DURATION_36
POSITION_341479
NOTE_ON_62
DURATION_65
POSITION_341533
NOTE_ON_79
DURATION_44
POSITION_341562
NOTE_ON_66
DURATION_40
POSITION_341590
NOTE_ON_81
DURATION_52
POSITION_341657
NOTE_ON_67
DURATION_56
POSITION_341768
NOTE_ON_62
DURATION_72
POSITION_341842
NOTE_ON_59
DURATION_136
POSITION_341945
NOTE_ON_62
DURATION_99
POSITION_342032
NOTE_ON_71
DURATION_26
POSITION_341647
NOTE_ON_83
DURATION_420
POSITION_342040
NOTE_ON_55
DURATION_69
POSITION_342139
NOTE_ON_59
DURATION_62
POSITION_342242
NOTE_ON_60
DURATION_43
POSITION_342336
NOTE_ON_59
DURATION_94
POSITION_342244
NOTE_ON_76
DURATION_237
POSITION_342425
NOTE_ON_57
DURATION_59
POSITION_342447
NOTE_ON_75
DURATION_76
POSITION_342513
NOTE_ON_59
DURATION_80
POSITION_342622
NOTE_ON_76
DURATION_49
POSITION_342620
NOTE_ON_55
DURATION_64
POSITION_342716
NOTE_ON_59
DURATION_97
POSITION_342838
NOTE_ON_54
DURATION_84
POSITION_342935
NOTE_ON_57
DURATION_80
POSITION_343041
NOTE_ON_52
DURATION_60
POSITION_343139
NOTE_ON_57
DURATION_78
POSITION_343045
NOTE_ON_72
DURATION_232
POSITION_343259
NOTE_ON_51
DURATION_121
POSITION_343257
NOTE_ON_71
DURATION_131
POSITION_343361
NOTE_ON_57
DURATION_90
POSITION_342835
NOTE_ON_81
DURATION_622
POSITION_343476
NOTE_ON_52
DURATION_85
POSITION_343561
NOTE_ON_55
DURATION_91
POSITION_343476
NOTE_ON_79
DURATION_199
POSITION_343667
NOTE_ON_50
DURATION_77
POSITION_343682
NOTE_ON_81
DURATION_109
POSITION_343760
NOTE_ON_55
DURATION_69
POSITION_343762
NOTE_ON_79
DURATION_119
POSITION_343852
NOTE_ON_48
DURATION_88
POSITION_343862
NOTE_ON_78
DURATION_83
POSITION_343947
NOTE_ON_57
DURATION_54
POSITION_343951
NOTE_ON_76
DURATION_62
POSITION_344049
NOTE_ON_75
DURATION_60
POSITION_344049
NOTE_ON_59
DURATION_78
POSITION_344137
NOTE_ON_54
DURATION_87
POSITION_344262
NOTE_ON_71
DURATION_37
POSITION_344262
NOTE_ON_51
DURATION_41
POSITION_344336
NOTE_ON_54
DURATION_65
POSITION_344477
NOTE_ON_45
DURATION_79
POSITION_344574
NOTE_ON_51
DURATION_46
POSITION_344716
NOTE_ON_43
DURATION_131
POSITION_344822
NOTE_ON_47
DURATION_89
POSITION_344920
NOTE_ON_52
DURATION_64
POSITION_344481
NOTE_ON_83
DURATION_512
POSITION_344936
NOTE_ON_79
DURATION_59
POSITION_345019
NOTE_ON_47
DURATION_46
POSITION_345129
NOTE_ON_55
DURATION_98
POSITION_345234
NOTE_ON_52
DURATION_131
POSITION_345366
NOTE_ON_58
DURATION_82
POSITION_345132
NOTE_ON_76
DURATION_383
POSITION_345473
NOTE_ON_59
DURATION_84
POSITION_345492
NOTE_ON_75
DURATION_100
POSITION_345598
NOTE_ON_76
DURATION_136
POSITION_345687
NOTE_ON_75
DURATION_86
POSITION_345776
NOTE_ON_73
DURATION_75
POSITION_345858
NOTE_ON_71
DURATION_102
POSITION_345966
NOTE_ON_81
DURATION_40
POSITION_345563
NOTE_ON_47
DURATION_521
POSITION_346056
NOTE_ON_49
DURATION_111
POSITION_346170
NOTE_ON_78
DURATION_32
POSITION_346167
NOTE_ON_51
DURATION_90
POSITION_346266
NOTE_ON_47
DURATION_101
POSITION_346381
NOTE_ON_75
DURATION_47
POSITION_346379
NOTE_ON_54
DURATION_79
POSITION_346474
NOTE_ON_47
DURATION_82
POSITION_346619
NOTE_ON_55
DURATION_120
POSITION_346752
NOTE_ON_57
DURATION_86
POSITION_346748
NOTE_ON_73
DURATION_99
POSITION_346852
NOTE_ON_76
DURATION_114
POSITION_346953
NOTE_ON_75
DURATION_121
POSITION_347049
NOTE_ON_73
DURATION_81
POSITION_347138
NOTE_ON_71
DURATION_166
POSITION_346866
NOTE_ON_47
DURATION_511
POSITION_347255
NOTE_ON_79
DURATION_130
POSITION_347387
NOTE_ON_49
DURATION_99
POSITION_347467
NOTE_ON_51
DURATION_74
POSITION_347466
NOTE_ON_78
DURATION_176
POSITION_347565
NOTE_ON_52
DURATION_86
POSITION_347671
NOTE_ON_54
DURATION_176
POSITION_347774
NOTE_ON_55
DURATION_88
POSITION_347663
NOTE_ON_76
DURATION_202
POSITION_347868
NOTE_ON_57
DURATION_76
POSITION_347864
NOTE_ON_84
DURATION_205
POSITION_347958
NOTE_ON_59
DURATION_125
POSITION_348063
NOTE_ON_61
DURATION_123
POSITION_348159
NOTE_ON_63
DURATION_83
POSITION_348261
NOTE_ON_64
DURATION_69
POSITION_348064
NOTE_ON_83
DURATION_277
POSITION_348346
NOTE_ON_63
DURATION_68
POSITION_348453
NOTE_ON_64
DURATION_50
POSITION_348261
NOTE_ON_81
DURATION_295
POSITION_348536
NOTE_ON_79
DURATION_74
POSITION_348644
NOTE_ON_55
DURATION_47
POSITION_348644
NOTE_ON_83
DURATION_109
POSITION_348737
NOTE_ON_81
DURATION_114
POSITION_348841
NOTE_ON_59
DURATION_62
POSITION_348838
NOTE_ON_79
DURATION_92
POSITION_348931
NOTE_ON_78
DURATION_114
POSITION_349038
NOTE_ON_52
DURATION_77
POSITION_349129
NOTE_ON_47
DURATION_70
POSITION_349223
NOTE_ON_43
DURATION_67
POSITION_349321
NOTE_ON_47
DURATION_47
POSITION_349415
NOTE_ON_40
DURATION_36
POSITION_349468
NOTE_ON_48
DURATION_10
POSITION_349520
NOTE_ON_52
DURATION_76
POSITION_349081
NOTE_ON_76
DURATION_597
POSITION_349643
NOTE_ON_45
DURATION_80
POSITION_349738
NOTE_ON_47
DURATION_52
POSITION_349644
NOTE_ON_73
DURATION_203
POSITION_349845
NOTE_ON_49
DURATION_62
POSITION_349927
NOTE_ON_45
DURATION_44
POSITION_349443
NOTE_ON_79
DURATION_573
POSITION_349851
NOTE_ON_69
DURATION_195
POSITION_350035
NOTE_ON_50
DURATION_39
POSITION_350120
NOTE_ON_45
DURATION_47
POSITION_350036
NOTE_ON_71
DURATION_186
POSITION_350227
NOTE_ON_52
DURATION_45
POSITION_350319
NOTE_ON_45
DURATION_63
POSITION_350226
NOTE_ON_73
DURATION_163
POSITION_350434
NOTE_ON_54
DURATION_37
POSITION_350519
NOTE_ON_45
DURATION_77
POSITION_350435
NOTE_ON_74
DURATION_161
POSITION_350635
NOTE_ON_55
DURATION_39
POSITION_350721
NOTE_ON_45
DURATION_82
POSITION_350639
NOTE_ON_76
DURATION_221
POSITION_350835
NOTE_ON_50
DURATION_75
POSITION_350929
NOTE_ON_52
DURATION_67
POSITION_350834
NOTE_ON_78
DURATION_234
POSITION_351042
NOTE_ON_54
DURATION_60
POSITION_351125
NOTE_ON_50
DURATION_59
POSITION_351044
NOTE_ON_74
DURATION_157
POSITION_351232
NOTE_ON_55
DURATION_57
POSITION_351325
NOTE_ON_50
DURATION_51
POSITION_351262
NOTE_ON_76
DURATION_147
POSITION_351422
NOTE_ON_57
DURATION_58
POSITION_351518
NOTE_ON_50
DURATION_59
POSITION_351419
NOTE_ON_78
DURATION_186
POSITION_351621
NOTE_ON_59
DURATION_67
POSITION_351618
NOTE_ON_79
DURATION_148
POSITION_351708
NOTE_ON_50
DURATION_61
POSITION_351814
NOTE_ON_60
DURATION_40
POSITION_351880
NOTE_ON_50
DURATION_35
POSITION_351810
NOTE_ON_81
DURATION_183
POSITION_352001
NOTE_ON_55
DURATION_91
POSITION_352106
NOTE_ON_57
DURATION_64
POSITION_352001
NOTE_ON_83
DURATION_219
POSITION_352216
NOTE_ON_59
DURATION_54
POSITION_352209
NOTE_ON_79
DURATION_117
POSITION_352303
NOTE_ON_55
DURATION_62
POSITION_352394
NOTE_ON_60
DURATION_53
POSITION_352494
NOTE_ON_55
DURATION_77
POSITION_352392
NOTE_ON_81
DURATION_207
POSITION_352594
NOTE_ON_62
DURATION_69
POSITION_352697
NOTE_ON_55
DURATION_80
POSITION_352591
NOTE_ON_83
DURATION_235
POSITION_352801
NOTE_ON_64
DURATION_65
POSITION_352892
NOTE_ON_55
DURATION_68
POSITION_352785
NOTE_ON_84
DURATION_202
POSITION_352996
NOTE_ON_65
DURATION_55
POSITION_352986
NOTE_ON_86
DURATION_72
POSITION_353071
NOTE_ON_55
DURATION_58
POSITION_353191
NOTE_ON_60
DURATION_93
POSITION_353292
NOTE_ON_62
DURATION_108
POSITION_353187
NOTE_ON_76
DURATION_241
POSITION_353391
NOTE_ON_60
DURATION_55
POSITION_353478
NOTE_ON_59
DURATION_95
POSITION_353382
NOTE_ON_78
DURATION_205
POSITION_353574
NOTE_ON_57
DURATION_94
POSITION_353574
NOTE_ON_79
DURATION_96
POSITION_353665
NOTE_ON_55
DURATION_109
POSITION_353754
NOTE_ON_54
DURATION_80
POSITION_353852
NOTE_ON_52
DURATION_84
POSITION_353959
NOTE_ON_74
DURATION_63
POSITION_353756
NOTE_ON_81
DURATION_267
POSITION_353953
NOTE_ON_50
DURATION_89
POSITION_354054
NOTE_ON_48
DURATION_82
POSITION_354145
NOTE_ON_81
DURATION_51
POSITION_354143
NOTE_ON_47
DURATION_90
POSITION_354246
NOTE_ON_45
DURATION_95
POSITION_354357
NOTE_ON_43
DURATION_108
POSITION_354359
NOTE_ON_83
DURATION_113
POSITION_354452
NOTE_ON_47
DURATION_103
POSITION_354451
NOTE_ON_79
DURATION_108
POSITION_354551
NOTE_ON_50
DURATION_61
POSITION_354553
NOTE_ON_74
DURATION_81
POSITION_354643
NOTE_ON_55
DURATION_80
POSITION_354640
NOTE_ON_71
DURATION_96
POSITION_354727
NOTE_ON_74
DURATION_62
POSITION_354727
NOTE_ON_54
DURATION_77
POSITION_354812
NOTE_ON_52
DURATION_107
POSITION_354813
NOTE_ON_79
DURATION_117
POSITION_354903
NOTE_ON_51
DURATION_36
POSITION_354920
NOTE_ON_81
DURATION_91
POSITION_355002
NOTE_ON_78
DURATION_93
POSITION_355089
NOTE_ON_47
DURATION_35
POSITION_355094
NOTE_ON_75
DURATION_58
POSITION_355185
NOTE_ON_71
DURATION_94
POSITION_355286
NOTE_ON_51
DURATION_33
POSITION_355285
NOTE_ON_70
DURATION_63
POSITION_355372
NOTE_ON_71
DURATION_46
POSITION_355478
NOTE_ON_40
DURATION_109
POSITION_355580
NOTE_ON_43
DURATION_96
POSITION_355675
NOTE_ON_47
DURATION_60
POSITION_355677
NOTE_ON_71
DURATION_74
POSITION_355581
NOTE_ON_76
DURATION_225
POSITION_355766
NOTE_ON_67
DURATION_72
POSITION_355482
NOTE_ON_79
DURATION_363
POSITION_355765
NOTE_ON_52
DURATION_82
POSITION_355862
NOTE_ON_71
DURATION_63
POSITION_355861
NOTE_ON_50
DURATION_88
POSITION_355948
NOTE_ON_48
DURATION_92
POSITION_355948
NOTE_ON_76
DURATION_120
POSITION_356047
NOTE_ON_47
DURATION_26
POSITION_356049
NOTE_ON_77
DURATION_56
POSITION_356140
NOTE_ON_74
DURATION_94
POSITION_356236
NOTE_ON_43
DURATION_36
POSITION_356237
NOTE_ON_71
DURATION_56
POSITION_356325
NOTE_ON_67
DURATION_75
POSITION_356423
NOTE_ON_47
DURATION_41
POSITION_356424
NOTE_ON_66
DURATION_65
POSITION_356512
NOTE_ON_67
DURATION_88
POSITION_356640
NOTE_ON_36
DURATION_39
POSITION_356640
NOTE_ON_76
DURATION_108
POSITION_356737
NOTE_ON_74
DURATION_86
POSITION_356840
NOTE_ON_43
DURATION_43
POSITION_356841
NOTE_ON_72
DURATION_127
POSITION_356937
NOTE_ON_71
DURATION_113
POSITION_357045
NOTE_ON_69
DURATION_56
POSITION_357130
NOTE_ON_67
DURATION_94
POSITION_357233
NOTE_ON_66
DURATION_116
POSITION_357336
NOTE_ON_69
DURATION_108
POSITION_357044
NOTE_ON_48
DURATION_411
POSITION_357430
NOTE_ON_72
DURATION_46
POSITION_357453
NOTE_ON_42
DURATION_89
POSITION_357526
NOTE_ON_74
DURATION_111
POSITION_357628
NOTE_ON_45
DURATION_48
POSITION_357628
NOTE_ON_78
DURATION_121
POSITION_357712
NOTE_ON_81
DURATION_152
POSITION_357815
NOTE_ON_35
DURATION_62
POSITION_357816
NOTE_ON_86
DURATION_64
POSITION_358029
NOTE_ON_79
DURATION_29
POSITION_358033
NOTE_ON_71
DURATION_30
POSITION_358035
NOTE_ON_36
DURATION_36
POSITION_358262
NOTE_ON_69
DURATION_24
POSITION_358264
NOTE_ON_38
DURATION_32
POSITION_358261
NOTE_ON_78
DURATION_49
POSITION_358552
NOTE_ON_79
DURATION_556
POSITION_358556
NOTE_ON_31
DURATION_553
POSITION_358553
NOTE_ON_71
DURATION_556
POSITION_362140
NOTE_ON_71
DURATION_87
POSITION_362137
NOTE_ON_74
DURATION_250
POSITION_362291
NOTE_ON_71
DURATION_593
POSITION_362295
NOTE_ON_67
DURATION_597
POSITION_362825
NOTE_ON_72
DURATION_192
POSITION_362831
NOTE_ON_69
DURATION_198
POSITION_362990
NOTE_ON_74
DURATION_727
POSITION_362998
NOTE_ON_71
DURATION_726
POSITION_363574
NOTE_ON_55
DURATION_185
POSITION_363727
NOTE_ON_53
DURATION_802
POSITION_363729
NOTE_ON_71
DURATION_800
POSITION_363726
NOTE_ON_74
DURATION_806
POSITION_364312
NOTE_ON_52
DURATION_221
POSITION_364477
NOTE_ON_76
DURATION_650
POSITION_364497
NOTE_ON_50
DURATION_648
POSITION_364498
NOTE_ON_72
DURATION_808
POSITION_365117
NOTE_ON_48
DURATION_192
POSITION_365103
NOTE_ON_77
DURATION_215
POSITION_365119
NOTE_ON_74
DURATION_200
POSITION_365310
NOTE_ON_57
DURATION_231
POSITION_365310
NOTE_ON_72
DURATION_383
POSITION_365287
NOTE_ON_76
DURATION_413
POSITION_365498
NOTE_ON_56
DURATION_389
POSITION_365827
NOTE_ON_52
DURATION_266
POSITION_365672
NOTE_ON_74
DURATION_1009
POSITION_365694
NOTE_ON_71
DURATION_1141
POSITION_366656
NOTE_ON_72
DURATION_200
POSITION_366650
NOTE_ON_76
DURATION_211
POSITION_366846
NOTE_ON_71
DURATION_425
POSITION_366844
NOTE_ON_74
DURATION_433
POSITION_366038
NOTE_ON_57
DURATION_1580
POSITION_367390
NOTE_ON_55
DURATION_261
POSITION_368166
NOTE_ON_74
DURATION_244
POSITION_367239
NOTE_ON_72
DURATION_1172
POSITION_367608
NOTE_ON_54
DURATION_803
POSITION_367243
NOTE_ON_69
DURATION_1169
POSITION_368193
NOTE_ON_50
DURATION_220
POSITION_368375
NOTE_ON_71
DURATION_748
POSITION_368390
NOTE_ON_67
DURATION_741
POSITION_368924
NOTE_ON_69
DURATION_247
POSITION_368928
NOTE_ON_66
DURATION_244
POSITION_368391
NOTE_ON_55
DURATION_782
POSITION_369132
NOTE_ON_71
DURATION_775
POSITION_369142
NOTE_ON_67
DURATION_780
POSITION_369698
NOTE_ON_72
DURATION_229
POSITION_369703
NOTE_ON_69
DURATION_228
POSITION_369142
NOTE_ON_48
DURATION_837
POSITION_369927
NOTE_ON_67
DURATION_1014
POSITION_370874
NOTE_ON_66
DURATION_108
POSITION_369918
NOTE_ON_71
DURATION_1156
POSITION_369928
NOTE_ON_50
DURATION_1615
POSITION_370993
NOTE_ON_66
DURATION_557
POSITION_370901
NOTE_ON_38
DURATION_688
POSITION_370868
NOTE_ON_69
DURATION_774
POSITION_371653
NOTE_ON_69
DURATION_204
POSITION_371617
NOTE_ON_78
DURATION_263
POSITION_371809
NOTE_ON_74
DURATION_634
POSITION_371813
NOTE_ON_66
DURATION_632
POSITION_372324
NOTE_ON_76
DURATION_241
POSITION_372328
NOTE_ON_67
DURATION_246
POSITION_372542
NOTE_ON_69
DURATION_762
POSITION_373056
NOTE_ON_62
DURATION_249
POSITION_372536
NOTE_ON_78
DURATION_769
POSITION_373252
NOTE_ON_79
DURATION_808
POSITION_373813
NOTE_ON_59
DURATION_253
POSITION_373260
NOTE_ON_71
DURATION_806
POSITION_373267
NOTE_ON_60
DURATION_810
POSITION_374032
NOTE_ON_57
DURATION_718
POSITION_374009
NOTE_ON_81
DURATION_741
POSITION_374027
NOTE_ON_72
DURATION_726
POSITION_374557
NOTE_ON_55
DURATION_206
POSITION_374556
NOTE_ON_74
DURATION_220
POSITION_374560
NOTE_ON_67
DURATION_554
POSITION_374534
NOTE_ON_83
DURATION_887
POSITION_374782
NOTE_ON_74
DURATION_839
POSITION_374793
NOTE_ON_60
DURATION_1553
POSITION_376130
NOTE_ON_78
DURATION_232
POSITION_374757
NOTE_ON_76
DURATION_1647
POSITION_375348
NOTE_ON_67
DURATION_1071
POSITION_376895
NOTE_ON_71
DURATION_234
POSITION_375559
NOTE_ON_72
DURATION_1728
POSITION_375586
NOTE_ON_57
DURATION_2316
POSITION_377728
NOTE_ON_78
DURATION_188
POSITION_377802
NOTE_ON_76
DURATION_121
POSITION_377129
NOTE_ON_60
DURATION_803
POSITION_376351
NOTE_ON_64
DURATION_1581
POSITION_376337
NOTE_ON_79
DURATION_1595
POSITION_377124
NOTE_ON_69
DURATION_824
POSITION_377929
NOTE_ON_71
DURATION_528
POSITION_377909
NOTE_ON_74
DURATION_599
POSITION_378421
NOTE_ON_72
DURATION_216
POSITION_378428
NOTE_ON_69
DURATION_211
POSITION_379165
NOTE_ON_72
DURATION_211
POSITION_379180
NOTE_ON_66
DURATION_219
POSITION_377947
NOTE_ON_62
DURATION_1498
POSITION_378640
NOTE_ON_67
DURATION_897
POSITION_379403
NOTE_ON_66
DURATION_966
POSITION_378619
NOTE_ON_81
DURATION_1756
POSITION_379387
NOTE_ON_72
DURATION_995
POSITION_379414
NOTE_ON_55
DURATION_1475
POSITION_380892
NOTE_ON_74
DURATION_274
POSITION_380333
NOTE_ON_43
DURATION_856
POSITION_380331
NOTE_ON_71
DURATION_896
POSITION_380328
NOTE_ON_67
DURATION_1068
POSITION_381117
NOTE_ON_59
DURATION_681
POSITION_381078
NOTE_ON_79
DURATION_725
POSITION_380899
NOTE_ON_55
DURATION_919
POSITION_381636
NOTE_ON_81
DURATION_275
POSITION_381645
NOTE_ON_62
DURATION_342
POSITION_381841
NOTE_ON_83
DURATION_745
POSITION_382394
NOTE_ON_81
DURATION_381
POSITION_381863
NOTE_ON_67
DURATION_1530
POSITION_382618
NOTE_ON_79
DURATION_1320
POSITION_383184
NOTE_ON_78
DURATION_769
POSITION_382595
NOTE_ON_83
DURATION_1389
POSITION_382631
NOTE_ON_55
DURATION_1637
POSITION_384024
NOTE_ON_74
DURATION_275
POSITION_383402
NOTE_ON_76
DURATION_951
POSITION_383991
NOTE_ON_83
DURATION_431
POSITION_384798
NOTE_ON_71
DURATION_263
POSITION_384649
NOTE_ON_76
DURATION_979
POSITION_383404
NOTE_ON_67
DURATION_2239
POSITION_384257
NOTE_ON_73
DURATION_1486
POSITION_384227
NOTE_ON_78
DURATION_1531
POSITION_385018
NOTE_ON_69
DURATION_837
POSITION_385648
NOTE_ON_67
DURATION_216
POSITION_385638
NOTE_ON_76
DURATION_227
POSITION_386423
NOTE_ON_73
DURATION_248
POSITION_386423
NOTE_ON_64
DURATION_254
POSITION_385826
NOTE_ON_81
DURATION_1591
POSITION_387220
NOTE_ON_83
DURATION_274
POSITION_387422
NOTE_ON_81
DURATION_279
POSITION_387610
NOTE_ON_80
DURATION_176
POSITION_387709
NOTE_ON_81
DURATION_83
POSITION_385837
NOTE_ON_66
DURATION_1979
POSITION_386644
NOTE_ON_62
DURATION_1180
POSITION_387790
NOTE_ON_80
DURATION_62
POSITION_387861
NOTE_ON_81
DURATION_132
POSITION_387936
NOTE_ON_80
DURATION_134
POSITION_388003
NOTE_ON_81
DURATION_121
POSITION_388074
NOTE_ON_80
DURATION_67
POSITION_387810
NOTE_ON_59
DURATION_353
POSITION_388134
NOTE_ON_81
DURATION_612
POSITION_388205
NOTE_ON_80
DURATION_560
POSITION_388157
NOTE_ON_64
DURATION_608
POSITION_386622
NOTE_ON_71
DURATION_2201
POSITION_388756
NOTE_ON_81
DURATION_189
POSITION_388782
NOTE_ON_62
DURATION_249
POSITION_389581
NOTE_ON_64
DURATION_246
POSITION_388957
NOTE_ON_81
DURATION_1317
POSITION_389973
NOTE_ON_79
DURATION_531
POSITION_388990
NOTE_ON_61
DURATION_1566
POSITION_390319
NOTE_ON_81
DURATION_242
POSITION_390323
NOTE_ON_57
DURATION_240
POSITION_390149
NOTE_ON_78
DURATION_418
POSITION_390510
NOTE_ON_79
DURATION_196
POSITION_390517
NOTE_ON_59
DURATION_341
POSITION_390865
NOTE_ON_59
DURATION_222
POSITION_390683
NOTE_ON_78
DURATION_459
POSITION_391047
NOTE_ON_79
DURATION_252
POSITION_390875
NOTE_ON_76
DURATION_505
POSITION_391071
NOTE_ON_61
DURATION_386
POSITION_389790
NOTE_ON_69
DURATION_2166
POSITION_391283
NOTE_ON_78
DURATION_825
POSITION_391860
NOTE_ON_50
DURATION_252
POSITION_391307
NOTE_ON_62
DURATION_806
POSITION_392082
NOTE_ON_55
DURATION_89
POSITION_392176
NOTE_ON_55
DURATION_698
POSITION_392604
NOTE_ON_62
DURATION_271
POSITION_392613
NOTE_ON_54
DURATION_280
POSITION_392066
NOTE_ON_71
DURATION_1480
POSITION_392837
NOTE_ON_52
DURATION_728
POSITION_393338
NOTE_ON_76
DURATION_229
POSITION_393366
NOTE_ON_50
DURATION_203
POSITION_393565
NOTE_ON_69
DURATION_805
POSITION_393601
NOTE_ON_49
DURATION_770
POSITION_394142
NOTE_ON_45
DURATION_238
POSITION_392811
NOTE_ON_67
DURATION_1580
POSITION_394717
NOTE_ON_71
DURATION_293
POSITION_394383
NOTE_ON_50
DURATION_627
POSITION_394546
NOTE_ON_69
DURATION_490
POSITION_394357
NOTE_ON_66
DURATION_755
POSITION_394893
NOTE_ON_49
DURATION_224
POSITION_394888
NOTE_ON_73
DURATION_230
POSITION_395077
NOTE_ON_74
DURATION_196
POSITION_395249
NOTE_ON_76
DURATION_188
POSITION_395425
NOTE_ON_78
DURATION_111
POSITION_395515
NOTE_ON_76
DURATION_86
POSITION_395078
NOTE_ON_47
DURATION_538
POSITION_395606
NOTE_ON_74
DURATION_263
POSITION_395577
NOTE_ON_45
DURATION_297
POSITION_395842
NOTE_ON_83
DURATION_484
POSITION_395878
NOTE_ON_43
DURATION_632
POSITION_396453
NOTE_ON_40
DURATION_232
POSITION_396421
NOTE_ON_67
DURATION_266
POSITION_396416
NOTE_ON_71
DURATION_970
POSITION_396662
NOTE_ON_74
DURATION_826
POSITION_396668
NOTE_ON_66
DURATION_821
POSITION_397451
NOTE_ON_73
DURATION_146
POSITION_397612
NOTE_ON_74
DURATION_127
POSITION_397691
NOTE_ON_73
DURATION_86
POSITION_397749
NOTE_ON_74
DURATION_63
POSITION_398206
NOTE_ON_74
DURATION_224
POSITION_397823
NOTE_ON_73
DURATION_626
POSITION_397455
NOTE_ON_64
DURATION_996
POSITION_396685
NOTE_ON_45
DURATION_1767
POSITION_397490
NOTE_ON_33
DURATION_986
POSITION_398438
NOTE_ON_74
DURATION_1528
POSITION_398481
NOTE_ON_38
DURATION_1510
POSITION_398449
NOTE_ON_66
DURATION_1543
POSITION_399993
NOTE_ON_71
DURATION_174
POSITION_399972
NOTE_ON_74
DURATION_232
POSITION_400176
NOTE_ON_72
DURATION_170
POSITION_400181
NOTE_ON_69
DURATION_172
POSITION_400362
NOTE_ON_67
DURATION_591
POSITION_400342
NOTE_ON_71
DURATION_611
POSITION_400762
NOTE_ON_69
DURATION_195
POSITION_400761
NOTE_ON_72
DURATION_196
POSITION_400962
NOTE_ON_69
DURATION_368
POSITION_400963
NOTE_ON_72
DURATION_371
POSITION_401337
NOTE_ON_71
DURATION_388
POSITION_401324
NOTE_ON_74
DURATION_401
POSITION_401505
NOTE_ON_55
DURATION_283
POSITION_401735
NOTE_ON_53
DURATION_97
POSITION_401838
NOTE_ON_53
DURATION_647
POSITION_402290
NOTE_ON_52
DURATION_239
POSITION_401736
NOTE_ON_74
DURATION_795
POSITION_401735
NOTE_ON_71
DURATION_796
POSITION_402510
NOTE_ON_72
DURATION_86
POSITION_402600
NOTE_ON_71
DURATION_50
POSITION_402507
NOTE_ON_76
DURATION_562
POSITION_402683
NOTE_ON_72
DURATION_486
POSITION_403071
NOTE_ON_48
DURATION_263
POSITION_403082
NOTE_ON_74
DURATION_254
POSITION_402510
NOTE_ON_50
DURATION_826
POSITION_403064
NOTE_ON_77
DURATION_274
POSITION_403315
NOTE_ON_57
DURATION_226
POSITION_403312
NOTE_ON_72
DURATION_425
POSITION_403290
NOTE_ON_76
DURATION_453
POSITION_403504
NOTE_ON_56
DURATION_430
POSITION_403876
NOTE_ON_52
DURATION_264
POSITION_403687
NOTE_ON_71
DURATION_987
POSITION_404656
NOTE_ON_72
DURATION_103
POSITION_403687
NOTE_ON_74
DURATION_1118
POSITION_404763
NOTE_ON_72
DURATION_107
POSITION_404631
NOTE_ON_76
DURATION_239
POSITION_404855
NOTE_ON_74
DURATION_241
POSITION_404879
NOTE_ON_71
DURATION_264
POSITION_405110
NOTE_ON_72
DURATION_94
POSITION_405160
NOTE_ON_74
DURATION_65
POSITION_405450
NOTE_ON_55
DURATION_196
POSITION_405649
NOTE_ON_54
DURATION_100
POSITION_404110
NOTE_ON_57
DURATION_1647
POSITION_405240
NOTE_ON_72
DURATION_1101
POSITION_405760
NOTE_ON_54
DURATION_660
POSITION_406205
NOTE_ON_74
DURATION_216
POSITION_405230
NOTE_ON_69
DURATION_1234
POSITION_406419
NOTE_ON_72
DURATION_121
POSITION_406498
NOTE_ON_71
DURATION_81
POSITION_406446
NOTE_ON_55
DURATION_171
POSITION_406550
NOTE_ON_72
DURATION_167
POSITION_406623
NOTE_ON_71
DURATION_578
POSITION_406442
NOTE_ON_67
DURATION_774
POSITION_406990
NOTE_ON_69
DURATION_253
POSITION_406996
NOTE_ON_66
DURATION_253
POSITION_406208
NOTE_ON_50
DURATION_1047
POSITION_406628
NOTE_ON_55
DURATION_628
POSITION_407227
NOTE_ON_67
DURATION_811
POSITION_407211
NOTE_ON_71
DURATION_827
POSITION_407803
NOTE_ON_69
DURATION_284
POSITION_407247
NOTE_ON_48
DURATION_841
POSITION_407811
NOTE_ON_72
DURATION_278
POSITION_407751
NOTE_ON_74
DURATION_1209
POSITION_408043
NOTE_ON_71
DURATION_1151
POSITION_408043
NOTE_ON_67
DURATION_1162
POSITION_408049
NOTE_ON_50
DURATION_1379
POSITION_409019
NOTE_ON_69
DURATION_609
POSITION_409635
NOTE_ON_69
DURATION_131
POSITION_409777
NOTE_ON_69
DURATION_142
POSITION_409025
NOTE_ON_66
DURATION_895
POSITION_409632
NOTE_ON_78
DURATION_292
POSITION_409884
NOTE_ON_76
DURATION_285
POSITION_409048
NOTE_ON_38
DURATION_1148
POSITION_409882
NOTE_ON_67
DURATION_427
POSITION_410539
NOTE_ON_76
DURATION_179
POSITION_410536
NOTE_ON_67
DURATION_190
POSITION_410153
NOTE_ON_66
DURATION_588
POSITION_410149
NOTE_ON_74
DURATION_608
POSITION_410729
NOTE_ON_76
DURATION_788
POSITION_411121
NOTE_ON_69
DURATION_422
POSITION_411301
NOTE_ON_62
DURATION_244
POSITION_411116
NOTE_ON_78
DURATION_430
POSITION_410733
NOTE_ON_67
DURATION_822
POSITION_411544
NOTE_ON_71
DURATION_134
POSITION_411620
NOTE_ON_69
DURATION_273
POSITION_411545
NOTE_ON_60
DURATION_602
POSITION_411541
NOTE_ON_79
DURATION_793
POSITION_411687
NOTE_ON_71
DURATION_653
POSITION_412072
NOTE_ON_59
DURATION_269
POSITION_412289
NOTE_ON_81
DURATION_553
POSITION_412297
NOTE_ON_72
DURATION_554
POSITION_412309
NOTE_ON_57
DURATION_546
POSITION_412303
NOTE_ON_69
DURATION_566
POSITION_412821
NOTE_ON_74
DURATION_247
POSITION_412832
NOTE_ON_55
DURATION_344
POSITION_412834
NOTE_ON_67
DURATION_442
POSITION_413096
NOTE_ON_60
DURATION_793
POSITION_412818
NOTE_ON_83
DURATION_1072
POSITION_413640
NOTE_ON_67
DURATION_254
POSITION_413068
NOTE_ON_76
DURATION_827
POSITION_413079
NOTE_ON_74
DURATION_842
POSITION_414423
NOTE_ON_78
DURATION_204
POSITION_413910
NOTE_ON_57
DURATION_731
POSITION_413872
NOTE_ON_72
DURATION_771
POSITION_414639
NOTE_ON_78
DURATION_618
POSITION_415245
NOTE_ON_71
DURATION_212
POSITION_415467
NOTE_ON_71
DURATION_259
POSITION_416068
NOTE_ON_78
DURATION_167
POSITION_415490
NOTE_ON_60
DURATION_746
POSITION_414661
NOTE_ON_64
DURATION_1580
POSITION_415693
NOTE_ON_69
DURATION_551
POSITION_414864
NOTE_ON_79
DURATION_1384
POSITION_416142
NOTE_ON_76
DURATION_108
POSITION_416760
NOTE_ON_72
DURATION_102
POSITION_416259
NOTE_ON_62
DURATION_723
POSITION_416259
NOTE_ON_71
DURATION_723
POSITION_416232
NOTE_ON_74
DURATION_751
POSITION_416774
NOTE_ON_69
DURATION_210
POSITION_416871
NOTE_ON_72
DURATION_368
POSITION_417010
NOTE_ON_67
DURATION_547
POSITION_417530
NOTE_ON_72
DURATION_277
POSITION_417542
NOTE_ON_66
DURATION_280
POSITION_416978
NOTE_ON_81
DURATION_1758
POSITION_417811
NOTE_ON_72
DURATION_983
POSITION_417826
NOTE_ON_66
DURATION_975
POSITION_417836
NOTE_ON_55
DURATION_1484
POSITION_419300
NOTE_ON_74
DURATION_269
POSITION_418756
NOTE_ON_43
DURATION_814
POSITION_418738
NOTE_ON_67
DURATION_832
POSITION_418733
NOTE_ON_71
DURATION_837
POSITION_419331
NOTE_ON_55
DURATION_241
POSITION_419510
NOTE_ON_79
DURATION_193
POSITION_419685
NOTE_ON_78
DURATION_205
POSITION_419861
NOTE_ON_79
DURATION_206
POSITION_419539
NOTE_ON_59
DURATION_528
POSITION_420035
NOTE_ON_81
DURATION_272
POSITION_420276
NOTE_ON_83
DURATION_733
POSITION_420802
NOTE_ON_81
DURATION_234
POSITION_420033
NOTE_ON_62
DURATION_1253
POSITION_420280
NOTE_ON_67
DURATION_1513
POSITION_421582
NOTE_ON_78
DURATION_247
POSITION_421043
NOTE_ON_79
DURATION_850
POSITION_421017
NOTE_ON_83
DURATION_1336
POSITION_422389
NOTE_ON_74
DURATION_209
POSITION_421802
NOTE_ON_76
DURATION_828
POSITION_422581
NOTE_ON_78
DURATION_371
POSITION_422904
NOTE_ON_76
DURATION_102
POSITION_422361
NOTE_ON_83
DURATION_822
POSITION_421804
NOTE_ON_67
DURATION_1405
POSITION_422957
NOTE_ON_78
DURATION_253
POSITION_422604
NOTE_ON_73
DURATION_617
POSITION_421059
NOTE_ON_55
DURATION_2170
POSITION_423206
NOTE_ON_71
DURATION_205
POSITION_423017
NOTE_ON_76
DURATION_558
POSITION_423417
NOTE_ON_69
DURATION_723
POSITION_423955
NOTE_ON_67
DURATION_214
POSITION_423931
NOTE_ON_76
DURATION_239
POSITION_424722
NOTE_ON_73
DURATION_251
POSITION_424723
NOTE_ON_64
DURATION_253
POSITION_424156
NOTE_ON_81
DURATION_1077
POSITION_425413
NOTE_ON_83
DURATION_274
POSITION_425610
NOTE_ON_81
DURATION_186
POSITION_425769
NOTE_ON_80
DURATION_113
POSITION_425868
NOTE_ON_78
DURATION_133
POSITION_425952
NOTE_ON_80
DURATION_69
POSITION_424182
NOTE_ON_66
DURATION_1850
POSITION_424957
NOTE_ON_62
DURATION_1129
POSITION_426028
NOTE_ON_81
DURATION_72
POSITION_426099
NOTE_ON_80
DURATION_67
POSITION_426171
NOTE_ON_81
DURATION_130
POSITION_426235
NOTE_ON_80
DURATION_71
POSITION_426305
NOTE_ON_81
DURATION_119
POSITION_426371
NOTE_ON_80
DURATION_114
POSITION_426432
NOTE_ON_81
DURATION_115
POSITION_424934
NOTE_ON_71
DURATION_1636
POSITION_426490
NOTE_ON_80
DURATION_103
POSITION_426551
NOTE_ON_81
DURATION_218
POSITION_426600
NOTE_ON_80
DURATION_354
POSITION_426006
NOTE_ON_59
DURATION_955
POSITION_426933
NOTE_ON_81
DURATION_182
POSITION_426930
NOTE_ON_62
DURATION_228
POSITION_426349
NOTE_ON_64
DURATION_1273
POSITION_427633
NOTE_ON_64
DURATION_212
POSITION_427848
NOTE_ON_69
DURATION_166
POSITION_427119
NOTE_ON_81
DURATION_1209
POSITION_428020
NOTE_ON_79
DURATION_408
POSITION_428339
NOTE_ON_81
DURATION_135
POSITION_427126
NOTE_ON_61
DURATION_1385
POSITION_428196
NOTE_ON_78
DURATION_321
POSITION_428437
NOTE_ON_79
DURATION_91
POSITION_427856
NOTE_ON_64
DURATION_680
POSITION_428442
NOTE_ON_57
DURATION_176
POSITION_428480
NOTE_ON_81
DURATION_179
POSITION_428538
NOTE_ON_79
DURATION_194
POSITION_428608
NOTE_ON_59
DURATION_128
POSITION_428727
NOTE_ON_78
DURATION_195
POSITION_428903
NOTE_ON_76
DURATION_192
POSITION_428744
NOTE_ON_59
DURATION_359
POSITION_429070
NOTE_ON_79
DURATION_238
POSITION_429071
NOTE_ON_61
DURATION_433
POSITION_428025
NOTE_ON_69
DURATION_2078
POSITION_429288
NOTE_ON_78
DURATION_817
POSITION_429861
NOTE_ON_50
DURATION_265
POSITION_429316
NOTE_ON_62
DURATION_1017
POSITION_430622
NOTE_ON_54
DURATION_297
POSITION_430067
NOTE_ON_71
DURATION_854
POSITION_430617
NOTE_ON_62
DURATION_304
POSITION_430890
NOTE_ON_52
DURATION_781
POSITION_431434
NOTE_ON_50
DURATION_266
POSITION_431399
NOTE_ON_76
DURATION_800
POSITION_430090
NOTE_ON_55
DURATION_2217
POSITION_431646
NOTE_ON_69
DURATION_887
POSITION_431683
NOTE_ON_49
DURATION_852
POSITION_432270
NOTE_ON_45
DURATION_267
POSITION_430856
NOTE_ON_67
DURATION_1696
POSITION_432522
NOTE_ON_50
DURATION_107
POSITION_432912
NOTE_ON_71
DURATION_309
POSITION_432738
NOTE_ON_69
DURATION_582
POSITION_433096
NOTE_ON_49
DURATION_240
POSITION_432511
NOTE_ON_66
DURATION_856
POSITION_433075
NOTE_ON_73
DURATION_307
POSITION_433259
NOTE_ON_74
DURATION_215
POSITION_432636
NOTE_ON_50
DURATION_876
POSITION_433437
NOTE_ON_76
DURATION_252
POSITION_433293
NOTE_ON_47
DURATION_475
POSITION_433798
NOTE_ON_74
DURATION_271
POSITION_433700
NOTE_ON_76
DURATION_370
POSITION_433767
NOTE_ON_45
DURATION_311
POSITION_433609
NOTE_ON_78
DURATION_479
POSITION_434061
NOTE_ON_43
DURATION_665
POSITION_434033
NOTE_ON_83
DURATION_731
POSITION_434703
NOTE_ON_67
DURATION_321
POSITION_434718
NOTE_ON_40
DURATION_306
POSITION_434953
NOTE_ON_74
DURATION_891
POSITION_434972
NOTE_ON_66
DURATION_873
POSITION_434700
NOTE_ON_71
DURATION_1147
POSITION_435782
NOTE_ON_73
DURATION_187
POSITION_435983
NOTE_ON_74
DURATION_91
POSITION_436096
NOTE_ON_73
DURATION_42
POSITION_436150
NOTE_ON_74
DURATION_58
POSITION_436225
NOTE_ON_73
DURATION_83
POSITION_436267
NOTE_ON_74
DURATION_67
POSITION_436778
NOTE_ON_74
DURATION_429
POSITION_435845
NOTE_ON_33
DURATION_1534
POSITION_436350
NOTE_ON_73
DURATION_1033
POSITION_434995
NOTE_ON_45
DURATION_2419
POSITION_435805
NOTE_ON_64
DURATION_1609
POSITION_437242
NOTE_ON_38
DURATION_1412
POSITION_437212
NOTE_ON_74
DURATION_1446
POSITION_437217
NOTE_ON_66
DURATION_1449
POSITION_438950
NOTE_ON_78
DURATION_177
POSITION_438929
NOTE_ON_81
DURATION_297
POSITION_439134
NOTE_ON_78
DURATION_738
POSITION_439661
NOTE_ON_76
DURATION_244
POSITION_439652
NOTE_ON_79
DURATION_254
POSITION_439161
NOTE_ON_74
DURATION_749
POSITION_439850
NOTE_ON_81
DURATION_720
POSITION_439880
NOTE_ON_78
DURATION_706
POSITION_440381
NOTE_ON_62
DURATION_223
POSITION_441104
NOTE_ON_59
DURATION_246
POSITION_440590
NOTE_ON_60
DURATION_764
POSITION_440591
NOTE_ON_78
DURATION_778
POSITION_440580
NOTE_ON_81
DURATION_797
POSITION_441318
NOTE_ON_57
DURATION_569
POSITION_441315
NOTE_ON_79
DURATION_761
POSITION_441310
NOTE_ON_83
DURATION_766
POSITION_442087
NOTE_ON_75
DURATION_4
POSITION_441864
NOTE_ON_84
DURATION_242
POSITION_441868
NOTE_ON_55
DURATION_241
POSITION_441872
NOTE_ON_81
DURATION_238
POSITION_442086
NOTE_ON_79
DURATION_420
POSITION_442085
NOTE_ON_63
DURATION_577
POSITION_442617
NOTE_ON_59
DURATION_293
POSITION_442080
NOTE_ON_83
DURATION_848
POSITION_442473
NOTE_ON_78
DURATION_970
POSITION_442471
NOTE_ON_81
DURATION_1072
POSITION_443369
NOTE_ON_83
DURATION_231
POSITION_443375
NOTE_ON_79
DURATION_235
POSITION_443593
NOTE_ON_78
DURATION_610
POSITION_443583
NOTE_ON_81
DURATION_743
POSITION_442833
NOTE_ON_64
DURATION_1562
POSITION_444170
NOTE_ON_62
DURATION_261
POSITION_444001
NOTE_ON_79
DURATION_1031
POSITION_444005
NOTE_ON_76
DURATION_1173
POSITION_444939
NOTE_ON_78
DURATION_318
POSITION_445713
NOTE_ON_79
DURATION_172
POSITION_445847
NOTE_ON_78
DURATION_107
POSITION_445894
NOTE_ON_79
DURATION_79
POSITION_445172
NOTE_ON_81
DURATION_805
POSITION_446527
NOTE_ON_76
DURATION_233
POSITION_445965
NOTE_ON_78
DURATION_829
POSITION_445967
NOTE_ON_69
DURATION_830
POSITION_444390
NOTE_ON_60
DURATION_2407
POSITION_445204
NOTE_ON_64
DURATION_2156
POSITION_446765
NOTE_ON_76
DURATION_1109
POSITION_447723
NOTE_ON_47
DURATION_584
POSITION_447699
NOTE_ON_75
DURATION_613
POSITION_446801
NOTE_ON_71
DURATION_1526
POSITION_448317
NOTE_ON_75
DURATION_171
POSITION_446801
NOTE_ON_59
DURATION_1741
POSITION_448305
NOTE_ON_78
DURATION_521
POSITION_448492
NOTE_ON_75
DURATION_734
POSITION_449023
NOTE_ON_76
DURATION_216
POSITION_448508
NOTE_ON_71
DURATION_732
POSITION_449036
NOTE_ON_73
DURATION_443
POSITION_449220
NOTE_ON_78
DURATION_705
POSITION_449234
NOTE_ON_75
DURATION_706
POSITION_449738
NOTE_ON_71
DURATION_205
POSITION_449938
NOTE_ON_69
DURATION_783
POSITION_449934
NOTE_ON_78
DURATION_788
POSITION_449944
NOTE_ON_75
DURATION_779
POSITION_450460
NOTE_ON_67
DURATION_264
POSITION_450668
NOTE_ON_79
DURATION_575
POSITION_450695
NOTE_ON_66
DURATION_554
POSITION_451243
NOTE_ON_78
DURATION_145
POSITION_450686
NOTE_ON_76
DURATION_767
POSITION_451237
NOTE_ON_64
DURATION_224
POSITION_451221
NOTE_ON_81
DURATION_242
POSITION_451457
NOTE_ON_76
DURATION_821
POSITION_451465
NOTE_ON_64
DURATION_814
POSITION_451452
NOTE_ON_79
DURATION_827
POSITION_452240
NOTE_ON_75
DURATION_534
POSITION_452235
NOTE_ON_78
DURATION_539
POSITION_451465
NOTE_ON_71
DURATION_1524
POSITION_452780
NOTE_ON_78
DURATION_240
POSITION_452267
NOTE_ON_59
DURATION_755
POSITION_452784
NOTE_ON_75
DURATION_239
POSITION_452995
NOTE_ON_71
DURATION_501
POSITION_453500
NOTE_ON_72
DURATION_216
POSITION_453481
NOTE_ON_81
DURATION_239
POSITION_452977
NOTE_ON_80
DURATION_765
POSITION_453506
NOTE_ON_71
DURATION_312
POSITION_453696
NOTE_ON_74
DURATION_518
POSITION_453687
NOTE_ON_83
DURATION_527
POSITION_454211
NOTE_ON_84
DURATION_256
POSITION_454223
NOTE_ON_65
DURATION_245
POSITION_454426
NOTE_ON_64
DURATION_798
POSITION_454990
NOTE_ON_62
DURATION_237
POSITION_454990
NOTE_ON_77
DURATION_239
POSITION_454422
NOTE_ON_80
DURATION_1324
POSITION_455211
NOTE_ON_76
DURATION_583
POSITION_455232
NOTE_ON_60
DURATION_562
POSITION_455781
NOTE_ON_74
DURATION_219
POSITION_455754
NOTE_ON_80
DURATION_247
POSITION_455788
NOTE_ON_59
DURATION_214
POSITION_455975
NOTE_ON_81
DURATION_1307
POSITION_456005
NOTE_ON_76
DURATION_1477
POSITION_456006
NOTE_ON_60
DURATION_1506
POSITION_456742
NOTE_ON_48
DURATION_824
POSITION_457287
NOTE_ON_81
DURATION_686
POSITION_457519
NOTE_ON_60
DURATION_797
POSITION_458061
NOTE_ON_78
DURATION_261
POSITION_457488
NOTE_ON_76
DURATION_938
POSITION_458282
NOTE_ON_79
DURATION_201
POSITION_458468
NOTE_ON_78
DURATION_190
POSITION_458812
NOTE_ON_79
DURATION_250
POSITION_458310
NOTE_ON_61
DURATION_792
POSITION_458646
NOTE_ON_76
DURATION_510
POSITION_459053
NOTE_ON_62
DURATION_821
POSITION_459655
NOTE_ON_74
DURATION_219
POSITION_459037
NOTE_ON_78
DURATION_979
POSITION_459871
NOTE_ON_69
DURATION_587
POSITION_460452
NOTE_ON_71
DURATION_230
POSITION_460681
NOTE_ON_72
DURATION_205
POSITION_460880
NOTE_ON_71
DURATION_181
POSITION_459895
NOTE_ON_50
DURATION_1465
POSITION_461060
NOTE_ON_69
DURATION_339
POSITION_460681
NOTE_ON_62
DURATION_724
POSITION_461227
NOTE_ON_72
DURATION_186
POSITION_461421
NOTE_ON_71
DURATION_217
POSITION_461425
NOTE_ON_63
DURATION_305
POSITION_461612
NOTE_ON_66
DURATION_205
POSITION_461792
NOTE_ON_67
DURATION_172
POSITION_461968
NOTE_ON_69
DURATION_222
POSITION_461955
NOTE_ON_75
DURATION_239
POSITION_462141
NOTE_ON_67
DURATION_192
POSITION_462313
NOTE_ON_66
DURATION_181
POSITION_462482
NOTE_ON_64
DURATION_185
POSITION_462141
NOTE_ON_76
DURATION_530
POSITION_462653
NOTE_ON_63
DURATION_210
POSITION_462649
NOTE_ON_81
DURATION_462
POSITION_462871
NOTE_ON_79
DURATION_615
POSITION_462875
NOTE_ON_64
DURATION_666
POSITION_463503
NOTE_ON_57
DURATION_211
POSITION_463477
NOTE_ON_78
DURATION_244
POSITION_463484
NOTE_ON_69
DURATION_237
POSITION_463713
NOTE_ON_67
DURATION_741
POSITION_463720
NOTE_ON_59
DURATION_743
POSITION_463702
NOTE_ON_76
DURATION_953
POSITION_464570
NOTE_ON_75
DURATION_154
POSITION_464665
NOTE_ON_76
DURATION_128
POSITION_464798
NOTE_ON_76
DURATION_47
POSITION_464728
NOTE_ON_75
DURATION_119
POSITION_465101
NOTE_ON_76
DURATION_138
POSITION_464854
NOTE_ON_75
DURATION_438
POSITION_464405
NOTE_ON_66
DURATION_903
POSITION_464397
NOTE_ON_47
DURATION_949
POSITION_466268
NOTE_ON_79
DURATION_319
POSITION_465247
NOTE_ON_76
DURATION_1397
POSITION_466809
NOTE_ON_81
DURATION_229
POSITION_466557
NOTE_ON_78
DURATION_483
POSITION_467009
NOTE_ON_79
DURATION_215
POSITION_467373
NOTE_ON_76
DURATION_181
POSITION_465272
NOTE_ON_52
DURATION_2317
POSITION_466017
NOTE_ON_40
DURATION_1733
POSITION_467192
NOTE_ON_78
DURATION_604
POSITION_467539
NOTE_ON_74
DURATION_261
POSITION_465260
NOTE_ON_67
DURATION_2620
POSITION_467784
NOTE_ON_72
DURATION_520
POSITION_468240
NOTE_ON_65
DURATION_800
POSITION_468682
NOTE_ON_64
DURATION_382
POSITION_468238
NOTE_ON_71
DURATION_829
POSITION_468872
NOTE_ON_74
DURATION_202
POSITION_469225
NOTE_ON_71
DURATION_209
POSITION_469051
NOTE_ON_65
DURATION_384
POSITION_469075
NOTE_ON_62
DURATION_362
POSITION_469442
NOTE_ON_60
DURATION_367
POSITION_469436
NOTE_ON_64
DURATION_378
POSITION_469050
NOTE_ON_72
DURATION_789
POSITION_469806
NOTE_ON_62
DURATION_414
POSITION_469423
NOTE_ON_81
DURATION_797
POSITION_469809
NOTE_ON_59
DURATION_412
POSITION_469974
NOTE_ON_79
DURATION_247
POSITION_470175
NOTE_ON_77
DURATION_421
POSITION_470189
NOTE_ON_60
DURATION_763
POSITION_471124
NOTE_ON_79
DURATION_211
POSITION_470963
NOTE_ON_60
DURATION_377
POSITION_470602
NOTE_ON_59
DURATION_738
POSITION_470586
NOTE_ON_76
DURATION_774
POSITION_471473
NOTE_ON_76
DURATION_230
POSITION_471308
NOTE_ON_78
DURATION_396
POSITION_471308
NOTE_ON_62
DURATION_400
POSITION_471703
NOTE_ON_57
DURATION_761
POSITION_471673
NOTE_ON_84
DURATION_794
POSITION_472060
NOTE_ON_66
DURATION_408
POSITION_472221
NOTE_ON_81
DURATION_247
POSITION_471693
NOTE_ON_64
DURATION_788
POSITION_473057
NOTE_ON_79
DURATION_173
POSITION_472448
NOTE_ON_83
DURATION_783
POSITION_473001
NOTE_ON_81
DURATION_234
POSITION_473130
NOTE_ON_78
DURATION_117
POSITION_473199
NOTE_ON_76
DURATION_549
POSITION_472475
NOTE_ON_67
DURATION_1281
POSITION_473759
NOTE_ON_76
DURATION_307
POSITION_473213
NOTE_ON_60
DURATION_854
POSITION_473760
NOTE_ON_67
DURATION_308
POSITION_473974
NOTE_ON_78
DURATION_780
POSITION_473998
NOTE_ON_69
DURATION_771
POSITION_474528
NOTE_ON_79
DURATION_261
POSITION_474000
NOTE_ON_61
DURATION_794
POSITION_474535
NOTE_ON_71
DURATION_311
POSITION_474762
NOTE_ON_78
DURATION_315
POSITION_474955
NOTE_ON_79
DURATION_193
POSITION_472477
NOTE_ON_55
DURATION_2738
POSITION_475139
NOTE_ON_81
DURATION_429
POSITION_474780
NOTE_ON_69
DURATION_794
POSITION_475318
NOTE_ON_78
DURATION_261
POSITION_475576
NOTE_ON_50
DURATION_645
POSITION_474782
NOTE_ON_62
DURATION_1439
POSITION_476210
NOTE_ON_66
DURATION_165
POSITION_475550
NOTE_ON_74
DURATION_924
POSITION_476192
NOTE_ON_69
DURATION_283
POSITION_476379
NOTE_ON_66
DURATION_602
POSITION_476402
NOTE_ON_62
DURATION_579
POSITION_477000
NOTE_ON_64
DURATION_184
POSITION_476978
NOTE_ON_67
DURATION_230
POSITION_477193
NOTE_ON_69
DURATION_725
POSITION_477193
NOTE_ON_66
DURATION_733
POSITION_477735
NOTE_ON_50
DURATION_258
POSITION_477929
NOTE_ON_48
DURATION_650
POSITION_477928
NOTE_ON_69
DURATION_803
POSITION_477936
NOTE_ON_66
DURATION_799
POSITION_478507
NOTE_ON_47
DURATION_237
POSITION_478716
NOTE_ON_67
DURATION_618
POSITION_478701
NOTE_ON_71
DURATION_635
POSITION_478710
NOTE_ON_45
DURATION_626
POSITION_479307
NOTE_ON_72
DURATION_268
POSITION_479311
NOTE_ON_69
DURATION_266
POSITION_479329
NOTE_ON_43
DURATION_256
POSITION_479550
NOTE_ON_67
DURATION_1210
POSITION_479550
NOTE_ON_71
DURATION_1294
POSITION_480609
NOTE_ON_69
DURATION_688
POSITION_480633
NOTE_ON_38
DURATION_668
POSITION_480611
NOTE_ON_66
DURATION_690
POSITION_479553
NOTE_ON_50
DURATION_1760
POSITION_481304
NOTE_ON_69
DURATION_213
POSITION_481301
NOTE_ON_78
DURATION_242
POSITION_481510
NOTE_ON_66
DURATION_391
POSITION_481509
NOTE_ON_74
DURATION_725
POSITION_482022
NOTE_ON_76
DURATION_245
POSITION_482022
NOTE_ON_67
DURATION_246
POSITION_482787
NOTE_ON_64
DURATION_258
POSITION_482255
NOTE_ON_78
DURATION_791
POSITION_482260
NOTE_ON_69
DURATION_794
POSITION_483022
NOTE_ON_81
DURATION_445
POSITION_483034
NOTE_ON_62
DURATION_675
POSITION_483639
NOTE_ON_60
DURATION_252
POSITION_483453
NOTE_ON_80
DURATION_916
POSITION_483858
NOTE_ON_59
DURATION_707
POSITION_483034
NOTE_ON_71
DURATION_1550
POSITION_484303
NOTE_ON_81
DURATION_679
POSITION_484528
NOTE_ON_57
DURATION_456
POSITION_484309
NOTE_ON_72
DURATION_721
POSITION_485318
NOTE_ON_77
DURATION_322
POSITION_484925
NOTE_ON_74
DURATION_727
POSITION_485600
NOTE_ON_76
DURATION_233
POSITION_484918
NOTE_ON_83
DURATION_1087
POSITION_485820
NOTE_ON_74
DURATION_218
POSITION_486019
NOTE_ON_76
DURATION_213
POSITION_486201
NOTE_ON_74
DURATION_196
POSITION_486391
NOTE_ON_72
DURATION_183
POSITION_484947
NOTE_ON_56
DURATION_1734
POSITION_486560
NOTE_ON_71
DURATION_191
POSITION_486752
NOTE_ON_69
DURATION_192
POSITION_486926
NOTE_ON_68
DURATION_227
POSITION_487109
NOTE_ON_66
DURATION_193
POSITION_487290
NOTE_ON_64
DURATION_214
POSITION_487483
NOTE_ON_74
DURATION_215
POSITION_487674
NOTE_ON_72
DURATION_196
POSITION_487852
NOTE_ON_71
DURATION_209
POSITION_488037
NOTE_ON_74
DURATION_255
POSITION_488042
NOTE_ON_52
DURATION_314
POSITION_488903
NOTE_ON_55
DURATION_90
POSITION_488295
NOTE_ON_57
DURATION_713
POSITION_488267
NOTE_ON_72
DURATION_860
POSITION_488998
NOTE_ON_55
DURATION_130
POSITION_488907
NOTE_ON_64
DURATION_222
POSITION_489120
NOTE_ON_54
DURATION_96
POSITION_489131
NOTE_ON_69
DURATION_633
POSITION_489220
NOTE_ON_54
DURATION_549
POSITION_489756
NOTE_ON_52
DURATION_225
POSITION_489729
NOTE_ON_67
DURATION_331
POSITION_489959
NOTE_ON_50
DURATION_368
POSITION_489966
NOTE_ON_66
DURATION_547
POSITION_490347
NOTE_ON_69
DURATION_166
POSITION_490530
NOTE_ON_55
DURATION_6
POSITION_490157
NOTE_ON_71
DURATION_395
POSITION_490527
NOTE_ON_43
DURATION_249
POSITION_490520
NOTE_ON_72
DURATION_256
POSITION_490521
NOTE_ON_66
DURATION_269
POSITION_490521
NOTE_ON_69
DURATION_277
POSITION_491355
NOTE_ON_66
DURATION_221
POSITION_490763
NOTE_ON_55
DURATION_814
POSITION_491355
NOTE_ON_72
DURATION_223
POSITION_490762
NOTE_ON_67
DURATION_819
POSITION_491336
NOTE_ON_76
DURATION_249
POSITION_490760
NOTE_ON_71
DURATION_829
POSITION_491592
NOTE_ON_67
DURATION_807
POSITION_492168
NOTE_ON_57
DURATION_241
POSITION_491599
NOTE_ON_71
DURATION_1420
POSITION_492399
NOTE_ON_59
DURATION_630
POSITION_491587
NOTE_ON_74
DURATION_1545
POSITION_492974
NOTE_ON_72
DURATION_239
POSITION_492984
NOTE_ON_69
DURATION_238
POSITION_492982
NOTE_ON_60
DURATION_246
POSITION_492990
NOTE_ON_64
DURATION_258
POSITION_493241
NOTE_ON_67
DURATION_801
POSITION_493208
NOTE_ON_71
DURATION_907
POSITION_494155
NOTE_ON_69
DURATION_145
POSITION_494206
NOTE_ON_71
DURATION_109
POSITION_493240
NOTE_ON_62
DURATION_1904
POSITION_494792
NOTE_ON_67
DURATION_360
POSITION_493971
NOTE_ON_60
DURATION_1201
POSITION_494308
NOTE_ON_69
DURATION_864
POSITION_494064
NOTE_ON_66
DURATION_1109
POSITION_493951
NOTE_ON_50
DURATION_1255
POSITION_495180
NOTE_ON_62
DURATION_118
POSITION_495217
NOTE_ON_50
DURATION_273
POSITION_495174
NOTE_ON_59
DURATION_1414
POSITION_495303
NOTE_ON_62
DURATION_1285
POSITION_495161
NOTE_ON_67
DURATION_1519
POSITION_495218
NOTE_ON_43
DURATION_1478
POSITION_496709
NOTE_ON_78
DURATION_221
POSITION_496700
NOTE_ON_81
DURATION_236
POSITION_497117
NOTE_ON_78
DURATION_52
POSITION_496915
NOTE_ON_79
DURATION_257
POSITION_497178
NOTE_ON_79
DURATION_65
POSITION_496945
NOTE_ON_74
DURATION_611
POSITION_497246
NOTE_ON_78
DURATION_425
POSITION_497446
NOTE_ON_76
DURATION_232
POSITION_497437
NOTE_ON_79
DURATION_244
POSITION_497676
NOTE_ON_78
DURATION_479
POSITION_497653
NOTE_ON_81
DURATION_502
POSITION_498163
NOTE_ON_81
DURATION_184
POSITION_498160
NOTE_ON_78
DURATION_202
POSITION_498160
NOTE_ON_62
DURATION_236
POSITION_498160
NOTE_ON_74
DURATION_425
POSITION_498360
NOTE_ON_60
DURATION_763
POSITION_498906
NOTE_ON_59
DURATION_233
POSITION_498367
NOTE_ON_78
DURATION_794
POSITION_498352
NOTE_ON_81
DURATION_817
POSITION_499106
NOTE_ON_83
DURATION_762
POSITION_499133
NOTE_ON_57
DURATION_738
POSITION_499670
NOTE_ON_81
DURATION_202
POSITION_499671
NOTE_ON_55
DURATION_205
POSITION_499643
NOTE_ON_84
DURATION_242
POSITION_499120
NOTE_ON_79
DURATION_771
POSITION_499897
NOTE_ON_64
DURATION_347
POSITION_499896
NOTE_ON_79
DURATION_479
POSITION_500104
NOTE_ON_63
DURATION_612
POSITION_500485
NOTE_ON_59
DURATION_293
POSITION_499878
NOTE_ON_83
DURATION_911
POSITION_500317
NOTE_ON_78
DURATION_1025
POSITION_500317
NOTE_ON_81
DURATION_1110
POSITION_501287
NOTE_ON_79
DURATION_221
POSITION_501267
NOTE_ON_83
DURATION_298
POSITION_501499
NOTE_ON_78
DURATION_650
POSITION_501487
NOTE_ON_81
DURATION_700
POSITION_502061
NOTE_ON_62
DURATION_254
POSITION_502821
NOTE_ON_78
DURATION_165
POSITION_501892
NOTE_ON_79
DURATION_1124
POSITION_500703
NOTE_ON_64
DURATION_2352
POSITION_502994
NOTE_ON_78
DURATION_122
POSITION_503028
NOTE_ON_79
DURATION_103
POSITION_501901
NOTE_ON_76
DURATION_1231
POSITION_503608
NOTE_ON_79
DURATION_207
POSITION_503114
NOTE_ON_81
DURATION_770
POSITION_503909
NOTE_ON_78
DURATION_42
POSITION_503825
NOTE_ON_79
DURATION_128
POSITION_503964
NOTE_ON_79
DURATION_71
POSITION_504411
NOTE_ON_76
DURATION_234
POSITION_502283
NOTE_ON_60
DURATION_2434
POSITION_503821
NOTE_ON_69
DURATION_898
POSITION_503059
NOTE_ON_64
DURATION_1661
POSITION_504036
NOTE_ON_78
DURATION_685
POSITION_504654
NOTE_ON_76
DURATION_682
POSITION_504672
NOTE_ON_71
DURATION_1470
POSITION_505209
NOTE_ON_75
DURATION_933
POSITION_506148
NOTE_ON_75
DURATION_187
POSITION_506351
NOTE_ON_76
DURATION_244
POSITION_506120
NOTE_ON_78
DURATION_475
POSITION_506551
NOTE_ON_75
DURATION_121
POSITION_506606
NOTE_ON_76
DURATION_250
POSITION_506680
NOTE_ON_75
DURATION_184
POSITION_506868
NOTE_ON_76
DURATION_211
POSITION_506892
NOTE_ON_73
DURATION_203
POSITION_506352
NOTE_ON_71
DURATION_881
POSITION_505585
NOTE_ON_47
DURATION_1947
POSITION_507459
NOTE_ON_78
DURATION_365
POSITION_507631
NOTE_ON_71
DURATION_207
POSITION_507471
NOTE_ON_75
DURATION_369
POSITION_504678
NOTE_ON_59
DURATION_3200
POSITION_507085
NOTE_ON_76
DURATION_824
POSITION_507105
NOTE_ON_73
DURATION_811
POSITION_507853
NOTE_ON_69
DURATION_766
POSITION_507850
NOTE_ON_75
DURATION_770
POSITION_507834
NOTE_ON_78
DURATION_787
POSITION_508603
NOTE_ON_76
DURATION_158
POSITION_508681
NOTE_ON_75
DURATION_83
POSITION_508599
NOTE_ON_79
DURATION_550
POSITION_508373
NOTE_ON_67
DURATION_784
POSITION_508619
NOTE_ON_66
DURATION_540
POSITION_508766
NOTE_ON_76
DURATION_602
POSITION_509151
NOTE_ON_78
DURATION_238
POSITION_509135
NOTE_ON_81
DURATION_255
POSITION_509157
NOTE_ON_71
DURATION_234
POSITION_509365
NOTE_ON_79
DURATION_478
POSITION_509379
NOTE_ON_76
DURATION_470
POSITION_509153
NOTE_ON_64
DURATION_760
POSITION_509395
NOTE_ON_71
DURATION_1025
POSITION_509845
NOTE_ON_75
DURATION_905
POSITION_509841
NOTE_ON_78
DURATION_909
POSITION_510755
NOTE_ON_78
DURATION_313
POSITION_510758
NOTE_ON_75
DURATION_311
POSITION_510998
NOTE_ON_80
DURATION_552
POSITION_511006
NOTE_ON_71
DURATION_566
POSITION_511515
NOTE_ON_72
DURATION_252
POSITION_511514
NOTE_ON_81
DURATION_258
POSITION_511764
NOTE_ON_74
DURATION_527
POSITION_511752
NOTE_ON_83
DURATION_539
POSITION_510204
NOTE_ON_59
DURATION_2098
POSITION_512280
NOTE_ON_84
DURATION_248
POSITION_512278
NOTE_ON_65
DURATION_251
POSITION_513018
NOTE_ON_77
DURATION_205
POSITION_512503
NOTE_ON_80
DURATION_795
POSITION_512505
NOTE_ON_64
DURATION_796
POSITION_513033
NOTE_ON_62
DURATION_268
POSITION_513232
NOTE_ON_77
DURATION_106
POSITION_513303
NOTE_ON_76
DURATION_58
POSITION_513343
NOTE_ON_77
DURATION_52
POSITION_513257
NOTE_ON_60
DURATION_842
POSITION_513404
NOTE_ON_76
DURATION_695
POSITION_513818
NOTE_ON_80
DURATION_286
POSITION_513842
NOTE_ON_74
DURATION_263
POSITION_513844
NOTE_ON_59
DURATION_262
POSITION_514830
NOTE_ON_48
DURATION_456
POSITION_514065
NOTE_ON_81
DURATION_1232
POSITION_514108
NOTE_ON_60
DURATION_1396
POSITION_514110
NOTE_ON_76
DURATION_1410
POSITION_515307
NOTE_ON_81
DURATION_1019
POSITION_515557
NOTE_ON_60
DURATION_775
POSITION_515530
NOTE_ON_76
DURATION_803
POSITION_516058
NOTE_ON_78
DURATION_279
POSITION_516294
NOTE_ON_79
DURATION_228
POSITION_516508
NOTE_ON_78
DURATION_199
POSITION_516691
NOTE_ON_76
DURATION_163
POSITION_516838
NOTE_ON_79
DURATION_196
POSITION_516323
NOTE_ON_61
DURATION_771
POSITION_517066
NOTE_ON_62
DURATION_757
POSITION_517606
NOTE_ON_74
DURATION_217
POSITION_517043
NOTE_ON_78
DURATION_782
POSITION_517853
NOTE_ON_50
DURATION_744
POSITION_518366
NOTE_ON_71
DURATION_236
POSITION_517828
NOTE_ON_69
DURATION_817
POSITION_518614
NOTE_ON_72
DURATION_189
POSITION_518805
NOTE_ON_71
DURATION_151
POSITION_518981
NOTE_ON_69
DURATION_158
POSITION_519144
NOTE_ON_72
DURATION_191
POSITION_518626
NOTE_ON_62
DURATION_741
POSITION_519349
NOTE_ON_63
DURATION_537
POSITION_519545
NOTE_ON_66
DURATION_341
POSITION_519704
NOTE_ON_67
DURATION_187
POSITION_519339
NOTE_ON_71
DURATION_553
POSITION_519877
NOTE_ON_69
DURATION_213
POSITION_519871
NOTE_ON_75
DURATION_221
POSITION_520068
NOTE_ON_67
DURATION_176
POSITION_520236
NOTE_ON_66
DURATION_176
POSITION_520408
NOTE_ON_64
DURATION_172
POSITION_520063
NOTE_ON_76
DURATION_529
POSITION_520578
NOTE_ON_81
DURATION_229
POSITION_520584
NOTE_ON_63
DURATION_224
POSITION_521393
NOTE_ON_57
DURATION_260
POSITION_521383
NOTE_ON_69
DURATION_271
POSITION_521370
NOTE_ON_78
DURATION_284
POSITION_520791
NOTE_ON_79
DURATION_865
POSITION_520809
NOTE_ON_64
DURATION_862
POSITION_521621
NOTE_ON_59
DURATION_884
POSITION_521615
NOTE_ON_67
DURATION_894
POSITION_522437
NOTE_ON_66
DURATION_87
POSITION_521613
NOTE_ON_76
DURATION_1095
POSITION_522597
NOTE_ON_75
DURATION_203
POSITION_522715
NOTE_ON_76
DURATION_147
POSITION_522805
NOTE_ON_75
DURATION_118
POSITION_522873
NOTE_ON_76
DURATION_96
POSITION_522929
NOTE_ON_75
DURATION_102
POSITION_522974
NOTE_ON_76
DURATION_62
POSITION_523429
NOTE_ON_76
DURATION_201
POSITION_522534
NOTE_ON_66
DURATION_1180
POSITION_523035
NOTE_ON_75
DURATION_679
POSITION_522462
NOTE_ON_47
DURATION_1267
POSITION_524777
NOTE_ON_79
DURATION_581
POSITION_525185
NOTE_ON_81
DURATION_215
POSITION_523634
NOTE_ON_76
DURATION_1777
POSITION_525004
NOTE_ON_78
DURATION_530
POSITION_525369
NOTE_ON_79
DURATION_190
POSITION_525541
NOTE_ON_78
DURATION_218
POSITION_525711
NOTE_ON_76
DURATION_182
POSITION_523634
NOTE_ON_67
DURATION_2261
POSITION_524527
NOTE_ON_40
DURATION_1376
POSITION_523640
NOTE_ON_52
DURATION_2309
POSITION_525878
NOTE_ON_74
DURATION_245
POSITION_526097
NOTE_ON_72
DURATION_583
POSITION_526562
NOTE_ON_65
DURATION_792
POSITION_526562
NOTE_ON_71
DURATION_826
POSITION_527006
NOTE_ON_64
DURATION_383
POSITION_527172
NOTE_ON_74
DURATION_217
POSITION_527358
NOTE_ON_72
DURATION_186
POSITION_527516
NOTE_ON_71
DURATION_233
POSITION_527375
NOTE_ON_62
DURATION_375
POSITION_527361
NOTE_ON_65
DURATION_462
POSITION_527751
NOTE_ON_60
DURATION_433
POSITION_528115
NOTE_ON_62
DURATION_405
POSITION_528264
NOTE_ON_79
DURATION_256
POSITION_527746
NOTE_ON_64
DURATION_776
POSITION_527741
NOTE_ON_81
DURATION_782
POSITION_528133
NOTE_ON_59
DURATION_391
POSITION_528467
NOTE_ON_77
DURATION_501
POSITION_528932
NOTE_ON_59
DURATION_371
POSITION_528488
NOTE_ON_60
DURATION_817
POSITION_529312
NOTE_ON_60
DURATION_404
POSITION_528937
NOTE_ON_76
DURATION_875
POSITION_529654
NOTE_ON_78
DURATION_412
POSITION_529660
NOTE_ON_62
DURATION_410
POSITION_529473
NOTE_ON_79
DURATION_608
POSITION_529816
NOTE_ON_76
DURATION_618
POSITION_530048
NOTE_ON_57
DURATION_819
POSITION_530028
NOTE_ON_84
DURATION_839
POSITION_530410
NOTE_ON_66
DURATION_458
POSITION_530039
NOTE_ON_64
DURATION_829
POSITION_530569
NOTE_ON_81
DURATION_300
POSITION_530816
NOTE_ON_83
DURATION_782
POSITION_531419
NOTE_ON_79
DURATION_180
POSITION_531371
NOTE_ON_81
DURATION_230
POSITION_531481
NOTE_ON_78
DURATION_125
POSITION_531559
NOTE_ON_76
DURATION_511
POSITION_530820
NOTE_ON_67
DURATION_1258
POSITION_531567
NOTE_ON_60
DURATION_772
POSITION_532089
NOTE_ON_67
DURATION_250
POSITION_532079
NOTE_ON_76
DURATION_263
POSITION_530822
NOTE_ON_55
DURATION_1547
POSITION_532302
NOTE_ON_78
DURATION_797
POSITION_532312
NOTE_ON_69
DURATION_795
POSITION_532314
NOTE_ON_61
DURATION_830
POSITION_532865
NOTE_ON_79
DURATION_357
POSITION_532872
NOTE_ON_71
DURATION_465
POSITION_533105
NOTE_ON_78
DURATION_244
POSITION_533318
NOTE_ON_79
DURATION_215
POSITION_533117
NOTE_ON_69
DURATION_796
POSITION_533514
NOTE_ON_81
DURATION_453
POSITION_533678
NOTE_ON_78
DURATION_450
POSITION_533917
NOTE_ON_69
DURATION_580
POSITION_534508
NOTE_ON_66
DURATION_181
POSITION_533112
NOTE_ON_62
DURATION_1584
POSITION_533923
NOTE_ON_50
DURATION_847
POSITION_534502
NOTE_ON_69
DURATION_270
POSITION_534695
NOTE_ON_66
DURATION_793
POSITION_535322
NOTE_ON_64
DURATION_224
POSITION_535295
NOTE_ON_67
DURATION_269
POSITION_534700
NOTE_ON_62
DURATION_887
POSITION_533895
NOTE_ON_74
DURATION_1785
POSITION_535522
NOTE_ON_66
DURATION_757
POSITION_535515
NOTE_ON_69
DURATION_764
POSITION_536077
NOTE_ON_50
DURATION_255
POSITION_536840
NOTE_ON_47
DURATION_263
POSITION_536285
NOTE_ON_48
DURATION_831
POSITION_536290
NOTE_ON_66
DURATION_833
POSITION_536283
NOTE_ON_69
DURATION_840
POSITION_537056
NOTE_ON_71
DURATION_692
POSITION_537079
NOTE_ON_45
DURATION_705
POSITION_537058
NOTE_ON_67
DURATION_764
POSITION_537659
NOTE_ON_72
DURATION_344
POSITION_537671
NOTE_ON_69
DURATION_335
POSITION_537683
NOTE_ON_43
DURATION_324
POSITION_537907
NOTE_ON_50
DURATION_967
POSITION_537904
NOTE_ON_67
DURATION_1063
POSITION_538866
NOTE_ON_69
DURATION_638
POSITION_537900
NOTE_ON_71
DURATION_1620
POSITION_538865
NOTE_ON_66
DURATION_854
POSITION_539513
NOTE_ON_78
DURATION_235
POSITION_538883
NOTE_ON_50
DURATION_875
POSITION_539514
NOTE_ON_69
DURATION_256
POSITION_538883
NOTE_ON_38
DURATION_898
POSITION_539727
NOTE_ON_74
DURATION_630
POSITION_540316
NOTE_ON_67
DURATION_229
POSITION_540314
NOTE_ON_76
DURATION_232
POSITION_539725
NOTE_ON_66
DURATION_923
POSITION_541155
NOTE_ON_64
DURATION_245
POSITION_540536
NOTE_ON_78
DURATION_864
POSITION_540553
NOTE_ON_69
DURATION_850
POSITION_541391
NOTE_ON_62
DURATION_703
POSITION_542026
NOTE_ON_60
DURATION_264
POSITION_541365
NOTE_ON_81
DURATION_1311
POSITION_541821
NOTE_ON_80
DURATION_915
POSITION_542234
NOTE_ON_59
DURATION_683
POSITION_541385
NOTE_ON_71
DURATION_1975
POSITION_542686
NOTE_ON_81
DURATION_766
POSITION_542903
NOTE_ON_57
DURATION_563
POSITION_542693
NOTE_ON_72
DURATION_782
POSITION_543845
NOTE_ON_77
DURATION_317
POSITION_543355
NOTE_ON_74
DURATION_819
POSITION_544109
NOTE_ON_76
DURATION_234
POSITION_544328
NOTE_ON_74
DURATION_197
POSITION_543374
NOTE_ON_56
DURATION_1253
POSITION_544515
NOTE_ON_76
DURATION_202
POSITION_543350
NOTE_ON_83
DURATION_1392
POSITION_544700
NOTE_ON_74
DURATION_195
POSITION_544890
NOTE_ON_72
DURATION_171
POSITION_545060
NOTE_ON_71
DURATION_155
POSITION_545245
NOTE_ON_69
DURATION_189
POSITION_545432
NOTE_ON_68
DURATION_207
POSITION_545618
NOTE_ON_66
DURATION_188
POSITION_545798
NOTE_ON_64
DURATION_227
POSITION_546006
NOTE_ON_74
DURATION_203
POSITION_546194
NOTE_ON_72
DURATION_195
POSITION_546374
NOTE_ON_71
DURATION_192
POSITION_546560
NOTE_ON_74
DURATION_290
POSITION_546575
NOTE_ON_52
DURATION_290
POSITION_546837
NOTE_ON_57
DURATION_587
POSITION_546814
NOTE_ON_72
DURATION_611
POSITION_547436
NOTE_ON_64
DURATION_245
POSITION_547441
NOTE_ON_55
DURATION_241
POSITION_547661
NOTE_ON_69
DURATION_586
POSITION_547664
NOTE_ON_54
DURATION_604
POSITION_548234
NOTE_ON_52
DURATION_260
POSITION_548452
NOTE_ON_50
DURATION_107
POSITION_548217
NOTE_ON_67
DURATION_588
POSITION_548642
NOTE_ON_71
DURATION_170
POSITION_548568
NOTE_ON_50
DURATION_247
POSITION_548818
NOTE_ON_69
DURATION_194
POSITION_548453
NOTE_ON_66
DURATION_643
POSITION_549017
NOTE_ON_72
DURATION_261
POSITION_549023
NOTE_ON_43
DURATION_261
POSITION_549023
NOTE_ON_69
DURATION_273
POSITION_549272
NOTE_ON_67
DURATION_1053
POSITION_549269
NOTE_ON_71
DURATION_1056
POSITION_550051
NOTE_ON_66
DURATION_280
POSITION_550059
NOTE_ON_72
DURATION_278
POSITION_550029
NOTE_ON_76
DURATION_312
POSITION_549294
NOTE_ON_55
DURATION_1085
POSITION_551063
NOTE_ON_57
DURATION_289
POSITION_551335
NOTE_ON_59
DURATION_867
POSITION_550321
NOTE_ON_74
DURATION_1883
POSITION_550332
NOTE_ON_71
DURATION_2128
POSITION_552150
NOTE_ON_72
DURATION_325
POSITION_550330
NOTE_ON_67
DURATION_2153
POSITION_552174
NOTE_ON_69
DURATION_313
POSITION_552181
NOTE_ON_60
DURATION_379
POSITION_552173
NOTE_ON_64
DURATION_408
POSITION_552467
NOTE_ON_71
DURATION_1314
POSITION_553785
NOTE_ON_71
DURATION_53
POSITION_553718
NOTE_ON_69
DURATION_148
POSITION_552488
NOTE_ON_67
DURATION_1455
POSITION_553872
NOTE_ON_69
DURATION_132
POSITION_554011
NOTE_ON_69
DURATION_54
POSITION_553941
NOTE_ON_71
DURATION_140
POSITION_552495
NOTE_ON_62
DURATION_2385
POSITION_553610
NOTE_ON_66
DURATION_1988
POSITION_553504
NOTE_ON_60
DURATION_2094
POSITION_554892
NOTE_ON_67
DURATION_706
POSITION_554076
NOTE_ON_69
DURATION_1548
POSITION_554085
NOTE_ON_71
DURATION_1731
POSITION_553434
NOTE_ON_50
DURATION_4610
POSITION_555415
NOTE_ON_43
DURATION_3305
POSITION_555502
NOTE_ON_59
DURATION_3218
POSITION_555644
NOTE_ON_62
DURATION_3076
POSITION_555836
NOTE_ON_67
DURATION_2884
POSITION_562042
NOTE_ON_55
DURATION_53
POSITION_561859
NOTE_ON_62
DURATION_236
POSITION_562170
NOTE_ON_59
DURATION_38
POSITION_562455
NOTE_ON_59
DURATION_75
POSITION_562331
NOTE_ON_67
DURATION_200
POSITION_562577
NOTE_ON_62
DURATION_39
POSITION_562734
NOTE_ON_71
DURATION_166
POSITION_562868
NOTE_ON_62
DURATION_47
POSITION_563001
NOTE_ON_67
DURATION_28
POSITION_563152
NOTE_ON_74
DURATION_184
POSITION_563285
NOTE_ON_67
DURATION_55
POSITION_563405
NOTE_ON_71
DURATION_34
POSITION_563559
NOTE_ON_79
DURATION_182
POSITION_563686
NOTE_ON_71
DURATION_64
POSITION_563817
NOTE_ON_74
DURATION_34
POSITION_564107
NOTE_ON_74
DURATION_131
POSITION_564228
NOTE_ON_79
DURATION_32
POSITION_563975
NOTE_ON_83
DURATION_305
POSITION_564406
NOTE_ON_83
DURATION_53
POSITION_564375
NOTE_ON_84
DURATION_97
POSITION_564515
NOTE_ON_74
DURATION_95
POSITION_564655
NOTE_ON_73
DURATION_43
POSITION_564790
NOTE_ON_74
DURATION_45
POSITION_564448
NOTE_ON_79
DURATION_500
POSITION_565006
NOTE_ON_62
DURATION_299
POSITION_564973
NOTE_ON_81
DURATION_334
POSITION_564984
NOTE_ON_78
DURATION_333
POSITION_565491
NOTE_ON_74
DURATION_99
POSITION_565344
NOTE_ON_83
DURATION_303
POSITION_565619
NOTE_ON_79
DURATION_32
POSITION_565774
NOTE_ON_76
DURATION_190
POSITION_565890
NOTE_ON_67
DURATION_74
POSITION_566023
NOTE_ON_71
DURATION_27
POSITION_566177
NOTE_ON_81
DURATION_182
POSITION_566319
NOTE_ON_73
DURATION_91
POSITION_566445
NOTE_ON_76
DURATION_36
POSITION_566588
NOTE_ON_74
DURATION_172
POSITION_566724
NOTE_ON_66
DURATION_76
POSITION_566853
NOTE_ON_69
DURATION_34
POSITION_567004
NOTE_ON_79
DURATION_152
POSITION_567134
NOTE_ON_71
DURATION_66
POSITION_567267
NOTE_ON_74
DURATION_46
POSITION_567408
NOTE_ON_73
DURATION_190
POSITION_567556
NOTE_ON_64
DURATION_107
POSITION_567695
NOTE_ON_67
DURATION_37
POSITION_567829
NOTE_ON_78
DURATION_32
POSITION_567953
NOTE_ON_69
DURATION_42
POSITION_568078
NOTE_ON_73
DURATION_37
POSITION_568229
NOTE_ON_71
DURATION_184
POSITION_568352
NOTE_ON_62
DURATION_68
POSITION_568478
NOTE_ON_66
DURATION_49
POSITION_568644
NOTE_ON_76
DURATION_147
POSITION_568761
NOTE_ON_67
DURATION_41
POSITION_568897
NOTE_ON_71
DURATION_26
POSITION_569053
NOTE_ON_69
DURATION_203
POSITION_569176
NOTE_ON_61
DURATION_93
POSITION_569314
NOTE_ON_64
DURATION_37
POSITION_569463
NOTE_ON_74
DURATION_125
POSITION_569591
NOTE_ON_66
DURATION_82
POSITION_569716
NOTE_ON_69
DURATION_36
POSITION_569989
NOTE_ON_59
DURATION_47
POSITION_569869
NOTE_ON_67
DURATION_276
POSITION_570117
NOTE_ON_62
DURATION_37
POSITION_570308
NOTE_ON_55
DURATION_319
POSITION_570602
NOTE_ON_74
DURATION_35
POSITION_570610
NOTE_ON_64
DURATION_30
POSITION_570888
NOTE_ON_73
DURATION_31
POSITION_570889
NOTE_ON_57
DURATION_32
POSITION_570900
NOTE_ON_45
DURATION_32
POSITION_570890
NOTE_ON_67
DURATION_48
POSITION_571259
NOTE_ON_57
DURATION_10
POSITION_571254
NOTE_ON_67
DURATION_637
POSITION_571242
NOTE_ON_73
DURATION_707
POSITION_571900
NOTE_ON_67
DURATION_60
POSITION_571971
NOTE_ON_74
DURATION_336
POSITION_571257
NOTE_ON_62
DURATION_1050
POSITION_571974
NOTE_ON_66
DURATION_336
POSITION_572467
NOTE_ON_62
DURATION_40
POSITION_572633
NOTE_ON_55
DURATION_30
POSITION_572757
NOTE_ON_59
DURATION_31
POSITION_572896
NOTE_ON_67
DURATION_55
POSITION_573037
NOTE_ON_59
DURATION_27
POSITION_573174
NOTE_ON_62
DURATION_34
POSITION_573313
NOTE_ON_71
DURATION_39
POSITION_573443
NOTE_ON_62
DURATION_50
POSITION_573583
NOTE_ON_67
DURATION_27
POSITION_573729
NOTE_ON_74
DURATION_46
POSITION_573868
NOTE_ON_67
DURATION_28
POSITION_573991
NOTE_ON_71
DURATION_31
POSITION_574145
NOTE_ON_79
DURATION_39
POSITION_574270
NOTE_ON_71
DURATION_31
POSITION_574402
NOTE_ON_74
DURATION_31
POSITION_574540
NOTE_ON_83
DURATION_49
POSITION_574660
NOTE_ON_74
DURATION_45
POSITION_574787
NOTE_ON_79
DURATION_34
POSITION_574922
NOTE_ON_84
DURATION_71
POSITION_574948
NOTE_ON_79
DURATION_68
POSITION_575003
NOTE_ON_84
DURATION_205
POSITION_575200
NOTE_ON_73
DURATION_29
POSITION_575063
NOTE_ON_74
DURATION_169
POSITION_574944
NOTE_ON_83
DURATION_357
POSITION_575335
NOTE_ON_74
DURATION_24
POSITION_575425
NOTE_ON_73
DURATION_106
POSITION_575520
NOTE_ON_78
DURATION_57
POSITION_575537
NOTE_ON_62
DURATION_263
POSITION_575504
NOTE_ON_81
DURATION_304
POSITION_575838
NOTE_ON_83
DURATION_66
POSITION_575974
NOTE_ON_74
DURATION_33
POSITION_576113
NOTE_ON_79
DURATION_30
POSITION_576276
NOTE_ON_76
DURATION_36
POSITION_576420
NOTE_ON_67
DURATION_31
POSITION_576537
NOTE_ON_71
DURATION_31
POSITION_576670
NOTE_ON_81
DURATION_64
POSITION_576804
NOTE_ON_73
DURATION_31
POSITION_576943
NOTE_ON_76
DURATION_35
POSITION_577085
NOTE_ON_74
DURATION_34
POSITION_577226
NOTE_ON_66
DURATION_31
POSITION_577354
NOTE_ON_69
DURATION_34
POSITION_577486
NOTE_ON_79
DURATION_41
POSITION_577613
NOTE_ON_71
DURATION_26
POSITION_577745
NOTE_ON_74
DURATION_32
POSITION_577889
NOTE_ON_73
DURATION_43
POSITION_578021
NOTE_ON_64
DURATION_34
POSITION_578147
NOTE_ON_67
DURATION_35
POSITION_578278
NOTE_ON_78
DURATION_37
POSITION_578400
NOTE_ON_69
DURATION_34
POSITION_578544
NOTE_ON_73
DURATION_26
POSITION_578686
NOTE_ON_71
DURATION_41
POSITION_578809
NOTE_ON_62
DURATION_43
POSITION_578948
NOTE_ON_66
DURATION_31
POSITION_579074
NOTE_ON_76
DURATION_45
POSITION_579193
NOTE_ON_67
DURATION_33
POSITION_579332
NOTE_ON_71
DURATION_27
POSITION_579477
NOTE_ON_69
DURATION_45
POSITION_579591
NOTE_ON_61
DURATION_39
POSITION_579747
NOTE_ON_64
DURATION_55
POSITION_579860
NOTE_ON_74
DURATION_44
POSITION_579991
NOTE_ON_66
DURATION_66
POSITION_580122
NOTE_ON_69
DURATION_31
POSITION_580265
NOTE_ON_67
DURATION_48
POSITION_580382
NOTE_ON_59
DURATION_48
POSITION_580517
NOTE_ON_62
DURATION_33
POSITION_580685
NOTE_ON_55
DURATION_226
POSITION_580947
NOTE_ON_74
DURATION_31
POSITION_580971
NOTE_ON_64
DURATION_44
POSITION_581249
NOTE_ON_67
DURATION_11
POSITION_581235
NOTE_ON_73
DURATION_32
POSITION_581256
NOTE_ON_57
DURATION_43
POSITION_581634
NOTE_ON_67
DURATION_652
POSITION_581615
NOTE_ON_73
DURATION_683
POSITION_582323
NOTE_ON_66
DURATION_226
POSITION_581626
NOTE_ON_62
DURATION_929
POSITION_582317
NOTE_ON_74
DURATION_245
POSITION_582797
NOTE_ON_57
DURATION_216
POSITION_582963
NOTE_ON_50
DURATION_89
POSITION_583097
NOTE_ON_54
DURATION_41
POSITION_583231
NOTE_ON_62
DURATION_154
POSITION_583362
NOTE_ON_54
DURATION_99
POSITION_583492
NOTE_ON_57
DURATION_45
POSITION_583634
NOTE_ON_66
DURATION_165
POSITION_583765
NOTE_ON_57
DURATION_109
POSITION_583891
NOTE_ON_62
DURATION_45
POSITION_584034
NOTE_ON_69
DURATION_141
POSITION_584169
NOTE_ON_62
DURATION_61
POSITION_584295
NOTE_ON_66
DURATION_39
POSITION_584441
NOTE_ON_72
DURATION_156
POSITION_584576
NOTE_ON_66
DURATION_107
POSITION_584693
NOTE_ON_69
DURATION_38
POSITION_584962
NOTE_ON_69
DURATION_123
POSITION_584833
NOTE_ON_75
DURATION_263
POSITION_585073
NOTE_ON_72
DURATION_212
POSITION_585292
NOTE_ON_72
DURATION_382
POSITION_585715
NOTE_ON_79
DURATION_52
POSITION_585289
NOTE_ON_78
DURATION_479
POSITION_585772
NOTE_ON_81
DURATION_98
POSITION_585267
NOTE_ON_63
DURATION_609
POSITION_585575
NOTE_ON_71
DURATION_317
POSITION_585862
NOTE_ON_79
DURATION_263
POSITION_585875
NOTE_ON_64
DURATION_251
POSITION_586155
NOTE_ON_59
DURATION_138
POSITION_586293
NOTE_ON_52
DURATION_41
POSITION_586434
NOTE_ON_55
DURATION_49
POSITION_586571
NOTE_ON_64
DURATION_152
POSITION_586697
NOTE_ON_55
DURATION_70
POSITION_586836
NOTE_ON_59
DURATION_31
POSITION_586977
NOTE_ON_67
DURATION_158
POSITION_587106
NOTE_ON_59
DURATION_55
POSITION_587238
NOTE_ON_64
DURATION_32
POSITION_587368
NOTE_ON_71
DURATION_145
POSITION_587508
NOTE_ON_64
DURATION_32
POSITION_587636
NOTE_ON_67
DURATION_35
POSITION_587783
NOTE_ON_74
DURATION_127
POSITION_587908
NOTE_ON_68
DURATION_76
POSITION_588037
NOTE_ON_71
DURATION_47
POSITION_588164
NOTE_ON_77
DURATION_157
POSITION_588301
NOTE_ON_71
DURATION_44
POSITION_588582
NOTE_ON_64
DURATION_279
POSITION_588581
NOTE_ON_80
DURATION_288
POSITION_588416
NOTE_ON_74
DURATION_453
POSITION_588703
NOTE_ON_81
DURATION_173
POSITION_588845
NOTE_ON_68
DURATION_32
POSITION_588851
NOTE_ON_83
DURATION_81
POSITION_588977
NOTE_ON_74
DURATION_163
POSITION_589130
NOTE_ON_72
DURATION_208
POSITION_589134
NOTE_ON_57
DURATION_209
POSITION_589463
NOTE_ON_78
DURATION_36
POSITION_589620
NOTE_ON_69
DURATION_95
POSITION_589734
NOTE_ON_72
DURATION_47
POSITION_589875
NOTE_ON_71
DURATION_148
POSITION_590016
NOTE_ON_63
DURATION_140
POSITION_590151
NOTE_ON_66
DURATION_41
POSITION_590407
NOTE_ON_71
DURATION_37
POSITION_590282
NOTE_ON_79
DURATION_167
POSITION_590553
NOTE_ON_76
DURATION_34
POSITION_590705
NOTE_ON_70
DURATION_162
POSITION_590817
NOTE_ON_61
DURATION_134
POSITION_590971
NOTE_ON_64
DURATION_32
POSITION_591097
NOTE_ON_78
DURATION_155
POSITION_591229
NOTE_ON_69
DURATION_42
POSITION_591365
NOTE_ON_72
DURATION_33
POSITION_591518
NOTE_ON_71
DURATION_256
POSITION_591640
NOTE_ON_63
DURATION_146
POSITION_591777
NOTE_ON_66
DURATION_26
POSITION_591928
NOTE_ON_81
DURATION_165
POSITION_592067
NOTE_ON_72
DURATION_39
POSITION_592192
NOTE_ON_76
DURATION_38
POSITION_592345
NOTE_ON_75
DURATION_141
POSITION_592471
NOTE_ON_66
DURATION_97
POSITION_592605
NOTE_ON_69
DURATION_31
POSITION_592741
NOTE_ON_79
DURATION_121
POSITION_592873
NOTE_ON_71
DURATION_58
POSITION_593000
NOTE_ON_74
DURATION_32
POSITION_593140
NOTE_ON_72
DURATION_191
POSITION_593267
NOTE_ON_64
DURATION_66
POSITION_593405
NOTE_ON_67
DURATION_30
POSITION_593553
NOTE_ON_78
DURATION_32
POSITION_593676
NOTE_ON_69
DURATION_42
POSITION_593800
NOTE_ON_72
DURATION_35
POSITION_594082
NOTE_ON_62
DURATION_84
POSITION_593956
NOTE_ON_71
DURATION_222
POSITION_594217
NOTE_ON_66
DURATION_28
POSITION_594498
NOTE_ON_67
DURATION_69
POSITION_594617
NOTE_ON_71
DURATION_29
POSITION_594366
NOTE_ON_76
DURATION_281
POSITION_594912
NOTE_ON_60
DURATION_102
POSITION_594780
NOTE_ON_69
DURATION_274
POSITION_595032
NOTE_ON_64
DURATION_45
POSITION_595187
NOTE_ON_75
DURATION_138
POSITION_595324
NOTE_ON_66
DURATION_80
POSITION_595449
NOTE_ON_69
DURATION_37
POSITION_595605
NOTE_ON_63
DURATION_120
POSITION_595721
NOTE_ON_66
DURATION_71
POSITION_595846
NOTE_ON_69
DURATION_34
POSITION_595990
NOTE_ON_72
DURATION_174
POSITION_596120
NOTE_ON_66
DURATION_91
POSITION_596253
NOTE_ON_69
DURATION_34
POSITION_596532
NOTE_ON_69
DURATION_45
POSITION_596394
NOTE_ON_75
DURATION_185
POSITION_596655
NOTE_ON_72
DURATION_37
POSITION_596811
NOTE_ON_78
DURATION_30
POSITION_596924
NOTE_ON_72
DURATION_52
POSITION_597054
NOTE_ON_75
DURATION_32
POSITION_597184
NOTE_ON_81
DURATION_41
POSITION_597320
NOTE_ON_75
DURATION_49
POSITION_597446
NOTE_ON_78
DURATION_31
POSITION_597618
NOTE_ON_76
DURATION_36
POSITION_597614
NOTE_ON_79
DURATION_50
POSITION_597901
NOTE_ON_71
DURATION_36
POSITION_597897
NOTE_ON_55
DURATION_47
POSITION_597895
NOTE_ON_76
DURATION_50
POSITION_598184
NOTE_ON_69
DURATION_32
POSITION_598183
NOTE_ON_75
DURATION_36
POSITION_598184
NOTE_ON_59
DURATION_36
POSITION_598506
NOTE_ON_75
DURATION_372
POSITION_598512
NOTE_ON_69
DURATION_389
POSITION_598514
NOTE_ON_64
DURATION_424
POSITION_598943
NOTE_ON_62
DURATION_151
POSITION_599076
NOTE_ON_61
DURATION_116
POSITION_599190
NOTE_ON_59
DURATION_87
POSITION_598827
NOTE_ON_67
DURATION_712
POSITION_599345
NOTE_ON_57
DURATION_232
POSITION_599487
NOTE_ON_64
DURATION_144
POSITION_599608
NOTE_ON_61
DURATION_58
POSITION_598806
NOTE_ON_76
DURATION_925
POSITION_599744
NOTE_ON_67
DURATION_158
POSITION_599886
NOTE_ON_64
DURATION_79
POSITION_600000
NOTE_ON_61
DURATION_55
POSITION_600133
NOTE_ON_57
DURATION_177
POSITION_600258
NOTE_ON_66
DURATION_97
POSITION_600375
NOTE_ON_62
DURATION_37
POSITION_600525
NOTE_ON_69
DURATION_39
POSITION_600650
NOTE_ON_66
DURATION_94
POSITION_600769
NOTE_ON_62
DURATION_33
POSITION_600920
NOTE_ON_57
DURATION_101
POSITION_601040
NOTE_ON_64
DURATION_46
POSITION_601167
NOTE_ON_61
DURATION_53
POSITION_601312
NOTE_ON_67
DURATION_152
POSITION_601439
NOTE_ON_64
DURATION_73
POSITION_601572
NOTE_ON_61
DURATION_39
POSITION_601704
NOTE_ON_57
DURATION_221
POSITION_601825
NOTE_ON_66
DURATION_107
POSITION_601945
NOTE_ON_62
DURATION_40
POSITION_602238
NOTE_ON_66
DURATION_92
POSITION_602101
NOTE_ON_69
DURATION_249
POSITION_602358
NOTE_ON_62
DURATION_33
POSITION_602670
NOTE_ON_62
DURATION_50
POSITION_602546
NOTE_ON_55
DURATION_188
POSITION_602803
NOTE_ON_59
DURATION_32
POSITION_602945
NOTE_ON_65
DURATION_173
POSITION_603060
NOTE_ON_62
DURATION_92
POSITION_603192
NOTE_ON_59
DURATION_37
POSITION_603339
NOTE_ON_55
DURATION_107
POSITION_603463
NOTE_ON_64
DURATION_73
POSITION_603591
NOTE_ON_60
DURATION_31
POSITION_603854
NOTE_ON_64
DURATION_72
POSITION_603738
NOTE_ON_67
DURATION_201
POSITION_603997
NOTE_ON_60
DURATION_35
POSITION_604129
NOTE_ON_55
DURATION_141
POSITION_604263
NOTE_ON_62
DURATION_35
POSITION_604383
NOTE_ON_59
DURATION_35
POSITION_604532
NOTE_ON_65
DURATION_180
POSITION_604647
NOTE_ON_62
DURATION_98
POSITION_604780
NOTE_ON_59
DURATION_33
POSITION_604917
NOTE_ON_55
DURATION_182
POSITION_605043
NOTE_ON_64
DURATION_100
POSITION_605179
NOTE_ON_60
DURATION_38
POSITION_605452
NOTE_ON_64
DURATION_118
POSITION_605315
NOTE_ON_67
DURATION_263
POSITION_605594
NOTE_ON_60
DURATION_32
POSITION_605764
NOTE_ON_48
DURATION_186
POSITION_605799
NOTE_ON_66
DURATION_156
POSITION_605918
NOTE_ON_64
DURATION_43
POSITION_606039
NOTE_ON_54
DURATION_33
POSITION_606047
NOTE_ON_62
DURATION_104
POSITION_606154
NOTE_ON_69
DURATION_57
POSITION_606279
NOTE_ON_57
DURATION_36
POSITION_606280
NOTE_ON_66
DURATION_106
POSITION_606388
NOTE_ON_64
DURATION_89
POSITION_606539
NOTE_ON_54
DURATION_140
POSITION_606540
NOTE_ON_62
DURATION_152
POSITION_606669
NOTE_ON_57
DURATION_76
POSITION_606787
NOTE_ON_50
DURATION_84
POSITION_606791
NOTE_ON_62
DURATION_124
POSITION_606907
NOTE_ON_66
DURATION_86
POSITION_607039
NOTE_ON_48
DURATION_46
POSITION_607038
NOTE_ON_62
DURATION_125
POSITION_607154
NOTE_ON_66
DURATION_55
POSITION_607290
NOTE_ON_67
DURATION_110
POSITION_607284
NOTE_ON_47
DURATION_120
POSITION_607415
NOTE_ON_62
DURATION_60
POSITION_607537
NOTE_ON_67
DURATION_42
POSITION_607537
NOTE_ON_50
DURATION_52
POSITION_607653
NOTE_ON_71
DURATION_65
POSITION_607773
NOTE_ON_55
DURATION_53
POSITION_607775
NOTE_ON_67
DURATION_75
POSITION_607897
NOTE_ON_71
DURATION_57
POSITION_608029
NOTE_ON_59
DURATION_152
POSITION_608028
NOTE_ON_74
DURATION_162
POSITION_608145
NOTE_ON_71
DURATION_53
POSITION_608274
NOTE_ON_67
DURATION_37
POSITION_608274
NOTE_ON_62
DURATION_42
POSITION_608397
NOTE_ON_77
DURATION_35
POSITION_608539
NOTE_ON_67
DURATION_45
POSITION_608536
NOTE_ON_74
DURATION_72
POSITION_608660
NOTE_ON_71
DURATION_31
POSITION_609029
NOTE_ON_67
DURATION_59
POSITION_608877
NOTE_ON_76
DURATION_212
POSITION_609156
NOTE_ON_71
DURATION_28
POSITION_609300
NOTE_ON_69
DURATION_44
POSITION_609426
NOTE_ON_60
DURATION_40
POSITION_609544
NOTE_ON_64
DURATION_32
POSITION_609693
NOTE_ON_74
DURATION_144
POSITION_609836
NOTE_ON_66
DURATION_93
POSITION_609955
NOTE_ON_69
DURATION_33
POSITION_610104
NOTE_ON_67
DURATION_127
POSITION_610220
NOTE_ON_59
DURATION_92
POSITION_610348
NOTE_ON_62
DURATION_33
POSITION_610495
NOTE_ON_72
DURATION_104
POSITION_610623
NOTE_ON_64
DURATION_71
POSITION_610748
NOTE_ON_67
DURATION_31
POSITION_610886
NOTE_ON_66
DURATION_131
POSITION_611008
NOTE_ON_57
DURATION_108
POSITION_611138
NOTE_ON_60
DURATION_31
POSITION_611395
NOTE_ON_62
DURATION_89
POSITION_611272
NOTE_ON_71
DURATION_263
POSITION_611521
NOTE_ON_66
DURATION_28
POSITION_611685
NOTE_ON_64
DURATION_85
POSITION_611794
NOTE_ON_55
DURATION_58
POSITION_611920
NOTE_ON_59
DURATION_33
POSITION_612068
NOTE_ON_69
DURATION_40
POSITION_612205
NOTE_ON_60
DURATION_69
POSITION_612331
NOTE_ON_64
DURATION_49
POSITION_612482
NOTE_ON_62
DURATION_112
POSITION_612597
NOTE_ON_54
DURATION_52
POSITION_612722
NOTE_ON_57
DURATION_32
POSITION_612999
NOTE_ON_59
DURATION_70
POSITION_612855
NOTE_ON_67
DURATION_225
POSITION_613110
NOTE_ON_62
DURATION_36
POSITION_613275
NOTE_ON_60
DURATION_107
POSITION_613404
NOTE_ON_52
DURATION_52
POSITION_613528
NOTE_ON_55
DURATION_32
POSITION_613736
NOTE_ON_48
DURATION_254
POSITION_614008
NOTE_ON_69
DURATION_32
POSITION_614002
NOTE_ON_79
DURATION_41
POSITION_614305
NOTE_ON_50
DURATION_31
POSITION_614302
NOTE_ON_78
DURATION_34
POSITION_614305
NOTE_ON_72
DURATION_31
POSITION_614717
NOTE_ON_72
DURATION_738
POSITION_614711
NOTE_ON_78
DURATION_750
POSITION_614710
NOTE_ON_43
DURATION_803
POSITION_615516
NOTE_ON_79
DURATION_458
POSITION_615521
NOTE_ON_71
DURATION_461
POSITION_615524
NOTE_ON_43
DURATION_462
POSITION_616203
NOTE_ON_57
DURATION_59
POSITION_616367
NOTE_ON_50
DURATION_42
POSITION_616494
NOTE_ON_54
DURATION_31
POSITION_616617
NOTE_ON_62
DURATION_45
POSITION_616750
NOTE_ON_54
DURATION_44
POSITION_616862
NOTE_ON_57
DURATION_30
POSITION_616996
NOTE_ON_66
DURATION_44
POSITION_617112
NOTE_ON_57
DURATION_41
POSITION_617238
NOTE_ON_62
DURATION_35
POSITION_617376
NOTE_ON_69
DURATION_39
POSITION_617493
NOTE_ON_62
DURATION_38
POSITION_617636
NOTE_ON_66
DURATION_32
POSITION_617769
NOTE_ON_72
DURATION_44
POSITION_617908
NOTE_ON_66
DURATION_53
POSITION_618026
NOTE_ON_69
DURATION_33
POSITION_618175
NOTE_ON_75
DURATION_44
POSITION_618291
NOTE_ON_69
DURATION_43
POSITION_618420
NOTE_ON_72
DURATION_211
POSITION_618641
NOTE_ON_72
DURATION_393
POSITION_618597
NOTE_ON_63
DURATION_444
POSITION_618636
NOTE_ON_78
DURATION_418
POSITION_619079
NOTE_ON_79
DURATION_39
POSITION_619127
NOTE_ON_81
DURATION_90
POSITION_618930
NOTE_ON_71
DURATION_320
POSITION_619242
NOTE_ON_64
DURATION_73
POSITION_619531
NOTE_ON_59
DURATION_44
POSITION_619657
NOTE_ON_52
DURATION_44
POSITION_619783
NOTE_ON_55
DURATION_35
POSITION_619913
NOTE_ON_64
DURATION_46
POSITION_620044
NOTE_ON_55
DURATION_63
POSITION_620159
NOTE_ON_59
DURATION_26
POSITION_619223
NOTE_ON_79
DURATION_1059
POSITION_620303
NOTE_ON_67
DURATION_37
POSITION_620432
NOTE_ON_59
DURATION_84
POSITION_620548
NOTE_ON_64
DURATION_49
POSITION_620685
NOTE_ON_71
DURATION_62
POSITION_620811
NOTE_ON_64
DURATION_66
POSITION_620934
NOTE_ON_67
DURATION_35
POSITION_621080
NOTE_ON_74
DURATION_35
POSITION_621204
NOTE_ON_68
DURATION_86
POSITION_621334
NOTE_ON_71
DURATION_28
POSITION_621462
NOTE_ON_77
DURATION_37
POSITION_621587
NOTE_ON_71
DURATION_61
POSITION_622044
NOTE_ON_81
DURATION_237
POSITION_621919
NOTE_ON_80
DURATION_364
POSITION_621867
NOTE_ON_64
DURATION_419
POSITION_621717
NOTE_ON_74
DURATION_570
POSITION_622183
NOTE_ON_68
DURATION_104
POSITION_622178
NOTE_ON_83
DURATION_112
POSITION_622296
NOTE_ON_74
DURATION_152
POSITION_622461
NOTE_ON_57
DURATION_45
POSITION_622460
NOTE_ON_72
DURATION_47
POSITION_622830
NOTE_ON_78
DURATION_35
POSITION_622974
NOTE_ON_69
DURATION_40
POSITION_622851
NOTE_ON_57
DURATION_173
POSITION_623104
NOTE_ON_72
DURATION_25
POSITION_623262
NOTE_ON_71
DURATION_27
POSITION_623376
NOTE_ON_63
DURATION_96
POSITION_623509
NOTE_ON_66
DURATION_45
POSITION_623644
NOTE_ON_79
DURATION_44
POSITION_623759
NOTE_ON_71
DURATION_34
POSITION_623889
NOTE_ON_76
DURATION_34
POSITION_624027
NOTE_ON_70
DURATION_31
POSITION_624149
NOTE_ON_61
DURATION_55
POSITION_624288
NOTE_ON_64
DURATION_28
POSITION_624426
NOTE_ON_78
DURATION_36
POSITION_624540
NOTE_ON_69
DURATION_30
POSITION_624681
NOTE_ON_72
DURATION_26
POSITION_624806
NOTE_ON_71
DURATION_61
POSITION_624924
NOTE_ON_63
DURATION_48
POSITION_625065
NOTE_ON_66
DURATION_29
POSITION_625221
NOTE_ON_81
DURATION_84
POSITION_625368
NOTE_ON_72
DURATION_45
POSITION_625494
NOTE_ON_76
DURATION_35
POSITION_625632
NOTE_ON_75
DURATION_38
POSITION_625740
NOTE_ON_66
DURATION_46
POSITION_625875
NOTE_ON_69
DURATION_28
POSITION_625997
NOTE_ON_79
DURATION_60
POSITION_626117
NOTE_ON_71
DURATION_30
POSITION_626259
NOTE_ON_74
DURATION_28
POSITION_626390
NOTE_ON_72
DURATION_45
POSITION_626509
NOTE_ON_64
DURATION_29
POSITION_626640
NOTE_ON_67
DURATION_27
POSITION_626770
NOTE_ON_78
DURATION_37
POSITION_626894
NOTE_ON_69
DURATION_34
POSITION_627030
NOTE_ON_72
DURATION_30
POSITION_627172
NOTE_ON_71
DURATION_35
POSITION_627292
NOTE_ON_62
DURATION_42
POSITION_627430
NOTE_ON_66
DURATION_30
POSITION_627571
NOTE_ON_76
DURATION_41
POSITION_627686
NOTE_ON_67
DURATION_41
POSITION_627811
NOTE_ON_71
DURATION_31
POSITION_627969
NOTE_ON_69
DURATION_35
POSITION_628080
NOTE_ON_60
DURATION_34
POSITION_628221
NOTE_ON_64
DURATION_32
POSITION_628359
NOTE_ON_75
DURATION_46
POSITION_628488
NOTE_ON_66
DURATION_42
POSITION_628611
NOTE_ON_69
DURATION_31
POSITION_628750
NOTE_ON_63
DURATION_42
POSITION_628879
NOTE_ON_66
DURATION_44
POSITION_629009
NOTE_ON_69
DURATION_32
POSITION_629140
NOTE_ON_72
DURATION_39
POSITION_629265
NOTE_ON_66
DURATION_81
POSITION_629387
NOTE_ON_69
DURATION_33
POSITION_629530
NOTE_ON_75
DURATION_30
POSITION_629659
NOTE_ON_69
DURATION_39
POSITION_629782
NOTE_ON_72
DURATION_35
POSITION_629922
NOTE_ON_78
DURATION_28
POSITION_630039
NOTE_ON_72
DURATION_67
POSITION_630170
NOTE_ON_75
DURATION_35
POSITION_630301
NOTE_ON_81
DURATION_39
POSITION_630441
NOTE_ON_75
DURATION_69
POSITION_630558
NOTE_ON_78
DURATION_35
POSITION_630729
NOTE_ON_76
DURATION_32
POSITION_630724
NOTE_ON_79
DURATION_38
POSITION_631009
NOTE_ON_55
DURATION_37
POSITION_631012
NOTE_ON_71
DURATION_35
POSITION_631008
NOTE_ON_76
DURATION_43
POSITION_631276
NOTE_ON_69
DURATION_37
POSITION_631271
NOTE_ON_75
DURATION_42
POSITION_631276
NOTE_ON_59
DURATION_39
POSITION_631584
NOTE_ON_64
DURATION_432
POSITION_632019
NOTE_ON_62
DURATION_286
POSITION_632144
NOTE_ON_61
DURATION_161
POSITION_632265
NOTE_ON_59
DURATION_111
POSITION_632406
NOTE_ON_57
DURATION_49
POSITION_631576
NOTE_ON_75
DURATION_879
POSITION_631921
NOTE_ON_67
DURATION_603
POSITION_631583
NOTE_ON_69
DURATION_980
POSITION_632536
NOTE_ON_64
DURATION_49
POSITION_632672
NOTE_ON_61
DURATION_47
POSITION_631896
NOTE_ON_76
DURATION_828
POSITION_632793
NOTE_ON_67
DURATION_42
POSITION_632937
NOTE_ON_64
DURATION_66
POSITION_633055
NOTE_ON_61
DURATION_57
POSITION_633180
NOTE_ON_57
DURATION_61
POSITION_633314
NOTE_ON_66
DURATION_75
POSITION_633427
NOTE_ON_62
DURATION_50
POSITION_633569
NOTE_ON_69
DURATION_41
POSITION_633572
NOTE_ON_57
DURATION_47
POSITION_633727
NOTE_ON_66
DURATION_52
POSITION_633842
NOTE_ON_62
DURATION_33
POSITION_633988
NOTE_ON_57
DURATION_37
POSITION_634119
NOTE_ON_64
DURATION_99
POSITION_634257
NOTE_ON_61
DURATION_38
POSITION_634381
NOTE_ON_67
DURATION_30
POSITION_634495
NOTE_ON_64
DURATION_53
POSITION_634638
NOTE_ON_61
DURATION_36
POSITION_634769
NOTE_ON_57
DURATION_30
POSITION_634909
NOTE_ON_66
DURATION_39
POSITION_635025
NOTE_ON_62
DURATION_33
POSITION_635148
NOTE_ON_69
DURATION_38
POSITION_635275
NOTE_ON_66
DURATION_107
POSITION_635404
NOTE_ON_62
DURATION_38
POSITION_635554
NOTE_ON_55
DURATION_85
POSITION_635691
NOTE_ON_62
DURATION_69
POSITION_635817
NOTE_ON_59
DURATION_46
POSITION_635950
NOTE_ON_65
DURATION_29
POSITION_636093
NOTE_ON_62
DURATION_60
POSITION_636216
NOTE_ON_59
DURATION_45
POSITION_636337
NOTE_ON_55
DURATION_37
POSITION_636460
NOTE_ON_64
DURATION_59
POSITION_636583
NOTE_ON_60
DURATION_50
POSITION_636723
NOTE_ON_67
DURATION_49
POSITION_636855
NOTE_ON_64
DURATION_36
POSITION_636992
NOTE_ON_60
DURATION_29
POSITION_637137
NOTE_ON_55
DURATION_42
POSITION_637268
NOTE_ON_62
DURATION_46
POSITION_637398
NOTE_ON_59
DURATION_38
POSITION_637527
NOTE_ON_65
DURATION_38
POSITION_637654
NOTE_ON_62
DURATION_53
POSITION_637787
NOTE_ON_59
DURATION_27
POSITION_637918
NOTE_ON_55
DURATION_33
POSITION_638031
NOTE_ON_64
DURATION_70
POSITION_638163
NOTE_ON_60
DURATION_40
POSITION_638290
NOTE_ON_67
DURATION_36
POSITION_638417
NOTE_ON_64
DURATION_39
POSITION_638550
NOTE_ON_60
DURATION_37
POSITION_638772
NOTE_ON_66
DURATION_180
POSITION_638906
NOTE_ON_64
DURATION_49
POSITION_638739
NOTE_ON_48
DURATION_313
POSITION_639026
NOTE_ON_54
DURATION_36
POSITION_639042
NOTE_ON_62
DURATION_43
POSITION_639143
NOTE_ON_69
DURATION_44
POSITION_639268
NOTE_ON_57
DURATION_34
POSITION_639273
NOTE_ON_66
DURATION_107
POSITION_639387
NOTE_ON_64
DURATION_60
POSITION_639510
NOTE_ON_54
DURATION_75
POSITION_639516
NOTE_ON_62
DURATION_100
POSITION_639639
NOTE_ON_57
DURATION_52
POSITION_639746
NOTE_ON_50
DURATION_33
POSITION_639749
NOTE_ON_62
DURATION_64
POSITION_639856
NOTE_ON_66
DURATION_48
POSITION_639983
NOTE_ON_48
DURATION_29
POSITION_639992
NOTE_ON_62
DURATION_102
POSITION_640109
NOTE_ON_66
DURATION_86
POSITION_640245
NOTE_ON_67
DURATION_119
POSITION_640241
NOTE_ON_47
DURATION_143
POSITION_640357
NOTE_ON_62
DURATION_102
POSITION_640476
NOTE_ON_50
DURATION_46
POSITION_640506
NOTE_ON_67
DURATION_68
POSITION_640598
NOTE_ON_71
DURATION_61
POSITION_640713
NOTE_ON_55
DURATION_41
POSITION_640830
NOTE_ON_71
DURATION_44
POSITION_640966
NOTE_ON_74
DURATION_166
POSITION_641076
NOTE_ON_71
DURATION_62
POSITION_640950
NOTE_ON_59
DURATION_189
POSITION_641199
NOTE_ON_67
DURATION_39
POSITION_641199
NOTE_ON_62
DURATION_39
POSITION_641308
NOTE_ON_77
DURATION_37
POSITION_641444
NOTE_ON_67
DURATION_39
POSITION_641443
NOTE_ON_74
DURATION_45
POSITION_641557
NOTE_ON_71
DURATION_33
POSITION_641763
NOTE_ON_76
DURATION_50
POSITION_641912
NOTE_ON_67
DURATION_40
POSITION_642050
NOTE_ON_71
DURATION_29
POSITION_642190
NOTE_ON_69
DURATION_44
POSITION_642306
NOTE_ON_60
DURATION_39
POSITION_642450
NOTE_ON_64
DURATION_26
POSITION_642582
NOTE_ON_74
DURATION_35
POSITION_642722
NOTE_ON_66
DURATION_42
POSITION_642852
NOTE_ON_69
DURATION_29
POSITION_642977
NOTE_ON_67
DURATION_41
POSITION_643103
NOTE_ON_59
DURATION_47
POSITION_643223
NOTE_ON_62
DURATION_35
POSITION_643362
NOTE_ON_72
DURATION_54
POSITION_643482
NOTE_ON_64
DURATION_41
POSITION_643617
NOTE_ON_67
DURATION_25
POSITION_643760
NOTE_ON_66
DURATION_40
POSITION_643873
NOTE_ON_57
DURATION_32
POSITION_644016
NOTE_ON_60
DURATION_31
POSITION_644138
NOTE_ON_71
DURATION_41
POSITION_644262
NOTE_ON_62
DURATION_47
POSITION_644389
NOTE_ON_66
DURATION_28
POSITION_644528
NOTE_ON_64
DURATION_40
POSITION_644650
NOTE_ON_55
DURATION_51
POSITION_644783
NOTE_ON_59
DURATION_36
POSITION_644918
NOTE_ON_69
DURATION_43
POSITION_645063
NOTE_ON_60
DURATION_61
POSITION_645187
NOTE_ON_64
DURATION_29
POSITION_645329
NOTE_ON_62
DURATION_40
POSITION_645458
NOTE_ON_54
DURATION_42
POSITION_645586
NOTE_ON_57
DURATION_29
POSITION_645721
NOTE_ON_67
DURATION_31
POSITION_645847
NOTE_ON_59
DURATION_57
POSITION_645977
NOTE_ON_62
DURATION_37
POSITION_646130
NOTE_ON_60
DURATION_36
POSITION_646254
NOTE_ON_52
DURATION_30
POSITION_646376
NOTE_ON_55
DURATION_38
POSITION_646590
NOTE_ON_48
DURATION_276
POSITION_646890
NOTE_ON_79
DURATION_38
POSITION_646896
NOTE_ON_69
DURATION_33
POSITION_647250
NOTE_ON_72
DURATION_34
POSITION_647235
NOTE_ON_78
DURATION_53
POSITION_647256
NOTE_ON_50
DURATION_32
POSITION_647783
NOTE_ON_72
DURATION_1248
POSITION_647781
NOTE_ON_78
DURATION_1252
POSITION_647798
NOTE_ON_43
DURATION_1261
POSITION_649047
NOTE_ON_71
DURATION_1210
POSITION_649033
NOTE_ON_79
DURATION_1247
POSITION_649068
NOTE_ON_43
DURATION_1251
POSITION_652900
NOTE_ON_43
DURATION_39
POSITION_652905
NOTE_ON_62
DURATION_44
POSITION_653162
NOTE_ON_67
DURATION_28
POSITION_653188
NOTE_ON_66
DURATION_49
POSITION_653441
NOTE_ON_59
DURATION_46
POSITION_653188
NOTE_ON_55
DURATION_306
POSITION_653244
NOTE_ON_67
DURATION_277
POSITION_653698
NOTE_ON_67
DURATION_56
POSITION_653732
NOTE_ON_69
DURATION_54
POSITION_653786
NOTE_ON_71
DURATION_50
POSITION_653698
NOTE_ON_64
DURATION_333
POSITION_653967
NOTE_ON_71
DURATION_64
POSITION_653967
NOTE_ON_54
DURATION_460
POSITION_654515
NOTE_ON_55
DURATION_248
POSITION_654501
NOTE_ON_67
DURATION_262
POSITION_654025
NOTE_ON_69
DURATION_742
POSITION_654213
NOTE_ON_62
DURATION_652
POSITION_654771
NOTE_ON_66
DURATION_229
POSITION_655018
NOTE_ON_64
DURATION_45
POSITION_655014
NOTE_ON_67
DURATION_55
POSITION_655274
NOTE_ON_61
DURATION_39
POSITION_655267
NOTE_ON_64
DURATION_47
POSITION_654771
NOTE_ON_57
DURATION_543
POSITION_655263
NOTE_ON_45
DURATION_69
POSITION_655528
NOTE_ON_47
DURATION_44
POSITION_655650
NOTE_ON_60
DURATION_66
POSITION_655761
NOTE_ON_59
DURATION_56
POSITION_655875
NOTE_ON_57
DURATION_62
POSITION_655996
NOTE_ON_59
DURATION_71
POSITION_656096
NOTE_ON_55
DURATION_40
POSITION_656005
NOTE_ON_67
DURATION_166
POSITION_656221
NOTE_ON_45
DURATION_45
POSITION_656221
NOTE_ON_66
DURATION_52
POSITION_655530
NOTE_ON_62
DURATION_772
POSITION_656327
NOTE_ON_57
DURATION_86
POSITION_655781
NOTE_ON_69
DURATION_643
POSITION_656478
NOTE_ON_67
DURATION_8
POSITION_656476
NOTE_ON_55
DURATION_66
POSITION_656563
NOTE_ON_54
DURATION_99
POSITION_656453
NOTE_ON_72
DURATION_282
POSITION_656673
NOTE_ON_55
DURATION_69
POSITION_656706
NOTE_ON_71
DURATION_100
POSITION_656794
NOTE_ON_52
DURATION_34
POSITION_656945
NOTE_ON_69
DURATION_286
POSITION_657236
NOTE_ON_69
DURATION_49
POSITION_657230
NOTE_ON_72
DURATION_101
POSITION_656951
NOTE_ON_54
DURATION_502
POSITION_657226
NOTE_ON_76
DURATION_258
POSITION_657489
NOTE_ON_55
DURATION_189
POSITION_657474
NOTE_ON_71
DURATION_204
POSITION_657472
NOTE_ON_74
DURATION_227
POSITION_657708
NOTE_ON_74
DURATION_55
POSITION_657732
NOTE_ON_72
DURATION_33
POSITION_657721
NOTE_ON_48
DURATION_50
POSITION_657940
NOTE_ON_50
DURATION_33
POSITION_657934
NOTE_ON_71
DURATION_40
POSITION_657942
NOTE_ON_67
DURATION_32
POSITION_657820
NOTE_ON_72
DURATION_164
POSITION_658027
NOTE_ON_69
DURATION_44
POSITION_658177
NOTE_ON_38
DURATION_31
POSITION_658179
NOTE_ON_66
DURATION_32
POSITION_658180
NOTE_ON_50
DURATION_49
POSITION_658193
NOTE_ON_69
DURATION_59
POSITION_658172
NOTE_ON_74
DURATION_281
POSITION_658457
NOTE_ON_55
DURATION_40
POSITION_658448
NOTE_ON_43
DURATION_69
POSITION_658456
NOTE_ON_67
DURATION_80
POSITION_658448
NOTE_ON_72
DURATION_123
POSITION_658550
NOTE_ON_71
DURATION_89
POSITION_658676
NOTE_ON_69
DURATION_58
POSITION_658773
NOTE_ON_67
DURATION_36
POSITION_658691
NOTE_ON_55
DURATION_126
POSITION_658933
NOTE_ON_62
DURATION_33
POSITION_658937
NOTE_ON_54
DURATION_226
POSITION_659201
NOTE_ON_67
DURATION_65
POSITION_659215
NOTE_ON_66
DURATION_59
POSITION_659451
NOTE_ON_59
DURATION_191
POSITION_659271
NOTE_ON_67
DURATION_456
POSITION_659732
NOTE_ON_67
DURATION_60
POSITION_659771
NOTE_ON_69
DURATION_51
POSITION_659823
NOTE_ON_71
DURATION_32
POSITION_659201
NOTE_ON_52
DURATION_810
POSITION_659974
NOTE_ON_71
DURATION_84
POSITION_659731
NOTE_ON_61
DURATION_533
POSITION_660048
NOTE_ON_69
DURATION_466
POSITION_660004
NOTE_ON_54
DURATION_790
POSITION_660513
NOTE_ON_67
DURATION_290
POSITION_660232
NOTE_ON_62
DURATION_585
POSITION_660787
NOTE_ON_66
DURATION_218
POSITION_660541
NOTE_ON_59
DURATION_481
POSITION_661025
NOTE_ON_64
DURATION_41
POSITION_661022
NOTE_ON_67
DURATION_45
POSITION_660787
NOTE_ON_55
DURATION_522
POSITION_661276
NOTE_ON_64
DURATION_44
POSITION_661284
NOTE_ON_61
DURATION_44
POSITION_661275
NOTE_ON_57
DURATION_238
POSITION_661543
NOTE_ON_62
DURATION_126
POSITION_661653
NOTE_ON_66
DURATION_180
POSITION_661789
NOTE_ON_64
DURATION_94
POSITION_661777
NOTE_ON_47
DURATION_237
POSITION_661536
NOTE_ON_59
DURATION_480
POSITION_661910
NOTE_ON_62
DURATION_113
POSITION_662037
NOTE_ON_64
DURATION_73
POSITION_662121
NOTE_ON_66
DURATION_38
POSITION_662016
NOTE_ON_49
DURATION_225
POSITION_662257
NOTE_ON_67
DURATION_40
POSITION_662355
NOTE_ON_76
DURATION_165
POSITION_662494
NOTE_ON_74
DURATION_120
POSITION_662588
NOTE_ON_73
DURATION_106
POSITION_662497
NOTE_ON_49
DURATION_245
POSITION_662256
NOTE_ON_57
DURATION_512
POSITION_662717
NOTE_ON_71
DURATION_72
POSITION_662818
NOTE_ON_69
DURATION_57
POSITION_662948
NOTE_ON_68
DURATION_39
POSITION_663049
NOTE_ON_69
DURATION_45
POSITION_662730
NOTE_ON_50
DURATION_468
POSITION_663204
NOTE_ON_50
DURATION_44
POSITION_662951
NOTE_ON_59
DURATION_488
POSITION_663187
NOTE_ON_81
DURATION_264
POSITION_663443
NOTE_ON_61
DURATION_259
POSITION_663438
NOTE_ON_79
DURATION_264
POSITION_663439
NOTE_ON_52
DURATION_269
POSITION_663676
NOTE_ON_78
DURATION_39
POSITION_663680
NOTE_ON_62
DURATION_46
POSITION_663678
NOTE_ON_54
DURATION_56
POSITION_663916
NOTE_ON_74
DURATION_37
POSITION_663926
NOTE_ON_66
DURATION_30
POSITION_663925
NOTE_ON_55
DURATION_32
POSITION_664178
NOTE_ON_73
DURATION_31
POSITION_664179
NOTE_ON_57
DURATION_30
POSITION_664184
NOTE_ON_64
DURATION_26
POSITION_664496
NOTE_ON_50
DURATION_510
POSITION_664471
NOTE_ON_74
DURATION_543
POSITION_664493
NOTE_ON_66
DURATION_522
POSITION_664494
NOTE_ON_57
DURATION_594
POSITION_665061
NOTE_ON_62
DURATION_38
POSITION_665061
NOTE_ON_43
DURATION_49
POSITION_665338
NOTE_ON_67
DURATION_38
POSITION_665377
NOTE_ON_66
DURATION_48
POSITION_665608
NOTE_ON_59
DURATION_61
POSITION_665430
NOTE_ON_67
DURATION_241
POSITION_665679
NOTE_ON_67
DURATION_207
POSITION_665330
NOTE_ON_55
DURATION_606
POSITION_665897
NOTE_ON_67
DURATION_46
POSITION_665931
NOTE_ON_69
DURATION_38
POSITION_665983
NOTE_ON_71
DURATION_141
POSITION_666131
NOTE_ON_71
DURATION_68
POSITION_665899
NOTE_ON_64
DURATION_302
POSITION_666131
NOTE_ON_54
DURATION_465
POSITION_666195
NOTE_ON_69
DURATION_450
POSITION_666638
NOTE_ON_67
DURATION_263
POSITION_666650
NOTE_ON_55
DURATION_305
POSITION_666371
NOTE_ON_62
DURATION_637
POSITION_666919
NOTE_ON_66
DURATION_275
POSITION_667170
NOTE_ON_64
DURATION_33
POSITION_667166
NOTE_ON_67
DURATION_45
POSITION_667419
NOTE_ON_64
DURATION_53
POSITION_667438
NOTE_ON_61
DURATION_37
POSITION_666918
NOTE_ON_57
DURATION_564
POSITION_667420
NOTE_ON_45
DURATION_67
POSITION_667695
NOTE_ON_47
DURATION_46
POSITION_667820
NOTE_ON_60
DURATION_70
POSITION_667943
NOTE_ON_59
DURATION_117
POSITION_668062
NOTE_ON_57
DURATION_69
POSITION_668171
NOTE_ON_59
DURATION_60
POSITION_668272
NOTE_ON_55
DURATION_35
POSITION_668395
NOTE_ON_45
DURATION_41
POSITION_668393
NOTE_ON_66
DURATION_45
POSITION_667699
NOTE_ON_62
DURATION_768
POSITION_668171
NOTE_ON_67
DURATION_303
POSITION_667947
NOTE_ON_69
DURATION_527
POSITION_668502
NOTE_ON_57
DURATION_76
POSITION_668633
NOTE_ON_55
DURATION_88
POSITION_668741
NOTE_ON_54
DURATION_89
POSITION_668632
NOTE_ON_72
DURATION_248
POSITION_668855
NOTE_ON_55
DURATION_56
POSITION_668970
NOTE_ON_52
DURATION_45
POSITION_668859
NOTE_ON_71
DURATION_191
POSITION_669110
NOTE_ON_69
DURATION_56
POSITION_669385
NOTE_ON_72
DURATION_142
POSITION_669384
NOTE_ON_76
DURATION_204
POSITION_669112
NOTE_ON_54
DURATION_494
POSITION_669644
NOTE_ON_55
DURATION_194
POSITION_669634
NOTE_ON_71
DURATION_204
POSITION_669631
NOTE_ON_74
DURATION_233
POSITION_669870
NOTE_ON_74
DURATION_71
POSITION_669889
NOTE_ON_72
DURATION_91
POSITION_669877
NOTE_ON_69
DURATION_116
POSITION_669948
NOTE_ON_74
DURATION_49
POSITION_669881
NOTE_ON_48
DURATION_117
POSITION_669991
NOTE_ON_72
DURATION_50
POSITION_670100
NOTE_ON_71
DURATION_31
POSITION_670098
NOTE_ON_50
DURATION_35
POSITION_670104
NOTE_ON_67
DURATION_30
POSITION_670204
NOTE_ON_69
DURATION_47
POSITION_670350
NOTE_ON_50
DURATION_25
POSITION_670345
NOTE_ON_66
DURATION_32
POSITION_670346
NOTE_ON_38
DURATION_48
POSITION_670344
NOTE_ON_74
DURATION_270
POSITION_670612
NOTE_ON_72
DURATION_54
POSITION_670619
NOTE_ON_67
DURATION_47
POSITION_670607
NOTE_ON_43
DURATION_84
POSITION_670722
NOTE_ON_71
DURATION_70
POSITION_670844
NOTE_ON_69
DURATION_54
POSITION_670942
NOTE_ON_67
DURATION_40
POSITION_670850
NOTE_ON_55
DURATION_208
POSITION_671105
NOTE_ON_62
DURATION_29
POSITION_671107
NOTE_ON_54
DURATION_215
POSITION_671408
NOTE_ON_66
DURATION_28
POSITION_671374
NOTE_ON_67
DURATION_80
POSITION_671628
NOTE_ON_59
DURATION_44
POSITION_671463
NOTE_ON_67
DURATION_421
POSITION_671893
NOTE_ON_67
DURATION_55
POSITION_671936
NOTE_ON_69
DURATION_133
POSITION_671367
NOTE_ON_52
DURATION_754
POSITION_671987
NOTE_ON_71
DURATION_135
POSITION_672128
NOTE_ON_71
DURATION_60
POSITION_671879
NOTE_ON_61
DURATION_515
POSITION_672185
NOTE_ON_69
DURATION_501
POSITION_672658
NOTE_ON_67
DURATION_94
POSITION_672381
NOTE_ON_62
DURATION_555
POSITION_672135
NOTE_ON_54
DURATION_807
POSITION_672925
NOTE_ON_66
DURATION_235
POSITION_673177
NOTE_ON_64
DURATION_40
POSITION_673167
NOTE_ON_67
DURATION_60
POSITION_672669
NOTE_ON_59
DURATION_570
POSITION_673439
NOTE_ON_64
DURATION_31
POSITION_672931
NOTE_ON_55
DURATION_543
POSITION_673442
NOTE_ON_61
DURATION_34
POSITION_673436
NOTE_ON_57
DURATION_228
POSITION_673706
NOTE_ON_62
DURATION_110
POSITION_673701
NOTE_ON_59
DURATION_282
POSITION_673805
NOTE_ON_66
DURATION_178
POSITION_673930
NOTE_ON_64
DURATION_84
POSITION_673928
NOTE_ON_47
DURATION_208
POSITION_674039
NOTE_ON_62
DURATION_122
POSITION_674169
NOTE_ON_64
DURATION_80
POSITION_674262
NOTE_ON_66
DURATION_46
POSITION_674152
NOTE_ON_49
DURATION_216
POSITION_674409
NOTE_ON_67
DURATION_61
POSITION_674510
NOTE_ON_76
DURATION_145
POSITION_674631
NOTE_ON_74
DURATION_135
POSITION_674648
NOTE_ON_49
DURATION_251
POSITION_674730
NOTE_ON_73
DURATION_176
POSITION_674857
NOTE_ON_71
DURATION_67
POSITION_674957
NOTE_ON_69
DURATION_54
POSITION_674398
NOTE_ON_57
DURATION_621
POSITION_675076
NOTE_ON_68
DURATION_40
POSITION_675174
NOTE_ON_69
DURATION_44
POSITION_674859
NOTE_ON_50
DURATION_458
POSITION_675077
NOTE_ON_59
DURATION_282
POSITION_675322
NOTE_ON_50
DURATION_237
POSITION_675322
NOTE_ON_81
DURATION_248
POSITION_675575
NOTE_ON_61
DURATION_262
POSITION_675570
NOTE_ON_52
DURATION_274
POSITION_675571
NOTE_ON_79
DURATION_279
POSITION_675812
NOTE_ON_78
DURATION_49
POSITION_675816
NOTE_ON_62
DURATION_45
POSITION_675806
NOTE_ON_54
DURATION_141
POSITION_676067
NOTE_ON_66
DURATION_34
POSITION_676064
NOTE_ON_74
DURATION_38
POSITION_676067
NOTE_ON_55
DURATION_35
POSITION_676327
NOTE_ON_73
DURATION_33
POSITION_676332
NOTE_ON_64
DURATION_31
POSITION_676334
NOTE_ON_57
DURATION_31
POSITION_676643
NOTE_ON_50
DURATION_435
POSITION_676634
NOTE_ON_74
DURATION_449
POSITION_676647
NOTE_ON_66
DURATION_437
POSITION_677194
NOTE_ON_50
DURATION_36
POSITION_677195
NOTE_ON_81
DURATION_38
POSITION_677507
NOTE_ON_74
DURATION_76
POSITION_677594
NOTE_ON_74
DURATION_391
POSITION_677787
NOTE_ON_66
DURATION_198
POSITION_677546
NOTE_ON_72
DURATION_444
POSITION_677505
NOTE_ON_60
DURATION_592
POSITION_678087
NOTE_ON_76
DURATION_53
POSITION_678048
NOTE_ON_74
DURATION_103
POSITION_678054
NOTE_ON_69
DURATION_136
POSITION_678128
NOTE_ON_78
DURATION_192
POSITION_678267
NOTE_ON_62
DURATION_283
POSITION_678317
NOTE_ON_79
DURATION_438
POSITION_678265
NOTE_ON_59
DURATION_492
POSITION_678560
NOTE_ON_67
DURATION_198
POSITION_678813
NOTE_ON_66
DURATION_200
POSITION_678810
NOTE_ON_57
DURATION_203
POSITION_678807
NOTE_ON_81
DURATION_235
POSITION_679049
NOTE_ON_67
DURATION_78
POSITION_679047
NOTE_ON_55
DURATION_285
POSITION_679092
NOTE_ON_83
DURATION_280
POSITION_679331
NOTE_ON_64
DURATION_249
POSITION_679354
NOTE_ON_81
DURATION_227
POSITION_679446
NOTE_ON_79
DURATION_137
POSITION_679332
NOTE_ON_57
DURATION_253
POSITION_679567
NOTE_ON_78
DURATION_211
POSITION_679562
NOTE_ON_59
DURATION_217
POSITION_679560
NOTE_ON_63
DURATION_220
POSITION_679675
NOTE_ON_79
DURATION_132
POSITION_679803
NOTE_ON_64
DURATION_222
POSITION_679805
NOTE_ON_52
DURATION_228
POSITION_679801
NOTE_ON_81
DURATION_235
POSITION_680006
NOTE_ON_59
DURATION_37
POSITION_679908
NOTE_ON_79
DURATION_137
POSITION_680037
NOTE_ON_78
DURATION_75
POSITION_680133
NOTE_ON_76
DURATION_55
POSITION_680283
NOTE_ON_64
DURATION_111
POSITION_680265
NOTE_ON_79
DURATION_152
POSITION_680380
NOTE_ON_60
DURATION_160
POSITION_680546
NOTE_ON_60
DURATION_52
POSITION_680535
NOTE_ON_64
DURATION_108
POSITION_680538
NOTE_ON_72
DURATION_109
POSITION_680652
NOTE_ON_62
DURATION_112
POSITION_680781
NOTE_ON_60
DURATION_65
POSITION_680651
NOTE_ON_71
DURATION_198
POSITION_680886
NOTE_ON_59
DURATION_44
POSITION_680995
NOTE_ON_72
DURATION_30
POSITION_680997
NOTE_ON_64
DURATION_50
POSITION_681022
NOTE_ON_74
DURATION_51
POSITION_681079
NOTE_ON_76
DURATION_37
POSITION_681093
NOTE_ON_60
DURATION_76
POSITION_681252
NOTE_ON_64
DURATION_91
POSITION_681367
NOTE_ON_62
DURATION_119
POSITION_681497
NOTE_ON_60
DURATION_67
POSITION_681250
NOTE_ON_67
DURATION_342
POSITION_681603
NOTE_ON_59
DURATION_54
POSITION_681710
NOTE_ON_79
DURATION_36
POSITION_681723
NOTE_ON_64
DURATION_99
POSITION_681858
NOTE_ON_60
DURATION_119
POSITION_681980
NOTE_ON_72
DURATION_94
POSITION_681996
NOTE_ON_64
DURATION_82
POSITION_682100
NOTE_ON_62
DURATION_118
POSITION_682081
NOTE_ON_71
DURATION_222
POSITION_682217
NOTE_ON_60
DURATION_86
POSITION_682324
NOTE_ON_59
DURATION_130
POSITION_682439
NOTE_ON_72
DURATION_25
POSITION_682464
NOTE_ON_74
DURATION_56
POSITION_682444
NOTE_ON_64
DURATION_77
POSITION_682518
NOTE_ON_76
DURATION_37
POSITION_682533
NOTE_ON_60
DURATION_121
POSITION_682684
NOTE_ON_64
DURATION_114
POSITION_682804
NOTE_ON_62
DURATION_120
POSITION_682680
NOTE_ON_67
DURATION_309
POSITION_682914
NOTE_ON_60
DURATION_79
POSITION_683016
NOTE_ON_59
DURATION_114
POSITION_683155
NOTE_ON_62
DURATION_100
POSITION_683256
NOTE_ON_59
DURATION_45
POSITION_683386
NOTE_ON_60
DURATION_57
POSITION_683387
NOTE_ON_69
DURATION_232
POSITION_683147
NOTE_ON_77
DURATION_495
POSITION_683655
NOTE_ON_71
DURATION_37
POSITION_683651
NOTE_ON_50
DURATION_44
POSITION_683909
NOTE_ON_48
DURATION_36
POSITION_683913
NOTE_ON_72
DURATION_33
POSITION_683649
NOTE_ON_77
DURATION_308
POSITION_683912
NOTE_ON_76
DURATION_46
POSITION_684175
NOTE_ON_84
DURATION_223
POSITION_684174
NOTE_ON_47
DURATION_236
POSITION_684445
NOTE_ON_72
DURATION_65
POSITION_684444
NOTE_ON_57
DURATION_128
POSITION_684438
NOTE_ON_78
DURATION_234
POSITION_684699
NOTE_ON_71
DURATION_245
POSITION_684693
NOTE_ON_79
DURATION_252
POSITION_684698
NOTE_ON_55
DURATION_258
POSITION_684967
NOTE_ON_54
DURATION_61
POSITION_684967
NOTE_ON_69
DURATION_93
POSITION_685062
NOTE_ON_71
DURATION_113
POSITION_685189
NOTE_ON_50
DURATION_41
POSITION_685181
NOTE_ON_72
DURATION_274
POSITION_685439
NOTE_ON_55
DURATION_257
POSITION_685435
NOTE_ON_71
DURATION_273
POSITION_685443
NOTE_ON_67
DURATION_273
POSITION_685659
NOTE_ON_50
DURATION_114
POSITION_685715
NOTE_ON_71
DURATION_162
POSITION_685733
NOTE_ON_66
DURATION_160
POSITION_685888
NOTE_ON_71
DURATION_43
POSITION_685835
NOTE_ON_62
DURATION_160
POSITION_685834
NOTE_ON_69
DURATION_161
POSITION_685952
NOTE_ON_60
DURATION_88
POSITION_686052
NOTE_ON_59
DURATION_97
POSITION_686167
NOTE_ON_60
DURATION_45
POSITION_686172
NOTE_ON_74
DURATION_41
POSITION_686279
NOTE_ON_57
DURATION_80
POSITION_686426
NOTE_ON_79
DURATION_39
POSITION_686457
NOTE_ON_78
DURATION_31
POSITION_686663
NOTE_ON_62
DURATION_37
POSITION_686504
NOTE_ON_79
DURATION_410
POSITION_686433
NOTE_ON_59
DURATION_550
POSITION_686956
NOTE_ON_81
DURATION_60
POSITION_686923
NOTE_ON_79
DURATION_114
POSITION_687009
NOTE_ON_83
DURATION_176
POSITION_686942
NOTE_ON_67
DURATION_517
POSITION_687441
NOTE_ON_68
DURATION_38
POSITION_687203
NOTE_ON_76
DURATION_513
POSITION_687194
NOTE_ON_60
DURATION_557
POSITION_687708
NOTE_ON_69
DURATION_128
POSITION_687719
NOTE_ON_65
DURATION_240
POSITION_687707
NOTE_ON_74
DURATION_276
POSITION_687843
NOTE_ON_69
DURATION_354
POSITION_687971
NOTE_ON_62
DURATION_233
POSITION_687971
NOTE_ON_72
DURATION_287
POSITION_688231
NOTE_ON_64
DURATION_48
POSITION_688232
NOTE_ON_71
DURATION_54
POSITION_688318
NOTE_ON_72
DURATION_151
POSITION_688439
NOTE_ON_52
DURATION_36
POSITION_688455
NOTE_ON_74
DURATION_77
POSITION_688464
NOTE_ON_68
DURATION_73
POSITION_688551
NOTE_ON_71
DURATION_148
POSITION_688706
NOTE_ON_74
DURATION_147
POSITION_688698
NOTE_ON_45
DURATION_190
POSITION_688713
NOTE_ON_69
DURATION_175
POSITION_688829
NOTE_ON_72
DURATION_174
POSITION_688954
NOTE_ON_71
DURATION_113
POSITION_688952
NOTE_ON_57
DURATION_201
POSITION_689053
NOTE_ON_69
DURATION_114
POSITION_689184
NOTE_ON_74
DURATION_96
POSITION_689286
NOTE_ON_71
DURATION_103
POSITION_689184
NOTE_ON_56
DURATION_209
POSITION_689429
NOTE_ON_74
DURATION_96
POSITION_689426
NOTE_ON_57
DURATION_191
POSITION_689530
NOTE_ON_72
DURATION_122
POSITION_689651
NOTE_ON_71
DURATION_98
POSITION_689750
NOTE_ON_69
DURATION_38
POSITION_689648
NOTE_ON_48
DURATION_166
POSITION_689870
NOTE_ON_74
DURATION_54
POSITION_689974
NOTE_ON_71
DURATION_60
POSITION_689867
NOTE_ON_47
DURATION_170
POSITION_690108
NOTE_ON_45
DURATION_148
POSITION_690106
NOTE_ON_74
DURATION_151
POSITION_690209
NOTE_ON_72
DURATION_133
POSITION_690333
NOTE_ON_71
DURATION_110
POSITION_690332
NOTE_ON_55
DURATION_148
POSITION_690429
NOTE_ON_69
DURATION_56
POSITION_690558
NOTE_ON_72
DURATION_58
POSITION_690665
NOTE_ON_69
DURATION_39
POSITION_690558
NOTE_ON_54
DURATION_217
POSITION_690797
NOTE_ON_72
DURATION_128
POSITION_690800
NOTE_ON_55
DURATION_236
POSITION_690910
NOTE_ON_71
DURATION_144
POSITION_691038
NOTE_ON_69
DURATION_100
POSITION_691135
NOTE_ON_67
DURATION_44
POSITION_691037
NOTE_ON_47
DURATION_214
POSITION_691252
NOTE_ON_72
DURATION_31
POSITION_691360
NOTE_ON_69
DURATION_50
POSITION_691258
NOTE_ON_45
DURATION_226
POSITION_691502
NOTE_ON_43
DURATION_132
POSITION_691497
NOTE_ON_72
DURATION_179
POSITION_691609
NOTE_ON_71
DURATION_126
POSITION_691723
NOTE_ON_69
DURATION_111
POSITION_691859
NOTE_ON_67
DURATION_75
POSITION_691857
NOTE_ON_59
DURATION_124
POSITION_691981
NOTE_ON_57
DURATION_52
POSITION_691979
NOTE_ON_69
DURATION_74
POSITION_692077
NOTE_ON_71
DURATION_41
POSITION_692082
NOTE_ON_55
DURATION_92
POSITION_692226
NOTE_ON_60
DURATION_101
POSITION_692341
NOTE_ON_59
DURATION_118
POSITION_692472
NOTE_ON_57
DURATION_59
POSITION_692232
NOTE_ON_64
DURATION_303
POSITION_692576
NOTE_ON_55
DURATION_73
POSITION_692685
NOTE_ON_66
DURATION_48
POSITION_692680
NOTE_ON_60
DURATION_53
POSITION_692742
NOTE_ON_67
DURATION_51
POSITION_692778
NOTE_ON_69
DURATION_33
POSITION_692778
NOTE_ON_57
DURATION_33
POSITION_692935
NOTE_ON_60
DURATION_90
POSITION_693048
NOTE_ON_59
DURATION_113
POSITION_692933
NOTE_ON_62
DURATION_256
POSITION_693168
NOTE_ON_57
DURATION_48
POSITION_693266
NOTE_ON_55
DURATION_36
POSITION_693379
NOTE_ON_74
DURATION_34
POSITION_693380
NOTE_ON_60
DURATION_34
POSITION_693491
NOTE_ON_57
DURATION_31
POSITION_693628
NOTE_ON_67
DURATION_83
POSITION_693631
NOTE_ON_60
DURATION_88
POSITION_693675
NOTE_ON_66
DURATION_49
POSITION_693745
NOTE_ON_59
DURATION_126
POSITION_693882
NOTE_ON_57
DURATION_65
POSITION_693716
NOTE_ON_67
DURATION_233
POSITION_693978
NOTE_ON_55
DURATION_83
POSITION_694082
NOTE_ON_60
DURATION_57
POSITION_694106
NOTE_ON_66
DURATION_34
POSITION_694146
NOTE_ON_67
DURATION_51
POSITION_694190
NOTE_ON_57
DURATION_28
POSITION_694190
NOTE_ON_69
DURATION_33
POSITION_694344
NOTE_ON_60
DURATION_87
POSITION_694438
NOTE_ON_59
DURATION_138
POSITION_694576
NOTE_ON_57
DURATION_92
POSITION_694345
NOTE_ON_62
DURATION_335
POSITION_694690
NOTE_ON_55
DURATION_84
POSITION_694805
NOTE_ON_74
DURATION_37
POSITION_694806
NOTE_ON_57
DURATION_90
POSITION_694921
NOTE_ON_54
DURATION_53
POSITION_695110
NOTE_ON_72
DURATION_88
POSITION_695341
NOTE_ON_65
DURATION_28
POSITION_695196
NOTE_ON_71
DURATION_396
POSITION_695583
NOTE_ON_72
DURATION_63
POSITION_695081
NOTE_ON_55
DURATION_584
POSITION_695619
NOTE_ON_74
DURATION_67
POSITION_695678
NOTE_ON_76
DURATION_37
POSITION_695617
NOTE_ON_64
DURATION_144
POSITION_696088
NOTE_ON_64
DURATION_30
POSITION_695845
NOTE_ON_57
DURATION_509
POSITION_695846
NOTE_ON_77
DURATION_553
POSITION_696352
NOTE_ON_79
DURATION_237
POSITION_696363
NOTE_ON_62
DURATION_226
POSITION_696367
NOTE_ON_59
DURATION_222
POSITION_696624
NOTE_ON_60
DURATION_237
POSITION_696621
NOTE_ON_76
DURATION_279
POSITION_696878
NOTE_ON_74
DURATION_30
POSITION_696871
NOTE_ON_77
DURATION_45
POSITION_696887
NOTE_ON_53
DURATION_238
POSITION_697132
NOTE_ON_74
DURATION_55
POSITION_697135
NOTE_ON_71
DURATION_301
POSITION_697420
NOTE_ON_77
DURATION_269
POSITION_697530
NOTE_ON_76
DURATION_161
POSITION_697645
NOTE_ON_59
DURATION_51
POSITION_697137
NOTE_ON_55
DURATION_598
POSITION_697647
NOTE_ON_74
DURATION_97
POSITION_697764
NOTE_ON_72
DURATION_53
POSITION_697400
NOTE_ON_48
DURATION_495
POSITION_697867
NOTE_ON_76
DURATION_137
POSITION_697973
NOTE_ON_72
DURATION_44
POSITION_698098
NOTE_ON_76
DURATION_138
POSITION_697861
NOTE_ON_57
DURATION_458
POSITION_698194
NOTE_ON_74
DURATION_164
POSITION_698330
NOTE_ON_57
DURATION_73
POSITION_698326
NOTE_ON_72
DURATION_100
POSITION_698422
NOTE_ON_71
DURATION_49
POSITION_698095
NOTE_ON_47
DURATION_503
POSITION_698555
NOTE_ON_74
DURATION_90
POSITION_698654
NOTE_ON_71
DURATION_46
POSITION_698556
NOTE_ON_55
DURATION_320
POSITION_698797
NOTE_ON_74
DURATION_140
POSITION_699036
NOTE_ON_55
DURATION_37
POSITION_698898
NOTE_ON_72
DURATION_181
POSITION_699028
NOTE_ON_71
DURATION_104
POSITION_699127
NOTE_ON_69
DURATION_49
POSITION_698799
NOTE_ON_45
DURATION_465
POSITION_699252
NOTE_ON_54
DURATION_29
POSITION_699256
NOTE_ON_72
DURATION_61
POSITION_699354
NOTE_ON_69
DURATION_36
POSITION_699482
NOTE_ON_74
DURATION_35
POSITION_699487
NOTE_ON_55
DURATION_32
POSITION_699485
NOTE_ON_47
DURATION_36
POSITION_699735
NOTE_ON_59
DURATION_24
POSITION_699730
NOTE_ON_67
DURATION_32
POSITION_699731
NOTE_ON_48
DURATION_33
POSITION_699996
NOTE_ON_57
DURATION_25
POSITION_699997
NOTE_ON_50
DURATION_26
POSITION_699990
NOTE_ON_66
DURATION_35
POSITION_700312
NOTE_ON_67
DURATION_484
POSITION_700317
NOTE_ON_43
DURATION_479
POSITION_700319
NOTE_ON_59
DURATION_478
POSITION_700917
NOTE_ON_50
DURATION_29
POSITION_700918
NOTE_ON_81
DURATION_181
POSITION_701216
NOTE_ON_74
DURATION_83
POSITION_701249
NOTE_ON_72
DURATION_88
POSITION_701304
NOTE_ON_74
DURATION_192
POSITION_701191
NOTE_ON_60
DURATION_323
POSITION_701470
NOTE_ON_66
DURATION_185
POSITION_701715
NOTE_ON_74
DURATION_236
POSITION_701791
NOTE_ON_78
DURATION_163
POSITION_701748
NOTE_ON_76
DURATION_211
POSITION_701726
NOTE_ON_69
DURATION_241
POSITION_701943
NOTE_ON_62
DURATION_251
POSITION_701942
NOTE_ON_59
DURATION_255
POSITION_701994
NOTE_ON_79
DURATION_416
POSITION_702225
NOTE_ON_67
DURATION_186
POSITION_702473
NOTE_ON_66
DURATION_212
POSITION_702478
NOTE_ON_57
DURATION_208
POSITION_702478
NOTE_ON_81
DURATION_210
POSITION_702716
NOTE_ON_55
DURATION_293
POSITION_702755
NOTE_ON_83
DURATION_287
POSITION_703023
NOTE_ON_81
DURATION_115
POSITION_703110
NOTE_ON_79
DURATION_134
POSITION_702998
NOTE_ON_64
DURATION_249
POSITION_702996
NOTE_ON_57
DURATION_255
POSITION_703229
NOTE_ON_63
DURATION_42
POSITION_703239
NOTE_ON_59
DURATION_207
POSITION_703339
NOTE_ON_79
DURATION_107
POSITION_703239
NOTE_ON_78
DURATION_225
POSITION_703469
NOTE_ON_81
DURATION_144
POSITION_703468
NOTE_ON_52
DURATION_224
POSITION_703587
NOTE_ON_79
DURATION_131
POSITION_703681
NOTE_ON_59
DURATION_40
POSITION_703706
NOTE_ON_78
DURATION_70
POSITION_703805
NOTE_ON_76
DURATION_48
POSITION_703951
NOTE_ON_64
DURATION_113
POSITION_704051
NOTE_ON_60
DURATION_158
POSITION_703941
NOTE_ON_79
DURATION_299
POSITION_704219
NOTE_ON_60
DURATION_33
POSITION_704203
NOTE_ON_64
DURATION_132
POSITION_704218
NOTE_ON_72
DURATION_117
POSITION_704328
NOTE_ON_62
DURATION_114
POSITION_704325
NOTE_ON_71
DURATION_190
POSITION_704449
NOTE_ON_60
DURATION_73
POSITION_704543
NOTE_ON_59
DURATION_52
POSITION_704661
NOTE_ON_72
DURATION_44
POSITION_704664
NOTE_ON_64
DURATION_43
POSITION_704707
NOTE_ON_74
DURATION_40
POSITION_704750
NOTE_ON_76
DURATION_32
POSITION_704757
NOTE_ON_60
DURATION_30
POSITION_704911
NOTE_ON_64
DURATION_101
POSITION_705023
NOTE_ON_62
DURATION_115
POSITION_705149
NOTE_ON_60
DURATION_76
POSITION_705240
NOTE_ON_59
DURATION_34
POSITION_704908
NOTE_ON_67
DURATION_438
POSITION_705367
NOTE_ON_79
DURATION_41
POSITION_705373
NOTE_ON_64
DURATION_81
POSITION_705474
NOTE_ON_60
DURATION_32
POSITION_705613
NOTE_ON_64
DURATION_100
POSITION_705612
NOTE_ON_72
DURATION_101
POSITION_705712
NOTE_ON_62
DURATION_127
POSITION_705836
NOTE_ON_60
DURATION_75
POSITION_705935
NOTE_ON_59
DURATION_45
POSITION_705707
NOTE_ON_71
DURATION_369
POSITION_706065
NOTE_ON_72
DURATION_46
POSITION_706074
NOTE_ON_64
DURATION_71
POSITION_706097
NOTE_ON_74
DURATION_49
POSITION_706149
NOTE_ON_60
DURATION_24
POSITION_706148
NOTE_ON_76
DURATION_81
POSITION_706310
NOTE_ON_64
DURATION_115
POSITION_706431
NOTE_ON_62
DURATION_124
POSITION_706547
NOTE_ON_60
DURATION_70
POSITION_706310
NOTE_ON_67
DURATION_308
POSITION_706639
NOTE_ON_59
DURATION_109
POSITION_706776
NOTE_ON_62
DURATION_94
POSITION_706888
NOTE_ON_59
DURATION_83
POSITION_707037
NOTE_ON_60
DURATION_68
POSITION_706785
NOTE_ON_77
DURATION_496
POSITION_707035
NOTE_ON_69
DURATION_269
POSITION_707293
NOTE_ON_71
DURATION_38
POSITION_707287
NOTE_ON_50
DURATION_52
POSITION_707288
NOTE_ON_77
DURATION_51
POSITION_707548
NOTE_ON_72
DURATION_30
POSITION_707545
NOTE_ON_48
DURATION_38
POSITION_707548
NOTE_ON_76
DURATION_79
POSITION_707816
NOTE_ON_47
DURATION_273
POSITION_707816
NOTE_ON_84
DURATION_276
POSITION_708096
NOTE_ON_72
DURATION_45
POSITION_708097
NOTE_ON_57
DURATION_53
POSITION_708092
NOTE_ON_78
DURATION_96
POSITION_708347
NOTE_ON_71
DURATION_209
POSITION_708346
NOTE_ON_55
DURATION_211
POSITION_708345
NOTE_ON_79
DURATION_222
POSITION_708602
NOTE_ON_54
DURATION_57
POSITION_708626
NOTE_ON_69
DURATION_130
POSITION_708721
NOTE_ON_71
DURATION_100
POSITION_708829
NOTE_ON_50
DURATION_41
POSITION_708829
NOTE_ON_72
DURATION_196
POSITION_709084
NOTE_ON_55
DURATION_244
POSITION_709084
NOTE_ON_67
DURATION_247
POSITION_709079
NOTE_ON_71
DURATION_261
POSITION_709283
NOTE_ON_50
DURATION_107
POSITION_709350
NOTE_ON_71
DURATION_174
POSITION_709464
NOTE_ON_69
DURATION_157
POSITION_709351
NOTE_ON_66
DURATION_281
POSITION_709473
NOTE_ON_62
DURATION_177
POSITION_709684
NOTE_ON_59
DURATION_83
POSITION_709586
NOTE_ON_60
DURATION_207
POSITION_709820
NOTE_ON_74
DURATION_39
POSITION_709799
NOTE_ON_60
DURATION_65
POSITION_709915
NOTE_ON_57
DURATION_122
POSITION_710092
NOTE_ON_79
DURATION_57
POSITION_710148
NOTE_ON_78
DURATION_34
POSITION_710319
NOTE_ON_62
DURATION_33
POSITION_710575
NOTE_ON_79
DURATION_51
POSITION_710076
NOTE_ON_59
DURATION_551
POSITION_710620
NOTE_ON_81
DURATION_54
POSITION_710663
NOTE_ON_83
DURATION_46
POSITION_710578
NOTE_ON_67
DURATION_252
POSITION_710838
NOTE_ON_67
DURATION_45
POSITION_710833
NOTE_ON_60
DURATION_281
POSITION_711088
NOTE_ON_68
DURATION_35
POSITION_711123
NOTE_ON_60
DURATION_230
POSITION_710833
NOTE_ON_76
DURATION_522
POSITION_711369
NOTE_ON_65
DURATION_247
POSITION_711363
NOTE_ON_74
DURATION_308
POSITION_711654
NOTE_ON_62
DURATION_246
POSITION_711370
NOTE_ON_69
DURATION_539
POSITION_711649
NOTE_ON_72
DURATION_268
POSITION_711906
NOTE_ON_64
DURATION_62
POSITION_711909
NOTE_ON_71
DURATION_92
POSITION_712013
NOTE_ON_72
DURATION_143
POSITION_712141
NOTE_ON_52
DURATION_31
POSITION_712146
NOTE_ON_64
DURATION_32
POSITION_712147
NOTE_ON_74
DURATION_86
POSITION_712152
NOTE_ON_68
DURATION_106
POSITION_712246
NOTE_ON_71
DURATION_161
POSITION_712395
NOTE_ON_45
DURATION_113
POSITION_712409
NOTE_ON_74
DURATION_156
POSITION_712420
NOTE_ON_69
DURATION_153
POSITION_712536
NOTE_ON_72
DURATION_160
POSITION_712667
NOTE_ON_71
DURATION_101
POSITION_712650
NOTE_ON_57
DURATION_199
POSITION_712760
NOTE_ON_69
DURATION_97
POSITION_712891
NOTE_ON_74
DURATION_54
POSITION_712993
NOTE_ON_71
DURATION_51
POSITION_712890
NOTE_ON_56
DURATION_207
POSITION_713130
NOTE_ON_74
DURATION_120
POSITION_713124
NOTE_ON_57
DURATION_198
POSITION_713231
NOTE_ON_72
DURATION_114
POSITION_713353
NOTE_ON_71
DURATION_84
POSITION_713453
NOTE_ON_69
DURATION_46
POSITION_713346
NOTE_ON_48
DURATION_167
POSITION_713579
NOTE_ON_74
DURATION_58
POSITION_713574
NOTE_ON_47
DURATION_134
POSITION_713682
NOTE_ON_71
DURATION_55
POSITION_713813
NOTE_ON_74
DURATION_208
POSITION_713811
NOTE_ON_45
DURATION_213
POSITION_713914
NOTE_ON_72
DURATION_120
POSITION_714046
NOTE_ON_71
DURATION_68
POSITION_714148
NOTE_ON_69
DURATION_65
POSITION_714047
NOTE_ON_55
DURATION_167
POSITION_714275
NOTE_ON_72
DURATION_36
POSITION_714376
NOTE_ON_69
DURATION_37
POSITION_714274
NOTE_ON_54
DURATION_195
POSITION_714512
NOTE_ON_72
DURATION_108
POSITION_714508
NOTE_ON_55
DURATION_198
POSITION_714628
NOTE_ON_71
DURATION_106
POSITION_714751
NOTE_ON_69
DURATION_100
POSITION_714858
NOTE_ON_67
DURATION_39
POSITION_714740
NOTE_ON_47
DURATION_241
POSITION_714980
NOTE_ON_45
DURATION_139
POSITION_714979
NOTE_ON_72
DURATION_167
POSITION_715088
NOTE_ON_69
DURATION_67
POSITION_715226
NOTE_ON_72
DURATION_230
POSITION_715225
NOTE_ON_43
DURATION_251
POSITION_715365
NOTE_ON_71
DURATION_115
POSITION_715511
NOTE_ON_45
DURATION_11
POSITION_715485
NOTE_ON_69
DURATION_105
POSITION_715624
NOTE_ON_67
DURATION_50
POSITION_715618
NOTE_ON_59
DURATION_115
POSITION_715745
NOTE_ON_57
DURATION_54
POSITION_715744
NOTE_ON_69
DURATION_101
POSITION_715839
NOTE_ON_71
DURATION_80
POSITION_715841
NOTE_ON_55
DURATION_84
POSITION_715961
NOTE_ON_60
DURATION_103
POSITION_716085
NOTE_ON_59
DURATION_109
POSITION_716220
NOTE_ON_57
DURATION_49
POSITION_715985
NOTE_ON_64
DURATION_320
POSITION_716305
NOTE_ON_55
DURATION_51
POSITION_716408
NOTE_ON_60
DURATION_60
POSITION_716432
NOTE_ON_66
DURATION_39
POSITION_716479
NOTE_ON_67
DURATION_61
POSITION_716518
NOTE_ON_69
DURATION_32
POSITION_716519
NOTE_ON_57
DURATION_33
POSITION_716664
NOTE_ON_60
DURATION_106
POSITION_716787
NOTE_ON_59
DURATION_114
POSITION_716666
NOTE_ON_62
DURATION_252
POSITION_716908
NOTE_ON_57
DURATION_61
POSITION_717009
NOTE_ON_55
DURATION_39
POSITION_717125
NOTE_ON_60
DURATION_43
POSITION_717129
NOTE_ON_74
DURATION_42
POSITION_717261
NOTE_ON_57
DURATION_28
POSITION_717408
NOTE_ON_66
DURATION_23
POSITION_717370
NOTE_ON_67
DURATION_72
POSITION_717377
NOTE_ON_60
DURATION_115
POSITION_717511
NOTE_ON_59
DURATION_127
POSITION_717451
NOTE_ON_67
DURATION_275
POSITION_717652
NOTE_ON_57
DURATION_87
POSITION_717761
NOTE_ON_55
DURATION_38
POSITION_717863
NOTE_ON_60
DURATION_45
POSITION_717872
NOTE_ON_66
DURATION_39
POSITION_717914
NOTE_ON_67
DURATION_61
POSITION_717947
NOTE_ON_69
DURATION_36
POSITION_717963
NOTE_ON_57
DURATION_47
POSITION_718114
NOTE_ON_62
DURATION_39
POSITION_718113
NOTE_ON_60
DURATION_102
POSITION_718218
NOTE_ON_59
DURATION_128
POSITION_718346
NOTE_ON_57
DURATION_84
POSITION_718454
NOTE_ON_55
DURATION_94
POSITION_718572
NOTE_ON_74
DURATION_41
POSITION_718575
NOTE_ON_57
DURATION_91
POSITION_718687
NOTE_ON_54
DURATION_39
POSITION_718864
NOTE_ON_72
DURATION_86
POSITION_719114
NOTE_ON_65
DURATION_38
POSITION_718958
NOTE_ON_71
DURATION_212
POSITION_719364
NOTE_ON_72
DURATION_39
POSITION_718852
NOTE_ON_55
DURATION_580
POSITION_719392
NOTE_ON_74
DURATION_58
POSITION_719451
NOTE_ON_76
DURATION_65
POSITION_719393
NOTE_ON_64
DURATION_242
POSITION_719856
NOTE_ON_64
DURATION_43
POSITION_719626
NOTE_ON_77
DURATION_501
POSITION_719630
NOTE_ON_57
DURATION_501
POSITION_720133
NOTE_ON_62
DURATION_227
POSITION_720142
NOTE_ON_59
DURATION_218
POSITION_720122
NOTE_ON_79
DURATION_241
POSITION_720391
NOTE_ON_76
DURATION_288
POSITION_720641
NOTE_ON_74
DURATION_39
POSITION_720636
NOTE_ON_77
DURATION_51
POSITION_720393
NOTE_ON_60
DURATION_305
POSITION_720645
NOTE_ON_53
DURATION_250
POSITION_720906
NOTE_ON_74
DURATION_48
POSITION_720909
NOTE_ON_71
DURATION_288
POSITION_721177
NOTE_ON_77
DURATION_167
POSITION_721296
NOTE_ON_76
DURATION_144
POSITION_721401
NOTE_ON_59
DURATION_46
POSITION_720910
NOTE_ON_55
DURATION_595
POSITION_721416
NOTE_ON_74
DURATION_100
POSITION_721178
NOTE_ON_48
DURATION_491
POSITION_721515
NOTE_ON_72
DURATION_182
POSITION_721650
NOTE_ON_76
DURATION_60
POSITION_721744
NOTE_ON_72
DURATION_29
POSITION_721869
NOTE_ON_76
DURATION_171
POSITION_721648
NOTE_ON_57
DURATION_448
POSITION_721980
NOTE_ON_74
DURATION_146
POSITION_722103
NOTE_ON_57
DURATION_70
POSITION_722106
NOTE_ON_72
DURATION_98
POSITION_722203
NOTE_ON_71
DURATION_51
POSITION_721870
NOTE_ON_47
DURATION_507
POSITION_722340
NOTE_ON_74
DURATION_65
POSITION_722263
NOTE_ON_72
DURATION_156
POSITION_722440
NOTE_ON_71
DURATION_209
POSITION_722582
NOTE_ON_74
DURATION_171
POSITION_722343
NOTE_ON_55
DURATION_460
POSITION_722810
NOTE_ON_55
DURATION_35
POSITION_722685
NOTE_ON_72
DURATION_162
POSITION_722812
NOTE_ON_71
DURATION_128
POSITION_722914
NOTE_ON_69
DURATION_39
POSITION_723031
NOTE_ON_54
DURATION_35
POSITION_722556
NOTE_ON_45
DURATION_531
POSITION_723034
NOTE_ON_72
DURATION_70
POSITION_723136
NOTE_ON_69
DURATION_156
POSITION_723283
NOTE_ON_74
DURATION_81
POSITION_723282
NOTE_ON_47
DURATION_83
POSITION_723283
NOTE_ON_55
DURATION_83
POSITION_723568
NOTE_ON_48
DURATION_53
POSITION_723574
NOTE_ON_59
DURATION_49
POSITION_723571
NOTE_ON_67
DURATION_53
POSITION_723914
NOTE_ON_50
DURATION_60
POSITION_723913
NOTE_ON_57
DURATION_63
POSITION_723913
NOTE_ON_66
DURATION_75
POSITION_724373
NOTE_ON_59
DURATION_1044
POSITION_724368
NOTE_ON_67
DURATION_1050
POSITION_724373
NOTE_ON_43
DURATION_1049
POSITION_727808
NOTE_ON_74
DURATION_37
POSITION_728099
NOTE_ON_76
DURATION_347
POSITION_728459
NOTE_ON_72
DURATION_79
POSITION_728544
NOTE_ON_69
DURATION_46
POSITION_728631
NOTE_ON_66
DURATION_61
POSITION_728728
NOTE_ON_74
DURATION_27
POSITION_728976
NOTE_ON_67
DURATION_36
POSITION_729499
NOTE_ON_72
DURATION_356
POSITION_729864
NOTE_ON_69
DURATION_89
POSITION_729977
NOTE_ON_66
DURATION_89
POSITION_730067
NOTE_ON_62
DURATION_95
POSITION_730179
NOTE_ON_71
DURATION_82
POSITION_730274
NOTE_ON_69
DURATION_61
POSITION_730378
NOTE_ON_71
DURATION_55
POSITION_730480
NOTE_ON_72
DURATION_49
POSITION_730561
NOTE_ON_79
DURATION_45
POSITION_730558
NOTE_ON_71
DURATION_52
POSITION_730679
NOTE_ON_69
DURATION_43
POSITION_730786
NOTE_ON_67
DURATION_46
POSITION_731004
NOTE_ON_55
DURATION_34
POSITION_730784
NOTE_ON_83
DURATION_333
POSITION_731094
NOTE_ON_79
DURATION_140
POSITION_731215
NOTE_ON_67
DURATION_114
POSITION_731212
NOTE_ON_76
DURATION_119
POSITION_731306
NOTE_ON_73
DURATION_54
POSITION_731417
NOTE_ON_81
DURATION_44
POSITION_731520
NOTE_ON_64
DURATION_103
POSITION_731630
NOTE_ON_74
DURATION_25
POSITION_731632
NOTE_ON_66
DURATION_89
POSITION_731733
NOTE_ON_69
DURATION_68
POSITION_731837
NOTE_ON_67
DURATION_69
POSITION_731925
NOTE_ON_66
DURATION_78
POSITION_732044
NOTE_ON_64
DURATION_56
POSITION_732256
NOTE_ON_61
DURATION_39
POSITION_732039
NOTE_ON_79
DURATION_292
POSITION_732467
NOTE_ON_57
DURATION_32
POSITION_732468
NOTE_ON_73
DURATION_39
POSITION_732351
NOTE_ON_76
DURATION_159
POSITION_732553
NOTE_ON_69
DURATION_44
POSITION_732674
NOTE_ON_78
DURATION_48
POSITION_732676
NOTE_ON_62
DURATION_59
POSITION_732761
NOTE_ON_76
DURATION_111
POSITION_732876
NOTE_ON_69
DURATION_32
POSITION_732879
NOTE_ON_78
DURATION_44
POSITION_732968
NOTE_ON_81
DURATION_67
POSITION_733076
NOTE_ON_71
DURATION_32
POSITION_733076
NOTE_ON_74
DURATION_44
POSITION_733165
NOTE_ON_78
DURATION_47
POSITION_733290
NOTE_ON_64
DURATION_45
POSITION_733286
NOTE_ON_79
DURATION_65
POSITION_733391
NOTE_ON_78
DURATION_59
POSITION_733500
NOTE_ON_71
DURATION_37
POSITION_733500
NOTE_ON_79
DURATION_66
POSITION_733581
NOTE_ON_83
DURATION_69
POSITION_733696
NOTE_ON_72
DURATION_31
POSITION_733692
NOTE_ON_76
DURATION_108
POSITION_733782
NOTE_ON_79
DURATION_48
POSITION_733894
NOTE_ON_66
DURATION_109
POSITION_733891
NOTE_ON_81
DURATION_115
POSITION_733988
NOTE_ON_79
DURATION_86
POSITION_734093
NOTE_ON_72
DURATION_59
POSITION_734090
NOTE_ON_81
DURATION_85
POSITION_734189
NOTE_ON_84
DURATION_85
POSITION_734288
NOTE_ON_74
DURATION_24
POSITION_734286
NOTE_ON_78
DURATION_35
POSITION_734382
NOTE_ON_81
DURATION_51
POSITION_734469
NOTE_ON_67
DURATION_62
POSITION_734494
NOTE_ON_83
DURATION_59
POSITION_734594
NOTE_ON_81
DURATION_86
POSITION_734689
NOTE_ON_76
DURATION_64
POSITION_734778
NOTE_ON_83
DURATION_114
POSITION_734687
NOTE_ON_84
DURATION_219
POSITION_734889
NOTE_ON_72
DURATION_33
POSITION_734874
NOTE_ON_81
DURATION_53
POSITION_734973
NOTE_ON_79
DURATION_58
POSITION_735068
NOTE_ON_78
DURATION_38
POSITION_735077
NOTE_ON_74
DURATION_33
POSITION_735176
NOTE_ON_76
DURATION_118
POSITION_735281
NOTE_ON_69
DURATION_33
POSITION_735286
NOTE_ON_78
DURATION_46
POSITION_735373
NOTE_ON_79
DURATION_112
POSITION_735487
NOTE_ON_62
DURATION_37
POSITION_735501
NOTE_ON_76
DURATION_132
POSITION_735493
NOTE_ON_74
DURATION_197
POSITION_735595
NOTE_ON_78
DURATION_102
POSITION_735727
NOTE_ON_79
DURATION_273
POSITION_735732
NOTE_ON_64
DURATION_319
POSITION_735960
NOTE_ON_72
DURATION_129
POSITION_736057
NOTE_ON_60
DURATION_104
POSITION_736176
NOTE_ON_57
DURATION_43
POSITION_736240
NOTE_ON_54
DURATION_74
POSITION_736173
NOTE_ON_84
DURATION_182
POSITION_736365
NOTE_ON_62
DURATION_33
POSITION_736364
NOTE_ON_78
DURATION_42
POSITION_736473
NOTE_ON_69
DURATION_115
POSITION_736574
NOTE_ON_55
DURATION_39
POSITION_736577
NOTE_ON_71
DURATION_43
POSITION_736695
NOTE_ON_74
DURATION_115
POSITION_736788
NOTE_ON_72
DURATION_78
POSITION_736872
NOTE_ON_71
DURATION_39
POSITION_736584
NOTE_ON_79
DURATION_596
POSITION_736994
NOTE_ON_60
DURATION_329
POSITION_737207
NOTE_ON_78
DURATION_149
POSITION_737292
NOTE_ON_57
DURATION_107
POSITION_737410
NOTE_ON_54
DURATION_101
POSITION_737502
NOTE_ON_50
DURATION_105
POSITION_736993
NOTE_ON_69
DURATION_624
POSITION_737413
NOTE_ON_81
DURATION_214
POSITION_737610
NOTE_ON_59
DURATION_103
POSITION_737712
NOTE_ON_57
DURATION_102
POSITION_737621
NOTE_ON_74
DURATION_205
POSITION_737845
NOTE_ON_67
DURATION_40
POSITION_737819
NOTE_ON_59
DURATION_73
POSITION_737916
NOTE_ON_60
DURATION_89
POSITION_737829
NOTE_ON_76
DURATION_204
POSITION_738033
NOTE_ON_69
DURATION_39
POSITION_738028
NOTE_ON_78
DURATION_54
POSITION_738016
NOTE_ON_59
DURATION_71
POSITION_738127
NOTE_ON_57
DURATION_66
POSITION_738249
NOTE_ON_55
DURATION_51
POSITION_738272
NOTE_ON_71
DURATION_63
POSITION_738245
NOTE_ON_79
DURATION_135
POSITION_738373
NOTE_ON_69
DURATION_97
POSITION_738472
NOTE_ON_62
DURATION_41
POSITION_738493
NOTE_ON_71
DURATION_43
POSITION_738563
NOTE_ON_74
DURATION_63
POSITION_738674
NOTE_ON_64
DURATION_38
POSITION_738677
NOTE_ON_67
DURATION_85
POSITION_738769
NOTE_ON_71
DURATION_65
POSITION_738882
NOTE_ON_57
DURATION_60
POSITION_738882
NOTE_ON_72
DURATION_72
POSITION_738975
NOTE_ON_71
DURATION_90
POSITION_739093
NOTE_ON_64
DURATION_35
POSITION_739090
NOTE_ON_72
DURATION_78
POSITION_739196
NOTE_ON_76
DURATION_85
POSITION_739293
NOTE_ON_65
DURATION_33
POSITION_739287
NOTE_ON_69
DURATION_41
POSITION_739295
NOTE_ON_60
DURATION_38
POSITION_739382
NOTE_ON_72
DURATION_30
POSITION_739493
NOTE_ON_65
DURATION_6
POSITION_739489
NOTE_ON_59
DURATION_47
POSITION_739489
NOTE_ON_74
DURATION_60
POSITION_739580
NOTE_ON_72
DURATION_54
POSITION_739694
NOTE_ON_65
DURATION_29
POSITION_739690
NOTE_ON_74
DURATION_85
POSITION_739786
NOTE_ON_77
DURATION_55
POSITION_739895
NOTE_ON_67
DURATION_36
POSITION_739893
NOTE_ON_71
DURATION_58
POSITION_739964
NOTE_ON_74
DURATION_44
POSITION_740074
NOTE_ON_76
DURATION_37
POSITION_740076
NOTE_ON_60
DURATION_68
POSITION_740179
NOTE_ON_59
DURATION_81
POSITION_740274
NOTE_ON_69
DURATION_34
POSITION_740271
NOTE_ON_78
DURATION_38
POSITION_740274
NOTE_ON_60
DURATION_48
POSITION_740373
NOTE_ON_62
DURATION_73
POSITION_740478
NOTE_ON_71
DURATION_22
POSITION_740476
NOTE_ON_80
DURATION_26
POSITION_740481
NOTE_ON_60
DURATION_71
POSITION_740588
NOTE_ON_59
DURATION_77
POSITION_740699
NOTE_ON_57
DURATION_42
POSITION_740814
NOTE_ON_71
DURATION_56
POSITION_740698
NOTE_ON_72
DURATION_222
POSITION_740901
NOTE_ON_64
DURATION_36
POSITION_740925
NOTE_ON_72
DURATION_68
POSITION_741001
NOTE_ON_76
DURATION_69
POSITION_741111
NOTE_ON_66
DURATION_35
POSITION_741114
NOTE_ON_69
DURATION_90
POSITION_741199
NOTE_ON_72
DURATION_50
POSITION_740686
NOTE_ON_81
DURATION_618
POSITION_741307
NOTE_ON_59
DURATION_54
POSITION_741307
NOTE_ON_74
DURATION_63
POSITION_741401
NOTE_ON_72
DURATION_95
POSITION_741509
NOTE_ON_66
DURATION_31
POSITION_741509
NOTE_ON_74
DURATION_93
POSITION_741612
NOTE_ON_78
DURATION_49
POSITION_741700
NOTE_ON_67
DURATION_30
POSITION_741701
NOTE_ON_71
DURATION_68
POSITION_741791
NOTE_ON_74
DURATION_62
POSITION_741898
NOTE_ON_61
DURATION_60
POSITION_741899
NOTE_ON_76
DURATION_93
POSITION_741992
NOTE_ON_74
DURATION_106
POSITION_742118
NOTE_ON_61
DURATION_8
POSITION_742102
NOTE_ON_67
DURATION_47
POSITION_742097
NOTE_ON_76
DURATION_107
POSITION_742205
NOTE_ON_79
DURATION_88
POSITION_742291
NOTE_ON_69
DURATION_33
POSITION_742296
NOTE_ON_73
DURATION_104
POSITION_742400
NOTE_ON_76
DURATION_98
POSITION_742486
NOTE_ON_78
DURATION_37
POSITION_742486
NOTE_ON_62
DURATION_81
POSITION_742589
NOTE_ON_61
DURATION_128
POSITION_742690
NOTE_ON_79
DURATION_41
POSITION_742698
NOTE_ON_71
DURATION_50
POSITION_742698
NOTE_ON_62
DURATION_54
POSITION_742789
NOTE_ON_64
DURATION_78
POSITION_742903
NOTE_ON_62
DURATION_61
POSITION_742994
NOTE_ON_61
DURATION_49
POSITION_742903
NOTE_ON_73
DURATION_167
POSITION_743113
NOTE_ON_74
DURATION_226
POSITION_743226
NOTE_ON_73
DURATION_167
POSITION_743115
NOTE_ON_59
DURATION_290
POSITION_743350
NOTE_ON_74
DURATION_58
POSITION_742896
NOTE_ON_81
DURATION_512
POSITION_743428
NOTE_ON_55
DURATION_80
POSITION_743520
NOTE_ON_52
DURATION_62
POSITION_743614
NOTE_ON_49
DURATION_57
POSITION_743524
NOTE_ON_71
DURATION_168
POSITION_743625
NOTE_ON_74
DURATION_118
POSITION_743724
NOTE_ON_57
DURATION_25
POSITION_743733
NOTE_ON_73
DURATION_121
POSITION_743842
NOTE_ON_71
DURATION_77
POSITION_743932
NOTE_ON_50
DURATION_30
POSITION_743341
NOTE_ON_79
DURATION_635
POSITION_743942
NOTE_ON_73
DURATION_38
POSITION_743435
NOTE_ON_76
DURATION_549
POSITION_743943
NOTE_ON_78
DURATION_45
POSITION_744060
NOTE_ON_74
DURATION_29
POSITION_744155
NOTE_ON_69
DURATION_48
POSITION_744242
NOTE_ON_72
DURATION_107
POSITION_744348
NOTE_ON_71
DURATION_75
POSITION_744455
NOTE_ON_69
DURATION_128
POSITION_744563
NOTE_ON_71
DURATION_66
POSITION_744343
NOTE_ON_55
DURATION_298
POSITION_744638
NOTE_ON_52
DURATION_91
POSITION_744750
NOTE_ON_67
DURATION_40
POSITION_744749
NOTE_ON_49
DURATION_86
POSITION_744840
NOTE_ON_71
DURATION_65
POSITION_744644
NOTE_ON_73
DURATION_272
POSITION_744843
NOTE_ON_45
DURATION_83
POSITION_744563
NOTE_ON_76
DURATION_397
POSITION_744949
NOTE_ON_69
DURATION_53
POSITION_744947
NOTE_ON_54
DURATION_95
POSITION_745059
NOTE_ON_52
DURATION_78
POSITION_745160
NOTE_ON_74
DURATION_34
POSITION_745163
NOTE_ON_54
DURATION_50
POSITION_745269
NOTE_ON_57
DURATION_73
POSITION_745362
NOTE_ON_78
DURATION_41
POSITION_745380
NOTE_ON_50
DURATION_66
POSITION_745472
NOTE_ON_54
DURATION_84
POSITION_745571
NOTE_ON_56
DURATION_84
POSITION_745679
NOTE_ON_54
DURATION_91
POSITION_745776
NOTE_ON_56
DURATION_75
POSITION_745754
NOTE_ON_76
DURATION_119
POSITION_745879
NOTE_ON_59
DURATION_74
POSITION_745983
NOTE_ON_52
DURATION_54
POSITION_746064
NOTE_ON_56
DURATION_84
POSITION_746160
NOTE_ON_58
DURATION_102
POSITION_746271
NOTE_ON_56
DURATION_84
POSITION_745977
NOTE_ON_74
DURATION_411
POSITION_746373
NOTE_ON_73
DURATION_42
POSITION_746371
NOTE_ON_58
DURATION_68
POSITION_746477
NOTE_ON_61
DURATION_52
POSITION_746585
NOTE_ON_54
DURATION_86
POSITION_746677
NOTE_ON_58
DURATION_87
POSITION_746781
NOTE_ON_59
DURATION_77
POSITION_746874
NOTE_ON_58
DURATION_102
POSITION_746583
NOTE_ON_76
DURATION_408
POSITION_746976
NOTE_ON_74
DURATION_37
POSITION_746975
NOTE_ON_59
DURATION_62
POSITION_747076
NOTE_ON_62
DURATION_63
POSITION_747182
NOTE_ON_54
DURATION_85
POSITION_747274
NOTE_ON_57
DURATION_100
POSITION_747381
NOTE_ON_56
DURATION_78
POSITION_747466
NOTE_ON_54
DURATION_102
POSITION_747178
NOTE_ON_72
DURATION_423
POSITION_747580
NOTE_ON_71
DURATION_56
POSITION_747576
NOTE_ON_56
DURATION_70
POSITION_747680
NOTE_ON_59
DURATION_79
POSITION_747783
NOTE_ON_52
DURATION_82
POSITION_747870
NOTE_ON_56
DURATION_97
POSITION_747980
NOTE_ON_57
DURATION_95
POSITION_748082
NOTE_ON_56
DURATION_94
POSITION_747783
NOTE_ON_74
DURATION_406
POSITION_748183
NOTE_ON_72
DURATION_46
POSITION_748184
NOTE_ON_57
DURATION_49
POSITION_748267
NOTE_ON_60
DURATION_92
POSITION_748390
NOTE_ON_52
DURATION_81
POSITION_748480
NOTE_ON_55
DURATION_97
POSITION_748582
NOTE_ON_54
DURATION_92
POSITION_748689
NOTE_ON_52
DURATION_100
POSITION_748391
NOTE_ON_71
DURATION_439
POSITION_748816
NOTE_ON_69
DURATION_47
POSITION_748801
NOTE_ON_54
DURATION_63
POSITION_748896
NOTE_ON_57
DURATION_90
POSITION_749018
NOTE_ON_50
DURATION_80
POSITION_749114
NOTE_ON_54
DURATION_67
POSITION_749212
NOTE_ON_55
DURATION_84
POSITION_749308
NOTE_ON_54
DURATION_92
POSITION_749017
NOTE_ON_72
DURATION_385
POSITION_749419
NOTE_ON_71
DURATION_46
POSITION_749418
NOTE_ON_55
DURATION_56
POSITION_749512
NOTE_ON_57
DURATION_107
POSITION_749624
NOTE_ON_59
DURATION_105
POSITION_749724
NOTE_ON_55
DURATION_110
POSITION_749640
NOTE_ON_66
DURATION_265
POSITION_749826
NOTE_ON_57
DURATION_83
POSITION_749925
NOTE_ON_55
DURATION_131
POSITION_749630
NOTE_ON_74
DURATION_427
POSITION_750033
NOTE_ON_57
DURATION_52
POSITION_750045
NOTE_ON_73
DURATION_48
POSITION_750053
NOTE_ON_64
DURATION_52
POSITION_750143
NOTE_ON_59
DURATION_121
POSITION_750268
NOTE_ON_69
DURATION_43
POSITION_750268
NOTE_ON_61
DURATION_106
POSITION_750369
NOTE_ON_57
DURATION_90
POSITION_750518
NOTE_ON_62
DURATION_98
POSITION_750634
NOTE_ON_59
DURATION_73
POSITION_750264
NOTE_ON_81
DURATION_586
POSITION_750861
NOTE_ON_67
DURATION_54
POSITION_750517
NOTE_ON_71
DURATION_400
POSITION_750758
NOTE_ON_64
DURATION_169
POSITION_750963
NOTE_ON_64
DURATION_87
POSITION_751047
NOTE_ON_61
DURATION_38
POSITION_750761
NOTE_ON_79
DURATION_350
POSITION_751161
NOTE_ON_69
DURATION_30
POSITION_751161
NOTE_ON_73
DURATION_31
POSITION_750964
NOTE_ON_55
DURATION_284
POSITION_751257
NOTE_ON_52
DURATION_110
POSITION_751384
NOTE_ON_54
DURATION_53
POSITION_751484
NOTE_ON_57
DURATION_108
POSITION_751384
NOTE_ON_69
DURATION_257
POSITION_751639
NOTE_ON_55
DURATION_91
POSITION_751749
NOTE_ON_54
DURATION_79
POSITION_751385
NOTE_ON_62
DURATION_448
POSITION_751969
NOTE_ON_45
DURATION_110
POSITION_751847
NOTE_ON_52
DURATION_240
POSITION_751619
NOTE_ON_74
DURATION_529
POSITION_752078
NOTE_ON_57
DURATION_74
POSITION_751846
NOTE_ON_67
DURATION_309
POSITION_752076
NOTE_ON_73
DURATION_81
POSITION_752167
NOTE_ON_64
DURATION_43
POSITION_752176
NOTE_ON_55
DURATION_63
POSITION_752259
NOTE_ON_54
DURATION_146
POSITION_752264
NOTE_ON_61
DURATION_148
POSITION_752355
NOTE_ON_57
DURATION_58
POSITION_752354
NOTE_ON_52
DURATION_59
POSITION_752469
NOTE_ON_50
DURATION_45
POSITION_752479
NOTE_ON_66
DURATION_83
POSITION_752587
NOTE_ON_64
DURATION_124
POSITION_752690
NOTE_ON_57
DURATION_38
POSITION_752694
NOTE_ON_66
DURATION_102
POSITION_752793
NOTE_ON_69
DURATION_67
POSITION_752903
NOTE_ON_59
DURATION_37
POSITION_752904
NOTE_ON_62
DURATION_44
POSITION_752994
NOTE_ON_66
DURATION_66
POSITION_753136
NOTE_ON_67
DURATION_123
POSITION_753118
NOTE_ON_52
DURATION_179
POSITION_752469
NOTE_ON_74
DURATION_869
POSITION_753238
NOTE_ON_72
DURATION_118
POSITION_753344
NOTE_ON_47
DURATION_35
POSITION_753349
NOTE_ON_74
DURATION_116
POSITION_753534
NOTE_ON_43
DURATION_50
POSITION_753550
NOTE_ON_71
DURATION_82
POSITION_753447
NOTE_ON_76
DURATION_201
POSITION_753636
NOTE_ON_74
DURATION_44
POSITION_753734
NOTE_ON_40
DURATION_120
POSITION_753844
NOTE_ON_66
DURATION_83
POSITION_753941
NOTE_ON_59
DURATION_45
POSITION_753965
NOTE_ON_67
DURATION_98
POSITION_754054
NOTE_ON_71
DURATION_96
POSITION_754150
NOTE_ON_60
DURATION_37
POSITION_754157
NOTE_ON_64
DURATION_50
POSITION_753744
NOTE_ON_72
DURATION_554
POSITION_754244
NOTE_ON_67
DURATION_57
POSITION_754364
NOTE_ON_54
DURATION_81
POSITION_754368
NOTE_ON_69
DURATION_118
POSITION_754469
NOTE_ON_71
DURATION_117
POSITION_754581
NOTE_ON_72
DURATION_112
POSITION_754580
NOTE_ON_50
DURATION_182
POSITION_754787
NOTE_ON_69
DURATION_68
POSITION_754676
NOTE_ON_74
DURATION_191
POSITION_754772
NOTE_ON_52
DURATION_202
POSITION_754871
NOTE_ON_72
DURATION_126
POSITION_755002
NOTE_ON_71
DURATION_81
POSITION_755104
NOTE_ON_69
DURATION_101
POSITION_754984
NOTE_ON_53
DURATION_239
POSITION_755212
NOTE_ON_71
DURATION_139
POSITION_755002
NOTE_ON_67
DURATION_402
POSITION_755226
NOTE_ON_52
DURATION_181
POSITION_755306
NOTE_ON_72
DURATION_123
POSITION_755425
NOTE_ON_74
DURATION_104
POSITION_755425
NOTE_ON_50
DURATION_205
POSITION_755526
NOTE_ON_71
DURATION_198
POSITION_755829
NOTE_ON_55
DURATION_64
POSITION_755933
NOTE_ON_60
DURATION_91
POSITION_755714
NOTE_ON_76
DURATION_354
POSITION_756025
NOTE_ON_57
DURATION_59
POSITION_755654
NOTE_ON_48
DURATION_434
POSITION_756030
NOTE_ON_72
DURATION_101
POSITION_756137
NOTE_ON_69
DURATION_54
POSITION_756126
NOTE_ON_54
DURATION_73
POSITION_756212
NOTE_ON_57
DURATION_31
POSITION_756218
NOTE_ON_66
DURATION_106
POSITION_756329
NOTE_ON_74
DURATION_25
POSITION_756427
NOTE_ON_57
DURATION_94
POSITION_756337
NOTE_ON_47
DURATION_196
POSITION_756553
NOTE_ON_67
DURATION_29
POSITION_756643
NOTE_ON_55
DURATION_81
POSITION_756553
NOTE_ON_59
DURATION_173
POSITION_756743
NOTE_ON_52
DURATION_102
POSITION_756845
NOTE_ON_55
DURATION_77
POSITION_757059
NOTE_ON_55
DURATION_90
POSITION_757161
NOTE_ON_57
DURATION_106
POSITION_756960
NOTE_ON_72
DURATION_308
POSITION_756960
NOTE_ON_45
DURATION_334
POSITION_757266
NOTE_ON_69
DURATION_59
POSITION_757261
NOTE_ON_54
DURATION_68
POSITION_757345
NOTE_ON_50
DURATION_65
POSITION_757373
NOTE_ON_66
DURATION_77
POSITION_757437
NOTE_ON_54
DURATION_58
POSITION_757446
NOTE_ON_62
DURATION_99
POSITION_757545
NOTE_ON_71
DURATION_53
POSITION_757545
NOTE_ON_43
DURATION_171
POSITION_757654
NOTE_ON_54
DURATION_93
POSITION_757766
NOTE_ON_55
DURATION_90
POSITION_757845
NOTE_ON_52
DURATION_90
POSITION_757766
NOTE_ON_64
DURATION_219
POSITION_757950
NOTE_ON_49
DURATION_89
POSITION_758041
NOTE_ON_52
DURATION_99
POSITION_758259
NOTE_ON_52
DURATION_161
POSITION_758378
NOTE_ON_54
DURATION_78
POSITION_758163
NOTE_ON_42
DURATION_296
POSITION_758164
NOTE_ON_69
DURATION_335
POSITION_758472
NOTE_ON_50
DURATION_82
POSITION_758471
NOTE_ON_66
DURATION_98
POSITION_758564
NOTE_ON_47
DURATION_90
POSITION_758565
NOTE_ON_62
DURATION_95
POSITION_758656
NOTE_ON_50
DURATION_53
POSITION_758652
NOTE_ON_59
DURATION_65
POSITION_758757
NOTE_ON_67
DURATION_30
POSITION_758852
NOTE_ON_50
DURATION_81
POSITION_758972
NOTE_ON_61
DURATION_53
POSITION_758977
NOTE_ON_52
DURATION_70
POSITION_759065
NOTE_ON_49
DURATION_74
POSITION_758763
NOTE_ON_40
DURATION_405
POSITION_759150
NOTE_ON_45
DURATION_70
POSITION_759237
NOTE_ON_49
DURATION_43
POSITION_759371
NOTE_ON_38
DURATION_188
POSITION_759473
NOTE_ON_64
DURATION_103
POSITION_759584
NOTE_ON_45
DURATION_62
POSITION_759594
NOTE_ON_66
DURATION_95
POSITION_759689
NOTE_ON_69
DURATION_55
POSITION_759790
NOTE_ON_47
DURATION_54
POSITION_759793
NOTE_ON_62
DURATION_69
POSITION_759891
NOTE_ON_66
DURATION_79
POSITION_759986
NOTE_ON_40
DURATION_70
POSITION_759987
NOTE_ON_67
DURATION_77
POSITION_760086
NOTE_ON_66
DURATION_99
POSITION_760194
NOTE_ON_47
DURATION_37
POSITION_760194
NOTE_ON_67
DURATION_99
POSITION_760291
NOTE_ON_71
DURATION_70
POSITION_760394
NOTE_ON_48
DURATION_31
POSITION_760399
NOTE_ON_64
DURATION_83
POSITION_760491
NOTE_ON_67
DURATION_49
POSITION_760593
NOTE_ON_42
DURATION_78
POSITION_760596
NOTE_ON_69
DURATION_108
POSITION_760697
NOTE_ON_67
DURATION_68
POSITION_760794
NOTE_ON_48
DURATION_43
POSITION_760794
NOTE_ON_69
DURATION_56
POSITION_760892
NOTE_ON_72
DURATION_85
POSITION_760991
NOTE_ON_50
DURATION_25
POSITION_760992
NOTE_ON_66
DURATION_114
POSITION_761090
NOTE_ON_69
DURATION_54
POSITION_761188
NOTE_ON_43
DURATION_91
POSITION_761192
NOTE_ON_71
DURATION_100
POSITION_761289
NOTE_ON_69
DURATION_98
POSITION_761396
NOTE_ON_50
DURATION_51
POSITION_761397
NOTE_ON_71
DURATION_123
POSITION_761496
NOTE_ON_73
DURATION_95
POSITION_761596
NOTE_ON_52
DURATION_33
POSITION_761596
NOTE_ON_74
DURATION_89
POSITION_761687
NOTE_ON_71
DURATION_88
POSITION_761799
NOTE_ON_73
DURATION_44
POSITION_761794
NOTE_ON_45
DURATION_78
POSITION_761889
NOTE_ON_54
DURATION_70
POSITION_761997
NOTE_ON_69
DURATION_41
POSITION_761996
NOTE_ON_55
DURATION_103
POSITION_762091
NOTE_ON_57
DURATION_89
POSITION_762216
NOTE_ON_52
DURATION_88
POSITION_762310
NOTE_ON_55
DURATION_66
POSITION_762414
NOTE_ON_54
DURATION_91
POSITION_762212
NOTE_ON_76
DURATION_304
POSITION_762512
NOTE_ON_52
DURATION_79
POSITION_762620
NOTE_ON_74
DURATION_36
POSITION_762620
NOTE_ON_54
DURATION_66
POSITION_762717
NOTE_ON_57
DURATION_83
POSITION_762835
NOTE_ON_50
DURATION_76
POSITION_762921
NOTE_ON_54
DURATION_113
POSITION_763025
NOTE_ON_52
DURATION_75
POSITION_762842
NOTE_ON_74
DURATION_365
POSITION_763126
NOTE_ON_50
DURATION_110
POSITION_762840
NOTE_ON_78
DURATION_413
POSITION_763257
NOTE_ON_73
DURATION_30
POSITION_763257
NOTE_ON_76
DURATION_39
POSITION_763237
NOTE_ON_52
DURATION_59
POSITION_763340
NOTE_ON_55
DURATION_93
POSITION_763465
NOTE_ON_49
DURATION_109
POSITION_763555
NOTE_ON_52
DURATION_116
POSITION_763664
NOTE_ON_50
DURATION_102
POSITION_763470
NOTE_ON_76
DURATION_457
POSITION_763466
NOTE_ON_79
DURATION_469
POSITION_763900
NOTE_ON_74
DURATION_44
POSITION_763762
NOTE_ON_49
DURATION_187
POSITION_763897
NOTE_ON_78
DURATION_52
POSITION_763876
NOTE_ON_50
DURATION_75
POSITION_764000
NOTE_ON_54
DURATION_64
POSITION_764130
NOTE_ON_47
DURATION_79
POSITION_764233
NOTE_ON_50
DURATION_45
POSITION_764130
NOTE_ON_81
DURATION_294
POSITION_764401
NOTE_ON_43
DURATION_91
POSITION_764524
NOTE_ON_74
DURATION_119
POSITION_764402
NOTE_ON_83
DURATION_252
POSITION_764630
NOTE_ON_55
DURATION_165
POSITION_764647
NOTE_ON_76
DURATION_204
POSITION_764855
NOTE_ON_67
DURATION_318
POSITION_764736
NOTE_ON_79
DURATION_437
POSITION_765175
NOTE_ON_64
DURATION_32
POSITION_764855
NOTE_ON_76
DURATION_357
POSITION_765064
NOTE_ON_81
DURATION_217
POSITION_765277
NOTE_ON_66
DURATION_107
POSITION_764953
NOTE_ON_73
DURATION_497
POSITION_765376
NOTE_ON_69
DURATION_112
POSITION_765492
NOTE_ON_62
DURATION_278
POSITION_765587
NOTE_ON_66
DURATION_189
POSITION_765262
NOTE_ON_74
DURATION_515
POSITION_765490
NOTE_ON_54
DURATION_321
POSITION_765818
NOTE_ON_50
DURATION_150
POSITION_765729
NOTE_ON_71
DURATION_266
POSITION_765929
NOTE_ON_73
DURATION_70
POSITION_765931
NOTE_ON_52
DURATION_77
POSITION_766017
NOTE_ON_55
DURATION_82
POSITION_766017
NOTE_ON_76
DURATION_114
POSITION_766120
NOTE_ON_73
DURATION_92
POSITION_766121
NOTE_ON_45
DURATION_92
POSITION_766222
NOTE_ON_49
DURATION_83
POSITION_766202
NOTE_ON_69
DURATION_112
POSITION_766314
NOTE_ON_78
DURATION_37
POSITION_766314
NOTE_ON_74
DURATION_38
POSITION_765722
NOTE_ON_79
DURATION_642
POSITION_766325
NOTE_ON_50
DURATION_81
POSITION_766436
NOTE_ON_52
DURATION_83
POSITION_766560
NOTE_ON_54
DURATION_63
POSITION_766560
NOTE_ON_74
DURATION_296
POSITION_766805
NOTE_ON_50
DURATION_111
POSITION_766915
NOTE_ON_54
DURATION_98
POSITION_766678
NOTE_ON_57
DURATION_346
POSITION_766805
NOTE_ON_72
DURATION_229
POSITION_766561
NOTE_ON_69
DURATION_486
POSITION_767025
NOTE_ON_55
DURATION_81
POSITION_767027
NOTE_ON_71
DURATION_92
POSITION_767114
NOTE_ON_52
DURATION_82
POSITION_767122
NOTE_ON_67
DURATION_98
POSITION_767221
NOTE_ON_76
DURATION_39
POSITION_767211
NOTE_ON_49
DURATION_83
POSITION_767298
NOTE_ON_52
DURATION_81
POSITION_767420
NOTE_ON_45
DURATION_61
POSITION_767560
NOTE_ON_49
DURATION_93
POSITION_767455
NOTE_ON_64
DURATION_721
POSITION_767718
NOTE_ON_38
DURATION_462
POSITION_768057
NOTE_ON_62
DURATION_129
POSITION_768055
NOTE_ON_66
DURATION_134
POSITION_767452
NOTE_ON_67
DURATION_740
POSITION_768058
NOTE_ON_50
DURATION_157
POSITION_768411
NOTE_ON_74
DURATION_34
POSITION_768694
NOTE_ON_76
DURATION_401
POSITION_769091
NOTE_ON_72
DURATION_100
POSITION_769197
NOTE_ON_69
DURATION_50
POSITION_769283
NOTE_ON_66
DURATION_45
POSITION_769386
NOTE_ON_74
DURATION_29
POSITION_769638
NOTE_ON_67
DURATION_31
POSITION_770146
NOTE_ON_72
DURATION_376
POSITION_770529
NOTE_ON_69
DURATION_50
POSITION_770637
NOTE_ON_66
DURATION_91
POSITION_770732
NOTE_ON_62
DURATION_84
POSITION_770844
NOTE_ON_71
DURATION_78
POSITION_770941
NOTE_ON_69
DURATION_115
POSITION_771045
NOTE_ON_71
DURATION_60
POSITION_771137
NOTE_ON_72
DURATION_38
POSITION_771240
NOTE_ON_71
DURATION_36
POSITION_771244
NOTE_ON_79
DURATION_41
POSITION_771322
NOTE_ON_69
DURATION_41
POSITION_771465
NOTE_ON_67
DURATION_46
POSITION_771683
NOTE_ON_55
DURATION_23
POSITION_771476
NOTE_ON_83
DURATION_312
POSITION_771775
NOTE_ON_79
DURATION_143
POSITION_771896
NOTE_ON_76
DURATION_114
POSITION_771897
NOTE_ON_67
DURATION_135
POSITION_771989
NOTE_ON_73
DURATION_77
POSITION_772099
NOTE_ON_81
DURATION_40
POSITION_772198
NOTE_ON_64
DURATION_103
POSITION_772307
NOTE_ON_74
DURATION_47
POSITION_772308
NOTE_ON_66
DURATION_86
POSITION_772413
NOTE_ON_69
DURATION_62
POSITION_772518
NOTE_ON_67
DURATION_72
POSITION_772609
NOTE_ON_66
DURATION_86
POSITION_772735
NOTE_ON_64
DURATION_54
POSITION_772968
NOTE_ON_61
DURATION_33
POSITION_772743
NOTE_ON_79
DURATION_328
POSITION_773068
NOTE_ON_76
DURATION_95
POSITION_773165
NOTE_ON_57
DURATION_49
POSITION_773190
NOTE_ON_73
DURATION_65
POSITION_773271
NOTE_ON_69
DURATION_43
POSITION_773387
NOTE_ON_78
DURATION_40
POSITION_773386
NOTE_ON_62
DURATION_50
POSITION_773477
NOTE_ON_76
DURATION_83
POSITION_773583
NOTE_ON_69
DURATION_31
POSITION_773586
NOTE_ON_78
DURATION_39
POSITION_773682
NOTE_ON_81
DURATION_58
POSITION_773796
NOTE_ON_71
DURATION_36
POSITION_773796
NOTE_ON_74
DURATION_44
POSITION_773889
NOTE_ON_78
DURATION_45
POSITION_774005
NOTE_ON_64
DURATION_44
POSITION_774002
NOTE_ON_79
DURATION_56
POSITION_774096
NOTE_ON_78
DURATION_52
POSITION_774207
NOTE_ON_71
DURATION_32
POSITION_774209
NOTE_ON_79
DURATION_89
POSITION_774307
NOTE_ON_83
DURATION_71
POSITION_774407
NOTE_ON_72
DURATION_30
POSITION_774407
NOTE_ON_76
DURATION_97
POSITION_774501
NOTE_ON_79
DURATION_67
POSITION_774611
NOTE_ON_66
DURATION_58
POSITION_774610
NOTE_ON_81
DURATION_110
POSITION_774702
NOTE_ON_79
DURATION_100
POSITION_774815
NOTE_ON_72
DURATION_48
POSITION_774814
NOTE_ON_81
DURATION_94
POSITION_774911
NOTE_ON_84
DURATION_87
POSITION_775021
NOTE_ON_74
DURATION_28
POSITION_775012
NOTE_ON_78
DURATION_38
POSITION_775030
NOTE_ON_72
DURATION_58
POSITION_775221
NOTE_ON_67
DURATION_76
POSITION_775110
NOTE_ON_81
DURATION_209
POSITION_775227
NOTE_ON_83
DURATION_204
POSITION_775327
NOTE_ON_81
DURATION_105
POSITION_775437
NOTE_ON_76
DURATION_127
POSITION_775534
NOTE_ON_83
DURATION_118
POSITION_775436
NOTE_ON_84
DURATION_220
POSITION_775638
NOTE_ON_72
DURATION_72
POSITION_775636
NOTE_ON_81
DURATION_151
POSITION_775730
NOTE_ON_79
DURATION_85
POSITION_775831
NOTE_ON_74
DURATION_35
POSITION_775830
NOTE_ON_78
DURATION_37
POSITION_775927
NOTE_ON_76
DURATION_120
POSITION_776037
NOTE_ON_69
DURATION_36
POSITION_776037
NOTE_ON_78
DURATION_96
POSITION_776119
NOTE_ON_79
DURATION_112
POSITION_776245
NOTE_ON_62
DURATION_36
POSITION_776246
NOTE_ON_76
DURATION_112
POSITION_776344
NOTE_ON_78
DURATION_65
POSITION_776244
NOTE_ON_74
DURATION_242
POSITION_776480
NOTE_ON_79
DURATION_311
POSITION_776477
NOTE_ON_64
DURATION_339
POSITION_776801
NOTE_ON_60
DURATION_105
POSITION_776913
NOTE_ON_57
DURATION_87
POSITION_776714
NOTE_ON_72
DURATION_310
POSITION_776993
NOTE_ON_54
DURATION_72
POSITION_776915
NOTE_ON_84
DURATION_201
POSITION_777105
NOTE_ON_62
DURATION_39
POSITION_777112
NOTE_ON_78
DURATION_38
POSITION_777224
NOTE_ON_69
DURATION_41
POSITION_777332
NOTE_ON_55
DURATION_35
POSITION_777334
NOTE_ON_71
DURATION_37
POSITION_777436
NOTE_ON_74
DURATION_116
POSITION_777532
NOTE_ON_72
DURATION_90
POSITION_777624
NOTE_ON_71
DURATION_34
POSITION_777330
NOTE_ON_79
DURATION_665
POSITION_777751
NOTE_ON_60
DURATION_344
POSITION_778072
NOTE_ON_57
DURATION_125
POSITION_778189
NOTE_ON_54
DURATION_85
POSITION_778277
NOTE_ON_50
DURATION_100
POSITION_777980
NOTE_ON_78
DURATION_426
POSITION_777750
NOTE_ON_69
DURATION_679
POSITION_778385
NOTE_ON_59
DURATION_101
POSITION_778487
NOTE_ON_57
DURATION_107
POSITION_778601
NOTE_ON_59
DURATION_68
POSITION_778186
NOTE_ON_81
DURATION_489
POSITION_778695
NOTE_ON_60
DURATION_87
POSITION_778608
NOTE_ON_76
DURATION_194
POSITION_778403
NOTE_ON_74
DURATION_402
POSITION_778627
NOTE_ON_67
DURATION_186
POSITION_778806
NOTE_ON_69
DURATION_33
POSITION_778803
NOTE_ON_78
DURATION_54
POSITION_778790
NOTE_ON_59
DURATION_78
POSITION_778895
NOTE_ON_57
DURATION_60
POSITION_779018
NOTE_ON_55
DURATION_52
POSITION_779030
NOTE_ON_71
DURATION_98
POSITION_779141
NOTE_ON_69
DURATION_91
POSITION_779243
NOTE_ON_62
DURATION_37
POSITION_779245
NOTE_ON_71
DURATION_80
POSITION_779332
NOTE_ON_74
DURATION_93
POSITION_779451
NOTE_ON_64
DURATION_53
POSITION_779447
NOTE_ON_67
DURATION_63
POSITION_779016
NOTE_ON_79
DURATION_580
POSITION_779532
NOTE_ON_71
DURATION_66
POSITION_779639
NOTE_ON_57
DURATION_59
POSITION_779641
NOTE_ON_72
DURATION_74
POSITION_779733
NOTE_ON_71
DURATION_91
POSITION_779846
NOTE_ON_64
DURATION_38
POSITION_779847
NOTE_ON_72
DURATION_95
POSITION_779952
NOTE_ON_76
DURATION_52
POSITION_779951
NOTE_ON_72
DURATION_60
POSITION_780054
NOTE_ON_65
DURATION_25
POSITION_780054
NOTE_ON_69
DURATION_47
POSITION_780143
NOTE_ON_72
DURATION_56
POSITION_780239
NOTE_ON_59
DURATION_46
POSITION_780242
NOTE_ON_74
DURATION_73
POSITION_780337
NOTE_ON_72
DURATION_83
POSITION_780446
NOTE_ON_65
DURATION_39
POSITION_780439
NOTE_ON_74
DURATION_83
POSITION_780541
NOTE_ON_77
DURATION_49
POSITION_780636
NOTE_ON_67
DURATION_30
POSITION_780637
NOTE_ON_71
DURATION_75
POSITION_780734
NOTE_ON_74
DURATION_74
POSITION_780827
NOTE_ON_76
DURATION_34
POSITION_780828
NOTE_ON_60
DURATION_71
POSITION_780932
NOTE_ON_59
DURATION_65
POSITION_781029
NOTE_ON_69
DURATION_33
POSITION_781029
NOTE_ON_78
DURATION_36
POSITION_781029
NOTE_ON_60
DURATION_39
POSITION_781129
NOTE_ON_62
DURATION_55
POSITION_781236
NOTE_ON_71
DURATION_23
POSITION_781234
NOTE_ON_80
DURATION_33
POSITION_781236
NOTE_ON_60
DURATION_58
POSITION_781321
NOTE_ON_59
DURATION_45
POSITION_781447
NOTE_ON_57
DURATION_50
POSITION_781451
NOTE_ON_72
DURATION_94
POSITION_781552
NOTE_ON_71
DURATION_76
POSITION_781644
NOTE_ON_64
DURATION_32
POSITION_781667
NOTE_ON_72
DURATION_130
POSITION_781748
NOTE_ON_76
DURATION_52
POSITION_781856
NOTE_ON_66
DURATION_25
POSITION_781859
NOTE_ON_69
DURATION_43
POSITION_781948
NOTE_ON_72
DURATION_53
POSITION_781439
NOTE_ON_81
DURATION_607
POSITION_782044
NOTE_ON_59
DURATION_41
POSITION_782050
NOTE_ON_74
DURATION_70
POSITION_782140
NOTE_ON_72
DURATION_93
POSITION_782249
NOTE_ON_66
DURATION_32
POSITION_782247
NOTE_ON_74
DURATION_99
POSITION_782350
NOTE_ON_78
DURATION_47
POSITION_782452
NOTE_ON_67
DURATION_35
POSITION_782458
NOTE_ON_71
DURATION_83
POSITION_782553
NOTE_ON_74
DURATION_115
POSITION_782648
NOTE_ON_61
DURATION_97
POSITION_782654
NOTE_ON_76
DURATION_93
POSITION_782750
NOTE_ON_74
DURATION_94
POSITION_782853
NOTE_ON_67
DURATION_36
POSITION_782849
NOTE_ON_76
DURATION_93
POSITION_782947
NOTE_ON_79
DURATION_116
POSITION_783048
NOTE_ON_69
DURATION_47
POSITION_783049
NOTE_ON_73
DURATION_126
POSITION_783141
NOTE_ON_76
DURATION_122
POSITION_783248
NOTE_ON_78
DURATION_88
POSITION_783247
NOTE_ON_62
DURATION_99
POSITION_783354
NOTE_ON_61
DURATION_87
POSITION_783456
NOTE_ON_71
DURATION_31
POSITION_783449
NOTE_ON_79
DURATION_55
POSITION_783456
NOTE_ON_62
DURATION_68
POSITION_783547
NOTE_ON_64
DURATION_103
POSITION_783668
NOTE_ON_62
DURATION_81
POSITION_783770
NOTE_ON_61
DURATION_118
POSITION_783676
NOTE_ON_73
DURATION_218
POSITION_783918
NOTE_ON_74
DURATION_111
POSITION_784023
NOTE_ON_73
DURATION_151
POSITION_783666
NOTE_ON_81
DURATION_515
POSITION_783891
NOTE_ON_59
DURATION_324
POSITION_784139
NOTE_ON_74
DURATION_100
POSITION_784225
NOTE_ON_55
DURATION_106
POSITION_784324
NOTE_ON_52
DURATION_93
POSITION_784325
NOTE_ON_71
DURATION_98
POSITION_784421
NOTE_ON_49
DURATION_50
POSITION_784421
NOTE_ON_74
DURATION_126
POSITION_784529
NOTE_ON_57
DURATION_31
POSITION_784531
NOTE_ON_73
DURATION_42
POSITION_784227
NOTE_ON_76
DURATION_377
POSITION_784636
NOTE_ON_71
DURATION_67
POSITION_784135
NOTE_ON_79
DURATION_638
POSITION_784735
NOTE_ON_50
DURATION_40
POSITION_784741
NOTE_ON_78
DURATION_43
POSITION_784744
NOTE_ON_73
DURATION_50
POSITION_784846
NOTE_ON_74
DURATION_52
POSITION_784949
NOTE_ON_69
DURATION_49
POSITION_785038
NOTE_ON_72
DURATION_118
POSITION_785244
NOTE_ON_69
DURATION_41
POSITION_785151
NOTE_ON_71
DURATION_205
POSITION_785147
NOTE_ON_55
DURATION_299
POSITION_785363
NOTE_ON_71
DURATION_109
POSITION_785452
NOTE_ON_52
DURATION_100
POSITION_785544
NOTE_ON_67
DURATION_54
POSITION_785452
NOTE_ON_73
DURATION_158
POSITION_785558
NOTE_ON_49
DURATION_86
POSITION_785651
NOTE_ON_55
DURATION_5
POSITION_785629
NOTE_ON_71
DURATION_56
POSITION_785655
NOTE_ON_45
DURATION_87
POSITION_785363
NOTE_ON_76
DURATION_431
POSITION_785742
NOTE_ON_54
DURATION_104
POSITION_785743
NOTE_ON_69
DURATION_151
POSITION_785853
NOTE_ON_52
DURATION_83
POSITION_785953
NOTE_ON_74
DURATION_28
POSITION_785959
NOTE_ON_54
DURATION_68
POSITION_786068
NOTE_ON_57
DURATION_62
POSITION_786168
NOTE_ON_78
DURATION_40
POSITION_786174
NOTE_ON_50
DURATION_48
POSITION_786260
NOTE_ON_54
DURATION_85
POSITION_786360
NOTE_ON_56
DURATION_91
POSITION_786465
NOTE_ON_54
DURATION_101
POSITION_786566
NOTE_ON_56
DURATION_76
POSITION_786573
NOTE_ON_76
DURATION_104
POSITION_786669
NOTE_ON_59
DURATION_65
POSITION_786772
NOTE_ON_52
DURATION_39
POSITION_786846
NOTE_ON_56
DURATION_73
POSITION_786949
NOTE_ON_58
DURATION_99
POSITION_787058
NOTE_ON_56
DURATION_63
POSITION_787159
NOTE_ON_73
DURATION_41
POSITION_786774
NOTE_ON_74
DURATION_433
POSITION_787158
NOTE_ON_58
DURATION_51
POSITION_787243
NOTE_ON_61
DURATION_53
POSITION_787358
NOTE_ON_54
DURATION_81
POSITION_787450
NOTE_ON_58
DURATION_80
POSITION_787555
NOTE_ON_59
DURATION_63
POSITION_787649
NOTE_ON_58
DURATION_108
POSITION_787358
NOTE_ON_76
DURATION_425
POSITION_787756
NOTE_ON_74
DURATION_47
POSITION_787750
NOTE_ON_59
DURATION_66
POSITION_787842
NOTE_ON_62
DURATION_104
POSITION_787963
NOTE_ON_54
DURATION_82
POSITION_788047
NOTE_ON_57
DURATION_96
POSITION_788161
NOTE_ON_56
DURATION_80
POSITION_788265
NOTE_ON_54
DURATION_93
POSITION_787970
NOTE_ON_72
DURATION_420
POSITION_788365
NOTE_ON_71
DURATION_62
POSITION_788366
NOTE_ON_56
DURATION_69
POSITION_788466
NOTE_ON_59
DURATION_82
POSITION_788577
NOTE_ON_52
DURATION_69
POSITION_788654
NOTE_ON_56
DURATION_100
POSITION_788760
NOTE_ON_57
DURATION_94
POSITION_788857
NOTE_ON_56
DURATION_98
POSITION_788572
NOTE_ON_74
DURATION_404
POSITION_788969
NOTE_ON_72
DURATION_40
POSITION_788964
NOTE_ON_57
DURATION_48
POSITION_789043
NOTE_ON_60
DURATION_65
POSITION_789176
NOTE_ON_52
DURATION_76
POSITION_789254
NOTE_ON_55
DURATION_100
POSITION_789361
NOTE_ON_54
DURATION_71
POSITION_789462
NOTE_ON_52
DURATION_112
POSITION_789177
NOTE_ON_71
DURATION_426
POSITION_789584
NOTE_ON_69
DURATION_47
POSITION_789578
NOTE_ON_54
DURATION_59
POSITION_789683
NOTE_ON_57
DURATION_78
POSITION_789794
NOTE_ON_50
DURATION_70
POSITION_789875
NOTE_ON_54
DURATION_86
POSITION_789974
NOTE_ON_55
DURATION_88
POSITION_790068
NOTE_ON_54
DURATION_108
POSITION_789791
NOTE_ON_72
DURATION_391
POSITION_790180
NOTE_ON_71
DURATION_50
POSITION_790177
NOTE_ON_55
DURATION_67
POSITION_790277
NOTE_ON_57
DURATION_101
POSITION_790382
NOTE_ON_59
DURATION_99
POSITION_790478
NOTE_ON_55
DURATION_120
POSITION_790410
NOTE_ON_66
DURATION_222
POSITION_790582
NOTE_ON_57
DURATION_94
POSITION_790679
NOTE_ON_55
DURATION_341
POSITION_790783
NOTE_ON_57
DURATION_240
POSITION_790387
NOTE_ON_74
DURATION_637
POSITION_790909
NOTE_ON_59
DURATION_120
POSITION_790820
NOTE_ON_64
DURATION_212
POSITION_791021
NOTE_ON_61
DURATION_127
POSITION_790817
NOTE_ON_73
DURATION_338
POSITION_791126
NOTE_ON_57
DURATION_58
POSITION_791292
NOTE_ON_62
DURATION_51
POSITION_791410
NOTE_ON_59
DURATION_65
POSITION_791035
NOTE_ON_81
DURATION_588
POSITION_791539
NOTE_ON_64
DURATION_207
POSITION_791036
NOTE_ON_69
DURATION_764
POSITION_791296
NOTE_ON_71
DURATION_543
POSITION_791644
NOTE_ON_67
DURATION_196
POSITION_791753
NOTE_ON_64
DURATION_89
POSITION_791845
NOTE_ON_61
DURATION_48
POSITION_791972
NOTE_ON_73
DURATION_31
POSITION_791972
NOTE_ON_69
DURATION_33
POSITION_791538
NOTE_ON_79
DURATION_500
POSITION_791751
NOTE_ON_55
DURATION_304
POSITION_792063
NOTE_ON_52
DURATION_120
POSITION_792183
NOTE_ON_54
DURATION_65
POSITION_792279
NOTE_ON_57
DURATION_114
POSITION_792448
NOTE_ON_55
DURATION_84
POSITION_792551
NOTE_ON_54
DURATION_60
POSITION_792187
NOTE_ON_69
DURATION_490
POSITION_792187
NOTE_ON_62
DURATION_492
POSITION_792648
NOTE_ON_52
DURATION_71
POSITION_792668
NOTE_ON_67
DURATION_339
POSITION_792434
NOTE_ON_74
DURATION_573
POSITION_792882
NOTE_ON_57
DURATION_128
POSITION_792980
NOTE_ON_64
DURATION_37
POSITION_792753
NOTE_ON_45
DURATION_268
POSITION_792979
NOTE_ON_55
DURATION_42
POSITION_793086
NOTE_ON_54
DURATION_87
POSITION_793173
NOTE_ON_57
DURATION_91
POSITION_793087
NOTE_ON_61
DURATION_180
POSITION_793179
NOTE_ON_52
DURATION_90
POSITION_792886
NOTE_ON_73
DURATION_419
POSITION_793302
NOTE_ON_50
DURATION_74
POSITION_793309
NOTE_ON_66
DURATION_93
POSITION_793423
NOTE_ON_64
DURATION_101
POSITION_793525
NOTE_ON_57
DURATION_39
POSITION_793530
NOTE_ON_66
DURATION_103
POSITION_793618
NOTE_ON_69
DURATION_110
POSITION_793727
NOTE_ON_62
DURATION_38
POSITION_793733
NOTE_ON_59
DURATION_37
POSITION_793817
NOTE_ON_66
DURATION_76
POSITION_793946
NOTE_ON_52
DURATION_89
POSITION_793302
NOTE_ON_74
DURATION_902
POSITION_794093
NOTE_ON_72
DURATION_116
POSITION_794183
NOTE_ON_47
DURATION_36
POSITION_794209
NOTE_ON_74
DURATION_100
POSITION_794395
NOTE_ON_43
DURATION_28
POSITION_794397
NOTE_ON_71
DURATION_68
POSITION_794302
NOTE_ON_76
DURATION_201
POSITION_794485
NOTE_ON_74
DURATION_39
POSITION_793970
NOTE_ON_67
DURATION_587
POSITION_794584
NOTE_ON_40
DURATION_50
POSITION_794706
NOTE_ON_66
DURATION_93
POSITION_794799
NOTE_ON_59
DURATION_40
POSITION_794840
NOTE_ON_67
DURATION_73
POSITION_794917
NOTE_ON_71
DURATION_110
POSITION_795019
NOTE_ON_60
DURATION_35
POSITION_794611
NOTE_ON_72
DURATION_461
POSITION_795025
NOTE_ON_64
DURATION_69
POSITION_795114
NOTE_ON_67
DURATION_80
POSITION_795237
NOTE_ON_54
DURATION_232
POSITION_795245
NOTE_ON_69
DURATION_295
POSITION_795369
NOTE_ON_71
DURATION_217
POSITION_795479
NOTE_ON_72
DURATION_112
POSITION_795475
NOTE_ON_50
DURATION_160
POSITION_795574
NOTE_ON_74
DURATION_102
POSITION_795676
NOTE_ON_69
DURATION_164
POSITION_795768
NOTE_ON_72
DURATION_101
POSITION_795673
NOTE_ON_52
DURATION_203
POSITION_795899
NOTE_ON_71
DURATION_105
POSITION_796002
NOTE_ON_69
DURATION_34
POSITION_795882
NOTE_ON_53
DURATION_230
POSITION_796112
NOTE_ON_71
DURATION_108
POSITION_795897
NOTE_ON_67
DURATION_365
POSITION_796113
NOTE_ON_52
DURATION_174
POSITION_796205
NOTE_ON_72
DURATION_116
POSITION_796314
NOTE_ON_74
DURATION_108
POSITION_796316
NOTE_ON_50
DURATION_212
POSITION_796417
NOTE_ON_71
DURATION_194
POSITION_796718
NOTE_ON_55
DURATION_66
POSITION_796604
NOTE_ON_76
DURATION_314
POSITION_796826
NOTE_ON_60
DURATION_126
POSITION_796921
NOTE_ON_57
DURATION_84
POSITION_796556
NOTE_ON_48
DURATION_473
POSITION_796926
NOTE_ON_72
DURATION_106
POSITION_797033
NOTE_ON_69
DURATION_53
POSITION_797030
NOTE_ON_54
DURATION_62
POSITION_797114
NOTE_ON_57
DURATION_58
POSITION_797118
NOTE_ON_66
DURATION_85
POSITION_797232
NOTE_ON_74
DURATION_24
POSITION_797327
NOTE_ON_57
DURATION_93
POSITION_797463
NOTE_ON_67
DURATION_50
POSITION_797462
NOTE_ON_59
DURATION_71
POSITION_797238
NOTE_ON_47
DURATION_314
POSITION_797549
NOTE_ON_55
DURATION_87
POSITION_797646
NOTE_ON_52
DURATION_94
POSITION_797741
NOTE_ON_55
DURATION_90
POSITION_797965
NOTE_ON_55
DURATION_84
POSITION_797865
NOTE_ON_72
DURATION_290
POSITION_797863
NOTE_ON_45
DURATION_294
POSITION_798071
NOTE_ON_57
DURATION_91
POSITION_798177
NOTE_ON_54
DURATION_61
POSITION_798180
NOTE_ON_69
DURATION_59
POSITION_798286
NOTE_ON_50
DURATION_62
POSITION_798288
NOTE_ON_66
DURATION_65
POSITION_798361
NOTE_ON_54
DURATION_48
POSITION_798385
NOTE_ON_62
DURATION_93
POSITION_798478
NOTE_ON_71
DURATION_31
POSITION_798581
NOTE_ON_54
DURATION_95
POSITION_798692
NOTE_ON_64
DURATION_41
POSITION_798691
NOTE_ON_55
DURATION_87
POSITION_798478
NOTE_ON_43
DURATION_311
POSITION_798782
NOTE_ON_52
DURATION_88
POSITION_798887
NOTE_ON_49
DURATION_72
POSITION_798978
NOTE_ON_52
DURATION_89
POSITION_799200
NOTE_ON_52
DURATION_69
POSITION_799308
NOTE_ON_54
DURATION_64
POSITION_799100
NOTE_ON_42
DURATION_277
POSITION_799411
NOTE_ON_66
DURATION_148
POSITION_799398
NOTE_ON_50
DURATION_189
POSITION_799505
NOTE_ON_47
DURATION_87
POSITION_799509
NOTE_ON_62
DURATION_108
POSITION_799102
NOTE_ON_69
DURATION_515
POSITION_799596
NOTE_ON_50
DURATION_41
POSITION_799599
NOTE_ON_59
DURATION_75
POSITION_799707
NOTE_ON_67
DURATION_49
POSITION_799806
NOTE_ON_50
DURATION_66
POSITION_799924
NOTE_ON_61
DURATION_45
POSITION_799925
NOTE_ON_52
DURATION_70
POSITION_800014
NOTE_ON_49
DURATION_70
POSITION_799707
NOTE_ON_40
DURATION_380
POSITION_800097
NOTE_ON_57
DURATION_82
POSITION_800099
NOTE_ON_45
DURATION_81
POSITION_800189
NOTE_ON_49
DURATION_43
POSITION_800314
NOTE_ON_38
DURATION_96
POSITION_800473
NOTE_ON_61
DURATION_5
POSITION_800439
NOTE_ON_64
DURATION_103
POSITION_800531
NOTE_ON_45
DURATION_42
POSITION_800558
NOTE_ON_66
DURATION_95
POSITION_800646
NOTE_ON_69
DURATION_51
POSITION_800746
NOTE_ON_47
DURATION_36
POSITION_800752
NOTE_ON_62
DURATION_99
POSITION_800852
NOTE_ON_66
DURATION_69
POSITION_800941
NOTE_ON_40
DURATION_91
POSITION_800947
NOTE_ON_67
DURATION_91
POSITION_801049
NOTE_ON_66
DURATION_101
POSITION_801155
NOTE_ON_47
DURATION_35
POSITION_801156
NOTE_ON_67
DURATION_88
POSITION_801251
NOTE_ON_71
DURATION_69
POSITION_801359
NOTE_ON_48
DURATION_33
POSITION_801364
NOTE_ON_64
DURATION_90
POSITION_801458
NOTE_ON_67
DURATION_77
POSITION_801559
NOTE_ON_69
DURATION_148
POSITION_801558
NOTE_ON_42
DURATION_187
POSITION_801658
NOTE_ON_67
DURATION_90
POSITION_801773
NOTE_ON_48
DURATION_38
POSITION_801769
NOTE_ON_69
DURATION_82
POSITION_801864
NOTE_ON_72
DURATION_109
POSITION_801963
NOTE_ON_50
DURATION_26
POSITION_801966
NOTE_ON_66
DURATION_108
POSITION_802071
NOTE_ON_69
DURATION_48
POSITION_802179
NOTE_ON_71
DURATION_104
POSITION_802177
NOTE_ON_43
DURATION_119
POSITION_802275
NOTE_ON_69
DURATION_48
POSITION_802373
NOTE_ON_50
DURATION_44
POSITION_802374
NOTE_ON_71
DURATION_105
POSITION_802470
NOTE_ON_73
DURATION_140
POSITION_802571
NOTE_ON_52
DURATION_40
POSITION_802572
NOTE_ON_74
DURATION_87
POSITION_802666
NOTE_ON_71
DURATION_105
POSITION_802777
NOTE_ON_73
DURATION_40
POSITION_802771
NOTE_ON_45
DURATION_93
POSITION_802876
NOTE_ON_54
DURATION_70
POSITION_802982
NOTE_ON_69
DURATION_41
POSITION_802985
NOTE_ON_55
DURATION_77
POSITION_803077
NOTE_ON_57
DURATION_71
POSITION_803193
NOTE_ON_52
DURATION_76
POSITION_803287
NOTE_ON_55
DURATION_68
POSITION_803400
NOTE_ON_54
DURATION_93
POSITION_803509
NOTE_ON_52
DURATION_92
POSITION_803186
NOTE_ON_76
DURATION_426
POSITION_803607
NOTE_ON_74
DURATION_33
POSITION_803607
NOTE_ON_54
DURATION_64
POSITION_803715
NOTE_ON_57
DURATION_66
POSITION_803823
NOTE_ON_50
DURATION_55
POSITION_803908
NOTE_ON_54
DURATION_108
POSITION_803822
NOTE_ON_78
DURATION_227
POSITION_804017
NOTE_ON_52
DURATION_70
POSITION_804121
NOTE_ON_50
DURATION_95
POSITION_803823
NOTE_ON_74
DURATION_400
POSITION_804233
NOTE_ON_73
DURATION_37
POSITION_804230
NOTE_ON_76
DURATION_46
POSITION_804223
NOTE_ON_52
DURATION_58
POSITION_804316
NOTE_ON_55
DURATION_92
POSITION_804430
NOTE_ON_49
DURATION_101
POSITION_804522
NOTE_ON_52
DURATION_62
POSITION_804637
NOTE_ON_50
DURATION_40
POSITION_804740
NOTE_ON_49
DURATION_133
POSITION_804434
NOTE_ON_76
DURATION_450
POSITION_804430
NOTE_ON_79
DURATION_458
POSITION_804870
NOTE_ON_78
DURATION_49
POSITION_804867
NOTE_ON_50
DURATION_65
POSITION_804875
NOTE_ON_74
DURATION_119
POSITION_804971
NOTE_ON_54
DURATION_73
POSITION_805100
NOTE_ON_47
DURATION_98
POSITION_805206
NOTE_ON_50
DURATION_45
POSITION_805098
NOTE_ON_81
DURATION_291
POSITION_805376
NOTE_ON_43
DURATION_175
POSITION_805381
NOTE_ON_83
DURATION_177
POSITION_805511
NOTE_ON_74
DURATION_56
POSITION_805622
NOTE_ON_76
DURATION_217
POSITION_805618
NOTE_ON_55
DURATION_235
POSITION_805848
NOTE_ON_67
DURATION_252
POSITION_805720
NOTE_ON_79
DURATION_395
POSITION_806163
NOTE_ON_64
DURATION_66
POSITION_806061
NOTE_ON_81
DURATION_198
POSITION_805848
NOTE_ON_76
DURATION_421
POSITION_806272
NOTE_ON_66
DURATION_116
POSITION_805943
NOTE_ON_73
DURATION_464
POSITION_806368
NOTE_ON_69
DURATION_114
POSITION_806480
NOTE_ON_62
DURATION_251
POSITION_806262
NOTE_ON_74
DURATION_470
POSITION_806571
NOTE_ON_66
DURATION_161
POSITION_806475
NOTE_ON_54
DURATION_259
POSITION_806702
NOTE_ON_71
DURATION_219
POSITION_806788
NOTE_ON_50
DURATION_135
POSITION_806896
NOTE_ON_52
DURATION_68
POSITION_806899
NOTE_ON_73
DURATION_72
POSITION_806687
NOTE_ON_79
DURATION_302
POSITION_806988
NOTE_ON_55
DURATION_73
POSITION_806992
NOTE_ON_76
DURATION_132
POSITION_807093
NOTE_ON_45
DURATION_101
POSITION_807186
NOTE_ON_49
DURATION_99
POSITION_807099
NOTE_ON_73
DURATION_191
POSITION_807186
NOTE_ON_69
DURATION_127
POSITION_807308
NOTE_ON_78
DURATION_33
POSITION_807309
NOTE_ON_74
DURATION_135
POSITION_807418
NOTE_ON_52
DURATION_107
POSITION_807310
NOTE_ON_50
DURATION_226
POSITION_807555
NOTE_ON_54
DURATION_114
POSITION_807666
NOTE_ON_57
DURATION_125
POSITION_807556
NOTE_ON_69
DURATION_318
POSITION_807785
NOTE_ON_50
DURATION_120
POSITION_807555
NOTE_ON_74
DURATION_404
POSITION_807889
NOTE_ON_54
DURATION_89
POSITION_807785
NOTE_ON_72
DURATION_218
POSITION_807998
NOTE_ON_55
DURATION_102
POSITION_808002
NOTE_ON_71
DURATION_179
POSITION_808101
NOTE_ON_52
DURATION_82
POSITION_808101
NOTE_ON_67
DURATION_108
POSITION_808208
NOTE_ON_49
DURATION_100
POSITION_808209
NOTE_ON_76
DURATION_149
POSITION_808295
NOTE_ON_52
DURATION_105
POSITION_808426
NOTE_ON_45
DURATION_73
POSITION_808561
NOTE_ON_49
DURATION_132
POSITION_808469
NOTE_ON_64
DURATION_700
POSITION_808753
NOTE_ON_38
DURATION_416
POSITION_808466
NOTE_ON_67
DURATION_704
POSITION_809160
NOTE_ON_62
DURATION_256
POSITION_809160
NOTE_ON_66
DURATION_257
POSITION_809166
NOTE_ON_50
DURATION_251
POSITION_809682
NOTE_ON_57
DURATION_35
POSITION_809939
NOTE_ON_50
DURATION_32
POSITION_810266
NOTE_ON_55
DURATION_56
POSITION_811172
NOTE_ON_55
DURATION_41
POSITION_811293
NOTE_ON_54
DURATION_86
POSITION_811400
NOTE_ON_52
DURATION_87
POSITION_811506
NOTE_ON_54
DURATION_105
POSITION_811611
NOTE_ON_50
DURATION_78
POSITION_811733
NOTE_ON_47
DURATION_131
POSITION_811860
NOTE_ON_49
DURATION_69
POSITION_811950
NOTE_ON_50
DURATION_53
POSITION_812019
NOTE_ON_49
DURATION_44
POSITION_812084
NOTE_ON_50
DURATION_41
POSITION_812187
NOTE_ON_50
DURATION_53
POSITION_812271
NOTE_ON_47
DURATION_46
POSITION_812138
NOTE_ON_49
DURATION_183
POSITION_812331
NOTE_ON_49
DURATION_70
POSITION_812402
NOTE_ON_50
DURATION_129
POSITION_812546
NOTE_ON_49
DURATION_102
POSITION_812669
NOTE_ON_50
DURATION_41
POSITION_812755
NOTE_ON_52
DURATION_69
POSITION_812863
NOTE_ON_62
DURATION_39
POSITION_812863
NOTE_ON_54
DURATION_91
POSITION_812993
NOTE_ON_50
DURATION_73
POSITION_813077
NOTE_ON_50
DURATION_19
POSITION_813110
NOTE_ON_55
DURATION_41
POSITION_813142
NOTE_ON_52
DURATION_78
POSITION_813247
NOTE_ON_50
DURATION_121
POSITION_813386
NOTE_ON_60
DURATION_41
POSITION_813393
NOTE_ON_52
DURATION_103
POSITION_813492
NOTE_ON_54
DURATION_91
POSITION_813610
NOTE_ON_55
DURATION_72
POSITION_813715
NOTE_ON_52
DURATION_76
POSITION_813831
NOTE_ON_54
DURATION_38
POSITION_813950
NOTE_ON_60
DURATION_61
POSITION_814074
NOTE_ON_50
DURATION_33
POSITION_814072
NOTE_ON_59
DURATION_92
POSITION_814167
NOTE_ON_57
DURATION_86
POSITION_814274
NOTE_ON_55
DURATION_32
POSITION_814273
NOTE_ON_59
DURATION_67
POSITION_814383
NOTE_ON_55
DURATION_52
POSITION_814515
NOTE_ON_52
DURATION_65
POSITION_814614
NOTE_ON_54
DURATION_44
POSITION_814632
NOTE_ON_50
DURATION_62
POSITION_814751
NOTE_ON_55
DURATION_38
POSITION_814751
NOTE_ON_48
DURATION_45
POSITION_814798
NOTE_ON_54
DURATION_33
POSITION_814846
NOTE_ON_47
DURATION_71
POSITION_814844
NOTE_ON_55
DURATION_123
POSITION_814913
NOTE_ON_48
DURATION_93
POSITION_814907
NOTE_ON_54
DURATION_113
POSITION_815027
NOTE_ON_52
DURATION_47
POSITION_815022
NOTE_ON_45
DURATION_125
POSITION_815091
NOTE_ON_54
DURATION_61
POSITION_815153
NOTE_ON_55
DURATION_37
POSITION_815151
NOTE_ON_47
DURATION_61
POSITION_815275
NOTE_ON_52
DURATION_108
POSITION_815394
NOTE_ON_57
DURATION_36
POSITION_815413
NOTE_ON_50
DURATION_36
POSITION_815443
NOTE_ON_56
DURATION_41
POSITION_815496
NOTE_ON_49
DURATION_56
POSITION_815491
NOTE_ON_57
DURATION_63
POSITION_815563
NOTE_ON_57
DURATION_52
POSITION_815587
NOTE_ON_50
DURATION_75
POSITION_815635
NOTE_ON_56
DURATION_31
POSITION_815697
NOTE_ON_54
DURATION_44
POSITION_815697
NOTE_ON_47
DURATION_118
POSITION_815745
NOTE_ON_56
DURATION_74
POSITION_815810
NOTE_ON_49
DURATION_36
POSITION_815836
NOTE_ON_57
DURATION_87
POSITION_815920
NOTE_ON_50
DURATION_10
POSITION_815934
NOTE_ON_59
DURATION_77
POSITION_816024
NOTE_ON_52
DURATION_43
POSITION_816054
NOTE_ON_57
DURATION_73
POSITION_816080
NOTE_ON_51
DURATION_57
POSITION_816167
NOTE_ON_55
DURATION_56
POSITION_816145
NOTE_ON_52
DURATION_80
POSITION_816221
NOTE_ON_51
DURATION_57
POSITION_816279
NOTE_ON_57
DURATION_62
POSITION_816287
NOTE_ON_49
DURATION_73
POSITION_816379
NOTE_ON_54
DURATION_69
POSITION_816379
NOTE_ON_51
DURATION_71
POSITION_816503
NOTE_ON_55
DURATION_61
POSITION_816501
NOTE_ON_52
DURATION_69
POSITION_816603
NOTE_ON_54
DURATION_54
POSITION_816603
NOTE_ON_59
DURATION_59
POSITION_816701
NOTE_ON_55
DURATION_36
POSITION_816726
NOTE_ON_57
DURATION_61
POSITION_816774
NOTE_ON_54
DURATION_47
POSITION_816819
NOTE_ON_59
DURATION_44
POSITION_816907
NOTE_ON_54
DURATION_39
POSITION_816934
NOTE_ON_60
DURATION_28
POSITION_816923
NOTE_ON_69
DURATION_41
POSITION_816957
NOTE_ON_52
DURATION_49
POSITION_817020
NOTE_ON_54
DURATION_41
POSITION_817038
NOTE_ON_57
DURATION_27
POSITION_817176
NOTE_ON_55
DURATION_42
POSITION_817176
NOTE_ON_59
DURATION_42
POSITION_817174
NOTE_ON_62
DURATION_132
POSITION_817292
NOTE_ON_57
DURATION_31
POSITION_817435
NOTE_ON_52
DURATION_47
POSITION_817433
NOTE_ON_67
DURATION_62
POSITION_817433
NOTE_ON_59
DURATION_64
POSITION_817540
NOTE_ON_61
DURATION_58
POSITION_817663
NOTE_ON_62
DURATION_64
POSITION_817755
NOTE_ON_59
DURATION_67
POSITION_817868
NOTE_ON_61
DURATION_40
POSITION_817870
NOTE_ON_57
DURATION_43
POSITION_817970
NOTE_ON_67
DURATION_115
POSITION_818096
NOTE_ON_57
DURATION_35
POSITION_818101
NOTE_ON_50
DURATION_37
POSITION_818100
NOTE_ON_66
DURATION_116
POSITION_818211
NOTE_ON_64
DURATION_126
POSITION_818308
NOTE_ON_62
DURATION_49
POSITION_818335
NOTE_ON_66
DURATION_110
POSITION_818433
NOTE_ON_62
DURATION_66
POSITION_818530
NOTE_ON_43
DURATION_46
POSITION_818562
NOTE_ON_59
DURATION_74
POSITION_818673
NOTE_ON_57
DURATION_34
POSITION_818670
NOTE_ON_61
DURATION_39
POSITION_818793
NOTE_ON_62
DURATION_30
POSITION_818812
NOTE_ON_55
DURATION_40
POSITION_818843
NOTE_ON_61
DURATION_48
POSITION_818809
NOTE_ON_45
DURATION_104
POSITION_818890
NOTE_ON_62
DURATION_82
POSITION_818915
NOTE_ON_54
DURATION_76
POSITION_818992
NOTE_ON_55
DURATION_61
POSITION_818981
NOTE_ON_62
DURATION_75
POSITION_819046
NOTE_ON_61
DURATION_47
POSITION_819099
NOTE_ON_59
DURATION_61
POSITION_819099
NOTE_ON_52
DURATION_62
POSITION_819168
NOTE_ON_61
DURATION_63
POSITION_819239
NOTE_ON_62
DURATION_47
POSITION_819225
NOTE_ON_50
DURATION_82
POSITION_819229
NOTE_ON_54
DURATION_93
POSITION_819357
NOTE_ON_56
DURATION_52
POSITION_819367
NOTE_ON_64
DURATION_54
POSITION_819455
NOTE_ON_47
DURATION_58
POSITION_819497
NOTE_ON_57
DURATION_40
POSITION_819490
NOTE_ON_62
DURATION_78
POSITION_819553
NOTE_ON_56
DURATION_77
POSITION_819597
NOTE_ON_61
DURATION_75
POSITION_819636
NOTE_ON_57
DURATION_50
POSITION_819690
NOTE_ON_62
DURATION_43
POSITION_819737
NOTE_ON_54
DURATION_60
POSITION_819788
NOTE_ON_59
DURATION_56
POSITION_819805
NOTE_ON_56
DURATION_51
POSITION_819909
NOTE_ON_57
DURATION_104
POSITION_819907
NOTE_ON_61
DURATION_112
POSITION_820028
NOTE_ON_47
DURATION_71
POSITION_820028
NOTE_ON_63
DURATION_94
POSITION_820135
NOTE_ON_54
DURATION_35
POSITION_820142
NOTE_ON_64
DURATION_39
POSITION_820135
NOTE_ON_45
DURATION_61
POSITION_820220
NOTE_ON_63
DURATION_36
POSITION_820226
NOTE_ON_43
DURATION_86
POSITION_820274
NOTE_ON_64
DURATION_53
POSITION_820314
NOTE_ON_45
DURATION_112
POSITION_820327
NOTE_ON_63
DURATION_119
POSITION_820394
NOTE_ON_61
DURATION_71
POSITION_820419
NOTE_ON_42
DURATION_49
POSITION_820452
NOTE_ON_63
DURATION_58
POSITION_820521
NOTE_ON_43
DURATION_37
POSITION_820550
NOTE_ON_64
DURATION_115
POSITION_820650
NOTE_ON_71
DURATION_121
POSITION_820770
NOTE_ON_57
DURATION_31
POSITION_820770
NOTE_ON_45
DURATION_39
POSITION_820774
NOTE_ON_69
DURATION_46
POSITION_820875
NOTE_ON_67
DURATION_85
POSITION_820989
NOTE_ON_47
DURATION_35
POSITION_820992
NOTE_ON_69
DURATION_92
POSITION_821093
NOTE_ON_66
DURATION_110
POSITION_821203
NOTE_ON_40
DURATION_28
POSITION_821216
NOTE_ON_67
DURATION_76
POSITION_821333
NOTE_ON_64
DURATION_31
POSITION_821449
NOTE_ON_69
DURATION_39
POSITION_821454
NOTE_ON_62
DURATION_42
POSITION_821510
NOTE_ON_68
DURATION_34
POSITION_821548
NOTE_ON_69
DURATION_39
POSITION_821547
NOTE_ON_60
DURATION_42
POSITION_821618
NOTE_ON_68
DURATION_72
POSITION_821629
NOTE_ON_62
DURATION_95
POSITION_821702
NOTE_ON_68
DURATION_34
POSITION_821738
NOTE_ON_66
DURATION_32
POSITION_821772
NOTE_ON_59
DURATION_68
POSITION_821797
NOTE_ON_68
DURATION_61
POSITION_821886
NOTE_ON_60
DURATION_39
POSITION_821887
NOTE_ON_69
DURATION_45
POSITION_821972
NOTE_ON_76
DURATION_135
POSITION_822089
NOTE_ON_62
DURATION_35
POSITION_822091
NOTE_ON_74
DURATION_91
POSITION_822191
NOTE_ON_72
DURATION_84
POSITION_822312
NOTE_ON_64
DURATION_33
POSITION_822316
NOTE_ON_74
DURATION_39
POSITION_822404
NOTE_ON_71
DURATION_47
POSITION_822534
NOTE_ON_57
DURATION_25
POSITION_822539
NOTE_ON_72
DURATION_61
POSITION_822783
NOTE_ON_62
DURATION_31
POSITION_822656
NOTE_ON_81
DURATION_171
POSITION_822780
NOTE_ON_79
DURATION_112
POSITION_822883
NOTE_ON_77
DURATION_128
POSITION_823006
NOTE_ON_79
DURATION_79
POSITION_823098
NOTE_ON_76
DURATION_121
POSITION_823361
NOTE_ON_62
DURATION_93
POSITION_823236
NOTE_ON_77
DURATION_221
POSITION_823474
NOTE_ON_60
DURATION_109
POSITION_823475
NOTE_ON_68
DURATION_115
POSITION_823581
NOTE_ON_59
DURATION_102
POSITION_823691
NOTE_ON_60
DURATION_112
POSITION_823800
NOTE_ON_57
DURATION_109
POSITION_823714
NOTE_ON_69
DURATION_196
POSITION_823923
NOTE_ON_54
DURATION_106
POSITION_824027
NOTE_ON_56
DURATION_55
POSITION_824109
NOTE_ON_57
DURATION_58
POSITION_824024
NOTE_ON_84
DURATION_147
POSITION_824133
NOTE_ON_83
DURATION_58
POSITION_824180
NOTE_ON_56
DURATION_34
POSITION_824242
NOTE_ON_57
DURATION_44
POSITION_824291
NOTE_ON_56
DURATION_71
POSITION_824344
NOTE_ON_83
DURATION_89
POSITION_824389
NOTE_ON_54
DURATION_62
POSITION_824243
NOTE_ON_81
DURATION_212
POSITION_824436
NOTE_ON_74
DURATION_43
POSITION_824454
NOTE_ON_56
DURATION_68
POSITION_824545
NOTE_ON_57
DURATION_40
POSITION_824561
NOTE_ON_72
DURATION_90
POSITION_824779
NOTE_ON_60
DURATION_34
POSITION_824652
NOTE_ON_83
DURATION_175
POSITION_824781
NOTE_ON_81
DURATION_107
POSITION_824875
NOTE_ON_80
DURATION_54
POSITION_824995
NOTE_ON_64
DURATION_38
POSITION_825089
NOTE_ON_72
DURATION_53
POSITION_824991
NOTE_ON_81
DURATION_171
POSITION_825218
NOTE_ON_63
DURATION_77
POSITION_825220
NOTE_ON_71
DURATION_95
POSITION_825327
NOTE_ON_81
DURATION_130
POSITION_825443
NOTE_ON_71
DURATION_35
POSITION_825436
NOTE_ON_79
DURATION_49
POSITION_825535
NOTE_ON_78
DURATION_39
POSITION_825652
NOTE_ON_64
DURATION_36
POSITION_825759
NOTE_ON_71
DURATION_115
POSITION_825656
NOTE_ON_79
DURATION_224
POSITION_825904
NOTE_ON_69
DURATION_47
POSITION_825900
NOTE_ON_72
DURATION_137
POSITION_826005
NOTE_ON_71
DURATION_98
POSITION_826009
NOTE_ON_79
DURATION_105
POSITION_826105
NOTE_ON_78
DURATION_48
POSITION_826105
NOTE_ON_69
DURATION_96
POSITION_826217
NOTE_ON_67
DURATION_101
POSITION_826214
NOTE_ON_76
DURATION_107
POSITION_826224
NOTE_ON_71
DURATION_144
POSITION_826312
NOTE_ON_69
DURATION_79
POSITION_826320
NOTE_ON_78
DURATION_94
POSITION_826436
NOTE_ON_66
DURATION_53
POSITION_826426
NOTE_ON_81
DURATION_124
POSITION_826555
NOTE_ON_75
DURATION_80
POSITION_826586
NOTE_ON_71
DURATION_78
POSITION_826703
NOTE_ON_69
DURATION_64
POSITION_826756
NOTE_ON_78
DURATION_38
POSITION_826670
NOTE_ON_76
DURATION_128
POSITION_826807
NOTE_ON_67
DURATION_31
POSITION_826865
NOTE_ON_66
DURATION_35
POSITION_826808
NOTE_ON_76
DURATION_151
POSITION_826948
NOTE_ON_78
DURATION_38
POSITION_826949
NOTE_ON_67
DURATION_38
POSITION_827007
NOTE_ON_76
DURATION_53
POSITION_827072
NOTE_ON_75
DURATION_34
POSITION_827072
NOTE_ON_64
DURATION_35
POSITION_827204
NOTE_ON_78
DURATION_31
POSITION_827181
NOTE_ON_63
DURATION_85
POSITION_827308
NOTE_ON_76
DURATION_104
POSITION_827418
NOTE_ON_75
DURATION_9
POSITION_827416
NOTE_ON_78
DURATION_40
POSITION_827420
NOTE_ON_76
DURATION_46
POSITION_827443
NOTE_ON_66
DURATION_61
POSITION_827524
NOTE_ON_81
DURATION_147
POSITION_827643
NOTE_ON_59
DURATION_42
POSITION_827647
NOTE_ON_79
DURATION_114
POSITION_827750
NOTE_ON_78
DURATION_107
POSITION_827647
NOTE_ON_71
DURATION_252
POSITION_827900
NOTE_ON_76
DURATION_282
POSITION_827898
NOTE_ON_60
DURATION_415
POSITION_828139
NOTE_ON_81
DURATION_214
POSITION_828235
NOTE_ON_57
DURATION_120
POSITION_828147
NOTE_ON_69
DURATION_210
POSITION_828356
NOTE_ON_54
DURATION_177
POSITION_828424
NOTE_ON_51
DURATION_120
POSITION_828332
NOTE_ON_72
DURATION_232
POSITION_828575
NOTE_ON_59
DURATION_47
POSITION_828575
NOTE_ON_63
DURATION_50
POSITION_828652
NOTE_ON_81
DURATION_104
POSITION_828790
NOTE_ON_52
DURATION_33
POSITION_828791
NOTE_ON_59
DURATION_49
POSITION_828791
NOTE_ON_64
DURATION_65
POSITION_828793
NOTE_ON_79
DURATION_108
POSITION_828765
NOTE_ON_81
DURATION_137
POSITION_828908
NOTE_ON_78
DURATION_46
POSITION_829027
NOTE_ON_79
DURATION_87
POSITION_829028
NOTE_ON_64
DURATION_123
POSITION_829122
NOTE_ON_76
DURATION_121
POSITION_829257
NOTE_ON_73
DURATION_77
POSITION_829357
NOTE_ON_75
DURATION_56
POSITION_829507
NOTE_ON_75
DURATION_117
POSITION_829459
NOTE_ON_76
DURATION_262
POSITION_829581
NOTE_ON_54
DURATION_142
POSITION_829252
NOTE_ON_57
DURATION_475
POSITION_829504
NOTE_ON_66
DURATION_235
POSITION_829631
NOTE_ON_75
DURATION_177
POSITION_829698
NOTE_ON_51
DURATION_120
POSITION_829736
NOTE_ON_73
DURATION_86
POSITION_829777
NOTE_ON_47
DURATION_113
POSITION_829812
NOTE_ON_75
DURATION_78
POSITION_829929
NOTE_ON_76
DURATION_84
POSITION_829929
NOTE_ON_55
DURATION_97
POSITION_829925
NOTE_ON_59
DURATION_114
POSITION_830034
NOTE_ON_54
DURATION_102
POSITION_830033
NOTE_ON_75
DURATION_105
POSITION_830143
NOTE_ON_55
DURATION_64
POSITION_830140
NOTE_ON_76
DURATION_91
POSITION_830238
NOTE_ON_79
DURATION_69
POSITION_830238
NOTE_ON_59
DURATION_123
POSITION_830350
NOTE_ON_51
DURATION_103
POSITION_830457
NOTE_ON_54
DURATION_56
POSITION_830458
NOTE_ON_81
DURATION_58
POSITION_830354
NOTE_ON_78
DURATION_176
POSITION_830583
NOTE_ON_52
DURATION_103
POSITION_830584
NOTE_ON_79
DURATION_108
POSITION_830685
NOTE_ON_78
DURATION_60
POSITION_830809
NOTE_ON_59
DURATION_47
POSITION_830804
NOTE_ON_79
DURATION_75
POSITION_830893
NOTE_ON_83
DURATION_77
POSITION_831013
NOTE_ON_60
DURATION_28
POSITION_831011
NOTE_ON_76
DURATION_99
POSITION_831123
NOTE_ON_80
DURATION_62
POSITION_831222
NOTE_ON_54
DURATION_71
POSITION_831224
NOTE_ON_81
DURATION_143
POSITION_831325
NOTE_ON_80
DURATION_106
POSITION_831443
NOTE_ON_60
DURATION_39
POSITION_831438
NOTE_ON_81
DURATION_90
POSITION_831532
NOTE_ON_84
DURATION_92
POSITION_831655
NOTE_ON_78
DURATION_39
POSITION_831654
NOTE_ON_62
DURATION_42
POSITION_831756
NOTE_ON_81
DURATION_164
POSITION_831869
NOTE_ON_56
DURATION_102
POSITION_831870
NOTE_ON_83
DURATION_115
POSITION_831967
NOTE_ON_81
DURATION_117
POSITION_832085
NOTE_ON_62
DURATION_37
POSITION_832085
NOTE_ON_83
DURATION_113
POSITION_832188
NOTE_ON_86
DURATION_91
POSITION_832297
NOTE_ON_80
DURATION_49
POSITION_832300
NOTE_ON_64
DURATION_51
POSITION_832390
NOTE_ON_83
DURATION_81
POSITION_832525
NOTE_ON_84
DURATION_113
POSITION_832526
NOTE_ON_57
DURATION_199
POSITION_832637
NOTE_ON_83
DURATION_144
POSITION_832753
NOTE_ON_81
DURATION_101
POSITION_832852
NOTE_ON_80
DURATION_63
POSITION_832759
NOTE_ON_59
DURATION_194
POSITION_832959
NOTE_ON_81
DURATION_104
POSITION_833066
NOTE_ON_76
DURATION_36
POSITION_833229
NOTE_ON_77
DURATION_39
POSITION_833231
NOTE_ON_69
DURATION_37
POSITION_832979
NOTE_ON_60
DURATION_533
POSITION_833514
NOTE_ON_74
DURATION_108
POSITION_833532
NOTE_ON_59
DURATION_205
POSITION_833623
NOTE_ON_86
DURATION_128
POSITION_833746
NOTE_ON_57
DURATION_39
POSITION_833738
NOTE_ON_83
DURATION_125
POSITION_833831
NOTE_ON_80
DURATION_47
POSITION_833945
NOTE_ON_76
DURATION_33
POSITION_833948
NOTE_ON_56
DURATION_39
POSITION_834042
NOTE_ON_74
DURATION_25
POSITION_834162
NOTE_ON_57
DURATION_28
POSITION_834168
NOTE_ON_72
DURATION_56
POSITION_834275
NOTE_ON_71
DURATION_40
POSITION_834161
NOTE_ON_81
DURATION_247
POSITION_834374
NOTE_ON_72
DURATION_56
POSITION_834482
NOTE_ON_69
DURATION_39
POSITION_834625
NOTE_ON_66
DURATION_89
POSITION_834721
NOTE_ON_68
DURATION_53
POSITION_834796
NOTE_ON_69
DURATION_49
POSITION_834859
NOTE_ON_68
DURATION_45
POSITION_834616
NOTE_ON_74
DURATION_345
POSITION_834989
NOTE_ON_69
DURATION_11
POSITION_834985
NOTE_ON_68
DURATION_38
POSITION_834929
NOTE_ON_83
DURATION_104
POSITION_835065
NOTE_ON_66
DURATION_37
POSITION_835026
NOTE_ON_80
DURATION_104
POSITION_835138
NOTE_ON_68
DURATION_50
POSITION_835115
NOTE_ON_76
DURATION_135
POSITION_835235
NOTE_ON_72
DURATION_32
POSITION_835255
NOTE_ON_69
DURATION_52
POSITION_835454
NOTE_ON_69
DURATION_33
POSITION_835451
NOTE_ON_76
DURATION_37
POSITION_835357
NOTE_ON_68
DURATION_134
POSITION_835549
NOTE_ON_71
DURATION_73
POSITION_835666
NOTE_ON_72
DURATION_30
POSITION_835665
NOTE_ON_81
DURATION_34
POSITION_835784
NOTE_ON_69
DURATION_59
POSITION_835896
NOTE_ON_74
DURATION_30
POSITION_835902
NOTE_ON_71
DURATION_79
POSITION_836023
NOTE_ON_69
DURATION_152
POSITION_836156
NOTE_ON_79
DURATION_45
POSITION_836253
NOTE_ON_73
DURATION_72
POSITION_836355
NOTE_ON_74
DURATION_55
POSITION_836461
NOTE_ON_71
DURATION_58
POSITION_836570
NOTE_ON_73
DURATION_31
POSITION_836678
NOTE_ON_79
DURATION_55
POSITION_836785
NOTE_ON_78
DURATION_32
POSITION_836790
NOTE_ON_69
DURATION_27
POSITION_836886
NOTE_ON_76
DURATION_91
POSITION_837000
NOTE_ON_74
DURATION_31
POSITION_836997
NOTE_ON_78
DURATION_34
POSITION_837104
NOTE_ON_74
DURATION_43
POSITION_837170
NOTE_ON_75
DURATION_11
POSITION_837230
NOTE_ON_71
DURATION_60
POSITION_837338
NOTE_ON_73
DURATION_32
POSITION_837345
NOTE_ON_69
DURATION_29
POSITION_837456
NOTE_ON_71
DURATION_9
POSITION_837456
NOTE_ON_67
DURATION_37
POSITION_837457
NOTE_ON_74
DURATION_70
POSITION_837508
NOTE_ON_73
DURATION_23
POSITION_837552
NOTE_ON_66
DURATION_31
POSITION_837555
NOTE_ON_74
DURATION_87
POSITION_837624
NOTE_ON_67
DURATION_38
POSITION_837625
NOTE_ON_73
DURATION_98
POSITION_837745
NOTE_ON_71
DURATION_30
POSITION_837747
NOTE_ON_64
DURATION_31
POSITION_837793
NOTE_ON_73
DURATION_51
POSITION_837858
NOTE_ON_74
DURATION_27
POSITION_837858
NOTE_ON_66
DURATION_39
POSITION_837977
NOTE_ON_71
DURATION_72
POSITION_837978
NOTE_ON_67
DURATION_72
POSITION_838099
NOTE_ON_65
DURATION_41
POSITION_838137
NOTE_ON_71
DURATION_36
POSITION_838098
NOTE_ON_72
DURATION_81
POSITION_838188
NOTE_ON_72
DURATION_84
POSITION_838248
NOTE_ON_71
DURATION_29
POSITION_838192
NOTE_ON_64
DURATION_95
POSITION_838284
NOTE_ON_65
DURATION_55
POSITION_838282
NOTE_ON_72
DURATION_61
POSITION_838378
NOTE_ON_69
DURATION_37
POSITION_838346
NOTE_ON_71
DURATION_71
POSITION_838427
NOTE_ON_71
DURATION_47
POSITION_838379
NOTE_ON_62
DURATION_104
POSITION_838483
NOTE_ON_64
DURATION_53
POSITION_838482
NOTE_ON_72
DURATION_80
POSITION_838597
NOTE_ON_69
DURATION_5
POSITION_838592
NOTE_ON_66
DURATION_55
POSITION_838591
NOTE_ON_74
DURATION_59
POSITION_838694
NOTE_ON_67
DURATION_28
POSITION_838698
NOTE_ON_72
DURATION_41
POSITION_838745
NOTE_ON_66
DURATION_41
POSITION_838813
NOTE_ON_67
DURATION_32
POSITION_838811
NOTE_ON_71
DURATION_45
POSITION_838867
NOTE_ON_66
DURATION_59
POSITION_838898
NOTE_ON_72
DURATION_31
POSITION_838934
NOTE_ON_64
DURATION_65
POSITION_838994
NOTE_ON_69
DURATION_35
POSITION_839018
NOTE_ON_66
DURATION_26
POSITION_839105
NOTE_ON_71
DURATION_51
POSITION_839105
NOTE_ON_67
DURATION_265
POSITION_839327
NOTE_ON_71
DURATION_79
POSITION_839223
NOTE_ON_69
DURATION_247
POSITION_839421
NOTE_ON_72
DURATION_108
POSITION_839533
NOTE_ON_50
DURATION_25
POSITION_839657
NOTE_ON_66
DURATION_84
POSITION_839536
NOTE_ON_74
DURATION_284
POSITION_839812
NOTE_ON_67
DURATION_77
POSITION_839811
NOTE_ON_52
DURATION_336
POSITION_839940
NOTE_ON_64
DURATION_210
POSITION_840064
NOTE_ON_72
DURATION_96
POSITION_840160
NOTE_ON_69
DURATION_51
POSITION_840158
NOTE_ON_48
DURATION_104
POSITION_840264
NOTE_ON_45
DURATION_78
POSITION_840264
NOTE_ON_67
DURATION_87
POSITION_840346
NOTE_ON_42
DURATION_56
POSITION_840349
NOTE_ON_69
DURATION_54
POSITION_840454
NOTE_ON_50
DURATION_31
POSITION_840458
NOTE_ON_66
DURATION_91
POSITION_840563
NOTE_ON_72
DURATION_85
POSITION_840687
NOTE_ON_43
DURATION_34
POSITION_840688
NOTE_ON_71
DURATION_95
POSITION_840786
NOTE_ON_69
DURATION_54
POSITION_840717
NOTE_ON_62
DURATION_143
POSITION_840910
NOTE_ON_71
DURATION_134
POSITION_840908
NOTE_ON_55
DURATION_169
POSITION_841010
NOTE_ON_67
DURATION_69
POSITION_841146
NOTE_ON_64
DURATION_121
POSITION_841260
NOTE_ON_66
DURATION_60
POSITION_841356
NOTE_ON_67
DURATION_45
POSITION_841410
NOTE_ON_66
DURATION_37
POSITION_841462
NOTE_ON_67
DURATION_81
POSITION_841357
NOTE_ON_57
DURATION_217
POSITION_841462
NOTE_ON_45
DURATION_115
POSITION_841135
NOTE_ON_48
DURATION_444
POSITION_841524
NOTE_ON_66
DURATION_173
POSITION_841616
NOTE_ON_64
DURATION_146
POSITION_841669
NOTE_ON_38
DURATION_97
POSITION_841579
NOTE_ON_42
DURATION_188
POSITION_841706
NOTE_ON_66
DURATION_62
POSITION_841802
NOTE_ON_50
DURATION_60
POSITION_841801
NOTE_ON_47
DURATION_123
POSITION_841932
NOTE_ON_45
DURATION_114
POSITION_842055
NOTE_ON_74
DURATION_40
POSITION_842054
NOTE_ON_47
DURATION_48
POSITION_842161
NOTE_ON_50
DURATION_70
POSITION_842268
NOTE_ON_43
DURATION_85
POSITION_842362
NOTE_ON_47
DURATION_77
POSITION_842262
NOTE_ON_76
DURATION_200
POSITION_842469
NOTE_ON_69
DURATION_46
POSITION_842466
NOTE_ON_48
DURATION_88
POSITION_842569
NOTE_ON_47
DURATION_106
POSITION_842683
NOTE_ON_76
DURATION_44
POSITION_842671
NOTE_ON_48
DURATION_60
POSITION_842768
NOTE_ON_52
DURATION_104
POSITION_842890
NOTE_ON_78
DURATION_43
POSITION_842889
NOTE_ON_57
DURATION_56
POSITION_842968
NOTE_ON_48
DURATION_95
POSITION_843115
NOTE_ON_71
DURATION_46
POSITION_843084
NOTE_ON_50
DURATION_105
POSITION_843217
NOTE_ON_48
DURATION_88
POSITION_843315
NOTE_ON_78
DURATION_39
POSITION_843315
NOTE_ON_50
DURATION_52
POSITION_843415
NOTE_ON_54
DURATION_60
POSITION_843538
NOTE_ON_47
DURATION_281
POSITION_843536
NOTE_ON_79
DURATION_284
POSITION_843650
NOTE_ON_50
DURATION_171
POSITION_843776
NOTE_ON_52
DURATION_49
POSITION_843797
NOTE_ON_72
DURATION_123
POSITION_843924
NOTE_ON_71
DURATION_143
POSITION_844030
NOTE_ON_48
DURATION_41
POSITION_844033
NOTE_ON_69
DURATION_61
POSITION_844136
NOTE_ON_67
DURATION_83
POSITION_844234
NOTE_ON_69
DURATION_44
POSITION_844235
NOTE_ON_45
DURATION_46
POSITION_844348
NOTE_ON_64
DURATION_155
POSITION_844467
NOTE_ON_50
DURATION_39
POSITION_844679
NOTE_ON_54
DURATION_33
POSITION_844598
NOTE_ON_74
DURATION_183
POSITION_844705
NOTE_ON_72
DURATION_105
POSITION_844472
NOTE_ON_66
DURATION_351
POSITION_844806
NOTE_ON_71
DURATION_97
POSITION_844897
NOTE_ON_50
DURATION_39
POSITION_844920
NOTE_ON_72
DURATION_79
POSITION_845010
NOTE_ON_69
DURATION_50
POSITION_845119
NOTE_ON_55
DURATION_31
POSITION_845122
NOTE_ON_71
DURATION_50
POSITION_845237
NOTE_ON_69
DURATION_42
POSITION_845327
NOTE_ON_52
DURATION_38
POSITION_845350
NOTE_ON_67
DURATION_30
POSITION_845453
NOTE_ON_66
DURATION_76
POSITION_845557
NOTE_ON_57
DURATION_31
POSITION_845559
NOTE_ON_67
DURATION_44
POSITION_845349
NOTE_ON_73
DURATION_348
POSITION_845668
NOTE_ON_64
DURATION_99
POSITION_845794
NOTE_ON_66
DURATION_44
POSITION_845793
NOTE_ON_50
DURATION_55
POSITION_845880
NOTE_ON_52
DURATION_61
POSITION_845787
NOTE_ON_74
DURATION_250
POSITION_846002
NOTE_ON_69
DURATION_44
POSITION_845980
NOTE_ON_50
DURATION_96
POSITION_846084
NOTE_ON_48
DURATION_93
POSITION_846215
NOTE_ON_62
DURATION_45
POSITION_846205
NOTE_ON_47
DURATION_62
POSITION_846311
NOTE_ON_45
DURATION_112
POSITION_846470
NOTE_ON_64
DURATION_178
POSITION_846214
NOTE_ON_74
DURATION_698
POSITION_846576
NOTE_ON_71
DURATION_345
POSITION_846705
NOTE_ON_48
DURATION_219
POSITION_846793
NOTE_ON_60
DURATION_131
POSITION_846457
NOTE_ON_43
DURATION_470
POSITION_846704
NOTE_ON_67
DURATION_238
POSITION_846896
NOTE_ON_57
DURATION_100
POSITION_846999
NOTE_ON_54
DURATION_48
POSITION_847109
NOTE_ON_62
DURATION_37
POSITION_847112
NOTE_ON_66
DURATION_40
POSITION_847115
NOTE_ON_57
DURATION_37
POSITION_847132
NOTE_ON_45
DURATION_38
POSITION_847251
NOTE_ON_48
DURATION_74
POSITION_847372
NOTE_ON_47
DURATION_42
POSITION_847471
NOTE_ON_45
DURATION_97
POSITION_847343
NOTE_ON_55
DURATION_263
POSITION_847605
NOTE_ON_47
DURATION_110
POSITION_847728
NOTE_ON_43
DURATION_71
POSITION_847820
NOTE_ON_40
DURATION_186
POSITION_847850
NOTE_ON_66
DURATION_163
POSITION_847806
NOTE_ON_60
DURATION_207
POSITION_847913
NOTE_ON_64
DURATION_103
POSITION_847600
NOTE_ON_67
DURATION_417
POSITION_847905
NOTE_ON_42
DURATION_143
POSITION_848059
NOTE_ON_42
DURATION_47
POSITION_848021
NOTE_ON_62
DURATION_93
POSITION_847985
NOTE_ON_43
DURATION_148
POSITION_848138
NOTE_ON_43
DURATION_71
POSITION_848107
NOTE_ON_57
DURATION_105
POSITION_848282
NOTE_ON_40
DURATION_101
POSITION_848214
NOTE_ON_54
DURATION_172
POSITION_848291
NOTE_ON_50
DURATION_100
POSITION_848211
NOTE_ON_42
DURATION_180
POSITION_848428
NOTE_ON_43
DURATION_39
POSITION_848557
NOTE_ON_60
DURATION_80
POSITION_848676
NOTE_ON_31
DURATION_77
POSITION_848429
NOTE_ON_59
DURATION_499
POSITION_848767
NOTE_ON_65
DURATION_172
POSITION_848907
NOTE_ON_43
DURATION_49
POSITION_848680
NOTE_ON_62
DURATION_290
POSITION_848919
NOTE_ON_64
DURATION_89
POSITION_849012
NOTE_ON_67
DURATION_122
POSITION_849161
NOTE_ON_60
DURATION_37
POSITION_849135
NOTE_ON_45
DURATION_69
POSITION_849165
NOTE_ON_65
DURATION_97
POSITION_849248
NOTE_ON_47
DURATION_26
POSITION_849250
NOTE_ON_67
DURATION_127
POSITION_849372
NOTE_ON_47
DURATION_32
POSITION_849374
NOTE_ON_65
DURATION_32
POSITION_849374
NOTE_ON_62
DURATION_64
POSITION_849449
NOTE_ON_48
DURATION_65
POSITION_849520
NOTE_ON_47
DURATION_84
POSITION_849467
NOTE_ON_64
DURATION_148
POSITION_849580
NOTE_ON_65
DURATION_56
POSITION_849647
NOTE_ON_57
DURATION_63
POSITION_849648
NOTE_ON_45
DURATION_90
POSITION_849677
NOTE_ON_62
DURATION_107
POSITION_849733
NOTE_ON_47
DURATION_53
POSITION_849797
NOTE_ON_55
DURATION_29
POSITION_849796
NOTE_ON_48
DURATION_32
POSITION_849797
NOTE_ON_64
DURATION_106
POSITION_849909
NOTE_ON_69
DURATION_49
POSITION_850025
NOTE_ON_52
DURATION_26
POSITION_850026
NOTE_ON_64
DURATION_33
POSITION_850029
NOTE_ON_67
DURATION_127
POSITION_850121
NOTE_ON_49
DURATION_37
POSITION_850137
NOTE_ON_66
DURATION_95
POSITION_850058
NOTE_ON_50
DURATION_184
POSITION_850258
NOTE_ON_49
DURATION_46
POSITION_850255
NOTE_ON_67
DURATION_68
POSITION_850320
NOTE_ON_47
DURATION_65
POSITION_850404
NOTE_ON_49
DURATION_105
POSITION_850470
NOTE_ON_50
DURATION_47
POSITION_850469
NOTE_ON_57
DURATION_56
POSITION_850470
NOTE_ON_66
DURATION_138
POSITION_850349
NOTE_ON_64
DURATION_272
POSITION_850593
NOTE_ON_71
DURATION_141
POSITION_850692
NOTE_ON_54
DURATION_45
POSITION_850702
NOTE_ON_52
DURATION_40
POSITION_850703
NOTE_ON_64
DURATION_87
POSITION_850701
NOTE_ON_69
DURATION_120
POSITION_850771
NOTE_ON_51
DURATION_65
POSITION_850801
NOTE_ON_67
DURATION_85
POSITION_850914
NOTE_ON_51
DURATION_137
POSITION_850829
NOTE_ON_52
DURATION_299
POSITION_851010
NOTE_ON_66
DURATION_127
POSITION_851060
NOTE_ON_51
DURATION_78
POSITION_851008
NOTE_ON_49
DURATION_131
POSITION_850912
NOTE_ON_69
DURATION_300
POSITION_851134
NOTE_ON_52
DURATION_86
POSITION_851132
NOTE_ON_67
DURATION_90
POSITION_851232
NOTE_ON_62
DURATION_43
POSITION_851232
NOTE_ON_54
DURATION_44
POSITION_851330
NOTE_ON_55
DURATION_39
POSITION_851370
NOTE_ON_60
DURATION_37
POSITION_851382
NOTE_ON_54
DURATION_64
POSITION_851473
NOTE_ON_59
DURATION_64
POSITION_851472
NOTE_ON_55
DURATION_73
POSITION_851363
NOTE_ON_69
DURATION_218
POSITION_851546
NOTE_ON_54
DURATION_62
POSITION_851620
NOTE_ON_52
DURATION_70
POSITION_851589
NOTE_ON_60
DURATION_103
POSITION_851686
NOTE_ON_57
DURATION_129
POSITION_851707
NOTE_ON_54
DURATION_114
POSITION_851586
NOTE_ON_69
DURATION_251
POSITION_851848
NOTE_ON_55
DURATION_38
POSITION_851848
NOTE_ON_59
DURATION_60
POSITION_852121
NOTE_ON_47
DURATION_26
POSITION_852123
NOTE_ON_35
DURATION_49
POSITION_852123
NOTE_ON_67
DURATION_145
POSITION_852231
NOTE_ON_71
DURATION_51
POSITION_851992
NOTE_ON_62
DURATION_311
POSITION_852354
NOTE_ON_50
DURATION_30
POSITION_852359
NOTE_ON_69
DURATION_48
POSITION_852356
NOTE_ON_38
DURATION_62
POSITION_852474
NOTE_ON_66
DURATION_151
POSITION_852637
NOTE_ON_66
DURATION_319
POSITION_853037
NOTE_ON_67
DURATION_241
POSITION_852966
NOTE_ON_66
DURATION_312
POSITION_852638
NOTE_ON_60
DURATION_640
POSITION_852637
NOTE_ON_31
DURATION_641
POSITION_853042
NOTE_ON_59
DURATION_239
POSITION_852637
NOTE_ON_43
DURATION_647
POSITION_853399
NOTE_ON_57
DURATION_38
POSITION_853660
NOTE_ON_50
DURATION_97
POSITION_853986
NOTE_ON_55
DURATION_103
POSITION_854972
NOTE_ON_55
DURATION_92
POSITION_855097
NOTE_ON_54
DURATION_87
POSITION_855195
NOTE_ON_52
DURATION_116
POSITION_855322
NOTE_ON_54
DURATION_116
POSITION_855435
NOTE_ON_50
DURATION_98
POSITION_855556
NOTE_ON_47
DURATION_146
POSITION_855687
NOTE_ON_49
DURATION_77
POSITION_855790
NOTE_ON_50
DURATION_46
POSITION_855855
NOTE_ON_49
DURATION_54
POSITION_855916
NOTE_ON_50
DURATION_104
POSITION_856030
NOTE_ON_50
DURATION_57
POSITION_855972
NOTE_ON_49
DURATION_118
POSITION_856103
NOTE_ON_47
DURATION_51
POSITION_856161
NOTE_ON_49
DURATION_72
POSITION_856239
NOTE_ON_50
DURATION_113
POSITION_856369
NOTE_ON_49
DURATION_115
POSITION_856510
NOTE_ON_50
DURATION_45
POSITION_856597
NOTE_ON_52
DURATION_95
POSITION_856716
NOTE_ON_62
DURATION_44
POSITION_856716
NOTE_ON_54
DURATION_90
POSITION_856846
NOTE_ON_50
DURATION_113
POSITION_856977
NOTE_ON_55
DURATION_43
POSITION_857010
NOTE_ON_52
DURATION_77
POSITION_857114
NOTE_ON_50
DURATION_122
POSITION_857254
NOTE_ON_60
DURATION_42
POSITION_857260
NOTE_ON_52
DURATION_101
POSITION_857360
NOTE_ON_54
DURATION_88
POSITION_857478
NOTE_ON_55
DURATION_73
POSITION_857583
NOTE_ON_52
DURATION_76
POSITION_857699
NOTE_ON_54
DURATION_37
POSITION_857817
NOTE_ON_60
DURATION_58
POSITION_857943
NOTE_ON_50
DURATION_38
POSITION_857940
NOTE_ON_59
DURATION_88
POSITION_858035
NOTE_ON_57
DURATION_86
POSITION_858138
NOTE_ON_55
DURATION_38
POSITION_858137
NOTE_ON_59
DURATION_67
POSITION_858250
NOTE_ON_55
DURATION_49
POSITION_858382
NOTE_ON_52
DURATION_68
POSITION_858481
NOTE_ON_54
DURATION_47
POSITION_858498
NOTE_ON_50
DURATION_37
POSITION_858619
NOTE_ON_55
DURATION_37
POSITION_858617
NOTE_ON_48
DURATION_48
POSITION_858666
NOTE_ON_54
DURATION_31
POSITION_858715
NOTE_ON_47
DURATION_70
POSITION_858711
NOTE_ON_55
DURATION_126
POSITION_858780
NOTE_ON_48
DURATION_95
POSITION_858775
NOTE_ON_54
DURATION_115
POSITION_858893
NOTE_ON_52
DURATION_49
POSITION_858890
NOTE_ON_45
DURATION_125
POSITION_858958
NOTE_ON_54
DURATION_62
POSITION_859020
NOTE_ON_55
DURATION_36
POSITION_859019
NOTE_ON_47
DURATION_60
POSITION_859143
NOTE_ON_52
DURATION_109
POSITION_859261
NOTE_ON_57
DURATION_38
POSITION_859280
NOTE_ON_50
DURATION_37
POSITION_859311
NOTE_ON_56
DURATION_39
POSITION_859357
NOTE_ON_57
DURATION_65
POSITION_859364
NOTE_ON_49
DURATION_61
POSITION_859429
NOTE_ON_57
DURATION_52
POSITION_859454
NOTE_ON_50
DURATION_73
POSITION_859507
NOTE_ON_56
DURATION_28
POSITION_859564
NOTE_ON_54
DURATION_45
POSITION_859564
NOTE_ON_47
DURATION_106
POSITION_859611
NOTE_ON_56
DURATION_76
POSITION_859679
NOTE_ON_49
DURATION_36
POSITION_859703
NOTE_ON_57
DURATION_87
POSITION_859799
NOTE_ON_59
DURATION_79
POSITION_859889
NOTE_ON_52
DURATION_47
POSITION_859922
NOTE_ON_57
DURATION_65
POSITION_859948
NOTE_ON_51
DURATION_56
POSITION_860034
NOTE_ON_55
DURATION_56
POSITION_860012
NOTE_ON_52
DURATION_81
POSITION_860088
NOTE_ON_51
DURATION_60
POSITION_860146
NOTE_ON_57
DURATION_61
POSITION_860155
NOTE_ON_49
DURATION_73
POSITION_860244
NOTE_ON_54
DURATION_67
POSITION_860245
NOTE_ON_51
DURATION_71
POSITION_860371
NOTE_ON_55
DURATION_58
POSITION_860366
NOTE_ON_52
DURATION_69
POSITION_860470
NOTE_ON_54
DURATION_53
POSITION_860470
NOTE_ON_59
DURATION_56
POSITION_860593
NOTE_ON_57
DURATION_48
POSITION_860570
NOTE_ON_55
DURATION_81
POSITION_860642
NOTE_ON_54
DURATION_55
POSITION_860686
NOTE_ON_59
DURATION_46
POSITION_860772
NOTE_ON_54
DURATION_56
POSITION_860800
NOTE_ON_60
DURATION_29
POSITION_860789
NOTE_ON_69
DURATION_44
POSITION_860825
NOTE_ON_52
DURATION_49
POSITION_860887
NOTE_ON_54
DURATION_43
POSITION_860908
NOTE_ON_57
DURATION_29
POSITION_861018
NOTE_ON_59
DURATION_40
POSITION_861018
NOTE_ON_55
DURATION_42
POSITION_861017
NOTE_ON_62
DURATION_132
POSITION_861137
NOTE_ON_57
DURATION_25
POSITION_861279
NOTE_ON_52
DURATION_48
POSITION_861277
NOTE_ON_67
DURATION_61
POSITION_861277
NOTE_ON_59
DURATION_65
POSITION_861383
NOTE_ON_61
DURATION_59
POSITION_861506
NOTE_ON_62
DURATION_63
POSITION_861600
NOTE_ON_59
DURATION_63
POSITION_861709
NOTE_ON_61
DURATION_42
POSITION_861714
NOTE_ON_57
DURATION_40
POSITION_861815
NOTE_ON_67
DURATION_102
POSITION_861939
NOTE_ON_57
DURATION_37
POSITION_861945
NOTE_ON_50
DURATION_34
POSITION_861945
NOTE_ON_66
DURATION_116
POSITION_862054
NOTE_ON_64
DURATION_124
POSITION_862152
NOTE_ON_62
DURATION_30
POSITION_862179
NOTE_ON_66
DURATION_105
POSITION_862278
NOTE_ON_62
DURATION_66
POSITION_862375
NOTE_ON_43
DURATION_42
POSITION_862407
NOTE_ON_59
DURATION_74
POSITION_862515
NOTE_ON_57
DURATION_37
POSITION_862514
NOTE_ON_61
DURATION_43
POSITION_862637
NOTE_ON_62
DURATION_31
POSITION_862656
NOTE_ON_55
DURATION_42
POSITION_862685
NOTE_ON_61
DURATION_51
POSITION_862652
NOTE_ON_45
DURATION_158
POSITION_862736
NOTE_ON_62
DURATION_81
POSITION_862759
NOTE_ON_54
DURATION_68
POSITION_862837
NOTE_ON_55
DURATION_61
POSITION_862828
NOTE_ON_62
DURATION_73
POSITION_862890
NOTE_ON_61
DURATION_48
POSITION_862944
NOTE_ON_59
DURATION_56
POSITION_862943
NOTE_ON_52
DURATION_62
POSITION_863013
NOTE_ON_61
DURATION_61
POSITION_863081
NOTE_ON_62
DURATION_47
POSITION_863070
NOTE_ON_50
DURATION_78
POSITION_863072
NOTE_ON_54
DURATION_88
POSITION_863152
NOTE_ON_52
DURATION_10
POSITION_863199
NOTE_ON_56
DURATION_61
POSITION_863211
NOTE_ON_64
DURATION_52
POSITION_863300
NOTE_ON_47
DURATION_57
POSITION_863338
NOTE_ON_57
DURATION_37
POSITION_863335
NOTE_ON_62
DURATION_90
POSITION_863398
NOTE_ON_56
DURATION_75
POSITION_863441
NOTE_ON_61
DURATION_69
POSITION_863480
NOTE_ON_57
DURATION_53
POSITION_863534
NOTE_ON_62
DURATION_74
POSITION_863581
NOTE_ON_54
DURATION_60
POSITION_863633
NOTE_ON_59
DURATION_45
POSITION_863649
NOTE_ON_56
DURATION_49
POSITION_863752
NOTE_ON_57
DURATION_86
POSITION_863751
NOTE_ON_61
DURATION_111
POSITION_863873
NOTE_ON_47
DURATION_70
POSITION_863872
NOTE_ON_63
DURATION_93
POSITION_863973
NOTE_ON_54
DURATION_11
POSITION_863982
NOTE_ON_64
DURATION_37
POSITION_863980
NOTE_ON_45
DURATION_60
POSITION_864065
NOTE_ON_63
DURATION_38
POSITION_864070
NOTE_ON_43
DURATION_98
POSITION_864152
NOTE_ON_45
DURATION_93
POSITION_864164
NOTE_ON_63
DURATION_127
POSITION_864238
NOTE_ON_61
DURATION_66
POSITION_864262
NOTE_ON_42
DURATION_64
POSITION_864295
NOTE_ON_63
DURATION_61
POSITION_864365
NOTE_ON_43
DURATION_38
POSITION_864394
NOTE_ON_64
DURATION_112
POSITION_864493
NOTE_ON_71
DURATION_116
POSITION_864613
NOTE_ON_45
DURATION_39
POSITION_864614
NOTE_ON_57
DURATION_61
POSITION_864618
NOTE_ON_69
DURATION_103
POSITION_864720
NOTE_ON_67
DURATION_75
POSITION_864834
NOTE_ON_47
DURATION_31
POSITION_864836
NOTE_ON_69
DURATION_100
POSITION_864936
NOTE_ON_66
DURATION_111
POSITION_865047
NOTE_ON_40
DURATION_25
POSITION_865064
NOTE_ON_67
DURATION_63
POSITION_865176
NOTE_ON_64
DURATION_29
POSITION_865293
NOTE_ON_69
DURATION_38
POSITION_865298
NOTE_ON_62
DURATION_41
POSITION_865354
NOTE_ON_68
DURATION_35
POSITION_865392
NOTE_ON_60
DURATION_39
POSITION_865392
NOTE_ON_69
DURATION_40
POSITION_865464
NOTE_ON_68
DURATION_72
POSITION_865473
NOTE_ON_62
DURATION_99
POSITION_865579
NOTE_ON_66
DURATION_37
POSITION_865544
NOTE_ON_68
DURATION_91
POSITION_865617
NOTE_ON_59
DURATION_74
POSITION_865640
NOTE_ON_68
DURATION_61
POSITION_865729
NOTE_ON_60
DURATION_41
POSITION_865730
NOTE_ON_69
DURATION_48
POSITION_865817
NOTE_ON_76
DURATION_128
POSITION_865933
NOTE_ON_62
DURATION_38
POSITION_865935
NOTE_ON_74
DURATION_76
POSITION_866035
NOTE_ON_72
DURATION_84
POSITION_866155
NOTE_ON_64
DURATION_38
POSITION_866160
NOTE_ON_74
DURATION_74
POSITION_866247
NOTE_ON_71
DURATION_45
POSITION_866371
NOTE_ON_57
DURATION_25
POSITION_866376
NOTE_ON_72
DURATION_58
POSITION_866497
NOTE_ON_81
DURATION_122
POSITION_866615
NOTE_ON_62
DURATION_33
POSITION_866616
NOTE_ON_79
DURATION_100
POSITION_866714
NOTE_ON_77
DURATION_45
POSITION_866838
NOTE_ON_79
DURATION_69
POSITION_866930
NOTE_ON_76
DURATION_140
POSITION_867177
NOTE_ON_62
DURATION_106
POSITION_867314
NOTE_ON_60
DURATION_87
POSITION_867430
NOTE_ON_59
DURATION_113
POSITION_867313
NOTE_ON_68
DURATION_255
POSITION_867545
NOTE_ON_60
DURATION_97
POSITION_867074
NOTE_ON_77
DURATION_581
POSITION_867689
NOTE_ON_57
DURATION_94
POSITION_867577
NOTE_ON_69
DURATION_270
POSITION_867790
NOTE_ON_54
DURATION_92
POSITION_867898
NOTE_ON_56
DURATION_44
POSITION_867976
NOTE_ON_57
DURATION_36
POSITION_867881
NOTE_ON_84
DURATION_152
POSITION_868004
NOTE_ON_83
DURATION_69
POSITION_868040
NOTE_ON_56
DURATION_40
POSITION_868108
NOTE_ON_57
DURATION_51
POSITION_868106
NOTE_ON_81
DURATION_131
POSITION_868217
NOTE_ON_54
DURATION_65
POSITION_868218
NOTE_ON_83
DURATION_84
POSITION_868313
NOTE_ON_74
DURATION_30
POSITION_868290
NOTE_ON_56
DURATION_63
POSITION_868402
NOTE_ON_57
DURATION_52
POSITION_868438
NOTE_ON_72
DURATION_58
POSITION_868538
NOTE_ON_83
DURATION_135
POSITION_868656
NOTE_ON_60
DURATION_31
POSITION_868657
NOTE_ON_81
DURATION_109
POSITION_868758
NOTE_ON_80
DURATION_50
POSITION_868872
NOTE_ON_64
DURATION_28
POSITION_868866
NOTE_ON_81
DURATION_175
POSITION_868974
NOTE_ON_72
DURATION_75
POSITION_869103
NOTE_ON_63
DURATION_38
POSITION_869102
NOTE_ON_71
DURATION_46
POSITION_869200
NOTE_ON_81
DURATION_132
POSITION_869315
NOTE_ON_71
DURATION_27
POSITION_869315
NOTE_ON_79
DURATION_83
POSITION_869416
NOTE_ON_78
DURATION_42
POSITION_869525
NOTE_ON_64
DURATION_34
POSITION_869532
NOTE_ON_79
DURATION_79
POSITION_869634
NOTE_ON_71
DURATION_46
POSITION_869785
NOTE_ON_69
DURATION_55
POSITION_869785
NOTE_ON_72
DURATION_101
POSITION_869896
NOTE_ON_71
DURATION_114
POSITION_869901
NOTE_ON_79
DURATION_123
POSITION_870012
NOTE_ON_69
DURATION_51
POSITION_870007
NOTE_ON_78
DURATION_59
POSITION_870138
NOTE_ON_67
DURATION_59
POSITION_870108
NOTE_ON_76
DURATION_155
POSITION_870214
NOTE_ON_69
DURATION_86
POSITION_870224
NOTE_ON_78
DURATION_112
POSITION_870338
NOTE_ON_66
DURATION_54
POSITION_870325
NOTE_ON_81
DURATION_120
POSITION_870453
NOTE_ON_75
DURATION_74
POSITION_870483
NOTE_ON_71
DURATION_84
POSITION_870565
NOTE_ON_76
DURATION_37
POSITION_870600
NOTE_ON_69
DURATION_66
POSITION_870654
NOTE_ON_78
DURATION_32
POSITION_870702
NOTE_ON_67
DURATION_48
POSITION_870762
NOTE_ON_66
DURATION_34
POSITION_870706
NOTE_ON_76
DURATION_136
POSITION_870845
NOTE_ON_78
DURATION_40
POSITION_870846
NOTE_ON_67
DURATION_40
POSITION_870905
NOTE_ON_76
DURATION_45
POSITION_870970
NOTE_ON_75
DURATION_33
POSITION_870969
NOTE_ON_64
DURATION_38
POSITION_871102
NOTE_ON_78
DURATION_29
POSITION_871077
NOTE_ON_63
DURATION_73
POSITION_871206
NOTE_ON_76
DURATION_101
POSITION_871315
NOTE_ON_66
DURATION_30
POSITION_871311
NOTE_ON_78
DURATION_115
POSITION_871415
NOTE_ON_81
DURATION_165
POSITION_871548
NOTE_ON_59
DURATION_36
POSITION_871555
NOTE_ON_79
DURATION_122
POSITION_871675
NOTE_ON_78
DURATION_41
POSITION_871558
NOTE_ON_71
DURATION_590
POSITION_871844
NOTE_ON_76
DURATION_312
POSITION_872139
NOTE_ON_69
DURATION_31
POSITION_871853
NOTE_ON_60
DURATION_418
POSITION_872235
NOTE_ON_57
DURATION_108
POSITION_872350
NOTE_ON_54
DURATION_78
POSITION_872127
NOTE_ON_81
DURATION_313
POSITION_872434
NOTE_ON_51
DURATION_34
POSITION_872571
NOTE_ON_59
DURATION_41
POSITION_872572
NOTE_ON_63
DURATION_48
POSITION_872657
NOTE_ON_81
DURATION_165
POSITION_872800
NOTE_ON_59
DURATION_33
POSITION_872797
NOTE_ON_52
DURATION_36
POSITION_872805
NOTE_ON_79
DURATION_103
POSITION_872916
NOTE_ON_78
DURATION_49
POSITION_873035
NOTE_ON_79
DURATION_85
POSITION_873037
NOTE_ON_64
DURATION_112
POSITION_873132
NOTE_ON_76
DURATION_118
POSITION_873273
NOTE_ON_45
DURATION_4
POSITION_873265
NOTE_ON_73
DURATION_86
POSITION_873366
NOTE_ON_75
DURATION_60
POSITION_873515
NOTE_ON_75
DURATION_115
POSITION_873468
NOTE_ON_76
DURATION_254
POSITION_873591
NOTE_ON_54
DURATION_135
POSITION_873262
NOTE_ON_57
DURATION_476
POSITION_873512
NOTE_ON_66
DURATION_233
POSITION_873635
NOTE_ON_75
DURATION_180
POSITION_873706
NOTE_ON_51
DURATION_120
POSITION_873747
NOTE_ON_73
DURATION_85
POSITION_873822
NOTE_ON_75
DURATION_57
POSITION_873787
NOTE_ON_47
DURATION_108
POSITION_873934
NOTE_ON_59
DURATION_73
POSITION_873938
NOTE_ON_55
DURATION_95
POSITION_874003
NOTE_ON_75
DURATION_34
POSITION_873938
NOTE_ON_76
DURATION_109
POSITION_874042
NOTE_ON_54
DURATION_107
POSITION_874149
NOTE_ON_79
DURATION_11
POSITION_874154
NOTE_ON_55
DURATION_68
POSITION_874152
NOTE_ON_76
DURATION_90
POSITION_874042
NOTE_ON_75
DURATION_218
POSITION_874248
NOTE_ON_79
DURATION_70
POSITION_874248
NOTE_ON_59
DURATION_81
POSITION_874359
NOTE_ON_51
DURATION_103
POSITION_874363
NOTE_ON_78
DURATION_120
POSITION_874467
NOTE_ON_81
DURATION_56
POSITION_874465
NOTE_ON_54
DURATION_59
POSITION_874593
NOTE_ON_52
DURATION_108
POSITION_874593
NOTE_ON_79
DURATION_109
POSITION_874693
NOTE_ON_78
DURATION_32
POSITION_874816
NOTE_ON_59
DURATION_47
POSITION_874812
NOTE_ON_79
DURATION_70
POSITION_874901
NOTE_ON_83
DURATION_78
POSITION_875023
NOTE_ON_60
DURATION_26
POSITION_875023
NOTE_ON_76
DURATION_92
POSITION_875132
NOTE_ON_80
DURATION_59
POSITION_875231
NOTE_ON_54
DURATION_77
POSITION_875334
NOTE_ON_80
DURATION_102
POSITION_875232
NOTE_ON_81
DURATION_211
POSITION_875453
NOTE_ON_60
DURATION_40
POSITION_875447
NOTE_ON_81
DURATION_53
POSITION_875541
NOTE_ON_84
DURATION_92
POSITION_875663
NOTE_ON_78
DURATION_39
POSITION_875662
NOTE_ON_62
DURATION_43
POSITION_875763
NOTE_ON_81
DURATION_126
POSITION_875877
NOTE_ON_56
DURATION_103
POSITION_875878
NOTE_ON_83
DURATION_107
POSITION_875974
NOTE_ON_81
DURATION_118
POSITION_876093
NOTE_ON_62
DURATION_39
POSITION_876093
NOTE_ON_83
DURATION_113
POSITION_876198
NOTE_ON_86
DURATION_76
POSITION_876308
NOTE_ON_64
DURATION_46
POSITION_876306
NOTE_ON_80
DURATION_50
POSITION_876398
NOTE_ON_83
DURATION_84
POSITION_876536
NOTE_ON_84
DURATION_138
POSITION_876536
NOTE_ON_57
DURATION_189
POSITION_876645
NOTE_ON_83
DURATION_154
POSITION_876761
NOTE_ON_81
DURATION_104
POSITION_876860
NOTE_ON_80
DURATION_58
POSITION_876768
NOTE_ON_59
DURATION_196
POSITION_876969
NOTE_ON_81
DURATION_110
POSITION_877075
NOTE_ON_76
DURATION_38
POSITION_877241
NOTE_ON_69
DURATION_39
POSITION_877237
NOTE_ON_77
DURATION_44
POSITION_876988
NOTE_ON_60
DURATION_554
POSITION_877523
NOTE_ON_74
DURATION_111
POSITION_877543
NOTE_ON_59
DURATION_213
POSITION_877634
NOTE_ON_86
DURATION_126
POSITION_877756
NOTE_ON_57
DURATION_34
POSITION_877840
NOTE_ON_80
DURATION_63
POSITION_877748
NOTE_ON_83
DURATION_156
POSITION_877957
NOTE_ON_56
DURATION_36
POSITION_877954
NOTE_ON_76
DURATION_62
POSITION_878050
NOTE_ON_74
DURATION_50
POSITION_878173
NOTE_ON_57
DURATION_31
POSITION_878180
NOTE_ON_72
DURATION_27
POSITION_878284
NOTE_ON_71
DURATION_44
POSITION_878384
NOTE_ON_72
DURATION_51
POSITION_878490
NOTE_ON_69
DURATION_41
POSITION_878172
NOTE_ON_81
DURATION_373
POSITION_878632
NOTE_ON_66
DURATION_91
POSITION_878727
NOTE_ON_68
DURATION_53
POSITION_878804
NOTE_ON_69
DURATION_79
POSITION_878862
NOTE_ON_68
DURATION_45
POSITION_878995
NOTE_ON_69
DURATION_11
POSITION_878934
NOTE_ON_83
DURATION_105
POSITION_878619
NOTE_ON_74
DURATION_426
POSITION_878991
NOTE_ON_68
DURATION_115
POSITION_879030
NOTE_ON_80
DURATION_90
POSITION_879070
NOTE_ON_66
DURATION_59
POSITION_879145
NOTE_ON_68
DURATION_61
POSITION_879119
NOTE_ON_76
DURATION_141
POSITION_879240
NOTE_ON_72
DURATION_39
POSITION_879262
NOTE_ON_69
DURATION_59
POSITION_879359
NOTE_ON_68
DURATION_123
POSITION_879459
NOTE_ON_72
DURATION_30
POSITION_879460
NOTE_ON_69
DURATION_31
POSITION_879456
NOTE_ON_76
DURATION_38
POSITION_879553
NOTE_ON_71
DURATION_67
POSITION_879671
NOTE_ON_72
DURATION_34
POSITION_879670
NOTE_ON_81
DURATION_38
POSITION_879789
NOTE_ON_69
DURATION_70
POSITION_879901
NOTE_ON_74
DURATION_38
POSITION_879908
NOTE_ON_71
DURATION_78
POSITION_880028
NOTE_ON_69
DURATION_148
POSITION_880162
NOTE_ON_79
DURATION_41
POSITION_880256
NOTE_ON_73
DURATION_70
POSITION_880361
NOTE_ON_74
DURATION_49
POSITION_880467
NOTE_ON_71
DURATION_64
POSITION_880576
NOTE_ON_73
DURATION_31
POSITION_880683
NOTE_ON_79
DURATION_60
POSITION_880794
NOTE_ON_69
DURATION_29
POSITION_880791
NOTE_ON_78
DURATION_32
POSITION_880891
NOTE_ON_76
DURATION_95
POSITION_881006
NOTE_ON_74
DURATION_30
POSITION_881002
NOTE_ON_78
DURATION_34
POSITION_881108
NOTE_ON_74
DURATION_49
POSITION_881235
NOTE_ON_71
DURATION_57
POSITION_881344
NOTE_ON_73
DURATION_34
POSITION_881348
NOTE_ON_69
DURATION_34
POSITION_881462
NOTE_ON_74
DURATION_30
POSITION_881464
NOTE_ON_67
DURATION_33
POSITION_881515
NOTE_ON_73
DURATION_30
POSITION_881558
NOTE_ON_66
DURATION_30
POSITION_881560
NOTE_ON_74
DURATION_39
POSITION_881630
NOTE_ON_67
DURATION_59
POSITION_881629
NOTE_ON_73
DURATION_83
POSITION_881751
NOTE_ON_71
DURATION_29
POSITION_881753
NOTE_ON_64
DURATION_30
POSITION_881798
NOTE_ON_73
DURATION_45
POSITION_881862
NOTE_ON_74
DURATION_29
POSITION_881862
NOTE_ON_66
DURATION_36
POSITION_881906
NOTE_ON_71
DURATION_34
POSITION_881983
NOTE_ON_67
DURATION_71
POSITION_882105
NOTE_ON_65
DURATION_43
POSITION_882142
NOTE_ON_71
DURATION_36
POSITION_882104
NOTE_ON_72
DURATION_82
POSITION_882192
NOTE_ON_72
DURATION_86
POSITION_882253
NOTE_ON_71
DURATION_29
POSITION_882198
NOTE_ON_64
DURATION_95
POSITION_882289
NOTE_ON_65
DURATION_49
POSITION_882288
NOTE_ON_72
DURATION_56
POSITION_882384
NOTE_ON_69
DURATION_37
POSITION_882350
NOTE_ON_71
DURATION_74
POSITION_882431
NOTE_ON_71
DURATION_49
POSITION_882385
NOTE_ON_62
DURATION_103
POSITION_882489
NOTE_ON_64
DURATION_57
POSITION_882485
NOTE_ON_72
DURATION_73
POSITION_882598
NOTE_ON_66
DURATION_52
POSITION_882597
NOTE_ON_74
DURATION_119
POSITION_882706
NOTE_ON_72
DURATION_37
POSITION_882700
NOTE_ON_67
DURATION_46
POSITION_882629
NOTE_ON_69
DURATION_148
POSITION_882751
NOTE_ON_66
DURATION_38
POSITION_882819
NOTE_ON_67
DURATION_30
POSITION_882816
NOTE_ON_71
DURATION_51
POSITION_882873
NOTE_ON_66
DURATION_54
POSITION_882902
NOTE_ON_72
DURATION_32
POSITION_882939
NOTE_ON_64
DURATION_64
POSITION_882999
NOTE_ON_69
DURATION_62
POSITION_883023
NOTE_ON_66
DURATION_46
POSITION_883110
NOTE_ON_71
DURATION_53
POSITION_883227
NOTE_ON_69
DURATION_88
POSITION_883111
NOTE_ON_67
DURATION_304
POSITION_883332
NOTE_ON_71
DURATION_87
POSITION_883427
NOTE_ON_72
DURATION_91
POSITION_883536
NOTE_ON_50
DURATION_26
POSITION_883662
NOTE_ON_66
DURATION_82
POSITION_883541
NOTE_ON_74
DURATION_272
POSITION_883818
NOTE_ON_67
DURATION_74
POSITION_883815
NOTE_ON_52
DURATION_333
POSITION_883944
NOTE_ON_64
DURATION_212
POSITION_884068
NOTE_ON_72
DURATION_103
POSITION_884166
NOTE_ON_69
DURATION_53
POSITION_884164
NOTE_ON_48
DURATION_100
POSITION_884270
NOTE_ON_45
DURATION_83
POSITION_884270
NOTE_ON_67
DURATION_86
POSITION_884356
NOTE_ON_69
DURATION_54
POSITION_884355
NOTE_ON_42
DURATION_62
POSITION_884460
NOTE_ON_50
DURATION_28
POSITION_884463
NOTE_ON_66
DURATION_91
POSITION_884568
NOTE_ON_72
DURATION_137
POSITION_884692
NOTE_ON_43
DURATION_32
POSITION_884694
NOTE_ON_71
DURATION_95
POSITION_884787
NOTE_ON_50
DURATION_10
POSITION_884792
NOTE_ON_69
DURATION_50
POSITION_884717
NOTE_ON_62
DURATION_164
POSITION_884916
NOTE_ON_71
DURATION_96
POSITION_884914
NOTE_ON_55
DURATION_166
POSITION_885016
NOTE_ON_67
DURATION_70
POSITION_885147
NOTE_ON_64
DURATION_118
POSITION_885263
NOTE_ON_66
DURATION_60
POSITION_885362
NOTE_ON_67
DURATION_46
POSITION_885415
NOTE_ON_66
DURATION_45
POSITION_885141
NOTE_ON_48
DURATION_445
POSITION_885363
NOTE_ON_57
DURATION_233
POSITION_885531
NOTE_ON_66
DURATION_172
POSITION_885620
NOTE_ON_64
DURATION_140
POSITION_885589
NOTE_ON_42
DURATION_178
POSITION_885676
NOTE_ON_38
DURATION_94
POSITION_885709
NOTE_ON_66
DURATION_62
POSITION_885468
NOTE_ON_45
DURATION_312
POSITION_885807
NOTE_ON_50
DURATION_63
POSITION_885807
NOTE_ON_47
DURATION_123
POSITION_885813
NOTE_ON_67
DURATION_118
POSITION_885937
NOTE_ON_45
DURATION_108
POSITION_886060
NOTE_ON_47
DURATION_51
POSITION_886061
NOTE_ON_74
DURATION_80
POSITION_886166
NOTE_ON_50
DURATION_58
POSITION_886270
NOTE_ON_43
DURATION_86
POSITION_886367
NOTE_ON_47
DURATION_78
POSITION_886268
NOTE_ON_76
DURATION_204
POSITION_886475
NOTE_ON_69
DURATION_39
POSITION_886470
NOTE_ON_48
DURATION_89
POSITION_886573
NOTE_ON_47
DURATION_109
POSITION_886687
NOTE_ON_76
DURATION_49
POSITION_886675
NOTE_ON_48
DURATION_62
POSITION_886774
NOTE_ON_52
DURATION_101
POSITION_886895
NOTE_ON_78
DURATION_41
POSITION_886895
NOTE_ON_57
DURATION_58
POSITION_886973
NOTE_ON_48
DURATION_94
POSITION_887120
NOTE_ON_71
DURATION_46
POSITION_887089
NOTE_ON_50
DURATION_103
POSITION_887224
NOTE_ON_48
DURATION_87
POSITION_887321
NOTE_ON_78
DURATION_44
POSITION_887321
NOTE_ON_50
DURATION_53
POSITION_887421
NOTE_ON_54
DURATION_61
POSITION_887543
NOTE_ON_47
DURATION_278
POSITION_887541
NOTE_ON_79
DURATION_283
POSITION_887657
NOTE_ON_50
DURATION_168
POSITION_887780
NOTE_ON_52
DURATION_48
POSITION_887929
NOTE_ON_71
DURATION_144
POSITION_888035
NOTE_ON_48
DURATION_40
POSITION_887803
NOTE_ON_72
DURATION_281
POSITION_888038
NOTE_ON_69
DURATION_66
POSITION_888141
NOTE_ON_67
DURATION_77
POSITION_888240
NOTE_ON_57
DURATION_36
POSITION_888239
NOTE_ON_69
DURATION_47
POSITION_888240
NOTE_ON_45
DURATION_47
POSITION_888352
NOTE_ON_64
DURATION_139
POSITION_888473
NOTE_ON_50
DURATION_38
POSITION_888684
NOTE_ON_54
DURATION_34
POSITION_888604
NOTE_ON_74
DURATION_130
POSITION_888708
NOTE_ON_72
DURATION_110
POSITION_888478
NOTE_ON_66
DURATION_351
POSITION_888812
NOTE_ON_71
DURATION_98
POSITION_888903
NOTE_ON_50
DURATION_41
POSITION_888925
NOTE_ON_72
DURATION_84
POSITION_889016
NOTE_ON_69
DURATION_48
POSITION_889125
NOTE_ON_55
DURATION_32
POSITION_889126
NOTE_ON_71
DURATION_61
POSITION_889242
NOTE_ON_69
DURATION_36
POSITION_889334
NOTE_ON_52
DURATION_37
POSITION_889355
NOTE_ON_67
DURATION_34
POSITION_889462
NOTE_ON_66
DURATION_76
POSITION_889562
NOTE_ON_57
DURATION_28
POSITION_889564
NOTE_ON_67
DURATION_54
POSITION_889354
NOTE_ON_73
DURATION_357
POSITION_889673
NOTE_ON_64
DURATION_68
POSITION_889800
NOTE_ON_66
DURATION_47
POSITION_889798
NOTE_ON_50
DURATION_59
POSITION_889886
NOTE_ON_52
DURATION_61
POSITION_889792
NOTE_ON_74
DURATION_254
POSITION_890006
NOTE_ON_69
DURATION_47
POSITION_889985
NOTE_ON_50
DURATION_100
POSITION_890086
NOTE_ON_48
DURATION_98
POSITION_890219
NOTE_ON_62
DURATION_46
POSITION_890209
NOTE_ON_47
DURATION_58
POSITION_890321
NOTE_ON_45
DURATION_108
POSITION_890319
NOTE_ON_57
DURATION_138
POSITION_890475
NOTE_ON_64
DURATION_170
POSITION_890462
NOTE_ON_43
DURATION_261
POSITION_890218
NOTE_ON_74
DURATION_669
POSITION_890583
NOTE_ON_71
DURATION_327
POSITION_890799
NOTE_ON_60
DURATION_126
POSITION_890712
NOTE_ON_48
DURATION_216
POSITION_890710
NOTE_ON_67
DURATION_239
POSITION_890901
NOTE_ON_57
DURATION_105
POSITION_891004
NOTE_ON_54
DURATION_50
POSITION_891114
NOTE_ON_62
DURATION_36
POSITION_891115
NOTE_ON_66
DURATION_38
POSITION_891119
NOTE_ON_57
DURATION_35
POSITION_891138
NOTE_ON_45
DURATION_38
POSITION_891257
NOTE_ON_48
DURATION_73
POSITION_891378
NOTE_ON_47
DURATION_40
POSITION_891480
NOTE_ON_45
DURATION_95
POSITION_891349
NOTE_ON_55
DURATION_260
POSITION_891613
NOTE_ON_59
DURATION_4
POSITION_891612
NOTE_ON_47
DURATION_110
POSITION_891730
NOTE_ON_43
DURATION_82
POSITION_891820
NOTE_ON_40
DURATION_193
POSITION_891606
NOTE_ON_67
DURATION_413
POSITION_891812
NOTE_ON_60
DURATION_208
POSITION_891860
NOTE_ON_66
DURATION_160
POSITION_891913
NOTE_ON_42
DURATION_142
POSITION_892064
NOTE_ON_42
DURATION_45
POSITION_892027
NOTE_ON_62
DURATION_91
POSITION_891997
NOTE_ON_43
DURATION_134
POSITION_891933
NOTE_ON_64
DURATION_221
POSITION_892142
NOTE_ON_43
DURATION_77
POSITION_892112
NOTE_ON_57
DURATION_110
POSITION_892220
NOTE_ON_54
DURATION_180
POSITION_892287
NOTE_ON_40
DURATION_116
POSITION_892202
NOTE_ON_42
DURATION_204
POSITION_892296
NOTE_ON_50
DURATION_111
POSITION_892435
NOTE_ON_43
DURATION_36
POSITION_892684
NOTE_ON_31
DURATION_77
POSITION_892689
NOTE_ON_62
DURATION_203
POSITION_892435
NOTE_ON_59
DURATION_510
POSITION_892774
NOTE_ON_65
DURATION_179
POSITION_892913
NOTE_ON_43
DURATION_44
POSITION_892558
NOTE_ON_60
DURATION_426
POSITION_892924
NOTE_ON_64
DURATION_90
POSITION_893018
NOTE_ON_67
DURATION_124
POSITION_893166
NOTE_ON_60
DURATION_42
POSITION_893140
NOTE_ON_45
DURATION_69
POSITION_893170
NOTE_ON_65
DURATION_106
POSITION_893253
NOTE_ON_47
DURATION_46
POSITION_893256
NOTE_ON_67
DURATION_44
POSITION_893374
NOTE_ON_47
DURATION_36
POSITION_893379
NOTE_ON_65
DURATION_32
POSITION_893379
NOTE_ON_62
DURATION_119
POSITION_893455
NOTE_ON_48
DURATION_62
POSITION_893584
NOTE_ON_48
DURATION_7
POSITION_893474
NOTE_ON_64
DURATION_132
POSITION_893525
NOTE_ON_47
DURATION_85
POSITION_893584
NOTE_ON_65
DURATION_60
POSITION_893650
NOTE_ON_57
DURATION_59
POSITION_893649
NOTE_ON_45
DURATION_95
POSITION_893739
NOTE_ON_47
DURATION_53
POSITION_893679
NOTE_ON_62
DURATION_117
POSITION_893802
NOTE_ON_48
DURATION_31
POSITION_893802
NOTE_ON_55
DURATION_50
POSITION_893803
NOTE_ON_64
DURATION_107
POSITION_893915
NOTE_ON_69
DURATION_60
POSITION_894013
NOTE_ON_52
DURATION_36
POSITION_894024
NOTE_ON_50
DURATION_62
POSITION_894024
NOTE_ON_67
DURATION_85
POSITION_894105
NOTE_ON_49
DURATION_73
POSITION_894125
NOTE_ON_66
DURATION_88
POSITION_894161
NOTE_ON_50
DURATION_59
POSITION_894239
NOTE_ON_49
DURATION_71
POSITION_894239
NOTE_ON_67
DURATION_98
POSITION_894324
NOTE_ON_47
DURATION_77
POSITION_894297
NOTE_ON_50
DURATION_108
POSITION_894398
NOTE_ON_49
DURATION_79
POSITION_894344
NOTE_ON_64
DURATION_137
POSITION_894457
NOTE_ON_50
DURATION_27
POSITION_894479
NOTE_ON_57
DURATION_54
POSITION_894473
NOTE_ON_66
DURATION_134
POSITION_894599
NOTE_ON_71
DURATION_101
POSITION_894709
NOTE_ON_69
DURATION_126
POSITION_894700
NOTE_ON_54
DURATION_138
POSITION_894805
NOTE_ON_51
DURATION_42
POSITION_894812
NOTE_ON_67
DURATION_74
POSITION_894708
NOTE_ON_52
DURATION_214
POSITION_894929
NOTE_ON_51
DURATION_48
POSITION_895091
NOTE_ON_63
DURATION_5
POSITION_894985
NOTE_ON_52
DURATION_165
POSITION_895094
NOTE_ON_51
DURATION_68
POSITION_895045
NOTE_ON_49
DURATION_118
POSITION_895038
NOTE_ON_66
DURATION_125
POSITION_894928
NOTE_ON_69
DURATION_268
POSITION_895160
NOTE_ON_67
DURATION_110
POSITION_895159
NOTE_ON_52
DURATION_121
POSITION_895269
NOTE_ON_62
DURATION_59
POSITION_895269
NOTE_ON_54
DURATION_66
POSITION_895406
NOTE_ON_60
DURATION_60
POSITION_895440
NOTE_ON_54
DURATION_44
POSITION_895375
NOTE_ON_55
DURATION_128
POSITION_895519
NOTE_ON_59
DURATION_63
POSITION_895513
NOTE_ON_55
DURATION_76
POSITION_895586
NOTE_ON_54
DURATION_62
POSITION_895654
NOTE_ON_60
DURATION_69
POSITION_895656
NOTE_ON_55
DURATION_85
POSITION_895729
NOTE_ON_54
DURATION_143
POSITION_895801
NOTE_ON_52
DURATION_153
POSITION_895878
NOTE_ON_54
DURATION_76
POSITION_895773
NOTE_ON_57
DURATION_183
POSITION_895401
NOTE_ON_69
DURATION_557
POSITION_895966
NOTE_ON_55
DURATION_50
POSITION_895964
NOTE_ON_59
DURATION_193
POSITION_896321
NOTE_ON_35
DURATION_46
POSITION_896319
NOTE_ON_47
DURATION_50
POSITION_896321
NOTE_ON_67
DURATION_69
POSITION_896440
NOTE_ON_71
DURATION_73
POSITION_896164
NOTE_ON_62
DURATION_368
POSITION_896581
NOTE_ON_50
DURATION_62
POSITION_896582
NOTE_ON_38
DURATION_65
POSITION_896583
NOTE_ON_69
DURATION_133
POSITION_896712
NOTE_ON_66
DURATION_110
POSITION_896905
NOTE_ON_60
DURATION_994
POSITION_896906
NOTE_ON_66
DURATION_1162
POSITION_896905
NOTE_ON_31
DURATION_1329
POSITION_896904
NOTE_ON_43
DURATION_1333
POSITION_897521
NOTE_ON_67
DURATION_717
POSITION_897526
NOTE_ON_59
DURATION_713
POSITION_901398
NOTE_ON_74
DURATION_68
POSITION_901473
NOTE_ON_72
DURATION_55
POSITION_901546
NOTE_ON_71
DURATION_46
POSITION_901626
NOTE_ON_69
DURATION_41
POSITION_901701
NOTE_ON_67
DURATION_35
POSITION_902081
NOTE_ON_62
DURATION_31
POSITION_902088
NOTE_ON_59
DURATION_28
POSITION_902089
NOTE_ON_55
DURATION_49
POSITION_902459
NOTE_ON_64
DURATION_32
POSITION_902464
NOTE_ON_60
DURATION_28
POSITION_902465
NOTE_ON_55
DURATION_50
POSITION_902865
NOTE_ON_62
DURATION_37
POSITION_902871
NOTE_ON_59
DURATION_37
POSITION_902872
NOTE_ON_55
DURATION_38
POSITION_903618
NOTE_ON_74
DURATION_56
POSITION_903689
NOTE_ON_72
DURATION_68
POSITION_903782
NOTE_ON_71
DURATION_54
POSITION_903858
NOTE_ON_69
DURATION_51
POSITION_903939
NOTE_ON_67
DURATION_61
POSITION_904014
NOTE_ON_66
DURATION_88
POSITION_904097
NOTE_ON_64
DURATION_73
POSITION_904171
NOTE_ON_62
DURATION_72
POSITION_904255
NOTE_ON_60
DURATION_83
POSITION_904330
NOTE_ON_59
DURATION_89
POSITION_904413
NOTE_ON_57
DURATION_64
POSITION_904478
NOTE_ON_55
DURATION_51
POSITION_904599
NOTE_ON_31
DURATION_5
POSITION_904582
NOTE_ON_60
DURATION_38
POSITION_904581
NOTE_ON_54
DURATION_39
POSITION_904589
NOTE_ON_50
DURATION_34
POSITION_904599
NOTE_ON_43
DURATION_33
POSITION_905030
NOTE_ON_59
DURATION_35
POSITION_905031
NOTE_ON_43
DURATION_35
POSITION_905036
NOTE_ON_55
DURATION_32
POSITION_905030
NOTE_ON_31
DURATION_38
POSITION_905875
NOTE_ON_55
DURATION_41
POSITION_905946
NOTE_ON_59
DURATION_76
POSITION_906029
NOTE_ON_60
DURATION_69
POSITION_906110
NOTE_ON_62
DURATION_50
POSITION_906197
NOTE_ON_64
DURATION_56
POSITION_906280
NOTE_ON_66
DURATION_64
POSITION_906368
NOTE_ON_67
DURATION_43
POSITION_906457
NOTE_ON_69
DURATION_36
POSITION_906528
NOTE_ON_71
DURATION_52
POSITION_906611
NOTE_ON_72
DURATION_63
POSITION_906697
NOTE_ON_74
DURATION_59
POSITION_906772
NOTE_ON_76
DURATION_35
POSITION_906858
NOTE_ON_54
DURATION_46
POSITION_906926
NOTE_ON_57
DURATION_72
POSITION_907012
NOTE_ON_59
DURATION_72
POSITION_907089
NOTE_ON_60
DURATION_67
POSITION_907182
NOTE_ON_62
DURATION_41
POSITION_907252
NOTE_ON_64
DURATION_60
POSITION_907333
NOTE_ON_66
DURATION_69
POSITION_907420
NOTE_ON_67
DURATION_47
POSITION_907505
NOTE_ON_69
DURATION_44
POSITION_907586
NOTE_ON_71
DURATION_64
POSITION_907673
NOTE_ON_72
DURATION_66
POSITION_907759
NOTE_ON_74
DURATION_34
POSITION_907839
NOTE_ON_52
DURATION_42
POSITION_907933
NOTE_ON_55
DURATION_74
POSITION_908016
NOTE_ON_57
DURATION_79
POSITION_908092
NOTE_ON_59
DURATION_68
POSITION_908189
NOTE_ON_60
DURATION_82
POSITION_908264
NOTE_ON_62
DURATION_70
POSITION_908350
NOTE_ON_64
DURATION_61
POSITION_908426
NOTE_ON_66
DURATION_47
POSITION_908500
NOTE_ON_67
DURATION_67
POSITION_908577
NOTE_ON_69
DURATION_47
POSITION_908661
NOTE_ON_71
DURATION_53
POSITION_908739
NOTE_ON_72
DURATION_38
POSITION_908832
NOTE_ON_50
DURATION_115
POSITION_908931
NOTE_ON_72
DURATION_66
POSITION_909009
NOTE_ON_69
DURATION_87
POSITION_909093
NOTE_ON_66
DURATION_72
POSITION_909171
NOTE_ON_62
DURATION_39
POSITION_909252
NOTE_ON_57
DURATION_78
POSITION_909337
NOTE_ON_54
DURATION_87
POSITION_909422
NOTE_ON_50
DURATION_61
POSITION_909503
NOTE_ON_38
DURATION_36
POSITION_909592
NOTE_ON_60
DURATION_86
POSITION_909678
NOTE_ON_59
DURATION_76
POSITION_909762
NOTE_ON_57
DURATION_81
POSITION_909865
NOTE_ON_55
DURATION_149
POSITION_909953
NOTE_ON_71
DURATION_74
POSITION_910034
NOTE_ON_67
DURATION_76
POSITION_910111
NOTE_ON_66
DURATION_102
POSITION_910191
NOTE_ON_62
DURATION_67
POSITION_910258
NOTE_ON_59
DURATION_40
POSITION_910355
NOTE_ON_55
DURATION_63
POSITION_910430
NOTE_ON_50
DURATION_69
POSITION_910516
NOTE_ON_43
DURATION_75
POSITION_910593
NOTE_ON_54
DURATION_67
POSITION_910676
NOTE_ON_52
DURATION_88
POSITION_910774
NOTE_ON_50
DURATION_78
POSITION_910862
NOTE_ON_49
DURATION_76
POSITION_910931
NOTE_ON_71
DURATION_93
POSITION_911021
NOTE_ON_67
DURATION_103
POSITION_911098
NOTE_ON_64
DURATION_76
POSITION_911176
NOTE_ON_61
DURATION_37
POSITION_911249
NOTE_ON_55
DURATION_72
POSITION_911327
NOTE_ON_52
DURATION_84
POSITION_911418
NOTE_ON_49
DURATION_57
POSITION_911502
NOTE_ON_37
DURATION_35
POSITION_911586
NOTE_ON_59
DURATION_63
POSITION_911665
NOTE_ON_57
DURATION_76
POSITION_911742
NOTE_ON_55
DURATION_95
POSITION_911921
NOTE_ON_69
DURATION_49
POSITION_911837
NOTE_ON_54
DURATION_157
POSITION_911996
NOTE_ON_66
DURATION_108
POSITION_912078
NOTE_ON_64
DURATION_93
POSITION_912154
NOTE_ON_61
DURATION_64
POSITION_912228
NOTE_ON_57
DURATION_45
POSITION_912302
NOTE_ON_54
DURATION_85
POSITION_912387
NOTE_ON_49
DURATION_84
POSITION_912470
NOTE_ON_42
DURATION_80
POSITION_912556
NOTE_ON_52
DURATION_61
POSITION_912633
NOTE_ON_50
DURATION_56
POSITION_912719
NOTE_ON_49
DURATION_60
POSITION_912889
NOTE_ON_69
DURATION_56
POSITION_912809
NOTE_ON_47
DURATION_223
POSITION_912983
NOTE_ON_66
DURATION_87
POSITION_913058
NOTE_ON_62
DURATION_66
POSITION_913135
NOTE_ON_59
DURATION_42
POSITION_913223
NOTE_ON_54
DURATION_86
POSITION_913309
NOTE_ON_50
DURATION_87
POSITION_913402
NOTE_ON_47
DURATION_68
POSITION_913463
NOTE_ON_35
DURATION_38
POSITION_913547
NOTE_ON_57
DURATION_79
POSITION_913629
NOTE_ON_55
DURATION_85
POSITION_913716
NOTE_ON_54
DURATION_85
POSITION_913808
NOTE_ON_52
DURATION_99
POSITION_913908
NOTE_ON_67
DURATION_78
POSITION_913988
NOTE_ON_64
DURATION_87
POSITION_914068
NOTE_ON_62
DURATION_86
POSITION_914148
NOTE_ON_59
DURATION_67
POSITION_914216
NOTE_ON_55
DURATION_45
POSITION_914284
NOTE_ON_52
DURATION_77
POSITION_914371
NOTE_ON_47
DURATION_71
POSITION_914464
NOTE_ON_40
DURATION_66
POSITION_914549
NOTE_ON_50
DURATION_65
POSITION_914622
NOTE_ON_49
DURATION_72
POSITION_914695
NOTE_ON_47
DURATION_95
POSITION_914798
NOTE_ON_45
DURATION_130
POSITION_914874
NOTE_ON_67
DURATION_64
POSITION_914961
NOTE_ON_64
DURATION_82
POSITION_915037
NOTE_ON_61
DURATION_70
POSITION_915109
NOTE_ON_57
DURATION_36
POSITION_915197
NOTE_ON_52
DURATION_84
POSITION_915272
NOTE_ON_49
DURATION_73
POSITION_915367
NOTE_ON_45
DURATION_53
POSITION_915425
NOTE_ON_33
DURATION_43
POSITION_915520
NOTE_ON_55
DURATION_93
POSITION_915616
NOTE_ON_54
DURATION_67
POSITION_915690
NOTE_ON_52
DURATION_96
POSITION_915796
NOTE_ON_52
DURATION_5
POSITION_915798
NOTE_ON_50
DURATION_138
POSITION_915874
NOTE_ON_57
DURATION_85
POSITION_915950
NOTE_ON_59
DURATION_94
POSITION_916028
NOTE_ON_61
DURATION_81
POSITION_916112
NOTE_ON_62
DURATION_78
POSITION_916198
NOTE_ON_64
DURATION_84
POSITION_916275
NOTE_ON_65
DURATION_75
POSITION_916348
NOTE_ON_62
DURATION_57
POSITION_916428
NOTE_ON_56
DURATION_60
POSITION_916512
NOTE_ON_65
DURATION_77
POSITION_916596
NOTE_ON_64
DURATION_61
POSITION_916674
NOTE_ON_62
DURATION_38
POSITION_916763
NOTE_ON_61
DURATION_72
POSITION_916840
NOTE_ON_62
DURATION_67
POSITION_916920
NOTE_ON_64
DURATION_68
POSITION_917002
NOTE_ON_65
DURATION_63
POSITION_917081
NOTE_ON_67
DURATION_66
POSITION_917158
NOTE_ON_69
DURATION_45
POSITION_917242
NOTE_ON_70
DURATION_54
POSITION_917321
NOTE_ON_67
DURATION_41
POSITION_917411
NOTE_ON_77
DURATION_90
POSITION_917492
NOTE_ON_76
DURATION_96
POSITION_917575
NOTE_ON_74
DURATION_58
POSITION_917644
NOTE_ON_73
DURATION_60
POSITION_917749
NOTE_ON_81
DURATION_86
POSITION_917841
NOTE_ON_79
DURATION_69
POSITION_917917
NOTE_ON_78
DURATION_63
POSITION_917995
NOTE_ON_76
DURATION_42
POSITION_918094
NOTE_ON_74
DURATION_24
POSITION_918487
NOTE_ON_69
DURATION_35
POSITION_918492
NOTE_ON_66
DURATION_32
POSITION_918493
NOTE_ON_62
DURATION_34
POSITION_918888
NOTE_ON_71
DURATION_34
POSITION_918891
NOTE_ON_62
DURATION_33
POSITION_918889
NOTE_ON_67
DURATION_37
POSITION_919292
NOTE_ON_69
DURATION_39
POSITION_919298
NOTE_ON_66
DURATION_39
POSITION_919299
NOTE_ON_62
DURATION_40
POSITION_920099
NOTE_ON_81
DURATION_75
POSITION_920190
NOTE_ON_79
DURATION_67
POSITION_920272
NOTE_ON_78
DURATION_65
POSITION_920344
NOTE_ON_76
DURATION_65
POSITION_920429
NOTE_ON_74
DURATION_68
POSITION_920503
NOTE_ON_73
DURATION_70
POSITION_920585
NOTE_ON_71
DURATION_70
POSITION_920662
NOTE_ON_69
DURATION_51
POSITION_920743
NOTE_ON_67
DURATION_62
POSITION_920815
NOTE_ON_66
DURATION_103
POSITION_920898
NOTE_ON_64
DURATION_67
POSITION_920975
NOTE_ON_62
DURATION_36
POSITION_921088
NOTE_ON_45
DURATION_5
POSITION_921069
NOTE_ON_64
DURATION_39
POSITION_921073
NOTE_ON_61
DURATION_37
POSITION_921070
NOTE_ON_67
DURATION_40
POSITION_921075
NOTE_ON_57
DURATION_37
POSITION_921080
NOTE_ON_50
DURATION_55
POSITION_921495
NOTE_ON_57
DURATION_33
POSITION_921495
NOTE_ON_62
DURATION_34
POSITION_921500
NOTE_ON_50
DURATION_29
POSITION_921489
NOTE_ON_66
DURATION_40
POSITION_921502
NOTE_ON_38
DURATION_33
POSITION_922234
NOTE_ON_43
DURATION_37
POSITION_922332
NOTE_ON_66
DURATION_54
POSITION_922413
NOTE_ON_55
DURATION_43
POSITION_922417
NOTE_ON_64
DURATION_41
POSITION_922496
NOTE_ON_66
DURATION_73
POSITION_922594
NOTE_ON_67
DURATION_83
POSITION_922670
NOTE_ON_66
DURATION_76
POSITION_922596
NOTE_ON_59
DURATION_156
POSITION_922764
NOTE_ON_55
DURATION_46
POSITION_922763
NOTE_ON_64
DURATION_53
POSITION_922847
NOTE_ON_66
DURATION_62
POSITION_922927
NOTE_ON_67
DURATION_49
POSITION_922935
NOTE_ON_52
DURATION_43
POSITION_923001
NOTE_ON_64
DURATION_51
POSITION_923099
NOTE_ON_49
DURATION_33
POSITION_923081
NOTE_ON_69
DURATION_81
POSITION_923172
NOTE_ON_71
DURATION_70
POSITION_923266
NOTE_ON_45
DURATION_35
POSITION_923266
NOTE_ON_57
DURATION_46
POSITION_923264
NOTE_ON_73
DURATION_87
POSITION_923348
NOTE_ON_67
DURATION_64
POSITION_923419
NOTE_ON_57
DURATION_35
POSITION_923425
NOTE_ON_66
DURATION_69
POSITION_923509
NOTE_ON_67
DURATION_62
POSITION_923601
NOTE_ON_69
DURATION_66
POSITION_923678
NOTE_ON_67
DURATION_64
POSITION_923601
NOTE_ON_61
DURATION_157
POSITION_923769
NOTE_ON_57
DURATION_47
POSITION_923767
NOTE_ON_66
DURATION_71
POSITION_923845
NOTE_ON_67
DURATION_61
POSITION_923918
NOTE_ON_69
DURATION_51
POSITION_923944
NOTE_ON_54
DURATION_39
POSITION_924000
NOTE_ON_66
DURATION_47
POSITION_924095
NOTE_ON_50
DURATION_47
POSITION_924095
NOTE_ON_71
DURATION_73
POSITION_924181
NOTE_ON_73
DURATION_79
POSITION_924268
NOTE_ON_47
DURATION_46
POSITION_924258
NOTE_ON_74
DURATION_85
POSITION_924338
NOTE_ON_69
DURATION_51
POSITION_924422
NOTE_ON_59
DURATION_37
POSITION_924421
NOTE_ON_67
DURATION_54
POSITION_924504
NOTE_ON_69
DURATION_65
POSITION_924604
NOTE_ON_71
DURATION_67
POSITION_924684
NOTE_ON_69
DURATION_57
POSITION_924604
NOTE_ON_62
DURATION_156
POSITION_924760
NOTE_ON_67
DURATION_61
POSITION_924775
NOTE_ON_59
DURATION_48
POSITION_924843
NOTE_ON_69
DURATION_53
POSITION_924928
NOTE_ON_55
DURATION_46
POSITION_924928
NOTE_ON_71
DURATION_53
POSITION_925013
NOTE_ON_67
DURATION_54
POSITION_925092
NOTE_ON_73
DURATION_36
POSITION_925097
NOTE_ON_52
DURATION_49
POSITION_925175
NOTE_ON_74
DURATION_87
POSITION_925251
NOTE_ON_49
DURATION_48
POSITION_925251
NOTE_ON_76
DURATION_101
POSITION_925339
NOTE_ON_71
DURATION_67
POSITION_925422
NOTE_ON_61
DURATION_29
POSITION_925422
NOTE_ON_69
DURATION_65
POSITION_925509
NOTE_ON_71
DURATION_62
POSITION_925597
NOTE_ON_73
DURATION_88
POSITION_925676
NOTE_ON_71
DURATION_61
POSITION_925596
NOTE_ON_64
DURATION_181
POSITION_925762
NOTE_ON_61
DURATION_43
POSITION_925758
NOTE_ON_69
DURATION_49
POSITION_925847
NOTE_ON_71
DURATION_65
POSITION_925928
NOTE_ON_57
DURATION_37
POSITION_925929
NOTE_ON_73
DURATION_44
POSITION_926002
NOTE_ON_69
DURATION_48
POSITION_926082
NOTE_ON_54
DURATION_49
POSITION_926084
NOTE_ON_74
DURATION_66
POSITION_926156
NOTE_ON_76
DURATION_44
POSITION_926248
NOTE_ON_50
DURATION_47
POSITION_926249
NOTE_ON_78
DURATION_77
POSITION_926336
NOTE_ON_62
DURATION_58
POSITION_926332
NOTE_ON_79
DURATION_80
POSITION_926412
NOTE_ON_61
DURATION_64
POSITION_926410
NOTE_ON_81
DURATION_128
POSITION_926502
NOTE_ON_62
DURATION_65
POSITION_926581
NOTE_ON_64
DURATION_66
POSITION_926664
NOTE_ON_62
DURATION_73
POSITION_926764
NOTE_ON_78
DURATION_38
POSITION_926758
NOTE_ON_61
DURATION_53
POSITION_926930
NOTE_ON_79
DURATION_38
POSITION_926926
NOTE_ON_59
DURATION_76
POSITION_927011
NOTE_ON_62
DURATION_58
POSITION_927092
NOTE_ON_81
DURATION_35
POSITION_927088
NOTE_ON_59
DURATION_61
POSITION_927174
NOTE_ON_57
DURATION_65
POSITION_927262
NOTE_ON_55
DURATION_47
POSITION_927264
NOTE_ON_83
DURATION_61
POSITION_927337
NOTE_ON_62
DURATION_51
POSITION_927330
NOTE_ON_81
DURATION_99
POSITION_927419
NOTE_ON_61
DURATION_53
POSITION_927418
NOTE_ON_83
DURATION_65
POSITION_927502
NOTE_ON_62
DURATION_46
POSITION_927592
NOTE_ON_73
DURATION_27
POSITION_927587
NOTE_ON_64
DURATION_43
POSITION_927670
NOTE_ON_62
DURATION_62
POSITION_927754
NOTE_ON_76
DURATION_47
POSITION_927753
NOTE_ON_61
DURATION_56
POSITION_927829
NOTE_ON_62
DURATION_52
POSITION_927923
NOTE_ON_78
DURATION_28
POSITION_927918
NOTE_ON_57
DURATION_75
POSITION_928011
NOTE_ON_62
DURATION_44
POSITION_928093
NOTE_ON_79
DURATION_33
POSITION_928079
NOTE_ON_57
DURATION_53
POSITION_928155
NOTE_ON_55
DURATION_72
POSITION_928242
NOTE_ON_54
DURATION_66
POSITION_928254
NOTE_ON_81
DURATION_76
POSITION_928336
NOTE_ON_62
DURATION_57
POSITION_928338
NOTE_ON_79
DURATION_81
POSITION_928413
NOTE_ON_61
DURATION_49
POSITION_928417
NOTE_ON_81
DURATION_110
POSITION_928496
NOTE_ON_62
DURATION_41
POSITION_928577
NOTE_ON_71
DURATION_34
POSITION_928574
NOTE_ON_64
DURATION_66
POSITION_928651
NOTE_ON_62
DURATION_78
POSITION_928747
NOTE_ON_78
DURATION_31
POSITION_928738
NOTE_ON_61
DURATION_51
POSITION_928822
NOTE_ON_62
DURATION_54
POSITION_928914
NOTE_ON_83
DURATION_39
POSITION_928914
NOTE_ON_55
DURATION_63
POSITION_928995
NOTE_ON_62
DURATION_64
POSITION_929077
NOTE_ON_81
DURATION_49
POSITION_929078
NOTE_ON_55
DURATION_76
POSITION_929154
NOTE_ON_54
DURATION_83
POSITION_929240
NOTE_ON_52
DURATION_60
POSITION_929246
NOTE_ON_79
DURATION_83
POSITION_929330
NOTE_ON_62
DURATION_52
POSITION_929334
NOTE_ON_78
DURATION_64
POSITION_929407
NOTE_ON_79
DURATION_45
POSITION_929406
NOTE_ON_61
DURATION_64
POSITION_929488
NOTE_ON_62
DURATION_63
POSITION_929569
NOTE_ON_69
DURATION_37
POSITION_929568
NOTE_ON_64
DURATION_69
POSITION_929652
NOTE_ON_62
DURATION_66
POSITION_929731
NOTE_ON_76
DURATION_37
POSITION_929731
NOTE_ON_61
DURATION_54
POSITION_929814
NOTE_ON_62
DURATION_46
POSITION_929899
NOTE_ON_81
DURATION_52
POSITION_929903
NOTE_ON_54
DURATION_60
POSITION_929902
NOTE_ON_76
DURATION_69
POSITION_929983
NOTE_ON_62
DURATION_54
POSITION_930067
NOTE_ON_79
DURATION_38
POSITION_930059
NOTE_ON_54
DURATION_83
POSITION_930140
NOTE_ON_52
DURATION_84
POSITION_930235
NOTE_ON_78
DURATION_87
POSITION_930314
NOTE_ON_76
DURATION_63
POSITION_930243
NOTE_ON_50
DURATION_158
POSITION_930396
NOTE_ON_74
DURATION_59
POSITION_930397
NOTE_ON_57
DURATION_93
POSITION_930475
NOTE_ON_73
DURATION_76
POSITION_930565
NOTE_ON_54
DURATION_38
POSITION_930566
NOTE_ON_74
DURATION_92
POSITION_930666
NOTE_ON_78
DURATION_68
POSITION_930726
NOTE_ON_69
DURATION_34
POSITION_930735
NOTE_ON_50
DURATION_40
POSITION_930810
NOTE_ON_73
DURATION_85
POSITION_930899
NOTE_ON_49
DURATION_45
POSITION_930898
NOTE_ON_74
DURATION_112
POSITION_930995
NOTE_ON_78
DURATION_77
POSITION_931071
NOTE_ON_57
DURATION_55
POSITION_931065
NOTE_ON_69
DURATION_111
POSITION_931144
NOTE_ON_73
DURATION_86
POSITION_931242
NOTE_ON_77
DURATION_214
POSITION_931325
NOTE_ON_76
DURATION_131
POSITION_931234
NOTE_ON_47
DURATION_223
POSITION_931406
NOTE_ON_56
DURATION_53
POSITION_931409
NOTE_ON_74
DURATION_82
POSITION_931492
NOTE_ON_73
DURATION_76
POSITION_931577
NOTE_ON_53
DURATION_32
POSITION_931575
NOTE_ON_74
DURATION_75
POSITION_931657
NOTE_ON_77
DURATION_82
POSITION_931739
NOTE_ON_50
DURATION_36
POSITION_931735
NOTE_ON_68
DURATION_60
POSITION_931820
NOTE_ON_73
DURATION_155
POSITION_931904
NOTE_ON_74
DURATION_102
POSITION_931917
NOTE_ON_45
DURATION_148
POSITION_931996
NOTE_ON_77
DURATION_83
POSITION_932075
NOTE_ON_69
DURATION_54
POSITION_932074
NOTE_ON_57
DURATION_78
POSITION_932159
NOTE_ON_74
DURATION_52
POSITION_932271
NOTE_ON_77
DURATION_101
POSITION_932270
NOTE_ON_44
DURATION_128
POSITION_932360
NOTE_ON_76
DURATION_105
POSITION_932441
NOTE_ON_74
DURATION_97
POSITION_932440
NOTE_ON_59
DURATION_176
POSITION_932526
NOTE_ON_73
DURATION_91
POSITION_932608
NOTE_ON_53
DURATION_90
POSITION_932609
NOTE_ON_74
DURATION_100
POSITION_932696
NOTE_ON_77
DURATION_97
POSITION_932762
NOTE_ON_50
DURATION_38
POSITION_932767
NOTE_ON_68
DURATION_80
POSITION_932856
NOTE_ON_73
DURATION_89
POSITION_932934
NOTE_ON_74
DURATION_87
POSITION_932933
NOTE_ON_44
DURATION_143
POSITION_933013
NOTE_ON_77
DURATION_98
POSITION_933094
NOTE_ON_59
DURATION_92
POSITION_933096
NOTE_ON_76
DURATION_105
POSITION_933185
NOTE_ON_74
DURATION_106
POSITION_933392
NOTE_ON_45
DURATION_55
POSITION_933284
NOTE_ON_57
DURATION_166
POSITION_933463
NOTE_ON_49
DURATION_74
POSITION_933557
NOTE_ON_52
DURATION_81
POSITION_933716
NOTE_ON_61
DURATION_82
POSITION_933636
NOTE_ON_57
DURATION_163
POSITION_933284
NOTE_ON_73
DURATION_542
POSITION_933791
NOTE_ON_64
DURATION_118
POSITION_933878
NOTE_ON_67
DURATION_64
POSITION_933953
NOTE_ON_73
DURATION_111
POSITION_934022
NOTE_ON_67
DURATION_100
POSITION_934115
NOTE_ON_66
DURATION_67
POSITION_934179
NOTE_ON_64
DURATION_73
POSITION_934370
NOTE_ON_45
DURATION_106
POSITION_934463
NOTE_ON_50
DURATION_129
POSITION_934296
NOTE_ON_69
DURATION_306
POSITION_934553
NOTE_ON_54
DURATION_83
POSITION_934300
NOTE_ON_66
DURATION_356
POSITION_934290
NOTE_ON_74
DURATION_373
POSITION_934633
NOTE_ON_57
DURATION_143
POSITION_934708
NOTE_ON_62
DURATION_82
POSITION_934788
NOTE_ON_66
DURATION_99
POSITION_934868
NOTE_ON_69
DURATION_75
POSITION_934950
NOTE_ON_74
DURATION_103
POSITION_935046
NOTE_ON_69
DURATION_65
POSITION_935119
NOTE_ON_67
DURATION_59
POSITION_935189
NOTE_ON_66
DURATION_77
POSITION_935375
NOTE_ON_45
DURATION_188
POSITION_935474
NOTE_ON_52
DURATION_195
POSITION_935559
NOTE_ON_57
DURATION_112
POSITION_935300
NOTE_ON_67
DURATION_385
POSITION_935311
NOTE_ON_73
DURATION_489
POSITION_935291
NOTE_ON_76
DURATION_517
POSITION_935656
NOTE_ON_61
DURATION_155
POSITION_935732
NOTE_ON_64
DURATION_94
POSITION_935818
NOTE_ON_67
DURATION_85
POSITION_935898
NOTE_ON_73
DURATION_94
POSITION_935982
NOTE_ON_76
DURATION_107
POSITION_936058
NOTE_ON_73
DURATION_110
POSITION_936140
NOTE_ON_71
DURATION_54
POSITION_936213
NOTE_ON_69
DURATION_293
POSITION_936389
NOTE_ON_45
DURATION_302
POSITION_936326
NOTE_ON_74
DURATION_367
POSITION_936312
NOTE_ON_77
DURATION_382
POSITION_936474
NOTE_ON_50
DURATION_222
POSITION_936559
NOTE_ON_57
DURATION_137
POSITION_936658
NOTE_ON_62
DURATION_179
POSITION_936728
NOTE_ON_65
DURATION_114
POSITION_936819
NOTE_ON_69
DURATION_62
POSITION_936899
NOTE_ON_74
DURATION_87
POSITION_936983
NOTE_ON_77
DURATION_115
POSITION_937053
NOTE_ON_74
DURATION_105
POSITION_937131
NOTE_ON_72
DURATION_85
POSITION_937215
NOTE_ON_71
DURATION_47
POSITION_937354
NOTE_ON_74
DURATION_471
POSITION_937685
NOTE_ON_50
DURATION_144
POSITION_937349
NOTE_ON_80
DURATION_482
POSITION_937609
NOTE_ON_47
DURATION_222
POSITION_937517
NOTE_ON_45
DURATION_314
POSITION_937781
NOTE_ON_56
DURATION_58
POSITION_937871
NOTE_ON_59
DURATION_103
POSITION_937948
NOTE_ON_62
DURATION_92
POSITION_938102
NOTE_ON_71
DURATION_94
POSITION_938021
NOTE_ON_68
DURATION_198
POSITION_938197
NOTE_ON_74
DURATION_105
POSITION_938272
NOTE_ON_77
DURATION_96
POSITION_938355
NOTE_ON_80
DURATION_75
POSITION_938553
NOTE_ON_33
DURATION_465
POSITION_938546
NOTE_ON_73
DURATION_502
POSITION_938517
NOTE_ON_81
DURATION_539
POSITION_938524
NOTE_ON_76
DURATION_540
POSITION_939114
NOTE_ON_69
DURATION_41
POSITION_939189
NOTE_ON_71
DURATION_35
POSITION_939284
NOTE_ON_73
DURATION_55
POSITION_939368
NOTE_ON_74
DURATION_37
POSITION_939675
NOTE_ON_57
DURATION_177
POSITION_939675
NOTE_ON_61
DURATION_244
POSITION_939468
NOTE_ON_76
DURATION_533
POSITION_939897
NOTE_ON_67
DURATION_495
POSITION_940111
NOTE_ON_61
DURATION_286
POSITION_940114
NOTE_ON_58
DURATION_283
POSITION_940310
NOTE_ON_66
DURATION_91
POSITION_940404
NOTE_ON_68
DURATION_59
POSITION_940479
NOTE_ON_70
DURATION_58
POSITION_940557
NOTE_ON_71
DURATION_77
POSITION_940643
NOTE_ON_73
DURATION_75
POSITION_940724
NOTE_ON_74
DURATION_86
POSITION_940818
NOTE_ON_54
DURATION_117
POSITION_940818
NOTE_ON_58
DURATION_117
POSITION_940812
NOTE_ON_76
DURATION_129
POSITION_940902
NOTE_ON_74
DURATION_82
POSITION_940977
NOTE_ON_73
DURATION_75
POSITION_941056
NOTE_ON_76
DURATION_116
POSITION_941148
NOTE_ON_59
DURATION_63
POSITION_941226
NOTE_ON_61
DURATION_79
POSITION_941308
NOTE_ON_62
DURATION_67
POSITION_941149
NOTE_ON_74
DURATION_280
POSITION_941395
NOTE_ON_64
DURATION_57
POSITION_941488
NOTE_ON_66
DURATION_75
POSITION_941571
NOTE_ON_67
DURATION_66
POSITION_941927
NOTE_ON_52
DURATION_421
POSITION_941668
NOTE_ON_69
DURATION_680
POSITION_942110
NOTE_ON_60
DURATION_238
POSITION_941901
NOTE_ON_78
DURATION_450
POSITION_942608
NOTE_ON_61
DURATION_88
POSITION_942523
NOTE_ON_59
DURATION_227
POSITION_942693
NOTE_ON_63
DURATION_62
POSITION_942343
NOTE_ON_51
DURATION_461
POSITION_942767
NOTE_ON_64
DURATION_78
POSITION_942323
NOTE_ON_81
DURATION_542
POSITION_942849
NOTE_ON_66
DURATION_89
POSITION_942922
NOTE_ON_67
DURATION_84
POSITION_943017
NOTE_ON_59
DURATION_60
POSITION_943017
NOTE_ON_69
DURATION_81
POSITION_943015
NOTE_ON_75
DURATION_85
POSITION_943099
NOTE_ON_67
DURATION_69
POSITION_943178
NOTE_ON_66
DURATION_83
POSITION_943261
NOTE_ON_69
DURATION_50
POSITION_943414
NOTE_ON_76
DURATION_115
POSITION_943414
NOTE_ON_83
DURATION_115
POSITION_943507
NOTE_ON_81
DURATION_68
POSITION_943418
NOTE_ON_67
DURATION_209
POSITION_943590
NOTE_ON_79
DURATION_67
POSITION_943664
NOTE_ON_78
DURATION_71
POSITION_943753
NOTE_ON_76
DURATION_49
POSITION_944136
NOTE_ON_67
DURATION_34
POSITION_944137
NOTE_ON_71
DURATION_33
POSITION_944142
NOTE_ON_64
DURATION_30
POSITION_944528
NOTE_ON_72
DURATION_31
POSITION_944528
NOTE_ON_69
DURATION_32
POSITION_944527
NOTE_ON_63
DURATION_38
POSITION_944950
NOTE_ON_64
DURATION_48
POSITION_944943
NOTE_ON_71
DURATION_58
POSITION_944944
NOTE_ON_67
DURATION_60
POSITION_945705
NOTE_ON_83
DURATION_85
POSITION_945789
NOTE_ON_81
DURATION_77
POSITION_945881
NOTE_ON_79
DURATION_62
POSITION_945951
NOTE_ON_78
DURATION_75
POSITION_946041
NOTE_ON_76
DURATION_85
POSITION_946125
NOTE_ON_74
DURATION_76
POSITION_946202
NOTE_ON_72
DURATION_86
POSITION_946287
NOTE_ON_71
DURATION_62
POSITION_946371
NOTE_ON_69
DURATION_61
POSITION_946450
NOTE_ON_67
DURATION_70
POSITION_946531
NOTE_ON_66
DURATION_72
POSITION_946608
NOTE_ON_64
DURATION_32
POSITION_946707
NOTE_ON_69
DURATION_34
POSITION_946709
NOTE_ON_66
DURATION_37
POSITION_946713
NOTE_ON_63
DURATION_34
POSITION_946717
NOTE_ON_59
DURATION_33
POSITION_946724
NOTE_ON_52
DURATION_33
POSITION_947144
NOTE_ON_59
DURATION_41
POSITION_947143
NOTE_ON_64
DURATION_42
POSITION_947138
NOTE_ON_67
DURATION_47
POSITION_947148
NOTE_ON_40
DURATION_38
POSITION_947149
NOTE_ON_52
DURATION_37
POSITION_948021
NOTE_ON_52
DURATION_40
POSITION_948100
NOTE_ON_55
DURATION_58
POSITION_948175
NOTE_ON_57
DURATION_91
POSITION_948281
NOTE_ON_59
DURATION_55
POSITION_948362
NOTE_ON_60
DURATION_68
POSITION_948441
NOTE_ON_62
DURATION_65
POSITION_948527
NOTE_ON_64
DURATION_70
POSITION_948602
NOTE_ON_66
DURATION_70
POSITION_948698
NOTE_ON_67
DURATION_62
POSITION_948785
NOTE_ON_69
DURATION_47
POSITION_948868
NOTE_ON_71
DURATION_61
POSITION_948950
NOTE_ON_72
DURATION_40
POSITION_949032
NOTE_ON_54
DURATION_41
POSITION_949108
NOTE_ON_57
DURATION_74
POSITION_949197
NOTE_ON_59
DURATION_78
POSITION_949285
NOTE_ON_60
DURATION_80
POSITION_949367
NOTE_ON_62
DURATION_72
POSITION_949460
NOTE_ON_64
DURATION_72
POSITION_949541
NOTE_ON_66
DURATION_76
POSITION_949621
NOTE_ON_67
DURATION_68
POSITION_949709
NOTE_ON_69
DURATION_49
POSITION_949792
NOTE_ON_71
DURATION_72
POSITION_949879
NOTE_ON_72
DURATION_71
POSITION_949957
NOTE_ON_74
DURATION_46
POSITION_950035
NOTE_ON_55
DURATION_37
POSITION_950119
NOTE_ON_59
DURATION_69
POSITION_950200
NOTE_ON_60
DURATION_82
POSITION_950286
NOTE_ON_62
DURATION_64
POSITION_950365
NOTE_ON_64
DURATION_63
POSITION_950453
NOTE_ON_66
DURATION_83
POSITION_950537
NOTE_ON_67
DURATION_66
POSITION_950620
NOTE_ON_69
DURATION_47
POSITION_950698
NOTE_ON_71
DURATION_63
POSITION_950778
NOTE_ON_72
DURATION_92
POSITION_950864
NOTE_ON_74
DURATION_66
POSITION_950928
NOTE_ON_76
DURATION_58
POSITION_951014
NOTE_ON_57
DURATION_56
POSITION_951104
NOTE_ON_60
DURATION_89
POSITION_951185
NOTE_ON_62
DURATION_85
POSITION_951262
NOTE_ON_64
DURATION_81
POSITION_951357
NOTE_ON_65
DURATION_83
POSITION_951438
NOTE_ON_67
DURATION_90
POSITION_951525
NOTE_ON_69
DURATION_64
POSITION_951610
NOTE_ON_71
DURATION_58
POSITION_951689
NOTE_ON_72
DURATION_86
POSITION_951772
NOTE_ON_74
DURATION_87
POSITION_951855
NOTE_ON_76
DURATION_84
POSITION_951935
NOTE_ON_77
DURATION_112
POSITION_952041
NOTE_ON_75
DURATION_106
POSITION_952136
NOTE_ON_81
DURATION_108
POSITION_952239
NOTE_ON_47
DURATION_70
POSITION_952315
NOTE_ON_49
DURATION_76
POSITION_952228
NOTE_ON_78
DURATION_176
POSITION_952309
NOTE_ON_75
DURATION_96
POSITION_952402
NOTE_ON_51
DURATION_60
POSITION_952486
NOTE_ON_52
DURATION_80
POSITION_952399
NOTE_ON_71
DURATION_252
POSITION_952575
NOTE_ON_54
DURATION_78
POSITION_952653
NOTE_ON_55
DURATION_63
POSITION_952733
NOTE_ON_57
DURATION_81
POSITION_952824
NOTE_ON_55
DURATION_92
POSITION_952909
NOTE_ON_54
DURATION_61
POSITION_952979
NOTE_ON_57
DURATION_81
POSITION_953169
NOTE_ON_57
DURATION_77
POSITION_953244
NOTE_ON_59
DURATION_93
POSITION_953328
NOTE_ON_61
DURATION_80
POSITION_953412
NOTE_ON_63
DURATION_67
POSITION_953069
NOTE_ON_55
DURATION_430
POSITION_953499
NOTE_ON_54
DURATION_71
POSITION_953490
NOTE_ON_64
DURATION_85
POSITION_953579
NOTE_ON_66
DURATION_82
POSITION_953578
NOTE_ON_52
DURATION_84
POSITION_953655
NOTE_ON_67
DURATION_73
POSITION_953706
NOTE_ON_49
DURATION_76
POSITION_953737
NOTE_ON_69
DURATION_52
POSITION_953813
NOTE_ON_67
DURATION_72
POSITION_953806
NOTE_ON_52
DURATION_85
POSITION_953892
NOTE_ON_66
DURATION_67
POSITION_953893
NOTE_ON_51
DURATION_75
POSITION_953998
NOTE_ON_54
DURATION_11
POSITION_953981
NOTE_ON_69
DURATION_64
POSITION_954067
NOTE_ON_67
DURATION_67
POSITION_954152
NOTE_ON_66
DURATION_71
POSITION_954068
NOTE_ON_52
DURATION_172
POSITION_954239
NOTE_ON_67
DURATION_61
POSITION_954319
NOTE_ON_69
DURATION_47
POSITION_954403
NOTE_ON_71
DURATION_56
POSITION_954475
NOTE_ON_50
DURATION_61
POSITION_954478
NOTE_ON_72
DURATION_96
POSITION_954571
NOTE_ON_74
DURATION_80
POSITION_954550
NOTE_ON_48
DURATION_101
POSITION_954637
NOTE_ON_47
DURATION_89
POSITION_954643
NOTE_ON_76
DURATION_85
POSITION_954722
NOTE_ON_45
DURATION_89
POSITION_954726
NOTE_ON_77
DURATION_93
POSITION_954818
NOTE_ON_48
DURATION_59
POSITION_954803
NOTE_ON_76
DURATION_91
POSITION_954912
NOTE_ON_47
DURATION_52
POSITION_954893
NOTE_ON_74
DURATION_71
POSITION_954981
NOTE_ON_50
DURATION_44
POSITION_954988
NOTE_ON_77
DURATION_77
POSITION_955073
NOTE_ON_76
DURATION_80
POSITION_955181
NOTE_ON_50
DURATION_11
POSITION_955150
NOTE_ON_74
DURATION_74
POSITION_955078
NOTE_ON_48
DURATION_152
POSITION_955239
NOTE_ON_48
DURATION_76
POSITION_955238
NOTE_ON_76
DURATION_97
POSITION_955326
NOTE_ON_78
DURATION_94
POSITION_955324
NOTE_ON_48
DURATION_130
POSITION_955411
NOTE_ON_80
DURATION_77
POSITION_955465
NOTE_ON_47
DURATION_91
POSITION_955482
NOTE_ON_81
DURATION_114
POSITION_955549
NOTE_ON_45
DURATION_104
POSITION_955564
NOTE_ON_83
DURATION_109
POSITION_955632
NOTE_ON_43
DURATION_67
POSITION_955639
NOTE_ON_84
DURATION_73
POSITION_955718
NOTE_ON_86
DURATION_122
POSITION_955718
NOTE_ON_42
DURATION_134
POSITION_955795
NOTE_ON_84
DURATION_75
POSITION_955795
NOTE_ON_45
DURATION_89
POSITION_955885
NOTE_ON_44
DURATION_70
POSITION_955882
NOTE_ON_83
DURATION_89
POSITION_955964
NOTE_ON_47
DURATION_71
POSITION_955963
NOTE_ON_86
DURATION_122
POSITION_956049
NOTE_ON_45
DURATION_40
POSITION_956048
NOTE_ON_84
DURATION_83
POSITION_956141
NOTE_ON_83
DURATION_62
POSITION_956220
NOTE_ON_81
DURATION_67
POSITION_956304
NOTE_ON_80
DURATION_55
POSITION_956396
NOTE_ON_57
DURATION_44
POSITION_956394
NOTE_ON_81
DURATION_76
POSITION_956479
NOTE_ON_79
DURATION_87
POSITION_956561
NOTE_ON_77
DURATION_95
POSITION_956638
NOTE_ON_76
DURATION_77
POSITION_956723
NOTE_ON_74
DURATION_140
POSITION_956807
NOTE_ON_72
DURATION_109
POSITION_956888
NOTE_ON_71
DURATION_76
POSITION_956969
NOTE_ON_69
DURATION_42
POSITION_957059
NOTE_ON_68
DURATION_35
POSITION_957146
NOTE_ON_74
DURATION_85
POSITION_957233
NOTE_ON_72
DURATION_68
POSITION_957309
NOTE_ON_71
DURATION_78
POSITION_957409
NOTE_ON_69
DURATION_37
POSITION_957409
NOTE_ON_72
DURATION_87
POSITION_957494
NOTE_ON_71
DURATION_67
POSITION_957568
NOTE_ON_69
DURATION_56
POSITION_957659
NOTE_ON_67
DURATION_78
POSITION_957753
NOTE_ON_65
DURATION_67
POSITION_957827
NOTE_ON_64
DURATION_75
POSITION_957913
NOTE_ON_62
DURATION_50
POSITION_958008
NOTE_ON_60
DURATION_32
POSITION_958098
NOTE_ON_59
DURATION_35
POSITION_958184
NOTE_ON_65
DURATION_46
POSITION_958259
NOTE_ON_64
DURATION_68
POSITION_958338
NOTE_ON_62
DURATION_85
POSITION_958440
NOTE_ON_56
DURATION_35
POSITION_958440
NOTE_ON_64
DURATION_73
POSITION_958523
NOTE_ON_62
DURATION_82
POSITION_958607
NOTE_ON_60
DURATION_77
POSITION_958688
NOTE_ON_59
DURATION_65
POSITION_958775
NOTE_ON_57
DURATION_67
POSITION_958853
NOTE_ON_56
DURATION_72
POSITION_958935
NOTE_ON_54
DURATION_70
POSITION_959010
NOTE_ON_52
DURATION_47
POSITION_959112
NOTE_ON_50
DURATION_42
POSITION_959184
NOTE_ON_59
DURATION_84
POSITION_959281
NOTE_ON_57
DURATION_62
POSITION_959354
NOTE_ON_56
DURATION_77
POSITION_959445
NOTE_ON_48
DURATION_38
POSITION_959446
NOTE_ON_57
DURATION_58
POSITION_959533
NOTE_ON_53
DURATION_54
POSITION_959623
NOTE_ON_52
DURATION_73
POSITION_959704
NOTE_ON_50
DURATION_46
POSITION_959784
NOTE_ON_48
DURATION_56
POSITION_959856
NOTE_ON_47
DURATION_63
POSITION_959937
NOTE_ON_45
DURATION_71
POSITION_960018
NOTE_ON_44
DURATION_77
POSITION_960134
NOTE_ON_45
DURATION_43
POSITION_960219
NOTE_ON_77
DURATION_90
POSITION_960324
NOTE_ON_57
DURATION_26
POSITION_960323
NOTE_ON_76
DURATION_80
POSITION_960410
NOTE_ON_74
DURATION_86
POSITION_960512
NOTE_ON_76
DURATION_89
POSITION_960511
NOTE_ON_60
DURATION_168
POSITION_960608
NOTE_ON_74
DURATION_76
POSITION_960678
NOTE_ON_57
DURATION_25
POSITION_960681
NOTE_ON_72
DURATION_72
POSITION_960761
NOTE_ON_71
DURATION_71
POSITION_960861
NOTE_ON_53
DURATION_27
POSITION_960853
NOTE_ON_69
DURATION_43
POSITION_960935
NOTE_ON_74
DURATION_78
POSITION_961018
NOTE_ON_50
DURATION_38
POSITION_961021
NOTE_ON_76
DURATION_74
POSITION_961088
NOTE_ON_77
DURATION_79
POSITION_961185
NOTE_ON_43
DURATION_39
POSITION_961178
NOTE_ON_71
DURATION_54
POSITION_961259
NOTE_ON_74
DURATION_81
POSITION_961349
NOTE_ON_55
DURATION_44
POSITION_961348
NOTE_ON_76
DURATION_69
POSITION_961437
NOTE_ON_77
DURATION_79
POSITION_961531
NOTE_ON_67
DURATION_65
POSITION_961616
NOTE_ON_77
DURATION_82
POSITION_961532
NOTE_ON_59
DURATION_191
POSITION_961709
NOTE_ON_55
DURATION_37
POSITION_961686
NOTE_ON_76
DURATION_98
POSITION_961771
NOTE_ON_74
DURATION_70
POSITION_961870
NOTE_ON_52
DURATION_46
POSITION_961854
NOTE_ON_72
DURATION_77
POSITION_961938
NOTE_ON_74
DURATION_93
POSITION_962033
NOTE_ON_48
DURATION_35
POSITION_962031
NOTE_ON_76
DURATION_77
POSITION_962116
NOTE_ON_72
DURATION_63
POSITION_962200
NOTE_ON_41
DURATION_38
POSITION_962200
NOTE_ON_69
DURATION_45
POSITION_962277
NOTE_ON_74
DURATION_83
POSITION_962363
NOTE_ON_53
DURATION_41
POSITION_962356
NOTE_ON_72
DURATION_87
POSITION_962440
NOTE_ON_71
DURATION_90
POSITION_962547
NOTE_ON_72
DURATION_84
POSITION_962630
NOTE_ON_71
DURATION_77
POSITION_962547
NOTE_ON_57
DURATION_166
POSITION_962708
NOTE_ON_53
DURATION_38
POSITION_962708
NOTE_ON_69
DURATION_52
POSITION_962795
NOTE_ON_67
DURATION_57
POSITION_962883
NOTE_ON_50
DURATION_50
POSITION_962883
NOTE_ON_65
DURATION_78
POSITION_962966
NOTE_ON_71
DURATION_73
POSITION_963047
NOTE_ON_47
DURATION_36
POSITION_963052
NOTE_ON_72
DURATION_77
POSITION_963129
NOTE_ON_74
DURATION_70
POSITION_963206
NOTE_ON_40
DURATION_40
POSITION_963213
NOTE_ON_67
DURATION_53
POSITION_963294
NOTE_ON_71
DURATION_73
POSITION_963382
NOTE_ON_52
DURATION_37
POSITION_963382
NOTE_ON_72
DURATION_85
POSITION_963467
NOTE_ON_74
DURATION_86
POSITION_963559
NOTE_ON_64
DURATION_87
POSITION_963636
NOTE_ON_74
DURATION_85
POSITION_963559
NOTE_ON_55
DURATION_184
POSITION_963723
NOTE_ON_52
DURATION_51
POSITION_963802
NOTE_ON_71
DURATION_65
POSITION_963710
NOTE_ON_72
DURATION_160
POSITION_963876
NOTE_ON_69
DURATION_48
POSITION_963895
NOTE_ON_48
DURATION_32
POSITION_963960
NOTE_ON_71
DURATION_75
POSITION_964055
NOTE_ON_45
DURATION_47
POSITION_964045
NOTE_ON_72
DURATION_68
POSITION_964119
NOTE_ON_69
DURATION_61
POSITION_964212
NOTE_ON_38
DURATION_188
POSITION_964305
NOTE_ON_36
DURATION_114
POSITION_964210
NOTE_ON_65
DURATION_225
POSITION_964408
NOTE_ON_71
DURATION_43
POSITION_964406
NOTE_ON_38
DURATION_87
POSITION_964488
NOTE_ON_40
DURATION_78
POSITION_964489
NOTE_ON_72
DURATION_78
POSITION_964573
NOTE_ON_41
DURATION_73
POSITION_964649
NOTE_ON_43
DURATION_84
POSITION_964735
NOTE_ON_45
DURATION_81
POSITION_964813
NOTE_ON_47
DURATION_74
POSITION_964900
NOTE_ON_48
DURATION_64
POSITION_964985
NOTE_ON_67
DURATION_85
POSITION_964985
NOTE_ON_47
DURATION_97
POSITION_965063
NOTE_ON_65
DURATION_69
POSITION_965066
NOTE_ON_45
DURATION_67
POSITION_965137
NOTE_ON_64
DURATION_53
POSITION_965150
NOTE_ON_48
DURATION_46
POSITION_965233
NOTE_ON_47
DURATION_56
POSITION_964573
NOTE_ON_74
DURATION_772
POSITION_965323
NOTE_ON_45
DURATION_85
POSITION_965233
NOTE_ON_65
DURATION_192
POSITION_965414
NOTE_ON_71
DURATION_52
POSITION_965410
NOTE_ON_43
DURATION_81
POSITION_965491
NOTE_ON_45
DURATION_78
POSITION_965490
NOTE_ON_72
DURATION_85
POSITION_965572
NOTE_ON_47
DURATION_77
POSITION_965652
NOTE_ON_48
DURATION_87
POSITION_965572
NOTE_ON_74
DURATION_237
POSITION_965740
NOTE_ON_50
DURATION_71
POSITION_965818
NOTE_ON_52
DURATION_75
POSITION_965895
NOTE_ON_53
DURATION_82
POSITION_965986
NOTE_ON_52
DURATION_68
POSITION_965962
NOTE_ON_72
DURATION_95
POSITION_966057
NOTE_ON_50
DURATION_60
POSITION_966049
NOTE_ON_71
DURATION_77
POSITION_966133
NOTE_ON_53
DURATION_79
POSITION_966133
NOTE_ON_74
DURATION_123
POSITION_966239
NOTE_ON_52
DURATION_115
POSITION_966239
NOTE_ON_67
DURATION_121
POSITION_966343
NOTE_ON_40
DURATION_74
POSITION_966346
NOTE_ON_72
DURATION_86
POSITION_966426
NOTE_ON_41
DURATION_59
POSITION_966433
NOTE_ON_71
DURATION_105
POSITION_966504
NOTE_ON_43
DURATION_96
POSITION_966509
NOTE_ON_69
DURATION_95
POSITION_966586
NOTE_ON_45
DURATION_76
POSITION_966594
NOTE_ON_67
DURATION_88
POSITION_966658
NOTE_ON_47
DURATION_65
POSITION_966686
NOTE_ON_65
DURATION_115
POSITION_966761
NOTE_ON_48
DURATION_81
POSITION_966763
NOTE_ON_64
DURATION_98
POSITION_966844
NOTE_ON_50
DURATION_81
POSITION_966842
NOTE_ON_62
DURATION_87
POSITION_966931
NOTE_ON_60
DURATION_82
POSITION_966931
NOTE_ON_52
DURATION_82
POSITION_967023
NOTE_ON_50
DURATION_63
POSITION_967016
NOTE_ON_64
DURATION_134
POSITION_967101
NOTE_ON_62
DURATION_67
POSITION_967101
NOTE_ON_52
DURATION_74
POSITION_967186
NOTE_ON_53
DURATION_77
POSITION_967185
NOTE_ON_60
DURATION_92
POSITION_967274
NOTE_ON_59
DURATION_63
POSITION_967359
NOTE_ON_60
DURATION_77
POSITION_967276
NOTE_ON_55
DURATION_164
POSITION_967437
NOTE_ON_53
DURATION_67
POSITION_967436
NOTE_ON_62
DURATION_77
POSITION_967512
NOTE_ON_64
DURATION_64
POSITION_967514
NOTE_ON_52
DURATION_69
POSITION_967592
NOTE_ON_65
DURATION_56
POSITION_967594
NOTE_ON_50
DURATION_65
POSITION_967678
NOTE_ON_67
DURATION_92
POSITION_967676
NOTE_ON_48
DURATION_95
POSITION_967759
NOTE_ON_47
DURATION_77
POSITION_967759
NOTE_ON_69
DURATION_89
POSITION_967838
NOTE_ON_71
DURATION_56
POSITION_967840
NOTE_ON_45
DURATION_73
POSITION_967920
NOTE_ON_43
DURATION_55
POSITION_967921
NOTE_ON_72
DURATION_77
POSITION_967998
NOTE_ON_41
DURATION_87
POSITION_968004
NOTE_ON_74
DURATION_93
POSITION_968083
NOTE_ON_40
DURATION_71
POSITION_968089
NOTE_ON_76
DURATION_85
POSITION_968170
NOTE_ON_77
DURATION_78
POSITION_968165
NOTE_ON_38
DURATION_114
POSITION_968295
NOTE_ON_79
DURATION_108
POSITION_968385
NOTE_ON_77
DURATION_100
POSITION_968477
NOTE_ON_76
DURATION_61
POSITION_968293
NOTE_ON_36
DURATION_270
POSITION_968545
NOTE_ON_74
DURATION_53
POSITION_968633
NOTE_ON_72
DURATION_34
POSITION_969042
NOTE_ON_67
DURATION_32
POSITION_969041
NOTE_ON_64
DURATION_33
POSITION_969050
NOTE_ON_60
DURATION_25
POSITION_969452
NOTE_ON_69
DURATION_31
POSITION_969456
NOTE_ON_65
DURATION_31
POSITION_969457
NOTE_ON_60
DURATION_30
POSITION_969925
NOTE_ON_60
DURATION_36
POSITION_969920
NOTE_ON_64
DURATION_41
POSITION_969919
NOTE_ON_67
DURATION_48
POSITION_970754
NOTE_ON_79
DURATION_72
POSITION_970834
NOTE_ON_77
DURATION_91
POSITION_970926
NOTE_ON_76
DURATION_69
POSITION_971002
NOTE_ON_74
DURATION_63
POSITION_971091
NOTE_ON_72
DURATION_94
POSITION_971183
NOTE_ON_71
DURATION_71
POSITION_971263
NOTE_ON_69
DURATION_69
POSITION_971338
NOTE_ON_67
DURATION_64
POSITION_971423
NOTE_ON_65
DURATION_82
POSITION_971505
NOTE_ON_64
DURATION_87
POSITION_971579
NOTE_ON_62
DURATION_72
POSITION_971657
NOTE_ON_60
DURATION_64
POSITION_971768
NOTE_ON_62
DURATION_33
POSITION_971762
NOTE_ON_59
DURATION_40
POSITION_971764
NOTE_ON_55
DURATION_38
POSITION_971760
NOTE_ON_65
DURATION_48
POSITION_971766
NOTE_ON_48
DURATION_49
POSITION_972224
NOTE_ON_48
DURATION_35
POSITION_972222
NOTE_ON_60
DURATION_37
POSITION_972223
NOTE_ON_55
DURATION_38
POSITION_972215
NOTE_ON_64
DURATION_49
POSITION_972226
NOTE_ON_36
DURATION_41
POSITION_973052
NOTE_ON_48
DURATION_45
POSITION_973144
NOTE_ON_60
DURATION_52
POSITION_973207
NOTE_ON_72
DURATION_27
POSITION_973217
NOTE_ON_64
DURATION_56
POSITION_973299
NOTE_ON_60
DURATION_56
POSITION_973407
NOTE_ON_57
DURATION_62
POSITION_973481
NOTE_ON_60
DURATION_80
POSITION_973403
NOTE_ON_76
DURATION_173
POSITION_973574
NOTE_ON_72
DURATION_39
POSITION_973575
NOTE_ON_64
DURATION_52
POSITION_973651
NOTE_ON_60
DURATION_60
POSITION_973745
NOTE_ON_69
DURATION_41
POSITION_973742
NOTE_ON_54
DURATION_47
POSITION_973827
NOTE_ON_60
DURATION_77
POSITION_973920
NOTE_ON_64
DURATION_43
POSITION_973996
NOTE_ON_60
DURATION_32
POSITION_974105
NOTE_ON_47
DURATION_35
POSITION_973921
NOTE_ON_66
DURATION_240
POSITION_974174
NOTE_ON_71
DURATION_71
POSITION_974261
NOTE_ON_74
DURATION_68
POSITION_974268
NOTE_ON_59
DURATION_62
POSITION_974342
NOTE_ON_71
DURATION_79
POSITION_974450
NOTE_ON_66
DURATION_115
POSITION_974540
NOTE_ON_71
DURATION_48
POSITION_974451
NOTE_ON_62
DURATION_170
POSITION_974622
NOTE_ON_59
DURATION_42
POSITION_974624
NOTE_ON_74
DURATION_69
POSITION_974702
NOTE_ON_71
DURATION_70
POSITION_974793
NOTE_ON_55
DURATION_42
POSITION_974793
NOTE_ON_64
DURATION_56
POSITION_974877
NOTE_ON_71
DURATION_72
POSITION_974963
NOTE_ON_52
DURATION_48
POSITION_974958
NOTE_ON_74
DURATION_67
POSITION_975037
NOTE_ON_71
DURATION_31
POSITION_975131
NOTE_ON_57
DURATION_6
POSITION_975126
NOTE_ON_72
DURATION_28
POSITION_975215
NOTE_ON_57
DURATION_60
POSITION_975296
NOTE_ON_81
DURATION_23
POSITION_975295
NOTE_ON_60
DURATION_68
POSITION_975385
NOTE_ON_57
DURATION_84
POSITION_975483
NOTE_ON_54
DURATION_92
POSITION_975572
NOTE_ON_57
DURATION_67
POSITION_975661
NOTE_ON_81
DURATION_32
POSITION_975652
NOTE_ON_60
DURATION_56
POSITION_975478
NOTE_ON_84
DURATION_242
POSITION_975725
NOTE_ON_57
DURATION_55
POSITION_975809
NOTE_ON_50
DURATION_54
POSITION_975817
NOTE_ON_78
DURATION_49
POSITION_975898
NOTE_ON_57
DURATION_49
POSITION_975977
NOTE_ON_60
DURATION_58
POSITION_976045
NOTE_ON_57
DURATION_36
POSITION_976153
NOTE_ON_43
DURATION_40
POSITION_975982
NOTE_ON_74
DURATION_265
POSITION_976245
NOTE_ON_79
DURATION_84
POSITION_976315
NOTE_ON_55
DURATION_32
POSITION_976317
NOTE_ON_83
DURATION_98
POSITION_976410
NOTE_ON_79
DURATION_114
POSITION_976506
NOTE_ON_74
DURATION_102
POSITION_976591
NOTE_ON_79
DURATION_88
POSITION_976500
NOTE_ON_59
DURATION_192
POSITION_976669
NOTE_ON_55
DURATION_37
POSITION_976670
NOTE_ON_83
DURATION_113
POSITION_976751
NOTE_ON_79
DURATION_106
POSITION_976837
NOTE_ON_52
DURATION_40
POSITION_976839
NOTE_ON_72
DURATION_99
POSITION_977000
NOTE_ON_48
DURATION_32
POSITION_976927
NOTE_ON_83
DURATION_107
POSITION_977006
NOTE_ON_81
DURATION_93
POSITION_977099
NOTE_ON_79
DURATION_67
POSITION_977200
NOTE_ON_78
DURATION_235
POSITION_977536
NOTE_ON_62
DURATION_92
POSITION_977194
NOTE_ON_50
DURATION_445
POSITION_977625
NOTE_ON_64
DURATION_34
POSITION_977719
NOTE_ON_66
DURATION_72
POSITION_977806
NOTE_ON_67
DURATION_39
POSITION_977735
NOTE_ON_38
DURATION_170
POSITION_978144
NOTE_ON_54
DURATION_236
POSITION_978160
NOTE_ON_50
DURATION_221
POSITION_977914
NOTE_ON_69
DURATION_725
POSITION_978537
NOTE_ON_50
DURATION_154
POSITION_978621
NOTE_ON_58
DURATION_86
POSITION_978336
NOTE_ON_60
DURATION_372
POSITION_978531
NOTE_ON_55
DURATION_185
POSITION_978719
NOTE_ON_60
DURATION_81
POSITION_978801
NOTE_ON_62
DURATION_86
POSITION_978882
NOTE_ON_64
DURATION_83
POSITION_978882
NOTE_ON_38
DURATION_118
POSITION_978967
NOTE_ON_66
DURATION_75
POSITION_979048
NOTE_ON_67
DURATION_72
POSITION_979130
NOTE_ON_69
DURATION_74
POSITION_979204
NOTE_ON_52
DURATION_138
POSITION_979233
NOTE_ON_61
DURATION_110
POSITION_979234
NOTE_ON_70
DURATION_112
POSITION_979211
NOTE_ON_55
DURATION_138
POSITION_979210
NOTE_ON_50
DURATION_166
POSITION_979318
NOTE_ON_69
DURATION_86
POSITION_979408
NOTE_ON_67
DURATION_85
POSITION_979494
NOTE_ON_70
DURATION_69
POSITION_979611
NOTE_ON_69
DURATION_130
POSITION_979688
NOTE_ON_67
DURATION_84
POSITION_979566
NOTE_ON_54
DURATION_225
POSITION_979565
NOTE_ON_57
DURATION_226
POSITION_979625
NOTE_ON_62
DURATION_212
POSITION_979776
NOTE_ON_66
DURATION_94
POSITION_979855
NOTE_ON_67
DURATION_39
POSITION_979957
NOTE_ON_69
DURATION_87
POSITION_980045
NOTE_ON_70
DURATION_48
POSITION_979956
NOTE_ON_38
DURATION_161
POSITION_979566
NOTE_ON_50
DURATION_551
POSITION_980364
NOTE_ON_57
DURATION_176
POSITION_980373
NOTE_ON_54
DURATION_169
POSITION_980377
NOTE_ON_50
DURATION_170
POSITION_980154
NOTE_ON_72
DURATION_413
POSITION_980850
NOTE_ON_62
DURATION_138
POSITION_980773
NOTE_ON_50
DURATION_219
POSITION_980760
NOTE_ON_58
DURATION_233
POSITION_980543
NOTE_ON_63
DURATION_450
POSITION_980764
NOTE_ON_55
DURATION_230
POSITION_980940
NOTE_ON_64
DURATION_90
POSITION_981026
NOTE_ON_66
DURATION_71
POSITION_981109
NOTE_ON_67
DURATION_74
POSITION_981108
NOTE_ON_38
DURATION_81
POSITION_981192
NOTE_ON_69
DURATION_89
POSITION_981275
NOTE_ON_70
DURATION_87
POSITION_981354
NOTE_ON_72
DURATION_104
POSITION_981446
NOTE_ON_50
DURATION_116
POSITION_981446
NOTE_ON_74
DURATION_117
POSITION_981446
NOTE_ON_55
DURATION_117
POSITION_981447
NOTE_ON_58
DURATION_120
POSITION_981531
NOTE_ON_72
DURATION_73
POSITION_981611
NOTE_ON_70
DURATION_103
POSITION_981705
NOTE_ON_74
DURATION_33
POSITION_981817
NOTE_ON_50
DURATION_189
POSITION_981816
NOTE_ON_54
DURATION_190
POSITION_981809
NOTE_ON_72
DURATION_198
POSITION_981898
NOTE_ON_70
DURATION_109
POSITION_981811
NOTE_ON_57
DURATION_197
POSITION_981981
NOTE_ON_69
DURATION_62
POSITION_982060
NOTE_ON_70
DURATION_57
POSITION_982159
NOTE_ON_72
DURATION_84
POSITION_982154
NOTE_ON_38
DURATION_125
POSITION_982243
NOTE_ON_74
DURATION_127
POSITION_982344
NOTE_ON_75
DURATION_388
POSITION_982536
NOTE_ON_58
DURATION_200
POSITION_982534
NOTE_ON_55
DURATION_203
POSITION_982540
NOTE_ON_50
DURATION_198
POSITION_982719
NOTE_ON_67
DURATION_216
POSITION_982924
NOTE_ON_60
DURATION_192
POSITION_982935
NOTE_ON_50
DURATION_182
POSITION_982927
NOTE_ON_57
DURATION_190
POSITION_983030
NOTE_ON_66
DURATION_90
POSITION_983122
NOTE_ON_58
DURATION_54
POSITION_983121
NOTE_ON_64
DURATION_57
POSITION_983122
NOTE_ON_55
DURATION_60
POSITION_983209
NOTE_ON_62
DURATION_87
POSITION_983290
NOTE_ON_57
DURATION_45
POSITION_983295
NOTE_ON_54
DURATION_49
POSITION_983291
NOTE_ON_64
DURATION_84
POSITION_983372
NOTE_ON_66
DURATION_87
POSITION_983453
NOTE_ON_67
DURATION_60
POSITION_983462
NOTE_ON_52
DURATION_66
POSITION_983458
NOTE_ON_55
DURATION_70
POSITION_983531
NOTE_ON_69
DURATION_92
POSITION_983619
NOTE_ON_71
DURATION_42
POSITION_983619
NOTE_ON_53
DURATION_55
POSITION_983623
NOTE_ON_50
DURATION_51
POSITION_983704
NOTE_ON_72
DURATION_96
POSITION_983789
NOTE_ON_48
DURATION_43
POSITION_983789
NOTE_ON_51
DURATION_48
POSITION_983788
NOTE_ON_74
DURATION_89
POSITION_983874
NOTE_ON_75
DURATION_25
POSITION_983973
NOTE_ON_47
DURATION_85
POSITION_983972
NOTE_ON_50
DURATION_133
POSITION_984081
NOTE_ON_55
DURATION_82
POSITION_983972
NOTE_ON_77
DURATION_209
POSITION_984171
NOTE_ON_67
DURATION_34
POSITION_984171
NOTE_ON_54
DURATION_72
POSITION_984260
NOTE_ON_55
DURATION_80
POSITION_984343
NOTE_ON_57
DURATION_76
POSITION_984426
NOTE_ON_55
DURATION_85
POSITION_984519
NOTE_ON_71
DURATION_45
POSITION_984516
NOTE_ON_54
DURATION_62
POSITION_984593
NOTE_ON_55
DURATION_87
POSITION_984693
NOTE_ON_72
DURATION_33
POSITION_984694
NOTE_ON_52
DURATION_68
POSITION_984779
NOTE_ON_55
DURATION_60
POSITION_984863
NOTE_ON_74
DURATION_38
POSITION_984863
NOTE_ON_52
DURATION_68
POSITION_984940
NOTE_ON_50
DURATION_97
POSITION_985035
NOTE_ON_48
DURATION_69
POSITION_985038
NOTE_ON_76
DURATION_75
POSITION_985113
NOTE_ON_74
DURATION_75
POSITION_985115
NOTE_ON_55
DURATION_77
POSITION_985200
NOTE_ON_54
DURATION_87
POSITION_985195
NOTE_ON_76
DURATION_169
POSITION_985293
NOTE_ON_55
DURATION_73
POSITION_985372
NOTE_ON_66
DURATION_59
POSITION_985376
NOTE_ON_57
DURATION_73
POSITION_985462
NOTE_ON_55
DURATION_70
POSITION_985543
NOTE_ON_69
DURATION_52
POSITION_985545
NOTE_ON_54
DURATION_61
POSITION_985621
NOTE_ON_55
DURATION_86
POSITION_985713
NOTE_ON_71
DURATION_42
POSITION_985709
NOTE_ON_50
DURATION_72
POSITION_985802
NOTE_ON_55
DURATION_67
POSITION_985877
NOTE_ON_72
DURATION_41
POSITION_985874
NOTE_ON_50
DURATION_79
POSITION_985957
NOTE_ON_48
DURATION_99
POSITION_986052
NOTE_ON_47
DURATION_73
POSITION_986040
NOTE_ON_74
DURATION_106
POSITION_986138
NOTE_ON_66
DURATION_74
POSITION_986225
NOTE_ON_55
DURATION_40
POSITION_986223
NOTE_ON_64
DURATION_83
POSITION_986311
NOTE_ON_66
DURATION_81
POSITION_986401
NOTE_ON_67
DURATION_69
POSITION_986490
NOTE_ON_66
DURATION_76
POSITION_986403
NOTE_ON_59
DURATION_192
POSITION_986576
NOTE_ON_55
DURATION_48
POSITION_986573
NOTE_ON_64
DURATION_63
POSITION_986661
NOTE_ON_66
DURATION_90
POSITION_986739
NOTE_ON_52
DURATION_51
POSITION_986743
NOTE_ON_67
DURATION_53
POSITION_986829
NOTE_ON_64
DURATION_72
POSITION_986907
NOTE_ON_48
DURATION_43
POSITION_986913
NOTE_ON_69
DURATION_62
POSITION_987000
NOTE_ON_71
DURATION_83
POSITION_987083
NOTE_ON_45
DURATION_73
POSITION_987084
NOTE_ON_72
DURATION_94
POSITION_987165
NOTE_ON_45
DURATION_22
POSITION_987168
NOTE_ON_64
DURATION_77
POSITION_987257
NOTE_ON_54
DURATION_47
POSITION_987252
NOTE_ON_62
DURATION_68
POSITION_987336
NOTE_ON_64
DURATION_77
POSITION_987436
NOTE_ON_66
DURATION_142
POSITION_987521
NOTE_ON_64
DURATION_69
POSITION_987434
NOTE_ON_57
DURATION_162
POSITION_987606
NOTE_ON_54
DURATION_52
POSITION_987605
NOTE_ON_62
DURATION_70
POSITION_987688
NOTE_ON_64
DURATION_81
POSITION_987769
NOTE_ON_50
DURATION_38
POSITION_987773
NOTE_ON_66
DURATION_67
POSITION_987856
NOTE_ON_62
DURATION_74
POSITION_987943
NOTE_ON_47
DURATION_46
POSITION_987943
NOTE_ON_67
DURATION_70
POSITION_988025
NOTE_ON_69
DURATION_54
POSITION_988111
NOTE_ON_43
DURATION_37
POSITION_988114
NOTE_ON_71
DURATION_98
POSITION_988205
NOTE_ON_69
DURATION_98
POSITION_988281
NOTE_ON_50
DURATION_42
POSITION_988285
NOTE_ON_43
DURATION_58
POSITION_988285
NOTE_ON_67
DURATION_74
POSITION_988371
NOTE_ON_66
DURATION_79
POSITION_988449
NOTE_ON_47
DURATION_48
POSITION_988454
NOTE_ON_67
DURATION_89
POSITION_988542
NOTE_ON_71
DURATION_51
POSITION_988619
NOTE_ON_43
DURATION_34
POSITION_988620
NOTE_ON_62
DURATION_79
POSITION_988701
NOTE_ON_66
DURATION_71
POSITION_988790
NOTE_ON_67
DURATION_85
POSITION_988789
NOTE_ON_42
DURATION_166
POSITION_988963
NOTE_ON_50
DURATION_41
POSITION_988874
NOTE_ON_71
DURATION_148
POSITION_988964
NOTE_ON_62
DURATION_88
POSITION_989048
NOTE_ON_66
DURATION_79
POSITION_989143
NOTE_ON_70
DURATION_79
POSITION_989141
NOTE_ON_40
DURATION_203
POSITION_989227
NOTE_ON_69
DURATION_141
POSITION_989318
NOTE_ON_49
DURATION_60
POSITION_989313
NOTE_ON_67
DURATION_77
POSITION_989393
NOTE_ON_66
DURATION_97
POSITION_989491
NOTE_ON_46
DURATION_45
POSITION_989489
NOTE_ON_67
DURATION_64
POSITION_989582
NOTE_ON_70
DURATION_93
POSITION_989661
NOTE_ON_43
DURATION_53
POSITION_989658
NOTE_ON_61
DURATION_63
POSITION_989737
NOTE_ON_66
DURATION_65
POSITION_989826
NOTE_ON_67
DURATION_93
POSITION_989918
NOTE_ON_70
DURATION_84
POSITION_989846
NOTE_ON_38
DURATION_175
POSITION_990022
NOTE_ON_50
DURATION_51
POSITION_990014
NOTE_ON_62
DURATION_64
POSITION_990096
NOTE_ON_67
DURATION_88
POSITION_990193
NOTE_ON_70
DURATION_49
POSITION_990277
NOTE_ON_69
DURATION_112
POSITION_990202
NOTE_ON_37
DURATION_203
POSITION_990374
NOTE_ON_52
DURATION_57
POSITION_990372
NOTE_ON_67
DURATION_68
POSITION_990460
NOTE_ON_66
DURATION_86
POSITION_990549
NOTE_ON_46
DURATION_46
POSITION_990548
NOTE_ON_67
DURATION_94
POSITION_990642
NOTE_ON_70
DURATION_97
POSITION_990715
NOTE_ON_43
DURATION_81
POSITION_990726
NOTE_ON_61
DURATION_81
POSITION_990813
NOTE_ON_66
DURATION_118
POSITION_990913
NOTE_ON_67
DURATION_117
POSITION_991023
NOTE_ON_70
DURATION_127
POSITION_990908
NOTE_ON_37
DURATION_257
POSITION_991137
NOTE_ON_52
DURATION_47
POSITION_991137
NOTE_ON_69
DURATION_151
POSITION_991269
NOTE_ON_67
DURATION_47
POSITION_991436
NOTE_ON_36
DURATION_67
POSITION_991607
NOTE_ON_78
DURATION_2225
POSITION_991561
NOTE_ON_74
DURATION_2272
POSITION_991507
NOTE_ON_48
DURATION_2326
POSITION_991552
NOTE_ON_69
DURATION_2282
POSITION_991508
NOTE_ON_36
DURATION_2337
POSITION_993879
NOTE_ON_78
DURATION_76
POSITION_993951
NOTE_ON_79
DURATION_78
POSITION_994032
NOTE_ON_81
DURATION_96
POSITION_994112
NOTE_ON_79
DURATION_108
POSITION_994194
NOTE_ON_78
DURATION_97
POSITION_994274
NOTE_ON_76
DURATION_68
POSITION_994349
NOTE_ON_74
DURATION_69
POSITION_994440
NOTE_ON_86
DURATION_28
POSITION_994443
NOTE_ON_76
DURATION_25
POSITION_994518
NOTE_ON_47
DURATION_98
POSITION_994625
NOTE_ON_78
DURATION_24
POSITION_994625
NOTE_ON_48
DURATION_68
POSITION_994710
NOTE_ON_50
DURATION_67
POSITION_994791
NOTE_ON_79
DURATION_28
POSITION_994790
NOTE_ON_48
DURATION_61
POSITION_994868
NOTE_ON_47
DURATION_61
POSITION_994951
NOTE_ON_71
DURATION_33
POSITION_994948
NOTE_ON_45
DURATION_96
POSITION_995039
NOTE_ON_43
DURATION_62
POSITION_995123
NOTE_ON_69
DURATION_38
POSITION_995121
NOTE_ON_50
DURATION_46
POSITION_995329
NOTE_ON_38
DURATION_33
POSITION_995327
NOTE_ON_78
DURATION_39
POSITION_995528
NOTE_ON_67
DURATION_43
POSITION_995635
NOTE_ON_79
DURATION_88
POSITION_995718
NOTE_ON_55
DURATION_21
POSITION_995531
NOTE_ON_43
DURATION_219
POSITION_995722
NOTE_ON_78
DURATION_87
POSITION_995809
NOTE_ON_79
DURATION_81
POSITION_995888
NOTE_ON_76
DURATION_83
POSITION_995972
NOTE_ON_79
DURATION_87
POSITION_996068
NOTE_ON_59
DURATION_37
POSITION_996069
NOTE_ON_74
DURATION_58
POSITION_996148
NOTE_ON_79
DURATION_81
POSITION_996236
NOTE_ON_72
DURATION_33
POSITION_996233
NOTE_ON_52
DURATION_36
POSITION_996326
NOTE_ON_79
DURATION_59
POSITION_996399
NOTE_ON_55
DURATION_39
POSITION_996402
NOTE_ON_71
DURATION_45
POSITION_996482
NOTE_ON_79
DURATION_62
POSITION_996575
NOTE_ON_69
DURATION_120
POSITION_996576
NOTE_ON_43
DURATION_157
POSITION_996655
NOTE_ON_78
DURATION_78
POSITION_996751
NOTE_ON_60
DURATION_37
POSITION_996749
NOTE_ON_76
DURATION_88
POSITION_996842
NOTE_ON_78
DURATION_66
POSITION_996924
NOTE_ON_74
DURATION_60
POSITION_997015
NOTE_ON_78
DURATION_73
POSITION_997097
NOTE_ON_72
DURATION_43
POSITION_997115
NOTE_ON_57
DURATION_33
POSITION_997186
NOTE_ON_78
DURATION_72
POSITION_997268
NOTE_ON_50
DURATION_39
POSITION_997268
NOTE_ON_71
DURATION_50
POSITION_997355
NOTE_ON_78
DURATION_71
POSITION_997435
NOTE_ON_69
DURATION_47
POSITION_997456
NOTE_ON_54
DURATION_26
POSITION_997512
NOTE_ON_72
DURATION_70
POSITION_997604
NOTE_ON_43
DURATION_39
POSITION_997605
NOTE_ON_77
DURATION_60
POSITION_997686
NOTE_ON_67
DURATION_56
POSITION_997689
NOTE_ON_59
DURATION_60
POSITION_997759
NOTE_ON_66
DURATION_60
POSITION_997779
NOTE_ON_57
DURATION_50
POSITION_997856
NOTE_ON_67
DURATION_52
POSITION_997856
NOTE_ON_59
DURATION_113
POSITION_997943
NOTE_ON_69
DURATION_38
POSITION_997944
NOTE_ON_55
DURATION_50
POSITION_998020
NOTE_ON_67
DURATION_62
POSITION_998021
NOTE_ON_59
DURATION_117
POSITION_998109
NOTE_ON_71
DURATION_42
POSITION_998112
NOTE_ON_53
DURATION_39
POSITION_998189
NOTE_ON_59
DURATION_59
POSITION_998190
NOTE_ON_67
DURATION_61
POSITION_998274
NOTE_ON_72
DURATION_30
POSITION_998280
NOTE_ON_52
DURATION_50
POSITION_998357
NOTE_ON_59
DURATION_61
POSITION_998356
NOTE_ON_67
DURATION_64
POSITION_998441
NOTE_ON_50
DURATION_49
POSITION_998437
NOTE_ON_74
DURATION_56
POSITION_998518
NOTE_ON_59
DURATION_46
POSITION_998519
NOTE_ON_67
DURATION_59
POSITION_998612
NOTE_ON_48
DURATION_45
POSITION_998608
NOTE_ON_76
DURATION_65
POSITION_998698
NOTE_ON_66
DURATION_58
POSITION_998696
NOTE_ON_57
DURATION_64
POSITION_998786
NOTE_ON_55
DURATION_50
POSITION_998774
NOTE_ON_64
DURATION_65
POSITION_998858
NOTE_ON_66
DURATION_76
POSITION_998882
NOTE_ON_57
DURATION_59
POSITION_998951
NOTE_ON_67
DURATION_64
POSITION_998971
NOTE_ON_54
DURATION_61
POSITION_999033
NOTE_ON_66
DURATION_91
POSITION_999053
NOTE_ON_57
DURATION_76
POSITION_999134
NOTE_ON_52
DURATION_63
POSITION_999126
NOTE_ON_69
DURATION_71
POSITION_999209
NOTE_ON_66
DURATION_72
POSITION_999208
NOTE_ON_57
DURATION_90
POSITION_999287
NOTE_ON_50
DURATION_69
POSITION_999287
NOTE_ON_71
DURATION_75
POSITION_999370
NOTE_ON_57
DURATION_77
POSITION_999370
NOTE_ON_66
DURATION_84
POSITION_999461
NOTE_ON_48
DURATION_68
POSITION_999456
NOTE_ON_72
DURATION_82
POSITION_999537
NOTE_ON_54
DURATION_7
POSITION_999541
NOTE_ON_66
DURATION_52
POSITION_999538
NOTE_ON_57
DURATION_60
POSITION_999619
NOTE_ON_74
DURATION_60
POSITION_999624
NOTE_ON_47
DURATION_68
POSITION_999694
NOTE_ON_64
DURATION_57
POSITION_999719
NOTE_ON_55
DURATION_61
POSITION_999787
NOTE_ON_62
DURATION_80
POSITION_999807
NOTE_ON_54
DURATION_61
POSITION_999892
NOTE_ON_55
DURATION_57
POSITION_999884
NOTE_ON_64
DURATION_67
POSITION_999966
NOTE_ON_52
DURATION_58
POSITION_999966
NOTE_ON_66
DURATION_76
POSITION_1000046
NOTE_ON_64
DURATION_74
POSITION_1000054
NOTE_ON_55
DURATION_70
POSITION_1000132
NOTE_ON_67
DURATION_50
POSITION_1000132
NOTE_ON_50
DURATION_51
POSITION_1000208
NOTE_ON_55
DURATION_77
POSITION_1000210
NOTE_ON_64
DURATION_79
POSITION_1000294
NOTE_ON_69
DURATION_37
POSITION_1000298
NOTE_ON_48
DURATION_56
POSITION_1000379
NOTE_ON_64
DURATION_68
POSITION_1000378
NOTE_ON_55
DURATION_76
POSITION_1000468
NOTE_ON_69
DURATION_5
POSITION_1000462
NOTE_ON_71
DURATION_45
POSITION_1000464
NOTE_ON_47
DURATION_50
POSITION_1000550
NOTE_ON_55
DURATION_57
POSITION_1000548
NOTE_ON_64
DURATION_94
POSITION_1000638
NOTE_ON_45
DURATION_56
POSITION_1000717
NOTE_ON_48
DURATION_97
POSITION_1000637
NOTE_ON_72
DURATION_212
POSITION_1000807
NOTE_ON_52
DURATION_71
POSITION_1000739
NOTE_ON_64
DURATION_149
POSITION_1000888
NOTE_ON_55
DURATION_87
POSITION_1000979
NOTE_ON_54
DURATION_62
POSITION_1000892
NOTE_ON_64
DURATION_196
POSITION_1001066
NOTE_ON_62
DURATION_87
POSITION_1001156
NOTE_ON_50
DURATION_40
POSITION_1001158
NOTE_ON_69
DURATION_85
POSITION_1001247
NOTE_ON_72
DURATION_100
POSITION_1001343
NOTE_ON_55
DURATION_56
POSITION_1001341
NOTE_ON_71
DURATION_59
POSITION_1001421
NOTE_ON_69
DURATION_47
POSITION_1001506
NOTE_ON_47
DURATION_38
POSITION_1001506
NOTE_ON_67
DURATION_82
POSITION_1001590
NOTE_ON_66
DURATION_90
POSITION_1001673
NOTE_ON_48
DURATION_73
POSITION_1001672
NOTE_ON_64
DURATION_86
POSITION_1001752
NOTE_ON_62
DURATION_83
POSITION_1001833
NOTE_ON_45
DURATION_46
POSITION_1001829
NOTE_ON_60
DURATION_91
POSITION_1001912
NOTE_ON_59
DURATION_63
POSITION_1002000
NOTE_ON_50
DURATION_49
POSITION_1002001
NOTE_ON_57
DURATION_51
POSITION_1002081
NOTE_ON_55
DURATION_95
POSITION_1002166
NOTE_ON_54
DURATION_101
POSITION_1002242
NOTE_ON_52
DURATION_100
POSITION_1002338
NOTE_ON_38
DURATION_77
POSITION_1002334
NOTE_ON_50
DURATION_84
POSITION_1002421
NOTE_ON_48
DURATION_90
POSITION_1002508
NOTE_ON_47
DURATION_73
POSITION_1002596
NOTE_ON_45
DURATION_55
POSITION_1002803
NOTE_ON_43
DURATION_2328
POSITION_1002805
NOTE_ON_31
DURATION_2326
POSITION_1009247
NOTE_ON_79
DURATION_335
POSITION_1009547
NOTE_ON_74
DURATION_1018
POSITION_1010393
NOTE_ON_78
DURATION_422
POSITION_1010458
NOTE_ON_76
DURATION_360
POSITION_1010570
NOTE_ON_74
DURATION_248
POSITION_1010715
NOTE_ON_72
DURATION_126
POSITION_1009461
NOTE_ON_71
DURATION_1388
POSITION_1009593
NOTE_ON_79
DURATION_1379
POSITION_1011026
NOTE_ON_48
DURATION_7
POSITION_1010854
NOTE_ON_71
DURATION_211
POSITION_1009412
NOTE_ON_55
DURATION_1698
POSITION_1010575
NOTE_ON_47
DURATION_617
POSITION_1011008
NOTE_ON_72
DURATION_202
POSITION_1010118
NOTE_ON_43
DURATION_1099
POSITION_1011144
NOTE_ON_71
DURATION_194
POSITION_1011292
NOTE_ON_69
DURATION_197
POSITION_1011020
NOTE_ON_54
DURATION_482
POSITION_1011022
NOTE_ON_50
DURATION_484
POSITION_1011452
NOTE_ON_71
DURATION_343
POSITION_1011625
NOTE_ON_67
DURATION_173
POSITION_1011759
NOTE_ON_69
DURATION_144
POSITION_1011461
NOTE_ON_55
DURATION_463
POSITION_1011903
NOTE_ON_71
DURATION_152
POSITION_1011935
NOTE_ON_55
DURATION_166
POSITION_1012066
NOTE_ON_71
DURATION_42
POSITION_1012075
NOTE_ON_54
DURATION_133
POSITION_1012029
NOTE_ON_69
DURATION_241
POSITION_1012167
NOTE_ON_67
DURATION_211
POSITION_1012350
NOTE_ON_74
DURATION_49
POSITION_1012407
NOTE_ON_72
DURATION_58
POSITION_1012191
NOTE_ON_52
DURATION_347
POSITION_1012367
NOTE_ON_50
DURATION_199
POSITION_1012551
NOTE_ON_48
DURATION_164
POSITION_1012696
NOTE_ON_47
DURATION_153
POSITION_1012474
NOTE_ON_74
DURATION_625
POSITION_1012966
NOTE_ON_47
DURATION_371
POSITION_1012833
NOTE_ON_48
DURATION_581
POSITION_1013127
NOTE_ON_45
DURATION_579
POSITION_1013106
NOTE_ON_74
DURATION_669
POSITION_1013329
NOTE_ON_79
DURATION_446
POSITION_1013343
NOTE_ON_47
DURATION_447
POSITION_1013486
NOTE_ON_81
DURATION_427
POSITION_1013930
NOTE_ON_76
DURATION_306
POSITION_1013631
NOTE_ON_83
DURATION_666
POSITION_1013779
NOTE_ON_74
DURATION_526
POSITION_1014073
NOTE_ON_77
DURATION_585
POSITION_1014389
NOTE_ON_81
DURATION_281
POSITION_1014532
NOTE_ON_83
DURATION_280
POSITION_1014245
NOTE_ON_76
DURATION_897
POSITION_1013782
NOTE_ON_43
DURATION_1437
POSITION_1014818
NOTE_ON_83
DURATION_405
POSITION_1014684
NOTE_ON_45
DURATION_540
POSITION_1014209
NOTE_ON_48
DURATION_1017
POSITION_1014953
NOTE_ON_81
DURATION_275
POSITION_1014677
NOTE_ON_84
DURATION_565
POSITION_1015134
NOTE_ON_79
DURATION_423
POSITION_1015506
NOTE_ON_78
DURATION_104
POSITION_1015302
NOTE_ON_57
DURATION_353
POSITION_1015568
NOTE_ON_79
DURATION_93
POSITION_1015430
NOTE_ON_59
DURATION_242
POSITION_1015902
NOTE_ON_79
DURATION_185
POSITION_1015622
NOTE_ON_60
DURATION_480
POSITION_1016092
NOTE_ON_79
DURATION_110
POSITION_1016155
NOTE_ON_81
DURATION_108
POSITION_1015615
NOTE_ON_78
DURATION_674
POSITION_1016213
NOTE_ON_79
DURATION_77
POSITION_1015924
NOTE_ON_57
DURATION_369
POSITION_1016102
NOTE_ON_55
DURATION_192
POSITION_1015766
NOTE_ON_59
DURATION_528
POSITION_1015117
NOTE_ON_50
DURATION_1185
POSITION_1016301
NOTE_ON_54
DURATION_198
POSITION_1016442
NOTE_ON_55
DURATION_121
POSITION_1016598
NOTE_ON_57
DURATION_168
POSITION_1016743
NOTE_ON_55
DURATION_173
POSITION_1016891
NOTE_ON_54
DURATION_401
POSITION_1017128
NOTE_ON_64
DURATION_364
POSITION_1017335
NOTE_ON_72
DURATION_158
POSITION_1016270
NOTE_ON_81
DURATION_1260
POSITION_1017487
NOTE_ON_71
DURATION_173
POSITION_1017645
NOTE_ON_72
DURATION_158
POSITION_1017788
NOTE_ON_71
DURATION_288
POSITION_1017422
NOTE_ON_63
DURATION_800
POSITION_1017928
NOTE_ON_69
DURATION_317
POSITION_1018233
NOTE_ON_63
DURATION_319
POSITION_1018375
NOTE_ON_61
DURATION_307
POSITION_1018558
NOTE_ON_63
DURATION_360
POSITION_1018688
NOTE_ON_61
DURATION_232
POSITION_1018838
NOTE_ON_59
DURATION_170
POSITION_1018080
NOTE_ON_71
DURATION_940
POSITION_1018533
NOTE_ON_81
DURATION_848
POSITION_1019392
NOTE_ON_81
DURATION_182
POSITION_1019248
NOTE_ON_79
DURATION_337
POSITION_1019556
NOTE_ON_83
DURATION_447
POSITION_1019844
NOTE_ON_79
DURATION_161
POSITION_1019575
NOTE_ON_52
DURATION_467
POSITION_1019699
NOTE_ON_81
DURATION_581
POSITION_1019995
NOTE_ON_78
DURATION_293
POSITION_1020020
NOTE_ON_55
DURATION_294
POSITION_1020139
NOTE_ON_76
DURATION_182
POSITION_1019036
NOTE_ON_64
DURATION_1305
POSITION_1020291
NOTE_ON_78
DURATION_196
POSITION_1020445
NOTE_ON_79
DURATION_143
POSITION_1020453
NOTE_ON_52
DURATION_618
POSITION_1020737
NOTE_ON_76
DURATION_334
POSITION_1020892
NOTE_ON_74
DURATION_189
POSITION_1020582
NOTE_ON_78
DURATION_504
POSITION_1021054
NOTE_ON_73
DURATION_161
POSITION_1020892
NOTE_ON_57
DURATION_371
POSITION_1021205
NOTE_ON_74
DURATION_167
POSITION_1021358
NOTE_ON_76
DURATION_166
POSITION_1021494
NOTE_ON_74
DURATION_164
POSITION_1021636
NOTE_ON_73
DURATION_154
POSITION_1021804
NOTE_ON_71
DURATION_293
POSITION_1021364
NOTE_ON_45
DURATION_813
POSITION_1021988
NOTE_ON_49
DURATION_196
POSITION_1022160
NOTE_ON_47
DURATION_152
POSITION_1022088
NOTE_ON_69
DURATION_274
POSITION_1022310
NOTE_ON_49
DURATION_208
POSITION_1022489
NOTE_ON_47
DURATION_174
POSITION_1022646
NOTE_ON_45
DURATION_132
POSITION_1022343
NOTE_ON_79
DURATION_878
POSITION_1023074
NOTE_ON_78
DURATION_355
POSITION_1023232
NOTE_ON_79
DURATION_198
POSITION_1023692
NOTE_ON_78
DURATION_187
POSITION_1023404
NOTE_ON_38
DURATION_516
POSITION_1023397
NOTE_ON_81
DURATION_523
POSITION_1023547
NOTE_ON_79
DURATION_396
POSITION_1023852
NOTE_ON_76
DURATION_161
POSITION_1024021
NOTE_ON_74
DURATION_166
POSITION_1023869
NOTE_ON_42
DURATION_453
POSITION_1024164
NOTE_ON_76
DURATION_167
POSITION_1022857
NOTE_ON_50
DURATION_1585
POSITION_1024345
NOTE_ON_38
DURATION_389
POSITION_1024317
NOTE_ON_78
DURATION_517
POSITION_1024617
NOTE_ON_74
DURATION_222
POSITION_1024472
NOTE_ON_76
DURATION_531
POSITION_1024809
NOTE_ON_72
DURATION_302
POSITION_1024981
NOTE_ON_71
DURATION_162
POSITION_1025122
NOTE_ON_72
DURATION_163
POSITION_1025278
NOTE_ON_74
DURATION_159
POSITION_1025421
NOTE_ON_72
DURATION_157
POSITION_1025289
NOTE_ON_55
DURATION_458
POSITION_1024752
NOTE_ON_43
DURATION_1019
POSITION_1025574
NOTE_ON_71
DURATION_205
POSITION_1025729
NOTE_ON_69
DURATION_244
POSITION_1025885
NOTE_ON_55
DURATION_151
POSITION_1026052
NOTE_ON_57
DURATION_295
POSITION_1026175
NOTE_ON_59
DURATION_172
POSITION_1025982
NOTE_ON_67
DURATION_365
POSITION_1026352
NOTE_ON_59
DURATION_172
POSITION_1026506
NOTE_ON_61
DURATION_257
POSITION_1026257
NOTE_ON_77
DURATION_735
POSITION_1026937
NOTE_ON_76
DURATION_157
POSITION_1027088
NOTE_ON_74
DURATION_199
POSITION_1026720
NOTE_ON_62
DURATION_574
POSITION_1027253
NOTE_ON_76
DURATION_177
POSITION_1027402
NOTE_ON_74
DURATION_158
POSITION_1027540
NOTE_ON_73
DURATION_141
POSITION_1027688
NOTE_ON_74
DURATION_177
POSITION_1027834
NOTE_ON_73
DURATION_169
POSITION_1027695
NOTE_ON_59
DURATION_538
POSITION_1027982
NOTE_ON_71
DURATION_256
POSITION_1027251
NOTE_ON_56
DURATION_993
POSITION_1028189
NOTE_ON_52
DURATION_631
POSITION_1028194
NOTE_ON_80
DURATION_764
POSITION_1028918
NOTE_ON_74
DURATION_555
POSITION_1029419
NOTE_ON_73
DURATION_115
POSITION_1028766
NOTE_ON_45
DURATION_807
POSITION_1029017
NOTE_ON_57
DURATION_559
POSITION_1028647
NOTE_ON_81
DURATION_936
POSITION_1028831
NOTE_ON_52
DURATION_765
POSITION_1029483
NOTE_ON_74
DURATION_126
POSITION_1029847
NOTE_ON_55
DURATION_107
POSITION_1029948
NOTE_ON_54
DURATION_166
POSITION_1030105
NOTE_ON_52
DURATION_202
POSITION_1030283
NOTE_ON_50
DURATION_167
POSITION_1030265
NOTE_ON_74
DURATION_188
POSITION_1029540
NOTE_ON_73
DURATION_931
POSITION_1030445
NOTE_ON_49
DURATION_178
POSITION_1030572
NOTE_ON_67
DURATION_291
POSITION_1030413
NOTE_ON_76
DURATION_507
POSITION_1030720
NOTE_ON_49
DURATION_220
POSITION_1030896
NOTE_ON_47
DURATION_261
POSITION_1031154
NOTE_ON_49
DURATION_262
POSITION_1030874
NOTE_ON_67
DURATION_596
POSITION_1031346
NOTE_ON_45
DURATION_176
POSITION_1031512
NOTE_ON_47
DURATION_193
POSITION_1031486
NOTE_ON_66
DURATION_232
POSITION_1031689
NOTE_ON_49
DURATION_156
POSITION_1031816
NOTE_ON_47
DURATION_116
POSITION_1031958
NOTE_ON_45
DURATION_131
POSITION_1031965
NOTE_ON_69
DURATION_220
POSITION_1032135
NOTE_ON_50
DURATION_206
POSITION_1032301
NOTE_ON_54
DURATION_285
POSITION_1032458
NOTE_ON_52
DURATION_132
POSITION_1032433
NOTE_ON_69
DURATION_198
POSITION_1031106
NOTE_ON_76
DURATION_1615
POSITION_1032602
NOTE_ON_74
DURATION_484
POSITION_1032907
NOTE_ON_54
DURATION_181
POSITION_1032602
NOTE_ON_50
DURATION_488
POSITION_1032747
NOTE_ON_52
DURATION_344
POSITION_1032889
NOTE_ON_72
DURATION_204
POSITION_1032135
NOTE_ON_66
DURATION_963
POSITION_1031655
NOTE_ON_64
DURATION_1497
POSITION_1033071
NOTE_ON_55
DURATION_149
POSITION_1033218
NOTE_ON_57
DURATION_141
POSITION_1033381
NOTE_ON_59
DURATION_174
POSITION_1033531
NOTE_ON_51
DURATION_129
POSITION_1033071
NOTE_ON_71
DURATION_764
POSITION_1033512
NOTE_ON_66
DURATION_328
POSITION_1033671
NOTE_ON_52
DURATION_172
POSITION_1033817
NOTE_ON_54
DURATION_160
POSITION_1033809
NOTE_ON_69
DURATION_206
POSITION_1033359
NOTE_ON_64
DURATION_676
POSITION_1033994
NOTE_ON_52
DURATION_127
POSITION_1034131
NOTE_ON_59
DURATION_124
POSITION_1033983
NOTE_ON_67
DURATION_274
POSITION_1034284
NOTE_ON_61
DURATION_131
POSITION_1034283
NOTE_ON_79
DURATION_193
POSITION_1034600
NOTE_ON_61
DURATION_349
POSITION_1034268
NOTE_ON_67
DURATION_695
POSITION_1034724
NOTE_ON_79
DURATION_240
POSITION_1034443
NOTE_ON_78
DURATION_521
POSITION_1034743
NOTE_ON_59
DURATION_223
POSITION_1034456
NOTE_ON_62
DURATION_511
POSITION_1034954
NOTE_ON_61
DURATION_125
POSITION_1035127
NOTE_ON_57
DURATION_147
POSITION_1035268
NOTE_ON_59
DURATION_163
POSITION_1035262
NOTE_ON_66
DURATION_183
POSITION_1035431
NOTE_ON_61
DURATION_432
POSITION_1034937
NOTE_ON_69
DURATION_956
POSITION_1035424
NOTE_ON_64
DURATION_508
POSITION_1035715
NOTE_ON_57
DURATION_222
POSITION_1035559
NOTE_ON_59
DURATION_388
POSITION_1035889
NOTE_ON_62
DURATION_178
POSITION_1036037
NOTE_ON_61
DURATION_144
POSITION_1036173
NOTE_ON_74
DURATION_170
POSITION_1036189
NOTE_ON_59
DURATION_180
POSITION_1035711
NOTE_ON_67
DURATION_774
POSITION_1036690
NOTE_ON_78
DURATION_299
POSITION_1035882
NOTE_ON_66
DURATION_1108
POSITION_1036514
NOTE_ON_59
DURATION_478
POSITION_1036350
NOTE_ON_76
DURATION_642
POSITION_1036695
NOTE_ON_60
DURATION_308
POSITION_1036359
NOTE_ON_57
DURATION_648
POSITION_1037235
NOTE_ON_66
DURATION_190
POSITION_1037385
NOTE_ON_64
DURATION_305
POSITION_1036998
NOTE_ON_59
DURATION_861
POSITION_1037537
NOTE_ON_66
DURATION_350
POSITION_1037695
NOTE_ON_64
DURATION_295
POSITION_1037832
NOTE_ON_63
DURATION_242
POSITION_1036951
NOTE_ON_67
DURATION_1177
POSITION_1038152
NOTE_ON_57
DURATION_164
POSITION_1038315
NOTE_ON_55
DURATION_102
POSITION_1038287
NOTE_ON_71
DURATION_215
POSITION_1038486
NOTE_ON_54
DURATION_159
POSITION_1038001
NOTE_ON_64
DURATION_941
POSITION_1038778
NOTE_ON_72
DURATION_253
POSITION_1038612
NOTE_ON_55
DURATION_422
POSITION_1038455
NOTE_ON_69
DURATION_602
POSITION_1038785
NOTE_ON_57
DURATION_319
POSITION_1039220
NOTE_ON_63
DURATION_163
POSITION_1039374
NOTE_ON_64
DURATION_158
POSITION_1039522
NOTE_ON_66
DURATION_179
POSITION_1039672
NOTE_ON_64
DURATION_151
POSITION_1039820
NOTE_ON_63
DURATION_169
POSITION_1039044
NOTE_ON_55
DURATION_1119
POSITION_1039977
NOTE_ON_64
DURATION_194
POSITION_1040118
NOTE_ON_66
DURATION_187
POSITION_1040146
NOTE_ON_54
DURATION_160
POSITION_1040266
NOTE_ON_67
DURATION_179
POSITION_1039009
NOTE_ON_71
DURATION_1462
POSITION_1040267
NOTE_ON_52
DURATION_296
POSITION_1040411
NOTE_ON_69
DURATION_195
POSITION_1040421
NOTE_ON_51
DURATION_249
POSITION_1040573
NOTE_ON_52
DURATION_128
POSITION_1040567
NOTE_ON_67
DURATION_167
POSITION_1040705
NOTE_ON_54
DURATION_124
POSITION_1040702
NOTE_ON_66
DURATION_171
POSITION_1041057
NOTE_ON_73
DURATION_161
POSITION_1041199
NOTE_ON_74
DURATION_180
POSITION_1041356
NOTE_ON_76
DURATION_176
POSITION_1041497
NOTE_ON_74
DURATION_279
POSITION_1041634
NOTE_ON_73
DURATION_303
POSITION_1041783
NOTE_ON_74
DURATION_216
POSITION_1040886
NOTE_ON_67
DURATION_1231
POSITION_1041922
NOTE_ON_76
DURATION_203
POSITION_1041945
NOTE_ON_50
DURATION_180
POSITION_1040842
NOTE_ON_52
DURATION_1310
POSITION_1042074
NOTE_ON_78
DURATION_180
POSITION_1042080
NOTE_ON_49
DURATION_195
POSITION_1041949
NOTE_ON_73
DURATION_380
POSITION_1042225
NOTE_ON_79
DURATION_152
POSITION_1042238
NOTE_ON_47
DURATION_155
POSITION_1042373
NOTE_ON_49
DURATION_286
POSITION_1042518
NOTE_ON_50
DURATION_178
POSITION_1042369
NOTE_ON_78
DURATION_390
POSITION_1042517
NOTE_ON_76
DURATION_332
POSITION_1042670
NOTE_ON_49
DURATION_197
POSITION_1043134
NOTE_ON_71
DURATION_278
POSITION_1043287
NOTE_ON_73
DURATION_133
POSITION_1042754
NOTE_ON_81
DURATION_942
POSITION_1043308
NOTE_ON_45
DURATION_411
POSITION_1043561
NOTE_ON_74
DURATION_163
POSITION_1042987
NOTE_ON_69
DURATION_763
POSITION_1043428
NOTE_ON_73
DURATION_360
POSITION_1043715
NOTE_ON_76
DURATION_150
POSITION_1043876
NOTE_ON_76
DURATION_285
POSITION_1043725
NOTE_ON_40
DURATION_439
POSITION_1044014
NOTE_ON_78
DURATION_158
POSITION_1044160
NOTE_ON_79
DURATION_143
POSITION_1044465
NOTE_ON_81
DURATION_270
POSITION_1044166
NOTE_ON_37
DURATION_569
POSITION_1044314
NOTE_ON_79
DURATION_423
POSITION_1044625
NOTE_ON_33
DURATION_169
POSITION_1044703
NOTE_ON_82
DURATION_716
POSITION_1045180
NOTE_ON_80
DURATION_240
POSITION_1045022
NOTE_ON_45
DURATION_399
POSITION_1045203
NOTE_ON_47
DURATION_220
POSITION_1045373
NOTE_ON_49
DURATION_151
POSITION_1045526
NOTE_ON_50
DURATION_139
POSITION_1045676
NOTE_ON_52
DURATION_185
POSITION_1045825
NOTE_ON_54
DURATION_179
POSITION_1045960
NOTE_ON_55
DURATION_147
POSITION_1045365
NOTE_ON_81
DURATION_804
POSITION_1046119
NOTE_ON_57
DURATION_139
POSITION_1046288
NOTE_ON_59
DURATION_164
POSITION_1046263
NOTE_ON_86
DURATION_302
POSITION_1046561
NOTE_ON_78
DURATION_238
POSITION_1046572
NOTE_ON_62
DURATION_239
POSITION_1046102
NOTE_ON_85
DURATION_712
POSITION_1046745
NOTE_ON_80
DURATION_108
POSITION_1046415
NOTE_ON_61
DURATION_461
POSITION_1046805
NOTE_ON_78
DURATION_74
POSITION_1046763
NOTE_ON_64
DURATION_159
POSITION_1047028
NOTE_ON_62
DURATION_142
POSITION_1046862
NOTE_ON_80
DURATION_352
POSITION_1047193
NOTE_ON_61
DURATION_165
POSITION_1047365
NOTE_ON_66
DURATION_171
POSITION_1047330
NOTE_ON_73
DURATION_421
POSITION_1047499
NOTE_ON_64
DURATION_344
POSITION_1047652
NOTE_ON_62
DURATION_205
POSITION_1047164
NOTE_ON_81
DURATION_718
POSITION_1047631
NOTE_ON_74
DURATION_356
POSITION_1047909
NOTE_ON_78
DURATION_764
POSITION_1048554
NOTE_ON_76
DURATION_196
POSITION_1048683
NOTE_ON_78
DURATION_128
POSITION_1048756
NOTE_ON_76
DURATION_101
POSITION_1048438
NOTE_ON_57
DURATION_539
POSITION_1048817
NOTE_ON_78
DURATION_160
POSITION_1047871
NOTE_ON_69
DURATION_1106
POSITION_1048869
NOTE_ON_76
DURATION_112
POSITION_1048954
NOTE_ON_74
DURATION_241
POSITION_1049203
NOTE_ON_74
DURATION_204
POSITION_1049536
NOTE_ON_71
DURATION_217
POSITION_1049157
NOTE_ON_59
DURATION_622
POSITION_1049706
NOTE_ON_72
DURATION_162
POSITION_1049386
NOTE_ON_73
DURATION_500
POSITION_1049536
NOTE_ON_62
DURATION_473
POSITION_1049863
NOTE_ON_71
DURATION_330
POSITION_1049737
NOTE_ON_57
DURATION_461
POSITION_1050012
NOTE_ON_69
DURATION_188
POSITION_1049733
NOTE_ON_54
DURATION_472
POSITION_1050018
NOTE_ON_62
DURATION_190
POSITION_1050201
NOTE_ON_71
DURATION_154
POSITION_1050355
NOTE_ON_69
DURATION_299
POSITION_1050524
NOTE_ON_62
DURATION_168
POSITION_1050493
NOTE_ON_67
DURATION_215
POSITION_1050204
NOTE_ON_55
DURATION_506
POSITION_1050361
NOTE_ON_71
DURATION_362
POSITION_1050666
NOTE_ON_69
DURATION_188
POSITION_1050689
NOTE_ON_54
DURATION_211
POSITION_1050818
NOTE_ON_67
DURATION_305
POSITION_1050965
NOTE_ON_66
DURATION_173
POSITION_1051173
NOTE_ON_49
DURATION_11
POSITION_1050967
NOTE_ON_62
DURATION_220
POSITION_1050689
NOTE_ON_47
DURATION_587
POSITION_1051133
NOTE_ON_67
DURATION_162
POSITION_1051278
NOTE_ON_66
DURATION_185
POSITION_1051134
NOTE_ON_52
DURATION_549
POSITION_1051430
NOTE_ON_64
DURATION_296
POSITION_1051689
NOTE_ON_52
DURATION_87
POSITION_1051665
NOTE_ON_66
DURATION_745
POSITION_1051688
NOTE_ON_50
DURATION_723
POSITION_1052113
NOTE_ON_74
DURATION_298
POSITION_1051440
NOTE_ON_57
DURATION_971
POSITION_1052698
NOTE_ON_67
DURATION_209
POSITION_1052357
NOTE_ON_64
DURATION_617
POSITION_1052900
NOTE_ON_74
DURATION_634
POSITION_1053261
NOTE_ON_73
DURATION_300
POSITION_1052921
NOTE_ON_55
DURATION_1086
POSITION_1054000
NOTE_ON_52
DURATION_85
POSITION_1053928
NOTE_ON_54
DURATION_574
POSITION_1054544
NOTE_ON_69
DURATION_142
POSITION_1054620
NOTE_ON_67
DURATION_120
POSITION_1053541
NOTE_ON_74
DURATION_1276
POSITION_1054716
NOTE_ON_66
DURATION_147
POSITION_1054695
NOTE_ON_69
DURATION_168
POSITION_1053466
NOTE_ON_50
DURATION_1681
POSITION_1054868
NOTE_ON_66
DURATION_287
POSITION_1054713
NOTE_ON_62
DURATION_449
POSITION_1055006
NOTE_ON_64
DURATION_272
POSITION_1055173
NOTE_ON_62
DURATION_128
POSITION_1055180
NOTE_ON_57
DURATION_466
POSITION_1055306
NOTE_ON_62
DURATION_348
POSITION_1052309
NOTE_ON_45
DURATION_3460
POSITION_1054872
NOTE_ON_69
DURATION_897
POSITION_1055470
NOTE_ON_61
DURATION_314
POSITION_1055161
NOTE_ON_66
DURATION_654
POSITION_1055812
NOTE_ON_50
DURATION_318
POSITION_1055980
NOTE_ON_49
DURATION_227
POSITION_1056295
NOTE_ON_45
DURATION_33
POSITION_1056136
NOTE_ON_50
DURATION_386
POSITION_1056464
NOTE_ON_42
DURATION_273
POSITION_1055658
NOTE_ON_57
DURATION_2200
POSITION_1055657
NOTE_ON_54
DURATION_2204
POSITION_1056725
NOTE_ON_38
DURATION_1141
POSITION_1055659
NOTE_ON_62
DURATION_2210
POSITION_1057935
NOTE_ON_79
DURATION_136
POSITION_1058238
NOTE_ON_74
DURATION_1102
POSITION_1058866
NOTE_ON_43
DURATION_518
POSITION_1058179
NOTE_ON_71
DURATION_1269
POSITION_1058114
NOTE_ON_55
DURATION_1365
POSITION_1058301
NOTE_ON_79
DURATION_1308
POSITION_1059244
NOTE_ON_76
DURATION_442
POSITION_1059515
NOTE_ON_72
DURATION_294
POSITION_1059346
NOTE_ON_74
DURATION_486
POSITION_1059659
NOTE_ON_71
DURATION_204
POSITION_1059172
NOTE_ON_78
DURATION_729
POSITION_1059818
NOTE_ON_72
DURATION_175
POSITION_1059962
NOTE_ON_71
DURATION_154
POSITION_1060110
NOTE_ON_69
DURATION_162
POSITION_1060122
NOTE_ON_71
DURATION_163
POSITION_1059829
NOTE_ON_54
DURATION_457
POSITION_1059827
NOTE_ON_50
DURATION_529
POSITION_1059378
NOTE_ON_47
DURATION_1045
POSITION_1060290
NOTE_ON_71
DURATION_293
POSITION_1060503
NOTE_ON_67
DURATION_191
POSITION_1060313
NOTE_ON_55
DURATION_431
POSITION_1060650
NOTE_ON_69
DURATION_141
POSITION_1060795
NOTE_ON_71
DURATION_166
POSITION_1060955
NOTE_ON_54
DURATION_152
POSITION_1061089
NOTE_ON_52
DURATION_209
POSITION_1060924
NOTE_ON_69
DURATION_375
POSITION_1061055
NOTE_ON_67
DURATION_248
POSITION_1061310
NOTE_ON_72
DURATION_45
POSITION_1061247
NOTE_ON_74
DURATION_113
POSITION_1061310
NOTE_ON_50
DURATION_245
POSITION_1061518
NOTE_ON_48
DURATION_128
POSITION_1061664
NOTE_ON_47
DURATION_272
POSITION_1061800
NOTE_ON_48
DURATION_205
POSITION_1061368
NOTE_ON_74
DURATION_714
POSITION_1061941
NOTE_ON_47
DURATION_395
POSITION_1062108
NOTE_ON_45
DURATION_283
POSITION_1062309
NOTE_ON_79
DURATION_207
POSITION_1062087
NOTE_ON_74
DURATION_633
POSITION_1062344
NOTE_ON_47
DURATION_498
POSITION_1062501
NOTE_ON_81
DURATION_556
POSITION_1062658
NOTE_ON_83
DURATION_484
POSITION_1062966
NOTE_ON_76
DURATION_306
POSITION_1063111
NOTE_ON_77
DURATION_169
POSITION_1062808
NOTE_ON_74
DURATION_480
POSITION_1063431
NOTE_ON_81
DURATION_195
POSITION_1063554
NOTE_ON_83
DURATION_141
POSITION_1062815
NOTE_ON_43
DURATION_941
POSITION_1063227
NOTE_ON_48
DURATION_539
POSITION_1063277
NOTE_ON_76
DURATION_489
POSITION_1063631
NOTE_ON_81
DURATION_138
POSITION_1063699
NOTE_ON_83
DURATION_142
POSITION_1063812
NOTE_ON_45
DURATION_605
POSITION_1064151
NOTE_ON_81
DURATION_312
POSITION_1064012
NOTE_ON_83
DURATION_451
POSITION_1063777
NOTE_ON_84
DURATION_694
POSITION_1064322
NOTE_ON_79
DURATION_456
POSITION_1064326
NOTE_ON_50
DURATION_489
POSITION_1064497
NOTE_ON_57
DURATION_323
POSITION_1064728
NOTE_ON_78
DURATION_111
POSITION_1064630
NOTE_ON_59
DURATION_211
POSITION_1064789
NOTE_ON_79
DURATION_85
POSITION_1064846
NOTE_ON_60
DURATION_174
POSITION_1064849
NOTE_ON_78
DURATION_276
POSITION_1065009
NOTE_ON_59
DURATION_306
POSITION_1065133
NOTE_ON_79
DURATION_205
POSITION_1065158
NOTE_ON_57
DURATION_231
POSITION_1065344
NOTE_ON_79
DURATION_102
POSITION_1065397
NOTE_ON_81
DURATION_87
POSITION_1065349
NOTE_ON_55
DURATION_178
POSITION_1065454
NOTE_ON_79
DURATION_107
POSITION_1065527
NOTE_ON_54
DURATION_148
POSITION_1065673
NOTE_ON_55
DURATION_130
POSITION_1065827
NOTE_ON_57
DURATION_145
POSITION_1065967
NOTE_ON_55
DURATION_159
POSITION_1066124
NOTE_ON_54
DURATION_287
POSITION_1066547
NOTE_ON_72
DURATION_163
POSITION_1066351
NOTE_ON_64
DURATION_370
POSITION_1065495
NOTE_ON_81
DURATION_1264
POSITION_1066704
NOTE_ON_71
DURATION_159
POSITION_1066854
NOTE_ON_72
DURATION_169
POSITION_1067000
NOTE_ON_71
DURATION_170
POSITION_1066669
NOTE_ON_63
DURATION_643
POSITION_1067134
NOTE_ON_69
DURATION_178
POSITION_1067452
NOTE_ON_63
DURATION_175
POSITION_1067602
NOTE_ON_61
DURATION_144
POSITION_1067770
NOTE_ON_63
DURATION_207
POSITION_1067915
NOTE_ON_61
DURATION_139
POSITION_1068075
NOTE_ON_59
DURATION_101
POSITION_1067301
NOTE_ON_71
DURATION_1017
POSITION_1067768
NOTE_ON_81
DURATION_707
POSITION_1068263
NOTE_ON_59
DURATION_240
POSITION_1068457
NOTE_ON_79
DURATION_179
POSITION_1068604
NOTE_ON_81
DURATION_187
POSITION_1068771
NOTE_ON_83
DURATION_176
POSITION_1068777
NOTE_ON_52
DURATION_412
POSITION_1068265
NOTE_ON_64
DURATION_952
POSITION_1069067
NOTE_ON_79
DURATION_185
POSITION_1068915
NOTE_ON_81
DURATION_386
POSITION_1069229
NOTE_ON_78
DURATION_177
POSITION_1069380
NOTE_ON_76
DURATION_183
POSITION_1069235
NOTE_ON_55
DURATION_464
POSITION_1069528
NOTE_ON_78
DURATION_179
POSITION_1069676
NOTE_ON_79
DURATION_164
POSITION_1069827
NOTE_ON_78
DURATION_183
POSITION_1069973
NOTE_ON_76
DURATION_153
POSITION_1069710
NOTE_ON_52
DURATION_474
POSITION_1070135
NOTE_ON_74
DURATION_209
POSITION_1070314
NOTE_ON_73
DURATION_181
POSITION_1070135
NOTE_ON_57
DURATION_367
POSITION_1070458
NOTE_ON_74
DURATION_176
POSITION_1070616
NOTE_ON_76
DURATION_171
POSITION_1070766
NOTE_ON_74
DURATION_142
POSITION_1070909
NOTE_ON_73
DURATION_139
POSITION_1070627
NOTE_ON_45
DURATION_589
POSITION_1071070
NOTE_ON_71
DURATION_297
POSITION_1071240
NOTE_ON_49
DURATION_235
POSITION_1071334
NOTE_ON_69
DURATION_254
POSITION_1071426
NOTE_ON_47
DURATION_181
POSITION_1071584
NOTE_ON_49
DURATION_207
POSITION_1071742
NOTE_ON_47
DURATION_176
POSITION_1071904
NOTE_ON_45
DURATION_181
POSITION_1071584
NOTE_ON_79
DURATION_763
POSITION_1072324
NOTE_ON_78
DURATION_161
POSITION_1072102
NOTE_ON_50
DURATION_560
POSITION_1072476
NOTE_ON_79
DURATION_192
POSITION_1072652
NOTE_ON_81
DURATION_163
POSITION_1072794
NOTE_ON_79
DURATION_175
POSITION_1072660
NOTE_ON_38
DURATION_459
POSITION_1072947
NOTE_ON_78
DURATION_182
POSITION_1073098
NOTE_ON_76
DURATION_189
POSITION_1073255
NOTE_ON_74
DURATION_185
POSITION_1073128
NOTE_ON_42
DURATION_434
POSITION_1073407
NOTE_ON_76
DURATION_173
POSITION_1073713
NOTE_ON_76
DURATION_176
POSITION_1073567
NOTE_ON_78
DURATION_335
POSITION_1073569
NOTE_ON_38
DURATION_398
POSITION_1073858
NOTE_ON_74
DURATION_172
POSITION_1074033
NOTE_ON_72
DURATION_207
POSITION_1074211
NOTE_ON_71
DURATION_236
POSITION_1074356
NOTE_ON_72
DURATION_160
POSITION_1074498
NOTE_ON_74
DURATION_196
POSITION_1074656
NOTE_ON_72
DURATION_135
POSITION_1074007
NOTE_ON_43
DURATION_885
POSITION_1074800
NOTE_ON_71
DURATION_192
POSITION_1074528
NOTE_ON_55
DURATION_535
POSITION_1074962
NOTE_ON_69
DURATION_284
POSITION_1075164
NOTE_ON_55
DURATION_155
POSITION_1075327
NOTE_ON_57
DURATION_147
POSITION_1075496
NOTE_ON_59
DURATION_51
POSITION_1075230
NOTE_ON_67
DURATION_345
POSITION_1075641
NOTE_ON_59
DURATION_185
POSITION_1075789
NOTE_ON_61
DURATION_269
POSITION_1075472
NOTE_ON_77
DURATION_740
POSITION_1076198
NOTE_ON_76
DURATION_173
POSITION_1075994
NOTE_ON_62
DURATION_553
POSITION_1076360
NOTE_ON_74
DURATION_196
POSITION_1076528
NOTE_ON_76
DURATION_219
POSITION_1076678
NOTE_ON_74
DURATION_162
POSITION_1076510
NOTE_ON_56
DURATION_482
POSITION_1076822
NOTE_ON_73
DURATION_179
POSITION_1076976
NOTE_ON_74
DURATION_182
POSITION_1077124
NOTE_ON_73
DURATION_184
POSITION_1076984
NOTE_ON_59
DURATION_512
POSITION_1077275
NOTE_ON_71
DURATION_275
POSITION_1077531
NOTE_ON_80
DURATION_521
POSITION_1077555
NOTE_ON_71
DURATION_509
POSITION_1077438
NOTE_ON_52
DURATION_734
POSITION_1078273
NOTE_ON_74
DURATION_551
POSITION_1078765
NOTE_ON_73
DURATION_106
POSITION_1078117
NOTE_ON_45
DURATION_806
POSITION_1078391
NOTE_ON_57
DURATION_536
POSITION_1078004
NOTE_ON_81
DURATION_924
POSITION_1078829
NOTE_ON_74
DURATION_102
POSITION_1078183
NOTE_ON_52
DURATION_1033
POSITION_1079157
NOTE_ON_55
DURATION_137
POSITION_1079258
NOTE_ON_54
DURATION_146
POSITION_1079389
NOTE_ON_52
DURATION_178
POSITION_1078881
NOTE_ON_73
DURATION_727
POSITION_1079558
NOTE_ON_50
DURATION_150
POSITION_1079540
NOTE_ON_74
DURATION_240
POSITION_1079713
NOTE_ON_49
DURATION_169
POSITION_1080024
NOTE_ON_49
DURATION_46
POSITION_1079855
NOTE_ON_67
DURATION_298
POSITION_1079688
NOTE_ON_76
DURATION_626
POSITION_1080164
NOTE_ON_67
DURATION_274
POSITION_1080199
NOTE_ON_47
DURATION_242
POSITION_1079869
NOTE_ON_50
DURATION_572
POSITION_1080441
NOTE_ON_49
DURATION_172
POSITION_1080606
NOTE_ON_45
DURATION_164
POSITION_1080768
NOTE_ON_47
DURATION_186
POSITION_1080744
NOTE_ON_66
DURATION_239
POSITION_1080925
NOTE_ON_49
DURATION_196
POSITION_1081072
NOTE_ON_47
DURATION_167
POSITION_1081232
NOTE_ON_45
DURATION_146
POSITION_1081224
NOTE_ON_69
DURATION_197
POSITION_1081417
NOTE_ON_50
DURATION_180
POSITION_1081738
NOTE_ON_52
DURATION_147
POSITION_1081907
NOTE_ON_50
DURATION_152
POSITION_1081600
NOTE_ON_54
DURATION_488
POSITION_1081908
NOTE_ON_74
DURATION_331
POSITION_1081732
NOTE_ON_69
DURATION_525
POSITION_1082061
NOTE_ON_52
DURATION_365
POSITION_1082227
NOTE_ON_54
DURATION_202
POSITION_1081408
NOTE_ON_66
DURATION_1041
POSITION_1080403
NOTE_ON_76
DURATION_2046
POSITION_1082214
NOTE_ON_72
DURATION_243
POSITION_1080917
NOTE_ON_64
DURATION_1609
POSITION_1082409
NOTE_ON_55
DURATION_163
POSITION_1082554
NOTE_ON_57
DURATION_149
POSITION_1082399
NOTE_ON_71
DURATION_484
POSITION_1082710
NOTE_ON_59
DURATION_178
POSITION_1082860
NOTE_ON_51
DURATION_146
POSITION_1082860
NOTE_ON_66
DURATION_293
POSITION_1083010
NOTE_ON_52
DURATION_200
POSITION_1083162
NOTE_ON_54
DURATION_53
POSITION_1082697
NOTE_ON_64
DURATION_674
POSITION_1083328
NOTE_ON_52
DURATION_139
POSITION_1083481
NOTE_ON_59
DURATION_162
POSITION_1083160
NOTE_ON_69
DURATION_511
POSITION_1083629
NOTE_ON_61
DURATION_203
POSITION_1083804
NOTE_ON_62
DURATION_123
POSITION_1083627
NOTE_ON_79
DURATION_366
POSITION_1083935
NOTE_ON_61
DURATION_365
POSITION_1084088
NOTE_ON_59
DURATION_226
POSITION_1084073
NOTE_ON_79
DURATION_335
POSITION_1083326
NOTE_ON_67
DURATION_1212
POSITION_1083781
NOTE_ON_78
DURATION_773
POSITION_1084311
NOTE_ON_61
DURATION_250
POSITION_1084480
NOTE_ON_57
DURATION_154
POSITION_1084631
NOTE_ON_59
DURATION_162
POSITION_1084611
NOTE_ON_66
DURATION_191
POSITION_1084290
NOTE_ON_69
DURATION_863
POSITION_1085066
NOTE_ON_67
DURATION_248
POSITION_1084789
NOTE_ON_61
DURATION_528
POSITION_1085074
NOTE_ON_57
DURATION_254
POSITION_1084922
NOTE_ON_59
DURATION_407
POSITION_1084791
NOTE_ON_64
DURATION_538
POSITION_1085266
NOTE_ON_62
DURATION_183
POSITION_1085418
NOTE_ON_61
DURATION_177
POSITION_1085269
NOTE_ON_66
DURATION_452
POSITION_1085556
NOTE_ON_74
DURATION_181
POSITION_1085580
NOTE_ON_59
DURATION_158
POSITION_1085739
NOTE_ON_57
DURATION_133
POSITION_1085725
NOTE_ON_76
DURATION_677
POSITION_1086087
NOTE_ON_60
DURATION_322
POSITION_1086070
NOTE_ON_78
DURATION_347
POSITION_1086601
NOTE_ON_66
DURATION_326
POSITION_1086767
NOTE_ON_64
DURATION_306
POSITION_1087081
NOTE_ON_64
DURATION_307
POSITION_1087223
NOTE_ON_63
DURATION_260
POSITION_1086934
NOTE_ON_66
DURATION_569
POSITION_1086412
NOTE_ON_59
DURATION_1145
POSITION_1087709
NOTE_ON_55
DURATION_174
POSITION_1086326
NOTE_ON_67
DURATION_1558
POSITION_1087549
NOTE_ON_57
DURATION_336
POSITION_1087681
NOTE_ON_71
DURATION_211
POSITION_1087395
NOTE_ON_64
DURATION_500
POSITION_1087886
NOTE_ON_54
DURATION_131
POSITION_1088004
NOTE_ON_55
DURATION_390
POSITION_1087841
NOTE_ON_69
DURATION_614
POSITION_1088150
NOTE_ON_72
DURATION_318
POSITION_1088172
NOTE_ON_57
DURATION_303
POSITION_1088542
NOTE_ON_63
DURATION_236
POSITION_1088704
NOTE_ON_64
DURATION_158
POSITION_1088862
NOTE_ON_66
DURATION_188
POSITION_1089016
NOTE_ON_64
DURATION_107
POSITION_1089164
NOTE_ON_63
DURATION_180
POSITION_1088400
NOTE_ON_55
DURATION_1096
POSITION_1089469
NOTE_ON_66
DURATION_165
POSITION_1089493
NOTE_ON_54
DURATION_142
POSITION_1089318
NOTE_ON_64
DURATION_412
POSITION_1089610
NOTE_ON_67
DURATION_179
POSITION_1088354
NOTE_ON_71
DURATION_1453
POSITION_1089623
NOTE_ON_52
DURATION_284
POSITION_1089759
NOTE_ON_69
DURATION_182
POSITION_1089778
NOTE_ON_51
DURATION_164
POSITION_1089910
NOTE_ON_67
DURATION_171
POSITION_1089916
NOTE_ON_52
DURATION_283
POSITION_1090063
NOTE_ON_66
DURATION_173
POSITION_1090062
NOTE_ON_54
DURATION_179
POSITION_1090384
NOTE_ON_73
DURATION_175
POSITION_1090525
NOTE_ON_74
DURATION_189
POSITION_1090680
NOTE_ON_76
DURATION_176
POSITION_1090824
NOTE_ON_74
DURATION_163
POSITION_1090965
NOTE_ON_73
DURATION_168
POSITION_1091123
NOTE_ON_74
DURATION_200
POSITION_1091269
NOTE_ON_76
DURATION_178
POSITION_1091269
NOTE_ON_50
DURATION_184
POSITION_1090203
NOTE_ON_52
DURATION_1278
POSITION_1091428
NOTE_ON_49
DURATION_191
POSITION_1091414
NOTE_ON_78
DURATION_290
POSITION_1091569
NOTE_ON_79
DURATION_174
POSITION_1091710
NOTE_ON_49
DURATION_186
POSITION_1091575
NOTE_ON_47
DURATION_436
POSITION_1091864
NOTE_ON_76
DURATION_273
POSITION_1091711
NOTE_ON_78
DURATION_431
POSITION_1091869
NOTE_ON_50
DURATION_342
POSITION_1090232
NOTE_ON_67
DURATION_2232
POSITION_1092036
NOTE_ON_49
DURATION_467
POSITION_1092297
NOTE_ON_69
DURATION_275
POSITION_1092452
NOTE_ON_71
DURATION_166
POSITION_1092603
NOTE_ON_73
DURATION_145
POSITION_1092629
NOTE_ON_45
DURATION_300
POSITION_1092886
NOTE_ON_74
DURATION_174
POSITION_1092084
NOTE_ON_81
DURATION_1048
POSITION_1092753
NOTE_ON_73
DURATION_395
POSITION_1093039
NOTE_ON_76
DURATION_155
POSITION_1093059
NOTE_ON_40
DURATION_382
POSITION_1093339
NOTE_ON_78
DURATION_107
POSITION_1093199
NOTE_ON_76
DURATION_302
POSITION_1093481
NOTE_ON_79
DURATION_127
POSITION_1093479
NOTE_ON_37
DURATION_469
POSITION_1093773
NOTE_ON_81
DURATION_176
POSITION_1093620
NOTE_ON_79
DURATION_388
POSITION_1094004
NOTE_ON_82
DURATION_612
POSITION_1093927
NOTE_ON_33
DURATION_695
POSITION_1094377
NOTE_ON_80
DURATION_248
POSITION_1094227
NOTE_ON_45
DURATION_399
POSITION_1094398
NOTE_ON_47
DURATION_229
POSITION_1094579
NOTE_ON_49
DURATION_143
POSITION_1094720
NOTE_ON_50
DURATION_136
POSITION_1094867
NOTE_ON_52
DURATION_148
POSITION_1095009
NOTE_ON_54
DURATION_149
POSITION_1095158
NOTE_ON_55
DURATION_147
POSITION_1095313
NOTE_ON_57
DURATION_111
POSITION_1094564
NOTE_ON_81
DURATION_872
POSITION_1095478
NOTE_ON_59
DURATION_183
POSITION_1095456
NOTE_ON_86
DURATION_307
POSITION_1095609
NOTE_ON_61
DURATION_353
POSITION_1095751
NOTE_ON_78
DURATION_246
POSITION_1095291
NOTE_ON_85
DURATION_729
POSITION_1095750
NOTE_ON_62
DURATION_278
POSITION_1095940
NOTE_ON_80
DURATION_111
POSITION_1096002
NOTE_ON_78
DURATION_62
POSITION_1095956
NOTE_ON_64
DURATION_325
POSITION_1096234
NOTE_ON_62
DURATION_176
POSITION_1096058
NOTE_ON_80
DURATION_356
POSITION_1096415
NOTE_ON_61
DURATION_157
POSITION_1096585
NOTE_ON_66
DURATION_150
POSITION_1096710
NOTE_ON_64
DURATION_147
POSITION_1096374
NOTE_ON_81
DURATION_495
POSITION_1096552
NOTE_ON_73
DURATION_328
POSITION_1096852
NOTE_ON_74
DURATION_275
POSITION_1096871
NOTE_ON_62
DURATION_263
POSITION_1097704
NOTE_ON_76
DURATION_90
POSITION_1097084
NOTE_ON_78
DURATION_764
POSITION_1097799
NOTE_ON_76
DURATION_95
POSITION_1098044
NOTE_ON_74
DURATION_234
POSITION_1097859
NOTE_ON_78
DURATION_427
POSITION_1097619
NOTE_ON_57
DURATION_672
POSITION_1097904
NOTE_ON_76
DURATION_399
POSITION_1097115
NOTE_ON_69
DURATION_1217
POSITION_1098287
NOTE_ON_74
DURATION_252
POSITION_1098488
NOTE_ON_73
DURATION_154
POSITION_1098220
NOTE_ON_59
DURATION_431
POSITION_1098638
NOTE_ON_71
DURATION_128
POSITION_1098639
NOTE_ON_62
DURATION_491
POSITION_1098835
NOTE_ON_57
DURATION_329
POSITION_1098976
NOTE_ON_71
DURATION_188
POSITION_1098835
NOTE_ON_54
DURATION_332
POSITION_1098822
NOTE_ON_72
DURATION_347
POSITION_1099126
NOTE_ON_69
DURATION_156
POSITION_1099138
NOTE_ON_62
DURATION_184
POSITION_1099278
NOTE_ON_71
DURATION_199
POSITION_1099587
NOTE_ON_62
DURATION_123
POSITION_1099569
NOTE_ON_67
DURATION_156
POSITION_1099431
NOTE_ON_69
DURATION_298
POSITION_1099301
NOTE_ON_55
DURATION_451
POSITION_1099740
NOTE_ON_69
DURATION_134
POSITION_1099887
NOTE_ON_67
DURATION_180
POSITION_1100041
NOTE_ON_62
DURATION_61
POSITION_1100039
NOTE_ON_66
DURATION_96
POSITION_1099767
NOTE_ON_54
DURATION_423
POSITION_1099766
NOTE_ON_47
DURATION_471
POSITION_1100202
NOTE_ON_67
DURATION_170
POSITION_1100219
NOTE_ON_52
DURATION_287
POSITION_1100354
NOTE_ON_66
DURATION_154
POSITION_1100507
NOTE_ON_64
DURATION_263
POSITION_1100217
NOTE_ON_49
DURATION_572
POSITION_1100739
NOTE_ON_66
DURATION_785
POSITION_1100778
NOTE_ON_50
DURATION_746
POSITION_1101174
NOTE_ON_74
DURATION_355
POSITION_1100523
NOTE_ON_57
DURATION_1011
POSITION_1101807
NOTE_ON_67
DURATION_238
POSITION_1102015
NOTE_ON_74
DURATION_656
POSITION_1102393
NOTE_ON_73
DURATION_362
POSITION_1103081
NOTE_ON_54
DURATION_113
POSITION_1102030
NOTE_ON_55
DURATION_1178
POSITION_1103172
NOTE_ON_52
DURATION_115
POSITION_1101462
NOTE_ON_64
DURATION_1862
POSITION_1103717
NOTE_ON_69
DURATION_61
POSITION_1103328
NOTE_ON_54
DURATION_514
POSITION_1103790
NOTE_ON_67
DURATION_57
POSITION_1102682
NOTE_ON_74
DURATION_1172
POSITION_1102583
NOTE_ON_50
DURATION_1294
POSITION_1101423
NOTE_ON_45
DURATION_2577
POSITION_1103897
NOTE_ON_66
DURATION_133
POSITION_1103902
NOTE_ON_62
DURATION_353
POSITION_1103868
NOTE_ON_69
DURATION_388
POSITION_1104040
NOTE_ON_66
DURATION_219
POSITION_1104175
NOTE_ON_64
DURATION_87
POSITION_1104339
NOTE_ON_62
DURATION_63
POSITION_1104342
NOTE_ON_57
DURATION_479
POSITION_1104484
NOTE_ON_62
DURATION_337
POSITION_1104638
NOTE_ON_61
DURATION_332
POSITION_1104336
NOTE_ON_66
DURATION_647
POSITION_1104981
NOTE_ON_50
DURATION_324
POSITION_1105147
NOTE_ON_49
DURATION_220
POSITION_1105476
NOTE_ON_45
DURATION_56
POSITION_1105646
NOTE_ON_42
DURATION_50
POSITION_1104828
NOTE_ON_62
DURATION_2238
POSITION_1104832
NOTE_ON_54
DURATION_2234
POSITION_1105310
NOTE_ON_50
DURATION_1762
POSITION_1105922
NOTE_ON_38
DURATION_1157
POSITION_1104828
NOTE_ON_57
DURATION_2267
POSITION_1107252
NOTE_ON_69
DURATION_219
POSITION_1108728
NOTE_ON_76
DURATION_310
POSITION_1108579
NOTE_ON_42
DURATION_478
POSITION_1108065
NOTE_ON_38
DURATION_995
POSITION_1108347
NOTE_ON_71
DURATION_714
POSITION_1107405
NOTE_ON_50
DURATION_1656
POSITION_1107514
NOTE_ON_66
DURATION_1548
POSITION_1108566
NOTE_ON_74
DURATION_496
POSITION_1108427
NOTE_ON_73
DURATION_637
POSITION_1108884
NOTE_ON_78
DURATION_181
POSITION_1107491
NOTE_ON_62
DURATION_1577
POSITION_1107570
NOTE_ON_69
DURATION_1529
POSITION_1109042
NOTE_ON_76
DURATION_211
POSITION_1109344
NOTE_ON_79
DURATION_147
POSITION_1109049
NOTE_ON_49
DURATION_443
POSITION_1109051
NOTE_ON_45
DURATION_442
POSITION_1109191
NOTE_ON_78
DURATION_307
POSITION_1109500
NOTE_ON_79
DURATION_75
POSITION_1109509
NOTE_ON_78
DURATION_366
POSITION_1109665
NOTE_ON_76
DURATION_317
POSITION_1109817
NOTE_ON_74
DURATION_264
POSITION_1109532
NOTE_ON_50
DURATION_965
POSITION_1110408
NOTE_ON_52
DURATION_99
POSITION_1110508
NOTE_ON_54
DURATION_98
POSITION_1110415
NOTE_ON_72
DURATION_192
POSITION_1110630
NOTE_ON_55
DURATION_103
POSITION_1110761
NOTE_ON_57
DURATION_203
POSITION_1110031
NOTE_ON_81
DURATION_965
POSITION_1110900
NOTE_ON_79
DURATION_200
POSITION_1110902
NOTE_ON_59
DURATION_200
POSITION_1110577
NOTE_ON_71
DURATION_527
POSITION_1111074
NOTE_ON_57
DURATION_150
POSITION_1111214
NOTE_ON_59
DURATION_177
POSITION_1111062
NOTE_ON_72
DURATION_477
POSITION_1111370
NOTE_ON_78
DURATION_179
POSITION_1111375
NOTE_ON_60
DURATION_179
POSITION_1111716
NOTE_ON_79
DURATION_301
POSITION_1111544
NOTE_ON_74
DURATION_539
POSITION_1111558
NOTE_ON_59
DURATION_526
POSITION_1111867
NOTE_ON_78
DURATION_217
POSITION_1112022
NOTE_ON_79
DURATION_222
POSITION_1112175
NOTE_ON_81
DURATION_174
POSITION_1112028
NOTE_ON_55
DURATION_519
POSITION_1112334
NOTE_ON_83
DURATION_214
POSITION_1112510
NOTE_ON_76
DURATION_944
POSITION_1112999
NOTE_ON_54
DURATION_504
POSITION_1113139
NOTE_ON_79
DURATION_365
POSITION_1112459
NOTE_ON_60
DURATION_1046
POSITION_1112689
NOTE_ON_84
DURATION_818
POSITION_1113281
NOTE_ON_78
DURATION_228
POSITION_1112995
NOTE_ON_81
DURATION_535
POSITION_1112837
NOTE_ON_83
DURATION_693
POSITION_1113465
NOTE_ON_76
DURATION_442
POSITION_1113854
NOTE_ON_75
DURATION_114
POSITION_1113918
NOTE_ON_76
DURATION_62
POSITION_1113785
NOTE_ON_55
DURATION_195
POSITION_1113645
NOTE_ON_54
DURATION_336
POSITION_1113450
NOTE_ON_59
DURATION_536
POSITION_1113980
NOTE_ON_57
DURATION_146
POSITION_1114277
NOTE_ON_54
DURATION_227
POSITION_1114133
NOTE_ON_55
DURATION_373
POSITION_1113978
NOTE_ON_75
DURATION_535
POSITION_1114494
NOTE_ON_83
DURATION_119
POSITION_1114552
NOTE_ON_81
DURATION_81
POSITION_1114497
NOTE_ON_52
DURATION_170
POSITION_1114683
NOTE_ON_51
DURATION_253
POSITION_1114811
NOTE_ON_52
DURATION_161
POSITION_1114992
NOTE_ON_54
DURATION_193
POSITION_1115133
NOTE_ON_52
DURATION_168
POSITION_1115296
NOTE_ON_51
DURATION_197
POSITION_1115497
NOTE_ON_57
DURATION_55
POSITION_1115577
NOTE_ON_56
DURATION_45
POSITION_1115643
NOTE_ON_57
DURATION_66
POSITION_1114618
NOTE_ON_83
DURATION_1355
POSITION_1115708
NOTE_ON_77
DURATION_357
POSITION_1115914
NOTE_ON_76
DURATION_194
POSITION_1116225
NOTE_ON_76
DURATION_176
POSITION_1116074
NOTE_ON_77
DURATION_336
POSITION_1116372
NOTE_ON_74
DURATION_228
POSITION_1115740
NOTE_ON_56
DURATION_1070
POSITION_1116698
NOTE_ON_52
DURATION_154
POSITION_1116882
NOTE_ON_54
DURATION_186
POSITION_1116537
NOTE_ON_76
DURATION_749
POSITION_1117191
NOTE_ON_54
DURATION_146
POSITION_1117051
NOTE_ON_56
DURATION_389
POSITION_1116851
NOTE_ON_83
DURATION_696
POSITION_1117367
NOTE_ON_52
DURATION_182
POSITION_1117744
NOTE_ON_64
DURATION_232
POSITION_1117563
NOTE_ON_57
DURATION_547
POSITION_1117898
NOTE_ON_66
DURATION_212
POSITION_1118060
NOTE_ON_68
DURATION_167
POSITION_1117025
NOTE_ON_74
DURATION_1236
POSITION_1118211
NOTE_ON_69
DURATION_153
POSITION_1118363
NOTE_ON_71
DURATION_198
POSITION_1118679
NOTE_ON_69
DURATION_166
POSITION_1118079
NOTE_ON_52
DURATION_774
POSITION_1118519
NOTE_ON_72
DURATION_457
POSITION_1118831
NOTE_ON_71
DURATION_164
POSITION_1118981
NOTE_ON_72
DURATION_183
POSITION_1119138
NOTE_ON_74
DURATION_395
POSITION_1119456
NOTE_ON_52
DURATION_91
POSITION_1118525
NOTE_ON_45
DURATION_1034
POSITION_1119547
NOTE_ON_51
DURATION_143
POSITION_1119625
NOTE_ON_52
DURATION_71
POSITION_1119286
NOTE_ON_76
DURATION_458
POSITION_1119726
NOTE_ON_72
DURATION_201
POSITION_1118987
NOTE_ON_57
DURATION_956
POSITION_1119908
NOTE_ON_71
DURATION_196
POSITION_1120076
NOTE_ON_72
DURATION_171
POSITION_1120221
NOTE_ON_71
DURATION_137
POSITION_1120369
NOTE_ON_71
DURATION_50
POSITION_1119474
NOTE_ON_78
DURATION_1168
POSITION_1120520
NOTE_ON_71
DURATION_153
POSITION_1120681
NOTE_ON_47
DURATION_180
POSITION_1120363
NOTE_ON_69
DURATION_632
POSITION_1119700
NOTE_ON_51
DURATION_1311
POSITION_1120847
NOTE_ON_49
DURATION_287
POSITION_1121145
NOTE_ON_49
DURATION_180
POSITION_1120829
NOTE_ON_78
DURATION_512
POSITION_1120683
NOTE_ON_71
DURATION_666
POSITION_1121015
NOTE_ON_51
DURATION_387
POSITION_1121313
NOTE_ON_47
DURATION_195
POSITION_1121798
NOTE_ON_59
DURATION_259
POSITION_1121951
NOTE_ON_61
DURATION_200
POSITION_1122113
NOTE_ON_63
DURATION_219
POSITION_1121002
NOTE_ON_69
DURATION_1406
POSITION_1122264
NOTE_ON_64
DURATION_175
POSITION_1122405
NOTE_ON_66
DURATION_166
POSITION_1122559
NOTE_ON_67
DURATION_184
POSITION_1122711
NOTE_ON_64
DURATION_178
POSITION_1121560
NOTE_ON_52
DURATION_1363
POSITION_1122857
NOTE_ON_66
DURATION_177
POSITION_1123004
NOTE_ON_67
DURATION_182
POSITION_1123155
NOTE_ON_69
DURATION_163
POSITION_1122131
NOTE_ON_47
DURATION_1360
POSITION_1123301
NOTE_ON_71
DURATION_203
POSITION_1122583
NOTE_ON_40
DURATION_924
POSITION_1123030
NOTE_ON_52
DURATION_623
POSITION_1123467
NOTE_ON_45
DURATION_395
POSITION_1123694
NOTE_ON_69
DURATION_174
POSITION_1123845
NOTE_ON_68
DURATION_153
POSITION_1124011
NOTE_ON_69
DURATION_79
POSITION_1124168
NOTE_ON_65
DURATION_314
POSITION_1124010
NOTE_ON_33
DURATION_549
POSITION_1123496
NOTE_ON_72
DURATION_1193
POSITION_1124651
NOTE_ON_57
DURATION_195
POSITION_1124324
NOTE_ON_64
DURATION_542
POSITION_1124840
NOTE_ON_55
DURATION_176
POSITION_1124491
NOTE_ON_65
DURATION_544
POSITION_1124992
NOTE_ON_57
DURATION_195
POSITION_1125139
NOTE_ON_55
DURATION_215
POSITION_1124820
NOTE_ON_77
DURATION_614
POSITION_1125330
NOTE_ON_76
DURATION_278
POSITION_1125347
NOTE_ON_54
DURATION_266
POSITION_1125544
NOTE_ON_75
DURATION_201
POSITION_1125738
NOTE_ON_72
DURATION_147
POSITION_1125882
NOTE_ON_71
DURATION_176
POSITION_1125573
NOTE_ON_59
DURATION_591
POSITION_1126044
NOTE_ON_72
DURATION_157
POSITION_1126201
NOTE_ON_69
DURATION_169
POSITION_1126067
NOTE_ON_54
DURATION_377
POSITION_1126355
NOTE_ON_68
DURATION_175
POSITION_1126527
NOTE_ON_69
DURATION_153
POSITION_1126677
NOTE_ON_71
DURATION_259
POSITION_1126833
NOTE_ON_73
DURATION_201
POSITION_1126530
NOTE_ON_51
DURATION_525
POSITION_1127138
NOTE_ON_76
DURATION_181
POSITION_1126999
NOTE_ON_69
DURATION_332
POSITION_1126999
NOTE_ON_47
DURATION_429
POSITION_1126989
NOTE_ON_75
DURATION_511
POSITION_1127443
NOTE_ON_76
DURATION_157
POSITION_1127466
NOTE_ON_48
DURATION_165
POSITION_1127292
NOTE_ON_78
DURATION_408
POSITION_1127609
NOTE_ON_72
DURATION_172
POSITION_1127641
NOTE_ON_48
DURATION_224
POSITION_1127762
NOTE_ON_71
DURATION_299
POSITION_1127926
NOTE_ON_72
DURATION_162
POSITION_1128074
NOTE_ON_69
DURATION_179
POSITION_1128217
NOTE_ON_68
DURATION_207
POSITION_1127929
NOTE_ON_36
DURATION_508
POSITION_1127606
NOTE_ON_76
DURATION_847
POSITION_1128549
NOTE_ON_60
DURATION_183
POSITION_1128725
NOTE_ON_59
DURATION_155
POSITION_1128879
NOTE_ON_60
DURATION_196
POSITION_1128697
NOTE_ON_81
DURATION_497
POSITION_1129029
NOTE_ON_59
DURATION_353
POSITION_1129173
NOTE_ON_79
DURATION_253
POSITION_1129177
NOTE_ON_57
DURATION_285
POSITION_1128380
NOTE_ON_69
DURATION_1179
POSITION_1129602
NOTE_ON_72
DURATION_151
POSITION_1129739
NOTE_ON_71
DURATION_169
POSITION_1129426
NOTE_ON_63
DURATION_601
POSITION_1129912
NOTE_ON_72
DURATION_146
POSITION_1130064
NOTE_ON_69
DURATION_163
POSITION_1129916
NOTE_ON_57
DURATION_471
POSITION_1130207
NOTE_ON_68
DURATION_183
POSITION_1129401
NOTE_ON_78
DURATION_1217
POSITION_1130676
NOTE_ON_76
DURATION_205
POSITION_1130384
NOTE_ON_54
DURATION_523
POSITION_1130373
NOTE_ON_69
DURATION_537
POSITION_1130525
NOTE_ON_75
DURATION_485
POSITION_1130837
NOTE_ON_78
DURATION_209
POSITION_1130987
NOTE_ON_79
DURATION_157
POSITION_1130860
NOTE_ON_51
DURATION_415
POSITION_1131131
NOTE_ON_81
DURATION_215
POSITION_1131490
NOTE_ON_76
DURATION_154
POSITION_1131342
NOTE_ON_52
DURATION_375
POSITION_1131636
NOTE_ON_75
DURATION_227
POSITION_1131948
NOTE_ON_72
DURATION_155
POSITION_1131820
NOTE_ON_40
DURATION_473
POSITION_1132093
NOTE_ON_71
DURATION_202
POSITION_1131796
NOTE_ON_76
DURATION_535
POSITION_1131320
NOTE_ON_79
DURATION_1088
POSITION_1132423
NOTE_ON_64
DURATION_169
POSITION_1132260
NOTE_ON_72
DURATION_486
POSITION_1132611
NOTE_ON_62
DURATION_144
POSITION_1132766
NOTE_ON_64
DURATION_191
POSITION_1133076
NOTE_ON_83
DURATION_278
POSITION_1132918
NOTE_ON_62
DURATION_450
POSITION_1132582
NOTE_ON_84
DURATION_786
POSITION_1133339
NOTE_ON_82
DURATION_421
POSITION_1133599
NOTE_ON_76
DURATION_219
POSITION_1133098
NOTE_ON_61
DURATION_854
POSITION_1133778
NOTE_ON_78
DURATION_216
POSITION_1133962
NOTE_ON_79
DURATION_527
POSITION_1134249
NOTE_ON_76
DURATION_251
POSITION_1134114
NOTE_ON_78
DURATION_386
POSITION_1133955
NOTE_ON_61
DURATION_549
POSITION_1133306
NOTE_ON_67
DURATION_1306
POSITION_1134576
NOTE_ON_81
DURATION_420
POSITION_1134731
NOTE_ON_83
DURATION_311
POSITION_1134888
NOTE_ON_84
DURATION_331
POSITION_1134416
NOTE_ON_75
DURATION_941
POSITION_1134908
NOTE_ON_54
DURATION_487
POSITION_1135046
NOTE_ON_83
DURATION_365
POSITION_1135198
NOTE_ON_81
DURATION_243
POSITION_1135420
NOTE_ON_83
DURATION_564
POSITION_1135829
NOTE_ON_79
DURATION_156
POSITION_1135375
NOTE_ON_76
DURATION_611
POSITION_1135285
NOTE_ON_55
DURATION_732
POSITION_1135674
NOTE_ON_81
DURATION_351
POSITION_1134400
NOTE_ON_66
DURATION_1710
POSITION_1135983
NOTE_ON_78
DURATION_213
POSITION_1136152
NOTE_ON_79
DURATION_334
POSITION_1135990
NOTE_ON_57
DURATION_546
POSITION_1136308
NOTE_ON_76
DURATION_229
POSITION_1136834
NOTE_ON_71
DURATION_279
POSITION_1136496
NOTE_ON_79
DURATION_643
POSITION_1136518
NOTE_ON_59
DURATION_1112
POSITION_1137337
NOTE_ON_69
DURATION_339
POSITION_1137094
NOTE_ON_75
DURATION_598
POSITION_1137066
NOTE_ON_78
DURATION_726
POSITION_1137105
NOTE_ON_47
DURATION_932
POSITION_1137570
NOTE_ON_52
DURATION_548
POSITION_1138042
NOTE_ON_47
DURATION_199
POSITION_1138201
NOTE_ON_45
DURATION_163
POSITION_1138523
NOTE_ON_45
DURATION_171
POSITION_1138372
NOTE_ON_43
DURATION_426
POSITION_1137675
NOTE_ON_71
DURATION_1269
POSITION_1138695
NOTE_ON_47
DURATION_267
POSITION_1137648
NOTE_ON_67
DURATION_1380
POSITION_1138949
NOTE_ON_40
DURATION_532
POSITION_1139233
NOTE_ON_71
DURATION_256
POSITION_1137765
NOTE_ON_76
DURATION_1770
POSITION_1139398
NOTE_ON_69
DURATION_156
POSITION_1139564
NOTE_ON_67
DURATION_168
POSITION_1139331
NOTE_ON_43
DURATION_519
POSITION_1139592
NOTE_ON_47
DURATION_273
POSITION_1139718
NOTE_ON_66
DURATION_202
POSITION_1139894
NOTE_ON_67
DURATION_321
POSITION_1139846
NOTE_ON_52
DURATION_372
POSITION_1140162
NOTE_ON_45
DURATION_238
POSITION_1140413
NOTE_ON_47
DURATION_190
POSITION_1140562
NOTE_ON_67
DURATION_175
POSITION_1140591
NOTE_ON_49
DURATION_164
POSITION_1140145
NOTE_ON_73
DURATION_941
POSITION_1140753
NOTE_ON_47
DURATION_436
POSITION_1140892
NOTE_ON_49
DURATION_332
POSITION_1141059
NOTE_ON_50
DURATION_179
POSITION_1140735
NOTE_ON_74
DURATION_505
POSITION_1141052
NOTE_ON_67
DURATION_472
POSITION_1141534
NOTE_ON_67
DURATION_220
POSITION_1141716
NOTE_ON_66
DURATION_92
POSITION_1141230
NOTE_ON_49
DURATION_586
POSITION_1141387
NOTE_ON_50
DURATION_431
POSITION_1141225
NOTE_ON_76
DURATION_593
POSITION_1141561
NOTE_ON_52
DURATION_263
POSITION_1141765
NOTE_ON_67
DURATION_85
POSITION_1141751
NOTE_ON_45
DURATION_175
POSITION_1141929
NOTE_ON_47
DURATION_269
POSITION_1141814
NOTE_ON_66
DURATION_394
POSITION_1142062
NOTE_ON_49
DURATION_230
POSITION_1142244
NOTE_ON_50
DURATION_180
POSITION_1142216
NOTE_ON_66
DURATION_334
POSITION_1142528
NOTE_ON_62
DURATION_116
POSITION_1142396
NOTE_ON_52
DURATION_249
POSITION_1142551
NOTE_ON_54
DURATION_105
POSITION_1142030
NOTE_ON_64
DURATION_646
POSITION_1142721
NOTE_ON_52
DURATION_153
POSITION_1142707
NOTE_ON_67
DURATION_343
POSITION_1142865
NOTE_ON_54
DURATION_199
POSITION_1143020
NOTE_ON_62
DURATION_125
POSITION_1143026
NOTE_ON_55
DURATION_123
POSITION_1143210
NOTE_ON_54
DURATION_125
POSITION_1143193
NOTE_ON_69
DURATION_341
POSITION_1143346
NOTE_ON_55
DURATION_382
POSITION_1143502
NOTE_ON_62
DURATION_248
POSITION_1143525
NOTE_ON_57
DURATION_242
POSITION_1143732
NOTE_ON_72
DURATION_173
POSITION_1143915
NOTE_ON_52
DURATION_139
POSITION_1143890
NOTE_ON_71
DURATION_178
POSITION_1144053
NOTE_ON_54
DURATION_128
POSITION_1144040
NOTE_ON_69
DURATION_184
POSITION_1144225
NOTE_ON_55
DURATION_156
POSITION_1144383
NOTE_ON_57
DURATION_122
POSITION_1144523
NOTE_ON_65
DURATION_187
POSITION_1144524
NOTE_ON_59
DURATION_192
POSITION_1144204
NOTE_ON_71
DURATION_538
POSITION_1144692
NOTE_ON_57
DURATION_146
POSITION_1144834
NOTE_ON_59
DURATION_158
POSITION_1144999
NOTE_ON_60
DURATION_183
POSITION_1144999
NOTE_ON_65
DURATION_186
POSITION_1144691
NOTE_ON_72
DURATION_519
POSITION_1145175
NOTE_ON_59
DURATION_155
POSITION_1145330
NOTE_ON_60
DURATION_161
POSITION_1145480
NOTE_ON_62
DURATION_72
POSITION_1145476
NOTE_ON_65
DURATION_214
POSITION_1145657
NOTE_ON_55
DURATION_162
POSITION_1145169
NOTE_ON_74
DURATION_948
POSITION_1145655
NOTE_ON_64
DURATION_531
POSITION_1145982
NOTE_ON_59
DURATION_231
POSITION_1145832
NOTE_ON_57
DURATION_400
POSITION_1145975
NOTE_ON_62
DURATION_280
POSITION_1146261
NOTE_ON_62
DURATION_43
POSITION_1146193
NOTE_ON_64
DURATION_123
POSITION_1146207
NOTE_ON_60
DURATION_255
POSITION_1146402
NOTE_ON_59
DURATION_183
POSITION_1146549
NOTE_ON_57
DURATION_150
POSITION_1146322
NOTE_ON_64
DURATION_686
POSITION_1146834
NOTE_ON_57
DURATION_366
POSITION_1147012
NOTE_ON_64
DURATION_272
POSITION_1146698
NOTE_ON_56
DURATION_617
POSITION_1147012
NOTE_ON_59
DURATION_352
POSITION_1147208
NOTE_ON_57
DURATION_283
POSITION_1147465
NOTE_ON_55
DURATION_145
POSITION_1147604
NOTE_ON_54
DURATION_190
POSITION_1147758
NOTE_ON_52
DURATION_153
POSITION_1147293
NOTE_ON_64
DURATION_759
POSITION_1148070
NOTE_ON_55
DURATION_197
POSITION_1147913
NOTE_ON_54
DURATION_362
POSITION_1148274
NOTE_ON_55
DURATION_93
POSITION_1148342
NOTE_ON_54
DURATION_54
POSITION_1148412
NOTE_ON_55
DURATION_66
POSITION_1148475
NOTE_ON_64
DURATION_282
POSITION_1148716
NOTE_ON_62
DURATION_216
POSITION_1148894
NOTE_ON_64
DURATION_192
POSITION_1149045
NOTE_ON_62
DURATION_163
POSITION_1148480
NOTE_ON_54
DURATION_839
POSITION_1149189
NOTE_ON_60
DURATION_188
POSITION_1147289
NOTE_ON_72
DURATION_2161
POSITION_1149500
NOTE_ON_54
DURATION_154
POSITION_1149660
NOTE_ON_52
DURATION_132
POSITION_1149823
NOTE_ON_54
DURATION_241
POSITION_1150007
NOTE_ON_52
DURATION_153
POSITION_1150169
NOTE_ON_50
DURATION_162
POSITION_1149346
NOTE_ON_62
DURATION_987
POSITION_1149858
NOTE_ON_72
DURATION_733
POSITION_1150563
NOTE_ON_71
DURATION_215
POSITION_1150707
NOTE_ON_72
DURATION_177
POSITION_1150873
NOTE_ON_74
DURATION_224
POSITION_1151032
NOTE_ON_72
DURATION_142
POSITION_1151189
NOTE_ON_71
DURATION_119
POSITION_1150363
NOTE_ON_55
DURATION_1022
POSITION_1150897
NOTE_ON_43
DURATION_519
POSITION_1151344
NOTE_ON_69
DURATION_137
POSITION_1151506
NOTE_ON_67
DURATION_173
POSITION_1151367
NOTE_ON_47
DURATION_437
POSITION_1151656
NOTE_ON_69
DURATION_161
POSITION_1151813
NOTE_ON_71
DURATION_288
POSITION_1151979
NOTE_ON_69
DURATION_178
POSITION_1152125
NOTE_ON_67
DURATION_166
POSITION_1151819
NOTE_ON_43
DURATION_488
POSITION_1152277
NOTE_ON_65
DURATION_195
POSITION_1152442
NOTE_ON_64
DURATION_181
POSITION_1152279
NOTE_ON_48
DURATION_353
POSITION_1152596
NOTE_ON_65
DURATION_205
POSITION_1152763
NOTE_ON_67
DURATION_186
POSITION_1153058
NOTE_ON_64
DURATION_221
POSITION_1152920
NOTE_ON_65
DURATION_362
POSITION_1152766
NOTE_ON_36
DURATION_531
POSITION_1153236
NOTE_ON_62
DURATION_326
POSITION_1153420
NOTE_ON_48
DURATION_145
POSITION_1153493
NOTE_ON_60
DURATION_272
POSITION_1153576
NOTE_ON_50
DURATION_197
POSITION_1153733
NOTE_ON_48
DURATION_41
POSITION_1153792
NOTE_ON_52
DURATION_104
POSITION_1153900
NOTE_ON_52
DURATION_172
POSITION_1153739
NOTE_ON_70
DURATION_472
POSITION_1154047
NOTE_ON_54
DURATION_303
POSITION_1154446
NOTE_ON_69
DURATION_172
POSITION_1154598
NOTE_ON_67
DURATION_195
POSITION_1154249
NOTE_ON_55
DURATION_567
POSITION_1154766
NOTE_ON_69
DURATION_171
POSITION_1154928
NOTE_ON_67
DURATION_171
POSITION_1155081
NOTE_ON_66
DURATION_156
POSITION_1154797
NOTE_ON_49
DURATION_464
POSITION_1155230
NOTE_ON_67
DURATION_176
POSITION_1155387
NOTE_ON_66
DURATION_188
POSITION_1155239
NOTE_ON_52
DURATION_593
POSITION_1156286
NOTE_ON_74
DURATION_362
POSITION_1155550
NOTE_ON_64
DURATION_1104
POSITION_1155819
NOTE_ON_73
DURATION_850
POSITION_1155737
NOTE_ON_45
DURATION_963
POSITION_1156588
NOTE_ON_67
DURATION_194
POSITION_1156788
NOTE_ON_66
DURATION_99
POSITION_1156891
NOTE_ON_64
DURATION_101
POSITION_1156980
NOTE_ON_66
DURATION_120
POSITION_1157089
NOTE_ON_67
DURATION_120
POSITION_1157201
NOTE_ON_66
DURATION_151
POSITION_1156512
NOTE_ON_38
DURATION_1347
POSITION_1157115
NOTE_ON_50
DURATION_790
POSITION_1157328
NOTE_ON_64
DURATION_577
POSITION_1157848
NOTE_ON_48
DURATION_296
POSITION_1158010
NOTE_ON_47
DURATION_186
POSITION_1158183
NOTE_ON_45
DURATION_173
POSITION_1158540
NOTE_ON_48
DURATION_275
POSITION_1158355
NOTE_ON_47
DURATION_480
POSITION_1157686
NOTE_ON_62
DURATION_1525
POSITION_1159216
NOTE_ON_62
DURATION_266
POSITION_1159408
NOTE_ON_64
DURATION_174
POSITION_1159581
NOTE_ON_66
DURATION_152
POSITION_1159738
NOTE_ON_66
DURATION_169
POSITION_1159890
NOTE_ON_67
DURATION_162
POSITION_1159584
NOTE_ON_59
DURATION_503
POSITION_1160051
NOTE_ON_69
DURATION_151
POSITION_1160210
NOTE_ON_69
DURATION_191
POSITION_1160060
NOTE_ON_57
DURATION_468
POSITION_1160361
NOTE_ON_71
DURATION_175
POSITION_1158846
NOTE_ON_35
DURATION_1701
POSITION_1160517
NOTE_ON_72
DURATION_107
POSITION_1160520
NOTE_ON_55
DURATION_138
POSITION_1160672
NOTE_ON_72
DURATION_163
POSITION_1160834
NOTE_ON_74
DURATION_253
POSITION_1160999
NOTE_ON_54
DURATION_273
POSITION_1161041
NOTE_ON_75
DURATION_424
POSITION_1161266
NOTE_ON_38
DURATION_207
POSITION_1161486
NOTE_ON_40
DURATION_163
POSITION_1161443
NOTE_ON_73
DURATION_245
POSITION_1161642
NOTE_ON_42
DURATION_177
POSITION_1161798
NOTE_ON_43
DURATION_166
POSITION_1161972
NOTE_ON_45
DURATION_206
POSITION_1162131
NOTE_ON_47
DURATION_159
POSITION_1161642
NOTE_ON_74
DURATION_799
POSITION_1162281
NOTE_ON_48
DURATION_165
POSITION_1162441
NOTE_ON_50
DURATION_146
POSITION_1162618
NOTE_ON_52
DURATION_147
POSITION_1162426
NOTE_ON_78
DURATION_441
POSITION_1162773
NOTE_ON_54
DURATION_131
POSITION_1162919
NOTE_ON_71
DURATION_240
POSITION_1162923
NOTE_ON_55
DURATION_289
POSITION_1162618
NOTE_ON_79
DURATION_602
POSITION_1163121
NOTE_ON_73
DURATION_107
POSITION_1163168
NOTE_ON_71
DURATION_69
POSITION_1163144
NOTE_ON_57
DURATION_337
POSITION_1163405
NOTE_ON_55
DURATION_173
POSITION_1163238
NOTE_ON_73
DURATION_343
POSITION_1163578
NOTE_ON_54
DURATION_173
POSITION_1163541
NOTE_ON_74
DURATION_283
POSITION_1163741
NOTE_ON_59
DURATION_175
POSITION_1163886
NOTE_ON_57
DURATION_159
POSITION_1163715
NOTE_ON_66
DURATION_338
POSITION_1164030
NOTE_ON_67
DURATION_250
POSITION_1164289
NOTE_ON_67
DURATION_298
POSITION_1164281
NOTE_ON_71
DURATION_659
POSITION_1164052
NOTE_ON_55
DURATION_957
POSITION_1164948
NOTE_ON_71
DURATION_69
POSITION_1164945
NOTE_ON_69
DURATION_126
POSITION_1165026
NOTE_ON_71
DURATION_99
POSITION_1165079
NOTE_ON_69
DURATION_92
POSITION_1165130
NOTE_ON_71
DURATION_102
POSITION_1165176
NOTE_ON_69
DURATION_203
POSITION_1164278
NOTE_ON_62
DURATION_1162
POSITION_1165370
NOTE_ON_67
DURATION_277
POSITION_1164866
NOTE_ON_50
DURATION_904
POSITION_1165695
NOTE_ON_52
DURATION_93
POSITION_1165928
NOTE_ON_47
DURATION_216
POSITION_1165651
NOTE_ON_67
DURATION_522
POSITION_1166089
NOTE_ON_43
DURATION_147
POSITION_1166059
NOTE_ON_64
DURATION_182
POSITION_1166288
NOTE_ON_40
DURATION_171
POSITION_1166610
NOTE_ON_47
DURATION_105
POSITION_1166442
NOTE_ON_43
DURATION_280
POSITION_1166258
NOTE_ON_62
DURATION_515
POSITION_1166584
NOTE_ON_67
DURATION_203
POSITION_1166781
NOTE_ON_52
DURATION_325
POSITION_1166935
NOTE_ON_50
DURATION_175
POSITION_1167079
NOTE_ON_67
DURATION_204
POSITION_1166764
NOTE_ON_60
DURATION_548
POSITION_1167103
NOTE_ON_48
DURATION_233
POSITION_1167262
NOTE_ON_50
DURATION_206
POSITION_1167409
NOTE_ON_48
DURATION_179
POSITION_1167255
NOTE_ON_59
DURATION_346
POSITION_1167577
NOTE_ON_47
DURATION_203
POSITION_1167574
NOTE_ON_67
DURATION_408
POSITION_1167925
NOTE_ON_47
DURATION_210
POSITION_1167769
NOTE_ON_57
DURATION_369
POSITION_1167770
NOTE_ON_48
DURATION_396
POSITION_1168077
NOTE_ON_66
DURATION_184
POSITION_1168099
NOTE_ON_45
DURATION_170
POSITION_1168290
NOTE_ON_67
DURATION_195
POSITION_1168285
NOTE_ON_47
DURATION_212
POSITION_1168454
NOTE_ON_45
DURATION_168
POSITION_1168453
NOTE_ON_66
DURATION_172
POSITION_1168617
NOTE_ON_64
DURATION_160
POSITION_1168808
NOTE_ON_67
DURATION_130
POSITION_1168968
NOTE_ON_67
DURATION_4
POSITION_1168966
NOTE_ON_66
DURATION_64
POSITION_1169037
NOTE_ON_67
DURATION_35
POSITION_1169107
NOTE_ON_66
DURATION_39
POSITION_1169155
NOTE_ON_67
DURATION_30
POSITION_1169248
NOTE_ON_67
DURATION_34
POSITION_1169207
NOTE_ON_66
DURATION_88
POSITION_1169301
NOTE_ON_66
DURATION_61
POSITION_1169381
NOTE_ON_64
DURATION_53
POSITION_1168632
NOTE_ON_43
DURATION_886
POSITION_1170054
NOTE_ON_67
DURATION_316
POSITION_1169463
NOTE_ON_66
DURATION_982
POSITION_1168860
NOTE_ON_50
DURATION_1590
POSITION_1169490
NOTE_ON_38
DURATION_961
POSITION_1171642
NOTE_ON_71
DURATION_157
POSITION_1171191
NOTE_ON_62
DURATION_631
POSITION_1170376
NOTE_ON_67
DURATION_1469
POSITION_1171712
NOTE_ON_69
DURATION_155
POSITION_1171117
NOTE_ON_59
DURATION_753
POSITION_1171979
NOTE_ON_74
DURATION_311
POSITION_1172139
NOTE_ON_72
DURATION_163
POSITION_1171828
NOTE_ON_62
DURATION_485
POSITION_1171807
NOTE_ON_71
DURATION_514
POSITION_1171851
NOTE_ON_67
DURATION_477
POSITION_1170386
NOTE_ON_43
DURATION_2065
POSITION_1172472
NOTE_ON_79
DURATION_325
POSITION_1172331
NOTE_ON_71
DURATION_504
POSITION_1172301
NOTE_ON_74
DURATION_534
POSITION_1172624
NOTE_ON_78
DURATION_234
POSITION_1172993
NOTE_ON_43
DURATION_145
POSITION_1173151
NOTE_ON_42
DURATION_189
POSITION_1173323
NOTE_ON_43
DURATION_134
POSITION_1173496
NOTE_ON_38
DURATION_123
POSITION_1173659
NOTE_ON_35
DURATION_41
POSITION_1172846
NOTE_ON_71
DURATION_919
POSITION_1172844
NOTE_ON_74
DURATION_1105
POSITION_1173931
NOTE_ON_31
DURATION_613
POSITION_1172803
NOTE_ON_79
DURATION_1868
POSITION_1175249
NOTE_ON_69
DURATION_55
POSITION_1176587
NOTE_ON_74
DURATION_201
POSITION_1175499
NOTE_ON_66
DURATION_1322
POSITION_1176362
NOTE_ON_71
DURATION_682
POSITION_1176450
NOTE_ON_73
DURATION_594
POSITION_1176754
NOTE_ON_76
DURATION_305
POSITION_1175467
NOTE_ON_62
DURATION_1600
POSITION_1176905
NOTE_ON_78
DURATION_171
POSITION_1176093
NOTE_ON_38
DURATION_997
POSITION_1175402
NOTE_ON_50
DURATION_1703
POSITION_1175561
NOTE_ON_69
DURATION_1552
POSITION_1177069
NOTE_ON_76
DURATION_186
POSITION_1176625
NOTE_ON_42
DURATION_757
POSITION_1177225
NOTE_ON_78
DURATION_295
POSITION_1177376
NOTE_ON_79
DURATION_172
POSITION_1177086
NOTE_ON_45
DURATION_484
POSITION_1177079
NOTE_ON_49
DURATION_495
POSITION_1177685
NOTE_ON_76
DURATION_178
POSITION_1177530
NOTE_ON_78
DURATION_366
POSITION_1177846
NOTE_ON_74
DURATION_201
POSITION_1178453
NOTE_ON_52
DURATION_96
POSITION_1177554
NOTE_ON_50
DURATION_1003
POSITION_1178538
NOTE_ON_54
DURATION_106
POSITION_1178455
NOTE_ON_72
DURATION_194
POSITION_1178647
NOTE_ON_55
DURATION_136
POSITION_1178061
NOTE_ON_81
DURATION_765
POSITION_1178789
NOTE_ON_57
DURATION_306
POSITION_1178620
NOTE_ON_71
DURATION_501
POSITION_1178937
NOTE_ON_79
DURATION_186
POSITION_1178938
NOTE_ON_59
DURATION_186
POSITION_1179106
NOTE_ON_57
DURATION_160
POSITION_1179265
NOTE_ON_59
DURATION_329
POSITION_1179423
NOTE_ON_78
DURATION_183
POSITION_1179773
NOTE_ON_79
DURATION_177
POSITION_1179429
NOTE_ON_60
DURATION_641
POSITION_1179922
NOTE_ON_78
DURATION_191
POSITION_1179606
NOTE_ON_74
DURATION_925
POSITION_1180084
NOTE_ON_55
DURATION_494
POSITION_1180381
NOTE_ON_83
DURATION_199
POSITION_1180230
NOTE_ON_81
DURATION_354
POSITION_1180072
NOTE_ON_79
DURATION_520
POSITION_1179105
NOTE_ON_72
DURATION_1495
POSITION_1179600
NOTE_ON_59
DURATION_1023
POSITION_1180881
NOTE_ON_83
DURATION_201
POSITION_1180549
NOTE_ON_76
DURATION_627
POSITION_1180719
NOTE_ON_84
DURATION_664
POSITION_1181041
NOTE_ON_54
DURATION_530
POSITION_1180525
NOTE_ON_60
DURATION_1052
POSITION_1181348
NOTE_ON_78
DURATION_230
POSITION_1181029
NOTE_ON_81
DURATION_562
POSITION_1181188
NOTE_ON_79
DURATION_410
POSITION_1181557
NOTE_ON_76
DURATION_433
POSITION_1181876
NOTE_ON_55
DURATION_163
POSITION_1181725
NOTE_ON_54
DURATION_315
POSITION_1181525
NOTE_ON_59
DURATION_515
POSITION_1181942
NOTE_ON_75
DURATION_102
POSITION_1181995
NOTE_ON_76
DURATION_53
POSITION_1182058
NOTE_ON_57
DURATION_159
POSITION_1182365
NOTE_ON_54
DURATION_294
POSITION_1182053
NOTE_ON_75
DURATION_615
POSITION_1182203
NOTE_ON_55
DURATION_468
POSITION_1182630
NOTE_ON_83
DURATION_120
POSITION_1182690
NOTE_ON_81
DURATION_82
POSITION_1182624
NOTE_ON_52
DURATION_218
POSITION_1182806
NOTE_ON_51
DURATION_236
POSITION_1182945
NOTE_ON_52
DURATION_156
POSITION_1183123
NOTE_ON_54
DURATION_160
POSITION_1183278
NOTE_ON_52
DURATION_348
POSITION_1183617
NOTE_ON_57
DURATION_57
POSITION_1183432
NOTE_ON_51
DURATION_271
POSITION_1183694
NOTE_ON_56
DURATION_42
POSITION_1183772
NOTE_ON_57
DURATION_50
POSITION_1183813
NOTE_ON_77
DURATION_350
POSITION_1184012
NOTE_ON_76
DURATION_185
POSITION_1182757
NOTE_ON_83
DURATION_1568
POSITION_1184174
NOTE_ON_77
DURATION_218
POSITION_1184329
NOTE_ON_76
DURATION_167
POSITION_1184470
NOTE_ON_74
DURATION_247
POSITION_1183846
NOTE_ON_56
DURATION_1093
POSITION_1184635
NOTE_ON_76
DURATION_337
POSITION_1184972
NOTE_ON_54
DURATION_170
POSITION_1184939
NOTE_ON_83
DURATION_212
POSITION_1184784
NOTE_ON_52
DURATION_370
POSITION_1185123
NOTE_ON_56
DURATION_215
POSITION_1185265
NOTE_ON_54
DURATION_170
POSITION_1185435
NOTE_ON_52
DURATION_264
POSITION_1185885
NOTE_ON_64
DURATION_242
POSITION_1186040
NOTE_ON_66
DURATION_232
POSITION_1185666
NOTE_ON_57
DURATION_613
POSITION_1186198
NOTE_ON_68
DURATION_172
POSITION_1185112
NOTE_ON_74
DURATION_1325
POSITION_1186350
NOTE_ON_69
DURATION_167
POSITION_1186503
NOTE_ON_71
DURATION_196
POSITION_1186210
NOTE_ON_52
DURATION_526
POSITION_1186654
NOTE_ON_72
DURATION_147
POSITION_1186814
NOTE_ON_69
DURATION_176
POSITION_1186678
NOTE_ON_45
DURATION_430
POSITION_1186964
NOTE_ON_71
DURATION_170
POSITION_1187123
NOTE_ON_72
DURATION_154
POSITION_1187554
NOTE_ON_52
DURATION_119
POSITION_1187271
NOTE_ON_74
DURATION_425
POSITION_1187679
NOTE_ON_52
DURATION_52
POSITION_1187625
NOTE_ON_51
DURATION_133
POSITION_1187762
NOTE_ON_51
DURATION_142
POSITION_1187787
NOTE_ON_72
DURATION_166
POSITION_1187414
NOTE_ON_76
DURATION_543
POSITION_1187951
NOTE_ON_71
DURATION_193
POSITION_1188111
NOTE_ON_72
DURATION_188
POSITION_1188254
NOTE_ON_71
DURATION_174
POSITION_1187130
NOTE_ON_57
DURATION_1457
POSITION_1188396
NOTE_ON_69
DURATION_337
POSITION_1187595
NOTE_ON_78
DURATION_1253
POSITION_1188706
NOTE_ON_47
DURATION_207
POSITION_1187910
NOTE_ON_51
DURATION_1007
POSITION_1188921
NOTE_ON_49
DURATION_149
POSITION_1188554
NOTE_ON_71
DURATION_532
POSITION_1189198
NOTE_ON_49
DURATION_170
POSITION_1189046
NOTE_ON_51
DURATION_326
POSITION_1188859
NOTE_ON_78
DURATION_519
POSITION_1189355
NOTE_ON_47
DURATION_204
POSITION_1189747
NOTE_ON_59
DURATION_233
POSITION_1189914
NOTE_ON_61
DURATION_185
POSITION_1189029
NOTE_ON_69
DURATION_1186
POSITION_1190068
NOTE_ON_63
DURATION_171
POSITION_1190223
NOTE_ON_64
DURATION_165
POSITION_1189563
NOTE_ON_52
DURATION_852
POSITION_1190373
NOTE_ON_66
DURATION_178
POSITION_1190090
NOTE_ON_47
DURATION_463
POSITION_1190546
NOTE_ON_67
DURATION_203
POSITION_1190711
NOTE_ON_64
DURATION_176
POSITION_1190865
NOTE_ON_66
DURATION_193
POSITION_1191031
NOTE_ON_67
DURATION_197
POSITION_1191193
NOTE_ON_69
DURATION_162
POSITION_1191345
NOTE_ON_71
DURATION_141
POSITION_1191697
NOTE_ON_69
DURATION_70
POSITION_1191049
NOTE_ON_52
DURATION_741
POSITION_1191525
NOTE_ON_72
DURATION_303
POSITION_1190565
NOTE_ON_40
DURATION_1355
POSITION_1191526
NOTE_ON_45
DURATION_406
POSITION_1191847
NOTE_ON_68
DURATION_191
POSITION_1192172
NOTE_ON_65
DURATION_316
POSITION_1192024
NOTE_ON_33
DURATION_656
POSITION_1192330
NOTE_ON_64
DURATION_489
POSITION_1192658
NOTE_ON_57
DURATION_162
POSITION_1192012
NOTE_ON_69
DURATION_845
POSITION_1192840
NOTE_ON_55
DURATION_161
POSITION_1192498
NOTE_ON_65
DURATION_521
POSITION_1192990
NOTE_ON_57
DURATION_187
POSITION_1193125
NOTE_ON_55
DURATION_205
POSITION_1192810
NOTE_ON_77
DURATION_539
POSITION_1193307
NOTE_ON_54
DURATION_213
POSITION_1193286
NOTE_ON_76
DURATION_238
POSITION_1193654
NOTE_ON_72
DURATION_143
POSITION_1193799
NOTE_ON_71
DURATION_169
POSITION_1193468
NOTE_ON_75
DURATION_541
POSITION_1193507
NOTE_ON_59
DURATION_533
POSITION_1193957
NOTE_ON_72
DURATION_150
POSITION_1194105
NOTE_ON_69
DURATION_319
POSITION_1194258
NOTE_ON_68
DURATION_193
POSITION_1193979
NOTE_ON_54
DURATION_582
POSITION_1194429
NOTE_ON_69
DURATION_164
POSITION_1194582
NOTE_ON_71
DURATION_264
POSITION_1194751
NOTE_ON_73
DURATION_208
POSITION_1194435
NOTE_ON_51
DURATION_526
POSITION_1195065
NOTE_ON_76
DURATION_178
POSITION_1194911
NOTE_ON_47
DURATION_474
POSITION_1194910
NOTE_ON_75
DURATION_635
POSITION_1195394
NOTE_ON_48
DURATION_463
POSITION_1195569
NOTE_ON_72
DURATION_299
POSITION_1195219
NOTE_ON_78
DURATION_672
POSITION_1195716
NOTE_ON_71
DURATION_181
POSITION_1195878
NOTE_ON_72
DURATION_169
POSITION_1195397
NOTE_ON_76
DURATION_763
POSITION_1196030
NOTE_ON_69
DURATION_322
POSITION_1196179
NOTE_ON_68
DURATION_242
POSITION_1195907
NOTE_ON_36
DURATION_544
POSITION_1196526
NOTE_ON_60
DURATION_186
POSITION_1196713
NOTE_ON_59
DURATION_141
POSITION_1196863
NOTE_ON_60
DURATION_168
POSITION_1196685
NOTE_ON_81
DURATION_803
POSITION_1197176
NOTE_ON_79
DURATION_326
POSITION_1197023
NOTE_ON_59
DURATION_480
POSITION_1197189
NOTE_ON_57
DURATION_314
POSITION_1196362
NOTE_ON_69
DURATION_1149
POSITION_1197655
NOTE_ON_72
DURATION_142
POSITION_1197804
NOTE_ON_71
DURATION_33
POSITION_1197447
NOTE_ON_63
DURATION_686
POSITION_1197968
NOTE_ON_72
DURATION_173
POSITION_1198116
NOTE_ON_69
DURATION_179
POSITION_1198263
NOTE_ON_68
DURATION_222
POSITION_1197986
NOTE_ON_57
DURATION_524
POSITION_1197431
NOTE_ON_78
DURATION_1278
POSITION_1198749
NOTE_ON_76
DURATION_184
POSITION_1198444
NOTE_ON_54
DURATION_503
POSITION_1198598
NOTE_ON_75
DURATION_388
POSITION_1198438
NOTE_ON_69
DURATION_609
POSITION_1198904
NOTE_ON_78
DURATION_183
POSITION_1199060
NOTE_ON_79
DURATION_348
POSITION_1198930
NOTE_ON_51
DURATION_555
POSITION_1199221
NOTE_ON_81
DURATION_487
POSITION_1199604
NOTE_ON_76
DURATION_157
POSITION_1199751
NOTE_ON_75
DURATION_264
POSITION_1200072
NOTE_ON_72
DURATION_319
POSITION_1200223
NOTE_ON_71
DURATION_224
POSITION_1199910
NOTE_ON_76
DURATION_537
POSITION_1199927
NOTE_ON_40
DURATION_523
POSITION_1199449
NOTE_ON_52
DURATION_1011
POSITION_1199419
NOTE_ON_79
DURATION_1064
POSITION_1200561
NOTE_ON_64
DURATION_181
POSITION_1200755
NOTE_ON_62
DURATION_146
POSITION_1200895
NOTE_ON_64
DURATION_190
POSITION_1200400
NOTE_ON_72
DURATION_851
POSITION_1201054
NOTE_ON_62
DURATION_222
POSITION_1200729
NOTE_ON_84
DURATION_576
POSITION_1201221
NOTE_ON_83
DURATION_345
POSITION_1201492
NOTE_ON_82
DURATION_440
POSITION_1201761
NOTE_ON_76
DURATION_220
POSITION_1201260
NOTE_ON_61
DURATION_828
POSITION_1201923
NOTE_ON_78
DURATION_185
POSITION_1201591
NOTE_ON_67
DURATION_645
POSITION_1202086
NOTE_ON_79
DURATION_151
POSITION_1202397
NOTE_ON_76
DURATION_149
POSITION_1202094
NOTE_ON_61
DURATION_464
POSITION_1202250
NOTE_ON_78
DURATION_330
POSITION_1202751
NOTE_ON_81
DURATION_221
POSITION_1202884
NOTE_ON_83
DURATION_149
POSITION_1202983
NOTE_ON_81
DURATION_170
POSITION_1202585
NOTE_ON_75
DURATION_571
POSITION_1203043
NOTE_ON_83
DURATION_136
POSITION_1203128
NOTE_ON_84
DURATION_381
POSITION_1203337
NOTE_ON_83
DURATION_403
POSITION_1203145
NOTE_ON_54
DURATION_645
POSITION_1203497
NOTE_ON_81
DURATION_296
POSITION_1202522
NOTE_ON_66
DURATION_1748
POSITION_1203665
NOTE_ON_76
DURATION_605
POSITION_1203749
NOTE_ON_83
DURATION_521
POSITION_1204152
NOTE_ON_79
DURATION_161
POSITION_1203608
NOTE_ON_55
DURATION_712
POSITION_1203987
NOTE_ON_81
DURATION_367
POSITION_1204305
NOTE_ON_78
DURATION_182
POSITION_1204618
NOTE_ON_76
DURATION_212
POSITION_1204460
NOTE_ON_79
DURATION_370
POSITION_1204303
NOTE_ON_57
DURATION_592
POSITION_1204839
NOTE_ON_79
DURATION_551
POSITION_1204837
NOTE_ON_76
DURATION_566
POSITION_1205094
NOTE_ON_71
DURATION_919
POSITION_1205359
NOTE_ON_78
DURATION_768
POSITION_1205395
NOTE_ON_47
DURATION_737
POSITION_1204868
NOTE_ON_59
DURATION_1268
POSITION_1205367
NOTE_ON_75
DURATION_784
POSITION_1205658
NOTE_ON_69
DURATION_501
POSITION_1206328
NOTE_ON_47
DURATION_211
POSITION_1206017
NOTE_ON_52
DURATION_541
POSITION_1206486
NOTE_ON_45
DURATION_165
POSITION_1206663
NOTE_ON_43
DURATION_166
POSITION_1206815
NOTE_ON_45
DURATION_115
POSITION_1206994
NOTE_ON_47
DURATION_76
POSITION_1206023
NOTE_ON_71
DURATION_1488
POSITION_1206076
NOTE_ON_76
DURATION_1658
POSITION_1205987
NOTE_ON_67
DURATION_1748
POSITION_1207228
NOTE_ON_40
DURATION_509
POSITION_1207515
NOTE_ON_71
DURATION_223
POSITION_1207695
NOTE_ON_69
DURATION_167
POSITION_1207863
NOTE_ON_67
DURATION_172
POSITION_1207862
NOTE_ON_47
DURATION_289
POSITION_1207642
NOTE_ON_43
DURATION_521
POSITION_1208023
NOTE_ON_66
DURATION_205
POSITION_1208204
NOTE_ON_67
DURATION_244
POSITION_1208131
NOTE_ON_52
DURATION_501
POSITION_1208478
NOTE_ON_45
DURATION_169
POSITION_1208454
NOTE_ON_67
DURATION_316
POSITION_1208636
NOTE_ON_47
DURATION_169
POSITION_1208797
NOTE_ON_49
DURATION_131
POSITION_1208458
NOTE_ON_73
DURATION_473
POSITION_1208780
NOTE_ON_67
DURATION_157
POSITION_1208949
NOTE_ON_74
DURATION_349
POSITION_1209108
NOTE_ON_49
DURATION_261
POSITION_1208958
NOTE_ON_47
DURATION_442
POSITION_1209247
NOTE_ON_67
DURATION_155
POSITION_1209266
NOTE_ON_50
DURATION_174
POSITION_1209725
NOTE_ON_67
DURATION_174
POSITION_1209425
NOTE_ON_76
DURATION_495
POSITION_1209588
NOTE_ON_50
DURATION_346
POSITION_1209428
NOTE_ON_49
DURATION_517
POSITION_1209908
NOTE_ON_67
DURATION_76
POSITION_1209959
NOTE_ON_66
DURATION_43
POSITION_1210015
NOTE_ON_67
DURATION_59
POSITION_1209741
NOTE_ON_52
DURATION_358
POSITION_1209934
NOTE_ON_45
DURATION_195
POSITION_1210066
NOTE_ON_66
DURATION_242
POSITION_1210095
NOTE_ON_47
DURATION_215
POSITION_1210241
NOTE_ON_49
DURATION_265
POSITION_1210464
NOTE_ON_50
DURATION_167
POSITION_1210767
NOTE_ON_54
DURATION_136
POSITION_1210240
NOTE_ON_64
DURATION_673
POSITION_1210617
NOTE_ON_52
DURATION_311
POSITION_1210432
NOTE_ON_66
DURATION_500
POSITION_1210760
NOTE_ON_62
DURATION_184
POSITION_1210933
NOTE_ON_52
DURATION_171
POSITION_1211079
NOTE_ON_54
DURATION_153
POSITION_1211237
NOTE_ON_55
DURATION_187
POSITION_1211236
NOTE_ON_62
DURATION_204
POSITION_1210931
NOTE_ON_67
DURATION_512
POSITION_1211409
NOTE_ON_54
DURATION_143
POSITION_1211405
NOTE_ON_69
DURATION_445
POSITION_1211555
NOTE_ON_55
DURATION_347
POSITION_1211709
NOTE_ON_62
DURATION_284
POSITION_1211891
NOTE_ON_72
DURATION_143
POSITION_1211715
NOTE_ON_57
DURATION_457
POSITION_1212061
NOTE_ON_52
DURATION_173
POSITION_1212195
NOTE_ON_54
DURATION_62
POSITION_1212054
NOTE_ON_71
DURATION_287
POSITION_1212193
NOTE_ON_69
DURATION_179
POSITION_1212370
NOTE_ON_55
DURATION_151
POSITION_1212522
NOTE_ON_57
DURATION_157
POSITION_1212686
NOTE_ON_59
DURATION_173
POSITION_1212347
NOTE_ON_71
DURATION_547
POSITION_1212668
NOTE_ON_65
DURATION_268
POSITION_1212836
NOTE_ON_57
DURATION_177
POSITION_1212985
NOTE_ON_59
DURATION_160
POSITION_1213144
NOTE_ON_60
DURATION_108
POSITION_1212843
NOTE_ON_72
DURATION_464
POSITION_1213137
NOTE_ON_65
DURATION_264
POSITION_1213303
NOTE_ON_59
DURATION_190
POSITION_1213466
NOTE_ON_60
DURATION_133
POSITION_1213603
NOTE_ON_62
DURATION_116
POSITION_1213600
NOTE_ON_65
DURATION_183
POSITION_1213790
NOTE_ON_55
DURATION_142
POSITION_1213771
NOTE_ON_64
DURATION_513
POSITION_1213935
NOTE_ON_57
DURATION_384
POSITION_1214104
NOTE_ON_59
DURATION_223
POSITION_1214081
NOTE_ON_62
DURATION_272
POSITION_1213303
NOTE_ON_74
DURATION_1081
POSITION_1214358
NOTE_ON_62
DURATION_40
POSITION_1214289
NOTE_ON_64
DURATION_111
POSITION_1214325
NOTE_ON_60
DURATION_105
POSITION_1214504
NOTE_ON_59
DURATION_168
POSITION_1214657
NOTE_ON_57
DURATION_168
POSITION_1214409
NOTE_ON_64
DURATION_697
POSITION_1214936
NOTE_ON_57
DURATION_347
POSITION_1215110
NOTE_ON_64
DURATION_323
POSITION_1215117
NOTE_ON_59
DURATION_319
POSITION_1214811
NOTE_ON_56
DURATION_628
POSITION_1215294
NOTE_ON_57
DURATION_281
POSITION_1215548
NOTE_ON_55
DURATION_174
POSITION_1215694
NOTE_ON_54
DURATION_164
POSITION_1215853
NOTE_ON_52
DURATION_150
POSITION_1215998
NOTE_ON_54
DURATION_206
POSITION_1216170
NOTE_ON_55
DURATION_196
POSITION_1216374
NOTE_ON_55
DURATION_84
POSITION_1216432
NOTE_ON_54
DURATION_85
POSITION_1216508
NOTE_ON_55
DURATION_99
POSITION_1216593
NOTE_ON_64
DURATION_238
POSITION_1216806
NOTE_ON_62
DURATION_186
POSITION_1216965
NOTE_ON_64
DURATION_192
POSITION_1216595
NOTE_ON_54
DURATION_615
POSITION_1217109
NOTE_ON_62
DURATION_151
POSITION_1215373
NOTE_ON_72
DURATION_1971
POSITION_1217253
NOTE_ON_60
DURATION_101
POSITION_1217566
NOTE_ON_54
DURATION_171
POSITION_1217722
NOTE_ON_52
DURATION_198
POSITION_1217414
NOTE_ON_62
DURATION_515
POSITION_1217918
NOTE_ON_54
DURATION_203
POSITION_1218061
NOTE_ON_52
DURATION_146
POSITION_1218216
NOTE_ON_50
DURATION_172
POSITION_1218422
NOTE_ON_50
DURATION_178
POSITION_1217886
NOTE_ON_72
DURATION_758
POSITION_1218634
NOTE_ON_71
DURATION_201
POSITION_1218805
NOTE_ON_72
DURATION_161
POSITION_1218973
NOTE_ON_74
DURATION_246
POSITION_1219126
NOTE_ON_72
DURATION_188
POSITION_1219289
NOTE_ON_71
DURATION_137
POSITION_1219011
NOTE_ON_43
DURATION_442
POSITION_1218421
NOTE_ON_55
DURATION_1047
POSITION_1219447
NOTE_ON_69
DURATION_160
POSITION_1219604
NOTE_ON_67
DURATION_194
POSITION_1219765
NOTE_ON_69
DURATION_172
POSITION_1219471
NOTE_ON_47
DURATION_480
POSITION_1219917
NOTE_ON_71
DURATION_202
POSITION_1220080
NOTE_ON_69
DURATION_142
POSITION_1220232
NOTE_ON_67
DURATION_145
POSITION_1219937
NOTE_ON_43
DURATION_466
POSITION_1220393
NOTE_ON_65
DURATION_194
POSITION_1220569
NOTE_ON_64
DURATION_175
POSITION_1220425
NOTE_ON_48
DURATION_464
POSITION_1220717
NOTE_ON_65
DURATION_199
POSITION_1220880
NOTE_ON_67
DURATION_205
POSITION_1221046
NOTE_ON_65
DURATION_212
POSITION_1221198
NOTE_ON_64
DURATION_214
POSITION_1221372
NOTE_ON_62
DURATION_358
POSITION_1221551
NOTE_ON_48
DURATION_185
POSITION_1220909
NOTE_ON_36
DURATION_979
POSITION_1221751
NOTE_ON_50
DURATION_171
POSITION_1221676
NOTE_ON_60
DURATION_369
POSITION_1221941
NOTE_ON_52
DURATION_123
POSITION_1222075
NOTE_ON_52
DURATION_184
POSITION_1222247
NOTE_ON_54
DURATION_380
POSITION_1221899
NOTE_ON_70
DURATION_808
POSITION_1222691
NOTE_ON_69
DURATION_171
POSITION_1222851
NOTE_ON_67
DURATION_206
POSITION_1222475
NOTE_ON_55
DURATION_587
POSITION_1223016
NOTE_ON_69
DURATION_159
POSITION_1223173
NOTE_ON_67
DURATION_171
POSITION_1223320
NOTE_ON_66
DURATION_138
POSITION_1223481
NOTE_ON_67
DURATION_171
POSITION_1223632
NOTE_ON_66
DURATION_196
POSITION_1223049
NOTE_ON_49
DURATION_805
POSITION_1223495
NOTE_ON_52
DURATION_601
POSITION_1223793
NOTE_ON_64
DURATION_821
POSITION_1224695
NOTE_ON_38
DURATION_73
POSITION_1224049
NOTE_ON_73
DURATION_783
POSITION_1223996
NOTE_ON_45
DURATION_838
POSITION_1224482
NOTE_ON_74
DURATION_353
POSITION_1224772
NOTE_ON_67
DURATION_186
POSITION_1224956
NOTE_ON_66
DURATION_89
POSITION_1225061
NOTE_ON_64
DURATION_85
POSITION_1225148
NOTE_ON_66
DURATION_108
POSITION_1225262
NOTE_ON_67
DURATION_111
POSITION_1225367
NOTE_ON_66
DURATION_135
POSITION_1225483
NOTE_ON_64
DURATION_421
POSITION_1224778
NOTE_ON_38
DURATION_1203
POSITION_1225269
NOTE_ON_50
DURATION_735
POSITION_1225951
NOTE_ON_48
DURATION_314
POSITION_1226118
NOTE_ON_47
DURATION_222
POSITION_1226301
NOTE_ON_45
DURATION_165
POSITION_1226463
NOTE_ON_47
DURATION_182
POSITION_1226656
NOTE_ON_48
DURATION_303
POSITION_1225786
NOTE_ON_62
DURATION_1554
POSITION_1227346
NOTE_ON_62
DURATION_212
POSITION_1227526
NOTE_ON_64
DURATION_163
POSITION_1227677
NOTE_ON_66
DURATION_155
POSITION_1227842
NOTE_ON_66
DURATION_186
POSITION_1226989
NOTE_ON_35
DURATION_1104
POSITION_1227991
NOTE_ON_67
DURATION_172
POSITION_1227704
NOTE_ON_59
DURATION_466
POSITION_1228155
NOTE_ON_69
DURATION_41
POSITION_1228317
NOTE_ON_69
DURATION_171
POSITION_1228471
NOTE_ON_71
DURATION_170
POSITION_1228172
NOTE_ON_57
DURATION_505
POSITION_1228625
NOTE_ON_72
DURATION_159
POSITION_1228793
NOTE_ON_72
DURATION_182
POSITION_1228648
NOTE_ON_55
DURATION_420
POSITION_1228957
NOTE_ON_74
DURATION_249
POSITION_1229189
NOTE_ON_54
DURATION_394
POSITION_1229458
NOTE_ON_38
DURATION_130
POSITION_1229651
NOTE_ON_40
DURATION_179
POSITION_1229191
NOTE_ON_75
DURATION_668
POSITION_1229831
NOTE_ON_42
DURATION_175
POSITION_1229626
NOTE_ON_73
DURATION_402
POSITION_1229977
NOTE_ON_43
DURATION_170
POSITION_1230156
NOTE_ON_45
DURATION_216
POSITION_1230310
NOTE_ON_47
DURATION_192
POSITION_1230471
NOTE_ON_48
DURATION_161
POSITION_1229821
NOTE_ON_74
DURATION_812
POSITION_1230639
NOTE_ON_50
DURATION_160
POSITION_1230618
NOTE_ON_78
DURATION_206
POSITION_1230824
NOTE_ON_52
DURATION_167
POSITION_1230978
NOTE_ON_54
DURATION_155
POSITION_1230816
NOTE_ON_79
DURATION_345
POSITION_1231143
NOTE_ON_55
DURATION_218
POSITION_1231142
NOTE_ON_71
DURATION_234
POSITION_1231391
NOTE_ON_73
DURATION_43
POSITION_1231456
NOTE_ON_71
DURATION_74
POSITION_1231363
NOTE_ON_57
DURATION_388
POSITION_1231515
NOTE_ON_73
DURATION_345
POSITION_1231689
NOTE_ON_55
DURATION_178
POSITION_1231860
NOTE_ON_54
DURATION_196
POSITION_1231835
NOTE_ON_74
DURATION_287
POSITION_1232044
NOTE_ON_59
DURATION_167
POSITION_1232197
NOTE_ON_57
DURATION_171
POSITION_1232011
NOTE_ON_66
DURATION_358
POSITION_1232359
NOTE_ON_55
DURATION_257
POSITION_1232359
NOTE_ON_67
DURATION_276
POSITION_1232627
NOTE_ON_55
DURATION_750
POSITION_1232650
NOTE_ON_71
DURATION_804
POSITION_1233395
NOTE_ON_69
DURATION_112
POSITION_1233458
NOTE_ON_71
DURATION_111
POSITION_1233518
NOTE_ON_69
DURATION_97
POSITION_1233574
NOTE_ON_71
DURATION_102
POSITION_1233625
NOTE_ON_69
DURATION_90
POSITION_1233687
NOTE_ON_71
DURATION_58
POSITION_1233719
NOTE_ON_69
DURATION_364
POSITION_1233288
NOTE_ON_50
DURATION_938
POSITION_1232627
NOTE_ON_62
DURATION_1601
POSITION_1234047
NOTE_ON_67
DURATION_205
POSITION_1234634
NOTE_ON_47
DURATION_376
POSITION_1234296
NOTE_ON_67
DURATION_763
POSITION_1234810
NOTE_ON_43
DURATION_264
POSITION_1234258
NOTE_ON_52
DURATION_816
POSITION_1234784
NOTE_ON_64
DURATION_390
POSITION_1235321
NOTE_ON_67
DURATION_184
POSITION_1235346
NOTE_ON_47
DURATION_162
POSITION_1234993
NOTE_ON_62
DURATION_515
POSITION_1235534
NOTE_ON_52
DURATION_393
POSITION_1235508
NOTE_ON_60
DURATION_457
POSITION_1235827
NOTE_ON_67
DURATION_166
POSITION_1235839
NOTE_ON_48
DURATION_162
POSITION_1235687
NOTE_ON_50
DURATION_478
POSITION_1235191
NOTE_ON_43
DURATION_1066
POSITION_1236169
NOTE_ON_48
DURATION_395
POSITION_1236016
NOTE_ON_59
DURATION_566
POSITION_1236351
NOTE_ON_67
DURATION_236
POSITION_1236351
NOTE_ON_47
DURATION_251
POSITION_1236725
NOTE_ON_47
DURATION_200
POSITION_1236546
NOTE_ON_57
DURATION_431
POSITION_1235024
NOTE_ON_40
DURATION_1985
POSITION_1236572
NOTE_ON_48
DURATION_437
POSITION_1236879
NOTE_ON_66
DURATION_135
POSITION_1236901
NOTE_ON_45
DURATION_182
POSITION_1237081
NOTE_ON_67
DURATION_185
POSITION_1237092
NOTE_ON_47
DURATION_210
POSITION_1237244
NOTE_ON_66
DURATION_152
POSITION_1237250
NOTE_ON_45
DURATION_168
POSITION_1237411
NOTE_ON_64
DURATION_156
POSITION_1237581
NOTE_ON_67
DURATION_131
POSITION_1237736
NOTE_ON_66
DURATION_47
POSITION_1237801
NOTE_ON_67
DURATION_40
POSITION_1237860
NOTE_ON_66
DURATION_86
POSITION_1237958
NOTE_ON_66
DURATION_39
POSITION_1238018
NOTE_ON_67
DURATION_33
POSITION_1238065
NOTE_ON_66
DURATION_68
POSITION_1238140
NOTE_ON_64
DURATION_95
POSITION_1238282
NOTE_ON_57
DURATION_10
POSITION_1237435
NOTE_ON_43
DURATION_965
POSITION_1238243
NOTE_ON_66
DURATION_671
POSITION_1238902
NOTE_ON_67
DURATION_358
POSITION_1237637
NOTE_ON_50
DURATION_1759
POSITION_1238271
NOTE_ON_38
DURATION_1126
POSITION_1240108
NOTE_ON_62
DURATION_565
POSITION_1239264
NOTE_ON_67
DURATION_1447
POSITION_1240540
NOTE_ON_71
DURATION_171
POSITION_1240721
NOTE_ON_67
DURATION_390
POSITION_1240677
NOTE_ON_62
DURATION_475
POSITION_1240622
NOTE_ON_69
DURATION_538
POSITION_1239357
NOTE_ON_43
DURATION_1807
POSITION_1241033
NOTE_ON_72
DURATION_138
POSITION_1240883
NOTE_ON_74
DURATION_312
POSITION_1240715
NOTE_ON_71
DURATION_503
POSITION_1240061
NOTE_ON_59
DURATION_1180
POSITION_1241229
NOTE_ON_71
DURATION_527
POSITION_1241199
NOTE_ON_74
DURATION_595
POSITION_1241122
NOTE_ON_67
DURATION_724
POSITION_1241400
NOTE_ON_79
DURATION_448
POSITION_1241559
NOTE_ON_78
DURATION_290
POSITION_1242134
NOTE_ON_43
DURATION_359
POSITION_1242310
NOTE_ON_42
DURATION_200
POSITION_1242502
NOTE_ON_43
DURATION_244
POSITION_1242704
NOTE_ON_38
DURATION_56
POSITION_1242958
NOTE_ON_35
DURATION_61
POSITION_1243447
NOTE_ON_31
DURATION_2633
POSITION_1241763
NOTE_ON_71
DURATION_4317
POSITION_1241805
NOTE_ON_74
DURATION_4275
POSITION_1241857
NOTE_ON_79
DURATION_4223
POSITION_1250109
NOTE_ON_74
DURATION_76
POSITION_1250191
NOTE_ON_76
DURATION_71
POSITION_1250261
NOTE_ON_78
DURATION_48
POSITION_1250365
NOTE_ON_55
DURATION_41
POSITION_1250346
NOTE_ON_79
DURATION_69
POSITION_1250431
NOTE_ON_74
DURATION_53
POSITION_1250527
NOTE_ON_71
DURATION_31
POSITION_1250524
NOTE_ON_59
DURATION_37
POSITION_1250613
NOTE_ON_74
DURATION_48
POSITION_1250685
NOTE_ON_67
DURATION_40
POSITION_1250703
NOTE_ON_62
DURATION_46
POSITION_1250769
NOTE_ON_71
DURATION_40
POSITION_1250859
NOTE_ON_74
DURATION_33
POSITION_1250867
NOTE_ON_59
DURATION_26
POSITION_1250938
NOTE_ON_71
DURATION_39
POSITION_1251037
NOTE_ON_79
DURATION_40
POSITION_1251039
NOTE_ON_55
DURATION_40
POSITION_1251116
NOTE_ON_74
DURATION_51
POSITION_1251206
NOTE_ON_83
DURATION_62
POSITION_1251290
NOTE_ON_79
DURATION_51
POSITION_1251389
NOTE_ON_81
DURATION_56
POSITION_1251393
NOTE_ON_54
DURATION_95
POSITION_1251458
NOTE_ON_78
DURATION_79
POSITION_1251557
NOTE_ON_57
DURATION_39
POSITION_1251551
NOTE_ON_74
DURATION_92
POSITION_1251643
NOTE_ON_78
DURATION_72
POSITION_1251731
NOTE_ON_62
DURATION_39
POSITION_1251728
NOTE_ON_69
DURATION_46
POSITION_1251800
NOTE_ON_74
DURATION_82
POSITION_1251905
NOTE_ON_57
DURATION_31
POSITION_1251896
NOTE_ON_78
DURATION_55
POSITION_1251974
NOTE_ON_74
DURATION_79
POSITION_1252074
NOTE_ON_54
DURATION_33
POSITION_1252070
NOTE_ON_81
DURATION_66
POSITION_1252156
NOTE_ON_78
DURATION_86
POSITION_1252240
NOTE_ON_84
DURATION_73
POSITION_1252328
NOTE_ON_81
DURATION_68
POSITION_1252426
NOTE_ON_55
DURATION_87
POSITION_1252421
NOTE_ON_83
DURATION_98
POSITION_1252522
NOTE_ON_79
DURATION_50
POSITION_1252596
NOTE_ON_59
DURATION_37
POSITION_1252600
NOTE_ON_74
DURATION_65
POSITION_1252696
NOTE_ON_79
DURATION_40
POSITION_1252771
NOTE_ON_62
DURATION_29
POSITION_1252771
NOTE_ON_84
DURATION_63
POSITION_1252858
NOTE_ON_81
DURATION_34
POSITION_1252950
NOTE_ON_83
DURATION_82
POSITION_1253034
NOTE_ON_79
DURATION_49
POSITION_1252956
NOTE_ON_67
DURATION_155
POSITION_1253122
NOTE_ON_59
DURATION_44
POSITION_1253122
NOTE_ON_74
DURATION_65
POSITION_1253204
NOTE_ON_79
DURATION_75
POSITION_1253295
NOTE_ON_62
DURATION_35
POSITION_1253290
NOTE_ON_84
DURATION_66
POSITION_1253379
NOTE_ON_81
DURATION_68
POSITION_1253465
NOTE_ON_55
DURATION_37
POSITION_1253465
NOTE_ON_83
DURATION_43
POSITION_1253543
NOTE_ON_79
DURATION_53
POSITION_1253633
NOTE_ON_60
DURATION_30
POSITION_1253631
NOTE_ON_81
DURATION_105
POSITION_1253711
NOTE_ON_78
DURATION_84
POSITION_1253787
NOTE_ON_57
DURATION_28
POSITION_1253799
NOTE_ON_79
DURATION_43
POSITION_1253879
NOTE_ON_76
DURATION_88
POSITION_1254055
NOTE_ON_74
DURATION_104
POSITION_1253976
NOTE_ON_62
DURATION_186
POSITION_1253971
NOTE_ON_78
DURATION_211
POSITION_1254147
NOTE_ON_50
DURATION_45
POSITION_1254147
NOTE_ON_69
DURATION_58
POSITION_1254229
NOTE_ON_74
DURATION_79
POSITION_1254331
NOTE_ON_60
DURATION_37
POSITION_1254315
NOTE_ON_78
DURATION_68
POSITION_1254403
NOTE_ON_74
DURATION_54
POSITION_1254492
NOTE_ON_79
DURATION_39
POSITION_1254493
NOTE_ON_59
DURATION_38
POSITION_1254569
NOTE_ON_74
DURATION_65
POSITION_1254662
NOTE_ON_81
DURATION_32
POSITION_1254663
NOTE_ON_57
DURATION_36
POSITION_1254749
NOTE_ON_74
DURATION_47
POSITION_1254833
NOTE_ON_55
DURATION_35
POSITION_1254835
NOTE_ON_83
DURATION_34
POSITION_1254838
NOTE_ON_79
DURATION_58
POSITION_1254909
NOTE_ON_74
DURATION_36
POSITION_1255014
NOTE_ON_76
DURATION_225
POSITION_1255014
NOTE_ON_60
DURATION_225
POSITION_1255183
NOTE_ON_48
DURATION_57
POSITION_1255182
NOTE_ON_67
DURATION_61
POSITION_1255094
NOTE_ON_72
DURATION_171
POSITION_1255269
NOTE_ON_72
DURATION_75
POSITION_1255353
NOTE_ON_59
DURATION_31
POSITION_1255353
NOTE_ON_76
DURATION_42
POSITION_1255454
NOTE_ON_72
DURATION_67
POSITION_1255522
NOTE_ON_57
DURATION_31
POSITION_1255523
NOTE_ON_78
DURATION_37
POSITION_1255607
NOTE_ON_72
DURATION_61
POSITION_1255698
NOTE_ON_79
DURATION_37
POSITION_1255694
NOTE_ON_55
DURATION_41
POSITION_1255790
NOTE_ON_72
DURATION_41
POSITION_1255861
NOTE_ON_54
DURATION_37
POSITION_1255867
NOTE_ON_81
DURATION_32
POSITION_1255957
NOTE_ON_72
DURATION_54
POSITION_1256043
NOTE_ON_75
DURATION_87
POSITION_1256123
NOTE_ON_71
DURATION_63
POSITION_1256050
NOTE_ON_59
DURATION_190
POSITION_1256212
NOTE_ON_47
DURATION_45
POSITION_1256207
NOTE_ON_66
DURATION_75
POSITION_1256295
NOTE_ON_71
DURATION_87
POSITION_1256382
NOTE_ON_57
DURATION_34
POSITION_1256385
NOTE_ON_75
DURATION_61
POSITION_1256474
NOTE_ON_71
DURATION_60
POSITION_1256556
NOTE_ON_55
DURATION_37
POSITION_1256562
NOTE_ON_76
DURATION_55
POSITION_1256646
NOTE_ON_71
DURATION_64
POSITION_1256732
NOTE_ON_54
DURATION_34
POSITION_1256737
NOTE_ON_78
DURATION_44
POSITION_1256733
NOTE_ON_76
DURATION_91
POSITION_1256813
NOTE_ON_71
DURATION_46
POSITION_1256890
NOTE_ON_79
DURATION_46
POSITION_1256901
NOTE_ON_52
DURATION_41
POSITION_1256962
NOTE_ON_71
DURATION_60
POSITION_1257074
NOTE_ON_57
DURATION_39
POSITION_1257059
NOTE_ON_73
DURATION_62
POSITION_1257146
NOTE_ON_79
DURATION_68
POSITION_1257245
NOTE_ON_59
DURATION_38
POSITION_1257233
NOTE_ON_74
DURATION_52
POSITION_1257315
NOTE_ON_79
DURATION_67
POSITION_1257403
NOTE_ON_61
DURATION_39
POSITION_1257404
NOTE_ON_76
DURATION_62
POSITION_1257487
NOTE_ON_79
DURATION_80
POSITION_1257571
NOTE_ON_62
DURATION_34
POSITION_1257573
NOTE_ON_78
DURATION_60
POSITION_1257665
NOTE_ON_74
DURATION_68
POSITION_1257742
NOTE_ON_59
DURATION_31
POSITION_1257748
NOTE_ON_80
DURATION_47
POSITION_1257836
NOTE_ON_74
DURATION_66
POSITION_1257924
NOTE_ON_52
DURATION_40
POSITION_1257924
NOTE_ON_83
DURATION_55
POSITION_1258002
NOTE_ON_74
DURATION_86
POSITION_1258095
NOTE_ON_73
DURATION_44
POSITION_1258099
NOTE_ON_57
DURATION_41
POSITION_1258175
NOTE_ON_74
DURATION_85
POSITION_1258272
NOTE_ON_45
DURATION_43
POSITION_1258273
NOTE_ON_76
DURATION_91
POSITION_1258370
NOTE_ON_73
DURATION_83
POSITION_1258457
NOTE_ON_69
DURATION_58
POSITION_1258536
NOTE_ON_67
DURATION_65
POSITION_1258621
NOTE_ON_66
DURATION_58
POSITION_1258710
NOTE_ON_69
DURATION_91
POSITION_1258801
NOTE_ON_54
DURATION_38
POSITION_1258458
NOTE_ON_57
DURATION_393
POSITION_1258801
NOTE_ON_74
DURATION_65
POSITION_1258889
NOTE_ON_69
DURATION_73
POSITION_1258969
NOTE_ON_78
DURATION_63
POSITION_1259033
NOTE_ON_74
DURATION_40
POSITION_1258967
NOTE_ON_50
DURATION_203
POSITION_1259141
NOTE_ON_80
DURATION_85
POSITION_1259201
NOTE_ON_49
DURATION_77
POSITION_1259217
NOTE_ON_81
DURATION_93
POSITION_1259308
NOTE_ON_50
DURATION_68
POSITION_1259393
NOTE_ON_49
DURATION_83
POSITION_1259464
NOTE_ON_47
DURATION_97
POSITION_1259554
NOTE_ON_45
DURATION_86
POSITION_1259313
NOTE_ON_69
DURATION_329
POSITION_1259653
NOTE_ON_55
DURATION_51
POSITION_1259738
NOTE_ON_71
DURATION_74
POSITION_1259819
NOTE_ON_52
DURATION_42
POSITION_1259819
NOTE_ON_73
DURATION_66
POSITION_1259896
NOTE_ON_69
DURATION_63
POSITION_1259978
NOTE_ON_76
DURATION_53
POSITION_1260061
NOTE_ON_69
DURATION_40
POSITION_1259985
NOTE_ON_49
DURATION_157
POSITION_1260153
NOTE_ON_49
DURATION_84
POSITION_1260152
NOTE_ON_78
DURATION_96
POSITION_1260237
NOTE_ON_47
DURATION_64
POSITION_1260236
NOTE_ON_79
DURATION_85
POSITION_1260322
NOTE_ON_50
DURATION_71
POSITION_1260406
NOTE_ON_49
DURATION_94
POSITION_1260488
NOTE_ON_47
DURATION_87
POSITION_1260320
NOTE_ON_69
DURATION_285
POSITION_1260572
NOTE_ON_45
DURATION_104
POSITION_1260676
NOTE_ON_47
DURATION_57
POSITION_1260683
NOTE_ON_54
DURATION_143
POSITION_1260769
NOTE_ON_71
DURATION_68
POSITION_1260856
NOTE_ON_52
DURATION_50
POSITION_1260852
NOTE_ON_73
DURATION_62
POSITION_1260928
NOTE_ON_74
DURATION_94
POSITION_1261021
NOTE_ON_50
DURATION_46
POSITION_1261019
NOTE_ON_76
DURATION_87
POSITION_1261098
NOTE_ON_78
DURATION_71
POSITION_1261189
NOTE_ON_49
DURATION_43
POSITION_1261183
NOTE_ON_79
DURATION_79
POSITION_1261260
NOTE_ON_81
DURATION_89
POSITION_1261348
NOTE_ON_50
DURATION_42
POSITION_1261343
NOTE_ON_83
DURATION_86
POSITION_1261417
NOTE_ON_81
DURATION_53
POSITION_1261414
NOTE_ON_85
DURATION_80
POSITION_1261496
NOTE_ON_86
DURATION_138
POSITION_1261622
NOTE_ON_85
DURATION_63
POSITION_1261518
NOTE_ON_52
DURATION_171
POSITION_1261676
NOTE_ON_83
DURATION_49
POSITION_1261710
NOTE_ON_54
DURATION_39
POSITION_1261723
NOTE_ON_81
DURATION_60
POSITION_1261821
NOTE_ON_79
DURATION_44
POSITION_1261881
NOTE_ON_55
DURATION_39
POSITION_1261888
NOTE_ON_78
DURATION_38
POSITION_1261963
NOTE_ON_76
DURATION_31
POSITION_1262026
NOTE_ON_78
DURATION_40
POSITION_1262033
NOTE_ON_57
DURATION_39
POSITION_1262074
NOTE_ON_76
DURATION_49
POSITION_1262114
NOTE_ON_78
DURATION_73
POSITION_1262168
NOTE_ON_76
DURATION_52
POSITION_1262227
NOTE_ON_74
DURATION_24
POSITION_1262234
NOTE_ON_59
DURATION_43
POSITION_1262305
NOTE_ON_69
DURATION_41
POSITION_1262397
NOTE_ON_52
DURATION_44
POSITION_1262397
NOTE_ON_68
DURATION_59
POSITION_1262466
NOTE_ON_71
DURATION_84
POSITION_1262558
NOTE_ON_56
DURATION_33
POSITION_1262559
NOTE_ON_64
DURATION_45
POSITION_1262633
NOTE_ON_74
DURATION_71
POSITION_1262727
NOTE_ON_57
DURATION_37
POSITION_1262726
NOTE_ON_73
DURATION_45
POSITION_1262811
NOTE_ON_69
DURATION_35
POSITION_1262895
NOTE_ON_45
DURATION_50
POSITION_1262895
NOTE_ON_64
DURATION_91
POSITION_1262985
NOTE_ON_62
DURATION_81
POSITION_1263075
NOTE_ON_61
DURATION_72
POSITION_1263155
NOTE_ON_62
DURATION_108
POSITION_1263082
NOTE_ON_55
DURATION_182
POSITION_1263254
NOTE_ON_54
DURATION_56
POSITION_1263244
NOTE_ON_72
DURATION_101
POSITION_1263334
NOTE_ON_69
DURATION_75
POSITION_1263417
NOTE_ON_50
DURATION_50
POSITION_1263419
NOTE_ON_66
DURATION_60
POSITION_1263503
NOTE_ON_62
DURATION_54
POSITION_1263586
NOTE_ON_61
DURATION_68
POSITION_1263669
NOTE_ON_62
DURATION_72
POSITION_1263587
NOTE_ON_54
DURATION_167
POSITION_1263754
NOTE_ON_55
DURATION_48
POSITION_1263753
NOTE_ON_71
DURATION_61
POSITION_1263837
NOTE_ON_69
DURATION_60
POSITION_1263922
NOTE_ON_67
DURATION_46
POSITION_1263941
NOTE_ON_47
DURATION_38
POSITION_1264003
NOTE_ON_62
DURATION_50
POSITION_1264093
NOTE_ON_61
DURATION_44
POSITION_1264095
NOTE_ON_52
DURATION_42
POSITION_1264162
NOTE_ON_62
DURATION_40
POSITION_1264264
NOTE_ON_69
DURATION_67
POSITION_1264268
NOTE_ON_54
DURATION_68
POSITION_1264346
NOTE_ON_67
DURATION_77
POSITION_1264438
NOTE_ON_45
DURATION_39
POSITION_1264434
NOTE_ON_66
DURATION_72
POSITION_1264508
NOTE_ON_62
DURATION_47
POSITION_1264595
NOTE_ON_50
DURATION_46
POSITION_1264593
NOTE_ON_61
DURATION_61
POSITION_1264679
NOTE_ON_62
DURATION_56
POSITION_1264776
NOTE_ON_67
DURATION_78
POSITION_1264781
NOTE_ON_52
DURATION_79
POSITION_1264858
NOTE_ON_66
DURATION_105
POSITION_1264947
NOTE_ON_43
DURATION_35
POSITION_1264946
NOTE_ON_64
DURATION_66
POSITION_1265022
NOTE_ON_62
DURATION_80
POSITION_1265107
NOTE_ON_47
DURATION_45
POSITION_1265112
NOTE_ON_61
DURATION_85
POSITION_1265196
NOTE_ON_59
DURATION_81
POSITION_1265284
NOTE_ON_49
DURATION_80
POSITION_1265369
NOTE_ON_49
DURATION_72
POSITION_1265285
NOTE_ON_57
DURATION_156
POSITION_1265367
NOTE_ON_61
DURATION_95
POSITION_1265446
NOTE_ON_64
DURATION_34
POSITION_1265452
NOTE_ON_57
DURATION_66
POSITION_1265532
NOTE_ON_67
DURATION_78
POSITION_1265617
NOTE_ON_55
DURATION_54
POSITION_1265615
NOTE_ON_73
DURATION_58
POSITION_1265692
NOTE_ON_76
DURATION_90
POSITION_1265776
NOTE_ON_54
DURATION_30
POSITION_1265775
NOTE_ON_81
DURATION_50
POSITION_1265976
NOTE_ON_54
DURATION_10
POSITION_1265979
NOTE_ON_74
DURATION_27
POSITION_1265975
NOTE_ON_43
DURATION_33
POSITION_1265982
NOTE_ON_66
DURATION_32
POSITION_1266174
NOTE_ON_64
DURATION_31
POSITION_1266174
NOTE_ON_73
DURATION_31
POSITION_1266180
NOTE_ON_45
DURATION_28
POSITION_1266176
NOTE_ON_57
DURATION_34
POSITION_1266413
NOTE_ON_66
DURATION_363
POSITION_1266409
NOTE_ON_74
DURATION_368
POSITION_1266411
NOTE_ON_38
DURATION_369
POSITION_1266933
NOTE_ON_74
DURATION_64
POSITION_1267023
NOTE_ON_76
DURATION_82
POSITION_1267101
NOTE_ON_78
DURATION_71
POSITION_1267189
NOTE_ON_55
DURATION_40
POSITION_1267188
NOTE_ON_79
DURATION_78
POSITION_1267275
NOTE_ON_74
DURATION_37
POSITION_1267362
NOTE_ON_59
DURATION_40
POSITION_1267363
NOTE_ON_71
DURATION_41
POSITION_1267450
NOTE_ON_74
DURATION_46
POSITION_1267525
NOTE_ON_62
DURATION_39
POSITION_1267548
NOTE_ON_67
DURATION_27
POSITION_1267611
NOTE_ON_71
DURATION_40
POSITION_1267701
NOTE_ON_59
DURATION_32
POSITION_1267701
NOTE_ON_74
DURATION_37
POSITION_1267773
NOTE_ON_71
DURATION_41
POSITION_1267867
NOTE_ON_55
DURATION_43
POSITION_1267878
NOTE_ON_79
DURATION_36
POSITION_1267934
NOTE_ON_74
DURATION_31
POSITION_1268028
NOTE_ON_83
DURATION_30
POSITION_1268071
NOTE_ON_81
DURATION_45
POSITION_1268132
NOTE_ON_79
DURATION_33
POSITION_1268202
NOTE_ON_54
DURATION_32
POSITION_1268190
NOTE_ON_81
DURATION_79
POSITION_1268274
NOTE_ON_78
DURATION_74
POSITION_1268370
NOTE_ON_57
DURATION_31
POSITION_1268372
NOTE_ON_74
DURATION_53
POSITION_1268462
NOTE_ON_78
DURATION_62
POSITION_1268540
NOTE_ON_69
DURATION_34
POSITION_1268541
NOTE_ON_62
DURATION_34
POSITION_1268617
NOTE_ON_74
DURATION_48
POSITION_1268712
NOTE_ON_78
DURATION_33
POSITION_1268719
NOTE_ON_57
DURATION_47
POSITION_1268778
NOTE_ON_74
DURATION_69
POSITION_1268880
NOTE_ON_54
DURATION_36
POSITION_1268871
NOTE_ON_81
DURATION_56
POSITION_1268945
NOTE_ON_78
DURATION_35
POSITION_1269047
NOTE_ON_84
DURATION_31
POSITION_1269091
NOTE_ON_83
DURATION_29
POSITION_1269138
NOTE_ON_81
DURATION_61
POSITION_1269221
NOTE_ON_55
DURATION_31
POSITION_1269206
NOTE_ON_83
DURATION_48
POSITION_1269294
NOTE_ON_79
DURATION_41
POSITION_1269384
NOTE_ON_59
DURATION_32
POSITION_1269384
NOTE_ON_74
DURATION_34
POSITION_1269476
NOTE_ON_79
DURATION_27
POSITION_1269569
NOTE_ON_62
DURATION_31
POSITION_1269569
NOTE_ON_84
DURATION_35
POSITION_1269652
NOTE_ON_81
DURATION_27
POSITION_1269744
NOTE_ON_83
DURATION_68
POSITION_1269830
NOTE_ON_79
DURATION_32
POSITION_1269747
NOTE_ON_67
DURATION_140
POSITION_1269921
NOTE_ON_59
DURATION_34
POSITION_1269921
NOTE_ON_74
DURATION_48
POSITION_1269991
NOTE_ON_79
DURATION_41
POSITION_1270081
NOTE_ON_62
DURATION_32
POSITION_1270077
NOTE_ON_84
DURATION_37
POSITION_1270144
NOTE_ON_83
DURATION_24
POSITION_1270170
NOTE_ON_81
DURATION_60
POSITION_1270251
NOTE_ON_55
DURATION_32
POSITION_1270247
NOTE_ON_83
DURATION_36
POSITION_1270298
NOTE_ON_81
DURATION_58
POSITION_1270366
NOTE_ON_79
DURATION_33
POSITION_1270406
NOTE_ON_60
DURATION_27
POSITION_1270410
NOTE_ON_81
DURATION_50
POSITION_1270481
NOTE_ON_79
DURATION_32
POSITION_1270519
NOTE_ON_78
DURATION_30
POSITION_1270575
NOTE_ON_57
DURATION_35
POSITION_1270575
NOTE_ON_79
DURATION_46
POSITION_1270635
NOTE_ON_78
DURATION_47
POSITION_1270697
NOTE_ON_76
DURATION_38
POSITION_1270760
NOTE_ON_78
DURATION_65
POSITION_1270845
NOTE_ON_74
DURATION_62
POSITION_1270754
NOTE_ON_62
DURATION_176
POSITION_1270939
NOTE_ON_69
DURATION_34
POSITION_1270938
NOTE_ON_50
DURATION_48
POSITION_1271005
NOTE_ON_74
DURATION_69
POSITION_1271097
NOTE_ON_60
DURATION_37
POSITION_1271093
NOTE_ON_78
DURATION_42
POSITION_1271178
NOTE_ON_74
DURATION_41
POSITION_1271264
NOTE_ON_79
DURATION_33
POSITION_1271272
NOTE_ON_59
DURATION_32
POSITION_1271346
NOTE_ON_74
DURATION_67
POSITION_1271437
NOTE_ON_81
DURATION_31
POSITION_1271442
NOTE_ON_57
DURATION_31
POSITION_1271525
NOTE_ON_74
DURATION_41
POSITION_1271611
NOTE_ON_83
DURATION_25
POSITION_1271613
NOTE_ON_55
DURATION_37
POSITION_1271683
NOTE_ON_74
DURATION_33
POSITION_1271788
NOTE_ON_76
DURATION_185
POSITION_1271792
NOTE_ON_60
DURATION_191
POSITION_1271887
NOTE_ON_72
DURATION_97
POSITION_1271979
NOTE_ON_48
DURATION_42
POSITION_1271974
NOTE_ON_67
DURATION_53
POSITION_1272067
NOTE_ON_72
DURATION_33
POSITION_1272142
NOTE_ON_76
DURATION_30
POSITION_1272141
NOTE_ON_59
DURATION_37
POSITION_1272218
NOTE_ON_72
DURATION_55
POSITION_1272317
NOTE_ON_78
DURATION_25
POSITION_1272314
NOTE_ON_57
DURATION_36
POSITION_1272401
NOTE_ON_72
DURATION_46
POSITION_1272483
NOTE_ON_79
DURATION_30
POSITION_1272487
NOTE_ON_55
DURATION_34
POSITION_1272571
NOTE_ON_72
DURATION_48
POSITION_1272655
NOTE_ON_81
DURATION_32
POSITION_1272658
NOTE_ON_54
DURATION_36
POSITION_1272727
NOTE_ON_72
DURATION_67
POSITION_1272830
NOTE_ON_75
DURATION_87
POSITION_1272922
NOTE_ON_71
DURATION_62
POSITION_1272848
NOTE_ON_59
DURATION_188
POSITION_1273007
NOTE_ON_66
DURATION_42
POSITION_1273017
NOTE_ON_47
DURATION_34
POSITION_1273020
NOTE_ON_75
DURATION_41
POSITION_1273081
NOTE_ON_71
DURATION_68
POSITION_1273185
NOTE_ON_57
DURATION_40
POSITION_1273171
NOTE_ON_75
DURATION_69
POSITION_1273257
NOTE_ON_71
DURATION_70
POSITION_1273355
NOTE_ON_55
DURATION_46
POSITION_1273347
NOTE_ON_76
DURATION_61
POSITION_1273434
NOTE_ON_71
DURATION_62
POSITION_1273518
NOTE_ON_78
DURATION_38
POSITION_1273522
NOTE_ON_54
DURATION_35
POSITION_1273602
NOTE_ON_71
DURATION_45
POSITION_1273684
NOTE_ON_79
DURATION_40
POSITION_1273692
NOTE_ON_52
DURATION_40
POSITION_1273753
NOTE_ON_71
DURATION_56
POSITION_1273858
NOTE_ON_73
DURATION_39
POSITION_1273859
NOTE_ON_57
DURATION_39
POSITION_1273943
NOTE_ON_79
DURATION_59
POSITION_1274033
NOTE_ON_59
DURATION_36
POSITION_1274034
NOTE_ON_74
DURATION_36
POSITION_1274117
NOTE_ON_79
DURATION_75
POSITION_1274207
NOTE_ON_61
DURATION_38
POSITION_1274207
NOTE_ON_76
DURATION_49
POSITION_1274305
NOTE_ON_79
DURATION_83
POSITION_1274383
NOTE_ON_62
DURATION_31
POSITION_1274387
NOTE_ON_78
DURATION_60
POSITION_1274470
NOTE_ON_74
DURATION_52
POSITION_1274561
NOTE_ON_59
DURATION_36
POSITION_1274561
NOTE_ON_80
DURATION_37
POSITION_1274640
NOTE_ON_74
DURATION_43
POSITION_1274731
NOTE_ON_83
DURATION_38
POSITION_1274736
NOTE_ON_52
DURATION_39
POSITION_1274818
NOTE_ON_74
DURATION_30
POSITION_1274913
NOTE_ON_57
DURATION_31
POSITION_1274907
NOTE_ON_73
DURATION_47
POSITION_1274991
NOTE_ON_74
DURATION_79
POSITION_1275086
NOTE_ON_45
DURATION_29
POSITION_1275088
NOTE_ON_76
DURATION_70
POSITION_1275185
NOTE_ON_73
DURATION_52
POSITION_1275274
NOTE_ON_69
DURATION_74
POSITION_1275348
NOTE_ON_67
DURATION_61
POSITION_1275443
NOTE_ON_66
DURATION_48
POSITION_1275521
NOTE_ON_69
DURATION_52
POSITION_1275629
NOTE_ON_74
DURATION_38
POSITION_1275631
NOTE_ON_54
DURATION_40
POSITION_1275708
NOTE_ON_69
DURATION_65
POSITION_1275792
NOTE_ON_78
DURATION_81
POSITION_1275275
NOTE_ON_57
DURATION_626
POSITION_1275878
NOTE_ON_74
DURATION_32
POSITION_1275789
NOTE_ON_50
DURATION_209
POSITION_1275969
NOTE_ON_80
DURATION_82
POSITION_1276058
NOTE_ON_81
DURATION_54
POSITION_1276059
NOTE_ON_49
DURATION_64
POSITION_1276151
NOTE_ON_50
DURATION_68
POSITION_1276227
NOTE_ON_49
DURATION_92
POSITION_1276152
NOTE_ON_69
DURATION_233
POSITION_1276313
NOTE_ON_47
DURATION_91
POSITION_1276403
NOTE_ON_45
DURATION_91
POSITION_1276486
NOTE_ON_55
DURATION_52
POSITION_1276576
NOTE_ON_71
DURATION_67
POSITION_1276664
NOTE_ON_73
DURATION_35
POSITION_1276662
NOTE_ON_52
DURATION_41
POSITION_1276744
NOTE_ON_69
DURATION_44
POSITION_1276829
NOTE_ON_76
DURATION_35
POSITION_1276910
NOTE_ON_69
DURATION_65
POSITION_1277003
NOTE_ON_78
DURATION_69
POSITION_1276833
NOTE_ON_49
DURATION_258
POSITION_1277088
NOTE_ON_79
DURATION_54
POSITION_1277082
NOTE_ON_47
DURATION_69
POSITION_1277172
NOTE_ON_50
DURATION_51
POSITION_1277258
NOTE_ON_49
DURATION_68
POSITION_1277318
NOTE_ON_47
DURATION_78
POSITION_1277178
NOTE_ON_69
DURATION_236
POSITION_1277403
NOTE_ON_45
DURATION_91
POSITION_1277504
NOTE_ON_54
DURATION_44
POSITION_1277596
NOTE_ON_71
DURATION_48
POSITION_1277689
NOTE_ON_73
DURATION_42
POSITION_1277689
NOTE_ON_52
DURATION_44
POSITION_1277769
NOTE_ON_74
DURATION_77
POSITION_1277856
NOTE_ON_50
DURATION_47
POSITION_1277856
NOTE_ON_76
DURATION_71
POSITION_1277940
NOTE_ON_78
DURATION_55
POSITION_1278030
NOTE_ON_79
DURATION_40
POSITION_1278021
NOTE_ON_49
DURATION_58
POSITION_1278109
NOTE_ON_81
DURATION_32
POSITION_1278197
NOTE_ON_50
DURATION_48
POSITION_1278191
NOTE_ON_83
DURATION_70
POSITION_1278271
NOTE_ON_85
DURATION_64
POSITION_1278382
NOTE_ON_52
DURATION_34
POSITION_1278358
NOTE_ON_86
DURATION_135
POSITION_1278495
NOTE_ON_85
DURATION_34
POSITION_1278568
NOTE_ON_54
DURATION_34
POSITION_1278552
NOTE_ON_83
DURATION_51
POSITION_1278620
NOTE_ON_81
DURATION_46
POSITION_1278722
NOTE_ON_79
DURATION_34
POSITION_1278788
NOTE_ON_78
DURATION_48
POSITION_1278858
NOTE_ON_76
DURATION_34
POSITION_1278922
NOTE_ON_78
DURATION_35
POSITION_1278953
NOTE_ON_57
DURATION_30
POSITION_1278975
NOTE_ON_76
DURATION_27
POSITION_1279039
NOTE_ON_78
DURATION_72
POSITION_1279081
NOTE_ON_76
DURATION_52
POSITION_1279139
NOTE_ON_74
DURATION_32
POSITION_1279143
NOTE_ON_59
DURATION_35
POSITION_1279210
NOTE_ON_69
DURATION_50
POSITION_1279306
NOTE_ON_68
DURATION_38
POSITION_1279315
NOTE_ON_52
DURATION_36
POSITION_1279383
NOTE_ON_71
DURATION_56
POSITION_1279384
NOTE_ON_74
DURATION_56
POSITION_1279481
NOTE_ON_56
DURATION_34
POSITION_1279485
NOTE_ON_64
DURATION_79
POSITION_1279568
NOTE_ON_74
DURATION_62
POSITION_1279659
NOTE_ON_57
DURATION_29
POSITION_1279660
NOTE_ON_73
DURATION_33
POSITION_1279744
NOTE_ON_69
DURATION_31
POSITION_1279829
NOTE_ON_45
DURATION_29
POSITION_1279822
NOTE_ON_64
DURATION_88
POSITION_1279907
NOTE_ON_62
DURATION_64
POSITION_1279999
NOTE_ON_61
DURATION_51
POSITION_1280084
NOTE_ON_62
DURATION_89
POSITION_1279998
NOTE_ON_55
DURATION_180
POSITION_1280191
NOTE_ON_54
DURATION_31
POSITION_1280172
NOTE_ON_72
DURATION_62
POSITION_1280254
NOTE_ON_69
DURATION_67
POSITION_1280346
NOTE_ON_50
DURATION_37
POSITION_1280351
NOTE_ON_66
DURATION_47
POSITION_1280433
NOTE_ON_62
DURATION_41
POSITION_1280522
NOTE_ON_54
DURATION_66
POSITION_1280523
NOTE_ON_61
DURATION_66
POSITION_1280608
NOTE_ON_62
DURATION_37
POSITION_1280692
NOTE_ON_55
DURATION_54
POSITION_1280697
NOTE_ON_71
DURATION_61
POSITION_1280782
NOTE_ON_69
DURATION_62
POSITION_1280866
NOTE_ON_67
DURATION_49
POSITION_1280867
NOTE_ON_47
DURATION_52
POSITION_1280950
NOTE_ON_62
DURATION_54
POSITION_1281032
NOTE_ON_61
DURATION_41
POSITION_1281035
NOTE_ON_52
DURATION_42
POSITION_1281111
NOTE_ON_62
DURATION_37
POSITION_1281214
NOTE_ON_69
DURATION_66
POSITION_1281296
NOTE_ON_67
DURATION_70
POSITION_1281219
NOTE_ON_54
DURATION_157
POSITION_1281393
NOTE_ON_45
DURATION_44
POSITION_1281386
NOTE_ON_66
DURATION_63
POSITION_1281461
NOTE_ON_62
DURATION_50
POSITION_1281558
NOTE_ON_50
DURATION_39
POSITION_1281550
NOTE_ON_61
DURATION_48
POSITION_1281632
NOTE_ON_62
DURATION_39
POSITION_1281726
NOTE_ON_67
DURATION_70
POSITION_1281812
NOTE_ON_66
DURATION_98
POSITION_1281903
NOTE_ON_43
DURATION_38
POSITION_1281740
NOTE_ON_52
DURATION_213
POSITION_1281899
NOTE_ON_64
DURATION_65
POSITION_1281980
NOTE_ON_62
DURATION_60
POSITION_1282077
NOTE_ON_47
DURATION_38
POSITION_1282077
NOTE_ON_61
DURATION_51
POSITION_1282150
NOTE_ON_59
DURATION_52
POSITION_1282248
NOTE_ON_49
DURATION_51
POSITION_1282249
NOTE_ON_57
DURATION_54
POSITION_1282333
NOTE_ON_61
DURATION_58
POSITION_1282402
NOTE_ON_64
DURATION_45
POSITION_1282421
NOTE_ON_57
DURATION_29
POSITION_1282490
NOTE_ON_67
DURATION_50
POSITION_1282574
NOTE_ON_55
DURATION_9
POSITION_1282574
NOTE_ON_73
DURATION_62
POSITION_1282648
NOTE_ON_76
DURATION_72
POSITION_1282726
NOTE_ON_54
DURATION_42
POSITION_1282726
NOTE_ON_81
DURATION_49
POSITION_1282932
NOTE_ON_74
DURATION_31
POSITION_1282939
NOTE_ON_66
DURATION_26
POSITION_1282949
NOTE_ON_43
DURATION_29
POSITION_1283132
NOTE_ON_64
DURATION_25
POSITION_1283131
NOTE_ON_73
DURATION_29
POSITION_1283134
NOTE_ON_45
DURATION_48
POSITION_1283388
NOTE_ON_66
DURATION_350
POSITION_1283376
NOTE_ON_74
DURATION_362
POSITION_1283391
NOTE_ON_38
DURATION_348
POSITION_1283832
NOTE_ON_57
DURATION_58
POSITION_1283937
NOTE_ON_81
DURATION_25
POSITION_1283932
NOTE_ON_59
DURATION_69
POSITION_1284014
NOTE_ON_61
DURATION_63
POSITION_1284093
NOTE_ON_62
DURATION_75
POSITION_1284190
NOTE_ON_57
DURATION_65
POSITION_1284122
NOTE_ON_78
DURATION_160
POSITION_1284285
NOTE_ON_74
DURATION_23
POSITION_1284285
NOTE_ON_54
DURATION_61
POSITION_1284379
NOTE_ON_57
DURATION_65
POSITION_1284460
NOTE_ON_73
DURATION_31
POSITION_1284460
NOTE_ON_52
DURATION_76
POSITION_1284548
NOTE_ON_55
DURATION_67
POSITION_1284645
NOTE_ON_54
DURATION_84
POSITION_1284741
NOTE_ON_57
DURATION_55
POSITION_1284640
NOTE_ON_74
DURATION_166
POSITION_1284813
NOTE_ON_76
DURATION_29
POSITION_1284813
NOTE_ON_55
DURATION_45
POSITION_1284901
NOTE_ON_59
DURATION_77
POSITION_1284983
NOTE_ON_78
DURATION_30
POSITION_1284981
NOTE_ON_57
DURATION_47
POSITION_1285061
NOTE_ON_60
DURATION_61
POSITION_1285160
NOTE_ON_59
DURATION_46
POSITION_1285228
NOTE_ON_62
DURATION_70
POSITION_1285144
NOTE_ON_79
DURATION_165
POSITION_1285224
NOTE_ON_81
DURATION_131
POSITION_1285327
NOTE_ON_83
DURATION_31
POSITION_1285326
NOTE_ON_60
DURATION_72
POSITION_1285433
NOTE_ON_83
DURATION_7
POSITION_1285363
NOTE_ON_81
DURATION_84
POSITION_1285409
NOTE_ON_64
DURATION_43
POSITION_1285456
NOTE_ON_81
DURATION_55
POSITION_1285505
NOTE_ON_62
DURATION_58
POSITION_1285511
NOTE_ON_83
DURATION_78
POSITION_1285568
NOTE_ON_64
DURATION_56
POSITION_1285613
NOTE_ON_66
DURATION_26
POSITION_1285612
NOTE_ON_79
DURATION_46
POSITION_1285659
NOTE_ON_81
DURATION_62
POSITION_1285726
NOTE_ON_67
DURATION_40
POSITION_1285801
NOTE_ON_62
DURATION_153
POSITION_1285964
NOTE_ON_62
DURATION_86
POSITION_1285725
NOTE_ON_83
DURATION_337
POSITION_1285880
NOTE_ON_59
DURATION_189
POSITION_1286051
NOTE_ON_71
DURATION_40
POSITION_1286051
NOTE_ON_55
DURATION_75
POSITION_1286136
NOTE_ON_59
DURATION_70
POSITION_1286239
NOTE_ON_60
DURATION_79
POSITION_1286319
NOTE_ON_59
DURATION_80
POSITION_1286242
NOTE_ON_76
DURATION_187
POSITION_1286405
NOTE_ON_57
DURATION_62
POSITION_1286408
NOTE_ON_75
DURATION_114
POSITION_1286490
NOTE_ON_59
DURATION_60
POSITION_1286580
NOTE_ON_55
DURATION_68
POSITION_1286641
NOTE_ON_59
DURATION_96
POSITION_1286581
NOTE_ON_76
DURATION_182
POSITION_1286756
NOTE_ON_54
DURATION_62
POSITION_1286849
NOTE_ON_57
DURATION_64
POSITION_1286927
NOTE_ON_52
DURATION_42
POSITION_1287033
NOTE_ON_57
DURATION_39
POSITION_1286948
NOTE_ON_72
DURATION_181
POSITION_1287115
NOTE_ON_51
DURATION_52
POSITION_1287194
NOTE_ON_57
DURATION_62
POSITION_1287116
NOTE_ON_71
DURATION_144
POSITION_1286757
NOTE_ON_81
DURATION_503
POSITION_1287294
NOTE_ON_79
DURATION_26
POSITION_1287293
NOTE_ON_52
DURATION_47
POSITION_1287378
NOTE_ON_55
DURATION_71
POSITION_1287470
NOTE_ON_50
DURATION_53
POSITION_1287471
NOTE_ON_81
DURATION_85
POSITION_1287548
NOTE_ON_55
DURATION_53
POSITION_1287547
NOTE_ON_79
DURATION_92
POSITION_1287632
NOTE_ON_48
DURATION_45
POSITION_1287633
NOTE_ON_78
DURATION_84
POSITION_1287694
NOTE_ON_57
DURATION_39
POSITION_1287712
NOTE_ON_76
DURATION_65
POSITION_1287801
NOTE_ON_75
DURATION_37
POSITION_1287802
NOTE_ON_59
DURATION_71
POSITION_1287898
NOTE_ON_54
DURATION_74
POSITION_1287895
NOTE_ON_76
DURATION_106
POSITION_1287985
NOTE_ON_71
DURATION_42
POSITION_1287984
NOTE_ON_51
DURATION_54
POSITION_1288068
NOTE_ON_54
DURATION_72
POSITION_1288172
NOTE_ON_45
DURATION_61
POSITION_1288261
NOTE_ON_51
DURATION_63
POSITION_1288359
NOTE_ON_43
DURATION_57
POSITION_1288431
NOTE_ON_47
DURATION_74
POSITION_1288177
NOTE_ON_83
DURATION_388
POSITION_1288537
NOTE_ON_79
DURATION_32
POSITION_1288532
NOTE_ON_52
DURATION_79
POSITION_1288619
NOTE_ON_47
DURATION_56
POSITION_1288687
NOTE_ON_55
DURATION_59
POSITION_1288725
NOTE_ON_76
DURATION_206
POSITION_1288789
NOTE_ON_52
DURATION_148
POSITION_1288906
NOTE_ON_58
DURATION_77
POSITION_1289005
NOTE_ON_59
DURATION_92
POSITION_1289010
NOTE_ON_75
DURATION_89
POSITION_1289100
NOTE_ON_76
DURATION_97
POSITION_1289188
NOTE_ON_75
DURATION_91
POSITION_1289270
NOTE_ON_73
DURATION_71
POSITION_1289352
NOTE_ON_71
DURATION_61
POSITION_1289354
NOTE_ON_75
DURATION_94
POSITION_1289445
NOTE_ON_81
DURATION_32
POSITION_1289104
NOTE_ON_47
DURATION_425
POSITION_1289540
NOTE_ON_76
DURATION_8
POSITION_1289536
NOTE_ON_49
DURATION_80
POSITION_1289538
NOTE_ON_73
DURATION_79
POSITION_1289636
NOTE_ON_78
DURATION_29
POSITION_1289735
NOTE_ON_47
DURATION_93
POSITION_1289630
NOTE_ON_51
DURATION_226
POSITION_1289832
NOTE_ON_54
DURATION_59
POSITION_1289807
NOTE_ON_75
DURATION_91
POSITION_1289896
NOTE_ON_51
DURATION_47
POSITION_1289990
NOTE_ON_55
DURATION_72
POSITION_1289997
NOTE_ON_75
DURATION_74
POSITION_1290075
NOTE_ON_75
DURATION_80
POSITION_1290075
NOTE_ON_57
DURATION_83
POSITION_1290082
NOTE_ON_73
DURATION_86
POSITION_1290174
NOTE_ON_76
DURATION_100
POSITION_1290260
NOTE_ON_75
DURATION_81
POSITION_1290331
NOTE_ON_73
DURATION_49
POSITION_1290409
NOTE_ON_71
DURATION_42
POSITION_1290173
NOTE_ON_47
DURATION_445
POSITION_1290618
NOTE_ON_49
DURATION_71
POSITION_1290532
NOTE_ON_79
DURATION_189
POSITION_1290709
NOTE_ON_51
DURATION_65
POSITION_1290789
NOTE_ON_52
DURATION_81
POSITION_1290712
NOTE_ON_78
DURATION_184
POSITION_1290889
NOTE_ON_54
DURATION_86
POSITION_1290975
NOTE_ON_55
DURATION_76
POSITION_1290889
NOTE_ON_76
DURATION_196
POSITION_1291064
NOTE_ON_57
DURATION_52
POSITION_1291142
NOTE_ON_59
DURATION_100
POSITION_1291075
NOTE_ON_84
DURATION_198
POSITION_1291240
NOTE_ON_61
DURATION_66
POSITION_1291323
NOTE_ON_63
DURATION_74
POSITION_1291243
NOTE_ON_83
DURATION_216
POSITION_1291414
NOTE_ON_64
DURATION_75
POSITION_1291503
NOTE_ON_63
DURATION_79
POSITION_1291418
NOTE_ON_81
DURATION_219
POSITION_1291591
NOTE_ON_64
DURATION_51
POSITION_1291657
NOTE_ON_79
DURATION_115
POSITION_1291764
NOTE_ON_55
DURATION_32
POSITION_1291765
NOTE_ON_83
DURATION_105
POSITION_1291848
NOTE_ON_81
DURATION_99
POSITION_1291941
NOTE_ON_59
DURATION_37
POSITION_1291941
NOTE_ON_79
DURATION_85
POSITION_1292019
NOTE_ON_78
DURATION_72
POSITION_1292117
NOTE_ON_52
DURATION_57
POSITION_1292210
NOTE_ON_47
DURATION_74
POSITION_1292295
NOTE_ON_43
DURATION_66
POSITION_1292378
NOTE_ON_47
DURATION_64
POSITION_1292112
NOTE_ON_76
DURATION_362
POSITION_1292463
NOTE_ON_79
DURATION_31
POSITION_1292462
NOTE_ON_40
DURATION_52
POSITION_1292547
NOTE_ON_52
DURATION_54
POSITION_1292659
NOTE_ON_45
DURATION_49
POSITION_1292634
NOTE_ON_73
DURATION_94
POSITION_1292721
NOTE_ON_47
DURATION_87
POSITION_1292817
NOTE_ON_69
DURATION_35
POSITION_1292816
NOTE_ON_49
DURATION_83
POSITION_1292923
NOTE_ON_45
DURATION_56
POSITION_1292993
NOTE_ON_71
DURATION_31
POSITION_1292994
NOTE_ON_50
DURATION_55
POSITION_1293086
NOTE_ON_45
DURATION_67
POSITION_1293184
NOTE_ON_73
DURATION_21
POSITION_1293185
NOTE_ON_52
DURATION_54
POSITION_1293278
NOTE_ON_45
DURATION_53
POSITION_1293356
NOTE_ON_74
DURATION_26
POSITION_1293361
NOTE_ON_54
DURATION_55
POSITION_1293438
NOTE_ON_45
DURATION_53
POSITION_1293525
NOTE_ON_76
DURATION_37
POSITION_1293523
NOTE_ON_55
DURATION_68
POSITION_1293597
NOTE_ON_45
DURATION_63
POSITION_1293692
NOTE_ON_50
DURATION_76
POSITION_1293709
NOTE_ON_78
DURATION_71
POSITION_1293783
NOTE_ON_52
DURATION_83
POSITION_1293879
NOTE_ON_74
DURATION_40
POSITION_1293877
NOTE_ON_54
DURATION_77
POSITION_1293962
NOTE_ON_50
DURATION_52
POSITION_1294052
NOTE_ON_76
DURATION_29
POSITION_1294044
NOTE_ON_55
DURATION_77
POSITION_1294122
NOTE_ON_50
DURATION_86
POSITION_1294230
NOTE_ON_78
DURATION_38
POSITION_1294233
NOTE_ON_57
DURATION_61
POSITION_1294321
NOTE_ON_50
DURATION_70
POSITION_1294417
NOTE_ON_79
DURATION_37
POSITION_1294415
NOTE_ON_59
DURATION_62
POSITION_1294496
NOTE_ON_50
DURATION_61
POSITION_1294503
NOTE_ON_78
DURATION_99
POSITION_1294591
NOTE_ON_81
DURATION_30
POSITION_1294590
NOTE_ON_60
DURATION_56
POSITION_1294668
NOTE_ON_50
DURATION_54
POSITION_1294759
NOTE_ON_55
DURATION_73
POSITION_1294847
NOTE_ON_57
DURATION_81
POSITION_1294760
NOTE_ON_83
DURATION_195
POSITION_1294936
NOTE_ON_79
DURATION_40
POSITION_1294936
NOTE_ON_59
DURATION_73
POSITION_1295014
NOTE_ON_55
DURATION_67
POSITION_1295110
NOTE_ON_81
DURATION_39
POSITION_1295109
NOTE_ON_60
DURATION_57
POSITION_1295190
NOTE_ON_55
DURATION_85
POSITION_1295287
NOTE_ON_83
DURATION_39
POSITION_1295290
NOTE_ON_62
DURATION_60
POSITION_1295383
NOTE_ON_55
DURATION_74
POSITION_1295464
NOTE_ON_84
DURATION_45
POSITION_1295466
NOTE_ON_64
DURATION_44
POSITION_1295556
NOTE_ON_55
DURATION_79
POSITION_1295635
NOTE_ON_86
DURATION_49
POSITION_1295636
NOTE_ON_65
DURATION_65
POSITION_1295712
NOTE_ON_55
DURATION_77
POSITION_1295805
NOTE_ON_76
DURATION_46
POSITION_1295881
NOTE_ON_62
DURATION_69
POSITION_1295803
NOTE_ON_60
DURATION_150
POSITION_1295988
NOTE_ON_78
DURATION_31
POSITION_1295964
NOTE_ON_60
DURATION_70
POSITION_1296072
NOTE_ON_59
DURATION_51
POSITION_1296156
NOTE_ON_79
DURATION_30
POSITION_1296150
NOTE_ON_57
DURATION_71
POSITION_1296236
NOTE_ON_55
DURATION_72
POSITION_1296326
NOTE_ON_81
DURATION_44
POSITION_1296326
NOTE_ON_54
DURATION_83
POSITION_1296417
NOTE_ON_52
DURATION_98
POSITION_1296506
NOTE_ON_74
DURATION_33
POSITION_1296505
NOTE_ON_50
DURATION_75
POSITION_1296585
NOTE_ON_48
DURATION_77
POSITION_1296673
NOTE_ON_81
DURATION_38
POSITION_1296670
NOTE_ON_47
DURATION_128
POSITION_1296756
NOTE_ON_45
DURATION_59
POSITION_1296863
NOTE_ON_43
DURATION_102
POSITION_1296864
NOTE_ON_83
DURATION_114
POSITION_1296949
NOTE_ON_47
DURATION_80
POSITION_1296955
NOTE_ON_79
DURATION_105
POSITION_1297034
NOTE_ON_47
DURATION_48
POSITION_1297048
NOTE_ON_50
DURATION_53
POSITION_1297052
NOTE_ON_74
DURATION_82
POSITION_1297138
NOTE_ON_71
DURATION_71
POSITION_1297135
NOTE_ON_55
DURATION_76
POSITION_1297225
NOTE_ON_54
DURATION_88
POSITION_1297228
NOTE_ON_74
DURATION_94
POSITION_1297307
NOTE_ON_52
DURATION_79
POSITION_1297312
NOTE_ON_79
DURATION_97
POSITION_1297399
NOTE_ON_51
DURATION_63
POSITION_1297401
NOTE_ON_81
DURATION_68
POSITION_1297500
NOTE_ON_78
DURATION_84
POSITION_1297574
NOTE_ON_47
DURATION_46
POSITION_1297588
NOTE_ON_75
DURATION_65
POSITION_1297670
NOTE_ON_71
DURATION_69
POSITION_1297761
NOTE_ON_51
DURATION_44
POSITION_1297758
NOTE_ON_70
DURATION_57
POSITION_1297849
NOTE_ON_71
DURATION_36
POSITION_1297944
NOTE_ON_40
DURATION_110
POSITION_1297944
NOTE_ON_79
DURATION_117
POSITION_1298030
NOTE_ON_43
DURATION_103
POSITION_1298032
NOTE_ON_76
DURATION_114
POSITION_1298123
NOTE_ON_71
DURATION_46
POSITION_1298124
NOTE_ON_47
DURATION_79
POSITION_1298210
NOTE_ON_67
DURATION_65
POSITION_1298215
NOTE_ON_52
DURATION_84
POSITION_1298300
NOTE_ON_50
DURATION_74
POSITION_1298300
NOTE_ON_71
DURATION_78
POSITION_1298382
NOTE_ON_48
DURATION_57
POSITION_1298380
NOTE_ON_76
DURATION_105
POSITION_1298446
NOTE_ON_47
DURATION_46
POSITION_1298481
NOTE_ON_77
DURATION_101
POSITION_1298563
NOTE_ON_74
DURATION_98
POSITION_1298652
NOTE_ON_71
DURATION_38
POSITION_1298649
NOTE_ON_43
DURATION_62
POSITION_1298738
NOTE_ON_67
DURATION_61
POSITION_1298837
NOTE_ON_47
DURATION_46
POSITION_1298834
NOTE_ON_66
DURATION_71
POSITION_1298927
NOTE_ON_67
DURATION_79
POSITION_1299014
NOTE_ON_36
DURATION_81
POSITION_1299015
NOTE_ON_76
DURATION_98
POSITION_1299103
NOTE_ON_74
DURATION_104
POSITION_1299185
NOTE_ON_43
DURATION_55
POSITION_1299190
NOTE_ON_72
DURATION_101
POSITION_1299268
NOTE_ON_71
DURATION_47
POSITION_1299361
NOTE_ON_69
DURATION_51
POSITION_1299452
NOTE_ON_67
DURATION_63
POSITION_1299360
NOTE_ON_48
DURATION_165
POSITION_1299533
NOTE_ON_66
DURATION_57
POSITION_1299612
NOTE_ON_69
DURATION_48
POSITION_1299535
NOTE_ON_48
DURATION_207
POSITION_1299705
NOTE_ON_72
DURATION_45
POSITION_1299705
NOTE_ON_42
DURATION_55
POSITION_1299798
NOTE_ON_74
DURATION_60
POSITION_1299875
NOTE_ON_45
DURATION_37
POSITION_1299877
NOTE_ON_78
DURATION_66
POSITION_1299951
NOTE_ON_81
DURATION_97
POSITION_1300040
NOTE_ON_86
DURATION_30
POSITION_1300049
NOTE_ON_35
DURATION_59
POSITION_1300260
NOTE_ON_71
DURATION_26
POSITION_1300256
NOTE_ON_79
DURATION_34
POSITION_1300265
NOTE_ON_36
DURATION_40
POSITION_1300460
NOTE_ON_50
DURATION_9
POSITION_1300458
NOTE_ON_78
DURATION_27
POSITION_1300462
NOTE_ON_69
DURATION_24
POSITION_1300465
NOTE_ON_38
DURATION_41
POSITION_1300704
NOTE_ON_71
DURATION_326
POSITION_1300698
NOTE_ON_79
DURATION_336
POSITION_1300705
NOTE_ON_31
DURATION_333
POSITION_1301149
NOTE_ON_57
DURATION_55
POSITION_1301232
NOTE_ON_59
DURATION_62
POSITION_1301319
NOTE_ON_61
DURATION_43
POSITION_1301204
NOTE_ON_81
DURATION_198
POSITION_1301395
NOTE_ON_78
DURATION_37
POSITION_1301395
NOTE_ON_62
DURATION_42
POSITION_1301481
NOTE_ON_57
DURATION_44
POSITION_1301567
NOTE_ON_74
DURATION_34
POSITION_1301557
NOTE_ON_54
DURATION_76
POSITION_1301649
NOTE_ON_57
DURATION_60
POSITION_1301749
NOTE_ON_73
DURATION_30
POSITION_1301733
NOTE_ON_52
DURATION_71
POSITION_1301820
NOTE_ON_55
DURATION_74
POSITION_1301917
NOTE_ON_54
DURATION_78
POSITION_1302012
NOTE_ON_57
DURATION_47
POSITION_1301921
NOTE_ON_74
DURATION_157
POSITION_1302087
NOTE_ON_55
DURATION_36
POSITION_1302085
NOTE_ON_76
DURATION_40
POSITION_1302168
NOTE_ON_59
DURATION_72
POSITION_1302255
NOTE_ON_78
DURATION_32
POSITION_1302254
NOTE_ON_57
DURATION_49
POSITION_1302333
NOTE_ON_60
DURATION_56
POSITION_1302415
NOTE_ON_79
DURATION_40
POSITION_1302416
NOTE_ON_59
DURATION_46
POSITION_1302482
NOTE_ON_81
DURATION_46
POSITION_1302484
NOTE_ON_62
DURATION_78
POSITION_1302583
NOTE_ON_83
DURATION_44
POSITION_1302613
NOTE_ON_81
DURATION_53
POSITION_1302582
NOTE_ON_60
DURATION_85
POSITION_1302672
NOTE_ON_64
DURATION_31
POSITION_1302677
NOTE_ON_83
DURATION_73
POSITION_1302777
NOTE_ON_62
DURATION_36
POSITION_1302779
NOTE_ON_83
DURATION_63
POSITION_1302808
NOTE_ON_81
DURATION_104
POSITION_1302892
NOTE_ON_79
DURATION_36
POSITION_1302893
NOTE_ON_66
DURATION_57
POSITION_1302918
NOTE_ON_81
DURATION_63
POSITION_1303077
NOTE_ON_62
DURATION_142
POSITION_1303230
NOTE_ON_62
DURATION_64
POSITION_1303147
NOTE_ON_59
DURATION_147
POSITION_1303323
NOTE_ON_55
DURATION_70
POSITION_1302995
NOTE_ON_67
DURATION_408
POSITION_1303411
NOTE_ON_59
DURATION_77
POSITION_1302985
NOTE_ON_83
DURATION_579
POSITION_1303323
NOTE_ON_71
DURATION_246
POSITION_1303504
NOTE_ON_60
DURATION_67
POSITION_1303499
NOTE_ON_76
DURATION_142
POSITION_1303607
NOTE_ON_78
DURATION_72
POSITION_1303589
NOTE_ON_59
DURATION_101
POSITION_1303651
NOTE_ON_76
DURATION_44
POSITION_1303684
NOTE_ON_57
DURATION_69
POSITION_1303702
NOTE_ON_75
DURATION_97
POSITION_1303769
NOTE_ON_59
DURATION_84
POSITION_1303856
NOTE_ON_55
DURATION_74
POSITION_1303929
NOTE_ON_59
DURATION_94
POSITION_1303858
NOTE_ON_76
DURATION_201
POSITION_1304045
NOTE_ON_54
DURATION_65
POSITION_1304130
NOTE_ON_57
DURATION_58
POSITION_1304222
NOTE_ON_52
DURATION_52
POSITION_1304221
NOTE_ON_72
DURATION_140
POSITION_1304304
NOTE_ON_57
DURATION_74
POSITION_1304045
NOTE_ON_81
DURATION_372
POSITION_1304405
NOTE_ON_51
DURATION_61
POSITION_1304396
NOTE_ON_71
DURATION_154
POSITION_1304495
NOTE_ON_57
DURATION_56
POSITION_1304588
NOTE_ON_52
DURATION_68
POSITION_1304679
NOTE_ON_55
DURATION_61
POSITION_1304754
NOTE_ON_50
DURATION_74
POSITION_1304589
NOTE_ON_79
DURATION_250
POSITION_1304759
NOTE_ON_81
DURATION_100
POSITION_1304845
NOTE_ON_55
DURATION_71
POSITION_1304844
NOTE_ON_79
DURATION_92
POSITION_1304928
NOTE_ON_48
DURATION_55
POSITION_1304927
NOTE_ON_78
DURATION_102
POSITION_1305006
NOTE_ON_57
DURATION_60
POSITION_1305007
NOTE_ON_76
DURATION_83
POSITION_1305097
NOTE_ON_75
DURATION_28
POSITION_1305103
NOTE_ON_59
DURATION_56
POSITION_1305189
NOTE_ON_54
DURATION_59
POSITION_1305281
NOTE_ON_71
DURATION_32
POSITION_1305274
NOTE_ON_51
DURATION_134
POSITION_1305356
NOTE_ON_54
DURATION_94
POSITION_1305467
NOTE_ON_45
DURATION_51
POSITION_1305544
NOTE_ON_51
DURATION_50
POSITION_1305643
NOTE_ON_43
DURATION_63
POSITION_1305738
NOTE_ON_47
DURATION_57
POSITION_1305466
NOTE_ON_83
DURATION_372
POSITION_1305820
NOTE_ON_79
DURATION_31
POSITION_1305817
NOTE_ON_52
DURATION_62
POSITION_1305898
NOTE_ON_47
DURATION_65
POSITION_1305975
NOTE_ON_55
DURATION_80
POSITION_1306000
NOTE_ON_76
DURATION_187
POSITION_1306075
NOTE_ON_52
DURATION_114
POSITION_1306197
NOTE_ON_58
DURATION_59
POSITION_1306273
NOTE_ON_59
DURATION_74
POSITION_1306271
NOTE_ON_75
DURATION_78
POSITION_1306362
NOTE_ON_76
DURATION_99
POSITION_1306449
NOTE_ON_75
DURATION_80
POSITION_1306533
NOTE_ON_73
DURATION_78
POSITION_1306624
NOTE_ON_71
DURATION_71
POSITION_1306722
NOTE_ON_81
DURATION_31
POSITION_1306371
NOTE_ON_47
DURATION_407
POSITION_1306789
NOTE_ON_49
DURATION_80
POSITION_1306895
NOTE_ON_78
DURATION_49
POSITION_1306880
NOTE_ON_51
DURATION_75
POSITION_1306981
NOTE_ON_47
DURATION_81
POSITION_1307078
NOTE_ON_54
DURATION_59
POSITION_1307075
NOTE_ON_75
DURATION_89
POSITION_1307148
NOTE_ON_51
DURATION_57
POSITION_1307250
NOTE_ON_55
DURATION_66
POSITION_1307255
NOTE_ON_75
DURATION_101
POSITION_1307347
NOTE_ON_73
DURATION_60
POSITION_1307338
NOTE_ON_57
DURATION_76
POSITION_1307430
NOTE_ON_76
DURATION_93
POSITION_1307523
NOTE_ON_75
DURATION_93
POSITION_1307608
NOTE_ON_73
DURATION_58
POSITION_1307673
NOTE_ON_71
DURATION_36
POSITION_1307428
NOTE_ON_47
DURATION_440
POSITION_1307871
NOTE_ON_49
DURATION_68
POSITION_1307793
NOTE_ON_79
DURATION_190
POSITION_1307954
NOTE_ON_51
DURATION_54
POSITION_1308037
NOTE_ON_52
DURATION_70
POSITION_1307967
NOTE_ON_78
DURATION_221
POSITION_1308142
NOTE_ON_54
DURATION_95
POSITION_1308235
NOTE_ON_55
DURATION_72
POSITION_1308137
NOTE_ON_76
DURATION_176
POSITION_1308324
NOTE_ON_57
DURATION_47
POSITION_1308401
NOTE_ON_59
DURATION_104
POSITION_1308328
NOTE_ON_84
DURATION_196
POSITION_1308506
NOTE_ON_61
DURATION_62
POSITION_1308591
NOTE_ON_63
DURATION_69
POSITION_1308507
NOTE_ON_83
DURATION_231
POSITION_1308684
NOTE_ON_64
DURATION_59
POSITION_1308759
NOTE_ON_63
DURATION_74
POSITION_1308851
NOTE_ON_64
DURATION_31
POSITION_1308684
NOTE_ON_81
DURATION_249
POSITION_1308946
NOTE_ON_79
DURATION_55
POSITION_1309029
NOTE_ON_55
DURATION_38
POSITION_1309034
NOTE_ON_83
DURATION_96
POSITION_1309121
NOTE_ON_81
DURATION_61
POSITION_1309206
NOTE_ON_79
DURATION_61
POSITION_1309207
NOTE_ON_59
DURATION_64
POSITION_1309280
NOTE_ON_78
DURATION_84
POSITION_1309365
NOTE_ON_52
DURATION_72
POSITION_1309452
NOTE_ON_47
DURATION_63
POSITION_1309539
NOTE_ON_43
DURATION_53
POSITION_1309612
NOTE_ON_47
DURATION_48
POSITION_1309360
NOTE_ON_76
DURATION_371
POSITION_1309705
NOTE_ON_40
DURATION_39
POSITION_1309708
NOTE_ON_79
DURATION_37
POSITION_1309790
NOTE_ON_52
DURATION_67
POSITION_1309896
NOTE_ON_45
DURATION_62
POSITION_1309888
NOTE_ON_73
DURATION_120
POSITION_1309979
NOTE_ON_47
DURATION_65
POSITION_1310064
NOTE_ON_69
DURATION_35
POSITION_1310066
NOTE_ON_49
DURATION_62
POSITION_1310172
NOTE_ON_45
DURATION_55
POSITION_1310242
NOTE_ON_71
DURATION_38
POSITION_1310245
NOTE_ON_50
DURATION_50
POSITION_1310321
NOTE_ON_45
DURATION_68
POSITION_1310420
NOTE_ON_73
DURATION_24
POSITION_1310418
NOTE_ON_52
DURATION_61
POSITION_1310510
NOTE_ON_45
DURATION_49
POSITION_1310592
NOTE_ON_74
DURATION_31
POSITION_1310594
NOTE_ON_54
DURATION_48
POSITION_1310670
NOTE_ON_45
DURATION_56
POSITION_1310741
NOTE_ON_78
DURATION_39
POSITION_1310749
NOTE_ON_55
DURATION_55
POSITION_1310786
NOTE_ON_76
DURATION_74
POSITION_1310827
NOTE_ON_74
DURATION_35
POSITION_1310836
NOTE_ON_45
DURATION_50
POSITION_1310866
NOTE_ON_76
DURATION_56
POSITION_1310921
NOTE_ON_50
DURATION_72
POSITION_1311002
NOTE_ON_52
DURATION_84
POSITION_1310924
NOTE_ON_78
DURATION_173
POSITION_1311101
NOTE_ON_74
DURATION_36
POSITION_1311101
NOTE_ON_54
DURATION_53
POSITION_1311165
NOTE_ON_50
DURATION_61
POSITION_1311261
NOTE_ON_55
DURATION_50
POSITION_1311280
NOTE_ON_76
DURATION_49
POSITION_1311356
NOTE_ON_50
DURATION_71
POSITION_1311453
NOTE_ON_78
DURATION_40
POSITION_1311454
NOTE_ON_57
DURATION_62
POSITION_1311540
NOTE_ON_50
DURATION_64
POSITION_1311620
NOTE_ON_79
DURATION_28
POSITION_1311625
NOTE_ON_59
DURATION_62
POSITION_1311707
NOTE_ON_50
DURATION_55
POSITION_1311795
NOTE_ON_81
DURATION_29
POSITION_1311798
NOTE_ON_60
DURATION_65
POSITION_1311873
NOTE_ON_50
DURATION_56
POSITION_1311966
NOTE_ON_55
DURATION_88
POSITION_1312061
NOTE_ON_57
DURATION_74
POSITION_1312144
NOTE_ON_79
DURATION_27
POSITION_1311964
NOTE_ON_83
DURATION_210
POSITION_1312146
NOTE_ON_59
DURATION_78
POSITION_1312230
NOTE_ON_55
DURATION_62
POSITION_1312314
NOTE_ON_81
DURATION_32
POSITION_1312316
NOTE_ON_60
DURATION_47
POSITION_1312407
NOTE_ON_55
DURATION_77
POSITION_1312497
NOTE_ON_62
DURATION_72
POSITION_1312484
NOTE_ON_83
DURATION_89
POSITION_1312584
NOTE_ON_55
DURATION_62
POSITION_1312665
NOTE_ON_84
DURATION_42
POSITION_1312669
NOTE_ON_64
DURATION_48
POSITION_1312750
NOTE_ON_55
DURATION_61
POSITION_1312832
NOTE_ON_86
DURATION_68
POSITION_1312831
NOTE_ON_65
DURATION_74
POSITION_1312908
NOTE_ON_55
DURATION_77
POSITION_1313003
NOTE_ON_76
DURATION_58
POSITION_1313001
NOTE_ON_60
DURATION_67
POSITION_1313075
NOTE_ON_62
DURATION_76
POSITION_1313171
NOTE_ON_78
DURATION_48
POSITION_1313164
NOTE_ON_60
DURATION_80
POSITION_1313252
NOTE_ON_59
DURATION_87
POSITION_1313342
NOTE_ON_79
DURATION_34
POSITION_1313338
NOTE_ON_57
DURATION_75
POSITION_1313422
NOTE_ON_55
DURATION_92
POSITION_1313509
NOTE_ON_81
DURATION_42
POSITION_1313508
NOTE_ON_54
DURATION_87
POSITION_1313600
NOTE_ON_52
DURATION_93
POSITION_1313690
NOTE_ON_74
DURATION_32
POSITION_1313689
NOTE_ON_50
DURATION_75
POSITION_1313767
NOTE_ON_48
DURATION_75
POSITION_1313858
NOTE_ON_81
DURATION_45
POSITION_1313851
NOTE_ON_47
DURATION_80
POSITION_1313938
NOTE_ON_45
DURATION_67
POSITION_1314044
NOTE_ON_43
DURATION_101
POSITION_1314046
NOTE_ON_83
DURATION_115
POSITION_1314136
NOTE_ON_79
DURATION_111
POSITION_1314129
NOTE_ON_47
DURATION_134
POSITION_1314230
NOTE_ON_50
DURATION_52
POSITION_1314230
NOTE_ON_74
DURATION_86
POSITION_1314314
NOTE_ON_71
DURATION_83
POSITION_1314317
NOTE_ON_55
DURATION_88
POSITION_1314405
NOTE_ON_74
DURATION_99
POSITION_1314410
NOTE_ON_54
DURATION_95
POSITION_1314491
NOTE_ON_52
DURATION_84
POSITION_1314489
NOTE_ON_79
DURATION_100
POSITION_1314578
NOTE_ON_51
DURATION_58
POSITION_1314576
NOTE_ON_81
DURATION_79
POSITION_1314671
NOTE_ON_78
DURATION_84
POSITION_1314751
NOTE_ON_47
DURATION_40
POSITION_1314755
NOTE_ON_75
DURATION_78
POSITION_1314836
NOTE_ON_71
DURATION_60
POSITION_1314918
NOTE_ON_70
DURATION_48
POSITION_1314920
NOTE_ON_51
DURATION_53
POSITION_1315006
NOTE_ON_71
DURATION_38
POSITION_1315102
NOTE_ON_40
DURATION_117
POSITION_1315103
NOTE_ON_79
DURATION_120
POSITION_1315186
NOTE_ON_43
DURATION_75
POSITION_1315188
NOTE_ON_76
DURATION_115
POSITION_1315279
NOTE_ON_71
DURATION_48
POSITION_1315273
NOTE_ON_47
DURATION_81
POSITION_1315360
NOTE_ON_67
DURATION_66
POSITION_1315359
NOTE_ON_52
DURATION_91
POSITION_1315448
NOTE_ON_71
DURATION_71
POSITION_1315444
NOTE_ON_50
DURATION_76
POSITION_1315534
NOTE_ON_48
DURATION_88
POSITION_1315533
NOTE_ON_76
DURATION_98
POSITION_1315617
NOTE_ON_47
DURATION_90
POSITION_1315619
NOTE_ON_77
DURATION_109
POSITION_1315708
NOTE_ON_74
DURATION_98
POSITION_1315791
NOTE_ON_43
DURATION_38
POSITION_1315793
NOTE_ON_71
DURATION_50
POSITION_1315870
NOTE_ON_67
DURATION_62
POSITION_1315963
NOTE_ON_47
DURATION_34
POSITION_1315967
NOTE_ON_66
DURATION_51
POSITION_1316042
NOTE_ON_67
DURATION_79
POSITION_1316147
NOTE_ON_36
DURATION_45
POSITION_1316126
NOTE_ON_67
DURATION_72
POSITION_1316149
NOTE_ON_76
DURATION_94
POSITION_1316240
NOTE_ON_74
DURATION_97
POSITION_1316334
NOTE_ON_43
DURATION_36
POSITION_1316333
NOTE_ON_72
DURATION_60
POSITION_1316418
NOTE_ON_71
DURATION_36
POSITION_1316500
NOTE_ON_69
DURATION_60
POSITION_1316587
NOTE_ON_67
DURATION_49
POSITION_1316655
NOTE_ON_66
DURATION_59
POSITION_1316707
NOTE_ON_67
DURATION_105
POSITION_1316761
NOTE_ON_69
DURATION_59
POSITION_1316805
NOTE_ON_71
DURATION_40
POSITION_1316521
NOTE_ON_48
DURATION_394
POSITION_1316872
NOTE_ON_72
DURATION_59
POSITION_1316893
NOTE_ON_42
DURATION_73
POSITION_1316931
NOTE_ON_74
DURATION_77
POSITION_1316971
NOTE_ON_76
DURATION_47
POSITION_1317018
NOTE_ON_78
DURATION_42
POSITION_1317061
NOTE_ON_45
DURATION_25
POSITION_1317068
NOTE_ON_79
DURATION_51
POSITION_1317124
NOTE_ON_81
DURATION_57
POSITION_1317198
NOTE_ON_84
DURATION_46
POSITION_1317163
NOTE_ON_83
DURATION_95
POSITION_1317226
NOTE_ON_86
DURATION_37
POSITION_1317238
NOTE_ON_35
DURATION_32
POSITION_1317448
NOTE_ON_91
DURATION_9
POSITION_1317453
NOTE_ON_71
DURATION_25
POSITION_1317450
NOTE_ON_79
DURATION_34
POSITION_1317461
NOTE_ON_36
DURATION_38
POSITION_1317692
NOTE_ON_69
DURATION_27
POSITION_1317692
NOTE_ON_78
DURATION_31
POSITION_1317700
NOTE_ON_38
DURATION_42
POSITION_1318052
NOTE_ON_71
DURATION_39
POSITION_1318051
NOTE_ON_79
DURATION_42
POSITION_1318154
NOTE_ON_79
DURATION_995
POSITION_1318059
NOTE_ON_31
DURATION_1091
POSITION_1318103
NOTE_ON_78
DURATION_1052
POSITION_1323502
NOTE_ON_74
DURATION_253
POSITION_1323534
NOTE_ON_71
DURATION_224
POSITION_1323736
NOTE_ON_72
DURATION_152
POSITION_1323763
NOTE_ON_69
DURATION_133
POSITION_1324339
NOTE_ON_72
DURATION_161
POSITION_1324357
NOTE_ON_69
DURATION_174
POSITION_1323892
NOTE_ON_71
DURATION_639
POSITION_1323925
NOTE_ON_67
DURATION_652
POSITION_1324536
NOTE_ON_69
DURATION_87
POSITION_1324510
NOTE_ON_72
DURATION_128
POSITION_1324649
NOTE_ON_72
DURATION_97
POSITION_1324643
NOTE_ON_74
DURATION_579
POSITION_1324809
NOTE_ON_72
DURATION_421
POSITION_1324646
NOTE_ON_71
DURATION_653
POSITION_1325133
NOTE_ON_55
DURATION_219
POSITION_1325312
NOTE_ON_53
DURATION_739
POSITION_1325280
NOTE_ON_74
DURATION_798
POSITION_1325870
NOTE_ON_52
DURATION_208
POSITION_1325310
NOTE_ON_71
DURATION_787
POSITION_1326056
NOTE_ON_53
DURATION_49
POSITION_1326011
NOTE_ON_76
DURATION_739
POSITION_1326038
NOTE_ON_72
DURATION_735
POSITION_1326599
NOTE_ON_48
DURATION_202
POSITION_1326055
NOTE_ON_50
DURATION_750
POSITION_1326564
NOTE_ON_77
DURATION_243
POSITION_1326590
NOTE_ON_74
DURATION_218
POSITION_1326799
NOTE_ON_57
DURATION_171
POSITION_1326938
NOTE_ON_56
DURATION_392
POSITION_1326778
NOTE_ON_72
DURATION_556
POSITION_1326760
NOTE_ON_76
DURATION_789
POSITION_1327291
NOTE_ON_52
DURATION_266
POSITION_1327126
NOTE_ON_74
DURATION_1199
POSITION_1327137
NOTE_ON_71
DURATION_1257
POSITION_1328173
NOTE_ON_72
DURATION_267
POSITION_1327550
NOTE_ON_57
DURATION_1020
POSITION_1328376
NOTE_ON_74
DURATION_198
POSITION_1328400
NOTE_ON_71
DURATION_186
POSITION_1328159
NOTE_ON_76
DURATION_434
POSITION_1328987
NOTE_ON_55
DURATION_78
POSITION_1329155
NOTE_ON_54
DURATION_713
POSITION_1328562
NOTE_ON_69
DURATION_1309
POSITION_1328536
NOTE_ON_72
DURATION_1336
POSITION_1329734
NOTE_ON_50
DURATION_139
POSITION_1329726
NOTE_ON_74
DURATION_153
POSITION_1329942
NOTE_ON_50
DURATION_195
POSITION_1329935
NOTE_ON_55
DURATION_591
POSITION_1329902
NOTE_ON_71
DURATION_634
POSITION_1330476
NOTE_ON_66
DURATION_75
POSITION_1330465
NOTE_ON_69
DURATION_89
POSITION_1330627
NOTE_ON_71
DURATION_599
POSITION_1331205
NOTE_ON_69
DURATION_34
POSITION_1330657
NOTE_ON_67
DURATION_594
POSITION_1331192
NOTE_ON_72
DURATION_202
POSITION_1330664
NOTE_ON_48
DURATION_733
POSITION_1331399
NOTE_ON_67
DURATION_859
POSITION_1331370
NOTE_ON_71
DURATION_1001
POSITION_1332253
NOTE_ON_69
DURATION_833
POSITION_1331394
NOTE_ON_50
DURATION_1830
POSITION_1332256
NOTE_ON_66
DURATION_979
POSITION_1333065
NOTE_ON_78
DURATION_170
POSITION_1333090
NOTE_ON_69
DURATION_165
POSITION_1332285
NOTE_ON_38
DURATION_1016
POSITION_1333262
NOTE_ON_66
DURATION_323
POSITION_1333811
NOTE_ON_67
DURATION_184
POSITION_1333236
NOTE_ON_74
DURATION_795
POSITION_1333807
NOTE_ON_76
DURATION_230
POSITION_1333990
NOTE_ON_69
DURATION_786
POSITION_1334586
NOTE_ON_62
DURATION_192
POSITION_1333978
NOTE_ON_78
DURATION_801
POSITION_1335349
NOTE_ON_59
DURATION_184
POSITION_1334768
NOTE_ON_71
DURATION_767
POSITION_1334737
NOTE_ON_79
DURATION_799
POSITION_1334773
NOTE_ON_60
DURATION_772
POSITION_1336077
NOTE_ON_74
DURATION_235
POSITION_1335525
NOTE_ON_57
DURATION_850
POSITION_1335531
NOTE_ON_72
DURATION_844
POSITION_1336083
NOTE_ON_55
DURATION_293
POSITION_1335509
NOTE_ON_81
DURATION_868
POSITION_1336317
NOTE_ON_74
DURATION_125
POSITION_1336061
NOTE_ON_83
DURATION_865
POSITION_1336938
NOTE_ON_67
DURATION_208
POSITION_1336250
NOTE_ON_60
DURATION_922
POSITION_1337137
NOTE_ON_72
DURATION_843
POSITION_1337183
NOTE_ON_57
DURATION_797
POSITION_1337676
NOTE_ON_78
DURATION_306
POSITION_1336376
NOTE_ON_76
DURATION_1607
POSITION_1338468
NOTE_ON_71
DURATION_226
POSITION_1338684
NOTE_ON_69
DURATION_797
POSITION_1338704
NOTE_ON_60
DURATION_778
POSITION_1339256
NOTE_ON_78
DURATION_227
POSITION_1339348
NOTE_ON_76
DURATION_139
POSITION_1337859
NOTE_ON_64
DURATION_1632
POSITION_1337912
NOTE_ON_79
DURATION_1610
POSITION_1339451
NOTE_ON_74
DURATION_732
POSITION_1339465
NOTE_ON_71
DURATION_741
POSITION_1339992
NOTE_ON_72
DURATION_267
POSITION_1340000
NOTE_ON_69
DURATION_359
POSITION_1340264
NOTE_ON_72
DURATION_525
POSITION_1340818
NOTE_ON_63
DURATION_10
POSITION_1340819
NOTE_ON_66
DURATION_216
POSITION_1340797
NOTE_ON_72
DURATION_315
POSITION_1340226
NOTE_ON_81
DURATION_910
POSITION_1339459
NOTE_ON_62
DURATION_1699
POSITION_1340154
NOTE_ON_67
DURATION_1764
POSITION_1340979
NOTE_ON_55
DURATION_1047
POSITION_1341046
NOTE_ON_66
DURATION_987
POSITION_1341121
NOTE_ON_72
DURATION_912
POSITION_1342039
NOTE_ON_43
DURATION_348
POSITION_1342743
NOTE_ON_55
DURATION_141
POSITION_1341979
NOTE_ON_71
DURATION_911
POSITION_1342713
NOTE_ON_74
DURATION_187
POSITION_1342004
NOTE_ON_67
DURATION_913
POSITION_1342391
NOTE_ON_43
DURATION_564
POSITION_1342909
NOTE_ON_79
DURATION_843
POSITION_1342929
NOTE_ON_59
DURATION_828
POSITION_1343475
NOTE_ON_81
DURATION_282
POSITION_1343509
NOTE_ON_62
DURATION_251
POSITION_1343673
NOTE_ON_83
DURATION_787
POSITION_1344270
NOTE_ON_81
DURATION_256
POSITION_1343736
NOTE_ON_67
DURATION_1508
POSITION_1344420
NOTE_ON_55
DURATION_866
POSITION_1344513
NOTE_ON_79
DURATION_774
POSITION_1345039
NOTE_ON_78
DURATION_248
POSITION_1344470
NOTE_ON_83
DURATION_1296
POSITION_1345232
NOTE_ON_76
DURATION_949
POSITION_1345784
NOTE_ON_74
DURATION_589
POSITION_1346079
NOTE_ON_78
DURATION_305
POSITION_1346003
NOTE_ON_73
DURATION_645
POSITION_1345249
NOTE_ON_67
DURATION_1469
POSITION_1346655
NOTE_ON_71
DURATION_194
POSITION_1345777
NOTE_ON_83
DURATION_1179
POSITION_1346305
NOTE_ON_76
DURATION_1089
POSITION_1346853
NOTE_ON_71
DURATION_718
POSITION_1346854
NOTE_ON_69
DURATION_774
POSITION_1347414
NOTE_ON_67
DURATION_215
POSITION_1347398
NOTE_ON_76
DURATION_234
POSITION_1347617
NOTE_ON_66
DURATION_630
POSITION_1348171
NOTE_ON_64
DURATION_87
POSITION_1348173
NOTE_ON_73
DURATION_178
POSITION_1347594
NOTE_ON_81
DURATION_983
POSITION_1349381
NOTE_ON_80
DURATION_163
POSITION_1349211
NOTE_ON_81
DURATION_418
POSITION_1348950
NOTE_ON_83
DURATION_687
POSITION_1349556
NOTE_ON_80
DURATION_134
POSITION_1349476
NOTE_ON_78
DURATION_260
POSITION_1349634
NOTE_ON_81
DURATION_118
POSITION_1349701
NOTE_ON_80
DURATION_56
POSITION_1349758
NOTE_ON_81
DURATION_94
POSITION_1349818
NOTE_ON_80
DURATION_95
POSITION_1349862
NOTE_ON_81
DURATION_97
POSITION_1349918
NOTE_ON_80
DURATION_95
POSITION_1348394
NOTE_ON_62
DURATION_1665
POSITION_1349765
NOTE_ON_59
DURATION_302
POSITION_1348389
NOTE_ON_71
DURATION_1685
POSITION_1349964
NOTE_ON_81
DURATION_133
POSITION_1350621
NOTE_ON_81
DURATION_252
POSITION_1350024
NOTE_ON_64
DURATION_975
POSITION_1350024
NOTE_ON_80
DURATION_976
POSITION_1350653
NOTE_ON_62
DURATION_356
POSITION_1350880
NOTE_ON_81
DURATION_1299
POSITION_1351866
NOTE_ON_79
DURATION_489
POSITION_1352036
NOTE_ON_78
DURATION_381
POSITION_1352186
NOTE_ON_81
DURATION_234
POSITION_1350914
NOTE_ON_61
DURATION_1508
POSITION_1352206
NOTE_ON_57
DURATION_221
POSITION_1352367
NOTE_ON_79
DURATION_193
POSITION_1352528
NOTE_ON_78
DURATION_214
POSITION_1352682
NOTE_ON_76
DURATION_192
POSITION_1351473
NOTE_ON_64
DURATION_1428
POSITION_1352383
NOTE_ON_59
DURATION_525
POSITION_1352839
NOTE_ON_79
DURATION_251
POSITION_1352864
NOTE_ON_61
DURATION_282
POSITION_1351693
NOTE_ON_69
DURATION_1599
POSITION_1353069
NOTE_ON_78
DURATION_930
POSITION_1353627
NOTE_ON_50
DURATION_486
POSITION_1353106
NOTE_ON_62
DURATION_1031
POSITION_1353939
NOTE_ON_55
DURATION_547
POSITION_1354442
NOTE_ON_54
DURATION_244
POSITION_1354285
NOTE_ON_62
DURATION_458
POSITION_1353885
NOTE_ON_71
DURATION_943
POSITION_1354662
NOTE_ON_67
DURATION_915
POSITION_1354696
NOTE_ON_52
DURATION_882
POSITION_1355264
NOTE_ON_50
DURATION_314
POSITION_1355234
NOTE_ON_76
DURATION_349
POSITION_1355556
NOTE_ON_49
DURATION_743
POSITION_1356070
NOTE_ON_45
DURATION_229
POSITION_1355498
NOTE_ON_69
DURATION_1005
POSITION_1356509
NOTE_ON_69
DURATION_380
POSITION_1356683
NOTE_ON_71
DURATION_208
POSITION_1356331
NOTE_ON_50
DURATION_561
POSITION_1356291
NOTE_ON_66
DURATION_619
POSITION_1356843
NOTE_ON_73
DURATION_109
POSITION_1356853
NOTE_ON_49
DURATION_149
POSITION_1357014
NOTE_ON_74
DURATION_220
POSITION_1357199
NOTE_ON_76
DURATION_122
POSITION_1357381
NOTE_ON_78
DURATION_124
POSITION_1357462
NOTE_ON_76
DURATION_93
POSITION_1357035
NOTE_ON_47
DURATION_539
POSITION_1357557
NOTE_ON_45
DURATION_239
POSITION_1357556
NOTE_ON_74
DURATION_243
POSITION_1357901
NOTE_ON_43
DURATION_883
POSITION_1358504
NOTE_ON_40
DURATION_287
POSITION_1357843
NOTE_ON_83
DURATION_948
POSITION_1358504
NOTE_ON_67
DURATION_333
POSITION_1357864
NOTE_ON_76
DURATION_973
POSITION_1358793
NOTE_ON_74
DURATION_1112
POSITION_1359842
NOTE_ON_73
DURATION_117
POSITION_1358475
NOTE_ON_71
DURATION_1499
POSITION_1359914
NOTE_ON_74
DURATION_106
POSITION_1359968
NOTE_ON_73
DURATION_98
POSITION_1360026
NOTE_ON_74
DURATION_86
POSITION_1360076
NOTE_ON_73
DURATION_75
POSITION_1358720
NOTE_ON_66
DURATION_1477
POSITION_1360118
NOTE_ON_74
DURATION_140
POSITION_1360264
NOTE_ON_74
DURATION_386
POSITION_1360658
NOTE_ON_74
DURATION_207
POSITION_1358673
NOTE_ON_45
DURATION_2322
POSITION_1360162
NOTE_ON_73
DURATION_839
POSITION_1359569
NOTE_ON_33
DURATION_1432
POSITION_1359648
NOTE_ON_64
DURATION_1393
POSITION_1360913
NOTE_ON_66
DURATION_1342
POSITION_1360871
NOTE_ON_74
DURATION_1415
POSITION_1360931
NOTE_ON_38
DURATION_1416
POSITION_1362559
NOTE_ON_71
DURATION_141
POSITION_1362534
NOTE_ON_74
DURATION_212
POSITION_1362789
NOTE_ON_69
DURATION_152
POSITION_1362758
NOTE_ON_72
DURATION_183
POSITION_1362930
NOTE_ON_71
DURATION_466
POSITION_1363373
NOTE_ON_72
DURATION_203
POSITION_1363384
NOTE_ON_69
DURATION_207
POSITION_1362971
NOTE_ON_67
DURATION_643
POSITION_1363595
NOTE_ON_69
DURATION_173
POSITION_1363582
NOTE_ON_72
DURATION_194
POSITION_1363745
NOTE_ON_74
DURATION_653
POSITION_1363756
NOTE_ON_71
DURATION_672
POSITION_1364225
NOTE_ON_55
DURATION_221
POSITION_1363776
NOTE_ON_69
DURATION_867
POSITION_1364404
NOTE_ON_74
DURATION_792
POSITION_1364440
NOTE_ON_53
DURATION_779
POSITION_1364435
NOTE_ON_71
DURATION_830
POSITION_1365027
NOTE_ON_52
DURATION_392
POSITION_1365225
NOTE_ON_50
DURATION_744
POSITION_1365192
NOTE_ON_76
DURATION_780
POSITION_1365224
NOTE_ON_72
DURATION_771
POSITION_1365773
NOTE_ON_77
DURATION_253
POSITION_1365801
NOTE_ON_74
DURATION_248
POSITION_1366004
NOTE_ON_57
DURATION_180
POSITION_1365977
NOTE_ON_76
DURATION_494
POSITION_1366001
NOTE_ON_72
DURATION_493
POSITION_1365794
NOTE_ON_48
DURATION_762
POSITION_1366170
NOTE_ON_56
DURATION_421
POSITION_1366535
NOTE_ON_52
DURATION_203
POSITION_1366360
NOTE_ON_74
DURATION_1217
POSITION_1366368
NOTE_ON_71
DURATION_1217
POSITION_1367365
NOTE_ON_72
DURATION_381
POSITION_1367352
NOTE_ON_76
DURATION_467
POSITION_1367596
NOTE_ON_71
DURATION_224
POSITION_1367586
NOTE_ON_74
DURATION_250
POSITION_1366781
NOTE_ON_57
DURATION_1441
POSITION_1368198
NOTE_ON_55
DURATION_136
POSITION_1367755
NOTE_ON_72
DURATION_582
POSITION_1368939
NOTE_ON_71
DURATION_174
POSITION_1367767
NOTE_ON_69
DURATION_1379
POSITION_1368917
NOTE_ON_74
DURATION_230
POSITION_1368357
NOTE_ON_54
DURATION_791
POSITION_1368943
NOTE_ON_50
DURATION_205
POSITION_1369117
NOTE_ON_71
DURATION_764
POSITION_1369155
NOTE_ON_55
DURATION_737
POSITION_1369715
NOTE_ON_69
DURATION_178
POSITION_1369732
NOTE_ON_66
DURATION_162
POSITION_1369149
NOTE_ON_67
DURATION_763
POSITION_1369890
NOTE_ON_71
DURATION_690
POSITION_1369917
NOTE_ON_67
DURATION_744
POSITION_1370574
NOTE_ON_74
DURATION_87
POSITION_1370591
NOTE_ON_71
DURATION_73
POSITION_1370655
NOTE_ON_69
DURATION_60
POSITION_1369924
NOTE_ON_48
DURATION_815
POSITION_1370654
NOTE_ON_72
DURATION_93
POSITION_1370740
NOTE_ON_71
DURATION_962
POSITION_1370765
NOTE_ON_67
DURATION_940
POSITION_1370790
NOTE_ON_50
DURATION_916
POSITION_1371628
NOTE_ON_69
DURATION_726
POSITION_1371636
NOTE_ON_66
DURATION_1018
POSITION_1372578
NOTE_ON_67
DURATION_198
POSITION_1372363
NOTE_ON_69
DURATION_552
POSITION_1372574
NOTE_ON_76
DURATION_602
POSITION_1373187
NOTE_ON_76
DURATION_165
POSITION_1372348
NOTE_ON_78
DURATION_1012
POSITION_1373195
NOTE_ON_67
DURATION_195
POSITION_1372725
NOTE_ON_74
DURATION_666
POSITION_1372743
NOTE_ON_66
DURATION_649
POSITION_1371659
NOTE_ON_38
DURATION_1816
POSITION_1373358
NOTE_ON_76
DURATION_217
POSITION_1373371
NOTE_ON_69
DURATION_827
POSITION_1373981
NOTE_ON_62
DURATION_220
POSITION_1373365
NOTE_ON_78
DURATION_837
POSITION_1374152
NOTE_ON_79
DURATION_833
POSITION_1374184
NOTE_ON_71
DURATION_804
POSITION_1374764
NOTE_ON_59
DURATION_226
POSITION_1374186
NOTE_ON_60
DURATION_808
POSITION_1375553
NOTE_ON_74
DURATION_188
POSITION_1374968
NOTE_ON_72
DURATION_893
POSITION_1375535
NOTE_ON_83
DURATION_326
POSITION_1374932
NOTE_ON_81
DURATION_932
POSITION_1375554
NOTE_ON_55
DURATION_310
POSITION_1375746
NOTE_ON_74
DURATION_121
POSITION_1374969
NOTE_ON_57
DURATION_903
POSITION_1376382
NOTE_ON_67
DURATION_301
POSITION_1375707
NOTE_ON_60
DURATION_1017
POSITION_1377133
NOTE_ON_78
DURATION_282
POSITION_1376628
NOTE_ON_57
DURATION_989
POSITION_1375813
NOTE_ON_76
DURATION_1808
POSITION_1377427
NOTE_ON_78
DURATION_195
POSITION_1377360
NOTE_ON_64
DURATION_867
POSITION_1378004
NOTE_ON_71
DURATION_228
POSITION_1376604
NOTE_ON_72
DURATION_1648
POSITION_1378181
NOTE_ON_60
DURATION_873
POSITION_1378782
NOTE_ON_78
DURATION_273
POSITION_1378209
NOTE_ON_69
DURATION_847
POSITION_1378872
NOTE_ON_76
DURATION_188
POSITION_1377596
NOTE_ON_79
DURATION_1478
POSITION_1378956
NOTE_ON_74
DURATION_832
POSITION_1379507
NOTE_ON_72
DURATION_319
POSITION_1379515
NOTE_ON_69
DURATION_311
POSITION_1378980
NOTE_ON_71
DURATION_862
POSITION_1378979
NOTE_ON_62
DURATION_1362
POSITION_1379700
NOTE_ON_67
DURATION_643
POSITION_1380381
NOTE_ON_66
DURATION_291
POSITION_1380355
NOTE_ON_72
DURATION_386
POSITION_1380352
NOTE_ON_62
DURATION_419
POSITION_1379776
NOTE_ON_81
DURATION_1026
POSITION_1380749
NOTE_ON_72
DURATION_944
POSITION_1380677
NOTE_ON_66
DURATION_1020
POSITION_1380632
NOTE_ON_55
DURATION_1068
POSITION_1381639
NOTE_ON_67
DURATION_822
POSITION_1382470
NOTE_ON_55
DURATION_178
POSITION_1382465
NOTE_ON_67
DURATION_186
POSITION_1381639
NOTE_ON_71
DURATION_1016
POSITION_1382437
NOTE_ON_74
DURATION_225
POSITION_1381680
NOTE_ON_43
DURATION_1004
POSITION_1382634
NOTE_ON_79
DURATION_802
POSITION_1382665
NOTE_ON_59
DURATION_806
POSITION_1383194
NOTE_ON_81
DURATION_304
POSITION_1383502
NOTE_ON_81
DURATION_99
POSITION_1383441
NOTE_ON_79
DURATION_180
POSITION_1383204
NOTE_ON_62
DURATION_1039
POSITION_1383577
NOTE_ON_83
DURATION_719
POSITION_1384096
NOTE_ON_81
DURATION_236
POSITION_1384262
NOTE_ON_55
DURATION_791
POSITION_1384854
NOTE_ON_78
DURATION_212
POSITION_1383433
NOTE_ON_67
DURATION_1647
POSITION_1384338
NOTE_ON_79
DURATION_880
POSITION_1384301
NOTE_ON_83
DURATION_1270
POSITION_1385054
NOTE_ON_76
DURATION_994
POSITION_1385609
NOTE_ON_74
DURATION_485
POSITION_1385893
NOTE_ON_78
DURATION_293
POSITION_1385581
NOTE_ON_83
DURATION_743
POSITION_1385821
NOTE_ON_73
DURATION_618
POSITION_1385084
NOTE_ON_67
DURATION_1524
POSITION_1386473
NOTE_ON_71
DURATION_153
POSITION_1386091
NOTE_ON_76
DURATION_1124
POSITION_1386668
NOTE_ON_69
DURATION_834
POSITION_1387256
NOTE_ON_67
DURATION_246
POSITION_1387220
NOTE_ON_76
DURATION_285
POSITION_1387487
NOTE_ON_66
DURATION_742
POSITION_1388034
NOTE_ON_64
DURATION_206
POSITION_1388030
NOTE_ON_73
DURATION_251
POSITION_1387439
NOTE_ON_81
DURATION_1604
POSITION_1389191
NOTE_ON_80
DURATION_151
POSITION_1389052
NOTE_ON_81
DURATION_352
POSITION_1389346
NOTE_ON_80
DURATION_127
POSITION_1389408
NOTE_ON_81
DURATION_119
POSITION_1389478
NOTE_ON_80
DURATION_102
POSITION_1389531
NOTE_ON_81
DURATION_88
POSITION_1389587
NOTE_ON_80
DURATION_101
POSITION_1389630
NOTE_ON_81
DURATION_104
POSITION_1389694
NOTE_ON_80
DURATION_94
POSITION_1388799
NOTE_ON_83
DURATION_1081
POSITION_1389283
NOTE_ON_78
DURATION_651
POSITION_1389739
NOTE_ON_81
DURATION_371
POSITION_1388247
NOTE_ON_62
DURATION_2163
POSITION_1388240
NOTE_ON_71
DURATION_2369
POSITION_1390407
NOTE_ON_81
DURATION_202
POSITION_1389795
NOTE_ON_80
DURATION_953
POSITION_1389624
NOTE_ON_59
DURATION_1147
POSITION_1389844
NOTE_ON_64
DURATION_929
POSITION_1390414
NOTE_ON_62
DURATION_363
POSITION_1390615
NOTE_ON_81
DURATION_1431
POSITION_1391712
NOTE_ON_79
DURATION_526
POSITION_1391517
NOTE_ON_69
DURATION_802
POSITION_1391889
NOTE_ON_78
DURATION_432
POSITION_1391244
NOTE_ON_64
DURATION_1077
POSITION_1392054
NOTE_ON_81
DURATION_269
POSITION_1390645
NOTE_ON_61
DURATION_1678
POSITION_1392246
NOTE_ON_79
DURATION_182
POSITION_1392407
NOTE_ON_78
DURATION_210
POSITION_1392249
NOTE_ON_59
DURATION_534
POSITION_1392571
NOTE_ON_76
DURATION_246
POSITION_1392726
NOTE_ON_79
DURATION_252
POSITION_1392088
NOTE_ON_57
DURATION_895
POSITION_1392748
NOTE_ON_61
DURATION_265
POSITION_1392999
NOTE_ON_62
DURATION_779
POSITION_1393539
NOTE_ON_50
DURATION_245
POSITION_1392961
NOTE_ON_78
DURATION_823
POSITION_1393756
NOTE_ON_71
DURATION_897
POSITION_1394121
NOTE_ON_62
DURATION_533
POSITION_1394300
NOTE_ON_54
DURATION_358
POSITION_1394535
NOTE_ON_67
DURATION_921
POSITION_1394620
NOTE_ON_52
DURATION_836
POSITION_1395068
NOTE_ON_50
DURATION_389
POSITION_1394907
NOTE_ON_76
DURATION_551
POSITION_1393800
NOTE_ON_55
DURATION_2040
POSITION_1395422
NOTE_ON_49
DURATION_728
POSITION_1395966
NOTE_ON_45
DURATION_186
POSITION_1395352
NOTE_ON_69
DURATION_1017
POSITION_1396222
NOTE_ON_50
DURATION_593
POSITION_1396703
NOTE_ON_73
DURATION_145
POSITION_1396547
NOTE_ON_71
DURATION_302
POSITION_1396187
NOTE_ON_66
DURATION_666
POSITION_1396379
NOTE_ON_69
DURATION_482
POSITION_1396710
NOTE_ON_49
DURATION_220
POSITION_1396876
NOTE_ON_74
DURATION_217
POSITION_1397058
NOTE_ON_76
DURATION_248
POSITION_1397242
NOTE_ON_78
DURATION_102
POSITION_1397314
NOTE_ON_76
DURATION_112
POSITION_1396897
NOTE_ON_47
DURATION_543
POSITION_1397421
NOTE_ON_45
DURATION_266
POSITION_1397397
NOTE_ON_74
DURATION_294
POSITION_1398347
NOTE_ON_40
DURATION_231
POSITION_1398347
NOTE_ON_67
DURATION_233
POSITION_1397688
NOTE_ON_83
DURATION_901
POSITION_1397732
NOTE_ON_43
DURATION_865
POSITION_1398327
NOTE_ON_71
DURATION_1353
POSITION_1398610
NOTE_ON_74
DURATION_1123
POSITION_1399663
NOTE_ON_73
DURATION_116
POSITION_1399740
NOTE_ON_74
DURATION_93
POSITION_1399789
NOTE_ON_73
DURATION_98
POSITION_1399843
NOTE_ON_74
DURATION_98
POSITION_1399897
NOTE_ON_73
DURATION_90
POSITION_1399950
NOTE_ON_74
DURATION_559
POSITION_1400514
NOTE_ON_74
DURATION_202
POSITION_1398547
NOTE_ON_66
DURATION_2200
POSITION_1399392
NOTE_ON_33
DURATION_1458
POSITION_1398534
NOTE_ON_45
DURATION_2318
POSITION_1399499
NOTE_ON_64
DURATION_1355
POSITION_1399995
NOTE_ON_73
DURATION_861
POSITION_1400758
NOTE_ON_38
DURATION_1502
POSITION_1400751
NOTE_ON_66
DURATION_1547
POSITION_1400722
NOTE_ON_74
DURATION_1638
POSITION_1402685
NOTE_ON_78
DURATION_266
POSITION_1402870
NOTE_ON_76
DURATION_135
POSITION_1402867
NOTE_ON_79
DURATION_179
POSITION_1403012
NOTE_ON_76
DURATION_35
POSITION_1402661
NOTE_ON_81
DURATION_490
POSITION_1403015
NOTE_ON_78
DURATION_220
POSITION_1403461
NOTE_ON_79
DURATION_189
POSITION_1403478
NOTE_ON_76
DURATION_203
POSITION_1403047
NOTE_ON_74
DURATION_787
POSITION_1403239
NOTE_ON_78
DURATION_603
POSITION_1403660
NOTE_ON_79
DURATION_251
POSITION_1403686
NOTE_ON_76
DURATION_238
POSITION_1404293
NOTE_ON_62
DURATION_117
POSITION_1403830
NOTE_ON_81
DURATION_634
POSITION_1403850
NOTE_ON_78
DURATION_637
POSITION_1404418
NOTE_ON_62
DURATION_144
POSITION_1404495
NOTE_ON_78
DURATION_797
POSITION_1405051
NOTE_ON_59
DURATION_242
POSITION_1404500
NOTE_ON_60
DURATION_794
POSITION_1404475
NOTE_ON_81
DURATION_857
POSITION_1405246
NOTE_ON_83
DURATION_746
POSITION_1405267
NOTE_ON_79
DURATION_756
POSITION_1405819
NOTE_ON_55
DURATION_239
POSITION_1405267
NOTE_ON_57
DURATION_793
POSITION_1405808
NOTE_ON_81
DURATION_252
POSITION_1405791
NOTE_ON_84
DURATION_274
POSITION_1406033
NOTE_ON_79
DURATION_213
POSITION_1406001
NOTE_ON_83
DURATION_514
POSITION_1406046
NOTE_ON_64
DURATION_599
POSITION_1406187
NOTE_ON_63
DURATION_459
POSITION_1406573
NOTE_ON_59
DURATION_241
POSITION_1406410
NOTE_ON_81
DURATION_1188
POSITION_1406418
NOTE_ON_78
DURATION_1187
POSITION_1407369
NOTE_ON_79
DURATION_398
POSITION_1407612
NOTE_ON_78
DURATION_469
POSITION_1407354
NOTE_ON_83
DURATION_735
POSITION_1407602
NOTE_ON_81
DURATION_579
POSITION_1408182
NOTE_ON_62
DURATION_149
POSITION_1406811
NOTE_ON_64
DURATION_2238
POSITION_1408900
NOTE_ON_78
DURATION_218
POSITION_1407798
NOTE_ON_76
DURATION_1359
POSITION_1407773
NOTE_ON_79
DURATION_1391
POSITION_1409130
NOTE_ON_78
DURATION_695
POSITION_1409628
NOTE_ON_79
DURATION_243
POSITION_1409882
NOTE_ON_79
DURATION_89
POSITION_1409124
NOTE_ON_81
DURATION_854
POSITION_1409939
NOTE_ON_78
DURATION_101
POSITION_1409982
NOTE_ON_79
DURATION_219
POSITION_1410436
NOTE_ON_76
DURATION_257
POSITION_1409829
NOTE_ON_69
DURATION_928
POSITION_1410044
NOTE_ON_78
DURATION_713
POSITION_1408383
NOTE_ON_60
DURATION_2375
POSITION_1409055
NOTE_ON_64
DURATION_2106
POSITION_1410702
NOTE_ON_76
DURATION_467
POSITION_1411121
NOTE_ON_75
DURATION_985
POSITION_1410660
NOTE_ON_71
DURATION_1684
POSITION_1412100
NOTE_ON_78
DURATION_249
POSITION_1412112
NOTE_ON_75
DURATION_286
POSITION_1412342
NOTE_ON_76
DURATION_125
POSITION_1412403
NOTE_ON_75
DURATION_117
POSITION_1412476
NOTE_ON_76
DURATION_114
POSITION_1412348
NOTE_ON_71
DURATION_580
POSITION_1410598
NOTE_ON_59
DURATION_2353
POSITION_1412933
NOTE_ON_76
DURATION_171
POSITION_1412524
NOTE_ON_75
DURATION_596
POSITION_1412954
NOTE_ON_73
DURATION_188
POSITION_1413108
NOTE_ON_76
DURATION_54
POSITION_1411527
NOTE_ON_47
DURATION_1677
POSITION_1413124
NOTE_ON_78
DURATION_756
POSITION_1413130
NOTE_ON_75
DURATION_765
POSITION_1413704
NOTE_ON_71
DURATION_214
POSITION_1413923
NOTE_ON_69
DURATION_769
POSITION_1413904
NOTE_ON_75
DURATION_821
POSITION_1413884
NOTE_ON_78
DURATION_894
POSITION_1414491
NOTE_ON_67
DURATION_410
POSITION_1414675
NOTE_ON_79
DURATION_772
POSITION_1414693
NOTE_ON_76
DURATION_777
POSITION_1413925
NOTE_ON_71
DURATION_1560
POSITION_1414697
NOTE_ON_66
DURATION_838
POSITION_1415243
NOTE_ON_78
DURATION_293
POSITION_1415239
NOTE_ON_64
DURATION_299
POSITION_1415221
NOTE_ON_81
DURATION_321
POSITION_1415453
NOTE_ON_79
DURATION_937
POSITION_1415478
NOTE_ON_76
DURATION_921
POSITION_1416299
NOTE_ON_78
DURATION_645
POSITION_1416302
NOTE_ON_75
DURATION_650
POSITION_1415490
NOTE_ON_71
DURATION_1669
POSITION_1416325
NOTE_ON_59
DURATION_888
POSITION_1416955
NOTE_ON_78
DURATION_296
POSITION_1417140
NOTE_ON_80
DURATION_768
POSITION_1417738
NOTE_ON_72
DURATION_174
POSITION_1417731
NOTE_ON_81
DURATION_183
POSITION_1416963
NOTE_ON_75
DURATION_957
POSITION_1417168
NOTE_ON_71
DURATION_828
POSITION_1417918
NOTE_ON_83
DURATION_845
POSITION_1418483
NOTE_ON_65
DURATION_288
POSITION_1418483
NOTE_ON_77
DURATION_627
POSITION_1418708
NOTE_ON_81
DURATION_479
POSITION_1418752
NOTE_ON_64
DURATION_757
POSITION_1419341
NOTE_ON_62
DURATION_188
POSITION_1418459
NOTE_ON_84
DURATION_1081
POSITION_1419335
NOTE_ON_77
DURATION_236
POSITION_1417945
NOTE_ON_74
DURATION_1633
POSITION_1418978
NOTE_ON_80
DURATION_1161
POSITION_1420151
NOTE_ON_74
DURATION_239
POSITION_1420167
NOTE_ON_59
DURATION_224
POSITION_1419558
NOTE_ON_76
DURATION_834
POSITION_1420150
NOTE_ON_80
DURATION_258
POSITION_1419571
NOTE_ON_60
DURATION_845
POSITION_1420381
NOTE_ON_81
DURATION_1394
POSITION_1420420
NOTE_ON_60
DURATION_1555
POSITION_1420403
NOTE_ON_76
DURATION_1602
POSITION_1421197
NOTE_ON_48
DURATION_908
POSITION_1421780
NOTE_ON_81
DURATION_940
POSITION_1422557
NOTE_ON_78
DURATION_301
POSITION_1422867
NOTE_ON_78
DURATION_58
POSITION_1422016
NOTE_ON_76
DURATION_915
POSITION_1423063
NOTE_ON_78
DURATION_237
POSITION_1422833
NOTE_ON_79
DURATION_493
POSITION_1423229
NOTE_ON_76
DURATION_208
POSITION_1421979
NOTE_ON_60
DURATION_1462
POSITION_1423385
NOTE_ON_79
DURATION_228
POSITION_1422790
NOTE_ON_61
DURATION_859
POSITION_1423637
NOTE_ON_62
DURATION_807
POSITION_1424180
NOTE_ON_74
DURATION_264
POSITION_1423590
NOTE_ON_78
DURATION_855
POSITION_1424394
NOTE_ON_69
DURATION_860
POSITION_1424926
NOTE_ON_71
DURATION_337
POSITION_1425189
NOTE_ON_72
DURATION_251
POSITION_1425375
NOTE_ON_71
DURATION_211
POSITION_1425545
NOTE_ON_69
DURATION_165
POSITION_1424419
NOTE_ON_50
DURATION_1319
POSITION_1425135
NOTE_ON_62
DURATION_772
POSITION_1425698
NOTE_ON_72
DURATION_228
POSITION_1426083
NOTE_ON_66
DURATION_346
POSITION_1425899
NOTE_ON_71
DURATION_530
POSITION_1426411
NOTE_ON_75
DURATION_74
POSITION_1426256
NOTE_ON_67
DURATION_342
POSITION_1426433
NOTE_ON_69
DURATION_204
POSITION_1425858
NOTE_ON_63
DURATION_809
POSITION_1426606
NOTE_ON_67
DURATION_178
POSITION_1426763
NOTE_ON_66
DURATION_193
POSITION_1426595
NOTE_ON_76
DURATION_529
POSITION_1426934
NOTE_ON_64
DURATION_424
POSITION_1427102
NOTE_ON_63
DURATION_272
POSITION_1427098
NOTE_ON_81
DURATION_445
POSITION_1427338
NOTE_ON_79
DURATION_950
POSITION_1428001
NOTE_ON_69
DURATION_298
POSITION_1428008
NOTE_ON_57
DURATION_292
POSITION_1427987
NOTE_ON_78
DURATION_313
POSITION_1427364
NOTE_ON_64
DURATION_947
POSITION_1428231
NOTE_ON_67
DURATION_978
POSITION_1428205
NOTE_ON_76
DURATION_1142
POSITION_1429296
NOTE_ON_75
DURATION_128
POSITION_1429357
NOTE_ON_76
DURATION_113
POSITION_1429430
NOTE_ON_75
DURATION_86
POSITION_1429476
NOTE_ON_76
DURATION_86
POSITION_1429528
NOTE_ON_75
DURATION_50
POSITION_1429571
NOTE_ON_76
DURATION_68
POSITION_1430049
NOTE_ON_76
DURATION_243
POSITION_1429109
NOTE_ON_66
DURATION_1284
POSITION_1428253
NOTE_ON_59
DURATION_2141
POSITION_1429030
NOTE_ON_47
DURATION_1365
POSITION_1429633
NOTE_ON_75
DURATION_763
POSITION_1430337
NOTE_ON_52
DURATION_1007
POSITION_1431647
NOTE_ON_79
DURATION_596
POSITION_1431887
NOTE_ON_78
DURATION_532
POSITION_1430303
NOTE_ON_76
DURATION_2285
POSITION_1432593
NOTE_ON_76
DURATION_222
POSITION_1432430
NOTE_ON_78
DURATION_392
POSITION_1432250
NOTE_ON_79
DURATION_572
POSITION_1432064
NOTE_ON_81
DURATION_770
POSITION_1431366
NOTE_ON_40
DURATION_1476
POSITION_1432746
NOTE_ON_74
DURATION_139
POSITION_1430332
NOTE_ON_67
DURATION_2564
POSITION_1432953
NOTE_ON_72
DURATION_396
POSITION_1433397
NOTE_ON_65
DURATION_666
POSITION_1433874
NOTE_ON_74
DURATION_281
POSITION_1433715
NOTE_ON_64
DURATION_444
POSITION_1433362
NOTE_ON_71
DURATION_847
POSITION_1434047
NOTE_ON_72
DURATION_198
POSITION_1434216
NOTE_ON_71
DURATION_317
POSITION_1434073
NOTE_ON_65
DURATION_462
POSITION_1434074
NOTE_ON_62
DURATION_496
POSITION_1434459
NOTE_ON_60
DURATION_840
POSITION_1434920
NOTE_ON_62
DURATION_446
POSITION_1434477
NOTE_ON_81
DURATION_890
POSITION_1435062
NOTE_ON_79
DURATION_308
POSITION_1434921
NOTE_ON_59
DURATION_450
POSITION_1434466
NOTE_ON_64
DURATION_941
POSITION_1435306
NOTE_ON_60
DURATION_769
POSITION_1435270
NOTE_ON_77
DURATION_1058
POSITION_1435710
NOTE_ON_76
DURATION_787
POSITION_1435710
NOTE_ON_59
DURATION_1102
POSITION_1436416
NOTE_ON_78
DURATION_421
POSITION_1436577
NOTE_ON_76
DURATION_262
POSITION_1436242
NOTE_ON_79
DURATION_598
POSITION_1436415
NOTE_ON_62
DURATION_426
POSITION_1436083
NOTE_ON_60
DURATION_1528
POSITION_1436808
NOTE_ON_84
DURATION_962
POSITION_1437336
NOTE_ON_81
DURATION_438
POSITION_1436672
NOTE_ON_57
DURATION_1103
POSITION_1437184
NOTE_ON_66
DURATION_591
POSITION_1436862
NOTE_ON_64
DURATION_941
POSITION_1438399
NOTE_ON_78
DURATION_128
POSITION_1438237
NOTE_ON_81
DURATION_303
POSITION_1437613
NOTE_ON_83
DURATION_943
POSITION_1438315
NOTE_ON_79
DURATION_348
POSITION_1438479
NOTE_ON_76
DURATION_561
POSITION_1437679
NOTE_ON_67
DURATION_1376
POSITION_1439061
NOTE_ON_67
DURATION_237
POSITION_1438480
NOTE_ON_60
DURATION_819
POSITION_1439045
NOTE_ON_76
DURATION_257
POSITION_1437677
NOTE_ON_55
DURATION_1647
POSITION_1439243
NOTE_ON_78
DURATION_841
POSITION_1439266
NOTE_ON_69
DURATION_833
POSITION_1439844
NOTE_ON_71
DURATION_344
POSITION_1439264
NOTE_ON_61
DURATION_926
POSITION_1439819
NOTE_ON_79
DURATION_377
POSITION_1440095
NOTE_ON_78
DURATION_253
POSITION_1440335
NOTE_ON_79
DURATION_198
POSITION_1440010
NOTE_ON_62
DURATION_996
POSITION_1440103
NOTE_ON_69
DURATION_904
POSITION_1440670
NOTE_ON_78
DURATION_355
POSITION_1440510
NOTE_ON_81
DURATION_526
POSITION_1441669
NOTE_ON_66
DURATION_396
POSITION_1440979
NOTE_ON_50
DURATION_1144
POSITION_1441654
NOTE_ON_69
DURATION_469
POSITION_1441901
NOTE_ON_67
DURATION_224
POSITION_1441901
NOTE_ON_64
DURATION_224
POSITION_1440930
NOTE_ON_74
DURATION_1496
POSITION_1442524
NOTE_ON_67
DURATION_217
POSITION_1442536
NOTE_ON_64
DURATION_213
POSITION_1442070
NOTE_ON_66
DURATION_725
POSITION_1442081
NOTE_ON_62
DURATION_722
POSITION_1442751
NOTE_ON_67
DURATION_213
POSITION_1442754
NOTE_ON_64
DURATION_410
POSITION_1442918
NOTE_ON_69
DURATION_645
POSITION_1442919
NOTE_ON_66
DURATION_659
POSITION_1443374
NOTE_ON_50
DURATION_265
POSITION_1444194
NOTE_ON_47
DURATION_194
POSITION_1443591
NOTE_ON_48
DURATION_817
POSITION_1443590
NOTE_ON_66
DURATION_826
POSITION_1443573
NOTE_ON_69
DURATION_843
POSITION_1444964
NOTE_ON_43
DURATION_186
POSITION_1444396
NOTE_ON_45
DURATION_755
POSITION_1444961
NOTE_ON_69
DURATION_194
POSITION_1444952
NOTE_ON_72
DURATION_208
POSITION_1444389
NOTE_ON_71
DURATION_771
POSITION_1444397
NOTE_ON_67
DURATION_787
POSITION_1445190
NOTE_ON_67
DURATION_969
POSITION_1445165
NOTE_ON_71
DURATION_994
POSITION_1446057
NOTE_ON_69
DURATION_755
POSITION_1446064
NOTE_ON_66
DURATION_955
POSITION_1446066
NOTE_ON_38
DURATION_973
POSITION_1446795
NOTE_ON_78
DURATION_249
POSITION_1445195
NOTE_ON_50
DURATION_1849
POSITION_1446816
NOTE_ON_69
DURATION_229
POSITION_1447024
NOTE_ON_66
DURATION_794
POSITION_1447595
NOTE_ON_67
DURATION_227
POSITION_1446991
NOTE_ON_74
DURATION_831
POSITION_1447586
NOTE_ON_76
DURATION_239
POSITION_1447803
NOTE_ON_69
DURATION_738
POSITION_1448320
NOTE_ON_64
DURATION_222
POSITION_1447776
NOTE_ON_78
DURATION_1032
POSITION_1448492
NOTE_ON_62
DURATION_726
POSITION_1448624
NOTE_ON_81
DURATION_622
POSITION_1449173
NOTE_ON_60
DURATION_207
POSITION_1448549
NOTE_ON_71
DURATION_1135
POSITION_1449981
NOTE_ON_76
DURATION_302
POSITION_1449959
NOTE_ON_81
DURATION_337
POSITION_1448782
NOTE_ON_80
DURATION_1539
POSITION_1449370
NOTE_ON_59
DURATION_1028
POSITION_1449974
NOTE_ON_72
DURATION_447
POSITION_1449979
NOTE_ON_57
DURATION_665
POSITION_1450487
NOTE_ON_77
DURATION_175
POSITION_1450260
NOTE_ON_74
DURATION_492
POSITION_1450657
NOTE_ON_76
DURATION_340
POSITION_1450825
NOTE_ON_74
DURATION_249
POSITION_1450239
NOTE_ON_83
DURATION_858
POSITION_1450195
NOTE_ON_56
DURATION_1033
POSITION_1451006
NOTE_ON_76
DURATION_352
POSITION_1451180
NOTE_ON_74
DURATION_235
POSITION_1451344
NOTE_ON_72
DURATION_177
POSITION_1451504
NOTE_ON_71
DURATION_208
POSITION_1451674
NOTE_ON_69
DURATION_172
POSITION_1451832
NOTE_ON_68
DURATION_211
POSITION_1452002
NOTE_ON_66
DURATION_222
POSITION_1452381
NOTE_ON_74
DURATION_266
POSITION_1452613
NOTE_ON_72
DURATION_194
POSITION_1452777
NOTE_ON_71
DURATION_221
POSITION_1452957
NOTE_ON_52
DURATION_352
POSITION_1452944
NOTE_ON_74
DURATION_377
POSITION_1452164
NOTE_ON_64
DURATION_1629
POSITION_1453253
NOTE_ON_57
DURATION_604
POSITION_1453810
NOTE_ON_55
DURATION_202
POSITION_1453180
NOTE_ON_72
DURATION_866
POSITION_1453797
NOTE_ON_64
DURATION_257
POSITION_1453984
NOTE_ON_69
DURATION_850
POSITION_1454579
NOTE_ON_67
DURATION_271
POSITION_1454598
NOTE_ON_52
DURATION_255
POSITION_1454009
NOTE_ON_54
DURATION_844
POSITION_1455037
NOTE_ON_71
DURATION_345
POSITION_1454816
NOTE_ON_50
DURATION_566
POSITION_1455194
NOTE_ON_69
DURATION_190
POSITION_1454848
NOTE_ON_66
DURATION_538
POSITION_1455358
NOTE_ON_72
DURATION_235
POSITION_1455389
NOTE_ON_43
DURATION_264
POSITION_1455601
NOTE_ON_71
DURATION_715
POSITION_1455625
NOTE_ON_67
DURATION_692
POSITION_1456415
NOTE_ON_72
DURATION_176
POSITION_1456419
NOTE_ON_66
DURATION_180
POSITION_1456399
NOTE_ON_76
DURATION_232
POSITION_1457243
NOTE_ON_57
DURATION_194
POSITION_1456655
NOTE_ON_67
DURATION_1405
POSITION_1456657
NOTE_ON_71
DURATION_1429
POSITION_1456646
NOTE_ON_74
DURATION_1478
POSITION_1457454
NOTE_ON_59
DURATION_724
POSITION_1458115
NOTE_ON_69
DURATION_285
POSITION_1458104
NOTE_ON_72
DURATION_315
POSITION_1458120
NOTE_ON_64
DURATION_327
POSITION_1458113
NOTE_ON_60
DURATION_349
POSITION_1458368
NOTE_ON_67
DURATION_1163
POSITION_1458443
NOTE_ON_71
DURATION_1194
POSITION_1459515
NOTE_ON_69
DURATION_253
POSITION_1459648
NOTE_ON_71
DURATION_151
POSITION_1459846
NOTE_ON_71
DURATION_34
POSITION_1459773
NOTE_ON_69
DURATION_118
POSITION_1459965
NOTE_ON_71
DURATION_37
POSITION_1459902
NOTE_ON_69
DURATION_119
POSITION_1459342
NOTE_ON_66
DURATION_1017
POSITION_1460565
NOTE_ON_67
DURATION_270
POSITION_1458291
NOTE_ON_62
DURATION_2560
POSITION_1459251
NOTE_ON_60
DURATION_1674
POSITION_1459188
NOTE_ON_50
DURATION_1739
POSITION_1460027
NOTE_ON_69
DURATION_901
POSITION_1460840
NOTE_ON_43
DURATION_986
POSITION_1460868
NOTE_ON_59
DURATION_1734
POSITION_1460862
NOTE_ON_62
DURATION_1747
POSITION_1460845
NOTE_ON_67
DURATION_2156
POSITION_1462872
NOTE_ON_78
DURATION_260
POSITION_1462865
NOTE_ON_81
DURATION_274
POSITION_1463100
NOTE_ON_76
DURATION_132
POSITION_1463079
NOTE_ON_79
DURATION_178
POSITION_1463239
NOTE_ON_76
DURATION_292
POSITION_1463703
NOTE_ON_79
DURATION_181
POSITION_1463721
NOTE_ON_76
DURATION_171
POSITION_1463235
NOTE_ON_78
DURATION_818
POSITION_1463895
NOTE_ON_79
DURATION_215
POSITION_1463252
NOTE_ON_74
DURATION_859
POSITION_1463903
NOTE_ON_76
DURATION_214
POSITION_1464045
NOTE_ON_81
DURATION_630
POSITION_1464065
NOTE_ON_78
DURATION_641
POSITION_1464495
NOTE_ON_62
DURATION_263
POSITION_1464711
NOTE_ON_78
DURATION_829
POSITION_1465277
NOTE_ON_59
DURATION_266
POSITION_1464714
NOTE_ON_60
DURATION_830
POSITION_1464683
NOTE_ON_81
DURATION_876
POSITION_1465457
NOTE_ON_83
DURATION_800
POSITION_1465480
NOTE_ON_79
DURATION_800
POSITION_1466060
NOTE_ON_81
DURATION_314
POSITION_1465485
NOTE_ON_57
DURATION_895
POSITION_1466061
NOTE_ON_55
DURATION_373
POSITION_1466051
NOTE_ON_84
DURATION_398
POSITION_1466285
NOTE_ON_79
DURATION_264
POSITION_1466290
NOTE_ON_64
DURATION_566
POSITION_1466471
NOTE_ON_63
DURATION_439
POSITION_1466837
NOTE_ON_59
DURATION_183
POSITION_1466262
NOTE_ON_83
DURATION_879
POSITION_1466681
NOTE_ON_78
DURATION_1013
POSITION_1466672
NOTE_ON_81
DURATION_1083
POSITION_1467649
NOTE_ON_79
DURATION_287
POSITION_1467626
NOTE_ON_83
DURATION_429
POSITION_1467927
NOTE_ON_78
DURATION_250
POSITION_1467918
NOTE_ON_81
DURATION_298
POSITION_1467062
NOTE_ON_64
DURATION_1522
POSITION_1468514
NOTE_ON_62
DURATION_183
POSITION_1469227
NOTE_ON_78
DURATION_294
POSITION_1468074
NOTE_ON_79
DURATION_1517
POSITION_1468103
NOTE_ON_76
DURATION_1580
POSITION_1469601
NOTE_ON_79
DURATION_95
POSITION_1469528
NOTE_ON_78
DURATION_170
POSITION_1470110
NOTE_ON_79
DURATION_210
POSITION_1469678
NOTE_ON_81
DURATION_727
POSITION_1470329
NOTE_ON_79
DURATION_106
POSITION_1470393
NOTE_ON_78
DURATION_104
POSITION_1470442
NOTE_ON_79
DURATION_78
POSITION_1470881
NOTE_ON_76
DURATION_276
POSITION_1468700
NOTE_ON_60
DURATION_2519
POSITION_1470501
NOTE_ON_78
DURATION_756
POSITION_1469445
NOTE_ON_64
DURATION_2019
POSITION_1471162
NOTE_ON_76
DURATION_333
POSITION_1470285
NOTE_ON_69
DURATION_1794
POSITION_1471439
NOTE_ON_75
DURATION_1101
POSITION_1471122
NOTE_ON_71
DURATION_1633
POSITION_1472551
NOTE_ON_75
DURATION_327
POSITION_1472829
NOTE_ON_76
DURATION_102
POSITION_1472889
NOTE_ON_75
DURATION_111
POSITION_1472937
NOTE_ON_76
DURATION_84
POSITION_1472000
NOTE_ON_47
DURATION_1021
POSITION_1472546
NOTE_ON_78
DURATION_476
POSITION_1471033
NOTE_ON_59
DURATION_2014
POSITION_1472764
NOTE_ON_71
DURATION_298
POSITION_1473007
NOTE_ON_75
DURATION_569
POSITION_1473377
NOTE_ON_76
DURATION_264
POSITION_1473404
NOTE_ON_73
DURATION_349
POSITION_1473580
NOTE_ON_78
DURATION_795
POSITION_1473583
NOTE_ON_75
DURATION_815
POSITION_1474171
NOTE_ON_71
DURATION_358
POSITION_1474380
NOTE_ON_69
DURATION_829
POSITION_1474385
NOTE_ON_78
DURATION_828
POSITION_1474409
NOTE_ON_75
DURATION_805
POSITION_1474955
NOTE_ON_67
DURATION_261
POSITION_1475148
NOTE_ON_79
DURATION_794
POSITION_1475164
NOTE_ON_76
DURATION_809
POSITION_1475170
NOTE_ON_66
DURATION_849
POSITION_1475725
NOTE_ON_81
DURATION_296
POSITION_1475754
NOTE_ON_78
DURATION_268
POSITION_1475755
NOTE_ON_64
DURATION_267
POSITION_1475977
NOTE_ON_76
DURATION_910
POSITION_1475953
NOTE_ON_79
DURATION_941
POSITION_1476820
NOTE_ON_75
DURATION_658
POSITION_1476813
NOTE_ON_78
DURATION_665
POSITION_1476830
NOTE_ON_59
DURATION_740
POSITION_1476008
NOTE_ON_71
DURATION_1624
POSITION_1477484
NOTE_ON_78
DURATION_158
POSITION_1477489
NOTE_ON_75
DURATION_534
POSITION_1478259
NOTE_ON_72
DURATION_228
POSITION_1477670
NOTE_ON_80
DURATION_817
POSITION_1478241
NOTE_ON_81
DURATION_247
POSITION_1477714
NOTE_ON_71
DURATION_816
POSITION_1478441
NOTE_ON_83
DURATION_875
POSITION_1479042
NOTE_ON_65
DURATION_456
POSITION_1479268
NOTE_ON_81
DURATION_237
POSITION_1479467
NOTE_ON_80
DURATION_100
POSITION_1478480
NOTE_ON_74
DURATION_1356
POSITION_1479021
NOTE_ON_84
DURATION_915
POSITION_1479308
NOTE_ON_64
DURATION_735
POSITION_1479510
NOTE_ON_81
DURATION_541
POSITION_1479837
NOTE_ON_77
DURATION_217
POSITION_1479845
NOTE_ON_62
DURATION_209
POSITION_1479509
NOTE_ON_65
DURATION_549
POSITION_1479571
NOTE_ON_80
DURATION_1079
POSITION_1479845
NOTE_ON_74
DURATION_812
POSITION_1480058
NOTE_ON_76
DURATION_838
POSITION_1480056
NOTE_ON_60
DURATION_847
POSITION_1480669
NOTE_ON_59
DURATION_244
POSITION_1480664
NOTE_ON_74
DURATION_250
POSITION_1480657
NOTE_ON_80
DURATION_269
POSITION_1480878
NOTE_ON_81
DURATION_1423
POSITION_1480913
NOTE_ON_60
DURATION_1565
POSITION_1480905
NOTE_ON_76
DURATION_1642
POSITION_1481706
NOTE_ON_48
DURATION_896
POSITION_1482312
NOTE_ON_81
DURATION_1126
POSITION_1482482
NOTE_ON_60
DURATION_1032
POSITION_1483118
NOTE_ON_78
DURATION_450
POSITION_1482555
NOTE_ON_76
DURATION_1167
POSITION_1483375
NOTE_ON_79
DURATION_500
POSITION_1483572
NOTE_ON_78
DURATION_346
POSITION_1483324
NOTE_ON_61
DURATION_674
POSITION_1483886
NOTE_ON_79
DURATION_234
POSITION_1483733
NOTE_ON_76
DURATION_396
POSITION_1484105
NOTE_ON_62
DURATION_802
POSITION_1484684
NOTE_ON_74
DURATION_225
POSITION_1484088
NOTE_ON_78
DURATION_878
POSITION_1484901
NOTE_ON_50
DURATION_822
POSITION_1485427
NOTE_ON_71
DURATION_296
POSITION_1484892
NOTE_ON_69
DURATION_832
POSITION_1485685
NOTE_ON_72
DURATION_236
POSITION_1485915
NOTE_ON_71
DURATION_221
POSITION_1486087
NOTE_ON_69
DURATION_165
POSITION_1485630
NOTE_ON_62
DURATION_818
POSITION_1486251
NOTE_ON_72
DURATION_208
POSITION_1486630
NOTE_ON_66
DURATION_317
POSITION_1486444
NOTE_ON_71
DURATION_549
POSITION_1486792
NOTE_ON_67
DURATION_347
POSITION_1486952
NOTE_ON_75
DURATION_224
POSITION_1486410
NOTE_ON_63
DURATION_770
POSITION_1487126
NOTE_ON_76
DURATION_167
POSITION_1487151
NOTE_ON_67
DURATION_191
POSITION_1487298
NOTE_ON_66
DURATION_175
POSITION_1487300
NOTE_ON_76
DURATION_343
POSITION_1487624
NOTE_ON_81
DURATION_176
POSITION_1487626
NOTE_ON_63
DURATION_177
POSITION_1486953
NOTE_ON_69
DURATION_855
POSITION_1487454
NOTE_ON_64
DURATION_377
POSITION_1488589
NOTE_ON_57
DURATION_212
POSITION_1488564
NOTE_ON_78
DURATION_238
POSITION_1487857
NOTE_ON_79
DURATION_957
POSITION_1487870
NOTE_ON_64
DURATION_990
POSITION_1488571
NOTE_ON_69
DURATION_296
POSITION_1488792
NOTE_ON_67
DURATION_874
POSITION_1488758
NOTE_ON_76
DURATION_1108
POSITION_1489812
NOTE_ON_75
DURATION_108
POSITION_1489870
NOTE_ON_76
DURATION_96
POSITION_1489927
NOTE_ON_75
DURATION_100
POSITION_1489976
NOTE_ON_76
DURATION_55
POSITION_1490529
NOTE_ON_76
DURATION_212
POSITION_1488789
NOTE_ON_59
DURATION_2002
POSITION_1490035
NOTE_ON_75
DURATION_757
POSITION_1489621
NOTE_ON_66
DURATION_1189
POSITION_1489534
NOTE_ON_47
DURATION_1284
POSITION_1492235
NOTE_ON_79
DURATION_641
POSITION_1492696
NOTE_ON_81
DURATION_209
POSITION_1492512
NOTE_ON_78
DURATION_399
POSITION_1490751
NOTE_ON_76
DURATION_2187
POSITION_1492881
NOTE_ON_79
DURATION_225
POSITION_1490766
NOTE_ON_52
DURATION_2348
POSITION_1493052
NOTE_ON_78
DURATION_205
POSITION_1491729
NOTE_ON_40
DURATION_1662
POSITION_1493216
NOTE_ON_76
DURATION_193
POSITION_1493371
NOTE_ON_74
DURATION_156
POSITION_1493588
NOTE_ON_72
DURATION_433
POSITION_1494075
NOTE_ON_65
DURATION_721
POSITION_1494600
NOTE_ON_74
DURATION_213
POSITION_1494047
NOTE_ON_71
DURATION_880
POSITION_1494772
NOTE_ON_72
DURATION_172
POSITION_1494440
NOTE_ON_64
DURATION_771
POSITION_1494798
NOTE_ON_62
DURATION_477
POSITION_1494802
NOTE_ON_65
DURATION_482
POSITION_1494938
NOTE_ON_71
DURATION_348
POSITION_1495064
NOTE_ON_60
DURATION_915
POSITION_1495215
NOTE_ON_64
DURATION_902
POSITION_1495596
NOTE_ON_59
DURATION_525
POSITION_1495585
NOTE_ON_62
DURATION_536
POSITION_1495169
NOTE_ON_81
DURATION_964
POSITION_1495744
NOTE_ON_79
DURATION_412
POSITION_1495991
NOTE_ON_60
DURATION_771
POSITION_1495964
NOTE_ON_77
DURATION_1205
POSITION_1496416
NOTE_ON_76
DURATION_838
POSITION_1496436
NOTE_ON_59
DURATION_1064
POSITION_1497111
NOTE_ON_78
DURATION_393
POSITION_1497262
NOTE_ON_76
DURATION_243
POSITION_1496941
NOTE_ON_79
DURATION_566
POSITION_1496767
NOTE_ON_60
DURATION_741
POSITION_1497104
NOTE_ON_62
DURATION_404
POSITION_1497979
NOTE_ON_81
DURATION_254
POSITION_1497818
NOTE_ON_66
DURATION_437
POSITION_1497505
NOTE_ON_64
DURATION_816
POSITION_1497476
NOTE_ON_84
DURATION_861
POSITION_1497305
NOTE_ON_57
DURATION_1362
POSITION_1498949
NOTE_ON_79
DURATION_130
POSITION_1498235
NOTE_ON_83
DURATION_854
POSITION_1499010
NOTE_ON_78
DURATION_96
POSITION_1498872
NOTE_ON_81
DURATION_248
POSITION_1499099
NOTE_ON_76
DURATION_582
POSITION_1498286
NOTE_ON_67
DURATION_1402
POSITION_1499690
NOTE_ON_76
DURATION_194
POSITION_1499113
NOTE_ON_60
DURATION_776
POSITION_1499693
NOTE_ON_67
DURATION_197
POSITION_1498065
NOTE_ON_55
DURATION_1862
POSITION_1499879
NOTE_ON_78
DURATION_854
POSITION_1499908
NOTE_ON_69
DURATION_879
POSITION_1500467
NOTE_ON_79
DURATION_345
POSITION_1499912
NOTE_ON_61
DURATION_900
POSITION_1500484
NOTE_ON_71
DURATION_329
POSITION_1500738
NOTE_ON_78
DURATION_288
POSITION_1500998
NOTE_ON_79
DURATION_641
POSITION_1501168
NOTE_ON_81
DURATION_556
POSITION_1501327
NOTE_ON_78
DURATION_427
POSITION_1500794
NOTE_ON_69
DURATION_1037
POSITION_1500660
NOTE_ON_62
DURATION_1624
POSITION_1502215
NOTE_ON_66
DURATION_461
POSITION_1502463
NOTE_ON_67
DURATION_290
POSITION_1502478
NOTE_ON_64
DURATION_277
POSITION_1501557
NOTE_ON_74
DURATION_1199
POSITION_1502211
NOTE_ON_69
DURATION_565
POSITION_1501604
NOTE_ON_50
DURATION_1571
POSITION_1502680
NOTE_ON_66
DURATION_495
POSITION_1502690
NOTE_ON_62
DURATION_501
POSITION_1503093
NOTE_ON_67
DURATION_174
POSITION_1503094
NOTE_ON_64
DURATION_196
POSITION_1503274
NOTE_ON_67
DURATION_185
POSITION_1503298
NOTE_ON_64
DURATION_230
POSITION_1503425
NOTE_ON_69
DURATION_664
POSITION_1503427
NOTE_ON_66
DURATION_677
POSITION_1503916
NOTE_ON_50
DURATION_285
POSITION_1504127
NOTE_ON_48
DURATION_716
POSITION_1504100
NOTE_ON_69
DURATION_811
POSITION_1504723
NOTE_ON_47
DURATION_196
POSITION_1504114
NOTE_ON_66
DURATION_812
POSITION_1504930
NOTE_ON_45
DURATION_675
POSITION_1504899
NOTE_ON_71
DURATION_706
POSITION_1504907
NOTE_ON_67
DURATION_701
POSITION_1505484
NOTE_ON_69
DURATION_128
POSITION_1505476
NOTE_ON_72
DURATION_137
POSITION_1505491
NOTE_ON_43
DURATION_303
POSITION_1505690
NOTE_ON_67
DURATION_870
POSITION_1505682
NOTE_ON_71
DURATION_883
POSITION_1505713
NOTE_ON_50
DURATION_1118
POSITION_1506541
NOTE_ON_66
DURATION_966
POSITION_1507121
NOTE_ON_78
DURATION_427
POSITION_1506513
NOTE_ON_69
DURATION_1037
POSITION_1507372
NOTE_ON_67
DURATION_181
POSITION_1507370
NOTE_ON_76
DURATION_187
POSITION_1506550
NOTE_ON_38
DURATION_1034
POSITION_1507515
NOTE_ON_74
DURATION_665
POSITION_1507989
NOTE_ON_67
DURATION_191
POSITION_1507982
NOTE_ON_76
DURATION_201
POSITION_1507516
NOTE_ON_66
DURATION_682
POSITION_1508149
NOTE_ON_78
DURATION_1055
POSITION_1508153
NOTE_ON_69
DURATION_1066
POSITION_1508890
NOTE_ON_62
DURATION_852
POSITION_1509566
NOTE_ON_60
DURATION_210
POSITION_1508717
NOTE_ON_64
DURATION_1063
POSITION_1509003
NOTE_ON_81
DURATION_861
POSITION_1508943
NOTE_ON_71
DURATION_2020
POSITION_1510447
NOTE_ON_57
DURATION_535
POSITION_1510445
NOTE_ON_72
DURATION_537
POSITION_1509142
NOTE_ON_80
DURATION_1841
POSITION_1510422
NOTE_ON_81
DURATION_563
POSITION_1509756
NOTE_ON_59
DURATION_1230
POSITION_1510755
NOTE_ON_74
DURATION_1191
POSITION_1511878
NOTE_ON_76
DURATION_398
POSITION_1512080
NOTE_ON_74
DURATION_396
POSITION_1512480
NOTE_ON_74
DURATION_208
POSITION_1512282
NOTE_ON_76
DURATION_407
POSITION_1511575
NOTE_ON_77
DURATION_1123
POSITION_1510694
NOTE_ON_56
DURATION_2020
POSITION_1512641
NOTE_ON_72
DURATION_169
POSITION_1512801
NOTE_ON_71
DURATION_184
POSITION_1510881
NOTE_ON_83
DURATION_2132
POSITION_1512958
NOTE_ON_69
DURATION_181
POSITION_1513126
NOTE_ON_68
DURATION_361
POSITION_1513299
NOTE_ON_66
DURATION_190
POSITION_1513686
NOTE_ON_74
DURATION_240
POSITION_1513895
NOTE_ON_72
DURATION_182
POSITION_1514060
NOTE_ON_71
DURATION_201
POSITION_1514214
NOTE_ON_74
DURATION_349
POSITION_1514234
NOTE_ON_52
DURATION_379
POSITION_1513462
NOTE_ON_64
DURATION_1202
POSITION_1515119
NOTE_ON_64
DURATION_140
POSITION_1515136
NOTE_ON_55
DURATION_185
POSITION_1514516
NOTE_ON_57
DURATION_847
POSITION_1514468
NOTE_ON_72
DURATION_926
POSITION_1515336
NOTE_ON_54
DURATION_734
POSITION_1515914
NOTE_ON_52
DURATION_186
POSITION_1515903
NOTE_ON_67
DURATION_201
POSITION_1515314
NOTE_ON_69
DURATION_825
POSITION_1516156
NOTE_ON_50
DURATION_618
POSITION_1516605
NOTE_ON_69
DURATION_175
POSITION_1516426
NOTE_ON_71
DURATION_496
POSITION_1516766
NOTE_ON_72
DURATION_243
POSITION_1516127
NOTE_ON_66
DURATION_895
POSITION_1516781
NOTE_ON_43
DURATION_272
POSITION_1517057
NOTE_ON_43
DURATION_211
POSITION_1517038
NOTE_ON_67
DURATION_1075
POSITION_1517012
NOTE_ON_71
DURATION_1139
POSITION_1517868
NOTE_ON_66
DURATION_306
POSITION_1517865
NOTE_ON_72
DURATION_309
POSITION_1517853
NOTE_ON_76
DURATION_475
POSITION_1518894
NOTE_ON_57
DURATION_149
POSITION_1517048
NOTE_ON_55
DURATION_2017
POSITION_1518117
NOTE_ON_67
DURATION_2039
POSITION_1518161
NOTE_ON_71
DURATION_2056
POSITION_1519865
NOTE_ON_72
DURATION_404
POSITION_1518228
NOTE_ON_74
DURATION_2043
POSITION_1519891
NOTE_ON_60
DURATION_381
POSITION_1519897
NOTE_ON_69
DURATION_375
POSITION_1519886
NOTE_ON_64
DURATION_387
POSITION_1519104
NOTE_ON_59
DURATION_1169
POSITION_1520161
NOTE_ON_67
DURATION_1415
POSITION_1520227
NOTE_ON_71
DURATION_1549
POSITION_1521644
NOTE_ON_69
DURATION_255
POSITION_1521787
NOTE_ON_71
DURATION_220
POSITION_1521908
NOTE_ON_69
DURATION_191
POSITION_1522015
NOTE_ON_71
DURATION_153
POSITION_1522103
NOTE_ON_69
DURATION_119
POSITION_1522173
NOTE_ON_71
DURATION_110
POSITION_1522230
NOTE_ON_69
DURATION_107
POSITION_1522287
NOTE_ON_71
DURATION_96
POSITION_1520104
NOTE_ON_62
DURATION_2456
POSITION_1521414
NOTE_ON_60
DURATION_1775
POSITION_1523170
NOTE_ON_67
DURATION_687
POSITION_1523198
NOTE_ON_60
DURATION_735
POSITION_1522348
NOTE_ON_69
DURATION_1587
POSITION_1521353
NOTE_ON_50
DURATION_2583
POSITION_1521479
NOTE_ON_66
DURATION_2463
POSITION_1523746
NOTE_ON_59
DURATION_1171
POSITION_1523632
NOTE_ON_43
DURATION_2768
POSITION_1523696
NOTE_ON_55
DURATION_2704
POSITION_1523790
NOTE_ON_62
DURATION_2932
POSITION_1523863
NOTE_ON_67
DURATION_2867
POSITION_1524922
NOTE_ON_59
DURATION_1815
POSITION_1530781
NOTE_ON_62
DURATION_32
POSITION_1530987
NOTE_ON_55
DURATION_40
POSITION_1531139
NOTE_ON_59
DURATION_34
POSITION_1531272
NOTE_ON_67
DURATION_30
POSITION_1531403
NOTE_ON_59
DURATION_38
POSITION_1531546
NOTE_ON_62
DURATION_34
POSITION_1531664
NOTE_ON_71
DURATION_35
POSITION_1531803
NOTE_ON_62
DURATION_37
POSITION_1531920
NOTE_ON_67
DURATION_43
POSITION_1532044
NOTE_ON_74
DURATION_28
POSITION_1532180
NOTE_ON_67
DURATION_38
POSITION_1532301
NOTE_ON_71
DURATION_43
POSITION_1532419
NOTE_ON_79
DURATION_48
POSITION_1532535
NOTE_ON_71
DURATION_28
POSITION_1532667
NOTE_ON_74
DURATION_23
POSITION_1532786
NOTE_ON_83
DURATION_24
POSITION_1532926
NOTE_ON_74
DURATION_36
POSITION_1533056
NOTE_ON_79
DURATION_32
POSITION_1533175
NOTE_ON_84
DURATION_106
POSITION_1533177
NOTE_ON_79
DURATION_135
POSITION_1533285
NOTE_ON_84
DURATION_41
POSITION_1533238
NOTE_ON_83
DURATION_89
POSITION_1533333
NOTE_ON_74
DURATION_43
POSITION_1533336
NOTE_ON_83
DURATION_68
POSITION_1533462
NOTE_ON_73
DURATION_65
POSITION_1533586
NOTE_ON_74
DURATION_48
POSITION_1533412
NOTE_ON_83
DURATION_276
POSITION_1533784
NOTE_ON_62
DURATION_283
POSITION_1533753
NOTE_ON_81
DURATION_315
POSITION_1533762
NOTE_ON_78
DURATION_307
POSITION_1534084
NOTE_ON_83
DURATION_32
POSITION_1534210
NOTE_ON_74
DURATION_26
POSITION_1534343
NOTE_ON_79
DURATION_27
POSITION_1534472
NOTE_ON_76
DURATION_28
POSITION_1534730
NOTE_ON_71
DURATION_54
POSITION_1534623
NOTE_ON_67
DURATION_231
POSITION_1534867
NOTE_ON_81
DURATION_31
POSITION_1534989
NOTE_ON_73
DURATION_31
POSITION_1535114
NOTE_ON_76
DURATION_25
POSITION_1535259
NOTE_ON_74
DURATION_25
POSITION_1535520
NOTE_ON_69
DURATION_53
POSITION_1535401
NOTE_ON_66
DURATION_210
POSITION_1535658
NOTE_ON_79
DURATION_92
POSITION_1535781
NOTE_ON_71
DURATION_42
POSITION_1535905
NOTE_ON_74
DURATION_30
POSITION_1536040
NOTE_ON_73
DURATION_30
POSITION_1536283
NOTE_ON_67
DURATION_113
POSITION_1536165
NOTE_ON_64
DURATION_240
POSITION_1536419
NOTE_ON_78
DURATION_77
POSITION_1536556
NOTE_ON_69
DURATION_32
POSITION_1536675
NOTE_ON_73
DURATION_33
POSITION_1536801
NOTE_ON_71
DURATION_32
POSITION_1537035
NOTE_ON_66
DURATION_91
POSITION_1536925
NOTE_ON_62
DURATION_208
POSITION_1537190
NOTE_ON_76
DURATION_43
POSITION_1537310
NOTE_ON_67
DURATION_42
POSITION_1537419
NOTE_ON_71
DURATION_30
POSITION_1537551
NOTE_ON_69
DURATION_29
POSITION_1537815
NOTE_ON_64
DURATION_49
POSITION_1537684
NOTE_ON_61
DURATION_183
POSITION_1537933
NOTE_ON_74
DURATION_44
POSITION_1538056
NOTE_ON_66
DURATION_36
POSITION_1538171
NOTE_ON_69
DURATION_31
POSITION_1538298
NOTE_ON_67
DURATION_33
POSITION_1538422
NOTE_ON_59
DURATION_69
POSITION_1538546
NOTE_ON_62
DURATION_32
POSITION_1538682
NOTE_ON_55
DURATION_297
POSITION_1538956
NOTE_ON_74
DURATION_35
POSITION_1538981
NOTE_ON_64
DURATION_31
POSITION_1538984
NOTE_ON_55
DURATION_49
POSITION_1539260
NOTE_ON_73
DURATION_32
POSITION_1539267
NOTE_ON_67
DURATION_31
POSITION_1539273
NOTE_ON_57
DURATION_39
POSITION_1539652
NOTE_ON_73
DURATION_735
POSITION_1539652
NOTE_ON_67
DURATION_738
POSITION_1539620
NOTE_ON_62
DURATION_1195
POSITION_1540389
NOTE_ON_74
DURATION_427
POSITION_1540396
NOTE_ON_66
DURATION_454
POSITION_1540819
NOTE_ON_62
DURATION_37
POSITION_1540942
NOTE_ON_55
DURATION_77
POSITION_1541082
NOTE_ON_59
DURATION_54
POSITION_1541196
NOTE_ON_67
DURATION_31
POSITION_1541334
NOTE_ON_59
DURATION_38
POSITION_1541441
NOTE_ON_62
DURATION_31
POSITION_1541567
NOTE_ON_71
DURATION_34
POSITION_1541692
NOTE_ON_62
DURATION_29
POSITION_1541810
NOTE_ON_67
DURATION_32
POSITION_1541934
NOTE_ON_74
DURATION_30
POSITION_1542067
NOTE_ON_67
DURATION_35
POSITION_1542187
NOTE_ON_71
DURATION_22
POSITION_1542313
NOTE_ON_79
DURATION_29
POSITION_1542430
NOTE_ON_71
DURATION_32
POSITION_1542563
NOTE_ON_74
DURATION_33
POSITION_1542677
NOTE_ON_83
DURATION_26
POSITION_1542802
NOTE_ON_74
DURATION_29
POSITION_1542936
NOTE_ON_79
DURATION_29
POSITION_1543032
NOTE_ON_84
DURATION_32
POSITION_1543041
NOTE_ON_79
DURATION_132
POSITION_1543133
NOTE_ON_84
DURATION_48
POSITION_1543188
NOTE_ON_74
DURATION_46
POSITION_1543178
NOTE_ON_83
DURATION_71
POSITION_1543322
NOTE_ON_73
DURATION_58
POSITION_1543432
NOTE_ON_74
DURATION_30
POSITION_1543256
NOTE_ON_83
DURATION_377
POSITION_1543599
NOTE_ON_81
DURATION_157
POSITION_1543607
NOTE_ON_62
DURATION_290
POSITION_1543617
NOTE_ON_78
DURATION_282
POSITION_1543762
NOTE_ON_81
DURATION_137
POSITION_1543907
NOTE_ON_83
DURATION_64
POSITION_1544028
NOTE_ON_74
DURATION_25
POSITION_1544163
NOTE_ON_79
DURATION_30
POSITION_1544281
NOTE_ON_76
DURATION_27
POSITION_1544544
NOTE_ON_71
DURATION_36
POSITION_1544412
NOTE_ON_67
DURATION_208
POSITION_1544664
NOTE_ON_81
DURATION_33
POSITION_1544783
NOTE_ON_73
DURATION_27
POSITION_1544906
NOTE_ON_76
DURATION_29
POSITION_1545035
NOTE_ON_74
DURATION_29
POSITION_1545268
NOTE_ON_69
DURATION_38
POSITION_1545153
NOTE_ON_66
DURATION_165
POSITION_1545417
NOTE_ON_79
DURATION_36
POSITION_1545533
NOTE_ON_71
DURATION_43
POSITION_1545658
NOTE_ON_74
DURATION_24
POSITION_1545780
NOTE_ON_73
DURATION_30
POSITION_1546042
NOTE_ON_67
DURATION_45
POSITION_1545904
NOTE_ON_64
DURATION_190
POSITION_1546162
NOTE_ON_78
DURATION_33
POSITION_1546273
NOTE_ON_69
DURATION_33
POSITION_1546408
NOTE_ON_73
DURATION_33
POSITION_1546531
NOTE_ON_71
DURATION_36
POSITION_1546777
NOTE_ON_66
DURATION_56
POSITION_1546645
NOTE_ON_62
DURATION_191
POSITION_1546899
NOTE_ON_76
DURATION_74
POSITION_1547007
NOTE_ON_67
DURATION_33
POSITION_1547132
NOTE_ON_71
DURATION_31
POSITION_1547248
NOTE_ON_69
DURATION_49
POSITION_1547487
NOTE_ON_64
DURATION_41
POSITION_1547373
NOTE_ON_61
DURATION_162
POSITION_1547609
NOTE_ON_74
DURATION_76
POSITION_1547714
NOTE_ON_66
DURATION_41
POSITION_1547839
NOTE_ON_69
DURATION_31
POSITION_1547969
NOTE_ON_67
DURATION_35
POSITION_1548082
NOTE_ON_59
DURATION_82
POSITION_1548202
NOTE_ON_62
DURATION_36
POSITION_1548653
NOTE_ON_74
DURATION_33
POSITION_1548371
NOTE_ON_55
DURATION_322
POSITION_1548660
NOTE_ON_64
DURATION_34
POSITION_1548359
NOTE_ON_67
DURATION_336
POSITION_1548981
NOTE_ON_73
DURATION_31
POSITION_1548979
NOTE_ON_67
DURATION_34
POSITION_1548982
NOTE_ON_57
DURATION_55
POSITION_1549406
NOTE_ON_73
DURATION_843
POSITION_1549364
NOTE_ON_67
DURATION_888
POSITION_1550214
NOTE_ON_74
DURATION_519
POSITION_1550219
NOTE_ON_66
DURATION_515
POSITION_1549324
NOTE_ON_62
DURATION_1414
POSITION_1550725
NOTE_ON_57
DURATION_38
POSITION_1550857
NOTE_ON_50
DURATION_61
POSITION_1550969
NOTE_ON_54
DURATION_34
POSITION_1551099
NOTE_ON_62
DURATION_32
POSITION_1551217
NOTE_ON_54
DURATION_48
POSITION_1551350
NOTE_ON_57
DURATION_34
POSITION_1551460
NOTE_ON_66
DURATION_32
POSITION_1551600
NOTE_ON_57
DURATION_30
POSITION_1551713
NOTE_ON_62
DURATION_34
POSITION_1551824
NOTE_ON_69
DURATION_30
POSITION_1551953
NOTE_ON_62
DURATION_40
POSITION_1552074
NOTE_ON_66
DURATION_34
POSITION_1552194
NOTE_ON_72
DURATION_42
POSITION_1552304
NOTE_ON_66
DURATION_30
POSITION_1552439
NOTE_ON_69
DURATION_28
POSITION_1552548
NOTE_ON_75
DURATION_28
POSITION_1552668
NOTE_ON_69
DURATION_29
POSITION_1552772
NOTE_ON_72
DURATION_262
POSITION_1552929
NOTE_ON_78
DURATION_566
POSITION_1553277
NOTE_ON_71
DURATION_233
POSITION_1552962
NOTE_ON_63
DURATION_550
POSITION_1553470
NOTE_ON_79
DURATION_63
POSITION_1553529
NOTE_ON_81
DURATION_58
POSITION_1553597
NOTE_ON_64
DURATION_308
POSITION_1553911
NOTE_ON_59
DURATION_34
POSITION_1554049
NOTE_ON_52
DURATION_48
POSITION_1554159
NOTE_ON_55
DURATION_33
POSITION_1554281
NOTE_ON_64
DURATION_27
POSITION_1553587
NOTE_ON_79
DURATION_798
POSITION_1554419
NOTE_ON_55
DURATION_50
POSITION_1554515
NOTE_ON_59
DURATION_34
POSITION_1554650
NOTE_ON_67
DURATION_31
POSITION_1554773
NOTE_ON_59
DURATION_24
POSITION_1554894
NOTE_ON_64
DURATION_32
POSITION_1555011
NOTE_ON_71
DURATION_31
POSITION_1555139
NOTE_ON_64
DURATION_32
POSITION_1555261
NOTE_ON_67
DURATION_27
POSITION_1555395
NOTE_ON_74
DURATION_28
POSITION_1555497
NOTE_ON_68
DURATION_28
POSITION_1555631
NOTE_ON_71
DURATION_24
POSITION_1555746
NOTE_ON_77
DURATION_27
POSITION_1555868
NOTE_ON_71
DURATION_27
POSITION_1556133
NOTE_ON_80
DURATION_167
POSITION_1556270
NOTE_ON_81
DURATION_118
POSITION_1556133
NOTE_ON_64
DURATION_257
POSITION_1555988
NOTE_ON_74
DURATION_402
POSITION_1556402
NOTE_ON_68
DURATION_29
POSITION_1556398
NOTE_ON_83
DURATION_36
POSITION_1556514
NOTE_ON_74
DURATION_33
POSITION_1556694
NOTE_ON_57
DURATION_242
POSITION_1556675
NOTE_ON_72
DURATION_265
POSITION_1556938
NOTE_ON_78
DURATION_32
POSITION_1557047
NOTE_ON_69
DURATION_32
POSITION_1557182
NOTE_ON_72
DURATION_28
POSITION_1557303
NOTE_ON_71
DURATION_34
POSITION_1557417
NOTE_ON_63
DURATION_140
POSITION_1557531
NOTE_ON_66
DURATION_31
POSITION_1557666
NOTE_ON_79
DURATION_39
POSITION_1557792
NOTE_ON_71
DURATION_42
POSITION_1557908
NOTE_ON_76
DURATION_28
POSITION_1558036
NOTE_ON_70
DURATION_37
POSITION_1558278
NOTE_ON_64
DURATION_36
POSITION_1558167
NOTE_ON_61
DURATION_155
POSITION_1558411
NOTE_ON_78
DURATION_72
POSITION_1558523
NOTE_ON_69
DURATION_30
POSITION_1558643
NOTE_ON_72
DURATION_26
POSITION_1558775
NOTE_ON_71
DURATION_30
POSITION_1559000
NOTE_ON_66
DURATION_35
POSITION_1558885
NOTE_ON_63
DURATION_152
POSITION_1559134
NOTE_ON_81
DURATION_61
POSITION_1559242
NOTE_ON_72
DURATION_30
POSITION_1559366
NOTE_ON_76
DURATION_30
POSITION_1559494
NOTE_ON_75
DURATION_26
POSITION_1559632
NOTE_ON_66
DURATION_114
POSITION_1559742
NOTE_ON_69
DURATION_50
POSITION_1559882
NOTE_ON_79
DURATION_137
POSITION_1560012
NOTE_ON_71
DURATION_26
POSITION_1560134
NOTE_ON_74
DURATION_34
POSITION_1560253
NOTE_ON_72
DURATION_154
POSITION_1560371
NOTE_ON_64
DURATION_97
POSITION_1560503
NOTE_ON_67
DURATION_28
POSITION_1560746
NOTE_ON_69
DURATION_45
POSITION_1560867
NOTE_ON_72
DURATION_28
POSITION_1560992
NOTE_ON_71
DURATION_114
POSITION_1560620
NOTE_ON_78
DURATION_570
POSITION_1561122
NOTE_ON_62
DURATION_113
POSITION_1561233
NOTE_ON_66
DURATION_44
POSITION_1561365
NOTE_ON_76
DURATION_89
POSITION_1561489
NOTE_ON_67
DURATION_35
POSITION_1561607
NOTE_ON_71
DURATION_37
POSITION_1561740
NOTE_ON_69
DURATION_126
POSITION_1561847
NOTE_ON_60
DURATION_130
POSITION_1561970
NOTE_ON_64
DURATION_42
POSITION_1562098
NOTE_ON_75
DURATION_79
POSITION_1562213
NOTE_ON_66
DURATION_32
POSITION_1562332
NOTE_ON_69
DURATION_23
POSITION_1562452
NOTE_ON_63
DURATION_76
POSITION_1562571
NOTE_ON_66
DURATION_36
POSITION_1562701
NOTE_ON_69
DURATION_29
POSITION_1562824
NOTE_ON_72
DURATION_29
POSITION_1562939
NOTE_ON_66
DURATION_51
POSITION_1563059
NOTE_ON_69
DURATION_28
POSITION_1563182
NOTE_ON_75
DURATION_29
POSITION_1563299
NOTE_ON_69
DURATION_31
POSITION_1563418
NOTE_ON_72
DURATION_32
POSITION_1563536
NOTE_ON_78
DURATION_40
POSITION_1563659
NOTE_ON_72
DURATION_36
POSITION_1563790
NOTE_ON_75
DURATION_25
POSITION_1563920
NOTE_ON_81
DURATION_26
POSITION_1564050
NOTE_ON_75
DURATION_23
POSITION_1564166
NOTE_ON_78
DURATION_119
POSITION_1564304
NOTE_ON_79
DURATION_28
POSITION_1564306
NOTE_ON_76
DURATION_48
POSITION_1564603
NOTE_ON_76
DURATION_31
POSITION_1564607
NOTE_ON_55
DURATION_37
POSITION_1564610
NOTE_ON_71
DURATION_44
POSITION_1564906
NOTE_ON_75
DURATION_27
POSITION_1564917
NOTE_ON_69
DURATION_18
POSITION_1564916
NOTE_ON_59
DURATION_45
POSITION_1565270
NOTE_ON_64
DURATION_444
POSITION_1565261
NOTE_ON_75
DURATION_456
POSITION_1565265
NOTE_ON_69
DURATION_456
POSITION_1565803
NOTE_ON_62
DURATION_36
POSITION_1565653
NOTE_ON_76
DURATION_255
POSITION_1565667
NOTE_ON_67
DURATION_303
POSITION_1565941
NOTE_ON_61
DURATION_33
POSITION_1566066
NOTE_ON_59
DURATION_28
POSITION_1566209
NOTE_ON_57
DURATION_54
POSITION_1566342
NOTE_ON_64
DURATION_33
POSITION_1566463
NOTE_ON_61
DURATION_29
POSITION_1566583
NOTE_ON_67
DURATION_44
POSITION_1566710
NOTE_ON_64
DURATION_31
POSITION_1566827
NOTE_ON_61
DURATION_37
POSITION_1566954
NOTE_ON_57
DURATION_75
POSITION_1567063
NOTE_ON_66
DURATION_32
POSITION_1567207
NOTE_ON_62
DURATION_28
POSITION_1567323
NOTE_ON_69
DURATION_31
POSITION_1567437
NOTE_ON_66
DURATION_37
POSITION_1567570
NOTE_ON_62
DURATION_30
POSITION_1567697
NOTE_ON_57
DURATION_77
POSITION_1567815
NOTE_ON_64
DURATION_35
POSITION_1567942
NOTE_ON_61
DURATION_26
POSITION_1568061
NOTE_ON_67
DURATION_34
POSITION_1568190
NOTE_ON_64
DURATION_24
POSITION_1568307
NOTE_ON_61
DURATION_29
POSITION_1568440
NOTE_ON_57
DURATION_113
POSITION_1568553
NOTE_ON_66
DURATION_38
POSITION_1568674
NOTE_ON_62
DURATION_30
POSITION_1568799
NOTE_ON_69
DURATION_35
POSITION_1568917
NOTE_ON_66
DURATION_36
POSITION_1569042
NOTE_ON_62
DURATION_31
POSITION_1569175
NOTE_ON_55
DURATION_111
POSITION_1569292
NOTE_ON_62
DURATION_36
POSITION_1569423
NOTE_ON_59
DURATION_31
POSITION_1569542
NOTE_ON_65
DURATION_31
POSITION_1569659
NOTE_ON_62
DURATION_32
POSITION_1569789
NOTE_ON_59
DURATION_37
POSITION_1569912
NOTE_ON_55
DURATION_119
POSITION_1570036
NOTE_ON_64
DURATION_28
POSITION_1570156
NOTE_ON_60
DURATION_31
POSITION_1570274
NOTE_ON_67
DURATION_36
POSITION_1570403
NOTE_ON_64
DURATION_24
POSITION_1570521
NOTE_ON_60
DURATION_30
POSITION_1570777
NOTE_ON_62
DURATION_30
POSITION_1570648
NOTE_ON_55
DURATION_160
POSITION_1570902
NOTE_ON_59
DURATION_37
POSITION_1571020
NOTE_ON_65
DURATION_34
POSITION_1571136
NOTE_ON_62
DURATION_34
POSITION_1571262
NOTE_ON_59
DURATION_38
POSITION_1571516
NOTE_ON_64
DURATION_33
POSITION_1571392
NOTE_ON_55
DURATION_170
POSITION_1571641
NOTE_ON_60
DURATION_30
POSITION_1571769
NOTE_ON_67
DURATION_30
POSITION_1571886
NOTE_ON_64
DURATION_30
POSITION_1572008
NOTE_ON_60
DURATION_29
POSITION_1572160
NOTE_ON_66
DURATION_169
POSITION_1572289
NOTE_ON_64
DURATION_110
POSITION_1572159
NOTE_ON_48
DURATION_282
POSITION_1572415
NOTE_ON_54
DURATION_44
POSITION_1572414
NOTE_ON_62
DURATION_50
POSITION_1572537
NOTE_ON_69
DURATION_39
POSITION_1572655
NOTE_ON_57
DURATION_44
POSITION_1572654
NOTE_ON_66
DURATION_52
POSITION_1572774
NOTE_ON_64
DURATION_33
POSITION_1572905
NOTE_ON_62
DURATION_85
POSITION_1572910
NOTE_ON_54
DURATION_157
POSITION_1573029
NOTE_ON_57
DURATION_57
POSITION_1573150
NOTE_ON_62
DURATION_33
POSITION_1573160
NOTE_ON_50
DURATION_49
POSITION_1573265
NOTE_ON_66
DURATION_37
POSITION_1573390
NOTE_ON_48
DURATION_37
POSITION_1573391
NOTE_ON_62
DURATION_37
POSITION_1573501
NOTE_ON_66
DURATION_36
POSITION_1573634
NOTE_ON_67
DURATION_107
POSITION_1573750
NOTE_ON_62
DURATION_47
POSITION_1573643
NOTE_ON_47
DURATION_221
POSITION_1573874
NOTE_ON_67
DURATION_32
POSITION_1573873
NOTE_ON_50
DURATION_38
POSITION_1573986
NOTE_ON_71
DURATION_46
POSITION_1574114
NOTE_ON_67
DURATION_43
POSITION_1574113
NOTE_ON_55
DURATION_44
POSITION_1574222
NOTE_ON_71
DURATION_51
POSITION_1574349
NOTE_ON_74
DURATION_54
POSITION_1574357
NOTE_ON_59
DURATION_53
POSITION_1574463
NOTE_ON_71
DURATION_49
POSITION_1574583
NOTE_ON_62
DURATION_37
POSITION_1574584
NOTE_ON_67
DURATION_38
POSITION_1574705
NOTE_ON_77
DURATION_67
POSITION_1574827
NOTE_ON_74
DURATION_31
POSITION_1574827
NOTE_ON_67
DURATION_36
POSITION_1574938
NOTE_ON_71
DURATION_35
POSITION_1575071
NOTE_ON_76
DURATION_55
POSITION_1575194
NOTE_ON_67
DURATION_30
POSITION_1575312
NOTE_ON_71
DURATION_30
POSITION_1575437
NOTE_ON_69
DURATION_27
POSITION_1575672
NOTE_ON_64
DURATION_31
POSITION_1575568
NOTE_ON_60
DURATION_136
POSITION_1575808
NOTE_ON_74
DURATION_38
POSITION_1575915
NOTE_ON_66
DURATION_33
POSITION_1576048
NOTE_ON_69
DURATION_24
POSITION_1576176
NOTE_ON_67
DURATION_34
POSITION_1576417
NOTE_ON_62
DURATION_32
POSITION_1576306
NOTE_ON_59
DURATION_147
POSITION_1576553
NOTE_ON_72
DURATION_35
POSITION_1576676
NOTE_ON_64
DURATION_43
POSITION_1576785
NOTE_ON_67
DURATION_32
POSITION_1576909
NOTE_ON_66
DURATION_37
POSITION_1577037
NOTE_ON_57
DURATION_115
POSITION_1577147
NOTE_ON_60
DURATION_34
POSITION_1577284
NOTE_ON_71
DURATION_30
POSITION_1577392
NOTE_ON_62
DURATION_31
POSITION_1577523
NOTE_ON_66
DURATION_34
POSITION_1577643
NOTE_ON_64
DURATION_32
POSITION_1577882
NOTE_ON_59
DURATION_37
POSITION_1577767
NOTE_ON_55
DURATION_161
POSITION_1578020
NOTE_ON_69
DURATION_30
POSITION_1578149
NOTE_ON_60
DURATION_31
POSITION_1578254
NOTE_ON_64
DURATION_28
POSITION_1578373
NOTE_ON_62
DURATION_32
POSITION_1578605
NOTE_ON_57
DURATION_38
POSITION_1578498
NOTE_ON_54
DURATION_146
POSITION_1578738
NOTE_ON_67
DURATION_40
POSITION_1578871
NOTE_ON_59
DURATION_53
POSITION_1578989
NOTE_ON_62
DURATION_30
POSITION_1579105
NOTE_ON_60
DURATION_31
POSITION_1579235
NOTE_ON_52
DURATION_83
POSITION_1579352
NOTE_ON_55
DURATION_39
POSITION_1579504
NOTE_ON_48
DURATION_241
POSITION_1579796
NOTE_ON_79
DURATION_25
POSITION_1579803
NOTE_ON_69
DURATION_24
POSITION_1580117
NOTE_ON_72
DURATION_35
POSITION_1580115
NOTE_ON_78
DURATION_44
POSITION_1580131
NOTE_ON_50
DURATION_33
POSITION_1580495
NOTE_ON_72
DURATION_818
POSITION_1580525
NOTE_ON_78
DURATION_790
POSITION_1580447
NOTE_ON_43
DURATION_895
POSITION_1581346
NOTE_ON_43
DURATION_475
POSITION_1581323
NOTE_ON_71
DURATION_501
POSITION_1581817
NOTE_ON_57
DURATION_43
POSITION_1581957
NOTE_ON_50
DURATION_88
POSITION_1582095
NOTE_ON_54
DURATION_40
POSITION_1582204
NOTE_ON_62
DURATION_27
POSITION_1582328
NOTE_ON_54
DURATION_46
POSITION_1582441
NOTE_ON_57
DURATION_34
POSITION_1581323
NOTE_ON_79
DURATION_1233
POSITION_1582566
NOTE_ON_66
DURATION_38
POSITION_1582683
NOTE_ON_57
DURATION_34
POSITION_1582804
NOTE_ON_62
DURATION_29
POSITION_1582915
NOTE_ON_69
DURATION_30
POSITION_1583043
NOTE_ON_62
DURATION_33
POSITION_1583150
NOTE_ON_66
DURATION_30
POSITION_1583288
NOTE_ON_72
DURATION_31
POSITION_1583403
NOTE_ON_66
DURATION_35
POSITION_1583521
NOTE_ON_69
DURATION_29
POSITION_1583634
NOTE_ON_75
DURATION_23
POSITION_1583754
NOTE_ON_69
DURATION_28
POSITION_1583865
NOTE_ON_72
DURATION_142
POSITION_1584032
NOTE_ON_78
DURATION_310
POSITION_1584366
NOTE_ON_71
DURATION_38
POSITION_1584033
NOTE_ON_63
DURATION_573
POSITION_1584562
NOTE_ON_79
DURATION_83
POSITION_1584603
NOTE_ON_81
DURATION_72
POSITION_1584659
NOTE_ON_64
DURATION_325
POSITION_1584959
NOTE_ON_59
DURATION_44
POSITION_1585087
NOTE_ON_52
DURATION_52
POSITION_1585206
NOTE_ON_55
DURATION_39
POSITION_1585325
NOTE_ON_64
DURATION_30
POSITION_1585452
NOTE_ON_55
DURATION_42
POSITION_1584656
NOTE_ON_79
DURATION_849
POSITION_1585570
NOTE_ON_59
DURATION_32
POSITION_1585696
NOTE_ON_67
DURATION_36
POSITION_1585815
NOTE_ON_59
DURATION_40
POSITION_1585932
NOTE_ON_64
DURATION_31
POSITION_1586052
NOTE_ON_71
DURATION_34
POSITION_1586173
NOTE_ON_64
DURATION_35
POSITION_1586302
NOTE_ON_67
DURATION_35
POSITION_1586424
NOTE_ON_74
DURATION_33
POSITION_1586531
NOTE_ON_68
DURATION_74
POSITION_1586652
NOTE_ON_71
DURATION_39
POSITION_1586773
NOTE_ON_77
DURATION_48
POSITION_1586896
NOTE_ON_71
DURATION_61
POSITION_1587162
NOTE_ON_64
DURATION_159
POSITION_1587030
NOTE_ON_74
DURATION_293
POSITION_1587159
NOTE_ON_80
DURATION_177
POSITION_1587300
NOTE_ON_81
DURATION_116
POSITION_1587428
NOTE_ON_83
DURATION_49
POSITION_1587429
NOTE_ON_68
DURATION_50
POSITION_1587555
NOTE_ON_74
DURATION_37
POSITION_1587705
NOTE_ON_72
DURATION_204
POSITION_1587721
NOTE_ON_57
DURATION_249
POSITION_1588006
NOTE_ON_78
DURATION_68
POSITION_1588128
NOTE_ON_69
DURATION_31
POSITION_1588256
NOTE_ON_72
DURATION_39
POSITION_1588373
NOTE_ON_71
DURATION_32
POSITION_1588615
NOTE_ON_66
DURATION_39
POSITION_1588502
NOTE_ON_63
DURATION_161
POSITION_1588746
NOTE_ON_79
DURATION_51
POSITION_1588877
NOTE_ON_71
DURATION_32
POSITION_1588989
NOTE_ON_76
DURATION_32
POSITION_1589119
NOTE_ON_70
DURATION_38
POSITION_1589251
NOTE_ON_61
DURATION_145
POSITION_1589367
NOTE_ON_64
DURATION_33
POSITION_1589612
NOTE_ON_69
DURATION_26
POSITION_1589733
NOTE_ON_72
DURATION_33
POSITION_1589493
NOTE_ON_78
DURATION_343
POSITION_1589852
NOTE_ON_71
DURATION_35
POSITION_1589969
NOTE_ON_63
DURATION_145
POSITION_1590079
NOTE_ON_66
DURATION_53
POSITION_1590346
NOTE_ON_72
DURATION_38
POSITION_1590220
NOTE_ON_81
DURATION_269
POSITION_1590459
NOTE_ON_76
DURATION_32
POSITION_1590582
NOTE_ON_75
DURATION_41
POSITION_1590716
NOTE_ON_66
DURATION_106
POSITION_1590821
NOTE_ON_69
DURATION_26
POSITION_1590960
NOTE_ON_79
DURATION_142
POSITION_1591073
NOTE_ON_71
DURATION_34
POSITION_1591200
NOTE_ON_74
DURATION_32
POSITION_1591332
NOTE_ON_72
DURATION_29
POSITION_1591455
NOTE_ON_64
DURATION_95
POSITION_1591583
NOTE_ON_67
DURATION_28
POSITION_1591819
NOTE_ON_69
DURATION_36
POSITION_1591943
NOTE_ON_72
DURATION_27
POSITION_1591709
NOTE_ON_78
DURATION_385
POSITION_1592066
NOTE_ON_71
DURATION_32
POSITION_1592186
NOTE_ON_62
DURATION_88
POSITION_1592298
NOTE_ON_66
DURATION_48
POSITION_1592421
NOTE_ON_76
DURATION_30
POSITION_1592539
NOTE_ON_67
DURATION_38
POSITION_1592654
NOTE_ON_71
DURATION_27
POSITION_1592791
NOTE_ON_69
DURATION_74
POSITION_1592929
NOTE_ON_60
DURATION_86
POSITION_1593027
NOTE_ON_64
DURATION_32
POSITION_1593156
NOTE_ON_75
DURATION_47
POSITION_1593259
NOTE_ON_66
DURATION_36
POSITION_1593381
NOTE_ON_69
DURATION_31
POSITION_1593507
NOTE_ON_63
DURATION_58
POSITION_1593630
NOTE_ON_66
DURATION_36
POSITION_1593757
NOTE_ON_69
DURATION_30
POSITION_1593869
NOTE_ON_72
DURATION_31
POSITION_1593983
NOTE_ON_66
DURATION_48
POSITION_1594106
NOTE_ON_69
DURATION_46
POSITION_1594232
NOTE_ON_75
DURATION_26
POSITION_1594353
NOTE_ON_69
DURATION_28
POSITION_1594472
NOTE_ON_72
DURATION_28
POSITION_1594595
NOTE_ON_78
DURATION_49
POSITION_1594716
NOTE_ON_72
DURATION_67
POSITION_1594831
NOTE_ON_75
DURATION_29
POSITION_1594963
NOTE_ON_81
DURATION_42
POSITION_1595077
NOTE_ON_75
DURATION_24
POSITION_1595193
NOTE_ON_78
DURATION_30
POSITION_1595326
NOTE_ON_79
DURATION_31
POSITION_1595332
NOTE_ON_76
DURATION_25
POSITION_1595616
NOTE_ON_76
DURATION_36
POSITION_1595623
NOTE_ON_55
DURATION_33
POSITION_1595633
NOTE_ON_71
DURATION_40
POSITION_1595913
NOTE_ON_75
DURATION_27
POSITION_1595917
NOTE_ON_59
DURATION_33
POSITION_1595923
NOTE_ON_69
DURATION_42
POSITION_1596282
NOTE_ON_75
DURATION_528
POSITION_1596300
NOTE_ON_69
DURATION_522
POSITION_1596306
NOTE_ON_64
DURATION_524
POSITION_1596883
NOTE_ON_62
DURATION_42
POSITION_1597011
NOTE_ON_61
DURATION_33
POSITION_1596766
NOTE_ON_67
DURATION_284
POSITION_1597153
NOTE_ON_59
DURATION_33
POSITION_1597297
NOTE_ON_57
DURATION_39
POSITION_1597410
NOTE_ON_64
DURATION_32
POSITION_1596751
NOTE_ON_76
DURATION_727
POSITION_1597528
NOTE_ON_61
DURATION_31
POSITION_1597647
NOTE_ON_67
DURATION_33
POSITION_1597769
NOTE_ON_64
DURATION_29
POSITION_1597883
NOTE_ON_61
DURATION_29
POSITION_1598010
NOTE_ON_57
DURATION_34
POSITION_1598128
NOTE_ON_66
DURATION_32
POSITION_1598249
NOTE_ON_62
DURATION_32
POSITION_1598381
NOTE_ON_69
DURATION_31
POSITION_1598496
NOTE_ON_66
DURATION_37
POSITION_1598619
NOTE_ON_62
DURATION_30
POSITION_1598757
NOTE_ON_57
DURATION_75
POSITION_1598881
NOTE_ON_64
DURATION_29
POSITION_1598995
NOTE_ON_61
DURATION_31
POSITION_1599127
NOTE_ON_67
DURATION_36
POSITION_1599256
NOTE_ON_64
DURATION_25
POSITION_1599376
NOTE_ON_61
DURATION_26
POSITION_1599508
NOTE_ON_57
DURATION_51
POSITION_1599619
NOTE_ON_66
DURATION_35
POSITION_1599745
NOTE_ON_62
DURATION_30
POSITION_1599868
NOTE_ON_69
DURATION_30
POSITION_1599986
NOTE_ON_66
DURATION_39
POSITION_1600108
NOTE_ON_62
DURATION_27
POSITION_1600234
NOTE_ON_55
DURATION_111
POSITION_1600356
NOTE_ON_62
DURATION_36
POSITION_1600482
NOTE_ON_59
DURATION_35
POSITION_1600607
NOTE_ON_65
DURATION_29
POSITION_1600729
NOTE_ON_62
DURATION_30
POSITION_1600847
NOTE_ON_59
DURATION_31
POSITION_1600974
NOTE_ON_55
DURATION_134
POSITION_1601083
NOTE_ON_64
DURATION_34
POSITION_1601208
NOTE_ON_60
DURATION_36
POSITION_1601331
NOTE_ON_67
DURATION_37
POSITION_1601451
NOTE_ON_64
DURATION_32
POSITION_1601566
NOTE_ON_60
DURATION_39
POSITION_1601703
NOTE_ON_55
DURATION_126
POSITION_1601831
NOTE_ON_62
DURATION_36
POSITION_1601966
NOTE_ON_59
DURATION_38
POSITION_1602084
NOTE_ON_65
DURATION_36
POSITION_1602205
NOTE_ON_62
DURATION_32
POSITION_1602329
NOTE_ON_59
DURATION_35
POSITION_1602456
NOTE_ON_55
DURATION_143
POSITION_1602573
NOTE_ON_64
DURATION_27
POSITION_1602696
NOTE_ON_60
DURATION_32
POSITION_1602819
NOTE_ON_67
DURATION_40
POSITION_1602943
NOTE_ON_64
DURATION_30
POSITION_1603060
NOTE_ON_60
DURATION_41
POSITION_1603200
NOTE_ON_66
DURATION_141
POSITION_1603197
NOTE_ON_48
DURATION_231
POSITION_1603309
NOTE_ON_64
DURATION_136
POSITION_1603437
NOTE_ON_54
DURATION_38
POSITION_1603434
NOTE_ON_62
DURATION_48
POSITION_1603555
NOTE_ON_69
DURATION_43
POSITION_1603682
NOTE_ON_57
DURATION_44
POSITION_1603680
NOTE_ON_66
DURATION_51
POSITION_1603797
NOTE_ON_64
DURATION_38
POSITION_1603928
NOTE_ON_62
DURATION_45
POSITION_1604045
NOTE_ON_57
DURATION_43
POSITION_1603933
NOTE_ON_54
DURATION_209
POSITION_1604163
NOTE_ON_62
DURATION_33
POSITION_1604171
NOTE_ON_50
DURATION_32
POSITION_1604275
NOTE_ON_66
DURATION_39
POSITION_1604408
NOTE_ON_48
DURATION_40
POSITION_1604394
NOTE_ON_62
DURATION_107
POSITION_1604512
NOTE_ON_64
DURATION_50
POSITION_1604563
NOTE_ON_66
DURATION_65
POSITION_1604602
NOTE_ON_67
DURATION_36
POSITION_1604634
NOTE_ON_47
DURATION_90
POSITION_1604727
NOTE_ON_62
DURATION_36
POSITION_1604849
NOTE_ON_67
DURATION_35
POSITION_1604855
NOTE_ON_50
DURATION_80
POSITION_1604956
NOTE_ON_71
DURATION_29
POSITION_1605078
NOTE_ON_67
DURATION_44
POSITION_1605078
NOTE_ON_55
DURATION_45
POSITION_1605200
NOTE_ON_71
DURATION_34
POSITION_1605312
NOTE_ON_59
DURATION_44
POSITION_1605315
NOTE_ON_74
DURATION_54
POSITION_1605424
NOTE_ON_71
DURATION_37
POSITION_1605546
NOTE_ON_67
DURATION_33
POSITION_1605547
NOTE_ON_62
DURATION_34
POSITION_1605662
NOTE_ON_77
DURATION_61
POSITION_1605783
NOTE_ON_67
DURATION_42
POSITION_1605783
NOTE_ON_74
DURATION_46
POSITION_1605892
NOTE_ON_71
DURATION_38
POSITION_1606036
NOTE_ON_76
DURATION_65
POSITION_1606148
NOTE_ON_67
DURATION_36
POSITION_1606269
NOTE_ON_71
DURATION_34
POSITION_1606387
NOTE_ON_69
DURATION_40
POSITION_1606523
NOTE_ON_60
DURATION_68
POSITION_1606630
NOTE_ON_64
DURATION_33
POSITION_1606758
NOTE_ON_74
DURATION_78
POSITION_1606869
NOTE_ON_66
DURATION_38
POSITION_1606992
NOTE_ON_69
DURATION_31
POSITION_1607110
NOTE_ON_67
DURATION_34
POSITION_1607243
NOTE_ON_59
DURATION_131
POSITION_1607349
NOTE_ON_62
DURATION_32
POSITION_1607481
NOTE_ON_72
DURATION_46
POSITION_1607599
NOTE_ON_64
DURATION_29
POSITION_1607720
NOTE_ON_67
DURATION_32
POSITION_1607842
NOTE_ON_66
DURATION_32
POSITION_1607971
NOTE_ON_57
DURATION_92
POSITION_1608085
NOTE_ON_60
DURATION_30
POSITION_1608201
NOTE_ON_71
DURATION_34
POSITION_1608313
NOTE_ON_62
DURATION_30
POSITION_1608426
NOTE_ON_66
DURATION_39
POSITION_1608550
NOTE_ON_64
DURATION_33
POSITION_1608673
NOTE_ON_55
DURATION_106
POSITION_1608782
NOTE_ON_59
DURATION_43
POSITION_1608912
NOTE_ON_69
DURATION_35
POSITION_1609025
NOTE_ON_60
DURATION_38
POSITION_1609148
NOTE_ON_64
DURATION_50
POSITION_1609272
NOTE_ON_62
DURATION_32
POSITION_1609402
NOTE_ON_54
DURATION_133
POSITION_1609515
NOTE_ON_57
DURATION_39
POSITION_1609644
NOTE_ON_67
DURATION_36
POSITION_1609766
NOTE_ON_59
DURATION_34
POSITION_1609892
NOTE_ON_62
DURATION_31
POSITION_1610002
NOTE_ON_60
DURATION_33
POSITION_1610137
NOTE_ON_52
DURATION_61
POSITION_1610256
NOTE_ON_55
DURATION_52
POSITION_1610438
NOTE_ON_48
DURATION_98
POSITION_1610763
NOTE_ON_79
DURATION_35
POSITION_1610773
NOTE_ON_69
DURATION_31
POSITION_1611159
NOTE_ON_50
DURATION_54
POSITION_1611144
NOTE_ON_78
DURATION_70
POSITION_1611157
NOTE_ON_72
DURATION_59
POSITION_1611711
NOTE_ON_78
DURATION_1434
POSITION_1611612
NOTE_ON_43
DURATION_1538
POSITION_1611659
NOTE_ON_72
DURATION_1494
POSITION_1613010
NOTE_ON_71
DURATION_1490
POSITION_1613007
NOTE_ON_79
DURATION_1620
POSITION_1616522
NOTE_ON_43
DURATION_84
POSITION_1616508
NOTE_ON_62
DURATION_116
POSITION_1616869
NOTE_ON_67
DURATION_51
POSITION_1616927
NOTE_ON_66
DURATION_82
POSITION_1616985
NOTE_ON_67
DURATION_415
POSITION_1617191
NOTE_ON_59
DURATION_257
POSITION_1617405
NOTE_ON_67
DURATION_53
POSITION_1616887
NOTE_ON_55
DURATION_590
POSITION_1617465
NOTE_ON_69
DURATION_39
POSITION_1617513
NOTE_ON_71
DURATION_37
POSITION_1617737
NOTE_ON_71
DURATION_82
POSITION_1617439
NOTE_ON_64
DURATION_667
POSITION_1617810
NOTE_ON_69
DURATION_412
POSITION_1617740
NOTE_ON_54
DURATION_520
POSITION_1618254
NOTE_ON_67
DURATION_41
POSITION_1617988
NOTE_ON_62
DURATION_558
POSITION_1618256
NOTE_ON_55
DURATION_298
POSITION_1618523
NOTE_ON_66
DURATION_277
POSITION_1618778
NOTE_ON_64
DURATION_32
POSITION_1618777
NOTE_ON_67
DURATION_40
POSITION_1619047
NOTE_ON_64
DURATION_32
POSITION_1618541
NOTE_ON_57
DURATION_539
POSITION_1619049
NOTE_ON_61
DURATION_36
POSITION_1619049
NOTE_ON_45
DURATION_71
POSITION_1619473
NOTE_ON_60
DURATION_125
POSITION_1619605
NOTE_ON_69
DURATION_38
POSITION_1619607
NOTE_ON_59
DURATION_39
POSITION_1619711
NOTE_ON_57
DURATION_51
POSITION_1619346
NOTE_ON_62
DURATION_519
POSITION_1619833
NOTE_ON_67
DURATION_38
POSITION_1619847
NOTE_ON_59
DURATION_47
POSITION_1619363
NOTE_ON_47
DURATION_556
POSITION_1619945
NOTE_ON_55
DURATION_53
POSITION_1620079
NOTE_ON_66
DURATION_257
POSITION_1620197
NOTE_ON_57
DURATION_139
POSITION_1620327
NOTE_ON_72
DURATION_41
POSITION_1620330
NOTE_ON_55
DURATION_68
POSITION_1620433
NOTE_ON_54
DURATION_59
POSITION_1620561
NOTE_ON_71
DURATION_38
POSITION_1620561
NOTE_ON_55
DURATION_47
POSITION_1620674
NOTE_ON_52
DURATION_41
POSITION_1620092
NOTE_ON_45
DURATION_626
POSITION_1620807
NOTE_ON_69
DURATION_292
POSITION_1621081
NOTE_ON_76
DURATION_46
POSITION_1621084
NOTE_ON_72
DURATION_56
POSITION_1620829
NOTE_ON_54
DURATION_545
POSITION_1621352
NOTE_ON_71
DURATION_29
POSITION_1621351
NOTE_ON_74
DURATION_34
POSITION_1621356
NOTE_ON_55
DURATION_35
POSITION_1621613
NOTE_ON_74
DURATION_44
POSITION_1621613
NOTE_ON_69
DURATION_80
POSITION_1621656
NOTE_ON_72
DURATION_52
POSITION_1621612
NOTE_ON_48
DURATION_311
POSITION_1621755
NOTE_ON_72
DURATION_173
POSITION_1621921
NOTE_ON_67
DURATION_114
POSITION_1621912
NOTE_ON_71
DURATION_136
POSITION_1622018
NOTE_ON_69
DURATION_97
POSITION_1621913
NOTE_ON_50
DURATION_221
POSITION_1622142
NOTE_ON_38
DURATION_307
POSITION_1622140
NOTE_ON_74
DURATION_324
POSITION_1622143
NOTE_ON_66
DURATION_321
POSITION_1622433
NOTE_ON_67
DURATION_89
POSITION_1622426
NOTE_ON_72
DURATION_160
POSITION_1622437
NOTE_ON_43
DURATION_164
POSITION_1622532
NOTE_ON_71
DURATION_69
POSITION_1622439
NOTE_ON_55
DURATION_191
POSITION_1622654
NOTE_ON_69
DURATION_61
POSITION_1622756
NOTE_ON_67
DURATION_60
POSITION_1622663
NOTE_ON_43
DURATION_174
POSITION_1622661
NOTE_ON_55
DURATION_199
POSITION_1622885
NOTE_ON_62
DURATION_57
POSITION_1622901
NOTE_ON_54
DURATION_247
POSITION_1623179
NOTE_ON_67
DURATION_38
POSITION_1623229
NOTE_ON_66
DURATION_72
POSITION_1623293
NOTE_ON_67
DURATION_397
POSITION_1623474
NOTE_ON_59
DURATION_258
POSITION_1623700
NOTE_ON_67
DURATION_60
POSITION_1623755
NOTE_ON_69
DURATION_46
POSITION_1623804
NOTE_ON_71
DURATION_39
POSITION_1623180
NOTE_ON_52
DURATION_863
POSITION_1624021
NOTE_ON_71
DURATION_80
POSITION_1623722
NOTE_ON_61
DURATION_613
POSITION_1624533
NOTE_ON_67
DURATION_44
POSITION_1624033
NOTE_ON_54
DURATION_578
POSITION_1624103
NOTE_ON_69
DURATION_516
POSITION_1624539
NOTE_ON_59
DURATION_333
POSITION_1624279
NOTE_ON_62
DURATION_778
POSITION_1624806
NOTE_ON_66
DURATION_255
POSITION_1625068
NOTE_ON_64
DURATION_31
POSITION_1625065
NOTE_ON_67
DURATION_44
POSITION_1625336
NOTE_ON_61
DURATION_24
POSITION_1625330
NOTE_ON_64
DURATION_49
POSITION_1624807
NOTE_ON_55
DURATION_711
POSITION_1625337
NOTE_ON_57
DURATION_253
POSITION_1625607
NOTE_ON_62
DURATION_222
POSITION_1625747
NOTE_ON_66
DURATION_146
POSITION_1625870
NOTE_ON_64
DURATION_98
POSITION_1625970
NOTE_ON_62
DURATION_160
POSITION_1625874
NOTE_ON_47
DURATION_262
POSITION_1625622
NOTE_ON_59
DURATION_517
POSITION_1626098
NOTE_ON_64
DURATION_114
POSITION_1626199
NOTE_ON_66
DURATION_96
POSITION_1626332
NOTE_ON_67
DURATION_153
POSITION_1626104
NOTE_ON_49
DURATION_458
POSITION_1626445
NOTE_ON_76
DURATION_156
POSITION_1626566
NOTE_ON_74
DURATION_146
POSITION_1626567
NOTE_ON_49
DURATION_274
POSITION_1626679
NOTE_ON_73
DURATION_162
POSITION_1626352
NOTE_ON_57
DURATION_492
POSITION_1626798
NOTE_ON_71
DURATION_106
POSITION_1626902
NOTE_ON_69
DURATION_155
POSITION_1626795
NOTE_ON_50
DURATION_277
POSITION_1627025
NOTE_ON_68
DURATION_136
POSITION_1627137
NOTE_ON_69
DURATION_132
POSITION_1627036
NOTE_ON_59
DURATION_252
POSITION_1627269
NOTE_ON_81
DURATION_45
POSITION_1627275
NOTE_ON_50
DURATION_251
POSITION_1627276
NOTE_ON_69
DURATION_315
POSITION_1627525
NOTE_ON_52
DURATION_90
POSITION_1627526
NOTE_ON_61
DURATION_270
POSITION_1627524
NOTE_ON_79
DURATION_272
POSITION_1627782
NOTE_ON_78
DURATION_124
POSITION_1627791
NOTE_ON_54
DURATION_140
POSITION_1627786
NOTE_ON_62
DURATION_269
POSITION_1628035
NOTE_ON_66
DURATION_36
POSITION_1628033
NOTE_ON_74
DURATION_39
POSITION_1628033
NOTE_ON_55
DURATION_53
POSITION_1628303
NOTE_ON_64
DURATION_30
POSITION_1628302
NOTE_ON_73
DURATION_33
POSITION_1628309
NOTE_ON_57
DURATION_29
POSITION_1628308
NOTE_ON_69
DURATION_44
POSITION_1628631
NOTE_ON_69
DURATION_401
POSITION_1628631
NOTE_ON_66
DURATION_401
POSITION_1628618
NOTE_ON_74
DURATION_414
POSITION_1628632
NOTE_ON_50
DURATION_401
POSITION_1629268
NOTE_ON_62
DURATION_41
POSITION_1629274
NOTE_ON_43
DURATION_41
POSITION_1629633
NOTE_ON_67
DURATION_52
POSITION_1629691
NOTE_ON_66
DURATION_83
POSITION_1629751
NOTE_ON_67
DURATION_413
POSITION_1629945
NOTE_ON_59
DURATION_238
POSITION_1630175
NOTE_ON_64
DURATION_35
POSITION_1630170
NOTE_ON_67
DURATION_48
POSITION_1629653
NOTE_ON_55
DURATION_580
POSITION_1630213
NOTE_ON_69
DURATION_43
POSITION_1630260
NOTE_ON_71
DURATION_23
POSITION_1630483
NOTE_ON_71
DURATION_60
POSITION_1630506
NOTE_ON_54
DURATION_386
POSITION_1630990
NOTE_ON_67
DURATION_45
POSITION_1630556
NOTE_ON_69
DURATION_484
POSITION_1631014
NOTE_ON_55
DURATION_260
POSITION_1631257
NOTE_ON_66
DURATION_263
POSITION_1630736
NOTE_ON_62
DURATION_798
POSITION_1631512
NOTE_ON_64
DURATION_41
POSITION_1631511
NOTE_ON_67
DURATION_48
POSITION_1631765
NOTE_ON_64
DURATION_32
POSITION_1631770
NOTE_ON_61
DURATION_31
POSITION_1631765
NOTE_ON_45
DURATION_104
POSITION_1632035
NOTE_ON_47
DURATION_78
POSITION_1632155
NOTE_ON_60
DURATION_111
POSITION_1632279
NOTE_ON_69
DURATION_30
POSITION_1631274
NOTE_ON_57
DURATION_1048
POSITION_1632287
NOTE_ON_59
DURATION_73
POSITION_1632402
NOTE_ON_57
DURATION_40
POSITION_1632511
NOTE_ON_67
DURATION_36
POSITION_1632537
NOTE_ON_59
DURATION_49
POSITION_1632634
NOTE_ON_55
DURATION_38
POSITION_1632764
NOTE_ON_66
DURATION_267
POSITION_1632890
NOTE_ON_57
DURATION_142
POSITION_1633007
NOTE_ON_72
DURATION_48
POSITION_1632032
NOTE_ON_62
DURATION_1027
POSITION_1633029
NOTE_ON_55
DURATION_61
POSITION_1633135
NOTE_ON_54
DURATION_60
POSITION_1632786
NOTE_ON_45
DURATION_412
POSITION_1633238
NOTE_ON_71
DURATION_47
POSITION_1633261
NOTE_ON_55
DURATION_40
POSITION_1633355
NOTE_ON_52
DURATION_43
POSITION_1633488
NOTE_ON_69
DURATION_269
POSITION_1633739
NOTE_ON_72
DURATION_30
POSITION_1633731
NOTE_ON_76
DURATION_45
POSITION_1633511
NOTE_ON_54
DURATION_307
POSITION_1634001
NOTE_ON_71
DURATION_30
POSITION_1633994
NOTE_ON_74
DURATION_44
POSITION_1634001
NOTE_ON_55
DURATION_38
POSITION_1634233
NOTE_ON_74
DURATION_32
POSITION_1634238
NOTE_ON_69
DURATION_50
POSITION_1634283
NOTE_ON_72
DURATION_90
POSITION_1634381
NOTE_ON_72
DURATION_81
POSITION_1634331
NOTE_ON_74
DURATION_132
POSITION_1634521
NOTE_ON_71
DURATION_34
POSITION_1634231
NOTE_ON_48
DURATION_372
POSITION_1634525
NOTE_ON_67
DURATION_120
POSITION_1634626
NOTE_ON_69
DURATION_131
POSITION_1634521
NOTE_ON_50
DURATION_253
POSITION_1634751
NOTE_ON_74
DURATION_225
POSITION_1634755
NOTE_ON_38
DURATION_222
POSITION_1634759
NOTE_ON_66
DURATION_218
POSITION_1634768
NOTE_ON_69
DURATION_227
POSITION_1635035
NOTE_ON_67
DURATION_196
POSITION_1635029
NOTE_ON_72
DURATION_281
POSITION_1635147
NOTE_ON_71
DURATION_178
POSITION_1635271
NOTE_ON_69
DURATION_92
POSITION_1635375
NOTE_ON_67
DURATION_40
POSITION_1635275
NOTE_ON_55
DURATION_153
POSITION_1635033
NOTE_ON_43
DURATION_430
POSITION_1635515
NOTE_ON_62
DURATION_63
POSITION_1635536
NOTE_ON_54
DURATION_252
POSITION_1635783
NOTE_ON_67
DURATION_37
POSITION_1635840
NOTE_ON_66
DURATION_49
POSITION_1635896
NOTE_ON_67
DURATION_397
POSITION_1635784
NOTE_ON_52
DURATION_532
POSITION_1636070
NOTE_ON_59
DURATION_249
POSITION_1636302
NOTE_ON_67
DURATION_49
POSITION_1636364
NOTE_ON_69
DURATION_37
POSITION_1636411
NOTE_ON_71
DURATION_47
POSITION_1636593
NOTE_ON_71
DURATION_72
POSITION_1636320
NOTE_ON_61
DURATION_572
POSITION_1636627
NOTE_ON_54
DURATION_413
POSITION_1636677
NOTE_ON_69
DURATION_499
POSITION_1637095
NOTE_ON_67
DURATION_204
POSITION_1636854
NOTE_ON_62
DURATION_767
POSITION_1637110
NOTE_ON_59
DURATION_534
POSITION_1637364
NOTE_ON_66
DURATION_280
POSITION_1637623
NOTE_ON_64
DURATION_23
POSITION_1637614
NOTE_ON_67
DURATION_122
POSITION_1637372
NOTE_ON_55
DURATION_522
POSITION_1637875
NOTE_ON_64
DURATION_53
POSITION_1637879
NOTE_ON_61
DURATION_57
POSITION_1637879
NOTE_ON_57
DURATION_266
POSITION_1638146
NOTE_ON_62
DURATION_215
POSITION_1638268
NOTE_ON_66
DURATION_133
POSITION_1638386
NOTE_ON_64
DURATION_106
POSITION_1638387
NOTE_ON_47
DURATION_246
POSITION_1638497
NOTE_ON_62
DURATION_137
POSITION_1638148
NOTE_ON_59
DURATION_487
POSITION_1638623
NOTE_ON_64
DURATION_109
POSITION_1638730
NOTE_ON_66
DURATION_70
POSITION_1638623
NOTE_ON_49
DURATION_268
POSITION_1638978
NOTE_ON_76
DURATION_177
POSITION_1639102
NOTE_ON_74
DURATION_143
POSITION_1638855
NOTE_ON_67
DURATION_406
POSITION_1639112
NOTE_ON_49
DURATION_245
POSITION_1639330
NOTE_ON_71
DURATION_38
POSITION_1639213
NOTE_ON_73
DURATION_167
POSITION_1639437
NOTE_ON_69
DURATION_102
POSITION_1639338
NOTE_ON_50
DURATION_269
POSITION_1639560
NOTE_ON_68
DURATION_104
POSITION_1639672
NOTE_ON_69
DURATION_131
POSITION_1639569
NOTE_ON_59
DURATION_247
POSITION_1639801
NOTE_ON_81
DURATION_50
POSITION_1640053
NOTE_ON_79
DURATION_42
POSITION_1639805
NOTE_ON_50
DURATION_301
POSITION_1640054
NOTE_ON_52
DURATION_77
POSITION_1640054
NOTE_ON_61
DURATION_166
POSITION_1638860
NOTE_ON_57
DURATION_1495
POSITION_1640317
NOTE_ON_78
DURATION_42
POSITION_1640320
NOTE_ON_54
DURATION_53
POSITION_1640319
NOTE_ON_62
DURATION_257
POSITION_1640575
NOTE_ON_66
DURATION_35
POSITION_1640573
NOTE_ON_74
DURATION_40
POSITION_1640574
NOTE_ON_55
DURATION_40
POSITION_1640843
NOTE_ON_73
DURATION_34
POSITION_1640844
NOTE_ON_64
DURATION_38
POSITION_1640846
NOTE_ON_57
DURATION_37
POSITION_1641152
NOTE_ON_66
DURATION_387
POSITION_1641141
NOTE_ON_74
DURATION_400
POSITION_1641143
NOTE_ON_50
DURATION_398
POSITION_1641778
NOTE_ON_81
DURATION_33
POSITION_1641791
NOTE_ON_50
DURATION_30
POSITION_1642080
NOTE_ON_74
DURATION_54
POSITION_1642143
NOTE_ON_73
DURATION_54
POSITION_1642285
NOTE_ON_73
DURATION_6
POSITION_1642202
NOTE_ON_74
DURATION_396
POSITION_1642374
NOTE_ON_66
DURATION_239
POSITION_1642609
NOTE_ON_74
DURATION_44
POSITION_1642094
NOTE_ON_60
DURATION_559
POSITION_1642662
NOTE_ON_76
DURATION_33
POSITION_1642701
NOTE_ON_78
DURATION_35
POSITION_1642611
NOTE_ON_69
DURATION_340
POSITION_1642911
NOTE_ON_62
DURATION_263
POSITION_1642907
NOTE_ON_59
DURATION_463
POSITION_1643170
NOTE_ON_67
DURATION_208
POSITION_1642906
NOTE_ON_79
DURATION_533
POSITION_1643414
NOTE_ON_81
DURATION_39
POSITION_1643425
NOTE_ON_57
DURATION_57
POSITION_1643424
NOTE_ON_66
DURATION_510
POSITION_1643683
NOTE_ON_55
DURATION_253
POSITION_1643685
NOTE_ON_83
DURATION_279
POSITION_1643942
NOTE_ON_57
DURATION_156
POSITION_1643944
NOTE_ON_81
DURATION_154
POSITION_1643939
NOTE_ON_64
DURATION_172
POSITION_1644061
NOTE_ON_79
DURATION_130
POSITION_1644178
NOTE_ON_59
DURATION_140
POSITION_1644182
NOTE_ON_78
DURATION_140
POSITION_1644180
NOTE_ON_63
DURATION_200
POSITION_1644290
NOTE_ON_79
DURATION_132
POSITION_1644422
NOTE_ON_81
DURATION_120
POSITION_1644537
NOTE_ON_79
DURATION_107
POSITION_1644429
NOTE_ON_52
DURATION_223
POSITION_1644423
NOTE_ON_64
DURATION_249
POSITION_1644658
NOTE_ON_78
DURATION_119
POSITION_1644668
NOTE_ON_59
DURATION_116
POSITION_1644761
NOTE_ON_76
DURATION_47
POSITION_1644904
NOTE_ON_79
DURATION_33
POSITION_1644898
NOTE_ON_64
DURATION_40
POSITION_1645013
NOTE_ON_60
DURATION_34
POSITION_1645160
NOTE_ON_64
DURATION_97
POSITION_1645158
NOTE_ON_72
DURATION_111
POSITION_1645284
NOTE_ON_62
DURATION_50
POSITION_1645392
NOTE_ON_60
DURATION_44
POSITION_1645502
NOTE_ON_59
DURATION_32
POSITION_1645264
NOTE_ON_71
DURATION_344
POSITION_1645632
NOTE_ON_72
DURATION_35
POSITION_1645637
NOTE_ON_64
DURATION_36
POSITION_1645685
NOTE_ON_74
DURATION_49
POSITION_1645742
NOTE_ON_76
DURATION_29
POSITION_1645750
NOTE_ON_60
DURATION_29
POSITION_1645917
NOTE_ON_64
DURATION_122
POSITION_1646037
NOTE_ON_62
DURATION_37
POSITION_1646161
NOTE_ON_60
DURATION_27
POSITION_1646283
NOTE_ON_59
DURATION_43
POSITION_1645898
NOTE_ON_67
DURATION_494
POSITION_1646394
NOTE_ON_79
DURATION_27
POSITION_1646397
NOTE_ON_64
DURATION_68
POSITION_1646519
NOTE_ON_60
DURATION_33
POSITION_1646669
NOTE_ON_64
DURATION_95
POSITION_1646645
NOTE_ON_72
DURATION_135
POSITION_1646781
NOTE_ON_62
DURATION_40
POSITION_1646893
NOTE_ON_60
DURATION_69
POSITION_1647005
NOTE_ON_59
DURATION_30
POSITION_1647150
NOTE_ON_64
DURATION_43
POSITION_1647148
NOTE_ON_72
DURATION_46
POSITION_1646773
NOTE_ON_71
DURATION_464
POSITION_1647203
NOTE_ON_74
DURATION_45
POSITION_1647260
NOTE_ON_60
DURATION_43
POSITION_1647254
NOTE_ON_76
DURATION_52
POSITION_1647417
NOTE_ON_64
DURATION_123
POSITION_1647524
NOTE_ON_62
DURATION_110
POSITION_1647649
NOTE_ON_60
DURATION_38
POSITION_1647771
NOTE_ON_59
DURATION_46
POSITION_1647416
NOTE_ON_67
DURATION_484
POSITION_1647908
NOTE_ON_74
DURATION_4
POSITION_1647900
NOTE_ON_62
DURATION_40
POSITION_1647899
NOTE_ON_77
DURATION_105
POSITION_1648009
NOTE_ON_59
DURATION_44
POSITION_1648159
NOTE_ON_69
DURATION_284
POSITION_1648425
NOTE_ON_71
DURATION_30
POSITION_1648164
NOTE_ON_60
DURATION_294
POSITION_1648423
NOTE_ON_77
DURATION_89
POSITION_1648423
NOTE_ON_50
DURATION_199
POSITION_1648677
NOTE_ON_76
DURATION_47
POSITION_1648684
NOTE_ON_48
DURATION_122
POSITION_1648684
NOTE_ON_72
DURATION_135
POSITION_1648958
NOTE_ON_47
DURATION_251
POSITION_1648945
NOTE_ON_84
DURATION_269
POSITION_1649209
NOTE_ON_72
DURATION_44
POSITION_1649208
NOTE_ON_78
DURATION_53
POSITION_1649207
NOTE_ON_57
DURATION_229
POSITION_1649462
NOTE_ON_71
DURATION_29
POSITION_1649453
NOTE_ON_79
DURATION_91
POSITION_1649477
NOTE_ON_55
DURATION_239
POSITION_1649733
NOTE_ON_54
DURATION_218
POSITION_1649830
NOTE_ON_71
DURATION_156
POSITION_1649952
NOTE_ON_72
DURATION_38
POSITION_1649958
NOTE_ON_50
DURATION_53
POSITION_1649714
NOTE_ON_69
DURATION_318
POSITION_1650213
NOTE_ON_71
DURATION_39
POSITION_1650214
NOTE_ON_67
DURATION_38
POSITION_1650215
NOTE_ON_55
DURATION_41
POSITION_1650511
NOTE_ON_50
DURATION_62
POSITION_1650473
NOTE_ON_71
DURATION_171
POSITION_1650625
NOTE_ON_62
DURATION_43
POSITION_1650478
NOTE_ON_66
DURATION_217
POSITION_1650603
NOTE_ON_69
DURATION_132
POSITION_1650734
NOTE_ON_60
DURATION_78
POSITION_1650851
NOTE_ON_59
DURATION_30
POSITION_1650971
NOTE_ON_74
DURATION_42
POSITION_1650979
NOTE_ON_60
DURATION_37
POSITION_1651096
NOTE_ON_57
DURATION_38
POSITION_1651247
NOTE_ON_79
DURATION_32
POSITION_1651295
NOTE_ON_78
DURATION_56
POSITION_1651355
NOTE_ON_79
DURATION_218
POSITION_1651531
NOTE_ON_62
DURATION_194
POSITION_1651767
NOTE_ON_79
DURATION_37
POSITION_1651255
NOTE_ON_59
DURATION_551
POSITION_1651815
NOTE_ON_81
DURATION_54
POSITION_1651872
NOTE_ON_83
DURATION_69
POSITION_1651786
NOTE_ON_67
DURATION_612
POSITION_1652094
NOTE_ON_60
DURATION_432
POSITION_1652093
NOTE_ON_76
DURATION_442
POSITION_1652356
NOTE_ON_68
DURATION_194
POSITION_1652607
NOTE_ON_74
DURATION_215
POSITION_1652617
NOTE_ON_65
DURATION_272
POSITION_1652618
NOTE_ON_69
DURATION_286
POSITION_1652876
NOTE_ON_72
DURATION_374
POSITION_1653137
NOTE_ON_64
DURATION_139
POSITION_1653138
NOTE_ON_71
DURATION_146
POSITION_1652894
NOTE_ON_62
DURATION_414
POSITION_1653261
NOTE_ON_72
DURATION_148
POSITION_1653384
NOTE_ON_74
DURATION_117
POSITION_1653382
NOTE_ON_68
DURATION_122
POSITION_1653395
NOTE_ON_52
DURATION_147
POSITION_1653498
NOTE_ON_71
DURATION_61
POSITION_1653635
NOTE_ON_74
DURATION_145
POSITION_1653637
NOTE_ON_69
DURATION_147
POSITION_1653647
NOTE_ON_45
DURATION_194
POSITION_1653758
NOTE_ON_72
DURATION_132
POSITION_1653888
NOTE_ON_57
DURATION_40
POSITION_1653886
NOTE_ON_71
DURATION_124
POSITION_1654002
NOTE_ON_69
DURATION_35
POSITION_1654126
NOTE_ON_74
DURATION_31
POSITION_1654124
NOTE_ON_56
DURATION_36
POSITION_1654239
NOTE_ON_71
DURATION_35
POSITION_1654373
NOTE_ON_74
DURATION_134
POSITION_1654490
NOTE_ON_72
DURATION_101
POSITION_1654368
NOTE_ON_57
DURATION_257
POSITION_1654610
NOTE_ON_48
DURATION_40
POSITION_1654612
NOTE_ON_71
DURATION_40
POSITION_1654719
NOTE_ON_69
DURATION_32
POSITION_1654851
NOTE_ON_74
DURATION_31
POSITION_1654856
NOTE_ON_47
DURATION_36
POSITION_1654966
NOTE_ON_71
DURATION_32
POSITION_1655105
NOTE_ON_74
DURATION_139
POSITION_1655106
NOTE_ON_45
DURATION_225
POSITION_1655226
NOTE_ON_72
DURATION_115
POSITION_1655351
NOTE_ON_55
DURATION_44
POSITION_1655351
NOTE_ON_71
DURATION_62
POSITION_1655464
NOTE_ON_69
DURATION_30
POSITION_1655588
NOTE_ON_72
DURATION_33
POSITION_1655592
NOTE_ON_54
DURATION_35
POSITION_1655704
NOTE_ON_69
DURATION_31
POSITION_1655838
NOTE_ON_72
DURATION_128
POSITION_1655863
NOTE_ON_55
DURATION_216
POSITION_1655959
NOTE_ON_71
DURATION_139
POSITION_1656093
NOTE_ON_47
DURATION_46
POSITION_1656079
NOTE_ON_69
DURATION_77
POSITION_1656197
NOTE_ON_67
DURATION_37
POSITION_1656318
NOTE_ON_45
DURATION_33
POSITION_1656318
NOTE_ON_72
DURATION_34
POSITION_1656431
NOTE_ON_69
DURATION_29
POSITION_1656569
NOTE_ON_72
DURATION_145
POSITION_1656571
NOTE_ON_43
DURATION_162
POSITION_1656685
NOTE_ON_71
DURATION_89
POSITION_1656795
NOTE_ON_69
DURATION_46
POSITION_1656920
NOTE_ON_59
DURATION_39
POSITION_1657042
NOTE_ON_57
DURATION_30
POSITION_1656920
NOTE_ON_67
DURATION_155
POSITION_1657041
NOTE_ON_69
DURATION_38
POSITION_1657155
NOTE_ON_71
DURATION_39
POSITION_1657155
NOTE_ON_55
DURATION_40
POSITION_1657291
NOTE_ON_60
DURATION_117
POSITION_1657419
NOTE_ON_59
DURATION_29
POSITION_1657546
NOTE_ON_57
DURATION_34
POSITION_1657662
NOTE_ON_55
DURATION_36
POSITION_1657784
NOTE_ON_66
DURATION_32
POSITION_1657794
NOTE_ON_60
DURATION_35
POSITION_1657289
NOTE_ON_64
DURATION_554
POSITION_1657830
NOTE_ON_67
DURATION_54
POSITION_1657899
NOTE_ON_69
DURATION_32
POSITION_1657901
NOTE_ON_57
DURATION_30
POSITION_1658054
NOTE_ON_60
DURATION_163
POSITION_1658177
NOTE_ON_59
DURATION_46
POSITION_1658290
NOTE_ON_57
DURATION_35
POSITION_1658421
NOTE_ON_55
DURATION_33
POSITION_1658048
NOTE_ON_62
DURATION_483
POSITION_1658536
NOTE_ON_74
DURATION_34
POSITION_1658550
NOTE_ON_60
DURATION_33
POSITION_1658653
NOTE_ON_57
DURATION_32
POSITION_1658789
NOTE_ON_64
DURATION_75
POSITION_1658841
NOTE_ON_62
DURATION_40
POSITION_1658791
NOTE_ON_60
DURATION_104
POSITION_1658923
NOTE_ON_59
DURATION_42
POSITION_1659023
NOTE_ON_57
DURATION_37
POSITION_1659159
NOTE_ON_55
DURATION_31
POSITION_1658874
NOTE_ON_64
DURATION_391
POSITION_1659290
NOTE_ON_60
DURATION_32
POSITION_1659282
NOTE_ON_66
DURATION_46
POSITION_1659339
NOTE_ON_67
DURATION_51
POSITION_1659384
NOTE_ON_69
DURATION_48
POSITION_1659406
NOTE_ON_57
DURATION_42
POSITION_1659547
NOTE_ON_60
DURATION_161
POSITION_1659673
NOTE_ON_59
DURATION_41
POSITION_1659791
NOTE_ON_57
DURATION_40
POSITION_1659890
NOTE_ON_55
DURATION_45
POSITION_1659546
NOTE_ON_62
DURATION_465
POSITION_1660018
NOTE_ON_74
DURATION_32
POSITION_1660030
NOTE_ON_57
DURATION_44
POSITION_1660146
NOTE_ON_54
DURATION_41
POSITION_1660284
NOTE_ON_72
DURATION_116
POSITION_1660411
NOTE_ON_72
DURATION_358
POSITION_1660546
NOTE_ON_65
DURATION_257
POSITION_1660399
NOTE_ON_71
DURATION_404
POSITION_1660289
NOTE_ON_55
DURATION_515
POSITION_1660779
NOTE_ON_72
DURATION_48
POSITION_1660826
NOTE_ON_74
DURATION_54
POSITION_1660880
NOTE_ON_76
DURATION_50
POSITION_1660779
NOTE_ON_64
DURATION_335
POSITION_1661329
NOTE_ON_64
DURATION_263
POSITION_1661072
NOTE_ON_77
DURATION_522
POSITION_1661072
NOTE_ON_57
DURATION_525
POSITION_1661581
NOTE_ON_79
DURATION_68
POSITION_1661598
NOTE_ON_59
DURATION_151
POSITION_1661588
NOTE_ON_62
DURATION_283
POSITION_1661859
NOTE_ON_60
DURATION_235
POSITION_1661856
NOTE_ON_76
DURATION_264
POSITION_1662116
NOTE_ON_74
DURATION_31
POSITION_1662111
NOTE_ON_77
DURATION_50
POSITION_1662117
NOTE_ON_53
DURATION_53
POSITION_1662377
NOTE_ON_55
DURATION_40
POSITION_1662368
NOTE_ON_74
DURATION_53
POSITION_1662372
NOTE_ON_71
DURATION_317
POSITION_1662647
NOTE_ON_77
DURATION_154
POSITION_1662767
NOTE_ON_76
DURATION_171
POSITION_1662902
NOTE_ON_74
DURATION_130
POSITION_1663013
NOTE_ON_72
DURATION_56
POSITION_1662651
NOTE_ON_48
DURATION_445
POSITION_1662901
NOTE_ON_59
DURATION_196
POSITION_1663146
NOTE_ON_57
DURATION_36
POSITION_1663146
NOTE_ON_76
DURATION_51
POSITION_1663261
NOTE_ON_72
DURATION_37
POSITION_1663379
NOTE_ON_76
DURATION_169
POSITION_1663501
NOTE_ON_74
DURATION_148
POSITION_1663623
NOTE_ON_72
DURATION_43
POSITION_1663626
NOTE_ON_57
DURATION_45
POSITION_1663737
NOTE_ON_71
DURATION_42
POSITION_1663861
NOTE_ON_55
DURATION_45
POSITION_1663377
NOTE_ON_47
DURATION_529
POSITION_1663860
NOTE_ON_74
DURATION_48
POSITION_1663976
NOTE_ON_71
DURATION_38
POSITION_1664108
NOTE_ON_74
DURATION_192
POSITION_1664225
NOTE_ON_72
DURATION_158
POSITION_1664354
NOTE_ON_55
DURATION_90
POSITION_1664352
NOTE_ON_71
DURATION_149
POSITION_1664462
NOTE_ON_69
DURATION_43
POSITION_1664583
NOTE_ON_72
DURATION_36
POSITION_1664583
NOTE_ON_54
DURATION_52
POSITION_1664701
NOTE_ON_69
DURATION_34
POSITION_1664114
NOTE_ON_45
DURATION_724
POSITION_1664828
NOTE_ON_74
DURATION_41
POSITION_1664835
NOTE_ON_55
DURATION_39
POSITION_1664836
NOTE_ON_47
DURATION_46
POSITION_1665090
NOTE_ON_67
DURATION_39
POSITION_1665106
NOTE_ON_59
DURATION_35
POSITION_1665110
NOTE_ON_48
DURATION_34
POSITION_1665363
NOTE_ON_66
DURATION_44
POSITION_1665374
NOTE_ON_57
DURATION_38
POSITION_1665375
NOTE_ON_50
DURATION_41
POSITION_1665712
NOTE_ON_43
DURATION_442
POSITION_1665712
NOTE_ON_59
DURATION_443
POSITION_1665694
NOTE_ON_67
DURATION_482
POSITION_1666316
NOTE_ON_81
DURATION_32
POSITION_1666319
NOTE_ON_50
DURATION_31
POSITION_1666611
NOTE_ON_74
DURATION_37
POSITION_1666669
NOTE_ON_73
DURATION_47
POSITION_1666904
NOTE_ON_66
DURATION_234
POSITION_1666721
NOTE_ON_74
DURATION_422
POSITION_1667148
NOTE_ON_74
DURATION_226
POSITION_1667202
NOTE_ON_76
DURATION_187
POSITION_1667264
NOTE_ON_78
DURATION_163
POSITION_1667393
NOTE_ON_76
DURATION_53
POSITION_1666634
NOTE_ON_60
DURATION_855
POSITION_1667433
NOTE_ON_78
DURATION_71
POSITION_1667156
NOTE_ON_69
DURATION_364
POSITION_1667469
NOTE_ON_79
DURATION_258
POSITION_1667463
NOTE_ON_59
DURATION_407
POSITION_1667466
NOTE_ON_62
DURATION_408
POSITION_1667727
NOTE_ON_67
DURATION_210
POSITION_1667972
NOTE_ON_66
DURATION_155
POSITION_1667976
NOTE_ON_57
DURATION_160
POSITION_1667952
NOTE_ON_81
DURATION_205
POSITION_1668119
NOTE_ON_79
DURATION_57
POSITION_1668162
NOTE_ON_81
DURATION_55
POSITION_1668207
NOTE_ON_83
DURATION_303
POSITION_1668237
NOTE_ON_55
DURATION_280
POSITION_1668483
NOTE_ON_81
DURATION_162
POSITION_1668481
NOTE_ON_64
DURATION_221
POSITION_1668500
NOTE_ON_57
DURATION_209
POSITION_1668613
NOTE_ON_79
DURATION_129
POSITION_1668729
NOTE_ON_59
DURATION_119
POSITION_1668728
NOTE_ON_78
DURATION_130
POSITION_1668845
NOTE_ON_79
DURATION_132
POSITION_1668725
NOTE_ON_63
DURATION_252
POSITION_1668975
NOTE_ON_81
DURATION_143
POSITION_1669099
NOTE_ON_79
DURATION_129
POSITION_1669236
NOTE_ON_59
DURATION_62
POSITION_1669213
NOTE_ON_78
DURATION_94
POSITION_1668993
NOTE_ON_52
DURATION_375
POSITION_1668989
NOTE_ON_64
DURATION_381
POSITION_1669328
NOTE_ON_76
DURATION_62
POSITION_1669466
NOTE_ON_79
DURATION_32
POSITION_1669467
NOTE_ON_52
DURATION_65
POSITION_1669468
NOTE_ON_64
DURATION_102
POSITION_1669570
NOTE_ON_60
DURATION_35
POSITION_1669728
NOTE_ON_64
DURATION_119
POSITION_1669727
NOTE_ON_72
DURATION_154
POSITION_1669853
NOTE_ON_62
DURATION_37
POSITION_1669977
NOTE_ON_60
DURATION_37
POSITION_1670114
NOTE_ON_59
DURATION_33
POSITION_1669854
NOTE_ON_71
DURATION_377
POSITION_1670224
NOTE_ON_72
DURATION_42
POSITION_1670236
NOTE_ON_64
DURATION_32
POSITION_1670281
NOTE_ON_74
DURATION_65
POSITION_1670326
NOTE_ON_76
DURATION_40
POSITION_1670345
NOTE_ON_60
DURATION_29
POSITION_1670505
NOTE_ON_64
DURATION_98
POSITION_1670634
NOTE_ON_62
DURATION_36
POSITION_1670762
NOTE_ON_60
DURATION_33
POSITION_1670518
NOTE_ON_67
DURATION_368
POSITION_1670878
NOTE_ON_59
DURATION_36
POSITION_1670993
NOTE_ON_79
DURATION_31
POSITION_1671016
NOTE_ON_64
DURATION_31
POSITION_1671120
NOTE_ON_60
DURATION_32
POSITION_1671245
NOTE_ON_72
DURATION_37
POSITION_1671263
NOTE_ON_64
DURATION_25
POSITION_1671302
NOTE_ON_71
DURATION_34
POSITION_1671335
NOTE_ON_72
DURATION_33
POSITION_1671402
NOTE_ON_62
DURATION_46
POSITION_1671495
NOTE_ON_60
DURATION_36
POSITION_1671622
NOTE_ON_59
DURATION_27
POSITION_1671379
NOTE_ON_71
DURATION_369
POSITION_1671753
NOTE_ON_64
DURATION_47
POSITION_1671748
NOTE_ON_72
DURATION_54
POSITION_1671802
NOTE_ON_74
DURATION_30
POSITION_1671846
NOTE_ON_76
DURATION_31
POSITION_1671866
NOTE_ON_60
DURATION_62
POSITION_1672023
NOTE_ON_64
DURATION_169
POSITION_1672156
NOTE_ON_62
DURATION_90
POSITION_1672278
NOTE_ON_60
DURATION_30
POSITION_1672023
NOTE_ON_72
DURATION_304
POSITION_1672399
NOTE_ON_59
DURATION_34
POSITION_1672023
NOTE_ON_67
DURATION_508
POSITION_1672537
NOTE_ON_62
DURATION_61
POSITION_1672650
NOTE_ON_59
DURATION_32
POSITION_1672542
NOTE_ON_74
DURATION_323
POSITION_1672527
NOTE_ON_77
DURATION_376
POSITION_1672806
NOTE_ON_60
DURATION_258
POSITION_1672783
NOTE_ON_69
DURATION_295
POSITION_1673052
NOTE_ON_71
DURATION_31
POSITION_1673055
NOTE_ON_50
DURATION_79
POSITION_1673047
NOTE_ON_77
DURATION_271
POSITION_1673310
NOTE_ON_48
DURATION_93
POSITION_1673307
NOTE_ON_72
DURATION_287
POSITION_1673300
NOTE_ON_76
DURATION_294
POSITION_1673597
NOTE_ON_47
DURATION_239
POSITION_1673563
NOTE_ON_84
DURATION_277
POSITION_1673846
NOTE_ON_72
DURATION_36
POSITION_1673837
NOTE_ON_78
DURATION_68
POSITION_1673852
NOTE_ON_57
DURATION_238
POSITION_1674114
NOTE_ON_71
DURATION_218
POSITION_1674112
NOTE_ON_55
DURATION_226
POSITION_1674353
NOTE_ON_69
DURATION_135
POSITION_1674375
NOTE_ON_54
DURATION_184
POSITION_1674474
NOTE_ON_71
DURATION_103
POSITION_1674105
NOTE_ON_79
DURATION_534
POSITION_1674598
NOTE_ON_72
DURATION_225
POSITION_1674619
NOTE_ON_50
DURATION_258
POSITION_1674851
NOTE_ON_71
DURATION_40
POSITION_1674854
NOTE_ON_67
DURATION_192
POSITION_1674856
NOTE_ON_55
DURATION_283
POSITION_1675125
NOTE_ON_71
DURATION_151
POSITION_1675252
NOTE_ON_69
DURATION_122
POSITION_1675281
NOTE_ON_62
DURATION_94
POSITION_1675132
NOTE_ON_66
DURATION_313
POSITION_1675286
NOTE_ON_71
DURATION_159
POSITION_1675134
NOTE_ON_50
DURATION_334
POSITION_1675387
NOTE_ON_60
DURATION_101
POSITION_1675495
NOTE_ON_59
DURATION_59
POSITION_1675618
NOTE_ON_74
DURATION_53
POSITION_1675624
NOTE_ON_60
DURATION_62
POSITION_1675737
NOTE_ON_57
DURATION_56
POSITION_1675873
NOTE_ON_79
DURATION_43
POSITION_1675925
NOTE_ON_78
DURATION_69
POSITION_1675983
NOTE_ON_79
DURATION_330
POSITION_1676141
NOTE_ON_62
DURATION_260
POSITION_1676388
NOTE_ON_79
DURATION_51
POSITION_1675898
NOTE_ON_59
DURATION_553
POSITION_1676441
NOTE_ON_81
DURATION_110
POSITION_1676487
NOTE_ON_83
DURATION_187
POSITION_1676678
NOTE_ON_83
DURATION_127
POSITION_1676393
NOTE_ON_67
DURATION_488
POSITION_1676934
NOTE_ON_68
DURATION_190
POSITION_1676765
NOTE_ON_76
DURATION_424
POSITION_1677172
NOTE_ON_74
DURATION_184
POSITION_1677196
NOTE_ON_65
DURATION_292
POSITION_1676691
NOTE_ON_60
DURATION_851
POSITION_1677193
NOTE_ON_69
DURATION_418
POSITION_1677437
NOTE_ON_72
DURATION_251
POSITION_1677460
NOTE_ON_62
DURATION_343
POSITION_1677711
NOTE_ON_71
DURATION_120
POSITION_1677821
NOTE_ON_72
DURATION_148
POSITION_1677707
NOTE_ON_64
DURATION_273
POSITION_1677950
NOTE_ON_52
DURATION_41
POSITION_1677947
NOTE_ON_74
DURATION_116
POSITION_1677950
NOTE_ON_68
DURATION_130
POSITION_1678060
NOTE_ON_71
DURATION_159
POSITION_1678207
NOTE_ON_69
DURATION_31
POSITION_1678204
NOTE_ON_74
DURATION_141
POSITION_1678328
NOTE_ON_72
DURATION_140
POSITION_1678470
NOTE_ON_57
DURATION_30
POSITION_1678209
NOTE_ON_45
DURATION_297
POSITION_1678466
NOTE_ON_71
DURATION_126
POSITION_1678575
NOTE_ON_69
DURATION_32
POSITION_1678703
NOTE_ON_56
DURATION_33
POSITION_1678702
NOTE_ON_74
DURATION_40
POSITION_1678817
NOTE_ON_71
DURATION_34
POSITION_1678953
NOTE_ON_74
DURATION_115
POSITION_1679073
NOTE_ON_72
DURATION_135
POSITION_1678946
NOTE_ON_57
DURATION_278
POSITION_1679197
NOTE_ON_48
DURATION_38
POSITION_1679194
NOTE_ON_71
DURATION_91
POSITION_1679309
NOTE_ON_69
DURATION_29
POSITION_1679435
NOTE_ON_74
DURATION_33
POSITION_1679435
NOTE_ON_47
DURATION_34
POSITION_1679551
NOTE_ON_71
DURATION_31
POSITION_1679680
NOTE_ON_74
DURATION_124
POSITION_1679681
NOTE_ON_45
DURATION_211
POSITION_1679794
NOTE_ON_72
DURATION_122
POSITION_1679917
NOTE_ON_71
DURATION_55
POSITION_1679932
NOTE_ON_55
DURATION_41
POSITION_1680033
NOTE_ON_69
DURATION_30
POSITION_1680154
NOTE_ON_72
DURATION_34
POSITION_1680163
NOTE_ON_54
DURATION_30
POSITION_1680265
NOTE_ON_69
DURATION_24
POSITION_1680389
NOTE_ON_72
DURATION_163
POSITION_1680396
NOTE_ON_55
DURATION_208
POSITION_1680522
NOTE_ON_71
DURATION_101
POSITION_1680633
NOTE_ON_69
DURATION_39
POSITION_1680640
NOTE_ON_47
DURATION_41
POSITION_1680748
NOTE_ON_67
DURATION_28
POSITION_1680877
NOTE_ON_72
DURATION_33
POSITION_1680880
NOTE_ON_45
DURATION_37
POSITION_1680998
NOTE_ON_69
DURATION_28
POSITION_1681138
NOTE_ON_43
DURATION_131
POSITION_1681117
NOTE_ON_72
DURATION_165
POSITION_1681236
NOTE_ON_71
DURATION_143
POSITION_1681349
NOTE_ON_69
DURATION_106
POSITION_1681466
NOTE_ON_59
DURATION_121
POSITION_1681468
NOTE_ON_67
DURATION_124
POSITION_1681585
NOTE_ON_69
DURATION_41
POSITION_1681594
NOTE_ON_57
DURATION_41
POSITION_1681700
NOTE_ON_71
DURATION_31
POSITION_1681701
NOTE_ON_55
DURATION_36
POSITION_1681834
NOTE_ON_60
DURATION_113
POSITION_1681962
NOTE_ON_59
DURATION_63
POSITION_1682086
NOTE_ON_57
DURATION_36
POSITION_1682205
NOTE_ON_55
DURATION_37
POSITION_1682329
NOTE_ON_66
DURATION_33
POSITION_1682335
NOTE_ON_60
DURATION_73
POSITION_1682377
NOTE_ON_67
DURATION_54
POSITION_1682447
NOTE_ON_57
DURATION_38
POSITION_1682436
NOTE_ON_69
DURATION_90
POSITION_1681832
NOTE_ON_64
DURATION_733
POSITION_1682606
NOTE_ON_60
DURATION_128
POSITION_1682738
NOTE_ON_59
DURATION_46
POSITION_1682850
NOTE_ON_57
DURATION_33
POSITION_1682981
NOTE_ON_55
DURATION_28
POSITION_1682598
NOTE_ON_62
DURATION_501
POSITION_1683091
NOTE_ON_74
DURATION_30
POSITION_1683095
NOTE_ON_60
DURATION_34
POSITION_1683212
NOTE_ON_57
DURATION_31
POSITION_1683321
NOTE_ON_64
DURATION_88
POSITION_1683369
NOTE_ON_62
DURATION_42
POSITION_1683330
NOTE_ON_60
DURATION_92
POSITION_1683453
NOTE_ON_59
DURATION_53
POSITION_1683570
NOTE_ON_57
DURATION_42
POSITION_1683692
NOTE_ON_55
DURATION_44
POSITION_1683416
NOTE_ON_64
DURATION_411
POSITION_1683835
NOTE_ON_66
DURATION_39
POSITION_1683849
NOTE_ON_60
DURATION_83
POSITION_1683882
NOTE_ON_67
DURATION_58
POSITION_1683947
NOTE_ON_69
DURATION_27
POSITION_1683963
NOTE_ON_57
DURATION_45
POSITION_1684237
NOTE_ON_59
DURATION_51
POSITION_1684343
NOTE_ON_57
DURATION_40
POSITION_1684457
NOTE_ON_55
DURATION_45
POSITION_1684103
NOTE_ON_62
DURATION_475
POSITION_1684589
NOTE_ON_74
DURATION_31
POSITION_1684112
NOTE_ON_60
DURATION_534
POSITION_1684612
NOTE_ON_57
DURATION_57
POSITION_1684708
NOTE_ON_54
DURATION_49
POSITION_1684848
NOTE_ON_72
DURATION_141
POSITION_1684976
NOTE_ON_71
DURATION_411
POSITION_1685338
NOTE_ON_72
DURATION_55
POSITION_1684874
NOTE_ON_55
DURATION_520
POSITION_1685116
NOTE_ON_65
DURATION_278
POSITION_1685396
NOTE_ON_74
DURATION_50
POSITION_1685455
NOTE_ON_76
DURATION_51
POSITION_1685359
NOTE_ON_64
DURATION_508
POSITION_1685875
NOTE_ON_64
DURATION_241
POSITION_1685622
NOTE_ON_77
DURATION_497
POSITION_1685634
NOTE_ON_57
DURATION_488
POSITION_1686123
NOTE_ON_79
DURATION_55
POSITION_1686133
NOTE_ON_59
DURATION_191
POSITION_1686130
NOTE_ON_62
DURATION_295
POSITION_1686385
NOTE_ON_76
DURATION_279
POSITION_1686390
NOTE_ON_60
DURATION_275
POSITION_1686645
NOTE_ON_74
DURATION_41
POSITION_1686645
NOTE_ON_77
DURATION_54
POSITION_1686654
NOTE_ON_53
DURATION_84
POSITION_1686916
NOTE_ON_55
DURATION_38
POSITION_1686902
NOTE_ON_74
DURATION_52
POSITION_1686906
NOTE_ON_71
DURATION_290
POSITION_1687185
NOTE_ON_77
DURATION_163
POSITION_1687311
NOTE_ON_76
DURATION_165
POSITION_1687445
NOTE_ON_74
DURATION_126
POSITION_1687446
NOTE_ON_59
DURATION_135
POSITION_1687554
NOTE_ON_72
DURATION_151
POSITION_1687685
NOTE_ON_57
DURATION_51
POSITION_1687685
NOTE_ON_76
DURATION_54
POSITION_1687801
NOTE_ON_72
DURATION_52
POSITION_1687192
NOTE_ON_48
DURATION_665
POSITION_1688063
NOTE_ON_74
DURATION_151
POSITION_1688187
NOTE_ON_72
DURATION_115
POSITION_1687930
NOTE_ON_76
DURATION_379
POSITION_1688301
NOTE_ON_71
DURATION_50
POSITION_1688192
NOTE_ON_57
DURATION_220
POSITION_1688430
NOTE_ON_74
DURATION_52
POSITION_1688430
NOTE_ON_55
DURATION_67
POSITION_1687939
NOTE_ON_47
DURATION_601
POSITION_1688548
NOTE_ON_71
DURATION_37
POSITION_1688547
NOTE_ON_47
DURATION_62
POSITION_1688676
NOTE_ON_74
DURATION_167
POSITION_1688791
NOTE_ON_72
DURATION_145
POSITION_1688920
NOTE_ON_71
DURATION_76
POSITION_1689037
NOTE_ON_69
DURATION_45
POSITION_1689101
NOTE_ON_71
DURATION_41
POSITION_1688920
NOTE_ON_55
DURATION_222
POSITION_1689147
NOTE_ON_72
DURATION_45
POSITION_1689147
NOTE_ON_54
DURATION_58
POSITION_1689273
NOTE_ON_69
DURATION_31
POSITION_1689402
NOTE_ON_74
DURATION_47
POSITION_1689410
NOTE_ON_55
DURATION_55
POSITION_1689412
NOTE_ON_47
DURATION_55
POSITION_1688681
NOTE_ON_45
DURATION_865
POSITION_1689696
NOTE_ON_67
DURATION_43
POSITION_1689704
NOTE_ON_59
DURATION_39
POSITION_1689708
NOTE_ON_48
DURATION_40
POSITION_1690002
NOTE_ON_67
DURATION_54
POSITION_1690023
NOTE_ON_57
DURATION_41
POSITION_1690026
NOTE_ON_50
DURATION_44
POSITION_1690033
NOTE_ON_66
DURATION_58
POSITION_1690093
NOTE_ON_64
DURATION_54
POSITION_1690135
NOTE_ON_66
DURATION_56
POSITION_1690559
NOTE_ON_67
DURATION_1502
POSITION_1690567
NOTE_ON_59
DURATION_1495
POSITION_1690579
NOTE_ON_43
DURATION_1484
POSITION_1693491
NOTE_ON_74
DURATION_30
POSITION_1693778
NOTE_ON_76
DURATION_379
POSITION_1694119
NOTE_ON_72
DURATION_110
POSITION_1694204
NOTE_ON_69
DURATION_61
POSITION_1694291
NOTE_ON_66
DURATION_60
POSITION_1694394
NOTE_ON_74
DURATION_44
POSITION_1694639
NOTE_ON_67
DURATION_34
POSITION_1695103
NOTE_ON_72
DURATION_33
POSITION_1695135
NOTE_ON_71
DURATION_56
POSITION_1695197
NOTE_ON_72
DURATION_139
POSITION_1695342
NOTE_ON_72
DURATION_67
POSITION_1695472
NOTE_ON_69
DURATION_87
POSITION_1695577
NOTE_ON_66
DURATION_94
POSITION_1695678
NOTE_ON_62
DURATION_53
POSITION_1695782
NOTE_ON_71
DURATION_85
POSITION_1695873
NOTE_ON_69
DURATION_93
POSITION_1695978
NOTE_ON_71
DURATION_84
POSITION_1696068
NOTE_ON_72
DURATION_65
POSITION_1696177
NOTE_ON_71
DURATION_27
POSITION_1696176
NOTE_ON_79
DURATION_33
POSITION_1696277
NOTE_ON_69
DURATION_31
POSITION_1696399
NOTE_ON_67
DURATION_44
POSITION_1696623
NOTE_ON_55
DURATION_41
POSITION_1696398
NOTE_ON_83
DURATION_340
POSITION_1696737
NOTE_ON_79
DURATION_115
POSITION_1696839
NOTE_ON_76
DURATION_93
POSITION_1696946
NOTE_ON_73
DURATION_49
POSITION_1697034
NOTE_ON_81
DURATION_26
POSITION_1696839
NOTE_ON_67
DURATION_344
POSITION_1697149
NOTE_ON_64
DURATION_96
POSITION_1697260
NOTE_ON_74
DURATION_29
POSITION_1697267
NOTE_ON_66
DURATION_94
POSITION_1697363
NOTE_ON_69
DURATION_59
POSITION_1697459
NOTE_ON_67
DURATION_100
POSITION_1697559
NOTE_ON_66
DURATION_76
POSITION_1697668
NOTE_ON_64
DURATION_44
POSITION_1697893
NOTE_ON_61
DURATION_34
POSITION_1697667
NOTE_ON_79
DURATION_339
POSITION_1697994
NOTE_ON_76
DURATION_118
POSITION_1698104
NOTE_ON_57
DURATION_29
POSITION_1698100
NOTE_ON_73
DURATION_63
POSITION_1698193
NOTE_ON_69
DURATION_41
POSITION_1698321
NOTE_ON_62
DURATION_30
POSITION_1698303
NOTE_ON_78
DURATION_85
POSITION_1698401
NOTE_ON_76
DURATION_113
POSITION_1698508
NOTE_ON_69
DURATION_131
POSITION_1698620
NOTE_ON_81
DURATION_55
POSITION_1698512
NOTE_ON_78
DURATION_181
POSITION_1698714
NOTE_ON_71
DURATION_33
POSITION_1698720
NOTE_ON_74
DURATION_65
POSITION_1698825
NOTE_ON_78
DURATION_48
POSITION_1698921
NOTE_ON_64
DURATION_34
POSITION_1698930
NOTE_ON_79
DURATION_90
POSITION_1699023
NOTE_ON_78
DURATION_88
POSITION_1699126
NOTE_ON_79
DURATION_110
POSITION_1699227
NOTE_ON_83
DURATION_113
POSITION_1699127
NOTE_ON_71
DURATION_217
POSITION_1699335
NOTE_ON_72
DURATION_32
POSITION_1699334
NOTE_ON_76
DURATION_86
POSITION_1699428
NOTE_ON_79
DURATION_91
POSITION_1699534
NOTE_ON_66
DURATION_32
POSITION_1699535
NOTE_ON_81
DURATION_104
POSITION_1699628
NOTE_ON_79
DURATION_115
POSITION_1699739
NOTE_ON_81
DURATION_104
POSITION_1699842
NOTE_ON_84
DURATION_97
POSITION_1699735
NOTE_ON_72
DURATION_209
POSITION_1699941
NOTE_ON_74
DURATION_36
POSITION_1699943
NOTE_ON_78
DURATION_97
POSITION_1700037
NOTE_ON_81
DURATION_109
POSITION_1700142
NOTE_ON_67
DURATION_27
POSITION_1700142
NOTE_ON_83
DURATION_109
POSITION_1700248
NOTE_ON_81
DURATION_108
POSITION_1700348
NOTE_ON_76
DURATION_50
POSITION_1700348
NOTE_ON_84
DURATION_107
POSITION_1700448
NOTE_ON_83
DURATION_90
POSITION_1700542
NOTE_ON_72
DURATION_39
POSITION_1700542
NOTE_ON_81
DURATION_171
POSITION_1700648
NOTE_ON_79
DURATION_101
POSITION_1700745
NOTE_ON_74
DURATION_44
POSITION_1700754
NOTE_ON_78
DURATION_99
POSITION_1700850
NOTE_ON_76
DURATION_96
POSITION_1700948
NOTE_ON_69
DURATION_49
POSITION_1700952
NOTE_ON_78
DURATION_93
POSITION_1701043
NOTE_ON_79
DURATION_111
POSITION_1701148
NOTE_ON_62
DURATION_43
POSITION_1701154
NOTE_ON_76
DURATION_108
POSITION_1701268
NOTE_ON_78
DURATION_143
POSITION_1701386
NOTE_ON_64
DURATION_87
POSITION_1701391
NOTE_ON_79
DURATION_231
POSITION_1701699
NOTE_ON_60
DURATION_106
POSITION_1701700
NOTE_ON_64
DURATION_118
POSITION_1701609
NOTE_ON_72
DURATION_225
POSITION_1701798
NOTE_ON_57
DURATION_94
POSITION_1701805
NOTE_ON_84
DURATION_90
POSITION_1701896
NOTE_ON_54
DURATION_68
POSITION_1701998
NOTE_ON_62
DURATION_54
POSITION_1702015
NOTE_ON_78
DURATION_95
POSITION_1702104
NOTE_ON_69
DURATION_47
POSITION_1702214
NOTE_ON_55
DURATION_37
POSITION_1702215
NOTE_ON_71
DURATION_110
POSITION_1702314
NOTE_ON_74
DURATION_117
POSITION_1702408
NOTE_ON_72
DURATION_102
POSITION_1702495
NOTE_ON_71
DURATION_45
POSITION_1702215
NOTE_ON_79
DURATION_348
POSITION_1702849
NOTE_ON_78
DURATION_26
POSITION_1702712
NOTE_ON_71
DURATION_189
POSITION_1702615
NOTE_ON_69
DURATION_294
POSITION_1702619
NOTE_ON_60
DURATION_328
POSITION_1702936
NOTE_ON_57
DURATION_100
POSITION_1703036
NOTE_ON_81
DURATION_49
POSITION_1703036
NOTE_ON_54
DURATION_106
POSITION_1703136
NOTE_ON_50
DURATION_84
POSITION_1703250
NOTE_ON_59
DURATION_105
POSITION_1703250
NOTE_ON_74
DURATION_192
POSITION_1703349
NOTE_ON_57
DURATION_94
POSITION_1703458
NOTE_ON_67
DURATION_44
POSITION_1703458
NOTE_ON_59
DURATION_104
POSITION_1703451
NOTE_ON_76
DURATION_195
POSITION_1703556
NOTE_ON_60
DURATION_102
POSITION_1703657
NOTE_ON_69
DURATION_33
POSITION_1703657
NOTE_ON_78
DURATION_69
POSITION_1703657
NOTE_ON_59
DURATION_71
POSITION_1703747
NOTE_ON_57
DURATION_102
POSITION_1703875
NOTE_ON_71
DURATION_57
POSITION_1703874
NOTE_ON_55
DURATION_104
POSITION_1703973
NOTE_ON_69
DURATION_77
POSITION_1704076
NOTE_ON_71
DURATION_169
POSITION_1704073
NOTE_ON_62
DURATION_197
POSITION_1704172
NOTE_ON_74
DURATION_118
POSITION_1704284
NOTE_ON_64
DURATION_49
POSITION_1704284
NOTE_ON_67
DURATION_58
POSITION_1704369
NOTE_ON_71
DURATION_95
POSITION_1704478
NOTE_ON_72
DURATION_104
POSITION_1704480
NOTE_ON_57
DURATION_166
POSITION_1704575
NOTE_ON_71
DURATION_97
POSITION_1703868
NOTE_ON_79
DURATION_915
POSITION_1704688
NOTE_ON_72
DURATION_131
POSITION_1704688
NOTE_ON_64
DURATION_179
POSITION_1704795
NOTE_ON_76
DURATION_100
POSITION_1704890
NOTE_ON_65
DURATION_29
POSITION_1704889
NOTE_ON_69
DURATION_36
POSITION_1704988
NOTE_ON_72
DURATION_79
POSITION_1705096
NOTE_ON_74
DURATION_98
POSITION_1705187
NOTE_ON_72
DURATION_110
POSITION_1705095
NOTE_ON_59
DURATION_206
POSITION_1705294
NOTE_ON_74
DURATION_101
POSITION_1705305
NOTE_ON_65
DURATION_96
POSITION_1705398
NOTE_ON_77
DURATION_101
POSITION_1705500
NOTE_ON_67
DURATION_32
POSITION_1705499
NOTE_ON_71
DURATION_75
POSITION_1705595
NOTE_ON_74
DURATION_55
POSITION_1705687
NOTE_ON_60
DURATION_110
POSITION_1705687
NOTE_ON_76
DURATION_191
POSITION_1705776
NOTE_ON_59
DURATION_105
POSITION_1705890
NOTE_ON_69
DURATION_34
POSITION_1705887
NOTE_ON_78
DURATION_87
POSITION_1705892
NOTE_ON_60
DURATION_84
POSITION_1705982
NOTE_ON_62
DURATION_99
POSITION_1706077
NOTE_ON_80
DURATION_55
POSITION_1706084
NOTE_ON_60
DURATION_85
POSITION_1706175
NOTE_ON_59
DURATION_85
POSITION_1706294
NOTE_ON_72
DURATION_120
POSITION_1706395
NOTE_ON_71
DURATION_38
POSITION_1706290
NOTE_ON_57
DURATION_221
POSITION_1706502
NOTE_ON_72
DURATION_147
POSITION_1706500
NOTE_ON_64
DURATION_193
POSITION_1706601
NOTE_ON_76
DURATION_118
POSITION_1706713
NOTE_ON_66
DURATION_26
POSITION_1706710
NOTE_ON_69
DURATION_42
POSITION_1706286
NOTE_ON_81
DURATION_624
POSITION_1706806
NOTE_ON_72
DURATION_115
POSITION_1706930
NOTE_ON_74
DURATION_90
POSITION_1707029
NOTE_ON_72
DURATION_96
POSITION_1707134
NOTE_ON_72
DURATION_30
POSITION_1706932
NOTE_ON_59
DURATION_247
POSITION_1707129
NOTE_ON_74
DURATION_123
POSITION_1707132
NOTE_ON_66
DURATION_130
POSITION_1707342
NOTE_ON_67
DURATION_40
POSITION_1707343
NOTE_ON_71
DURATION_105
POSITION_1707245
NOTE_ON_78
DURATION_205
POSITION_1707445
NOTE_ON_74
DURATION_101
POSITION_1707546
NOTE_ON_76
DURATION_108
POSITION_1707644
NOTE_ON_74
DURATION_107
POSITION_1707539
NOTE_ON_61
DURATION_231
POSITION_1707745
NOTE_ON_76
DURATION_114
POSITION_1707746
NOTE_ON_67
DURATION_161
POSITION_1707843
NOTE_ON_79
DURATION_112
POSITION_1707940
NOTE_ON_73
DURATION_35
POSITION_1707938
NOTE_ON_69
DURATION_43
POSITION_1708034
NOTE_ON_76
DURATION_117
POSITION_1708143
NOTE_ON_78
DURATION_47
POSITION_1708150
NOTE_ON_62
DURATION_78
POSITION_1708237
NOTE_ON_61
DURATION_97
POSITION_1708345
NOTE_ON_71
DURATION_29
POSITION_1708344
NOTE_ON_79
DURATION_33
POSITION_1708344
NOTE_ON_62
DURATION_79
POSITION_1708437
NOTE_ON_64
DURATION_130
POSITION_1708549
NOTE_ON_73
DURATION_32
POSITION_1708556
NOTE_ON_62
DURATION_100
POSITION_1708663
NOTE_ON_61
DURATION_41
POSITION_1708544
NOTE_ON_81
DURATION_186
POSITION_1708766
NOTE_ON_74
DURATION_118
POSITION_1708974
NOTE_ON_74
DURATION_135
POSITION_1708766
NOTE_ON_59
DURATION_346
POSITION_1708877
NOTE_ON_73
DURATION_299
POSITION_1709065
NOTE_ON_76
DURATION_121
POSITION_1709072
NOTE_ON_55
DURATION_135
POSITION_1709169
NOTE_ON_52
DURATION_74
POSITION_1709169
NOTE_ON_71
DURATION_77
POSITION_1709272
NOTE_ON_49
DURATION_38
POSITION_1709263
NOTE_ON_74
DURATION_89
POSITION_1708972
NOTE_ON_79
DURATION_380
POSITION_1709367
NOTE_ON_57
DURATION_43
POSITION_1709369
NOTE_ON_73
DURATION_52
POSITION_1709457
NOTE_ON_71
DURATION_45
POSITION_1709571
NOTE_ON_50
DURATION_40
POSITION_1709570
NOTE_ON_73
DURATION_47
POSITION_1709670
NOTE_ON_74
DURATION_108
POSITION_1709767
NOTE_ON_69
DURATION_59
POSITION_1709859
NOTE_ON_72
DURATION_137
POSITION_1709968
NOTE_ON_71
DURATION_106
POSITION_1709570
NOTE_ON_78
DURATION_558
POSITION_1710065
NOTE_ON_69
DURATION_75
POSITION_1710178
NOTE_ON_71
DURATION_81
POSITION_1709967
NOTE_ON_55
DURATION_342
POSITION_1710277
NOTE_ON_52
DURATION_81
POSITION_1710277
NOTE_ON_73
DURATION_115
POSITION_1710370
NOTE_ON_49
DURATION_47
POSITION_1710371
NOTE_ON_67
DURATION_52
POSITION_1710177
NOTE_ON_76
DURATION_317
POSITION_1710463
NOTE_ON_71
DURATION_45
POSITION_1710470
NOTE_ON_45
DURATION_49
POSITION_1710576
NOTE_ON_54
DURATION_102
POSITION_1710678
NOTE_ON_52
DURATION_92
POSITION_1710571
NOTE_ON_69
DURATION_233
POSITION_1710783
NOTE_ON_74
DURATION_30
POSITION_1710787
NOTE_ON_54
DURATION_83
POSITION_1710889
NOTE_ON_57
DURATION_68
POSITION_1711008
NOTE_ON_50
DURATION_62
POSITION_1711108
NOTE_ON_54
DURATION_51
POSITION_1711207
NOTE_ON_56
DURATION_55
POSITION_1711317
NOTE_ON_54
DURATION_66
POSITION_1711407
NOTE_ON_56
DURATION_62
POSITION_1710993
NOTE_ON_78
DURATION_479
POSITION_1711407
NOTE_ON_76
DURATION_86
POSITION_1711507
NOTE_ON_59
DURATION_62
POSITION_1711623
NOTE_ON_52
DURATION_53
POSITION_1711713
NOTE_ON_56
DURATION_42
POSITION_1711813
NOTE_ON_58
DURATION_69
POSITION_1711897
NOTE_ON_56
DURATION_91
POSITION_1711621
NOTE_ON_74
DURATION_387
POSITION_1712011
NOTE_ON_73
DURATION_30
POSITION_1712011
NOTE_ON_58
DURATION_79
POSITION_1712107
NOTE_ON_61
DURATION_116
POSITION_1712215
NOTE_ON_54
DURATION_82
POSITION_1712307
NOTE_ON_58
DURATION_30
POSITION_1712413
NOTE_ON_59
DURATION_92
POSITION_1712511
NOTE_ON_58
DURATION_101
POSITION_1712214
NOTE_ON_76
DURATION_414
POSITION_1712612
NOTE_ON_74
DURATION_45
POSITION_1712618
NOTE_ON_59
DURATION_79
POSITION_1712706
NOTE_ON_62
DURATION_91
POSITION_1712818
NOTE_ON_54
DURATION_87
POSITION_1712913
NOTE_ON_57
DURATION_38
POSITION_1713026
NOTE_ON_56
DURATION_91
POSITION_1713120
NOTE_ON_54
DURATION_122
POSITION_1712813
NOTE_ON_72
DURATION_443
POSITION_1713238
NOTE_ON_71
DURATION_32
POSITION_1713241
NOTE_ON_56
DURATION_30
POSITION_1713332
NOTE_ON_59
DURATION_99
POSITION_1713535
NOTE_ON_56
DURATION_38
POSITION_1713455
NOTE_ON_52
DURATION_145
POSITION_1713650
NOTE_ON_57
DURATION_84
POSITION_1713746
NOTE_ON_56
DURATION_101
POSITION_1713439
NOTE_ON_74
DURATION_434
POSITION_1713856
NOTE_ON_72
DURATION_34
POSITION_1713857
NOTE_ON_57
DURATION_85
POSITION_1713951
NOTE_ON_60
DURATION_89
POSITION_1714066
NOTE_ON_52
DURATION_81
POSITION_1714151
NOTE_ON_55
DURATION_38
POSITION_1714266
NOTE_ON_54
DURATION_104
POSITION_1714368
NOTE_ON_52
DURATION_88
POSITION_1714062
NOTE_ON_71
DURATION_421
POSITION_1714462
NOTE_ON_69
DURATION_34
POSITION_1714486
NOTE_ON_54
DURATION_56
POSITION_1714564
NOTE_ON_57
DURATION_92
POSITION_1714669
NOTE_ON_50
DURATION_54
POSITION_1714774
NOTE_ON_54
DURATION_43
POSITION_1714877
NOTE_ON_55
DURATION_71
POSITION_1714970
NOTE_ON_54
DURATION_91
POSITION_1714664
NOTE_ON_72
DURATION_425
POSITION_1715070
NOTE_ON_71
DURATION_33
POSITION_1715072
NOTE_ON_55
DURATION_76
POSITION_1715169
NOTE_ON_57
DURATION_89
POSITION_1715279
NOTE_ON_59
DURATION_75
POSITION_1715377
NOTE_ON_55
DURATION_77
POSITION_1715475
NOTE_ON_57
DURATION_79
POSITION_1715276
NOTE_ON_74
DURATION_283
POSITION_1715288
NOTE_ON_66
DURATION_354
POSITION_1715571
NOTE_ON_55
DURATION_109
POSITION_1715684
NOTE_ON_64
DURATION_26
POSITION_1715684
NOTE_ON_73
DURATION_26
POSITION_1715682
NOTE_ON_57
DURATION_76
POSITION_1715787
NOTE_ON_59
DURATION_112
POSITION_1715886
NOTE_ON_69
DURATION_32
POSITION_1715901
NOTE_ON_61
DURATION_60
POSITION_1715993
NOTE_ON_57
DURATION_61
POSITION_1715883
NOTE_ON_81
DURATION_236
POSITION_1716102
NOTE_ON_71
DURATION_70
POSITION_1716198
NOTE_ON_59
DURATION_79
POSITION_1716105
NOTE_ON_62
DURATION_174
POSITION_1716300
NOTE_ON_79
DURATION_38
POSITION_1716303
NOTE_ON_64
DURATION_97
POSITION_1716404
NOTE_ON_67
DURATION_63
POSITION_1716498
NOTE_ON_64
DURATION_75
POSITION_1716500
NOTE_ON_55
DURATION_136
POSITION_1716594
NOTE_ON_61
DURATION_102
POSITION_1716693
NOTE_ON_69
DURATION_31
POSITION_1716693
NOTE_ON_73
DURATION_32
POSITION_1716803
NOTE_ON_52
DURATION_81
POSITION_1716897
NOTE_ON_69
DURATION_33
POSITION_1716897
NOTE_ON_54
DURATION_61
POSITION_1716981
NOTE_ON_57
DURATION_100
POSITION_1717098
NOTE_ON_55
DURATION_99
POSITION_1716896
NOTE_ON_62
DURATION_305
POSITION_1717199
NOTE_ON_54
DURATION_47
POSITION_1717094
NOTE_ON_74
DURATION_219
POSITION_1717314
NOTE_ON_52
DURATION_87
POSITION_1717426
NOTE_ON_45
DURATION_48
POSITION_1717307
NOTE_ON_67
DURATION_203
POSITION_1717524
NOTE_ON_57
DURATION_74
POSITION_1717602
NOTE_ON_64
DURATION_133
POSITION_1717604
NOTE_ON_55
DURATION_135
POSITION_1717698
NOTE_ON_61
DURATION_51
POSITION_1717515
NOTE_ON_73
DURATION_255
POSITION_1717696
NOTE_ON_54
DURATION_90
POSITION_1717784
NOTE_ON_57
DURATION_44
POSITION_1717788
NOTE_ON_52
DURATION_89
POSITION_1717901
NOTE_ON_66
DURATION_103
POSITION_1717891
NOTE_ON_50
DURATION_135
POSITION_1718003
NOTE_ON_64
DURATION_88
POSITION_1718104
NOTE_ON_57
DURATION_42
POSITION_1718101
NOTE_ON_66
DURATION_46
POSITION_1717888
NOTE_ON_74
DURATION_392
POSITION_1718193
NOTE_ON_69
DURATION_87
POSITION_1718308
NOTE_ON_59
DURATION_35
POSITION_1718304
NOTE_ON_62
DURATION_45
POSITION_1718395
NOTE_ON_66
DURATION_33
POSITION_1718509
NOTE_ON_67
DURATION_106
POSITION_1718604
NOTE_ON_72
DURATION_123
POSITION_1718506
NOTE_ON_52
DURATION_239
POSITION_1718718
NOTE_ON_47
DURATION_42
POSITION_1718713
NOTE_ON_74
DURATION_104
POSITION_1718904
NOTE_ON_43
DURATION_31
POSITION_1718804
NOTE_ON_76
DURATION_136
POSITION_1718909
NOTE_ON_71
DURATION_46
POSITION_1719003
NOTE_ON_74
DURATION_36
POSITION_1719119
NOTE_ON_72
DURATION_162
POSITION_1719126
NOTE_ON_40
DURATION_164
POSITION_1719228
NOTE_ON_66
DURATION_74
POSITION_1719324
NOTE_ON_67
DURATION_47
POSITION_1719343
NOTE_ON_59
DURATION_55
POSITION_1719420
NOTE_ON_71
DURATION_82
POSITION_1719522
NOTE_ON_60
DURATION_32
POSITION_1719524
NOTE_ON_64
DURATION_34
POSITION_1719617
NOTE_ON_67
DURATION_45
POSITION_1719732
NOTE_ON_69
DURATION_127
POSITION_1719733
NOTE_ON_54
DURATION_206
POSITION_1719940
NOTE_ON_50
DURATION_39
POSITION_1719830
NOTE_ON_71
DURATION_167
POSITION_1719939
NOTE_ON_72
DURATION_127
POSITION_1720030
NOTE_ON_74
DURATION_120
POSITION_1720126
NOTE_ON_52
DURATION_94
POSITION_1720125
NOTE_ON_69
DURATION_110
POSITION_1720216
NOTE_ON_72
DURATION_134
POSITION_1720330
NOTE_ON_71
DURATION_89
POSITION_1720431
NOTE_ON_69
DURATION_46
POSITION_1720331
NOTE_ON_53
DURATION_213
POSITION_1720530
NOTE_ON_71
DURATION_93
POSITION_1720531
NOTE_ON_52
DURATION_103
POSITION_1720623
NOTE_ON_72
DURATION_108
POSITION_1720728
NOTE_ON_50
DURATION_42
POSITION_1720723
NOTE_ON_74
DURATION_77
POSITION_1720333
NOTE_ON_67
DURATION_470
POSITION_1720814
NOTE_ON_71
DURATION_43
POSITION_1720945
NOTE_ON_48
DURATION_100
POSITION_1721047
NOTE_ON_55
DURATION_77
POSITION_1721145
NOTE_ON_60
DURATION_93
POSITION_1720940
NOTE_ON_76
DURATION_329
POSITION_1721252
NOTE_ON_57
DURATION_82
POSITION_1721253
NOTE_ON_72
DURATION_103
POSITION_1721347
NOTE_ON_69
DURATION_58
POSITION_1721349
NOTE_ON_54
DURATION_74
POSITION_1721431
NOTE_ON_66
DURATION_60
POSITION_1721444
NOTE_ON_57
DURATION_53
POSITION_1721531
NOTE_ON_74
DURATION_44
POSITION_1721627
NOTE_ON_57
DURATION_104
POSITION_1721741
NOTE_ON_67
DURATION_33
POSITION_1721744
NOTE_ON_59
DURATION_98
POSITION_1721535
NOTE_ON_47
DURATION_334
POSITION_1721846
NOTE_ON_55
DURATION_98
POSITION_1721946
NOTE_ON_52
DURATION_75
POSITION_1722036
NOTE_ON_55
DURATION_86
POSITION_1722143
NOTE_ON_72
DURATION_39
POSITION_1722166
NOTE_ON_71
DURATION_60
POSITION_1722241
NOTE_ON_55
DURATION_95
POSITION_1722359
NOTE_ON_57
DURATION_105
POSITION_1722159
NOTE_ON_45
DURATION_306
POSITION_1722235
NOTE_ON_72
DURATION_242
POSITION_1722466
NOTE_ON_54
DURATION_92
POSITION_1722475
NOTE_ON_69
DURATION_83
POSITION_1722560
NOTE_ON_66
DURATION_90
POSITION_1722657
NOTE_ON_62
DURATION_41
POSITION_1722561
NOTE_ON_50
DURATION_155
POSITION_1722664
NOTE_ON_54
DURATION_78
POSITION_1722759
NOTE_ON_71
DURATION_37
POSITION_1722858
NOTE_ON_54
DURATION_86
POSITION_1722969
NOTE_ON_67
DURATION_8
POSITION_1722972
NOTE_ON_64
DURATION_33
POSITION_1722971
NOTE_ON_55
DURATION_175
POSITION_1723065
NOTE_ON_52
DURATION_84
POSITION_1723158
NOTE_ON_49
DURATION_98
POSITION_1722764
NOTE_ON_43
DURATION_520
POSITION_1723280
NOTE_ON_52
DURATION_59
POSITION_1723377
NOTE_ON_64
DURATION_7
POSITION_1723469
NOTE_ON_52
DURATION_86
POSITION_1723377
NOTE_ON_42
DURATION_294
POSITION_1723572
NOTE_ON_54
DURATION_102
POSITION_1723373
NOTE_ON_69
DURATION_307
POSITION_1723676
NOTE_ON_50
DURATION_82
POSITION_1723673
NOTE_ON_66
DURATION_100
POSITION_1723765
NOTE_ON_62
DURATION_51
POSITION_1723769
NOTE_ON_47
DURATION_58
POSITION_1723854
NOTE_ON_59
DURATION_43
POSITION_1723857
NOTE_ON_50
DURATION_61
POSITION_1723956
NOTE_ON_67
DURATION_30
POSITION_1724065
NOTE_ON_50
DURATION_60
POSITION_1723964
NOTE_ON_40
DURATION_196
POSITION_1724164
NOTE_ON_61
DURATION_35
POSITION_1724167
NOTE_ON_52
DURATION_93
POSITION_1724271
NOTE_ON_49
DURATION_76
POSITION_1724165
NOTE_ON_40
DURATION_202
POSITION_1724355
NOTE_ON_45
DURATION_85
POSITION_1724463
NOTE_ON_49
DURATION_42
POSITION_1724664
NOTE_ON_64
DURATION_87
POSITION_1724770
NOTE_ON_66
DURATION_82
POSITION_1724862
NOTE_ON_69
DURATION_76
POSITION_1724774
NOTE_ON_45
DURATION_207
POSITION_1724964
NOTE_ON_47
DURATION_44
POSITION_1724967
NOTE_ON_62
DURATION_84
POSITION_1725064
NOTE_ON_66
DURATION_98
POSITION_1724568
NOTE_ON_38
DURATION_651
POSITION_1725178
NOTE_ON_67
DURATION_68
POSITION_1725267
NOTE_ON_66
DURATION_93
POSITION_1725369
NOTE_ON_47
DURATION_63
POSITION_1725384
NOTE_ON_67
DURATION_68
POSITION_1725474
NOTE_ON_71
DURATION_116
POSITION_1725576
NOTE_ON_64
DURATION_84
POSITION_1725674
NOTE_ON_67
DURATION_67
POSITION_1725780
NOTE_ON_69
DURATION_78
POSITION_1725569
NOTE_ON_48
DURATION_411
POSITION_1725873
NOTE_ON_67
DURATION_111
POSITION_1725984
NOTE_ON_48
DURATION_48
POSITION_1725985
NOTE_ON_69
DURATION_106
POSITION_1725177
NOTE_ON_40
DURATION_918
POSITION_1726084
NOTE_ON_72
DURATION_103
POSITION_1726189
NOTE_ON_50
DURATION_48
POSITION_1726183
NOTE_ON_66
DURATION_96
POSITION_1725780
NOTE_ON_42
DURATION_515
POSITION_1726282
NOTE_ON_69
DURATION_56
POSITION_1726382
NOTE_ON_71
DURATION_86
POSITION_1726408
NOTE_ON_43
DURATION_183
POSITION_1726482
NOTE_ON_69
DURATION_120
POSITION_1726590
NOTE_ON_71
DURATION_93
POSITION_1726599
NOTE_ON_50
DURATION_147
POSITION_1726679
NOTE_ON_73
DURATION_127
POSITION_1726787
NOTE_ON_52
DURATION_95
POSITION_1726782
NOTE_ON_74
DURATION_108
POSITION_1726875
NOTE_ON_71
DURATION_134
POSITION_1726998
NOTE_ON_45
DURATION_76
POSITION_1727096
NOTE_ON_54
DURATION_102
POSITION_1726976
NOTE_ON_73
DURATION_248
POSITION_1727198
NOTE_ON_55
DURATION_75
POSITION_1727281
NOTE_ON_57
DURATION_123
POSITION_1727188
NOTE_ON_69
DURATION_217
POSITION_1727405
NOTE_ON_52
DURATION_92
POSITION_1727490
NOTE_ON_55
DURATION_66
POSITION_1727597
NOTE_ON_73
DURATION_11
POSITION_1727595
NOTE_ON_54
DURATION_94
POSITION_1727689
NOTE_ON_52
DURATION_97
POSITION_1727394
NOTE_ON_76
DURATION_394
POSITION_1727792
NOTE_ON_74
DURATION_49
POSITION_1727790
NOTE_ON_54
DURATION_73
POSITION_1727880
NOTE_ON_57
DURATION_90
POSITION_1727991
NOTE_ON_50
DURATION_120
POSITION_1728089
NOTE_ON_54
DURATION_114
POSITION_1728193
NOTE_ON_52
DURATION_96
POSITION_1728003
NOTE_ON_74
DURATION_399
POSITION_1728002
NOTE_ON_78
DURATION_423
POSITION_1728295
NOTE_ON_50
DURATION_137
POSITION_1728408
NOTE_ON_73
DURATION_27
POSITION_1728402
NOTE_ON_76
DURATION_33
POSITION_1728407
NOTE_ON_52
DURATION_73
POSITION_1728499
NOTE_ON_55
DURATION_81
POSITION_1728610
NOTE_ON_49
DURATION_84
POSITION_1728702
NOTE_ON_52
DURATION_92
POSITION_1728802
NOTE_ON_50
DURATION_99
POSITION_1728894
NOTE_ON_49
DURATION_92
POSITION_1728594
NOTE_ON_76
DURATION_404
POSITION_1728594
NOTE_ON_79
DURATION_410
POSITION_1728990
NOTE_ON_74
DURATION_37
POSITION_1728991
NOTE_ON_78
DURATION_48
POSITION_1729010
NOTE_ON_50
DURATION_72
POSITION_1729102
NOTE_ON_54
DURATION_108
POSITION_1729187
NOTE_ON_81
DURATION_40
POSITION_1729208
NOTE_ON_78
DURATION_24
POSITION_1729208
NOTE_ON_47
DURATION_98
POSITION_1729296
NOTE_ON_50
DURATION_50
POSITION_1729501
NOTE_ON_74
DURATION_114
POSITION_1729409
NOTE_ON_43
DURATION_272
POSITION_1729407
NOTE_ON_83
DURATION_274
POSITION_1729617
NOTE_ON_76
DURATION_122
POSITION_1729632
NOTE_ON_55
DURATION_108
POSITION_1729712
NOTE_ON_79
DURATION_121
POSITION_1729819
NOTE_ON_76
DURATION_107
POSITION_1729917
NOTE_ON_73
DURATION_118
POSITION_1730016
NOTE_ON_81
DURATION_39
POSITION_1729820
NOTE_ON_67
DURATION_292
POSITION_1730105
NOTE_ON_64
DURATION_87
POSITION_1730214
NOTE_ON_54
DURATION_5
POSITION_1730203
NOTE_ON_74
DURATION_46
POSITION_1730215
NOTE_ON_66
DURATION_38
POSITION_1730305
NOTE_ON_69
DURATION_45
POSITION_1730423
NOTE_ON_62
DURATION_91
POSITION_1730432
NOTE_ON_54
DURATION_217
POSITION_1730509
NOTE_ON_66
DURATION_225
POSITION_1730719
NOTE_ON_50
DURATION_116
POSITION_1730628
NOTE_ON_71
DURATION_213
POSITION_1730829
NOTE_ON_52
DURATION_100
POSITION_1730830
NOTE_ON_73
DURATION_103
POSITION_1730929
NOTE_ON_55
DURATION_87
POSITION_1730928
NOTE_ON_76
DURATION_120
POSITION_1730623
NOTE_ON_79
DURATION_425
POSITION_1731029
NOTE_ON_45
DURATION_87
POSITION_1731027
NOTE_ON_73
DURATION_106
POSITION_1731113
NOTE_ON_69
DURATION_47
POSITION_1731113
NOTE_ON_52
DURATION_47
POSITION_1731220
NOTE_ON_74
DURATION_63
POSITION_1731215
NOTE_ON_50
DURATION_99
POSITION_1731319
NOTE_ON_52
DURATION_85
POSITION_1731218
NOTE_ON_78
DURATION_225
POSITION_1731426
NOTE_ON_74
DURATION_26
POSITION_1731428
NOTE_ON_69
DURATION_33
POSITION_1731422
NOTE_ON_54
DURATION_84
POSITION_1731509
NOTE_ON_57
DURATION_80
POSITION_1731619
NOTE_ON_50
DURATION_102
POSITION_1731714
NOTE_ON_54
DURATION_76
POSITION_1731618
NOTE_ON_72
DURATION_191
POSITION_1731621
NOTE_ON_69
DURATION_203
POSITION_1731818
NOTE_ON_55
DURATION_79
POSITION_1731819
NOTE_ON_71
DURATION_93
POSITION_1731912
NOTE_ON_52
DURATION_95
POSITION_1731909
NOTE_ON_67
DURATION_99
POSITION_1732011
NOTE_ON_76
DURATION_41
POSITION_1732014
NOTE_ON_49
DURATION_74
POSITION_1732110
NOTE_ON_52
DURATION_72
POSITION_1732242
NOTE_ON_45
DURATION_97
POSITION_1732342
NOTE_ON_49
DURATION_31
POSITION_1732236
NOTE_ON_64
DURATION_272
POSITION_1732475
NOTE_ON_38
DURATION_136
POSITION_1732236
NOTE_ON_67
DURATION_530
POSITION_1732788
NOTE_ON_50
DURATION_219
POSITION_1732782
NOTE_ON_62
DURATION_233
POSITION_1732781
NOTE_ON_66
DURATION_241
POSITION_1733077
NOTE_ON_74
DURATION_41
POSITION_1733376
NOTE_ON_76
DURATION_405
POSITION_1733762
NOTE_ON_72
DURATION_112
POSITION_1733854
NOTE_ON_69
DURATION_50
POSITION_1733941
NOTE_ON_66
DURATION_62
POSITION_1734036
NOTE_ON_74
DURATION_34
POSITION_1734279
NOTE_ON_67
DURATION_24
POSITION_1734719
NOTE_ON_72
DURATION_77
POSITION_1734753
NOTE_ON_71
DURATION_46
POSITION_1734801
NOTE_ON_72
DURATION_284
POSITION_1735082
NOTE_ON_69
DURATION_94
POSITION_1735184
NOTE_ON_66
DURATION_75
POSITION_1735270
NOTE_ON_62
DURATION_45
POSITION_1735376
NOTE_ON_71
DURATION_80
POSITION_1735460
NOTE_ON_69
DURATION_34
POSITION_1735560
NOTE_ON_71
DURATION_103
POSITION_1735661
NOTE_ON_72
DURATION_62
POSITION_1735758
NOTE_ON_79
DURATION_33
POSITION_1735782
NOTE_ON_71
DURATION_43
POSITION_1735866
NOTE_ON_69
DURATION_27
POSITION_1735976
NOTE_ON_67
DURATION_33
POSITION_1736195
NOTE_ON_55
DURATION_33
POSITION_1736311
NOTE_ON_79
DURATION_125
POSITION_1735976
NOTE_ON_83
DURATION_472
POSITION_1736421
NOTE_ON_76
DURATION_99
POSITION_1736521
NOTE_ON_73
DURATION_80
POSITION_1736625
NOTE_ON_81
DURATION_25
POSITION_1736414
NOTE_ON_67
DURATION_341
POSITION_1736713
NOTE_ON_64
DURATION_60
POSITION_1736829
NOTE_ON_74
DURATION_30
POSITION_1736829
NOTE_ON_66
DURATION_37
POSITION_1736913
NOTE_ON_69
DURATION_57
POSITION_1737025
NOTE_ON_67
DURATION_65
POSITION_1737121
NOTE_ON_66
DURATION_69
POSITION_1737225
NOTE_ON_64
DURATION_30
POSITION_1737441
NOTE_ON_61
DURATION_33
POSITION_1737223
NOTE_ON_79
DURATION_306
POSITION_1737522
NOTE_ON_76
DURATION_117
POSITION_1737633
NOTE_ON_57
DURATION_33
POSITION_1737633
NOTE_ON_73
DURATION_67
POSITION_1737722
NOTE_ON_69
DURATION_106
POSITION_1737835
NOTE_ON_62
DURATION_36
POSITION_1737833
NOTE_ON_78
DURATION_77
POSITION_1737924
NOTE_ON_76
DURATION_92
POSITION_1738030
NOTE_ON_69
DURATION_49
POSITION_1738026
NOTE_ON_78
DURATION_92
POSITION_1738122
NOTE_ON_81
DURATION_130
POSITION_1738227
NOTE_ON_71
DURATION_38
POSITION_1738233
NOTE_ON_69
DURATION_45
POSITION_1738226
NOTE_ON_74
DURATION_74
POSITION_1738312
NOTE_ON_78
DURATION_59
POSITION_1738427
NOTE_ON_79
DURATION_77
POSITION_1738517
NOTE_ON_78
DURATION_102
POSITION_1738426
NOTE_ON_64
DURATION_210
POSITION_1738627
NOTE_ON_71
DURATION_32
POSITION_1738624
NOTE_ON_79
DURATION_101
POSITION_1738731
NOTE_ON_83
DURATION_87
POSITION_1738830
NOTE_ON_72
DURATION_32
POSITION_1738826
NOTE_ON_76
DURATION_68
POSITION_1738917
NOTE_ON_79
DURATION_84
POSITION_1739019
NOTE_ON_81
DURATION_98
POSITION_1739019
NOTE_ON_66
DURATION_192
POSITION_1739115
NOTE_ON_79
DURATION_100
POSITION_1739223
NOTE_ON_72
DURATION_56
POSITION_1739218
NOTE_ON_81
DURATION_102
POSITION_1739326
NOTE_ON_81
DURATION_48
POSITION_1739321
NOTE_ON_84
DURATION_107
POSITION_1739423
NOTE_ON_74
DURATION_33
POSITION_1739423
NOTE_ON_78
DURATION_86
POSITION_1739515
NOTE_ON_81
DURATION_91
POSITION_1739609
NOTE_ON_67
DURATION_37
POSITION_1739610
NOTE_ON_83
DURATION_101
POSITION_1739708
NOTE_ON_81
DURATION_100
POSITION_1739808
NOTE_ON_76
DURATION_32
POSITION_1739808
NOTE_ON_84
DURATION_85
POSITION_1739900
NOTE_ON_83
DURATION_109
POSITION_1739999
NOTE_ON_72
DURATION_43
POSITION_1739997
NOTE_ON_81
DURATION_160
POSITION_1739994
NOTE_ON_76
DURATION_178
POSITION_1740103
NOTE_ON_79
DURATION_111
POSITION_1740206
NOTE_ON_74
DURATION_48
POSITION_1740213
NOTE_ON_78
DURATION_86
POSITION_1740313
NOTE_ON_76
DURATION_105
POSITION_1740405
NOTE_ON_69
DURATION_29
POSITION_1740429
NOTE_ON_76
DURATION_58
POSITION_1740431
NOTE_ON_78
DURATION_75
POSITION_1740505
NOTE_ON_79
DURATION_110
POSITION_1740606
NOTE_ON_62
DURATION_30
POSITION_1740607
NOTE_ON_76
DURATION_98
POSITION_1740697
NOTE_ON_78
DURATION_80
POSITION_1741038
NOTE_ON_72
DURATION_94
POSITION_1740822
NOTE_ON_64
DURATION_314
POSITION_1741129
NOTE_ON_60
DURATION_95
POSITION_1740827
NOTE_ON_79
DURATION_411
POSITION_1741225
NOTE_ON_84
DURATION_61
POSITION_1741226
NOTE_ON_57
DURATION_96
POSITION_1741315
NOTE_ON_54
DURATION_59
POSITION_1741420
NOTE_ON_62
DURATION_54
POSITION_1741428
NOTE_ON_78
DURATION_52
POSITION_1741525
NOTE_ON_69
DURATION_50
POSITION_1741628
NOTE_ON_55
DURATION_36
POSITION_1741629
NOTE_ON_71
DURATION_40
POSITION_1741735
NOTE_ON_74
DURATION_122
POSITION_1741828
NOTE_ON_72
DURATION_44
POSITION_1741915
NOTE_ON_71
DURATION_45
POSITION_1741626
NOTE_ON_79
DURATION_436
POSITION_1742115
NOTE_ON_72
DURATION_54
POSITION_1742238
NOTE_ON_78
DURATION_41
POSITION_1742026
NOTE_ON_69
DURATION_281
POSITION_1742028
NOTE_ON_60
DURATION_290
POSITION_1742180
NOTE_ON_72
DURATION_158
POSITION_1742320
NOTE_ON_57
DURATION_106
POSITION_1742429
NOTE_ON_81
DURATION_48
POSITION_1742428
NOTE_ON_54
DURATION_69
POSITION_1742514
NOTE_ON_50
DURATION_57
POSITION_1742640
NOTE_ON_59
DURATION_75
POSITION_1742628
NOTE_ON_74
DURATION_113
POSITION_1742726
NOTE_ON_57
DURATION_76
POSITION_1742832
NOTE_ON_76
DURATION_31
POSITION_1742834
NOTE_ON_67
DURATION_36
POSITION_1742834
NOTE_ON_59
DURATION_63
POSITION_1742927
NOTE_ON_60
DURATION_91
POSITION_1743027
NOTE_ON_69
DURATION_36
POSITION_1743027
NOTE_ON_78
DURATION_53
POSITION_1743033
NOTE_ON_59
DURATION_62
POSITION_1743128
NOTE_ON_57
DURATION_38
POSITION_1743328
NOTE_ON_69
DURATION_8
POSITION_1743232
NOTE_ON_71
DURATION_135
POSITION_1743242
NOTE_ON_55
DURATION_167
POSITION_1743433
NOTE_ON_71
DURATION_39
POSITION_1743435
NOTE_ON_62
DURATION_38
POSITION_1743229
NOTE_ON_79
DURATION_287
POSITION_1743521
NOTE_ON_74
DURATION_74
POSITION_1743626
NOTE_ON_64
DURATION_37
POSITION_1743625
NOTE_ON_67
DURATION_68
POSITION_1743730
NOTE_ON_71
DURATION_53
POSITION_1743833
NOTE_ON_72
DURATION_66
POSITION_1743833
NOTE_ON_57
DURATION_176
POSITION_1743928
NOTE_ON_71
DURATION_82
POSITION_1744025
NOTE_ON_64
DURATION_56
POSITION_1744025
NOTE_ON_72
DURATION_96
POSITION_1744125
NOTE_ON_76
DURATION_68
POSITION_1744215
NOTE_ON_65
DURATION_33
POSITION_1744215
NOTE_ON_69
DURATION_45
POSITION_1744314
NOTE_ON_72
DURATION_77
POSITION_1744416
NOTE_ON_74
DURATION_93
POSITION_1744509
NOTE_ON_72
DURATION_114
POSITION_1744416
NOTE_ON_59
DURATION_221
POSITION_1744621
NOTE_ON_65
DURATION_67
POSITION_1744616
NOTE_ON_74
DURATION_95
POSITION_1744712
NOTE_ON_77
DURATION_75
POSITION_1744806
NOTE_ON_67
DURATION_39
POSITION_1744809
NOTE_ON_71
DURATION_40
POSITION_1744900
NOTE_ON_74
DURATION_40
POSITION_1745000
NOTE_ON_76
DURATION_45
POSITION_1745006
NOTE_ON_60
DURATION_88
POSITION_1745094
NOTE_ON_59
DURATION_95
POSITION_1745204
NOTE_ON_69
DURATION_33
POSITION_1745192
NOTE_ON_78
DURATION_51
POSITION_1745198
NOTE_ON_60
DURATION_86
POSITION_1745289
NOTE_ON_62
DURATION_98
POSITION_1745396
NOTE_ON_71
DURATION_35
POSITION_1745384
NOTE_ON_80
DURATION_53
POSITION_1745391
NOTE_ON_60
DURATION_75
POSITION_1745483
NOTE_ON_59
DURATION_92
POSITION_1745590
NOTE_ON_72
DURATION_92
POSITION_1745684
NOTE_ON_71
DURATION_87
POSITION_1745590
NOTE_ON_57
DURATION_187
POSITION_1745700
NOTE_ON_69
DURATION_94
POSITION_1745790
NOTE_ON_64
DURATION_30
POSITION_1745788
NOTE_ON_72
DURATION_114
POSITION_1745989
NOTE_ON_66
DURATION_32
POSITION_1745989
NOTE_ON_69
DURATION_41
POSITION_1745583
NOTE_ON_81
DURATION_603
POSITION_1746091
NOTE_ON_72
DURATION_99
POSITION_1745883
NOTE_ON_76
DURATION_341
POSITION_1746200
NOTE_ON_74
DURATION_95
POSITION_1746306
NOTE_ON_72
DURATION_71
POSITION_1746198
NOTE_ON_59
DURATION_184
POSITION_1746395
NOTE_ON_66
DURATION_28
POSITION_1746397
NOTE_ON_74
DURATION_104
POSITION_1746500
NOTE_ON_78
DURATION_73
POSITION_1746587
NOTE_ON_71
DURATION_35
POSITION_1746587
NOTE_ON_67
DURATION_38
POSITION_1746681
NOTE_ON_74
DURATION_124
POSITION_1746786
NOTE_ON_76
DURATION_103
POSITION_1746881
NOTE_ON_74
DURATION_104
POSITION_1746784
NOTE_ON_61
DURATION_203
POSITION_1746985
NOTE_ON_67
DURATION_28
POSITION_1746983
NOTE_ON_76
DURATION_119
POSITION_1747081
NOTE_ON_79
DURATION_116
POSITION_1747173
NOTE_ON_69
DURATION_37
POSITION_1747180
NOTE_ON_73
DURATION_73
POSITION_1747173
NOTE_ON_75
DURATION_80
POSITION_1747270
NOTE_ON_76
DURATION_124
POSITION_1747394
NOTE_ON_62
DURATION_88
POSITION_1747486
NOTE_ON_61
DURATION_82
POSITION_1747372
NOTE_ON_78
DURATION_208
POSITION_1747578
NOTE_ON_71
DURATION_31
POSITION_1747573
NOTE_ON_79
DURATION_39
POSITION_1747577
NOTE_ON_62
DURATION_73
POSITION_1747665
NOTE_ON_64
DURATION_99
POSITION_1747771
NOTE_ON_73
DURATION_29
POSITION_1747772
NOTE_ON_62
DURATION_78
POSITION_1747865
NOTE_ON_61
DURATION_36
POSITION_1747765
NOTE_ON_81
DURATION_203
POSITION_1747970
NOTE_ON_74
DURATION_103
POSITION_1748175
NOTE_ON_74
DURATION_120
POSITION_1747970
NOTE_ON_59
DURATION_330
POSITION_1748071
NOTE_ON_73
DURATION_257
POSITION_1748274
NOTE_ON_55
DURATION_97
POSITION_1748367
NOTE_ON_52
DURATION_102
POSITION_1748373
NOTE_ON_71
DURATION_124
POSITION_1748463
NOTE_ON_49
DURATION_38
POSITION_1748174
NOTE_ON_79
DURATION_362
POSITION_1748461
NOTE_ON_74
DURATION_94
POSITION_1748562
NOTE_ON_57
DURATION_47
POSITION_1748271
NOTE_ON_76
DURATION_342
POSITION_1748562
NOTE_ON_73
DURATION_61
POSITION_1748656
NOTE_ON_71
DURATION_54
POSITION_1748770
NOTE_ON_50
DURATION_43
POSITION_1748771
NOTE_ON_73
DURATION_44
POSITION_1748865
NOTE_ON_74
DURATION_130
POSITION_1748969
NOTE_ON_69
DURATION_35
POSITION_1749057
NOTE_ON_72
DURATION_141
POSITION_1749165
NOTE_ON_71
DURATION_53
POSITION_1748774
NOTE_ON_78
DURATION_530
POSITION_1749263
NOTE_ON_69
DURATION_122
POSITION_1749377
NOTE_ON_71
DURATION_80
POSITION_1749164
NOTE_ON_55
DURATION_301
POSITION_1749471
NOTE_ON_55
DURATION_48
POSITION_1749470
NOTE_ON_52
DURATION_102
POSITION_1749470
NOTE_ON_73
DURATION_113
POSITION_1749568
NOTE_ON_67
DURATION_46
POSITION_1749567
NOTE_ON_49
DURATION_73
POSITION_1749654
NOTE_ON_71
DURATION_53
POSITION_1749654
NOTE_ON_45
DURATION_63
POSITION_1749378
NOTE_ON_76
DURATION_456
POSITION_1749764
NOTE_ON_54
DURATION_96
POSITION_1749857
NOTE_ON_52
DURATION_98
POSITION_1749764
NOTE_ON_69
DURATION_200
POSITION_1749961
NOTE_ON_74
DURATION_33
POSITION_1749967
NOTE_ON_54
DURATION_70
POSITION_1750060
NOTE_ON_57
DURATION_55
POSITION_1750177
NOTE_ON_50
DURATION_60
POSITION_1750272
NOTE_ON_54
DURATION_83
POSITION_1750370
NOTE_ON_56
DURATION_69
POSITION_1750488
NOTE_ON_54
DURATION_83
POSITION_1750171
NOTE_ON_78
DURATION_407
POSITION_1750585
NOTE_ON_56
DURATION_58
POSITION_1750568
NOTE_ON_76
DURATION_78
POSITION_1750669
NOTE_ON_59
DURATION_64
POSITION_1750790
NOTE_ON_52
DURATION_61
POSITION_1750863
NOTE_ON_56
DURATION_76
POSITION_1750767
NOTE_ON_74
DURATION_260
POSITION_1750959
NOTE_ON_58
DURATION_82
POSITION_1751062
NOTE_ON_56
DURATION_72
POSITION_1751161
NOTE_ON_58
DURATION_85
POSITION_1751253
NOTE_ON_61
DURATION_46
POSITION_1751161
NOTE_ON_73
DURATION_163
POSITION_1751252
NOTE_ON_74
DURATION_134
POSITION_1751350
NOTE_ON_54
DURATION_98
POSITION_1751437
NOTE_ON_58
DURATION_35
POSITION_1751539
NOTE_ON_59
DURATION_97
POSITION_1751649
NOTE_ON_58
DURATION_71
POSITION_1751347
NOTE_ON_76
DURATION_388
POSITION_1751741
NOTE_ON_74
DURATION_28
POSITION_1751742
NOTE_ON_59
DURATION_68
POSITION_1751837
NOTE_ON_62
DURATION_111
POSITION_1751953
NOTE_ON_54
DURATION_73
POSITION_1752035
NOTE_ON_57
DURATION_37
POSITION_1752141
NOTE_ON_56
DURATION_64
POSITION_1752236
NOTE_ON_54
DURATION_97
POSITION_1751942
NOTE_ON_72
DURATION_423
POSITION_1752342
NOTE_ON_56
DURATION_30
POSITION_1752345
NOTE_ON_71
DURATION_32
POSITION_1752448
NOTE_ON_59
DURATION_100
POSITION_1752565
NOTE_ON_52
DURATION_89
POSITION_1752656
NOTE_ON_56
DURATION_61
POSITION_1752755
NOTE_ON_57
DURATION_85
POSITION_1752841
NOTE_ON_56
DURATION_108
POSITION_1752544
NOTE_ON_74
DURATION_418
POSITION_1752953
NOTE_ON_72
DURATION_40
POSITION_1752955
NOTE_ON_57
DURATION_72
POSITION_1753035
NOTE_ON_60
DURATION_146
POSITION_1753161
NOTE_ON_52
DURATION_82
POSITION_1753249
NOTE_ON_55
DURATION_45
POSITION_1753347
NOTE_ON_54
DURATION_53
POSITION_1753155
NOTE_ON_71
DURATION_289
POSITION_1753443
NOTE_ON_52
DURATION_93
POSITION_1753554
NOTE_ON_69
DURATION_32
POSITION_1753554
NOTE_ON_54
DURATION_46
POSITION_1753632
NOTE_ON_57
DURATION_58
POSITION_1753738
NOTE_ON_50
DURATION_70
POSITION_1753837
NOTE_ON_54
DURATION_47
POSITION_1753946
NOTE_ON_55
DURATION_78
POSITION_1753741
NOTE_ON_72
DURATION_332
POSITION_1754049
NOTE_ON_54
DURATION_98
POSITION_1754155
NOTE_ON_71
DURATION_34
POSITION_1754157
NOTE_ON_55
DURATION_73
POSITION_1754260
NOTE_ON_57
DURATION_75
POSITION_1754362
NOTE_ON_59
DURATION_62
POSITION_1754363
NOTE_ON_66
DURATION_120
POSITION_1754455
NOTE_ON_55
DURATION_52
POSITION_1754553
NOTE_ON_57
DURATION_63
POSITION_1754351
NOTE_ON_74
DURATION_287
POSITION_1754631
NOTE_ON_55
DURATION_115
POSITION_1754754
NOTE_ON_73
DURATION_24
POSITION_1754752
NOTE_ON_57
DURATION_38
POSITION_1754758
NOTE_ON_64
DURATION_45
POSITION_1754849
NOTE_ON_59
DURATION_135
POSITION_1754958
NOTE_ON_69
DURATION_36
POSITION_1754959
NOTE_ON_61
DURATION_128
POSITION_1755059
NOTE_ON_57
DURATION_64
POSITION_1754953
NOTE_ON_81
DURATION_203
POSITION_1755198
NOTE_ON_45
DURATION_158
POSITION_1755353
NOTE_ON_79
DURATION_83
POSITION_1755161
NOTE_ON_71
DURATION_341
POSITION_1755162
NOTE_ON_62
DURATION_347
POSITION_1755447
NOTE_ON_67
DURATION_82
POSITION_1755357
NOTE_ON_64
DURATION_175
POSITION_1755257
NOTE_ON_59
DURATION_280
POSITION_1755537
NOTE_ON_64
DURATION_76
POSITION_1755626
NOTE_ON_61
DURATION_96
POSITION_1755550
NOTE_ON_55
DURATION_179
POSITION_1755732
NOTE_ON_69
DURATION_30
POSITION_1755733
NOTE_ON_73
DURATION_30
POSITION_1755833
NOTE_ON_52
DURATION_89
POSITION_1755937
NOTE_ON_69
DURATION_44
POSITION_1755942
NOTE_ON_54
DURATION_63
POSITION_1756027
NOTE_ON_57
DURATION_98
POSITION_1756142
NOTE_ON_55
DURATION_93
POSITION_1756232
NOTE_ON_54
DURATION_50
POSITION_1755937
NOTE_ON_62
DURATION_356
POSITION_1756342
NOTE_ON_52
DURATION_93
POSITION_1756335
NOTE_ON_55
DURATION_142
POSITION_1756456
NOTE_ON_45
DURATION_71
POSITION_1756128
NOTE_ON_74
DURATION_403
POSITION_1756338
NOTE_ON_67
DURATION_208
POSITION_1756546
NOTE_ON_73
DURATION_56
POSITION_1756558
NOTE_ON_57
DURATION_60
POSITION_1756629
NOTE_ON_64
DURATION_37
POSITION_1756634
NOTE_ON_55
DURATION_76
POSITION_1756727
NOTE_ON_54
DURATION_105
POSITION_1756725
NOTE_ON_61
DURATION_110
POSITION_1756812
NOTE_ON_57
DURATION_54
POSITION_1756817
NOTE_ON_52
DURATION_107
POSITION_1756915
NOTE_ON_50
DURATION_42
POSITION_1756919
NOTE_ON_66
DURATION_47
POSITION_1757017
NOTE_ON_64
DURATION_133
POSITION_1757141
NOTE_ON_57
DURATION_30
POSITION_1757141
NOTE_ON_66
DURATION_76
POSITION_1756912
NOTE_ON_74
DURATION_317
POSITION_1757228
NOTE_ON_69
DURATION_109
POSITION_1757345
NOTE_ON_59
DURATION_73
POSITION_1757347
NOTE_ON_62
DURATION_87
POSITION_1757440
NOTE_ON_66
DURATION_116
POSITION_1757658
NOTE_ON_72
DURATION_134
POSITION_1757564
NOTE_ON_52
DURATION_234
POSITION_1757778
NOTE_ON_47
DURATION_61
POSITION_1757772
NOTE_ON_74
DURATION_111
POSITION_1757972
NOTE_ON_43
DURATION_36
POSITION_1757973
NOTE_ON_71
DURATION_53
POSITION_1757564
NOTE_ON_67
DURATION_480
POSITION_1758065
NOTE_ON_74
DURATION_37
POSITION_1757866
NOTE_ON_76
DURATION_339
POSITION_1758171
NOTE_ON_40
DURATION_74
POSITION_1758262
NOTE_ON_66
DURATION_79
POSITION_1758171
NOTE_ON_72
DURATION_172
POSITION_1758370
NOTE_ON_67
DURATION_46
POSITION_1758372
NOTE_ON_59
DURATION_63
POSITION_1758569
NOTE_ON_60
DURATION_39
POSITION_1758569
NOTE_ON_64
DURATION_94
POSITION_1758458
NOTE_ON_71
DURATION_208
POSITION_1758661
NOTE_ON_67
DURATION_51
POSITION_1758787
NOTE_ON_69
DURATION_129
POSITION_1758791
NOTE_ON_54
DURATION_217
POSITION_1758885
NOTE_ON_71
DURATION_157
POSITION_1758992
NOTE_ON_50
DURATION_77
POSITION_1758990
NOTE_ON_72
DURATION_111
POSITION_1759093
NOTE_ON_74
DURATION_103
POSITION_1759194
NOTE_ON_52
DURATION_51
POSITION_1759192
NOTE_ON_69
DURATION_100
POSITION_1759282
NOTE_ON_72
DURATION_67
POSITION_1759384
NOTE_ON_71
DURATION_80
POSITION_1759485
NOTE_ON_69
DURATION_61
POSITION_1759382
NOTE_ON_53
DURATION_244
POSITION_1759591
NOTE_ON_52
DURATION_53
POSITION_1759586
NOTE_ON_71
DURATION_78
POSITION_1759679
NOTE_ON_72
DURATION_41
POSITION_1759784
NOTE_ON_50
DURATION_36
POSITION_1759785
NOTE_ON_74
DURATION_48
POSITION_1759876
NOTE_ON_71
DURATION_72
POSITION_1759386
NOTE_ON_67
DURATION_654
POSITION_1760115
NOTE_ON_55
DURATION_69
POSITION_1760215
NOTE_ON_60
DURATION_101
POSITION_1760014
NOTE_ON_48
DURATION_303
POSITION_1760011
NOTE_ON_76
DURATION_314
POSITION_1760313
NOTE_ON_57
DURATION_99
POSITION_1760317
NOTE_ON_72
DURATION_101
POSITION_1760406
NOTE_ON_69
DURATION_61
POSITION_1760408
NOTE_ON_54
DURATION_89
POSITION_1760499
NOTE_ON_66
DURATION_52
POSITION_1760503
NOTE_ON_57
DURATION_72
POSITION_1760591
NOTE_ON_74
DURATION_46
POSITION_1760703
NOTE_ON_57
DURATION_108
POSITION_1760809
NOTE_ON_67
DURATION_33
POSITION_1760814
NOTE_ON_59
DURATION_133
POSITION_1760908
NOTE_ON_55
DURATION_95
POSITION_1760604
NOTE_ON_47
DURATION_427
POSITION_1761003
NOTE_ON_52
DURATION_86
POSITION_1761096
NOTE_ON_55
DURATION_70
POSITION_1761197
NOTE_ON_72
DURATION_42
POSITION_1761249
NOTE_ON_71
DURATION_40
POSITION_1761316
NOTE_ON_55
DURATION_93
POSITION_1761304
NOTE_ON_72
DURATION_188
POSITION_1761432
NOTE_ON_57
DURATION_84
POSITION_1761434
NOTE_ON_71
DURATION_104
POSITION_1761507
NOTE_ON_69
DURATION_77
POSITION_1761204
NOTE_ON_45
DURATION_384
POSITION_1761528
NOTE_ON_54
DURATION_73
POSITION_1761596
NOTE_ON_66
DURATION_38
POSITION_1761611
NOTE_ON_50
DURATION_111
POSITION_1761691
NOTE_ON_62
DURATION_51
POSITION_1761721
NOTE_ON_54
DURATION_47
POSITION_1761798
NOTE_ON_71
DURATION_35
POSITION_1761798
NOTE_ON_43
DURATION_86
POSITION_1761897
NOTE_ON_54
DURATION_91
POSITION_1762011
NOTE_ON_64
DURATION_35
POSITION_1762005
NOTE_ON_55
DURATION_90
POSITION_1762100
NOTE_ON_52
DURATION_94
POSITION_1762196
NOTE_ON_64
DURATION_10
POSITION_1762200
NOTE_ON_49
DURATION_81
POSITION_1762010
NOTE_ON_43
DURATION_334
POSITION_1762302
NOTE_ON_52
DURATION_63
POSITION_1762402
NOTE_ON_69
DURATION_65
POSITION_1762419
NOTE_ON_67
DURATION_60
POSITION_1762479
NOTE_ON_52
DURATION_130
POSITION_1762610
NOTE_ON_54
DURATION_108
POSITION_1762399
NOTE_ON_42
DURATION_375
POSITION_1762725
NOTE_ON_50
DURATION_57
POSITION_1762475
NOTE_ON_69
DURATION_340
POSITION_1762723
NOTE_ON_66
DURATION_112
POSITION_1762813
NOTE_ON_62
DURATION_54
POSITION_1762817
NOTE_ON_47
DURATION_103
POSITION_1762903
NOTE_ON_59
DURATION_60
POSITION_1762932
NOTE_ON_50
DURATION_63
POSITION_1763004
NOTE_ON_67
DURATION_28
POSITION_1763097
NOTE_ON_50
DURATION_65
POSITION_1763015
NOTE_ON_40
DURATION_190
POSITION_1763216
NOTE_ON_61
DURATION_31
POSITION_1763214
NOTE_ON_52
DURATION_97
POSITION_1763216
NOTE_ON_40
DURATION_139
POSITION_1763307
NOTE_ON_49
DURATION_61
POSITION_1763406
NOTE_ON_45
DURATION_59
POSITION_1763499
NOTE_ON_49
DURATION_46
POSITION_1763686
NOTE_ON_64
DURATION_109
POSITION_1763806
NOTE_ON_66
DURATION_95
POSITION_1763901
NOTE_ON_69
DURATION_125
POSITION_1764002
NOTE_ON_47
DURATION_42
POSITION_1763815
NOTE_ON_45
DURATION_242
POSITION_1764004
NOTE_ON_62
DURATION_79
POSITION_1764099
NOTE_ON_66
DURATION_72
POSITION_1763622
NOTE_ON_38
DURATION_581
POSITION_1764203
NOTE_ON_67
DURATION_88
POSITION_1764297
NOTE_ON_66
DURATION_105
POSITION_1764414
NOTE_ON_67
DURATION_62
POSITION_1764501
NOTE_ON_71
DURATION_85
POSITION_1764409
NOTE_ON_47
DURATION_201
POSITION_1764603
NOTE_ON_48
DURATION_76
POSITION_1764605
NOTE_ON_64
DURATION_79
POSITION_1764699
NOTE_ON_67
DURATION_52
POSITION_1764203
NOTE_ON_40
DURATION_584
POSITION_1764806
NOTE_ON_69
DURATION_89
POSITION_1764899
NOTE_ON_67
DURATION_98
POSITION_1765012
NOTE_ON_48
DURATION_35
POSITION_1765010
NOTE_ON_69
DURATION_45
POSITION_1765107
NOTE_ON_72
DURATION_64
POSITION_1764807
NOTE_ON_42
DURATION_410
POSITION_1765213
NOTE_ON_66
DURATION_91
POSITION_1765308
NOTE_ON_69
DURATION_59
POSITION_1765218
NOTE_ON_50
DURATION_152
POSITION_1765407
NOTE_ON_71
DURATION_47
POSITION_1765503
NOTE_ON_69
DURATION_39
POSITION_1765602
NOTE_ON_71
DURATION_44
POSITION_1765605
NOTE_ON_50
DURATION_123
POSITION_1765411
NOTE_ON_43
DURATION_366
POSITION_1765803
NOTE_ON_64
DURATION_5
POSITION_1765693
NOTE_ON_73
DURATION_134
POSITION_1765800
NOTE_ON_52
DURATION_66
POSITION_1765801
NOTE_ON_74
DURATION_86
POSITION_1765888
NOTE_ON_71
DURATION_86
POSITION_1766004
NOTE_ON_45
DURATION_82
POSITION_1765997
NOTE_ON_73
DURATION_118
POSITION_1766111
NOTE_ON_54
DURATION_86
POSITION_1766211
NOTE_ON_69
DURATION_27
POSITION_1766211
NOTE_ON_55
DURATION_84
POSITION_1766301
NOTE_ON_57
DURATION_94
POSITION_1766413
NOTE_ON_52
DURATION_88
POSITION_1766501
NOTE_ON_55
DURATION_72
POSITION_1766611
NOTE_ON_54
DURATION_84
POSITION_1766717
NOTE_ON_52
DURATION_85
POSITION_1766408
NOTE_ON_76
DURATION_403
POSITION_1766809
NOTE_ON_74
DURATION_48
POSITION_1766806
NOTE_ON_54
DURATION_94
POSITION_1766905
NOTE_ON_57
DURATION_87
POSITION_1767020
NOTE_ON_50
DURATION_112
POSITION_1767112
NOTE_ON_54
DURATION_89
POSITION_1767016
NOTE_ON_74
DURATION_279
POSITION_1767216
NOTE_ON_52
DURATION_86
POSITION_1767317
NOTE_ON_50
DURATION_91
POSITION_1767009
NOTE_ON_78
DURATION_418
POSITION_1767422
NOTE_ON_73
DURATION_33
POSITION_1767419
NOTE_ON_76
DURATION_37
POSITION_1767418
NOTE_ON_52
DURATION_80
POSITION_1767516
NOTE_ON_55
DURATION_85
POSITION_1767618
NOTE_ON_49
DURATION_185
POSITION_1767709
NOTE_ON_52
DURATION_101
POSITION_1767819
NOTE_ON_50
DURATION_97
POSITION_1767617
NOTE_ON_79
DURATION_420
POSITION_1767618
NOTE_ON_76
DURATION_420
POSITION_1767909
NOTE_ON_49
DURATION_139
POSITION_1768025
NOTE_ON_74
DURATION_31
POSITION_1768024
NOTE_ON_78
DURATION_88
POSITION_1768026
NOTE_ON_50
DURATION_116
POSITION_1768137
NOTE_ON_54
DURATION_122
POSITION_1768228
NOTE_ON_81
DURATION_50
POSITION_1768247
NOTE_ON_47
DURATION_99
POSITION_1768329
NOTE_ON_50
DURATION_50
POSITION_1768470
NOTE_ON_43
DURATION_52
POSITION_1768467
NOTE_ON_83
DURATION_226
POSITION_1768579
NOTE_ON_74
DURATION_116
POSITION_1768693
NOTE_ON_55
DURATION_170
POSITION_1768691
NOTE_ON_76
DURATION_181
POSITION_1768883
NOTE_ON_76
DURATION_106
POSITION_1768779
NOTE_ON_79
DURATION_232
POSITION_1768971
NOTE_ON_73
DURATION_86
POSITION_1769075
NOTE_ON_81
DURATION_43
POSITION_1768884
NOTE_ON_67
DURATION_291
POSITION_1769172
NOTE_ON_64
DURATION_94
POSITION_1769274
NOTE_ON_54
DURATION_6
POSITION_1769269
NOTE_ON_74
DURATION_35
POSITION_1769271
NOTE_ON_66
DURATION_44
POSITION_1769367
NOTE_ON_69
DURATION_48
POSITION_1769468
NOTE_ON_62
DURATION_79
POSITION_1769484
NOTE_ON_54
DURATION_69
POSITION_1769553
NOTE_ON_66
DURATION_49
POSITION_1769677
NOTE_ON_71
DURATION_38
POSITION_1769763
NOTE_ON_50
DURATION_136
POSITION_1769865
NOTE_ON_52
DURATION_91
POSITION_1769886
NOTE_ON_73
DURATION_115
POSITION_1769969
NOTE_ON_55
DURATION_91
POSITION_1769976
NOTE_ON_76
DURATION_121
POSITION_1769668
NOTE_ON_79
DURATION_441
POSITION_1770073
NOTE_ON_73
DURATION_37
POSITION_1770066
NOTE_ON_45
DURATION_85
POSITION_1770155
NOTE_ON_49
DURATION_40
POSITION_1770157
NOTE_ON_69
DURATION_49
POSITION_1770267
NOTE_ON_74
DURATION_44
POSITION_1770267
NOTE_ON_50
DURATION_107
POSITION_1770382
NOTE_ON_52
DURATION_83
POSITION_1770266
NOTE_ON_78
DURATION_209
POSITION_1770467
NOTE_ON_74
DURATION_30
POSITION_1770473
NOTE_ON_54
DURATION_87
POSITION_1770566
NOTE_ON_57
DURATION_116
POSITION_1770471
NOTE_ON_69
DURATION_222
POSITION_1770680
NOTE_ON_50
DURATION_104
POSITION_1770767
NOTE_ON_54
DURATION_104
POSITION_1770678
NOTE_ON_72
DURATION_210
POSITION_1770873
NOTE_ON_71
DURATION_102
POSITION_1770875
NOTE_ON_55
DURATION_101
POSITION_1770969
NOTE_ON_52
DURATION_96
POSITION_1770968
NOTE_ON_67
DURATION_133
POSITION_1771066
NOTE_ON_76
DURATION_45
POSITION_1771065
NOTE_ON_49
DURATION_54
POSITION_1771170
NOTE_ON_52
DURATION_146
POSITION_1771302
NOTE_ON_45
DURATION_85
POSITION_1771399
NOTE_ON_49
DURATION_28
POSITION_1771522
NOTE_ON_38
DURATION_285
POSITION_1771285
NOTE_ON_64
DURATION_526
POSITION_1771286
NOTE_ON_67
DURATION_560
POSITION_1771854
NOTE_ON_66
DURATION_364
POSITION_1771863
NOTE_ON_50
DURATION_356
POSITION_1771857
NOTE_ON_62
DURATION_372
POSITION_1772265
NOTE_ON_57
DURATION_36
POSITION_1772517
NOTE_ON_50
DURATION_40
POSITION_1772786
NOTE_ON_55
DURATION_39
POSITION_1773371
NOTE_ON_55
DURATION_107
POSITION_1773469
NOTE_ON_54
DURATION_92
POSITION_1773555
NOTE_ON_52
DURATION_80
POSITION_1773672
NOTE_ON_54
DURATION_66
POSITION_1773759
NOTE_ON_50
DURATION_63
POSITION_1773860
NOTE_ON_47
DURATION_62
POSITION_1773939
NOTE_ON_49
DURATION_58
POSITION_1774029
NOTE_ON_50
DURATION_42
POSITION_1774086
NOTE_ON_49
DURATION_45
POSITION_1774146
NOTE_ON_50
DURATION_38
POSITION_1774203
NOTE_ON_49
DURATION_43
POSITION_1774260
NOTE_ON_50
DURATION_60
POSITION_1774321
NOTE_ON_49
DURATION_119
POSITION_1774391
NOTE_ON_47
DURATION_50
POSITION_1774445
NOTE_ON_49
DURATION_70
POSITION_1774515
NOTE_ON_50
DURATION_105
POSITION_1774632
NOTE_ON_49
DURATION_93
POSITION_1774736
NOTE_ON_50
DURATION_48
POSITION_1774837
NOTE_ON_52
DURATION_46
POSITION_1774936
NOTE_ON_62
DURATION_38
POSITION_1774940
NOTE_ON_54
DURATION_47
POSITION_1775051
NOTE_ON_50
DURATION_65
POSITION_1775153
NOTE_ON_55
DURATION_37
POSITION_1775158
NOTE_ON_52
DURATION_78
POSITION_1775248
NOTE_ON_50
DURATION_100
POSITION_1775355
NOTE_ON_60
DURATION_33
POSITION_1775351
NOTE_ON_55
DURATION_74
POSITION_1775396
NOTE_ON_59
DURATION_32
POSITION_1775353
NOTE_ON_52
DURATION_78
POSITION_1775456
NOTE_ON_54
DURATION_72
POSITION_1775559
NOTE_ON_55
DURATION_59
POSITION_1775441
NOTE_ON_60
DURATION_185
POSITION_1775647
NOTE_ON_52
DURATION_41
POSITION_1775764
NOTE_ON_54
DURATION_40
POSITION_1775862
NOTE_ON_60
DURATION_95
POSITION_1775972
NOTE_ON_50
DURATION_44
POSITION_1775972
NOTE_ON_59
DURATION_78
POSITION_1776062
NOTE_ON_57
DURATION_82
POSITION_1776164
NOTE_ON_55
DURATION_30
POSITION_1776164
NOTE_ON_59
DURATION_100
POSITION_1776253
NOTE_ON_55
DURATION_92
POSITION_1776360
NOTE_ON_52
DURATION_93
POSITION_1776447
NOTE_ON_54
DURATION_40
POSITION_1776457
NOTE_ON_50
DURATION_61
POSITION_1776462
NOTE_ON_52
DURATION_93
POSITION_1776564
NOTE_ON_55
DURATION_41
POSITION_1776564
NOTE_ON_48
DURATION_50
POSITION_1776611
NOTE_ON_54
DURATION_42
POSITION_1776665
NOTE_ON_55
DURATION_44
POSITION_1776670
NOTE_ON_47
DURATION_69
POSITION_1776715
NOTE_ON_54
DURATION_34
POSITION_1776762
NOTE_ON_55
DURATION_56
POSITION_1776824
NOTE_ON_54
DURATION_82
POSITION_1776856
NOTE_ON_45
DURATION_54
POSITION_1776864
NOTE_ON_52
DURATION_47
POSITION_1776915
NOTE_ON_54
DURATION_56
POSITION_1776966
NOTE_ON_55
DURATION_65
POSITION_1776935
NOTE_ON_47
DURATION_117
POSITION_1777028
NOTE_ON_52
DURATION_97
POSITION_1777137
NOTE_ON_45
DURATION_7
POSITION_1777140
NOTE_ON_57
DURATION_37
POSITION_1777137
NOTE_ON_50
DURATION_42
POSITION_1777138
NOTE_ON_55
DURATION_49
POSITION_1777141
NOTE_ON_47
DURATION_64
POSITION_1777185
NOTE_ON_56
DURATION_47
POSITION_1777234
NOTE_ON_57
DURATION_35
POSITION_1777233
NOTE_ON_49
DURATION_43
POSITION_1777236
NOTE_ON_52
DURATION_41
POSITION_1777284
NOTE_ON_56
DURATION_39
POSITION_1777331
NOTE_ON_57
DURATION_49
POSITION_1777325
NOTE_ON_50
DURATION_67
POSITION_1777393
NOTE_ON_56
DURATION_50
POSITION_1777429
NOTE_ON_54
DURATION_65
POSITION_1777416
NOTE_ON_47
DURATION_118
POSITION_1777489
NOTE_ON_56
DURATION_66
POSITION_1777567
NOTE_ON_57
DURATION_96
POSITION_1777666
NOTE_ON_59
DURATION_104
POSITION_1777525
NOTE_ON_49
DURATION_302
POSITION_1777764
NOTE_ON_52
DURATION_109
POSITION_1777823
NOTE_ON_51
DURATION_51
POSITION_1777768
NOTE_ON_57
DURATION_121
POSITION_1777878
NOTE_ON_52
DURATION_70
POSITION_1777884
NOTE_ON_55
DURATION_197
POSITION_1777977
NOTE_ON_57
DURATION_165
POSITION_1778073
NOTE_ON_54
DURATION_76
POSITION_1778014
NOTE_ON_52
DURATION_144
POSITION_1777953
NOTE_ON_51
DURATION_212
POSITION_1778108
NOTE_ON_49
DURATION_60
POSITION_1778170
NOTE_ON_51
DURATION_42
POSITION_1778215
NOTE_ON_52
DURATION_72
POSITION_1778179
NOTE_ON_55
DURATION_140
POSITION_1778317
NOTE_ON_54
DURATION_75
POSITION_1778294
NOTE_ON_59
DURATION_99
POSITION_1778390
NOTE_ON_57
DURATION_64
POSITION_1778415
NOTE_ON_55
DURATION_68
POSITION_1778493
NOTE_ON_59
DURATION_60
POSITION_1778492
NOTE_ON_54
DURATION_64
POSITION_1778569
NOTE_ON_55
DURATION_72
POSITION_1778599
NOTE_ON_69
DURATION_55
POSITION_1778601
NOTE_ON_60
DURATION_100
POSITION_1778648
NOTE_ON_54
DURATION_89
POSITION_1778713
NOTE_ON_57
DURATION_41
POSITION_1778735
NOTE_ON_52
DURATION_81
POSITION_1778837
NOTE_ON_55
DURATION_51
POSITION_1778836
NOTE_ON_59
DURATION_83
POSITION_1778830
NOTE_ON_62
DURATION_101
POSITION_1778937
NOTE_ON_57
DURATION_125
POSITION_1779060
NOTE_ON_52
DURATION_65
POSITION_1779061
NOTE_ON_59
DURATION_126
POSITION_1779151
NOTE_ON_61
DURATION_122
POSITION_1779055
NOTE_ON_67
DURATION_229
POSITION_1779259
NOTE_ON_62
DURATION_98
POSITION_1779361
NOTE_ON_59
DURATION_65
POSITION_1779459
NOTE_ON_61
DURATION_32
POSITION_1779458
NOTE_ON_57
DURATION_35
POSITION_1779544
NOTE_ON_67
DURATION_89
POSITION_1779660
NOTE_ON_57
DURATION_70
POSITION_1779659
NOTE_ON_66
DURATION_93
POSITION_1779751
NOTE_ON_64
DURATION_93
POSITION_1779665
NOTE_ON_50
DURATION_190
POSITION_1779850
NOTE_ON_62
DURATION_33
POSITION_1779852
NOTE_ON_66
DURATION_115
POSITION_1779937
NOTE_ON_62
DURATION_95
POSITION_1780054
NOTE_ON_43
DURATION_59
POSITION_1780043
NOTE_ON_59
DURATION_79
POSITION_1780041
NOTE_ON_62
DURATION_90
POSITION_1780142
NOTE_ON_61
DURATION_35
POSITION_1780143
NOTE_ON_57
DURATION_38
POSITION_1780253
NOTE_ON_62
DURATION_29
POSITION_1780268
NOTE_ON_55
DURATION_66
POSITION_1780293
NOTE_ON_61
DURATION_84
POSITION_1780347
NOTE_ON_62
DURATION_61
POSITION_1780359
NOTE_ON_54
DURATION_91
POSITION_1780382
NOTE_ON_61
DURATION_72
POSITION_1780435
NOTE_ON_62
DURATION_38
POSITION_1780490
NOTE_ON_61
DURATION_56
POSITION_1780474
NOTE_ON_55
DURATION_108
POSITION_1780543
NOTE_ON_59
DURATION_47
POSITION_1780554
NOTE_ON_52
DURATION_69
POSITION_1780581
NOTE_ON_61
DURATION_45
POSITION_1780570
NOTE_ON_40
DURATION_61
POSITION_1780656
NOTE_ON_50
DURATION_5
POSITION_1780642
NOTE_ON_62
DURATION_77
POSITION_1780613
NOTE_ON_54
DURATION_117
POSITION_1780742
NOTE_ON_56
DURATION_30
POSITION_1780727
NOTE_ON_64
DURATION_80
POSITION_1780841
NOTE_ON_57
DURATION_42
POSITION_1780836
NOTE_ON_47
DURATION_94
POSITION_1780840
NOTE_ON_62
DURATION_98
POSITION_1780980
NOTE_ON_57
DURATION_174
POSITION_1781049
NOTE_ON_62
DURATION_108
POSITION_1780914
NOTE_ON_56
DURATION_243
POSITION_1781108
NOTE_ON_54
DURATION_49
POSITION_1780938
NOTE_ON_61
DURATION_220
POSITION_1781151
NOTE_ON_59
DURATION_63
POSITION_1781218
NOTE_ON_57
DURATION_32
POSITION_1781226
NOTE_ON_61
DURATION_31
POSITION_1781330
NOTE_ON_63
DURATION_67
POSITION_1781342
NOTE_ON_47
DURATION_92
POSITION_1781443
NOTE_ON_64
DURATION_39
POSITION_1781463
NOTE_ON_45
DURATION_92
POSITION_1781466
NOTE_ON_54
DURATION_102
POSITION_1781550
NOTE_ON_64
DURATION_29
POSITION_1781495
NOTE_ON_63
DURATION_96
POSITION_1781650
NOTE_ON_64
DURATION_48
POSITION_1781555
NOTE_ON_43
DURATION_143
POSITION_1781600
NOTE_ON_63
DURATION_98
POSITION_1781704
NOTE_ON_63
DURATION_86
POSITION_1781671
NOTE_ON_45
DURATION_128
POSITION_1781784
NOTE_ON_42
DURATION_50
POSITION_1781754
NOTE_ON_61
DURATION_81
POSITION_1781798
NOTE_ON_63
DURATION_42
POSITION_1781848
NOTE_ON_64
DURATION_74
POSITION_1781882
NOTE_ON_43
DURATION_62
POSITION_1781958
NOTE_ON_71
DURATION_48
POSITION_1782057
NOTE_ON_45
DURATION_35
POSITION_1782057
NOTE_ON_69
DURATION_87
POSITION_1782164
NOTE_ON_67
DURATION_65
POSITION_1782259
NOTE_ON_47
DURATION_35
POSITION_1782261
NOTE_ON_69
DURATION_75
POSITION_1782345
NOTE_ON_66
DURATION_77
POSITION_1782446
NOTE_ON_40
DURATION_38
POSITION_1782446
NOTE_ON_67
DURATION_43
POSITION_1782534
NOTE_ON_64
DURATION_29
POSITION_1782630
NOTE_ON_69
DURATION_39
POSITION_1782654
NOTE_ON_62
DURATION_53
POSITION_1782684
NOTE_ON_68
DURATION_26
POSITION_1782727
NOTE_ON_69
DURATION_47
POSITION_1782739
NOTE_ON_60
DURATION_65
POSITION_1782783
NOTE_ON_68
DURATION_27
POSITION_1782836
NOTE_ON_62
DURATION_83
POSITION_1782922
NOTE_ON_59
DURATION_32
POSITION_1782931
NOTE_ON_66
DURATION_40
POSITION_1782889
NOTE_ON_68
DURATION_84
POSITION_1782978
NOTE_ON_68
DURATION_37
POSITION_1783031
NOTE_ON_60
DURATION_33
POSITION_1783030
NOTE_ON_69
DURATION_66
POSITION_1783124
NOTE_ON_76
DURATION_130
POSITION_1783237
NOTE_ON_62
DURATION_38
POSITION_1783234
NOTE_ON_74
DURATION_102
POSITION_1783332
NOTE_ON_72
DURATION_119
POSITION_1783437
NOTE_ON_64
DURATION_32
POSITION_1783438
NOTE_ON_74
DURATION_93
POSITION_1783530
NOTE_ON_71
DURATION_53
POSITION_1783647
NOTE_ON_72
DURATION_117
POSITION_1783645
NOTE_ON_57
DURATION_160
POSITION_1783749
NOTE_ON_81
DURATION_123
POSITION_1783861
NOTE_ON_62
DURATION_38
POSITION_1783860
NOTE_ON_79
DURATION_92
POSITION_1783957
NOTE_ON_77
DURATION_101
POSITION_1784058
NOTE_ON_79
DURATION_93
POSITION_1784153
NOTE_ON_76
DURATION_30
POSITION_1784264
NOTE_ON_77
DURATION_35
POSITION_1784357
NOTE_ON_62
DURATION_55
POSITION_1784467
NOTE_ON_68
DURATION_23
POSITION_1784470
NOTE_ON_60
DURATION_62
POSITION_1784561
NOTE_ON_59
DURATION_62
POSITION_1784657
NOTE_ON_69
DURATION_41
POSITION_1784658
NOTE_ON_60
DURATION_45
POSITION_1784736
NOTE_ON_57
DURATION_31
POSITION_1784850
NOTE_ON_54
DURATION_84
POSITION_1784957
NOTE_ON_56
DURATION_59
POSITION_1785038
NOTE_ON_57
DURATION_28
POSITION_1784952
NOTE_ON_84
DURATION_141
POSITION_1785077
NOTE_ON_56
DURATION_58
POSITION_1785066
NOTE_ON_83
DURATION_106
POSITION_1785148
NOTE_ON_57
DURATION_45
POSITION_1785220
NOTE_ON_56
DURATION_43
POSITION_1785151
NOTE_ON_81
DURATION_126
POSITION_1785288
NOTE_ON_57
DURATION_60
POSITION_1785249
NOTE_ON_83
DURATION_102
POSITION_1785328
NOTE_ON_74
DURATION_63
POSITION_1785339
NOTE_ON_54
DURATION_62
POSITION_1785435
NOTE_ON_72
DURATION_33
POSITION_1785399
NOTE_ON_56
DURATION_70
POSITION_1785457
NOTE_ON_57
DURATION_47
POSITION_1785536
NOTE_ON_83
DURATION_115
POSITION_1785652
NOTE_ON_60
DURATION_33
POSITION_1785649
NOTE_ON_81
DURATION_104
POSITION_1785852
NOTE_ON_64
DURATION_24
POSITION_1785746
NOTE_ON_80
DURATION_132
POSITION_1785852
NOTE_ON_81
DURATION_34
POSITION_1785950
NOTE_ON_72
DURATION_64
POSITION_1786048
NOTE_ON_63
DURATION_40
POSITION_1786049
NOTE_ON_71
DURATION_40
POSITION_1786141
NOTE_ON_81
DURATION_116
POSITION_1786255
NOTE_ON_71
DURATION_29
POSITION_1786256
NOTE_ON_79
DURATION_97
POSITION_1786343
NOTE_ON_78
DURATION_91
POSITION_1786557
NOTE_ON_71
DURATION_90
POSITION_1786458
NOTE_ON_79
DURATION_209
POSITION_1786656
NOTE_ON_72
DURATION_59
POSITION_1786657
NOTE_ON_69
DURATION_61
POSITION_1786455
NOTE_ON_64
DURATION_350
POSITION_1786749
NOTE_ON_71
DURATION_102
POSITION_1786748
NOTE_ON_79
DURATION_104
POSITION_1786848
NOTE_ON_69
DURATION_59
POSITION_1786848
NOTE_ON_78
DURATION_90
POSITION_1786946
NOTE_ON_67
DURATION_49
POSITION_1786934
NOTE_ON_76
DURATION_114
POSITION_1787041
NOTE_ON_78
DURATION_91
POSITION_1787042
NOTE_ON_69
DURATION_124
POSITION_1787130
NOTE_ON_81
DURATION_96
POSITION_1787132
NOTE_ON_66
DURATION_142
POSITION_1787229
NOTE_ON_75
DURATION_72
POSITION_1787238
NOTE_ON_69
DURATION_66
POSITION_1787241
NOTE_ON_71
DURATION_94
POSITION_1787312
NOTE_ON_69
DURATION_123
POSITION_1787306
NOTE_ON_76
DURATION_144
POSITION_1787414
NOTE_ON_78
DURATION_38
POSITION_1787430
NOTE_ON_67
DURATION_67
POSITION_1787455
NOTE_ON_76
DURATION_95
POSITION_1787525
NOTE_ON_66
DURATION_59
POSITION_1787557
NOTE_ON_76
DURATION_44
POSITION_1787523
NOTE_ON_78
DURATION_89
POSITION_1787621
NOTE_ON_78
DURATION_55
POSITION_1787613
NOTE_ON_67
DURATION_99
POSITION_1787679
NOTE_ON_76
DURATION_41
POSITION_1787731
NOTE_ON_75
DURATION_119
POSITION_1787792
NOTE_ON_76
DURATION_59
POSITION_1787746
NOTE_ON_64
DURATION_119
POSITION_1787844
NOTE_ON_63
DURATION_36
POSITION_1787846
NOTE_ON_78
DURATION_104
POSITION_1787948
NOTE_ON_76
DURATION_101
POSITION_1788049
NOTE_ON_66
DURATION_35
POSITION_1788054
NOTE_ON_76
DURATION_111
POSITION_1788059
NOTE_ON_78
DURATION_152
POSITION_1788138
NOTE_ON_81
DURATION_134
POSITION_1788240
NOTE_ON_59
DURATION_37
POSITION_1788243
NOTE_ON_71
DURATION_75
POSITION_1788246
NOTE_ON_79
DURATION_119
POSITION_1788349
NOTE_ON_78
DURATION_169
POSITION_1788570
NOTE_ON_72
DURATION_9
POSITION_1788491
NOTE_ON_76
DURATION_204
POSITION_1788482
NOTE_ON_60
DURATION_337
POSITION_1788705
NOTE_ON_69
DURATION_128
POSITION_1788796
NOTE_ON_57
DURATION_102
POSITION_1788704
NOTE_ON_81
DURATION_259
POSITION_1788889
NOTE_ON_54
DURATION_82
POSITION_1788897
NOTE_ON_76
DURATION_103
POSITION_1788999
NOTE_ON_51
DURATION_71
POSITION_1788917
NOTE_ON_72
DURATION_162
POSITION_1789086
NOTE_ON_59
DURATION_28
POSITION_1789084
NOTE_ON_63
DURATION_37
POSITION_1789095
NOTE_ON_71
DURATION_53
POSITION_1789089
NOTE_ON_75
DURATION_59
POSITION_1789297
NOTE_ON_59
DURATION_36
POSITION_1789203
NOTE_ON_81
DURATION_133
POSITION_1789320
NOTE_ON_79
DURATION_91
POSITION_1789297
NOTE_ON_52
DURATION_381
POSITION_1789413
NOTE_ON_78
DURATION_265
POSITION_1789497
NOTE_ON_64
DURATION_186
POSITION_1789512
NOTE_ON_79
DURATION_173
POSITION_1789590
NOTE_ON_76
DURATION_99
POSITION_1789795
NOTE_ON_75
DURATION_167
POSITION_1789909
NOTE_ON_76
DURATION_107
POSITION_1789973
NOTE_ON_75
DURATION_81
POSITION_1790024
NOTE_ON_76
DURATION_84
POSITION_1790059
NOTE_ON_75
DURATION_118
POSITION_1790118
NOTE_ON_76
DURATION_85
POSITION_1790083
NOTE_ON_51
DURATION_121
POSITION_1789702
NOTE_ON_57
DURATION_502
POSITION_1789921
NOTE_ON_66
DURATION_283
POSITION_1789989
NOTE_ON_54
DURATION_234
POSITION_1789705
NOTE_ON_73
DURATION_518
POSITION_1790188
NOTE_ON_47
DURATION_56
POSITION_1790181
NOTE_ON_75
DURATION_88
POSITION_1790228
NOTE_ON_73
DURATION_64
POSITION_1790275
NOTE_ON_75
DURATION_71
POSITION_1790334
NOTE_ON_55
DURATION_114
POSITION_1790335
NOTE_ON_76
DURATION_116
POSITION_1790440
NOTE_ON_75
DURATION_120
POSITION_1790334
NOTE_ON_59
DURATION_227
POSITION_1790445
NOTE_ON_54
DURATION_139
POSITION_1790552
NOTE_ON_55
DURATION_75
POSITION_1790534
NOTE_ON_76
DURATION_107
POSITION_1790634
NOTE_ON_79
DURATION_114
POSITION_1790632
NOTE_ON_59
DURATION_122
POSITION_1790740
NOTE_ON_51
DURATION_102
POSITION_1790741
NOTE_ON_78
DURATION_110
POSITION_1790841
NOTE_ON_54
DURATION_46
POSITION_1790841
NOTE_ON_81
DURATION_153
POSITION_1790969
NOTE_ON_79
DURATION_103
POSITION_1791061
NOTE_ON_78
DURATION_125
POSITION_1791171
NOTE_ON_59
DURATION_66
POSITION_1791170
NOTE_ON_79
DURATION_116
POSITION_1791268
NOTE_ON_83
DURATION_126
POSITION_1791364
NOTE_ON_60
DURATION_39
POSITION_1791369
NOTE_ON_76
DURATION_117
POSITION_1790974
NOTE_ON_52
DURATION_596
POSITION_1791471
NOTE_ON_80
DURATION_106
POSITION_1791577
NOTE_ON_81
DURATION_114
POSITION_1791785
NOTE_ON_60
DURATION_43
POSITION_1791679
NOTE_ON_80
DURATION_180
POSITION_1791785
NOTE_ON_81
DURATION_112
POSITION_1791881
NOTE_ON_84
DURATION_116
POSITION_1791986
NOTE_ON_62
DURATION_38
POSITION_1791986
NOTE_ON_78
DURATION_77
POSITION_1791584
NOTE_ON_54
DURATION_486
POSITION_1792081
NOTE_ON_81
DURATION_120
POSITION_1792186
NOTE_ON_83
DURATION_129
POSITION_1792292
NOTE_ON_81
DURATION_116
POSITION_1792393
NOTE_ON_83
DURATION_127
POSITION_1792491
NOTE_ON_86
DURATION_116
POSITION_1792392
NOTE_ON_62
DURATION_227
POSITION_1792586
NOTE_ON_64
DURATION_179
POSITION_1792185
NOTE_ON_56
DURATION_626
POSITION_1792590
NOTE_ON_80
DURATION_221
POSITION_1792692
NOTE_ON_83
DURATION_124
POSITION_1792797
NOTE_ON_84
DURATION_191
POSITION_1792798
NOTE_ON_57
DURATION_223
POSITION_1792892
NOTE_ON_83
DURATION_130
POSITION_1792992
NOTE_ON_81
DURATION_142
POSITION_1792993
NOTE_ON_59
DURATION_200
POSITION_1793091
NOTE_ON_80
DURATION_127
POSITION_1793194
NOTE_ON_81
DURATION_178
POSITION_1793284
NOTE_ON_76
DURATION_91
POSITION_1793394
NOTE_ON_69
DURATION_36
POSITION_1793198
NOTE_ON_60
DURATION_266
POSITION_1793393
NOTE_ON_77
DURATION_214
POSITION_1793712
NOTE_ON_86
DURATION_139
POSITION_1793619
NOTE_ON_59
DURATION_233
POSITION_1793619
NOTE_ON_74
DURATION_233
POSITION_1793821
NOTE_ON_57
DURATION_45
POSITION_1793814
NOTE_ON_83
DURATION_114
POSITION_1793898
NOTE_ON_80
DURATION_69
POSITION_1794002
NOTE_ON_56
DURATION_161
POSITION_1793998
NOTE_ON_76
DURATION_182
POSITION_1794097
NOTE_ON_74
DURATION_87
POSITION_1794206
NOTE_ON_57
DURATION_41
POSITION_1794207
NOTE_ON_72
DURATION_102
POSITION_1794312
NOTE_ON_71
DURATION_54
POSITION_1794205
NOTE_ON_81
DURATION_219
POSITION_1794406
NOTE_ON_72
DURATION_98
POSITION_1794506
NOTE_ON_69
DURATION_40
POSITION_1794612
NOTE_ON_66
DURATION_79
POSITION_1794691
NOTE_ON_68
DURATION_117
POSITION_1794767
NOTE_ON_69
DURATION_110
POSITION_1794819
NOTE_ON_68
DURATION_119
POSITION_1794883
NOTE_ON_69
DURATION_163
POSITION_1794950
NOTE_ON_68
DURATION_196
POSITION_1795090
NOTE_ON_66
DURATION_99
POSITION_1794610
NOTE_ON_74
DURATION_582
POSITION_1795156
NOTE_ON_68
DURATION_38
POSITION_1795112
NOTE_ON_76
DURATION_83
POSITION_1795057
NOTE_ON_69
DURATION_143
POSITION_1794920
NOTE_ON_83
DURATION_282
POSITION_1795013
NOTE_ON_80
DURATION_189
POSITION_1795209
NOTE_ON_72
DURATION_42
POSITION_1795203
NOTE_ON_69
DURATION_58
POSITION_1795305
NOTE_ON_68
DURATION_61
POSITION_1795358
NOTE_ON_72
DURATION_80
POSITION_1795419
NOTE_ON_69
DURATION_28
POSITION_1795419
NOTE_ON_76
DURATION_49
POSITION_1795521
NOTE_ON_71
DURATION_33
POSITION_1795637
NOTE_ON_69
DURATION_23
POSITION_1795613
NOTE_ON_81
DURATION_47
POSITION_1795634
NOTE_ON_72
DURATION_42
POSITION_1795750
NOTE_ON_72
DURATION_10
POSITION_1795730
NOTE_ON_69
DURATION_61
POSITION_1795827
NOTE_ON_74
DURATION_29
POSITION_1795834
NOTE_ON_71
DURATION_49
POSITION_1795933
NOTE_ON_69
DURATION_44
POSITION_1796060
NOTE_ON_79
DURATION_32
POSITION_1796094
NOTE_ON_74
DURATION_4
POSITION_1796064
NOTE_ON_71
DURATION_49
POSITION_1796099
NOTE_ON_78
DURATION_68
POSITION_1796186
NOTE_ON_73
DURATION_112
POSITION_1796275
NOTE_ON_74
DURATION_49
POSITION_1796361
NOTE_ON_71
DURATION_44
POSITION_1796463
NOTE_ON_73
DURATION_29
POSITION_1796486
NOTE_ON_74
DURATION_23
POSITION_1796148
NOTE_ON_79
DURATION_403
POSITION_1796558
NOTE_ON_71
DURATION_47
POSITION_1796562
NOTE_ON_79
DURATION_104
POSITION_1796666
NOTE_ON_69
DURATION_33
POSITION_1796664
NOTE_ON_78
DURATION_94
POSITION_1796774
NOTE_ON_73
DURATION_69
POSITION_1796758
NOTE_ON_76
DURATION_93
POSITION_1796866
NOTE_ON_74
DURATION_32
POSITION_1796871
NOTE_ON_69
DURATION_31
POSITION_1796870
NOTE_ON_78
DURATION_105
POSITION_1796961
NOTE_ON_74
DURATION_68
POSITION_1797063
NOTE_ON_71
DURATION_48
POSITION_1797141
NOTE_ON_69
DURATION_44
POSITION_1797168
NOTE_ON_73
DURATION_25
POSITION_1797274
NOTE_ON_74
DURATION_34
POSITION_1797270
NOTE_ON_67
DURATION_45
POSITION_1797328
NOTE_ON_73
DURATION_18
POSITION_1797364
NOTE_ON_66
DURATION_48
POSITION_1797370
NOTE_ON_74
DURATION_49
POSITION_1797423
NOTE_ON_73
DURATION_50
POSITION_1797430
NOTE_ON_67
DURATION_76
POSITION_1797462
NOTE_ON_74
DURATION_45
POSITION_1797552
NOTE_ON_64
DURATION_40
POSITION_1797568
NOTE_ON_71
DURATION_32
POSITION_1797517
NOTE_ON_73
DURATION_86
POSITION_1797608
NOTE_ON_73
DURATION_41
POSITION_1797657
NOTE_ON_66
DURATION_48
POSITION_1797757
NOTE_ON_67
DURATION_57
POSITION_1797713
NOTE_ON_71
DURATION_101
POSITION_1797655
NOTE_ON_74
DURATION_167
POSITION_1797846
NOTE_ON_72
DURATION_30
POSITION_1797853
NOTE_ON_65
DURATION_37
POSITION_1797874
NOTE_ON_71
DURATION_48
POSITION_1797934
NOTE_ON_64
DURATION_7
POSITION_1797942
NOTE_ON_72
DURATION_32
POSITION_1797981
NOTE_ON_71
DURATION_6
POSITION_1798008
NOTE_ON_74
DURATION_37
POSITION_1798038
NOTE_ON_72
DURATION_48
POSITION_1798006
NOTE_ON_65
DURATION_130
POSITION_1798131
NOTE_ON_69
DURATION_53
POSITION_1798090
NOTE_ON_71
DURATION_105
POSITION_1798130
NOTE_ON_62
DURATION_70
POSITION_1798223
NOTE_ON_64
DURATION_85
POSITION_1798221
NOTE_ON_72
DURATION_108
POSITION_1798324
NOTE_ON_66
DURATION_36
POSITION_1798398
NOTE_ON_67
DURATION_135
POSITION_1798424
NOTE_ON_72
DURATION_113
POSITION_1798327
NOTE_ON_74
DURATION_213
POSITION_1798455
NOTE_ON_66
DURATION_93
POSITION_1798537
NOTE_ON_67
DURATION_230
POSITION_1798698
NOTE_ON_69
DURATION_72
POSITION_1798707
NOTE_ON_64
DURATION_66
POSITION_1798622
NOTE_ON_66
DURATION_152
POSITION_1798600
NOTE_ON_72
DURATION_178
POSITION_1798502
NOTE_ON_71
DURATION_284
POSITION_1798821
NOTE_ON_71
DURATION_99
POSITION_1798797
NOTE_ON_67
DURATION_154
POSITION_1798914
NOTE_ON_69
DURATION_45
POSITION_1799017
NOTE_ON_71
DURATION_65
POSITION_1799104
NOTE_ON_72
DURATION_81
POSITION_1799192
NOTE_ON_50
DURATION_37
POSITION_1799194
NOTE_ON_72
DURATION_68
POSITION_1799193
NOTE_ON_74
DURATION_210
POSITION_1799294
NOTE_ON_66
DURATION_119
POSITION_1799204
NOTE_ON_69
DURATION_219
POSITION_1799418
NOTE_ON_67
DURATION_167
POSITION_1799619
NOTE_ON_72
DURATION_150
POSITION_1799722
NOTE_ON_69
DURATION_52
POSITION_1799415
NOTE_ON_52
DURATION_364
POSITION_1799726
NOTE_ON_48
DURATION_56
POSITION_1799514
NOTE_ON_64
DURATION_286
POSITION_1799812
NOTE_ON_67
DURATION_97
POSITION_1799812
NOTE_ON_45
DURATION_99
POSITION_1799917
NOTE_ON_42
DURATION_79
POSITION_1799917
NOTE_ON_69
DURATION_93
POSITION_1800007
NOTE_ON_50
DURATION_36
POSITION_1800013
NOTE_ON_66
DURATION_106
POSITION_1800117
NOTE_ON_72
DURATION_107
POSITION_1800216
NOTE_ON_43
DURATION_27
POSITION_1800218
NOTE_ON_71
DURATION_55
POSITION_1800304
NOTE_ON_69
DURATION_59
POSITION_1800418
NOTE_ON_62
DURATION_56
POSITION_1800417
NOTE_ON_71
DURATION_105
POSITION_1800509
NOTE_ON_67
DURATION_43
POSITION_1800846
NOTE_ON_57
DURATION_6
POSITION_1800707
NOTE_ON_66
DURATION_168
POSITION_1800617
NOTE_ON_64
DURATION_273
POSITION_1800823
NOTE_ON_67
DURATION_113
POSITION_1800623
NOTE_ON_48
DURATION_337
POSITION_1800414
NOTE_ON_55
DURATION_569
POSITION_1800879
NOTE_ON_66
DURATION_111
POSITION_1800945
NOTE_ON_67
DURATION_61
POSITION_1801001
NOTE_ON_66
DURATION_66
POSITION_1800950
NOTE_ON_42
DURATION_122
POSITION_1800874
NOTE_ON_45
DURATION_200
POSITION_1801016
NOTE_ON_67
DURATION_58
POSITION_1801078
NOTE_ON_66
DURATION_58
POSITION_1801071
NOTE_ON_38
DURATION_81
POSITION_1801130
NOTE_ON_64
DURATION_63
POSITION_1801233
NOTE_ON_47
DURATION_107
POSITION_1801233
NOTE_ON_50
DURATION_126
POSITION_1801338
NOTE_ON_45
DURATION_94
POSITION_1801232
NOTE_ON_67
DURATION_211
POSITION_1801448
NOTE_ON_74
DURATION_28
POSITION_1801446
NOTE_ON_47
DURATION_86
POSITION_1801646
NOTE_ON_76
DURATION_28
POSITION_1801530
NOTE_ON_50
DURATION_144
POSITION_1801641
NOTE_ON_43
DURATION_87
POSITION_1801731
NOTE_ON_47
DURATION_47
POSITION_1801857
NOTE_ON_48
DURATION_90
POSITION_1801848
NOTE_ON_69
DURATION_141
POSITION_1801960
NOTE_ON_47
DURATION_94
POSITION_1802061
NOTE_ON_76
DURATION_58
POSITION_1802060
NOTE_ON_48
DURATION_84
POSITION_1802152
NOTE_ON_52
DURATION_91
POSITION_1802263
NOTE_ON_78
DURATION_35
POSITION_1802256
NOTE_ON_45
DURATION_83
POSITION_1802362
NOTE_ON_48
DURATION_50
POSITION_1802463
NOTE_ON_71
DURATION_37
POSITION_1802467
NOTE_ON_50
DURATION_97
POSITION_1802561
NOTE_ON_48
DURATION_90
POSITION_1802664
NOTE_ON_78
DURATION_77
POSITION_1802663
NOTE_ON_50
DURATION_116
POSITION_1802765
NOTE_ON_54
DURATION_110
POSITION_1802861
NOTE_ON_79
DURATION_57
POSITION_1802864
NOTE_ON_47
DURATION_130
POSITION_1802970
NOTE_ON_50
DURATION_112
POSITION_1803061
NOTE_ON_52
DURATION_72
POSITION_1803058
NOTE_ON_72
DURATION_116
POSITION_1803143
NOTE_ON_52
DURATION_90
POSITION_1803169
NOTE_ON_71
DURATION_110
POSITION_1803282
NOTE_ON_48
DURATION_38
POSITION_1803283
NOTE_ON_69
DURATION_103
POSITION_1803375
NOTE_ON_67
DURATION_111
POSITION_1803469
NOTE_ON_45
DURATION_36
POSITION_1803476
NOTE_ON_48
DURATION_41
POSITION_1803288
NOTE_ON_71
DURATION_229
POSITION_1803480
NOTE_ON_69
DURATION_78
POSITION_1803569
NOTE_ON_64
DURATION_98
POSITION_1803682
NOTE_ON_50
DURATION_152
POSITION_1803684
NOTE_ON_66
DURATION_215
POSITION_1803794
NOTE_ON_74
DURATION_109
POSITION_1803886
NOTE_ON_54
DURATION_35
POSITION_1803885
NOTE_ON_72
DURATION_103
POSITION_1803972
NOTE_ON_71
DURATION_40
POSITION_1804074
NOTE_ON_50
DURATION_39
POSITION_1804074
NOTE_ON_72
DURATION_126
POSITION_1804172
NOTE_ON_69
DURATION_50
POSITION_1804272
NOTE_ON_71
DURATION_116
POSITION_1804358
NOTE_ON_69
DURATION_64
POSITION_1804272
NOTE_ON_55
DURATION_184
POSITION_1804471
NOTE_ON_67
DURATION_47
POSITION_1804495
NOTE_ON_52
DURATION_51
POSITION_1804484
NOTE_ON_73
DURATION_124
POSITION_1804573
NOTE_ON_66
DURATION_110
POSITION_1804681
NOTE_ON_57
DURATION_40
POSITION_1804684
NOTE_ON_67
DURATION_51
POSITION_1804778
NOTE_ON_64
DURATION_95
POSITION_1804881
NOTE_ON_62
DURATION_11
POSITION_1804885
NOTE_ON_50
DURATION_88
POSITION_1804981
NOTE_ON_52
DURATION_85
POSITION_1804881
NOTE_ON_74
DURATION_198
POSITION_1804883
NOTE_ON_66
DURATION_211
POSITION_1805093
NOTE_ON_69
DURATION_47
POSITION_1805087
NOTE_ON_50
DURATION_92
POSITION_1805177
NOTE_ON_48
DURATION_87
POSITION_1805280
NOTE_ON_62
DURATION_67
POSITION_1805278
NOTE_ON_47
DURATION_89
POSITION_1805385
NOTE_ON_45
DURATION_56
POSITION_1805282
NOTE_ON_74
DURATION_293
POSITION_1805510
NOTE_ON_64
DURATION_153
POSITION_1805515
NOTE_ON_43
DURATION_149
POSITION_1805621
NOTE_ON_71
DURATION_43
POSITION_1805724
NOTE_ON_67
DURATION_194
POSITION_1805832
NOTE_ON_60
DURATION_92
POSITION_1805924
NOTE_ON_57
DURATION_110
POSITION_1805928
NOTE_ON_72
DURATION_111
POSITION_1805741
NOTE_ON_48
DURATION_352
POSITION_1806032
NOTE_ON_54
DURATION_64
POSITION_1806110
NOTE_ON_62
DURATION_61
POSITION_1806210
NOTE_ON_48
DURATION_99
POSITION_1806315
NOTE_ON_47
DURATION_174
POSITION_1806308
NOTE_ON_55
DURATION_181
POSITION_1806302
NOTE_ON_62
DURATION_253
POSITION_1806416
NOTE_ON_45
DURATION_139
POSITION_1806110
NOTE_ON_66
DURATION_494
POSITION_1806499
NOTE_ON_47
DURATION_151
POSITION_1806500
NOTE_ON_55
DURATION_173
POSITION_1806595
NOTE_ON_43
DURATION_81
POSITION_1806501
NOTE_ON_67
DURATION_188
POSITION_1806755
NOTE_ON_64
DURATION_91
POSITION_1806663
NOTE_ON_60
DURATION_184
POSITION_1806701
NOTE_ON_40
DURATION_146
POSITION_1806754
NOTE_ON_48
DURATION_102
POSITION_1806893
NOTE_ON_43
DURATION_103
POSITION_1807003
NOTE_ON_43
DURATION_97
POSITION_1806992
NOTE_ON_57
DURATION_122
POSITION_1806890
NOTE_ON_62
DURATION_267
POSITION_1807090
NOTE_ON_54
DURATION_92
POSITION_1807154
NOTE_ON_40
DURATION_60
POSITION_1807179
NOTE_ON_50
DURATION_93
POSITION_1807204
NOTE_ON_42
DURATION_78
POSITION_1807285
NOTE_ON_59
DURATION_57
POSITION_1807283
NOTE_ON_55
DURATION_74
POSITION_1807391
NOTE_ON_60
DURATION_123
POSITION_1807283
NOTE_ON_43
DURATION_274
POSITION_1807485
NOTE_ON_62
DURATION_99
POSITION_1807490
NOTE_ON_31
DURATION_128
POSITION_1807584
NOTE_ON_65
DURATION_113
POSITION_1807686
NOTE_ON_43
DURATION_33
POSITION_1807690
NOTE_ON_64
DURATION_93
POSITION_1807783
NOTE_ON_67
DURATION_93
POSITION_1807893
NOTE_ON_45
DURATION_76
POSITION_1807893
NOTE_ON_65
DURATION_81
POSITION_1807890
NOTE_ON_60
DURATION_150
POSITION_1807972
NOTE_ON_47
DURATION_84
POSITION_1808060
NOTE_ON_47
DURATION_126
POSITION_1808090
NOTE_ON_62
DURATION_150
POSITION_1807979
NOTE_ON_67
DURATION_284
POSITION_1808076
NOTE_ON_65
DURATION_203
POSITION_1808121
NOTE_ON_48
DURATION_173
POSITION_1808193
NOTE_ON_47
DURATION_155
POSITION_1808178
NOTE_ON_64
DURATION_170
POSITION_1808289
NOTE_ON_65
DURATION_60
POSITION_1808285
NOTE_ON_45
DURATION_75
POSITION_1808354
NOTE_ON_47
DURATION_44
POSITION_1808378
NOTE_ON_62
DURATION_107
POSITION_1808482
NOTE_ON_48
DURATION_45
POSITION_1808481
NOTE_ON_55
DURATION_48
POSITION_1808480
NOTE_ON_64
DURATION_96
POSITION_1808579
NOTE_ON_69
DURATION_66
POSITION_1808669
NOTE_ON_52
DURATION_69
POSITION_1808668
NOTE_ON_67
DURATION_102
POSITION_1808673
NOTE_ON_50
DURATION_151
POSITION_1808745
NOTE_ON_49
DURATION_94
POSITION_1808770
NOTE_ON_66
DURATION_201
POSITION_1808875
NOTE_ON_67
DURATION_110
POSITION_1808879
NOTE_ON_47
DURATION_137
POSITION_1808958
NOTE_ON_49
DURATION_58
POSITION_1808835
NOTE_ON_50
DURATION_227
POSITION_1808966
NOTE_ON_64
DURATION_127
POSITION_1809070
NOTE_ON_50
DURATION_112
POSITION_1809073
NOTE_ON_66
DURATION_110
POSITION_1809182
NOTE_ON_71
DURATION_40
POSITION_1809285
NOTE_ON_54
DURATION_72
POSITION_1809287
NOTE_ON_52
DURATION_87
POSITION_1809288
NOTE_ON_69
DURATION_90
POSITION_1809382
NOTE_ON_67
DURATION_65
POSITION_1809482
NOTE_ON_54
DURATION_118
POSITION_1809484
NOTE_ON_69
DURATION_122
POSITION_1809485
NOTE_ON_52
DURATION_129
POSITION_1809380
NOTE_ON_51
DURATION_235
POSITION_1809573
NOTE_ON_66
DURATION_47
POSITION_1809604
NOTE_ON_54
DURATION_34
POSITION_1809677
NOTE_ON_67
DURATION_47
POSITION_1809681
NOTE_ON_52
DURATION_118
POSITION_1809775
NOTE_ON_62
DURATION_37
POSITION_1809781
NOTE_ON_54
DURATION_72
POSITION_1809901
NOTE_ON_55
DURATION_113
POSITION_1809889
NOTE_ON_60
DURATION_194
POSITION_1809896
NOTE_ON_54
DURATION_210
POSITION_1810111
NOTE_ON_54
DURATION_141
POSITION_1810189
NOTE_ON_57
DURATION_75
POSITION_1810092
NOTE_ON_60
DURATION_172
POSITION_1809886
NOTE_ON_69
DURATION_378
POSITION_1810193
NOTE_ON_52
DURATION_72
POSITION_1810028
NOTE_ON_67
DURATION_255
POSITION_1810021
NOTE_ON_55
DURATION_270
POSITION_1810005
NOTE_ON_59
DURATION_286
POSITION_1810260
NOTE_ON_54
DURATION_46
POSITION_1810298
NOTE_ON_55
DURATION_26
POSITION_1810297
NOTE_ON_59
DURATION_86
POSITION_1810502
NOTE_ON_35
DURATION_47
POSITION_1810502
NOTE_ON_47
DURATION_81
POSITION_1810502
NOTE_ON_67
DURATION_111
POSITION_1810394
NOTE_ON_59
DURATION_242
POSITION_1810602
NOTE_ON_71
DURATION_35
POSITION_1810393
NOTE_ON_62
DURATION_346
POSITION_1810723
NOTE_ON_50
DURATION_25
POSITION_1810724
NOTE_ON_38
DURATION_32
POSITION_1810723
NOTE_ON_69
DURATION_41
POSITION_1810826
NOTE_ON_66
DURATION_57
POSITION_1811001
NOTE_ON_66
DURATION_237
POSITION_1811009
NOTE_ON_60
DURATION_334
POSITION_1811316
NOTE_ON_67
DURATION_37
POSITION_1811002
NOTE_ON_31
DURATION_353
POSITION_1811318
NOTE_ON_59
DURATION_63
POSITION_1811002
NOTE_ON_43
DURATION_395
POSITION_1811556
NOTE_ON_57
DURATION_43
POSITION_1811820
NOTE_ON_59
DURATION_7
POSITION_1811820
NOTE_ON_50
DURATION_60
POSITION_1812077
NOTE_ON_55
DURATION_53
POSITION_1812124
NOTE_ON_54
DURATION_76
POSITION_1812185
NOTE_ON_55
DURATION_301
POSITION_1812731
NOTE_ON_55
DURATION_127
POSITION_1812831
NOTE_ON_54
DURATION_105
POSITION_1812926
NOTE_ON_52
DURATION_101
POSITION_1813038
NOTE_ON_54
DURATION_84
POSITION_1813129
NOTE_ON_50
DURATION_94
POSITION_1813235
NOTE_ON_47
DURATION_100
POSITION_1813329
NOTE_ON_49
DURATION_77
POSITION_1813425
NOTE_ON_50
DURATION_49
POSITION_1813483
NOTE_ON_49
DURATION_52
POSITION_1813542
NOTE_ON_50
DURATION_33
POSITION_1813600
NOTE_ON_49
DURATION_46
POSITION_1813659
NOTE_ON_50
DURATION_66
POSITION_1813735
NOTE_ON_49
DURATION_119
POSITION_1813807
NOTE_ON_47
DURATION_50
POSITION_1813866
NOTE_ON_49
DURATION_73
POSITION_1813933
NOTE_ON_50
DURATION_121
POSITION_1814065
NOTE_ON_50
DURATION_4
POSITION_1814025
NOTE_ON_49
DURATION_112
POSITION_1814144
NOTE_ON_50
DURATION_61
POSITION_1814239
NOTE_ON_52
DURATION_86
POSITION_1814334
NOTE_ON_62
DURATION_36
POSITION_1814347
NOTE_ON_54
DURATION_68
POSITION_1814442
NOTE_ON_50
DURATION_77
POSITION_1814564
NOTE_ON_55
DURATION_53
POSITION_1814564
NOTE_ON_52
DURATION_77
POSITION_1814656
NOTE_ON_50
DURATION_94
POSITION_1814770
NOTE_ON_60
DURATION_43
POSITION_1814769
NOTE_ON_52
DURATION_49
POSITION_1814816
NOTE_ON_59
DURATION_52
POSITION_1814867
NOTE_ON_54
DURATION_75
POSITION_1814968
NOTE_ON_55
DURATION_62
POSITION_1814867
NOTE_ON_60
DURATION_243
POSITION_1815087
NOTE_ON_52
DURATION_62
POSITION_1815195
NOTE_ON_54
DURATION_39
POSITION_1815307
NOTE_ON_60
DURATION_98
POSITION_1815417
NOTE_ON_50
DURATION_43
POSITION_1815416
NOTE_ON_59
DURATION_82
POSITION_1815512
NOTE_ON_57
DURATION_83
POSITION_1815622
NOTE_ON_55
DURATION_34
POSITION_1815619
NOTE_ON_59
DURATION_97
POSITION_1815717
NOTE_ON_55
DURATION_76
POSITION_1815816
NOTE_ON_52
DURATION_79
POSITION_1815912
NOTE_ON_54
DURATION_43
POSITION_1815921
NOTE_ON_50
DURATION_48
POSITION_1816022
NOTE_ON_55
DURATION_46
POSITION_1816024
NOTE_ON_48
DURATION_45
POSITION_1816070
NOTE_ON_54
DURATION_88
POSITION_1816124
NOTE_ON_55
DURATION_88
POSITION_1816169
NOTE_ON_54
DURATION_58
POSITION_1816221
NOTE_ON_55
DURATION_50
POSITION_1816260
NOTE_ON_48
DURATION_64
POSITION_1816272
NOTE_ON_54
DURATION_94
POSITION_1816329
NOTE_ON_52
DURATION_50
POSITION_1816370
NOTE_ON_54
DURATION_61
POSITION_1816370
NOTE_ON_45
DURATION_65
POSITION_1816421
NOTE_ON_55
DURATION_96
POSITION_1816492
NOTE_ON_52
DURATION_101
POSITION_1816610
NOTE_ON_57
DURATION_40
POSITION_1816614
NOTE_ON_50
DURATION_82
POSITION_1816663
NOTE_ON_56
DURATION_39
POSITION_1816709
NOTE_ON_57
DURATION_39
POSITION_1816708
NOTE_ON_49
DURATION_49
POSITION_1816762
NOTE_ON_56
DURATION_30
POSITION_1816806
NOTE_ON_57
DURATION_48
POSITION_1816793
NOTE_ON_50
DURATION_107
POSITION_1816863
NOTE_ON_56
DURATION_42
POSITION_1816915
NOTE_ON_54
DURATION_55
POSITION_1816891
NOTE_ON_47
DURATION_112
POSITION_1817022
NOTE_ON_57
DURATION_89
POSITION_1817122
NOTE_ON_57
DURATION_96
POSITION_1817121
NOTE_ON_59
DURATION_104
POSITION_1816969
NOTE_ON_56
DURATION_272
POSITION_1817205
NOTE_ON_52
DURATION_58
POSITION_1817007
NOTE_ON_49
DURATION_265
POSITION_1817270
NOTE_ON_51
DURATION_54
POSITION_1817223
NOTE_ON_57
DURATION_105
POSITION_1817329
NOTE_ON_52
DURATION_81
POSITION_1817329
NOTE_ON_55
DURATION_91
POSITION_1817421
NOTE_ON_52
DURATION_81
POSITION_1817417
NOTE_ON_51
DURATION_104
POSITION_1817420
NOTE_ON_57
DURATION_121
POSITION_1817509
NOTE_ON_52
DURATION_85
POSITION_1817514
NOTE_ON_54
DURATION_91
POSITION_1817521
NOTE_ON_49
DURATION_94
POSITION_1817606
NOTE_ON_51
DURATION_54
POSITION_1817652
NOTE_ON_52
DURATION_74
POSITION_1817613
NOTE_ON_55
DURATION_117
POSITION_1817752
NOTE_ON_54
DURATION_62
POSITION_1817722
NOTE_ON_59
DURATION_99
POSITION_1817821
NOTE_ON_57
DURATION_69
POSITION_1817828
NOTE_ON_55
DURATION_66
POSITION_1817898
NOTE_ON_54
DURATION_61
POSITION_1817921
NOTE_ON_59
DURATION_98
POSITION_1817974
NOTE_ON_55
DURATION_56
POSITION_1818033
NOTE_ON_60
DURATION_36
POSITION_1818028
NOTE_ON_69
DURATION_46
POSITION_1818033
NOTE_ON_54
DURATION_72
POSITION_1818120
NOTE_ON_57
DURATION_58
POSITION_1818118
NOTE_ON_55
DURATION_68
POSITION_1818195
NOTE_ON_52
DURATION_55
POSITION_1818213
NOTE_ON_54
DURATION_49
POSITION_1818257
NOTE_ON_55
DURATION_37
POSITION_1818252
NOTE_ON_59
DURATION_87
POSITION_1818243
NOTE_ON_62
DURATION_110
POSITION_1818349
NOTE_ON_57
DURATION_132
POSITION_1818480
NOTE_ON_52
DURATION_32
POSITION_1818479
NOTE_ON_59
DURATION_106
POSITION_1818567
NOTE_ON_61
DURATION_90
POSITION_1818475
NOTE_ON_67
DURATION_256
POSITION_1818678
NOTE_ON_62
DURATION_100
POSITION_1818777
NOTE_ON_59
DURATION_65
POSITION_1818888
NOTE_ON_57
DURATION_32
POSITION_1818888
NOTE_ON_61
DURATION_33
POSITION_1818989
NOTE_ON_67
DURATION_74
POSITION_1819098
NOTE_ON_57
DURATION_28
POSITION_1819101
NOTE_ON_66
DURATION_71
POSITION_1819102
NOTE_ON_50
DURATION_174
POSITION_1819191
NOTE_ON_64
DURATION_89
POSITION_1819294
NOTE_ON_62
DURATION_33
POSITION_1819295
NOTE_ON_66
DURATION_113
POSITION_1819383
NOTE_ON_62
DURATION_85
POSITION_1819503
NOTE_ON_43
DURATION_54
POSITION_1819495
NOTE_ON_59
DURATION_77
POSITION_1819493
NOTE_ON_62
DURATION_91
POSITION_1819590
NOTE_ON_61
DURATION_37
POSITION_1819592
NOTE_ON_57
DURATION_40
POSITION_1819704
NOTE_ON_62
DURATION_31
POSITION_1819718
NOTE_ON_55
DURATION_70
POSITION_1819744
NOTE_ON_52
DURATION_64
POSITION_1819746
NOTE_ON_61
DURATION_76
POSITION_1819799
NOTE_ON_62
DURATION_76
POSITION_1819830
NOTE_ON_61
DURATION_68
POSITION_1819810
NOTE_ON_54
DURATION_100
POSITION_1819887
NOTE_ON_62
DURATION_37
POSITION_1819940
NOTE_ON_61
DURATION_51
POSITION_1819996
NOTE_ON_59
DURATION_43
POSITION_1819926
NOTE_ON_55
DURATION_119
POSITION_1820033
NOTE_ON_61
DURATION_48
POSITION_1820002
NOTE_ON_52
DURATION_88
POSITION_1820094
NOTE_ON_62
DURATION_78
POSITION_1820059
NOTE_ON_54
DURATION_124
POSITION_1820192
NOTE_ON_56
DURATION_32
POSITION_1820196
NOTE_ON_59
DURATION_56
POSITION_1820179
NOTE_ON_64
DURATION_117
POSITION_1820292
NOTE_ON_57
DURATION_44
POSITION_1820287
NOTE_ON_47
DURATION_111
POSITION_1820364
NOTE_ON_56
DURATION_80
POSITION_1820293
NOTE_ON_62
DURATION_204
POSITION_1820431
NOTE_ON_57
DURATION_170
POSITION_1820556
NOTE_ON_56
DURATION_49
POSITION_1820501
NOTE_ON_62
DURATION_106
POSITION_1820556
NOTE_ON_54
DURATION_52
POSITION_1820394
NOTE_ON_61
DURATION_226
POSITION_1820603
NOTE_ON_59
DURATION_66
POSITION_1820670
NOTE_ON_57
DURATION_32
POSITION_1820675
NOTE_ON_61
DURATION_61
POSITION_1820780
NOTE_ON_63
DURATION_64
POSITION_1820793
NOTE_ON_47
DURATION_96
POSITION_1820894
NOTE_ON_64
DURATION_39
POSITION_1820916
NOTE_ON_54
DURATION_73
POSITION_1820911
NOTE_ON_45
DURATION_80
POSITION_1821000
NOTE_ON_64
DURATION_38
POSITION_1820946
NOTE_ON_63
DURATION_97
POSITION_1821054
NOTE_ON_63
DURATION_42
POSITION_1821100
NOTE_ON_64
DURATION_45
POSITION_1821107
NOTE_ON_63
DURATION_43
POSITION_1821006
NOTE_ON_43
DURATION_167
POSITION_1821195
NOTE_ON_52
DURATION_9
POSITION_1821154
NOTE_ON_63
DURATION_88
POSITION_1821116
NOTE_ON_45
DURATION_138
POSITION_1821202
NOTE_ON_61
DURATION_56
POSITION_1821250
NOTE_ON_63
DURATION_43
POSITION_1821244
NOTE_ON_42
DURATION_108
POSITION_1821299
NOTE_ON_64
DURATION_70
POSITION_1821332
NOTE_ON_43
DURATION_95
POSITION_1821408
NOTE_ON_71
DURATION_74
POSITION_1821507
NOTE_ON_45
DURATION_38
POSITION_1821507
NOTE_ON_69
DURATION_89
POSITION_1821613
NOTE_ON_67
DURATION_62
POSITION_1821617
NOTE_ON_64
DURATION_79
POSITION_1821708
NOTE_ON_47
DURATION_45
POSITION_1821709
NOTE_ON_69
DURATION_44
POSITION_1821794
NOTE_ON_66
DURATION_86
POSITION_1821912
NOTE_ON_40
DURATION_91
POSITION_1821906
NOTE_ON_67
DURATION_112
POSITION_1821998
NOTE_ON_64
DURATION_86
POSITION_1822098
NOTE_ON_69
DURATION_36
POSITION_1822147
NOTE_ON_68
DURATION_29
POSITION_1822118
NOTE_ON_62
DURATION_62
POSITION_1822206
NOTE_ON_69
DURATION_32
POSITION_1822206
NOTE_ON_60
DURATION_33
POSITION_1822254
NOTE_ON_68
DURATION_48
POSITION_1822285
NOTE_ON_62
DURATION_44
POSITION_1822306
NOTE_ON_69
DURATION_50
POSITION_1822390
NOTE_ON_66
DURATION_49
POSITION_1822383
NOTE_ON_68
DURATION_57
POSITION_1822386
NOTE_ON_59
DURATION_78
POSITION_1822452
NOTE_ON_68
DURATION_30
POSITION_1822500
NOTE_ON_69
DURATION_37
POSITION_1822510
NOTE_ON_60
DURATION_33
POSITION_1822603
NOTE_ON_76
DURATION_102
POSITION_1822712
NOTE_ON_62
DURATION_33
POSITION_1822707
NOTE_ON_74
DURATION_93
POSITION_1822805
NOTE_ON_72
DURATION_119
POSITION_1822915
NOTE_ON_64
DURATION_36
POSITION_1822914
NOTE_ON_74
DURATION_90
POSITION_1823010
NOTE_ON_71
DURATION_44
POSITION_1823119
NOTE_ON_57
DURATION_104
POSITION_1823120
NOTE_ON_72
DURATION_150
POSITION_1823219
NOTE_ON_81
DURATION_113
POSITION_1823339
NOTE_ON_62
DURATION_35
POSITION_1823335
NOTE_ON_79
DURATION_93
POSITION_1823434
NOTE_ON_77
DURATION_108
POSITION_1823535
NOTE_ON_79
DURATION_92
POSITION_1823619
NOTE_ON_76
DURATION_122
POSITION_1823727
NOTE_ON_77
DURATION_47
POSITION_1823834
NOTE_ON_62
DURATION_55
POSITION_1823941
NOTE_ON_68
DURATION_28
POSITION_1823942
NOTE_ON_60
DURATION_38
POSITION_1824053
NOTE_ON_59
DURATION_51
POSITION_1824147
NOTE_ON_69
DURATION_129
POSITION_1824143
NOTE_ON_60
DURATION_179
POSITION_1824211
NOTE_ON_57
DURATION_118
POSITION_1824334
NOTE_ON_54
DURATION_77
POSITION_1824434
NOTE_ON_56
DURATION_54
POSITION_1824518
NOTE_ON_57
DURATION_48
POSITION_1824441
NOTE_ON_84
DURATION_128
POSITION_1824582
NOTE_ON_56
DURATION_51
POSITION_1824554
NOTE_ON_83
DURATION_90
POSITION_1824648
NOTE_ON_57
DURATION_110
POSITION_1824646
NOTE_ON_81
DURATION_206
POSITION_1824735
NOTE_ON_83
DURATION_123
POSITION_1824743
NOTE_ON_56
DURATION_124
POSITION_1824821
NOTE_ON_74
DURATION_50
POSITION_1824820
NOTE_ON_54
DURATION_64
POSITION_1824876
NOTE_ON_56
DURATION_28
POSITION_1824903
NOTE_ON_57
DURATION_43
POSITION_1824934
NOTE_ON_74
DURATION_64
POSITION_1824933
NOTE_ON_72
DURATION_93
POSITION_1825023
NOTE_ON_83
DURATION_115
POSITION_1825132
NOTE_ON_60
DURATION_38
POSITION_1825131
NOTE_ON_81
DURATION_44
POSITION_1825226
NOTE_ON_80
DURATION_125
POSITION_1825339
NOTE_ON_64
DURATION_28
POSITION_1825337
NOTE_ON_81
DURATION_41
POSITION_1825425
NOTE_ON_72
DURATION_44
POSITION_1825518
NOTE_ON_81
DURATION_42
POSITION_1825531
NOTE_ON_63
DURATION_40
POSITION_1825542
NOTE_ON_71
DURATION_39
POSITION_1825640
NOTE_ON_81
DURATION_118
POSITION_1825741
NOTE_ON_71
DURATION_31
POSITION_1825747
NOTE_ON_79
DURATION_63
POSITION_1825845
NOTE_ON_78
DURATION_97
POSITION_1825940
NOTE_ON_64
DURATION_28
POSITION_1825939
NOTE_ON_79
DURATION_52
POSITION_1826034
NOTE_ON_71
DURATION_50
POSITION_1826147
NOTE_ON_69
DURATION_63
POSITION_1826139
NOTE_ON_72
DURATION_95
POSITION_1826239
NOTE_ON_71
DURATION_61
POSITION_1826236
NOTE_ON_79
DURATION_116
POSITION_1826329
NOTE_ON_69
DURATION_55
POSITION_1826330
NOTE_ON_78
DURATION_99
POSITION_1826417
NOTE_ON_67
DURATION_64
POSITION_1826421
NOTE_ON_76
DURATION_123
POSITION_1826530
NOTE_ON_78
DURATION_101
POSITION_1826529
NOTE_ON_69
DURATION_105
POSITION_1826616
NOTE_ON_66
DURATION_72
POSITION_1826619
NOTE_ON_81
DURATION_102
POSITION_1826737
NOTE_ON_71
DURATION_38
POSITION_1826733
NOTE_ON_75
DURATION_66
POSITION_1826813
NOTE_ON_76
DURATION_37
POSITION_1826814
NOTE_ON_69
DURATION_66
POSITION_1826917
NOTE_ON_78
DURATION_53
POSITION_1826944
NOTE_ON_67
DURATION_42
POSITION_1826975
NOTE_ON_76
DURATION_89
POSITION_1827037
NOTE_ON_66
DURATION_44
POSITION_1827044
NOTE_ON_78
DURATION_38
POSITION_1827073
NOTE_ON_76
DURATION_65
POSITION_1827117
NOTE_ON_67
DURATION_43
POSITION_1827139
NOTE_ON_78
DURATION_49
POSITION_1827195
NOTE_ON_76
DURATION_49
POSITION_1827247
NOTE_ON_64
DURATION_32
POSITION_1827255
NOTE_ON_75
DURATION_27
POSITION_1827327
NOTE_ON_76
DURATION_49
POSITION_1827368
NOTE_ON_63
DURATION_43
POSITION_1827374
NOTE_ON_78
DURATION_123
POSITION_1827481
NOTE_ON_76
DURATION_95
POSITION_1827585
NOTE_ON_66
DURATION_33
POSITION_1827585
NOTE_ON_75
DURATION_63
POSITION_1827601
NOTE_ON_78
DURATION_85
POSITION_1827691
NOTE_ON_78
DURATION_79
POSITION_1827777
NOTE_ON_59
DURATION_36
POSITION_1827696
NOTE_ON_81
DURATION_128
POSITION_1827799
NOTE_ON_79
DURATION_106
POSITION_1827900
NOTE_ON_76
DURATION_32
POSITION_1827898
NOTE_ON_78
DURATION_141
POSITION_1828029
NOTE_ON_76
DURATION_264
POSITION_1828241
NOTE_ON_69
DURATION_59
POSITION_1828026
NOTE_ON_60
DURATION_295
POSITION_1828335
NOTE_ON_57
DURATION_84
POSITION_1828240
NOTE_ON_81
DURATION_183
POSITION_1828434
NOTE_ON_54
DURATION_79
POSITION_1828526
NOTE_ON_51
DURATION_45
POSITION_1828458
NOTE_ON_72
DURATION_165
POSITION_1828622
NOTE_ON_59
DURATION_37
POSITION_1828627
NOTE_ON_63
DURATION_41
POSITION_1828735
NOTE_ON_81
DURATION_126
POSITION_1828842
NOTE_ON_79
DURATION_85
POSITION_1829029
NOTE_ON_64
DURATION_152
POSITION_1828935
NOTE_ON_78
DURATION_250
POSITION_1829036
NOTE_ON_79
DURATION_149
POSITION_1828841
NOTE_ON_52
DURATION_344
POSITION_1829119
NOTE_ON_76
DURATION_68
POSITION_1829245
NOTE_ON_73
DURATION_169
POSITION_1829322
NOTE_ON_75
DURATION_161
POSITION_1829422
NOTE_ON_76
DURATION_122
POSITION_1829494
NOTE_ON_75
DURATION_89
POSITION_1829549
NOTE_ON_76
DURATION_88
POSITION_1829593
NOTE_ON_75
DURATION_57
POSITION_1829446
NOTE_ON_66
DURATION_215
POSITION_1829517
NOTE_ON_54
DURATION_166
POSITION_1829648
NOTE_ON_76
DURATION_73
POSITION_1829235
NOTE_ON_57
DURATION_532
POSITION_1829614
NOTE_ON_51
DURATION_176
POSITION_1829762
NOTE_ON_73
DURATION_40
POSITION_1829746
NOTE_ON_47
DURATION_57
POSITION_1829702
NOTE_ON_75
DURATION_111
POSITION_1829817
NOTE_ON_75
DURATION_37
POSITION_1829869
NOTE_ON_76
DURATION_79
POSITION_1829868
NOTE_ON_55
DURATION_93
POSITION_1829865
NOTE_ON_59
DURATION_98
POSITION_1829957
NOTE_ON_75
DURATION_88
POSITION_1829979
NOTE_ON_54
DURATION_76
POSITION_1830079
NOTE_ON_55
DURATION_60
POSITION_1830048
NOTE_ON_76
DURATION_98
POSITION_1830143
NOTE_ON_79
DURATION_93
POSITION_1830158
NOTE_ON_59
DURATION_82
POSITION_1830254
NOTE_ON_51
DURATION_64
POSITION_1830251
NOTE_ON_78
DURATION_101
POSITION_1830345
NOTE_ON_54
DURATION_48
POSITION_1830342
NOTE_ON_81
DURATION_135
POSITION_1830453
NOTE_ON_79
DURATION_105
POSITION_1830552
NOTE_ON_78
DURATION_123
POSITION_1830664
NOTE_ON_59
DURATION_29
POSITION_1830664
NOTE_ON_79
DURATION_102
POSITION_1830759
NOTE_ON_83
DURATION_119
POSITION_1830862
NOTE_ON_60
DURATION_50
POSITION_1830863
NOTE_ON_76
DURATION_113
POSITION_1830956
NOTE_ON_80
DURATION_105
POSITION_1830471
NOTE_ON_52
DURATION_597
POSITION_1831065
NOTE_ON_81
DURATION_111
POSITION_1831277
NOTE_ON_60
DURATION_35
POSITION_1831157
NOTE_ON_80
DURATION_192
POSITION_1831276
NOTE_ON_81
DURATION_91
POSITION_1831461
NOTE_ON_62
DURATION_34
POSITION_1831361
NOTE_ON_84
DURATION_203
POSITION_1831462
NOTE_ON_78
DURATION_127
POSITION_1831558
NOTE_ON_81
DURATION_106
POSITION_1831071
NOTE_ON_54
DURATION_595
POSITION_1831669
NOTE_ON_81
DURATION_34
POSITION_1831669
NOTE_ON_83
DURATION_126
POSITION_1831771
NOTE_ON_81
DURATION_118
POSITION_1831923
NOTE_ON_62
DURATION_39
POSITION_1831882
NOTE_ON_83
DURATION_115
POSITION_1831971
NOTE_ON_86
DURATION_127
POSITION_1832100
NOTE_ON_64
DURATION_125
POSITION_1832081
NOTE_ON_80
DURATION_182
POSITION_1831673
NOTE_ON_56
DURATION_626
POSITION_1832184
NOTE_ON_83
DURATION_121
POSITION_1832292
NOTE_ON_84
DURATION_120
POSITION_1832299
NOTE_ON_57
DURATION_204
POSITION_1832399
NOTE_ON_83
DURATION_121
POSITION_1832504
NOTE_ON_81
DURATION_108
POSITION_1832600
NOTE_ON_80
DURATION_67
POSITION_1832505
NOTE_ON_59
DURATION_175
POSITION_1832692
NOTE_ON_81
DURATION_107
POSITION_1832788
NOTE_ON_76
DURATION_122
POSITION_1832905
NOTE_ON_69
DURATION_36
POSITION_1832904
NOTE_ON_77
DURATION_213
POSITION_1832693
NOTE_ON_60
DURATION_424
POSITION_1833220
NOTE_ON_86
DURATION_131
POSITION_1833129
NOTE_ON_59
DURATION_271
POSITION_1833321
NOTE_ON_57
DURATION_112
POSITION_1833125
NOTE_ON_74
DURATION_309
POSITION_1833322
NOTE_ON_83
DURATION_117
POSITION_1833416
NOTE_ON_80
DURATION_130
POSITION_1833521
NOTE_ON_56
DURATION_44
POSITION_1833516
NOTE_ON_76
DURATION_102
POSITION_1833614
NOTE_ON_74
DURATION_81
POSITION_1833728
NOTE_ON_57
DURATION_38
POSITION_1833730
NOTE_ON_72
DURATION_47
POSITION_1833825
NOTE_ON_71
DURATION_47
POSITION_1833724
NOTE_ON_81
DURATION_198
POSITION_1833922
NOTE_ON_72
DURATION_107
POSITION_1834020
NOTE_ON_69
DURATION_94
POSITION_1834133
NOTE_ON_66
DURATION_36
POSITION_1834124
NOTE_ON_69
DURATION_159
POSITION_1834286
NOTE_ON_72
DURATION_5
POSITION_1834212
NOTE_ON_68
DURATION_109
POSITION_1834287
NOTE_ON_69
DURATION_96
POSITION_1834332
NOTE_ON_68
DURATION_135
POSITION_1834389
NOTE_ON_69
DURATION_132
POSITION_1834532
NOTE_ON_69
DURATION_66
POSITION_1834126
NOTE_ON_74
DURATION_514
POSITION_1834424
NOTE_ON_83
DURATION_216
POSITION_1834607
NOTE_ON_69
DURATION_34
POSITION_1834518
NOTE_ON_80
DURATION_124
POSITION_1834603
NOTE_ON_66
DURATION_45
POSITION_1834603
NOTE_ON_76
DURATION_47
POSITION_1834474
NOTE_ON_68
DURATION_178
POSITION_1834656
NOTE_ON_68
DURATION_49
POSITION_1834695
NOTE_ON_72
DURATION_42
POSITION_1834716
NOTE_ON_69
DURATION_66
POSITION_1834815
NOTE_ON_68
DURATION_67
POSITION_1834904
NOTE_ON_76
DURATION_26
POSITION_1834912
NOTE_ON_69
DURATION_47
POSITION_1835007
NOTE_ON_71
DURATION_68
POSITION_1835097
NOTE_ON_76
DURATION_35
POSITION_1835094
NOTE_ON_81
DURATION_49
POSITION_1835106
NOTE_ON_72
DURATION_45
POSITION_1835211
NOTE_ON_69
DURATION_45
POSITION_1835312
NOTE_ON_74
DURATION_35
POSITION_1835316
NOTE_ON_71
DURATION_31
POSITION_1835416
NOTE_ON_69
DURATION_40
POSITION_1835509
NOTE_ON_71
DURATION_25
POSITION_1835517
NOTE_ON_79
DURATION_30
POSITION_1835547
NOTE_ON_78
DURATION_67
POSITION_1835614
NOTE_ON_69
DURATION_5
POSITION_1835613
NOTE_ON_73
DURATION_30
POSITION_1835711
NOTE_ON_71
DURATION_31
POSITION_1835715
NOTE_ON_74
DURATION_36
POSITION_1835829
NOTE_ON_71
DURATION_34
POSITION_1835941
NOTE_ON_73
DURATION_29
POSITION_1835608
NOTE_ON_79
DURATION_411
POSITION_1836024
NOTE_ON_71
DURATION_48
POSITION_1836139
NOTE_ON_69
DURATION_23
POSITION_1836029
NOTE_ON_79
DURATION_136
POSITION_1836145
NOTE_ON_73
DURATION_73
POSITION_1836159
NOTE_ON_78
DURATION_98
POSITION_1836244
NOTE_ON_73
DURATION_63
POSITION_1836238
NOTE_ON_76
DURATION_72
POSITION_1836341
NOTE_ON_69
DURATION_8
POSITION_1836339
NOTE_ON_74
DURATION_36
POSITION_1836345
NOTE_ON_78
DURATION_65
POSITION_1836434
NOTE_ON_74
DURATION_99
POSITION_1836543
NOTE_ON_74
DURATION_27
POSITION_1836538
NOTE_ON_71
DURATION_40
POSITION_1836634
NOTE_ON_73
DURATION_36
POSITION_1836632
NOTE_ON_69
DURATION_42
POSITION_1836738
NOTE_ON_74
DURATION_36
POSITION_1836744
NOTE_ON_67
DURATION_46
POSITION_1836779
NOTE_ON_73
DURATION_46
POSITION_1836833
NOTE_ON_74
DURATION_35
POSITION_1836844
NOTE_ON_66
DURATION_38
POSITION_1836887
NOTE_ON_73
DURATION_84
POSITION_1836934
NOTE_ON_74
DURATION_38
POSITION_1836936
NOTE_ON_67
DURATION_49
POSITION_1836981
NOTE_ON_73
DURATION_27
POSITION_1837039
NOTE_ON_71
DURATION_36
POSITION_1837021
NOTE_ON_64
DURATION_56
POSITION_1837075
NOTE_ON_74
DURATION_34
POSITION_1837116
NOTE_ON_66
DURATION_162
POSITION_1837114
NOTE_ON_74
DURATION_187
POSITION_1837196
NOTE_ON_67
DURATION_107
POSITION_1837304
NOTE_ON_72
DURATION_26
POSITION_1837309
NOTE_ON_65
DURATION_41
POSITION_1837340
NOTE_ON_71
DURATION_35
POSITION_1837402
NOTE_ON_72
DURATION_33
POSITION_1837399
NOTE_ON_64
DURATION_44
POSITION_1837499
NOTE_ON_72
DURATION_51
POSITION_1837467
NOTE_ON_65
DURATION_129
POSITION_1837547
NOTE_ON_71
DURATION_61
POSITION_1837592
NOTE_ON_69
DURATION_46
POSITION_1837590
NOTE_ON_62
DURATION_55
POSITION_1837668
NOTE_ON_71
DURATION_71
POSITION_1837675
NOTE_ON_64
DURATION_114
POSITION_1837698
NOTE_ON_72
DURATION_109
POSITION_1837798
NOTE_ON_66
DURATION_50
POSITION_1837880
NOTE_ON_67
DURATION_35
POSITION_1837798
NOTE_ON_74
DURATION_125
POSITION_1837897
NOTE_ON_72
DURATION_93
POSITION_1837917
NOTE_ON_66
DURATION_106
POSITION_1838088
NOTE_ON_66
DURATION_50
POSITION_1838078
NOTE_ON_72
DURATION_99
POSITION_1837989
NOTE_ON_67
DURATION_234
POSITION_1837978
NOTE_ON_71
DURATION_245
POSITION_1838184
NOTE_ON_69
DURATION_43
POSITION_1838188
NOTE_ON_64
DURATION_46
POSITION_1838187
NOTE_ON_72
DURATION_48
POSITION_1838350
NOTE_ON_64
DURATION_11
POSITION_1838281
NOTE_ON_71
DURATION_103
POSITION_1838272
NOTE_ON_67
DURATION_181
POSITION_1838374
NOTE_ON_69
DURATION_110
POSITION_1838476
NOTE_ON_71
DURATION_116
POSITION_1838571
NOTE_ON_72
DURATION_97
POSITION_1838671
NOTE_ON_50
DURATION_28
POSITION_1838772
NOTE_ON_66
DURATION_135
POSITION_1838672
NOTE_ON_74
DURATION_238
POSITION_1838680
NOTE_ON_72
DURATION_265
POSITION_1838894
NOTE_ON_67
DURATION_105
POSITION_1839111
NOTE_ON_72
DURATION_121
POSITION_1838894
NOTE_ON_52
DURATION_342
POSITION_1838997
NOTE_ON_64
DURATION_278
POSITION_1839202
NOTE_ON_48
DURATION_96
POSITION_1839201
NOTE_ON_69
DURATION_97
POSITION_1839302
NOTE_ON_67
DURATION_60
POSITION_1839301
NOTE_ON_45
DURATION_90
POSITION_1839390
NOTE_ON_42
DURATION_119
POSITION_1839393
NOTE_ON_69
DURATION_119
POSITION_1839499
NOTE_ON_50
DURATION_60
POSITION_1839496
NOTE_ON_66
DURATION_83
POSITION_1839600
NOTE_ON_72
DURATION_78
POSITION_1839704
NOTE_ON_43
DURATION_40
POSITION_1839703
NOTE_ON_71
DURATION_65
POSITION_1839789
NOTE_ON_69
DURATION_131
POSITION_1839901
NOTE_ON_71
DURATION_48
POSITION_1839901
NOTE_ON_62
DURATION_51
POSITION_1839901
NOTE_ON_55
DURATION_88
POSITION_1839995
NOTE_ON_67
DURATION_53
POSITION_1840103
NOTE_ON_64
DURATION_68
POSITION_1839997
NOTE_ON_55
DURATION_238
POSITION_1840194
NOTE_ON_66
DURATION_156
POSITION_1840310
NOTE_ON_67
DURATION_102
POSITION_1840417
NOTE_ON_67
DURATION_95
POSITION_1840359
NOTE_ON_66
DURATION_154
POSITION_1840355
NOTE_ON_45
DURATION_159
POSITION_1840107
NOTE_ON_48
DURATION_420
POSITION_1840516
NOTE_ON_67
DURATION_34
POSITION_1840462
NOTE_ON_42
DURATION_96
POSITION_1840576
NOTE_ON_66
DURATION_47
POSITION_1840621
NOTE_ON_64
DURATION_39
POSITION_1840571
NOTE_ON_38
DURATION_94
POSITION_1840669
NOTE_ON_66
DURATION_56
POSITION_1840739
NOTE_ON_47
DURATION_97
POSITION_1840739
NOTE_ON_50
DURATION_164
POSITION_1840836
NOTE_ON_45
DURATION_88
POSITION_1840734
NOTE_ON_67
DURATION_203
POSITION_1840936
NOTE_ON_74
DURATION_27
POSITION_1840937
NOTE_ON_47
DURATION_93
POSITION_1841035
NOTE_ON_50
DURATION_136
POSITION_1841147
NOTE_ON_76
DURATION_31
POSITION_1841147
NOTE_ON_43
DURATION_97
POSITION_1841266
NOTE_ON_47
DURATION_48
POSITION_1841355
NOTE_ON_69
DURATION_38
POSITION_1841364
NOTE_ON_48
DURATION_91
POSITION_1841469
NOTE_ON_47
DURATION_58
POSITION_1841552
NOTE_ON_76
DURATION_30
POSITION_1841568
NOTE_ON_48
DURATION_57
POSITION_1841647
NOTE_ON_52
DURATION_89
POSITION_1841745
NOTE_ON_78
DURATION_30
POSITION_1841747
NOTE_ON_45
DURATION_74
POSITION_1841835
NOTE_ON_48
DURATION_40
POSITION_1841949
NOTE_ON_50
DURATION_83
POSITION_1842047
NOTE_ON_48
DURATION_95
POSITION_1841946
NOTE_ON_71
DURATION_240
POSITION_1842152
NOTE_ON_78
DURATION_47
POSITION_1842150
NOTE_ON_50
DURATION_77
POSITION_1842242
NOTE_ON_54
DURATION_111
POSITION_1842353
NOTE_ON_79
DURATION_41
POSITION_1842356
NOTE_ON_47
DURATION_109
POSITION_1842450
NOTE_ON_50
DURATION_74
POSITION_1842560
NOTE_ON_52
DURATION_57
POSITION_1842561
NOTE_ON_72
DURATION_117
POSITION_1842668
NOTE_ON_71
DURATION_45
POSITION_1842775
NOTE_ON_48
DURATION_44
POSITION_1842774
NOTE_ON_69
DURATION_111
POSITION_1842866
NOTE_ON_67
DURATION_104
POSITION_1842975
NOTE_ON_69
DURATION_55
POSITION_1842975
NOTE_ON_45
DURATION_61
POSITION_1843072
NOTE_ON_64
DURATION_133
POSITION_1843183
NOTE_ON_50
DURATION_44
POSITION_1843285
NOTE_ON_74
DURATION_128
POSITION_1843383
NOTE_ON_54
DURATION_36
POSITION_1843185
NOTE_ON_66
DURATION_283
POSITION_1843380
NOTE_ON_72
DURATION_111
POSITION_1843466
NOTE_ON_71
DURATION_43
POSITION_1843570
NOTE_ON_50
DURATION_40
POSITION_1843572
NOTE_ON_72
DURATION_123
POSITION_1843668
NOTE_ON_69
DURATION_105
POSITION_1843763
NOTE_ON_71
DURATION_121
POSITION_1843862
NOTE_ON_69
DURATION_63
POSITION_1843759
NOTE_ON_55
DURATION_247
POSITION_1843974
NOTE_ON_52
DURATION_44
POSITION_1843973
NOTE_ON_67
DURATION_79
POSITION_1844072
NOTE_ON_66
DURATION_97
POSITION_1844172
NOTE_ON_67
DURATION_41
POSITION_1844172
NOTE_ON_57
DURATION_42
POSITION_1843972
NOTE_ON_73
DURATION_264
POSITION_1844271
NOTE_ON_64
DURATION_111
POSITION_1844379
NOTE_ON_50
DURATION_93
POSITION_1844479
NOTE_ON_52
DURATION_99
POSITION_1844377
NOTE_ON_74
DURATION_205
POSITION_1844379
NOTE_ON_66
DURATION_208
POSITION_1844580
NOTE_ON_69
DURATION_38
POSITION_1844585
NOTE_ON_50
DURATION_91
POSITION_1844671
NOTE_ON_48
DURATION_96
POSITION_1844777
NOTE_ON_62
DURATION_55
POSITION_1844772
NOTE_ON_47
DURATION_86
POSITION_1844867
NOTE_ON_45
DURATION_56
POSITION_1844776
NOTE_ON_74
DURATION_245
POSITION_1845093
NOTE_ON_71
DURATION_53
POSITION_1845002
NOTE_ON_43
DURATION_148
POSITION_1844999
NOTE_ON_64
DURATION_205
POSITION_1845300
NOTE_ON_60
DURATION_94
POSITION_1845200
NOTE_ON_67
DURATION_204
POSITION_1845396
NOTE_ON_72
DURATION_54
POSITION_1845394
NOTE_ON_57
DURATION_67
POSITION_1845213
NOTE_ON_48
DURATION_330
POSITION_1845496
NOTE_ON_54
DURATION_65
POSITION_1845594
NOTE_ON_62
DURATION_44
POSITION_1845687
NOTE_ON_48
DURATION_107
POSITION_1845593
NOTE_ON_66
DURATION_210
POSITION_1845799
NOTE_ON_47
DURATION_188
POSITION_1845799
NOTE_ON_55
DURATION_196
POSITION_1845900
NOTE_ON_45
DURATION_114
POSITION_1845798
NOTE_ON_62
DURATION_216
POSITION_1845992
NOTE_ON_47
DURATION_118
POSITION_1845992
NOTE_ON_67
DURATION_120
POSITION_1846000
NOTE_ON_55
DURATION_117
POSITION_1846087
NOTE_ON_43
DURATION_40
POSITION_1846198
NOTE_ON_40
DURATION_63
POSITION_1846161
NOTE_ON_60
DURATION_107
POSITION_1846264
NOTE_ON_64
DURATION_49
POSITION_1846199
NOTE_ON_66
DURATION_142
POSITION_1846301
NOTE_ON_42
DURATION_92
POSITION_1846492
NOTE_ON_57
DURATION_132
POSITION_1846388
NOTE_ON_62
DURATION_240
POSITION_1846390
NOTE_ON_43
DURATION_243
POSITION_1846582
NOTE_ON_54
DURATION_95
POSITION_1846471
NOTE_ON_42
DURATION_223
POSITION_1846653
NOTE_ON_40
DURATION_56
POSITION_1846675
NOTE_ON_50
DURATION_130
POSITION_1846782
NOTE_ON_55
DURATION_34
POSITION_1846782
NOTE_ON_59
DURATION_46
POSITION_1846782
NOTE_ON_43
DURATION_142
POSITION_1846888
NOTE_ON_60
DURATION_101
POSITION_1846985
NOTE_ON_62
DURATION_104
POSITION_1846988
NOTE_ON_31
DURATION_159
POSITION_1847088
NOTE_ON_65
DURATION_108
POSITION_1847187
NOTE_ON_43
DURATION_32
POSITION_1847187
NOTE_ON_64
DURATION_101
POSITION_1847280
NOTE_ON_67
DURATION_116
POSITION_1847390
NOTE_ON_60
DURATION_68
POSITION_1847389
NOTE_ON_45
DURATION_85
POSITION_1847389
NOTE_ON_65
DURATION_110
POSITION_1847474
NOTE_ON_47
DURATION_95
POSITION_1847472
NOTE_ON_67
DURATION_116
POSITION_1847580
NOTE_ON_47
DURATION_61
POSITION_1847596
NOTE_ON_62
DURATION_68
POSITION_1847582
NOTE_ON_65
DURATION_85
POSITION_1847631
NOTE_ON_48
DURATION_42
POSITION_1847688
NOTE_ON_64
DURATION_99
POSITION_1847728
NOTE_ON_45
DURATION_67
POSITION_1847790
NOTE_ON_65
DURATION_81
POSITION_1847800
NOTE_ON_47
DURATION_80
POSITION_1847875
NOTE_ON_62
DURATION_73
POSITION_1847964
NOTE_ON_48
DURATION_40
POSITION_1847966
NOTE_ON_64
DURATION_98
POSITION_1848066
NOTE_ON_69
DURATION_107
POSITION_1848172
NOTE_ON_50
DURATION_62
POSITION_1848179
NOTE_ON_52
DURATION_89
POSITION_1848173
NOTE_ON_67
DURATION_100
POSITION_1848265
NOTE_ON_49
DURATION_69
POSITION_1848266
NOTE_ON_66
DURATION_108
POSITION_1848380
NOTE_ON_67
DURATION_46
POSITION_1848347
NOTE_ON_50
DURATION_98
POSITION_1848424
NOTE_ON_47
DURATION_51
POSITION_1848477
NOTE_ON_64
DURATION_38
POSITION_1848480
NOTE_ON_49
DURATION_41
POSITION_1848579
NOTE_ON_57
DURATION_131
POSITION_1848579
NOTE_ON_66
DURATION_131
POSITION_1848580
NOTE_ON_50
DURATION_131
POSITION_1848678
NOTE_ON_71
DURATION_37
POSITION_1848781
NOTE_ON_54
DURATION_79
POSITION_1848778
NOTE_ON_69
DURATION_95
POSITION_1848786
NOTE_ON_52
DURATION_90
POSITION_1848878
NOTE_ON_51
DURATION_62
POSITION_1848879
NOTE_ON_67
DURATION_119
POSITION_1848956
NOTE_ON_49
DURATION_149
POSITION_1848989
NOTE_ON_69
DURATION_135
POSITION_1849076
NOTE_ON_66
DURATION_55
POSITION_1849018
NOTE_ON_54
DURATION_113
POSITION_1849080
NOTE_ON_52
DURATION_95
POSITION_1849180
NOTE_ON_67
DURATION_49
POSITION_1849182
NOTE_ON_52
DURATION_74
POSITION_1849276
NOTE_ON_54
DURATION_41
POSITION_1849277
NOTE_ON_62
DURATION_46
POSITION_1849390
NOTE_ON_69
DURATION_43
POSITION_1849392
NOTE_ON_60
DURATION_53
POSITION_1849392
NOTE_ON_54
DURATION_61
POSITION_1849486
NOTE_ON_59
DURATION_71
POSITION_1849584
NOTE_ON_54
DURATION_182
POSITION_1849478
NOTE_ON_55
DURATION_288
POSITION_1849589
NOTE_ON_60
DURATION_212
POSITION_1849689
NOTE_ON_57
DURATION_112
POSITION_1849692
NOTE_ON_52
DURATION_110
POSITION_1849588
NOTE_ON_69
DURATION_215
POSITION_1849770
NOTE_ON_54
DURATION_34
POSITION_1849776
NOTE_ON_55
DURATION_59
POSITION_1849798
NOTE_ON_59
DURATION_157
POSITION_1850028
NOTE_ON_47
DURATION_35
POSITION_1850030
NOTE_ON_35
DURATION_39
POSITION_1850029
NOTE_ON_67
DURATION_129
POSITION_1850140
NOTE_ON_71
DURATION_37
POSITION_1849910
NOTE_ON_62
DURATION_393
POSITION_1850279
NOTE_ON_50
DURATION_42
POSITION_1850283
NOTE_ON_38
DURATION_38
POSITION_1850278
NOTE_ON_69
DURATION_136
POSITION_1850409
NOTE_ON_66
DURATION_63
POSITION_1850676
NOTE_ON_66
DURATION_733
POSITION_1850679
NOTE_ON_60
DURATION_753
POSITION_1850707
NOTE_ON_31
DURATION_1453
POSITION_1851320
NOTE_ON_67
DURATION_840
POSITION_1851344
NOTE_ON_59
DURATION_821
